<?xml version="1.0" encoding="UTF-8"?>
<svg id="Layer_2" data-name="Layer 2" xmlns="http://www.w3.org/2000/svg" viewBox="0 0 154.76 39">
  <defs>
    <style>
      .cls-1, .cls-2 {
        fill: none;
      }

      .cls-1, .cls-2, .cls-3 {
        stroke: #000;
        stroke-miterlimit: 10;
      }

      .cls-2 {
        stroke-linecap: round;
      }
    </style>
  </defs>
  <g id="Layer_3" data-name="Layer 3">
    <g>
      <g>
        <ellipse class="cls-1" cx="77.24" cy="20" rx="7.5" ry="13.5"/>
        <circle class="cls-1" cx="77.24" cy="3.5" r="3"/>
        <circle class="cls-3" cx="77.24" cy="36.5" r="2"/>
      </g>
      <g>
        <g>
          <path class="cls-2" d="M154.26,34.49h-59.11c-3.17,0-6.29-.99-8.79-2.95-1.06-.83-2.11-1.88-3-3.18-1.77-2.58-2.37-5.78-1.96-8.88.6-4.52,3.05-11.15,12.37-10.49,0,0,2.28,0,4.71,1.22,5.46,2.73,6.41,9.97,1.88,14.06-1.13,1.02-2.62,1.73-4.59,1.73-7,0-7-5-7-5,0,0,0-5,5-4"/>
          <path class="cls-2" d="M103.26,16.49s4.5,10.5,9.5,10.5c0,0,4,0,3-4"/>
          <path class="cls-2" d="M144.22,34.49s-7.45-8.5-12.45-8.5-7.9,8-1.45,8.5,4.45-7.5.1-4.25"/>
        </g>
        <ellipse class="cls-1" cx="95.45" cy="18.83" rx="2.31" ry="2.24" transform="translate(60.73 109.72) rotate(-80.25)"/>
      </g>
      <g>
        <g>
          <path class="cls-2" d="M.5,34.48h59.11c3.17,0,6.29-.99,8.79-2.95,1.06-.83,2.11-1.88,3-3.18,1.77-2.58,2.37-5.78,1.96-8.88-.6-4.52-3.05-11.15-12.37-10.49,0,0-2.28,0-4.71,1.22-5.46,2.73-6.41,9.97-1.88,14.06,1.13,1.02,2.62,1.73,4.59,1.73,7,0,7-5,7-5,0,0,0-5-5-4"/>
          <path class="cls-2" d="M51.5,16.48s-4.5,10.5-9.5,10.5c0,0-4,0-3-4"/>
          <path class="cls-2" d="M10.55,34.48s7.45-8.5,12.45-8.5,7.9,8,1.45,8.5-4.45-7.5-.1-4.25"/>
        </g>
        <ellipse class="cls-1" cx="59.59" cy="18.76" rx="2.31" ry="2.24" transform="translate(31.02 74.31) rotate(-80.25)"/>
      </g>
    </g>
  </g>
</svg>