<?xml version="1.0" encoding="UTF-8"?>
<svg id="Layer_2" data-name="Layer 2" xmlns="http://www.w3.org/2000/svg" viewBox="0 0 772.18 1084">
  <defs>
    <style>
      .cls-1 {
        fill: none;
        stroke: #e57221;
        stroke-linecap: round;
        stroke-linejoin: round;
        stroke-width: 4px;
      }
    </style>
  </defs>
  <g id="Gert_Ausloos" data-name="Gert Ausloos">
    <g>
      <path class="cls-1" d="M471.1,773.44c-2.43,8.87,1.21,17.87-.22,26.56-1.7,10.33.48,20.51-1.2,31.07-2.06,12.96-9.14,16.6-19.35,20.25-7.38,2.63-13.8,7.84-20.97,11.18-13.59,6.33-28.04,6.47-42.35,3.53-11.21-2.3-22.3-5.16-33.82-4.82-6,.18-11.81,3.82-17.96,1.34-11.15-4.49-20.44,1.07-30.25,4.97-10.85,4.31-22.43,2.91-33.75,2.92-9.79,0-18.17-5.41-27.24-8.12-9.31-2.78-18.19-5.09-28.14-4.36-6.59.48-13.66-1.3-20.04-3.46-9.06-3.08-18.22-2.95-27.38-2.51-5.22.25-9.75,3.66-12.84,7.81-4.49,6.03-10.84,8.81-17.38,11.38-8.08,3.18-14.6,7.53-18.86,15.76-5.98,11.54-15.97,18.84-27.66,24.9-9.37,4.86-19.84,9.08-25.55,19.66-3.4,6.29-5.63,12.58-7.12,19.49-1.98,9.2-4.33,18.56-14.24,23.04"/>
      <path class="cls-1" d="M288.49,874.09c-.72.48-1.47,1.42-2.15,1.37-12.94-.92-26.09,1.82-38.87-2.68-4.75-1.67-9.96-1.01-15.07-.23-7.45,1.14-14.94-.43-22.24-1.54-8.52-1.3-16.7-4.75-25.22-6.12-12.37-1.98-23.73,1.74-32.94,10.03-8.77,7.89-16.28,17.16-27.38,22.27-3.91,1.8-5.62,5.38-6.72,9.92-3.06,12.64-9.22,22.86-22.74,27.56-9.07,3.16-14.8,10.39-17.35,19.93-5.09,19.04-19.04,29.61-35.88,37.49-1.58.74-2.94.27-4.36.62"/>
      <path class="cls-1" d="M447.37,853.96c-.61,9.55-7.56,13.61-15.14,16.42-8.52,3.15-17.25,3.59-26.59,2.64-12.32-1.25-25.15-1.95-37.28,1.31-8.79,2.36-16.4-.53-23.67-3.42-8.2-3.27-15.42-4.84-23.17.25-1.39.91-3.29,1.23-5,1.47-12.78,1.74-24.29,7.69-36.62,10.96-9.4,2.49-19.02,3.43-27.98.95-10.24-2.83-19.73-.32-29.58.27-15.82.94-28.96,10.21-43.88,13.6-16.11,3.66-27.43,15.22-40.95,23.15-3.72,2.18-6.63,5.67-7.71,9.4-3.02,10.49-9.46,18.24-17.44,25.12-5.4,4.66-9.75,9.63-11.87,17.14-2.04,7.21-9.13,11.76-14.83,16.53-8.48,7.1-11.52,16.85-14.19,26.73-3.17,11.71-1.52,24.02-3.59,35.94-.85,4.91,1.26,9.76,2.9,14.31,1.73,4.78,4.92,8.99,4.99,14.43.02,1.72,1.89.22,2.79.72"/>
      <path class="cls-1" d="M537.24,136.45c-4.23,2.36-8.14,1.53-12.25-.67-17.14-9.19-33.23-19.9-48.16-32.38-18.49-15.46-38.84-28.29-60.47-38.64-29.35-14.05-58.64-11.58-86.88,4.15-11.93,6.65-23.29,14.15-33.9,22.87-8.08,6.64-19,7.88-27.95,13.05"/>
      <path class="cls-1" d="M213.72,462.85c-.84,7.61,4.89,12.14,8.8,17.12,5.88,7.5,13.2,13.91,21.47,18.7,9.16,5.31,15.17,13.74,21.87,21.28,2.57,2.89,2.37,8.52,5.09,12.82,4.57,7.23,11.53,10.55,18.34,14.05,10.58,5.44,19.08,13.76,29.23,19.85,6.82,4.09,13.07,9.04,21.04,10.43,12.66,2.21,21.99,9.5,30.19,18.76,4.42,4.99,9.77,8.74,15.81,11.5,9.44,4.32,13.18,13.39,17.97,21.57,1.14,1.95,1.64,4.25,3.58,5.77,9.38,7.34,15.98,17.36,25.3,25.14,8.51,7.1,18.45,12.83,25.89,21.46,4.47,5.19,7.93,10.93,11.13,16.78,1.27,2.33,2.14,4.32,4.5,5.71,1.15.68,2.09,2.19,2.51,3.52,3.32,10.34,9.13,17.06,19.09,22.31,4.41,2.33,7.57,6.37,12.11,8.83,3.79,2.05,7.02,4.85,11.64,4.82.96,0,2.34.12,2.81.73,11.96,15.45,31.1,21.66,44.75,35.06,14.01,13.74,27.89,27.68,38.44,44.15,8.36,13.04,15.24,27.53,14.49,43.68-1.01,21.82-13.6,39.81-37.24,44.59-13.32,2.7-26.83,1.61-40.25,2.32-7.14.38-13.23-1.62-19.49-4.32-1.16-.5-2.47-1.11-3.45-1.72-2.71-1.71-4.87-4.56-3.5-7.72,1.25-2.88,4.3-4.63,7.74-4.36,17.94,1.42,33.01-6.61,48.18-14.4,6.52-3.35,11.59-18.97,9.54-30.24-2.79-15.31-11.03-28.1-17.69-41.55-5.69-11.5-13.41-21.91-22.68-31.12-6.57-6.53-14.86-10.12-22.41-14.95-10.64-6.82-18.44-16.14-25.23-26.59-1.56-2.39-1.56-4.25-.61-6.54"/>
      <path class="cls-1" d="M245.35,187.5c-13.23,11.29-24.18,23.86-28.34,41.63-1.45,6.2-5.42,12.56-9.96,17.12-9.8,9.85-16.74,21.39-23.64,33.21-6.6,11.31-16.82,19.56-26.56,28.02-6.34,5.51-13.82,13.99-20.13,19.53-19.92,17.49-14,58,11.53,97.06,8.79,13.14,20.19,23.54,33.19,32.21,3.31,2.21,7.33,3.15,10.08,6.51,2.14,2.6,2.66,5.02,1.35,7.98"/>
      <path class="cls-1" d="M274.18,526.05c14.98,3.66,125.81,72.23,122.19,76.22,7,4.52,10.11,11.56,13.86,18.63,5.59,10.55,14.27,18.49,25.64,23.16,17.78,7.3,29.55,20.65,36.5,38.15,2.21,5.56,1.29,12.17,3.77,17.9"/>
      <path class="cls-1" d="M514.24,743.96c-.16,3.07.97,5.02,3.44,7.35,9.55,8.99,21.1,15.22,31.05,23.58,19.42,16.31,36.38,35.11,46.3,58.41,6.9,16.2,7.05,33.81-3.02,50.22-6.33,10.31-17.09,11.96-26.82,14.71-12.25,3.46-25.14,4.39-38.02,3.98-3.58-.11-6.92-.52-10.06-2.24"/>
      <path class="cls-1" d="M755.09,113.44c3.38,1.58,3.77,4.91,4.26,7.92,2.68,16.49,1.34,32.92-3.04,48.82-3.39,12.27-10.03,23.34-19.25,32.35-9.3,9.08-19.44,17.22-31.58,22.32-15.77,6.63-31.34,6.84-47.54.28-10.43-4.22-21.44-7.25-29.98-14.76-7.51-6.61-16.33-11.83-22.34-20.05-2.27-3.1-6.3-2.44-8.7-4.97-1.53-1.61-4.01-2.38-4.3-5.05"/>
      <path class="cls-1" d="M727.05,76.06c-2.65,7.05-.26,14.28,1.06,20.78,8.15,40.14-15.48,80.51-53.53,90.73-18.05,4.85-35.3.31-52.45-3.89-10.04-2.46-19.58-6.3-30.28-4.24-3.1.6-6.28-1.41-9.34-2.68-12.41-5.13-25.36-1.85-38.08-2.29-10.26-.36-18.77,3.37-26.61,9.42-.42.32-.97.73-1.43.69-10.27-.84-19.24,4.95-29.47,5.36-12.2.49-21.95-4.78-31.56-10.49-10.55-6.27-21.51-11.68-32.54-16.89-4.39-2.07-9.96-1.66-14.99-2.38"/>
      <path class="cls-1" d="M425.09,552c9.14-8.32,9.6-21.92.68-30.16-12.33-11.39-26.81-19.16-43.12-22.95-18.16-4.22-36.78-5.57-55.34-5.61-11.26-.02-22.48.62-33.81.28-9.37-.28-14.94-2.84-27.36-3.2s-23.26.78-26.43,3.64"/>
      <path class="cls-1" d="M734.24,84.69c-3.53,4.75-.01,9.66,1.1,13.55,6.07,21.32,1.7,41.67-7.27,60.3-10.7,22.22-29.96,34.88-54.91,38.47-7.19,1.03-14.46.81-21.66,2.39-3.91.86-8.62-1.37-12.86-2.6-7.72-2.23-15.34-4.79-23.03-7.12-3.32-1.01-6.7-1.15-10.06-.02"/>
      <path class="cls-1" d="M288.49,128.54c-1.59-4.49-4.71-1.9-7.18-1.39-13.68,2.78-27.25,6.2-41.01,8.46-17.88,2.94-34.23,9.97-49.44,19.07-14.62,8.75-21.04,23.84-24.54,40.02-1.02,4.72-2.63,9.33-2.28,14.37.93,13.71-1.69,27.07-5.05,40.23-2.3,9.02-2.96,18.28-4.79,27.23-1.22,5.97-2.58,13.27-8.03,18.13-4.81,4.29-8.84,9.33-14.35,13-10.88,7.26-16.11,18.34-19.11,29.34-5.69,20.86-1.03,70.97,10,83s22.33,14.19,33.49,16.97"/>
      <path class="cls-1" d="M99.4,326.25c-4.64,7.26-9.69,7.75-17.36,18.6-14.33,18.15-17.33,71.15,4.67,91.15s27.62,16.16,42.87,18.35c11.33,1.63,21.93,5.93,32.48,10.41,3.39,1.44,5.28,3.34,7.08,6.01"/>
      <path class="cls-1" d="M246.07,206.19c-10.14,3.99-14.93,13.16-19.95,21.68-3.7,6.27-5.82,13.41-7.58,20.69-2.69,11.16-7.83,21.32-16.28,29.58-4.11,4.02-8.3,7.94-11.7,12.78-6.77,9.63-9.25,21.25-15.56,31.09-5.73,8.95-9.15,19.15-11.44,29.44-2.45,11.02-1.2,22.1,4.18,32.29,4.43,8.37,6.5,17.29,7.14,26.62.7,10.23,5.36,18.98,11.64,26.49,11.75,14.06,18.85,31.42,31.52,44.67.57.59,1.95.91,5.67,6.47"/>
      <path class="cls-1" d="M491.23,135.73c.95,2.87-1.25,3.42-2.84,2.78-10.46-4.25-21.67-2.15-32.43-4-7.49-1.29-13.11-6.1-20.04-8.31-4.07-1.3-7.92-2.89-12.26-3.54-10.36-1.54-20.62-3.76-30.94-5.62-9.63-1.74-18.86-1.08-26.56,5.78-3.18,2.83-6.77,4.02-10.8,5.09-18.43,4.93-35.67,11.77-45.37,30.07-4.19,7.91-4.91,17.26-10.71,24.5-6.18,7.72-8.08,17.12-9.27,26.59-.44,3.51.95,7.25.51,10.76-2.88,23.07-5.2,46.17-15.51,67.69-5.28,11.03-11.52,21.1-19.64,30.08-8.29,9.16-19.82,13.42-30.22,19.36-2.14,1.22-4.68,1.73-6.43,3.67"/>
      <path class="cls-1" d="M724.89,2.72c-6.19,19.76-12.92,39.36-13.76,60.39-.34,8.32,1.48,16.35,2.49,24.42,1.98,15.78,2.86,31.21-1.56,46.79-4.53,15.98-14.39,27.28-28.12,35.96-17.69,11.18-36.2,10.81-55.4,5.04-11.33-3.41-22.07-8.65-33.78-10.83"/>
      <path class="cls-1" d="M43.32,356.45c-.47,8.05-3.81,15.43-7.42,22.16-9.21,17.15-6.88,33.61.19,50.47,6.69,15.96,17.65,27.23,33.75,33.97,5.25,2.19,10.6,3.99,15.9,3.89,12.29-.23,24.47,1.08,36.66,1.89,6.07.4,12.83.16,17.99,4.81"/>
      <path class="cls-1" d="M299.99,567.82c6.17-.9,9.9,3.96,14.25,6.68,5.69,3.56,10.97,7.9,15.34,13.36,6.48,8.11,15.97,12.19,25.06,16.61,14.1,6.86,24.16,17.94,32.28,30.97,1.91,3.07,3.84,5.86,7.27,7.12,15.88,5.85,25.25,17.8,30.85,33.12,2.74,7.5,7.58,13.72,13.85,17.74,16.85,10.82,30.01,25.63,44.27,39.21,4.2,4,8.76,8.82,8.8,15.64"/>
      <path class="cls-1" d="M535.81,131.42c-3.5,1.75-7.27,1.08-9.99-.83-20.35-14.35-40.6-28.86-57.62-47.32-18.75-20.35-42.42-29.92-69.71-31.72-12.49-.82-24.94-3.44-37.39-3.28-20.58.26-41.55.27-59.67,12.71-4.98,3.42-8.86,7.99-12.2,12.95-8.66,12.86-20.09,22.47-33.84,29.42-1.05.53-2.38.52-3.58.76"/>
      <path class="cls-1" d="M59.86,342.79c-3.03,12.33-13.15,39.21-13.15,47.21s3.68,32.72,16.84,41.86,38.45,27.81,63.14,31.24c7.97,1.1,17.23.56,23.04,8.39"/>
      <path class="cls-1" d="M287.05,129.26c-10.54,4.79-20.94,9.94-31.67,14.29-14.85,6.02-30.26,10.78-44.48,18.18-15.58,8.11-25.78,21.19-30.95,37.99-4.48,14.57-8.39,29.32-13.15,43.79-1.4,4.25-1.04,10.88-8.46,10.84"/>
      <path class="cls-1" d="M770.18,2.01c-6.95,1.2-13.94,2.2-20.84,3.65-7.13,1.5-11.92,7.38-15.49,12.41-11.37,16-16.03,33.9-7.35,52.89,2.21,4.84,6.46,8.77,9.93,12.99,1.74,2.12,3.59,4.07,5.1,6.43,2.68,4.19,4.48,8.81,8.27,12.55,2.66,2.63,4.16,7.08,3.37,12-.82,5.1.49,10.51.44,15.78-.21,24.71-8.87,46.29-25.2,64.63-7.15,8.03-14.93,15.29-25.74,18.93-13.56,4.57-26.96,3.21-40.28.4-11.55-2.44-23.09-5.33-33.88-10.52-2.04-.98-4.74-.59-7.14-.83"/>
      <path class="cls-1" d="M701.88,40.83c3.05,7.19-.07,14-1.52,20.83-1.48,6.98-1.77,13.64-.96,20.9,1.74,15.56,3.77,31.62-2.67,46.64-8.03,18.73-22.26,29.57-43.01,31.78-17.01,1.81-33.7.24-50.33-3.03-4.15-.82-8.16-2.34-12.23-3.57-.07-.02-.09-.5.01-.68.17-.28.46-.49.7-.73"/>
      <path class="cls-1" d="M280.58,544.09c.71,5.44,3.93,10.42,7.43,13.37,11.08,9.33,17.63,23.17,31.29,29.96,7.05,3.5,12.29,9.65,16.01,17.01,4.39,8.71,11.78,14.6,20.8,17.91,9.54,3.5,17.44,8.62,23.08,17.29,1.8,2.77,4.87,4.64,7.71,6.67,14.02,10,25.28,22.13,32.02,38.58,3.24,7.9,11,13.24,17.68,18.81,3.62,3.02,5.88,6.43,6.71,11.47.92,5.55,3.96,10.99,9.86,12.84,5.7,1.78,8.95,6.04,12.06,10.29,3.17,4.34,5.69,8.68,11.57,10.19,2.7.69,4.91,3.48,6.56,6.24,5.38,9.01,13.18,16,20.02,23.81,7.46,8.52,12.33,22.46,14.33,30.46s1.98,10.14,1.49,14.07-8.42,24.9-12.93,27.97c-20.56,13.96-47.56,21.96-58.56,22.96"/>
      <path class="cls-1" d="M605.54,124.95c-8.98,18.3-22.08,23.57-42.37,19.88-9.46-1.72-19.37-4.52-25.83-12.77-3.63-4.63-7.3-9.01-12.31-12.16-4.4-2.77-7.7-6.58-9.23-11.53-.52-1.69-1.24-3.49-2.35-4.16-9.36-5.66-12.35-15.65-16.3-24.63-9.17-20.83-24.61-34.21-46.23-39.98-9.98-2.66-20.56-3.07-30.86-4.54-1.44-.21-2.9.59-4.35-.66-7.45-6.44-16.11-4-24.4-2.84-14.87,2.07-29.3,1.71-43.94-2.71-13.21-3.99-26.89-5.89-40.93-2.5-21.22,5.13-36.43,17.38-45.95,36.79-6.19,12.61-11.91,25.44-18.13,38.03-.95,1.93-2.1,3.6-2.04,5.81"/>
      <path class="cls-1" d="M599.71,166c-5.95-4.12-44-5.31-50.23-4.31-16.18,2.59-31.66,8.05-47.43,12.27-17.38,4.65-34.03,3.93-50.37-3.7-11.47-5.35-22.96-10.64-34.52-15.79-3.81-1.69-7.84-2.62-11.48.67"/>
      <path class="cls-1" d="M272.67,155.14c-.31,1.87-1.43,3.32-2.9,4.28-14.88,9.7-28.59,21.21-45.24,28.15-12.61,5.26-18.9,15.63-21.66,28.67-1.87,8.83-4.38,17.23-10.5,24.64-5.61,6.8-10.21,14.78-13.66,22.92-4.27,10.08-11.95,16.67-19.53,23.74-2.76,2.58-5.5,2.86-8.73,2.76"/>
      <path class="cls-1" d="M242.71,496c16.95,3.36,48.71,7.32,62.37,19.27,5.39,4.71,12.05,5.97,19.31,6.88,10.85,1.35,21.6.89,32.39,1.15,6.59.15,12.28,3.67,16.32,8.07,5.6,6.1,11.5,11.25,18.89,14.95,8.12,4.06,13.72,10.87,17.86,18.71,1.3,2.46,2.93,3.47,5.17,4.24"/>
      <path class="cls-1" d="M471.1,135.01c-18.3-13.17-38.07-22.43-61.11-23.01-6.54-.17-12.92-2.84-17.76-6.07-17.56-11.7-34.32-7.96-51.21.41-5.09,2.52-9.97,5.73-14.34,9.36-5.64,4.68-12.04,7.66-18.8,9.89-9.14,3.02-17.57,8.29-21.83,16.12-5.65,10.39-14.48,12.48-24.15,14.91-12.6,3.17-25.2,6.5-36.67,12.91-21.73,12.13-34.13,31.35-40.96,54.63-5,17.06-11.34,33.48-21.59,48.17-1.8,2.58-3.29,5.51-7.2,5.02"/>
      <path class="cls-1" d="M184.24,298.93c-37.53,16.07-31.02,70.53-30.77,86.3s6.64,37.9,19.93,53.22c4.89,5.63,10.62,10.83,12.28,18.65"/>
      <path class="cls-1" d="M354.63,102.66c-5.63,11.79-13.86,20.1-27.26,23.27-5.96,1.41-12.2,4.53-16.47,9.2-8.81,9.65-20.78,16.38-26.72,28.65-5.7,11.79-12.85,22.88-13.84,36.65-.93,12.98-4.72,24.96-16.31,33.17-8.61,6.11-12.41,15.9-16.52,25.11-9.19,20.56-19.58,40.25-35.21,56.85-5.48,5.82-10.41,12.27-11.68,20.75-.68,4.56-1.53,8.93,1.52,12.95"/>
      <path class="cls-1" d="M515.67,773.44c1.5.31,2.78.02,4.43,1.28,9.27,7.1,16.43,16.18,24.42,24.51,11.33,11.82,15.27,26.77,19.28,41.8,1.2,4.49,2.45,9.06,2.81,13.66.73,9.42-6.95,19.14-17.85,23.76-3.5,1.48-7.19,3.09-10.78,2.68-9.01-1.04-16.77,2.2-24.44,5.96-3.78,1.86-7.29,2.46-11.57,1.58-3.67-.76-7.85-.99-11.46,1.24"/>
      <path class="cls-1" d="M481.16,696.51c-1.87-8.29.85-16.99-2.17-25.16-5.41-14.64-13.31-27.15-28.75-33.07-4.62-1.77-8.82-4.36-13.55-6.06-5.14-1.86-10.22-6.09-12.07-11.29-3.06-8.56-9.28-14.17-15.42-19.97-3.92-3.69-6.29-8.14-7.78-13.03-1.56-12.82-10.47-18.7-20.9-27.32-5.67-4.69-113.81-49.61-123.81-51.61"/>
      <path class="cls-1" d="M643.65,58.08c-1.32-6.35-7.3-9.08-11.02-13.46-6.94-8.19-15.73-14.85-25.07-20.07-5.87-3.28-13.33-3.19-19.96-.9-14.8,5.1-23.7,15.47-27.46,30.81-3.24,13.24,4.98,33.62,17.42,39.46,9.02,4.24,17.97,14.54,24.16,22.07"/>
      <path class="cls-1" d="M495.54,142.2c-17.95,6.35-34.57,1.9-51.09-5.67-16.59-7.6-33.66-9.37-51.82-4.78-7.72,1.95-15.9,3.97-24.36,3.41-9.11-.61-17.33,3.4-24.27,8.69-5.03,3.84-10.3,6.6-15.91,9.27-5.7,2.71-10.97,6.4-15.21,11.33-1.33,1.55-2.16,4.05-4.99,3.63"/>
      <path class="cls-1" d="M525.02,745.4c6.13-.81,9.77,3.85,14.4,6.43,20.85,11.61,38.61,27.3,55.12,44.11,15.11,15.39,28.5,32.57,38.96,51.6,13.57,24.7,6.15,57.55-15.08,70.3-9.55,5.73-20.32,8.17-31.56,8.83-13.02.77-25.79.32-38.1-4.44-3.94-1.52-8.22-2.58-10.8-6.44"/>
      <path class="cls-1" d="M746.46,101.22c-2.81,3.02-1.63,6.81-1.31,10.05,2.3,23.5-3.51,44.95-15.98,64.7-10.82,17.14-26.15,27.86-46.7,28.5-9.52.3-19.5.57-28.75-3.32"/>
      <path class="cls-1" d="M189.27,311.87c-7.64,5.78-10.14,14.54-12.06,23.04-5.43,24.06-.92,46.15,14.07,66.21,6.37,8.53,9.62,18.82,11.68,29.36,1.66,8.5,3.38,17.01,6.38,25.19.6,1.65.23,3.77,2.93,3.57"/>
      <path class="cls-1" d="M375.48,34.36c7.07,5.95,15.89,6.83,24.46,7.79,11.29,1.27,22.81,1.07,33.76,4.49,17.44,5.45,33.31,13.65,45.31,27.98,9.61,11.48,19.28,22.92,28.7,34.56,2.69,3.32,5.54,4.32,9.41,2.83"/>
      <path class="cls-1" d="M564.56,2.01c-18.46-.4-33.23,18.7-35.46,35.2-2.46,18.23.35,35.14,8.95,51.03,8.37,15.44,22.59,22.22,39.46,23.59,3.83.31,7.39,1.23,10.7,2.52,4.55,1.77,9.04,2.11,13.73,1.99"/>
      <path class="cls-1" d="M376.2,71.74c-10.72,2.8-21.78,4.62-31.62,10.09-14.91,8.29-29.83,16.58-44.56,25.19-13.42,7.85-27.81,13.12-43.19,14.01-8.09.46-16.25.11-24.44.9-21.61,2.07-42.24,6.91-61.11,18.1-14.67,8.7-24.48,21.19-29.37,37.43-1.32,4.37-1.69,9.06-2.19,13.64-.35,3.15.33,6.43-1.49,9.34"/>
      <path class="cls-1" d="M617.77,11.35c-5.5.92-9.72-2.83-14.28-4.58-15.39-5.93-29.02-2.19-42.54,5.27-29.63,16.36-25.02,61.31-7.04,77.53,8.25,7.45,18.62,11.1,29.36,15.14,3.44,1.29,6.44,1.29,9.33,1.55"/>
      <path class="cls-1" d="M635.02,32.2c-4.7,1.02-7.31-2.13-10.07-5.03-24.21-25.46-61.88-18.78-74.75,14.38-5.29,13.63-1.34,26.35,4.3,38.81,1.86,4.1,3.83,8.15,5.74,12.23"/>
      <path class="cls-1" d="M432.28,99.78c-12.95-5.42-25.62-11.43-39.52-14.5-18.93-4.18-36.72-2.06-53.16,8.15-7.22,4.48-14.22,9.4-20.29,15.62-7.54,7.72-17.71,11.34-27.22,15.93-1.06.51-1.93,1.41-2.89,2.13"/>
      <path class="cls-1" d="M381.95,803.64c5.15-14.78-5.67-25.14-17.98-25.73-17.21-.81-33.46,3.81-48.87,11.36-5.33,2.61-10.83,4.97-15.12,9.32-4.99,5.06-7.34,12.44-4.44,20.19,3.34,8.91,10.75,13.69,17.46,19.28.71.59,2.33.08,3.53.08"/>
      <path class="cls-1" d="M122.41,314.75c-6.03-.58-10.11,3.64-14.21,6.69-3.63,2.71-6.62,3.52-10.97,2.77-8.47-1.45-14.34,5.2-21.52,7.87-7.35,2.73-12.95,8.79-20.8,10.97-2.4.67-3.82,4.6-5.84,6.91-5.04,5.76-12.76,8.59-16.57,15.81-12.24,23.2-18.38,46.7-5.75,71.95,8.41,16.81,22.57,26.19,39.57,32.4,4.41,1.61,9.21,2.51,12.97,5.68"/>
      <path class="cls-1" d="M252.54,122.07c-6.05,5.82-14.45,4.55-21.6,7.09-19.99,7.1-40.79,12.43-58.14,25.34-12.65,9.41-17.02,24.09-22.36,38.02-2.34,6.1-1.33,13.23-5.75,18.7"/>
      <path class="cls-1" d="M516.39,150.83c-1.43,4.66-5.8,2.76-8.67,3.42-18.31,4.2-36.63,3.14-54.58-2.05-23.07-6.66-46.48-9.85-70.47-8.51-1.22.07-2.4.91-3.6,1.38"/>
      <path class="cls-1" d="M225.94,875.53c-12.99,7.67-27.36,7.7-41.7,7.12-18.24-.73-32.01,7.47-43.08,20.96-9.27,11.31-18.67,22.49-28.89,32.95-1.35,1.39-2.69,2.34-3.67,4.31-4.74,9.46-12.52,16.5-19.94,23.84-9.75,9.66-19.17,19.65-28.83,29.41-2.68,2.71-2.99,5.88-2.87,9.37.53,15.1,1.1,30.19,1.39,45.29.1,5.38-1.5,10.59-2.66,15.85-1.23,5.63.46,11.22,2.72,16.5"/>
      <path class="cls-1" d="M474.69,749c.45,9.14,5.67,16.37,11.01,22.82,6.67,8.06,11.11,17.42,15.84,26.32,4.53,8.52,7.13,12.38,2.65,29.12s-52.85,41.59-56.48,46.74"/>
      <path class="cls-1" d="M283.71,492c16.42,9.51,36.5,25.26,56.51,23.65,11.8-.95,22.42.21,33.16,4.58,3.06,1.24,6.5,2.58,8.38,4.63,7.83,8.5,17.46,15.07,24.81,24.12,3.87,4.76,5.71,10.42,9.17,15.24"/>
      <path class="cls-1" d="M317.24,833.11c0,1.2-.15,2.42.02,3.59,2.03,14.14.81,17.46-12.31,21.35-12.03,3.57-24.68,6.06-37.29,2.97-9.19-2.25-16.8-5.92-21.42-16.17-3.62-8.04-6.73-16.72-14.21-23.62-14.89-13.74-32.24-15.92-50.67-15.32-18.9.61-34.01,9.64-45.05,24.51-3.96,5.34-8.62,12.17-3.85,19.94"/>
      <path class="cls-1" d="M108.03,880.56c-3.49-1.7-6.38-1.21-10.17.48-9.25,4.11-19.39,5.97-28.67,10.26-14.25,6.59-26.78,15.15-35.22,28.79-2.47,3.99-3.95,8.68-4.03,12.95-.15,8.44-2.28,16.66-1.88,25.17.3,6.34,1.49,11.89,5.92,16.53"/>
      <path class="cls-1" d="M366.13,661.28c9.23,10.85,45.97,59.76,49.7,66.09,8.14,13.8,11.4,29.51,18.02,43.85,1.97,4.27,1.33,7.74-.14,11.57"/>
      <path class="cls-1" d="M353.19,47.3c-29.74-15.78-56.65-14.77-78.51,15.71-5.38,7.5-8.32,16.01-12.73,23.87-2.72,4.86-4.87,10.42-9.56,13.39-3.09,1.96,1.25,5.02-2.55,5.49,2.6,2.36,5.05,2.68,7.73,2.69,16.23.05,31.46-4.5,45.15-12.5,13.66-7.98,27.98-14.55,41.86-22.01,10.01-5.38,20.56-6.92,31.62-3.62"/>
      <path class="cls-1" d="M241.04,343.51c.24-.48.36-1.22.74-1.4,35.93-16.89,49.82-47.59,53.15-84.88.21-2.4-.36-4.99,3.12-5.8,3.36,9.18,1.88,18.73,1.85,28.09-.04,14.62-4.34,28.49-11.62,40.85-9.08,15.43-24.83,21.47-41.49,25.29-9.54-3.87-19.78,1.96-29.63-2.54-4.11-1.88-9.8,2.46-14.94.38"/>
      <path class="cls-1" d="M241.04,837.43c-4.59.47-6.7-3.19-9.31-5.78-8.64-8.59-17.65-16.86-30.24-18.54-16.52-2.21-32.99-2.83-45.99,10.67-5.53,5.74-12.95,10.65-15.99,17.5-2.97,6.68-7.35,12.18-10.55,18.48-3.6,7.1-9.78,11.74-15.02,17.36-11.88,12.74-28.28,15.96-43.3,22.12-20.04,8.22-28.85,23.83-31.93,44.56-1.53,10.31.52,21.07-3.95,30.99-.45,1-.52,2.65,0,3.53,6.32,10.47,1.96,19.76-5.39,26.33-7.8,6.98-9.17,14.66-9.22,24.04-.04,9.1-1.86,18.1-.76,27.34.64,5.4,2.45,9.95,5.23,14.36"/>
      <path class="cls-1" d="M246.07,605.21c-1.63,7.11-5.57,13.45-6.55,20.84-1.37,10.31-2.51,20.74-.43,30.88,2.23,10.86,18.86,20.3,30.72,19.58,10.82-.65,20.7-4.61,30.83-7.57,3.51-1.03,7.99-3.57,7.26-9.09"/>
      <path class="cls-1" d="M249.3,852.52c-9.17,3.26-15.17-3.09-21.93-7.18-12.62-7.65-26.45-10.77-40.96-9.22-15.58,1.67-32.29,9.16-44.59,18.56-2.64-.48-5.27-.96-7.91-1.43"/>
      <path class="cls-1" d="M187.11,929.45c9.08,13.11,5.87,33.06-5.73,46.75-9.85,11.64-22.23,19.64-37.39,18.88-9.01-.45-18.37.51-27.38-2.26-7.84-2.41-14.87,1.15-20.7,5.79-6.57,5.23-9.88,13.15-12.9,20.77-2.02,5.09-2.03,11.19,1.44,15.62,4.46,5.69,8.03,12.01,11,18.26,4.18,8.8,9.17,18,6.81,28.6"/>
      <path class="cls-1" d="M300.71,147.23c-.62,7.34-5.3,13.2-7.43,20.06-2,6.44-4.64,12.89-4.54,19.48.12,7.95-4.17,14.79-4.4,22.3-.44,14.61-3.07,28.53-9.5,41.7-3.91,8.01-8.76,15.66-10.71,24.46-1.38,6.25-1.64,12.74-4.39,18.68-5.11,11.05-12.39,19.76-24.41,23.84-2.04.69-3.89.22-5.79.6"/>
      <path class="cls-1" d="M700.71,39c-7.19,5.27-35.3,28.48-42.73,33.4-12.37,8.19-17.33,21.07-23.12,33.79-7.19,15.8-16.93,29.6-34.29,36.18-3.38,1.28-6.2,1.5-9.41.56"/>
      <path class="cls-1" d="M449.53,738.21c10.41,7.53,20.18,26.79,22.18,33.79s5.5,14.58,5.92,23.72c.26,5.66,1.71,11.14,3.48,16.56,3.17,9.68,1.03,18.74-5.06,26.52-9.03,11.51-18.59,22.61-27.98,33.84-1.13,1.35-2.39,2.51-2.88,4.32-1.2,4.38-3.93,5.38-7.88,3.24"/>
      <path class="cls-1" d="M246.79,847.49c-4.66.76-8.11-1.77-11.49-4.33-6.27-4.74-12.36-9.73-18.73-14.33-14.56-10.53-29.84-7.39-45.29-2.24-8.9,2.96-15.8,8.84-23.04,14.37-2.88,2.21-4.87,6.04-9.3,5.81"/>
      <path class="cls-1" d="M621.36,49.1c-.04-2.66-.13-4.71-2.72-7.01-8.01-7.1-17.26-10.86-27.43-8.91-12.14,2.34-21.17,11.69-19.41,27.05,1.88,16.42,13.38,25.88,25.86,34.47.49.34,1.41.04,2.13.04"/>
      <path class="cls-1" d="M279.86,168.08c-7.1,2.01-9.13,9.09-13.58,13.74-3.29,3.44-5.43,7.99-8.79,11.34-7.74,7.72-11.71,17.19-15.18,27.35-5.55,16.26-11.9,32.27-19.99,47.49-4.14,7.8-10.04,14.27-16.57,20.08-4.7,4.18-7.96,9.34-11.55,14.37-5.49,7.7-4.21,15.62-2.06,23.79"/>
      <path class="cls-1" d="M697.57,82.53c-2.83,7.9-2.63,16.33-4.21,24.46-3.44,17.68-12.59,30.71-28.83,38.87-8.59,4.31-17.78,2.83-26.65,3.29-12.75.67-25.2,2.17-37.37,5.99"/>
      <path class="cls-1" d="M384.11,825.2c1.52-13.49-3.52-24.72-12.29-34.45-3.87-4.3-9.05-7.37-15-5.69-11.2,3.18-22.97,3.59-33.93,8.25-6.6,2.8-10.82,7.53-14.82,12.61-2.23,2.83-1.49,7.33-.03,10.59,2.35,5.27,5.61,10.13,8.49,15.16"/>
      <path class="cls-1" d="M105.87,886.32c.3,2.4-1.07,3.49-2.73,5.17-8.58,8.71-20,12.3-30.33,17.85-18.04,9.69-27.79,23.84-26.17,45.3.55,7.3-2.14,14.83-3.31,22.27-.53,3.36-3.08,4.6-5.76,5.75"/>
      <path class="cls-1" d="M282.02,215.53c-12.51,19.32-26.72,37.53-33.32,60.32-4.13,14.29-9.08,28.55-18.93,40.53-2.08,2.53-4.4,4.26-6.71,6.27-7.81,6.8-18.87,10.2-22.38,21.54-.29.93-1.84,1.45-2.79,2.19-9.99,7.78-12.14,18.95-5.74,30.19,2.71,4.75,5.28,9.19,6.13,15.05.84,5.78,7.94,8.02,11.83,12.28,4.92,5.38,11.86,8.49,15.34,15.7,2.58,5.35,1.98,9.15-.85,13.84-2.65,4.39-5.45,8.64-6.14,14.28-.67,5.5.16,10.26,2.08,15.13"/>
      <path class="cls-1" d="M220.71,490c7,5,10.88,8.9,14.77,12.77,4.89,4.87,8.86,10.88,12.67,16.88,2.64,4.15,5.69,8.33,10.45,11.13,4.04,2.38,6.8,6.65,8.83,11.26,4.07,9.28,10.34,17.01,17.88,23.78,5.03,4.52,8.87,9.8,11.02,16.44.66,2.04,2.43,4.25,4.72,5.95,11.92,8.89,23.24,18.33,31.24,31.36,2.61,4.25,7.92,6.85,11.44,9.75"/>
      <path class="cls-1" d="M237.71,609c-10,6-16.74,18.12-18.1,24.28-4.79,21.74-1.85,41.26,16.26,56.92,9.58,8.28,20.17,8.38,31.01,6.14,14.44-2.99,23.23-14.58,33.06-24.31.36-.36.05-1.39.05-2.11"/>
      <path class="cls-1" d="M327.31,650.5c-17.42-4.47-23.39-5.42-46.6-23.5-9.66-7.58-2.75-30.45-1.7-41.22.84-8.59.55-17.28-7.78-22.99"/>
      <path class="cls-1" d="M258.29,599.45c-1.68-1.17-3.28-1.04-5.05-.03-4.75,2.71-10,4.75-14.25,8.08-4.85,3.79-7.63,8.66-8.42,15.63-1.03,9.1-3.54,18.02-3.25,27.37.44,14.7,13.51,33.03,27.4,37.3,6.52,2,13.44.93,20.09.49,2.05-.14,3.85.58,5.77.31"/>
      <path class="cls-1" d="M172.74,902.13c0,.72.31,1.75-.05,2.11-8.8,8.93-14.27,21.01-26.48,26.8-6.41,3.03-11.5,8.15-14.45,14.95-6.31,14.54-17.96,25-28.01,36.69-2.85,3.32-5.84,6.82-2.18,11.48"/>
      <path class="cls-1" d="M526.46,782.07c-2.35,4.48,1.7,7.73,3.21,10.61,5.73,10.95,8.35,23.05,13.69,34.14,2.15,4.48,3.01,10.7,3.35,16.19.44,6.97-5.85,11.09-11,15-5.21,3.95-10,6-17.16,8.96"/>
      <path class="cls-1" d="M52.67,343.51c-4.31-2.88-8.19.37-10.62,2.36-18.51,15.21-29.44,34.98-32.45,58.76-3.4,26.83,9.52,45.57,29.95,61.33,12.12,9.34,24.81,13.51,39.72,12.06"/>
      <path class="cls-1" d="M344.56,629.65c11.06,5.57,19,14.45,25.89,24.44,1.17,1.7,2.54,3.32,3.64,4.98,14.62,21.93,47.89,56.55,49.63,65.47,1.06,5.44,14.31,11.3,15.99,16.46"/>
      <path class="cls-1" d="M490.51,689.32c-1.84-5.51.28-11.01.2-16.54-.08-5.66-1.42-10.78-4.62-15.01-6.55-8.67-13.86-16.6-21.87-24.13-7.96-7.48-16.76-12.98-26.25-17.52-14.2-6.79-20.62-18.33-22.17-33.2-.72-6.95-2.58-14.28,3.53-20.13,1.19-1.14.58-2.2.11-3.62-2.14-6.4-3.64-13.01-5.91-19.36-5.3-14.82-18.12-20.69-31.62-25.06-10.82-3.5-62.2-13.74-81.2-13.74"/>
      <path class="cls-1" d="M103.72,325.53c-9.55,7.95-22.36,96.8,8,109.47,22.42,9.35,57.25,23.23,69.67,29.98,2.56,1.39,5.26,2.42,5.73,5.79"/>
      <path class="cls-1" d="M421.49,559.19c1.81-1.19,2.59-3.11,2.83-5.04,1.83-15.28-9.81-32.64-24.32-38.99-15.06-6.59-23.79-12.66-42.79-14.66-27-4-60.58-4.74-62.5-4.5"/>
      <path class="cls-1" d="M291.36,905.73c-3.43-.07-4.08,2.01-5.24,4.95-2.85,7.25-11.48,9.16-17.73,4.34-2.66-2.06-4.62-4.32-8.74-3.05-2.08.64-4.43-.92-5.84-4.01-6.92-15.1-37.02-22.49-50.26-8.07-3.19,3.47-7.55,5.87-11.42,8.7-1.12.82-2.46,2.18-3.57,2.06-11.86-1.3-16.56,8.3-22.05,15.4-5.2,6.74-10.49,13.02-17.51,17.77-9.23,6.24-15.83,15.01-22.1,23.86-3.19,4.51-6.08,9.25-10.32,12.72-3.68,3.01-4.76,6.5-4.23,10.88"/>
      <path class="cls-1" d="M468.94,800.04c-3.39,3.66-4.51,8.3-5.79,12.93-1.27,4.6-2.74,9.15-4.3,13.66-2.72,7.91-7.36,14.06-15.8,16.55-.73.21-1.64.27-2.13.75-16.22,15.63-37.33,12.5-56.86,13.85-7.25.5-15.32-.08-23.04-2.11-10.57-2.77-21.11-.4-30.84,4.76"/>
      <path class="cls-1" d="M443.78,712.33c9.98,9.37,21.79,16.16,32.98,23.85,8.12,5.58,15.34,12.41,20.96,20.71,1.04,1.54,2.11,3.3,3.61,4.27,13.7,8.85,19.33,23,23.43,37.52,3.2,11.31,9.23,21.98,8.3,34.45-.55,7.37-1.35,11.88-7.21,19.58-4.15,6.3-11.55,13.46-15.15,17.3"/>
      <path class="cls-1" d="M492.67,137.89c13.18,5.68,26.15,11.91,40.26,15.09,1.19.27,2.72.61,3.58.54,18.05-1.49,35.89,3.8,53.94,1.62"/>
      <path class="cls-1" d="M388.42,834.55c-1.54-4.5-2.97-8.27-8.44-10.51-3.6-1.47-6.03-6.95-7.98-11.11-5.46-11.66-15.08-14.52-26.71-13.58-6.62.54-13.53,1.55-18.51,5.94-3.8,3.35-6.23,8.4-6,14.17.17,4.25.28,8.65-2.81,12.22"/>
      <path class="cls-1" d="M249.66,106.97c-16.54,3.12-33.27,5.45-49.54,9.62-11.06,2.84-22.4-.13-33.13,3.36-17.08,5.55-30.04,14.8-37.26,32.8-3.87,9.65-2.76,17.83-1.5,26.82.2,1.45,1.15,2.96,2.8,3.61"/>
      <path class="cls-1" d="M702.71,44c2.46,5.27-12.38,23.04-13.76,27.75-2.67,9.1-4.54,18.51-8.08,27.25-6.17,15.21-18.17,25.64-31.53,34.48-2.3,1.52-5.4,1.86-7.13,4.41"/>
      <path class="cls-1" d="M424.37,899.26c-6.71-.96-18.58.61-28.12-.82s-36.66-6.33-46.69-8.33c-4.15-.83-8.36-1.04-12.18-3.07"/>
      <path class="cls-1" d="M256.13,608.08c1.73,2.88.46,5.89-.12,8.6-1.69,7.94-1.53,17.41.7,22.32,5,11,16.57,19.18,26.02,19.31,8.16.11,16.25-1.35,24.51.53,2.7.61,6.56-1.55,9.21-3.41,8.75-6.17,16.69-3.33,24.49,1.59,3.76,2.37,7.35,5.07,10.79,7.89,8.15,6.7,11,15.28,10.3,25.86-.5,7.59-1.22,15.16.1,23.06,1.56,9.32,7.37,14.26,13.24,20.17,8.6,8.64,20.21,14.28,25.45,26.41,2.17,5.03,6.72,8.16,12.72,9.6,11.11,2.68,18.47,10.71,24.4,20.01,1.13,1.77,1.18,4.23,3.68,4.98"/>
      <path class="cls-1" d="M443.71,829c0-4,.51-5.84,1-11,.18-1.89,0-6-.32-10.02-.79-9.8.06-19.34-2.7-28.81-3.63-12.45-5.49-25.42-10.87-37.36-2.09-4.63-5.12-8.87-2.3-14.47.82-1.62.24-4.5-.65-6.35-6.39-13.4-10.41-28.13-23.55-37.55-10.85-7.78-17.35-19.46-23.69-30.86-5.27-9.48-13.33-14.65-23.14-17.85-.58-.19-1.42.42-2.14.66"/>
      <path class="cls-1" d="M422.93,905.01c-6.69-2.32-25.22.99-37.22,1.99s-30.82-7.08-41.87-9.18"/>
      <path class="cls-1" d="M451.69,742.53c-1.4,8.28,1.6,15.61,5.85,22.22,8.93,13.91,7.03,28.17,1.89,42.42-1.65,4.57-1.39,11.17-8.46,12.28"/>
      <path class="cls-1" d="M379.07,834.55c-1.14-7.55-7.8-11.42-11.65-17.16-5.33-7.95-12.63-12.09-22.89-8.82-9.42,3.01-13.27,9.76-15.18,18.76-1.19,5.6-2.06,11.91-9.24,13.68"/>
      <path class="cls-1" d="M439.47,741.09c4.07,3.93,6.28,8.83,6.4,14.38.17,8.23,3.07,15.53,7.35,22.23,3.81,5.96,5.06,11.43,1.5,18.11-2.76,5.19-2.13,11.51-3.34,17.26-1.33,6.35-4.42,11.62-7.04,17.09-5.62,11.74-23.88,15.63-35.04,14.35-5.14-.59-10.55-1.39-14.38-5.65-5.12-5.69-12.52-3.65-17.89-2.93-5.4.72-9.6-.53-13.68-2.26-13.84-5.87-26.95-1.64-33.86,11.67"/>
      <path class="cls-1" d="M365.71,661c-9.37-9.14-30.34-21.28-41.88-27.27-11.78-6.11-20.21-15.08-24.35-29.1-4.05-13.69-12.88-25.83-17.81-39.57-1.15-3.2-4.62-8.15-10.44-6.59"/>
      <path class="cls-1" d="M174.17,928.73c2.21,4.26-1.81,6.89-3.09,9.98-3.97,9.59-7.97,19.39-13.68,27.97-6.95,10.44-17.08,17.44-29.95,19.61-2.68.45-5.28,1.4-7.91,2.12"/>
      <path class="cls-1" d="M694.69,76.06c-4.31,10.13-6.09,21.15-11.43,30.95-8.07,14.79-17.5,28.5-35.35,31.24-9,1.38-17.8,3.07-26.57,5.29-1.01.26-2.37-.86-3.57-1.34"/>
      <path class="cls-1" d="M189.27,911.48c.93,6.78-.13,13.28-4.4,18.62-4.64,5.8-5.09,12.88-7.07,19.49-3.89,12.98-8.46,25.5-20.17,33.77-6.09,4.3-13.72,5.05-20.13,8.63"/>
      <path class="cls-1" d="M437.71,880c-5.44,2.59-35.44,3.53-47.17,1.51-7.49-1.29-15.81-2.24-22.86-1.05-9.64,1.62-19.69,1.12-28.66,3.69-6.33,1.82-10.84,2.2-16.81.21-6.17-2.06-12.94-1.37-19.33-.11-7.73,1.52-14.9,3.96-21.04,9.8-6.13,5.83-14.67,4.97-22.02,2.73-3.92-1.19-6.81-.76-10.16.33"/>
      <path class="cls-1" d="M458.88,626.06c1.9.39,3.9-.68,5.77.7,11.51,8.52,24.23,15.65,32.33,28.07,8.81,13.51,8.77,24.53-5.49,34.84-5.68,4.11-13.03,7.37-16.06,14.76"/>
      <path class="cls-1" d="M179.21,119.91c-4.38,6.44-12.3,7.67-17.98,12.22-13.85,11.09-24,24-27.7,42.35-3.09,15.31,2.75,26.36,11.09,37.53,1.09,1.46,1.07,3.76,1.52,5.69,2.65,11.5,5.28,23.01,7.91,34.51"/>
      <path class="cls-1" d="M511.36,101.22c0-1.2.49-2.73-.07-3.54-5.72-8.28-6.55-18.29-9.94-27.39-.58-1.55-.83-3.36-.72-5.01.96-14.14-6.36-24.22-16.68-32.24-9.1-7.06-19.38-11.81-31.55-10.25-2.38.31-4.81,0-6.46,2.22"/>
      <path class="cls-1" d="M217.71,523c-5.75,2.4-16.28,4.73-21.07,8.38-7.94,6.05-12.84,14.87-13.66,24.95-.69,8.52,8.73,13.21,19.26,11.64,12.99-1.93,21.56-9.75,28.61-19.65,3.65-5.13,7.88-8.65,13.75-10.78,6.45-2.33,10.42-1.74,14.36,3.71,3.34,4.63,6.24,9.58,9.42,14.33.77,1.15,2,1.9,1.8,3.62-1.35,11.55,2.79,24.48-5.42,34.21-3.99,4.72-6.14,10.45-10.59,14.88-4.76,4.75-5.46,12.72-6.58,18.52-3.88,21.19,3.12,39.19,25.78,40.84,9.34.35,18.52-2.98,27.33-6.36"/>
      <path class="cls-1" d="M397.77,845.34c-8.88,4.06-17.27-.81-25.87-1.55-2.94-.25-5.92-1.49-8.61-2.82-8.68-4.3-16.36-2.4-24.6,1.98-5.69,3.02-12.09,7.05-19.29,3.11"/>
      <path class="cls-1" d="M617.77,47.3c-10.66-5.94-21.52-6.6-32.32-.66-6.27,3.45-8.82,13.26-4.98,19.29,3.11,4.88,6.19,9.48,11.89,12.71,4.5,2.55,9.3,7.62,8.21,14.68-.17,1.13.2,2.49.7,3.57,2.79,6.08,5.73,11.77,1.73,18.89-1.19,2.11.12,7.46,4.72,8.38,5.55,1.11,6.77-3.39,7.81-7.15,1.67-6.07,2.97-12.03,2.54-18.69-.71-11.08,3.29-20.92,12.55-28.14,1.6-1.25,4.69-1.76,4.41-4.91"/>
      <path class="cls-1" d="M510.64,200.44c-7.23,1.4-8.76,8.61-12.75,13.11-9.65,10.88-19.96,12.18-31.21,3.56-5.83-4.46-10.93-10.57-19.29-11.13-1.38-.09-3.11-2.29-4.45-4.01-5.96-7.64-12.31-14.98-18.59-22.37-3.76-4.44-6.65-9.72-12.88-11.68-1.79-.56-4-3.08-4.18-4.88-.73-7.37-6.36-8.26-11.67-10.11-5.79-2.02-12.29-2.23-17.27-6.42-1.25-1.05-2.38-.17-3.61-.14-9.16.23-18.32.76-27.27,2.53-2.7.53-4.39-.45-6.52-.95"/>
      <path class="cls-1" d="M416.46,163.05c4.95,6.62,12.86,9.48,18.88,14.89,7.61,6.85,16.65,12.1,24.96,18.2,11.32,8.31,25.13,11.35,38.85.71,3.79-2.94,7.66-5.76,11.5-8.64"/>
      <path class="cls-1" d="M185.68,912.92c-12.26,16.37-26.9,30.56-40.83,45.43-8.35,8.91-14.92,19.49-25.32,26.46-1.15.77-.57,1.9-.71,2.88"/>
      <path class="cls-1" d="M213,392.4c-.74,4.57,2.87,6.08,5.77,7.87,7.25,4.48,13.65,9.79,17.94,17.3,4.74,8.27,3.76,17.9-2.06,25.94-1.59,2.19-3.88,4.53-2.97,7.84"/>
      <path class="cls-1" d="M255.41,912.2c-.88,12.07,6.69,19.42,15.18,25.78,7.72,5.78,17.24,7.19,26.53,8.68,4.91.79,10.94-4.32,11.5-9.3.62-5.49-2.53-10.93-7.91-13.66"/>
      <path class="cls-1" d="M190.71,534.75c-1.44-.78-2.93-.92-4.31.01-14.11,9.51-23.67,21.2-17.23,38.8,1.03,2.81,3.07,4.84,5.68,6.54,11.36,7.36,33.51,1.07,39.53-12.3.14-.31-.43-.94-.67-1.42"/>
      <path class="cls-1" d="M200.06,396.71c.21,7.46,5.67,12.72,9.03,18.45,5.15,8.77,5.46,17.14,3.08,26.09-1.79,6.71.67,12.98,1.1,19.42.16,2.46,4.02,3.19,6.92,2.89"/>
      <path class="cls-1" d="M446.66,206.91c.7,12.21,7.25,21.66,14.35,30.94,7.66,10.01,26.29,10.1,35.44-4.95,3.17-5.22,8.14-9.39,10.59-15.21,3.93-9.32,4.11-19.85,9.29-28.79.39-.67.53-2.11-.65-2.84"/>
      <path class="cls-1" d="M419.34,910.76c-2.91,1.11-39.8,6.48-46.62,5.24-5.9-1.07-11-2-14.49-3.8"/>
      <path class="cls-1" d="M220.19,520.37c-8.83,7.42-15.23,16.96-22.13,26-2.59,3.4,1.79,8.83,6.31,8.5,6.94-.5,13.11-3.11,18.68-7.19,2.67-1.96,5.44-2.89,8.64-1.42"/>
      <path class="cls-1" d="M56.27,1000.63c-8.37,3.47-8.42,11.85-10.63,18.74-1.3,4.05-1.11,8.58-1.59,12.89-.71,6.4-1.31,12.59-4.07,18.8-4.75,10.66-.15,20.9,4.18,30.76.15.35,1.82.04,2.77.04"/>
      <path class="cls-1" d="M220.19,392.4c2.68,6.92,9.79,8.12,15.15,11.42,11.99,7.38,16.58,18.3,12.03,33.12-.83,2.7-1.91,5.12-1.3,7.95"/>
      <path class="cls-1" d="M436.59,91.16c-9.41-4.42-18.2-10.06-28.02-13.72-10.02-3.73-20.09-6.85-30.94-6.41"/>
      <path class="cls-1" d="M412.15,30.05c9.84-2.99,19.92-4.19,30.19-4.39,4.98-.1,8.54,3.22,12.94,4.38,18.1,4.81,32.55,14.3,41.03,31.61.56,1.15,1.87,1.94,2.82,2.9"/>
      <path class="cls-1" d="M633.58,61.68c-5.4-2.45-11.29-2.71-16.79-6.04-6.65-4.03-16.08,4.37-19.08,13.37-1.84,6.69,3.41,12.39,2.08,17.12"/>
      <path class="cls-1" d="M370.45,856.84c-3.45-6.8-12.85-10.19-22.28-7.89-7.45,1.82-14.86,3.83-22.29,5.73-2.95.75-5.95,1.94-8.63-.71"/>
      <path class="cls-1" d="M21.04,1013.57c-1.42.35-2.8-.33-4.36.64-8.74,5.5-19.22,28.1-12.58,40.16,5.01,9.09,10.07,19.25,21.25,23.18"/>
      <path class="cls-1" d="M450.97,99.78c8.9,4.1,17.17,9.4,24.31,15.96,6.2,5.69,12.77,10.82,19.62,15.56,3.35,2.32,4.31,5.11,4.24,8.73"/>
      <path class="cls-1" d="M263.32,598.02c.72,1.2,2.2,2.51,2.04,3.58-1.91,12.66-5.16,25.29,3.35,33.41,18,16,41.04,15.05,47.1,14.81,1.98-.08,3.2,1.4,4.31,2.84"/>
      <path class="cls-1" d="M495.54,232.79c-5.94-.19-11.05,3.59-17.27,3.07-6.66-.56-11.97-2.34-15.86-8.06-3.07-4.51-6.68-8.65-9.99-12.99-.96-1.26-2.13-1.64-3.61-1.42"/>
      <path class="cls-1" d="M379.79,727.43c-5.91-7.63-7.78-16.4-8-25.88-.19-7.88-2.14-15.36-8.53-20.85"/>
      <path class="cls-1" d="M688.71,58c-23,15-51.89,53.42-58.05,70.53-.63,1.75-1.98,3.06-3.43,4.45-8.11,7.77-17.84,12.53-28.14,16.44-1.99.76-3.85,1.89-5.76,2.85"/>
      <path class="cls-1" d="M374.76,833.83c-5.27-4.31-10.49-8.69-15.83-12.92-4.72-3.74-9.83-3.26-14.3.07-5.16,3.85-8.54,9.13-9.41,15.73"/>
      <path class="cls-1" d="M117.38,1081.87c3.68-16.66-3.29-30.33-18.63-37.52-2.6-1.22-4.38.73-6.53.13"/>
      <path class="cls-1" d="M360.38,692.92c-5.47,5.86-7,13.95-11.94,20.35-4.83,6.25.07,21.41,7,25.49.94.55,2.06,1.59,3.49,1.63,7.43.19,14.86.46,22.29.7"/>
      <path class="cls-1" d="M619.92,60.24c-11.6,5.18-13.79,14.17-11.77,25.93.9,5.22,1.84,11.2-1.17,16.49"/>
      <path class="cls-1" d="M381.23,728.87c4.31,3.12,8.61,6.25,12.95,9.34,4.8,3.42,8.54,7.22,9.51,13.64.94,6.24,6.42,10.62,8.46,16.56"/>
      <path class="cls-1" d="M28.95,1008.54c.86.77,1.63,1.49,1.46,2.88-1.6,12.89,1.8,26.23-3.07,38.75-1.04,2.66-.47,5.51-.16,7.18,1.57,8.25-2.03,16.43.14,24.52h8.1"/>
      <path class="cls-1" d="M298.55,887.03c-3.67,5.71-8.49,10.99-6.48,18.7,1.31,5.05,4.13,9.49,6.12,14.23,1.95,4.65,2.74,9.12.84,12.97-2.29,4.62-7.23,3.97-12,3.14-5.68-.99-11.15-2.44-16.51-4.47-1.95-.74-3.84-.81-5.76.01"/>
      <path class="cls-1" d="M260.45,912.92c3.35,6.56,9.18,10.68,15.17,14.26,7.37,4.41,14.36.18,15.01-8.51.17-2.24-.44-4.63,1.46-6.47"/>
      <path class="cls-1" d="M518.71,867c-6.7,4.65-17.89,9.06-26.8,8.21-6.53-.63-37.88-2.83-44.2-.21.24.48,27.76,8.52,28,9"/>
      <path class="cls-1" d="M257.57,440.57c10.54,2.48,21.88-10.16,24.23-18.04,1.28-4.3.26-9.09-3.32-12.93-4.04-4.34-9.21-8.12-13.97-10.16-5.99-2.56-13.33-5.16-20.6-2.73"/>
      <path class="cls-1" d="M18.88,1022.2c-8.04,9.95-9.14,21.75-8.38,33.78.14,2.29-.53,3.87-.96,5.77"/>
      <path class="cls-1" d="M700.71,44c-3.92,5.17-19.27,28.15-21.99,34.14-1.95,4.28-1.59,8.73-2.56,13.05-3.43,15.23-12.53,25.72-26.87,30.54-6.41,2.15-10.88,7.87-17.86,8.25"/>
      <path class="cls-1" d="M69.93,1045.92c.96.48,2.56.76,2.78,1.47,2.49,7.98,7.97,13.75,13.72,19.42,4.13,4.08,5.98,9.22,5.79,15.06"/>
      <path class="cls-1" d="M290.64,897.82c-3.43-.54-5.63,1.51-7.93,3.57-5.33,4.79-11.21,5.7-18,3-3.8-1.51-7.99-2.64-12.18-.82"/>
      <path class="cls-1" d="M701.88,9.91c-5.29,5.43-3.74,13.09-6.27,19.49-1.88,4.76-4.8,8.65-7.39,12.86-1.18,1.91-2.71,1.5-4.32.72"/>
      <path class="cls-1" d="M618.12,89c-4.36-5.86-1.82-14.65,5.34-20.2,3.72-2.89,7.81-4.51,12.29-4.85,3.45-.26,6.35-1.6,9.39-3.02-1.1-3.16-4.01-3.54-6.52-3.43-2.85.13-5.57-1.07-7.04-2.45-8.15-7.65-19.87-5.05-27.87-5.05-9.93,0-19.01,11.37-19,19"/>
      <path class="cls-1" d="M676,84.69c-12.33,9.22-17.28,23.61-25.16,35.95"/>
      <path class="cls-1" d="M323,872.66c6.19,2.68,12.62,4.57,19.41,4.26,5.99-.27,11.09,1.72,15.82,5.09"/>
      <path class="cls-1" d="M436.59,881.28c-3.01.8-5.07,2.82-7.25,4.97-6.35,6.25-60.6,2.93-71.11-2.09"/>
      <path class="cls-1" d="M173.45,548.41c.48,3.59-.61,6.97-.74,10.59-.46,12.32,6.47,17.32,23,18,2.23.09,7,1,10,0"/>
      <path class="cls-1" d="M648.68,63.12c-.52,2.77-1.32,5.16-4.29,6.52-12.61,5.78-17.74,17.12-21.7,29.39-.59,1.82.26,5.21-3.49,5.07"/>
      <path class="cls-1" d="M331.62,888.47c-.2,2.79,1.76,4.64,3.65,5.65,9.99,5.3,16.76,13.66,23.98,22.13,7.46,8.76,17.68,15.49,29.25,17.82,4.11.83,9.77,1,14.31-1.72,4.46-2.67,9.45-3.45,12.06-9.86,1.84-4.51,5.87-8.89,7.17-13.94,2.02-7.82,6.88-13.53,12.54-18.47,2.75-2.4,4.51-4.85,5.6-8.09"/>
      <path class="cls-1" d="M413.58,922.26c-11.06,4.53-23.39,2.28-34.51,6.47"/>
      <path class="cls-1" d="M423.65,708.02c8.01,2.16,12.96,7.54,15.82,15.1,2.01,5.31,6.65,8.82,9.35,13.66"/>
      <path class="cls-1" d="M141.82,474.36c5.89-1.71,12.06-1.12,17.92-1.88,9.44-1.22,18.88,2.65,28.13-.9,1.67-.64,3.98-.61,5.69,0,10.37,3.68,20.21,9.84,26.74,17.68,5.83,7,9.75,18.27,2.67,28.18-3.73,5.23-.82,11.28-3.26,16.71-1.21,2.68,4.46,5.67,9.1,4.91,2.65-.44,5.28-2.97,7.91.02"/>
      <path class="cls-1" d="M352.47,709.45c.48,4.31.3,8.83,1.58,12.9,2.25,7.12,10.94,15.45,17.66,18.65"/>
      <path class="cls-1" d="M691.1,2.72c5.18,1.29,8.47,6.17,14.34,6.81,3.02.33,3.76,5.37,2.75,8.23-2.65,7.5-3.11,15.87-8.46,22.35"/>
      <path class="cls-1" d="M290.64,402.46c1.2,1.68,2.41,3.35,3.59,5.03,5.89,8.41,5.83,12.15-.79,20.07-1.21,1.44-1.46,2.74-1.37,4.37"/>
      <path class="cls-1" d="M198.62,385.93c3.17-1.24,5.86.63,7.8,2.29,3.96,3.4,8.41,3.48,13.05,3.46,10.75-.06,20.39,2.55,28.1,10.73,3.48,3.69,7.55,6.83,11.46,10.11,4.89,4.1,6.64,9.54,4.12,15.03-3.39,7.43-6.53,14.64-16.21,17.78-9.33,3.03-19.54,6.59-25.31,16.09"/>
      <path class="cls-1" d="M652.28,2.01c7.1,1.92,12.46,5.81,16.73,12.09,3.07,4.52,8.6,7.32,11.88,11.74,5.79,7.78,3.93,17.55-3.43,24.36-8.16,7.54-19.54,7.31-28.84,12.07-.26.13-1.44-1.65-2.81-1.31"/>
      <path class="cls-1" d="M604.82,2.01c9.08,1.48,13.84,9.06,20.05,14.47,5.27,4.6,9.68,9.57,11.99,17.03,2.61,8.44,9.75,14.7,16.85,20.25,1.62,1.27,4.56,1.19,4.31,4.32"/>
      <path class="cls-1" d="M274.83,163.77c-7.61,8.56-17.49,14.21-26.6,20.85"/>
      <path class="cls-1" d="M684.63,2.01c2.39,7.49,3.4,15.14,2.92,23.01-.09,1.46-.13,2.74-1.48,3.59"/>
      <path class="cls-1" d="M514.96,899.26c-14.08-2.66-26.7-9.18-39.54-15.1"/>
      <path class="cls-1" d="M266.92,399.59c7.07-3.37,13.89.73,20.85.86,1.06.02,1.7,1.42,3.65.73,7.63-2.66,13.57.36,18.7,6.26,5.37,6.18,5.84,10.58.6,16.54-1.03,1.17-2.66,1.81-2.82,3.65"/>
      <path class="cls-1" d="M252.71,536c-5.41-3.67-15.8-20.54-18.66-25.81-1.71-3.16-3.36-4.5-6.67-4.2"/>
      <path class="cls-1" d="M292.08,227.76c3.75,7.48,3.75,15.69,4.67,23.73"/>
      <path class="cls-1" d="M274.11,436.25c9,1.36,16.55-4.36,25.15-5.13,3.85-.34,6.9-3.5,11.58-2.32,3.7.93,14.79-9.35,15.72-13.4,1.32-5.7-1.89-9.61-6.53-11.27-3.94-1.41-8.26-3.8-12.86-1.67"/>
      <path class="cls-1" d="M226.5,511.74c-1.14,12.1,5.74,18.71,15.88,22.93,1.19.49.37,1.08.68,1.52"/>
      <path class="cls-1" d="M97.96,1055.27c8.9,3.45,14.38,12.59,12.95,21.57-.27,1.67-.48,3.35-.72,5.03"/>
      <path class="cls-1" d="M673.84,2.01c4.38,6.27,6.48,13.17,5.75,20.85"/>
      <path class="cls-1" d="M468.22,833.11c-7.52,4.65-14.57,9.8-18.69,17.97"/>
      <path class="cls-1" d="M469.66,122.79c5.98,5.27,13.06,8.74,20.13,12.22"/>
      <path class="cls-1" d="M734.95,2.01c-.64,4.31-4.54,8.63,0,12.94"/>
      <path class="cls-1" d="M475.41,712.33c-3.59,2.14-7.19-1.07-10.78,0"/>
      <path class="cls-1" d="M277.7,152.99c.04,2.73,1.18,5.56-1.41,7.94-2.36,2.17.61,2.95,1.41,4.28"/>
    </g>
  </g>
</svg>