<?xml version="1.0" encoding="utf-8"?>
<!-- Generator: Adobe Illustrator 28.1.0, SVG Export Plug-In . SVG Version: 6.00 Build 0)  -->
<svg version="1.1" id="Layer_2_00000145024184521195579640000005046488075618543251_"
	 xmlns="http://www.w3.org/2000/svg" xmlns:xlink="http://www.w3.org/1999/xlink" x="0px" y="0px" viewBox="0 0 204.9 600"
	 style="enable-background:new 0 0 204.9 600;" xml:space="preserve">
<style type="text/css">
	.st0{fill:none;stroke:#E57221;stroke-width:2;stroke-linecap:round;stroke-linejoin:round;}
</style>
<g>
	<path class="st0" d="M195.9,147.9c-5.8-2.3-12-1.6-18.1-1.6c-5.2,0-9.7,2.9-14.6,4.4c-5,1.5-9.8,2.7-15.1,2.3
		c-3.5-0.3-7.3,0.7-10.8,1.9c-4.9,1.6-9.8,1.6-14.7,1.4c-2.8-0.1-5.2-2-6.9-4.2c-2.4-3.2-5.8-4.7-9.3-6.1c-4.3-1.7-7.8-4-10.1-8.4
		c-3.2-6.2-8.6-10.1-14.8-13.3c-5-2.6-10.6-4.9-13.7-10.5c-1.8-3.4-3-6.7-3.8-10.4c-1.1-4.9-2.3-9.9-7.6-12.3"/>
	<path class="st0" d="M188.2,146c-0.4-0.3-1.9-2.4-2.3-2.3c-6.9,0.5-14-1-20.8,1.4c-2.6,0.9-5.3,0.5-8.1,0.1c-4-0.6-8,0.2-11.9,0.8
		c-4.6,0.7-9,2.6-13.5,3.3c-6.6,1.1-12.7-0.9-17.7-5.4c-4.7-4.2-8.7-9.2-14.7-11.9c-2.1-1-3-2.9-3.6-5.3
		c-1.6-6.8-4.9-12.3-12.2-14.8c-4.9-1.7-7.9-5.6-9.3-10.7C71.4,91,63.9,85.4,54.9,81.1c-0.8-0.4-1.6-0.1-2.3-0.3"/>
	<path class="st0" d="M204.8,146c-0.8-0.5-1.8-0.7-2.7-0.8c-6.9-0.9-13-4.1-19.6-5.9c-5-1.3-10.2-1.8-15-0.5
		c-5.5,1.5-10.6,0.2-15.9-0.1c-8.5-0.5-15.5-5.5-23.5-7.3c-8.6-2-14.7-8.2-21.9-12.4c-2-1.2-3.6-3-4.1-5c-1.6-5.6-5.1-9.8-9.3-13.5
		c-2.9-2.5-5.2-5.2-6.4-9.2c-1.1-3.9-4.9-6.3-7.9-8.9c-4.5-3.8-6.2-9-7.6-14.3c-1.7-6.3-0.8-12.9-1.9-19.3c-0.5-2.6,0.7-5.2,1.6-7.7
		c0.9-2.6,2.6-4.8,2.7-7.7c0-0.9,2.7-32.1,3.2-32.4"/>
	<path class="st0" d="M153.6,143.6c-7-4.1-14.7-4.1-22.4-3.8c-9.8,0.4-17.2-4-23.1-11.2c-5-6.1-10-12.1-15.5-17.7
		c-0.7-0.7-1.4-1.2-2-2.3c-2.5-5.1-6.7-8.8-10.7-12.8C74.7,90.6,69.7,85.3,64.5,80c-1.4-1.4-1.6-3.2-1.5-5
		c0.3-8.1,0.6-16.2,0.8-24.3c0.1-2.9-0.8-5.7-1.4-8.5c-0.7-3,4.7-35.4,6-38.2"/>
	<path class="st0" d="M195.9,153c-6.4-1.9-13.2-3.2-20-1.6c-4.9,1.2-9,3.2-11.5,8.7c-1.9,4.3-3.6,9-7.6,12.7
		c-8,7.4-17.3,8.5-27.2,8.2c-10.1-0.3-18.2-5.2-24.2-13.1c-2.1-2.9-4.6-6.5-2.1-10.7"/>
	<path class="st0" d="M90.3,140.9c-1.9,0.9-3.4,0.6-5.5-0.3c-5-2.2-10.4-3.2-15.4-5.5c-7.6-3.5-14.4-8.1-18.9-15.4
		c-1.3-2.1-2.1-4.7-2.2-6.9c-0.1-4.5-1.2-8.9-1-13.5c0.2-3.4,0.8-6.4,3.2-8.9"/>
	<path class="st0" d="M161.6,164.1c-2.5-0.2-3.6,1.7-5,3.1c-4.6,4.6-9.5,9-16.2,9.9c-8.9,1.2-17.7,1.5-24.7-5.7
		c-3-3.1-6.9-5.7-8.6-9.4c-1.6-3.6-3.9-6.5-5.7-9.9c-1.9-3.8-5.2-6.3-8.1-9.3c-6.4-6.8-15.2-8.6-23.2-11.9
		c-10.7-4.4-15.5-12.8-17.1-23.9c-0.8-5.5,0.3-11.3-2.1-16.6c-0.2-0.5-0.3-1.4,0-1.9c3.4-5.6,1-10.6-2.9-14.1
		c-4.2-3.7-4.9-7.9-4.9-12.9c0-4.9-1-9.7-0.4-14.7c0.3-2.9,1.3-5.3,2.8-7.7"/>
	<path class="st0" d="M166.1,156c-4.9-1.8-8.1,1.6-11.8,3.9c-6.8,4.1-14.2,5.8-22,4.9c-8.3-0.9-17.3-4.9-23.9-9.9
		c-1.4,0.3-2.8,0.5-4.2,0.8"/>
	<path class="st0" d="M106.2,81c-4.8,0.2-6.4-1.7-11.3-0.2c-4.2,1.3-8-0.6-11.1-3.1c-3.5-2.8-5.3-7.1-6.9-11.1
		c-1.1-2.7-1.1-6,0.8-8.4c2.4-3-4.1-9.8-2.5-13.1"/>
	<path class="st0" d="M164.7,158.7c-2.5-0.4-4.3,0.9-6.2,2.3c-3.4,2.5-6.6,5.2-10,7.7c-7.8,5.6-16,4-24.3,1.2
		c-4.8-1.6-8.5-4.7-12.3-7.7c-1.6-1.2-2.6-3.2-5-3.1"/>
	<path class="st0" d="M89.2,137.9c0.2-1.3-0.6-1.9-1.5-2.8c-4.6-4.7-10.7-6.6-16.3-9.6c-9.7-5.2-14.9-12.8-14-24.3
		c0.3-3.9-1.2-7.9-1.8-11.9c-0.3-1.8-1.7-2.5-3.1-3.1"/>
	<path class="st0" d="M125,129.4c0-0.4,0.2-0.9,0-1.1c-4.7-4.8-7.7-11.3-14.2-14.4c-3.4-1.6-6.2-4.4-7.8-8
		c-3.4-7.8-9.6-13.4-15-19.7c-1.5-1.8-3.1-3.7-1.2-6.2"/>
	<path class="st0" d="M188.6,127.4c-1.8,0-2.2-1.1-2.8-2.7c-1.5-3.9-6.1-4.9-9.5-2.3c-1.4,1.1-2.5,2.3-4.7,1.6
		c-1.1-0.3-2.4,0.5-3.1,2.2c-3.7,8.1-19.8,12.1-26.9,4.3c-1.7-1.9-4.1-3.1-6.1-4.7c-0.6-0.4-1.3-1.2-1.9-1.1
		c-6.4,0.7-8.9-4.4-11.8-8.3c-2.8-3.6-5.6-7-9.4-9.5c-4.9-3.3-8.5-8.1-11.8-12.8c-1.7-2.4-3.3-5-5.5-6.8c-2-1.6-2.6-3.5-2.3-5.8"/>
	<path class="st0" d="M125.8,115.1c1.2-2.3-1-3.7-1.7-5.3c-2.1-5.1-4.3-10.4-7.3-15c-3.7-5.6-9.2-9.3-16.1-10.5
		c-1.4-0.2-2.8-0.8-4.2-1.1"/>
	<path class="st0" d="M133.9,124.4c0.5-3.6-0.1-7.1-2.4-10c-2.5-3.1-2.7-6.9-3.8-10.4c-2.1-7-4.5-13.7-10.8-18.1
		c-3.3-2.3-7.4-2.7-10.8-4.6"/>
	<path class="st0" d="M205.2,138.9c-3.3,1.1-6.9,0.7-10.4,0.1c-4.1-0.8-8-2.1-11.3-5.2c-3.3-3.1-7.9-2.7-11.8-1.5
		c-2.1,0.6-3.6,0.4-5.4-0.2"/>
	<path class="st0" d="M132,123.6c-6.6-8.8-14.4-16.4-21.9-24.4c-4.5-4.8-8-10.4-13.6-14.2c-0.6-0.4-0.3-1-0.4-1.6"/>
	<path class="st0" d="M169.4,124c-0.5-6.5,3.6-10.4,8.1-13.8c4.1-3.1,9.2-3.8,14.2-4.7c2.6-0.4,5.9,2.3,6.2,5
		c0.3,2.9-1.4,5.9-4.2,7.3"/>
	<path class="st0" d="M62.6,76.6c-4.5-1.9-4.5-6.3-5.7-10.1c-0.7-2.2-0.6-4.6-0.9-6.9c-0.4-3.4-0.7-6.8-2.2-10.1
		c-2.5-5.7-0.1-11.2,2.2-16.5c0.1-0.2,4.6-27,5.1-27"/>
	<path class="st0" d="M43.7,69.6c-0.8-0.2-1.5,0.2-2.3-0.3c-4.7-2.9-10.3-15.1-6.7-21.5c2.7-4.9,7.6-37.7,13.6-39.8"/>
	<path class="st0" d="M47.9,72.3c0.5-0.4,0.9-0.8,0.8-1.5c-0.9-6.9,1-14.1-1.7-20.8c-0.6-1.4-0.2-3-0.1-3.8
		c0.8-4.4-1.1-8.8,0.1-13.2c1.5,0,0.8-25,2.2-25"/>
	<path class="st0" d="M192.5,137.5c-2-3.1-4.6-5.9-3.5-10c0.7-2.7,2.2-5.1,3.3-7.6c1.1-2.5,1.5-4.9,0.4-6.9
		c-1.2-2.5-3.9-2.1-6.4-1.7c-3,0.5-6,1.3-8.9,2.4c-1.1,0.4-2.1,0.4-3.1,0"/>
	<path class="st0" d="M172.1,123.6c1.8-3.5,4.9-5.7,8.1-7.7c3.9-2.4,7.7-0.1,8.1,4.6c0.1,1.2-0.2,2.5,0.8,3.5"/>
	<path class="st0" d="M42.5,65c-4.3-5.3-4.9-11.7-4.5-18.1c0.1-1.2-0.3-2.1-0.5-3.1"/>
	<path class="st0" d="M69.9,52.3c0.5-0.3,1.4-0.4,1.5-0.8c1.3-4.3,4.3-7.4,7.4-10.4c2.2-2.2-3.4-29-3.5-32.1"/>
	<path class="st0" d="M188.2,131.7c-1.8,0.3-3-0.8-4.2-1.9c-2.9-2.6-6-3.1-9.6-1.6c-2,0.8-4.3,1.4-6.5,0.4"/>
</g>
<g>
	<path class="st0" d="M199,566c-4.3-3.6-13.2-8.2-18-11"/>
	<path class="st0" d="M152.8,364.9c-0.4-4.1,2.6-6.5,4.7-9.2c3.1-4,7.1-7.5,11.5-10c4.9-2.9,8.1-7.4,11.7-11.4
		c1.4-1.5,1.3-4.6,2.7-6.9c2.4-3.9,6.2-5.7,9.8-7.5c5.7-2.9,10.2-7.4,15.7-10.6c3.7-2.2,7-4.9,11.3-5.6"/>
	<path class="st0" d="M169.7,512.5c-7.1-6-13-12.8-15.2-22.3c-0.8-3.3-2.9-6.7-5.3-9.2c-5.3-5.3-9-11.5-12.7-17.8
		c-3.5-6.1-9-10.5-14.2-15c-3.4-3-7.4-7.5-10.8-10.5c-10.7-9.4-7.5-31.1,6.2-52c4.7-7,10.8-12.6,17.8-17.3c1.8-1.2,3.9-1.7,5.4-3.5
		c1.1-1.4,1.4-2.7,0.7-4.3"/>
	<path class="st0" d="M183,331c8-2,18.9-4.9,17-7"/>
	<path class="st0" d="M203,348c-5,0.1-15.4,2-22.1,2.2s-12.5-0.4-14.2-2"/>
	<path class="st0" d="M192.8,544.2c-0.9,2.4-2.5,1-3.9,0.8c-7.3-1.5-14.6-3.3-22-4.5c-9.6-1.6-18.3-5.3-26.5-10.2
		c-7.8-4.7-11.3-12.8-13.2-21.5c-0.6-2.5-1.4-5-1.2-7.7c0.5-7.4-0.9-14.5-2.7-21.6c-1.2-4.8-1.6-9.8-2.6-14.6
		c-0.7-3.2-1.4-7.1-4.3-9.7c-2.6-2.3-4.7-5-7.7-7c-5.8-3.9-8.6-9.8-10.2-15.7c-3.1-11.2-0.6-38,5.4-44.5s12-7.6,18-9.1"/>
	<path class="st0" d="M92,437c-2.5-3.9-5.7-3-9.8-8.8c-7.7-9.7-9.3-38.1,2.5-48.9c11.8-10.7,14.8-8.7,23-9.8
		c6.1-0.9,11.8-3.2,17.4-5.6c1.8-0.8,2.8-1.8,3.8-3.2"/>
	<path class="st0" d="M170.1,502.5c-5.4-2.1-8-7.1-10.7-11.6c-2-3.4-3.1-7.2-4.1-11.1c-1.4-6-4.2-11.4-8.7-15.9
		c-2.2-2.2-4.4-4.3-6.3-6.9c-3.6-5.2-5-11.4-8.3-16.7c-3.1-4.8-4.9-10.3-6.1-15.8c-1.3-5.9-0.7-11.9,2.2-17.3
		c2.4-4.5,3.5-9.3,3.8-14.3c0.4-5.5,2.9-10.2,6.2-14.2c6.3-7.5,10.1-16.9,16.9-24c0.3-0.3,1.1-0.5,3-3.5"/>
	<path class="st0" d="M204.4,528.4c-2.2-4.2-2.6-9.2-5.7-13.1c-3.3-4.1-4.3-9.2-5-14.2c-0.2-1.9,0.5-3.9,0.3-5.8
		c-1.5-12.4-2.8-24.8-8.3-36.3c-2.8-5.9-6.2-11.3-10.5-16.1c-4.4-4.9-10.6-7.2-16.2-10.4c-1.1-0.6-2.5-0.9-3.4-2"/>
	<path class="st0" d="M61.4,422c-0.2-4.3-2-8.3-4-11.9c-4.9-9.2-3.7-18,0.1-27.1c3.6-8.6,9.5-14.6,18.1-18.2
		c2.8-1.2,5.7-2.1,8.5-2.1c6.6,0.1,13.1-0.6,19.7-1c3.3-0.2,6.9-0.1,9.6-2.6"/>
	<path class="st0" d="M199,308.6c3.3,0.5,5.3-2.1,7.6-3.6c3.1-1.9,5.9-4.2,8.2-7.2"/>
	<path class="st0" d="M199.8,580.4c-2.7-1.8-4.8-4.3-6.5-6.9c-4.6-6.9-10.8-12-18.1-15.8c-0.6-0.3-1.3-0.3-1.9-0.4"/>
	<path class="st0" d="M70.3,429.3c-1.6-6.6-7-21-7-25.3s2-17.5,9-22.4s20.6-14.9,33.8-16.8c4.3-0.6,9.2-0.3,12.3-4.5"/>
	<path class="st0" d="M192.1,543.8c-5.6-2.6-11.2-5.3-17-7.7c-8-3.2-16.2-5.8-23.8-9.8c-8.4-4.3-13.8-11.4-16.6-20.4
		c-2.4-7.8-4.5-15.7-7-23.5c-0.8-2.3-0.6-5.8-4.5-5.8"/>
	<path class="st0" d="M188.6,321.4c0.4-2.9,2.1-5.6,4-7.2c5.9-5,9.4-12.4,16.8-16.1c3.8-1.9,6.6-5.2,8.6-9.1"/>
	<path class="st0" d="M202.5,599c-11.4-2.8-19.5-9.3-24.6-19.7c-3.3-6.8-6.4-13.6-9.7-20.4c-0.5-1-1.1-1.9-1.1-3.1"/>
	<path class="st0" d="M184.4,529.9c-0.2-1-0.8-1.8-1.6-2.3c-8-5.2-15.3-11.4-24.3-15.1c-6.8-2.8-10.1-8.4-11.6-15.4
		c-1-4.7-2.3-9.2-5.6-13.2c-3-3.6-5.5-7.9-7.3-12.3c-2.3-5.4-6.4-8.9-10.5-12.7c-1.5-1.4-2.9-1.5-4.7-1.5"/>
	<path class="st0" d="M168.3,347.1c9.1-1.8,26.1-3.9,33.4-10.3c2.9-2.5,6.5-3.2,10.4-3.7c5.8-0.7,11.6-0.5,17.4-0.6
		c3.5-0.1,6.6-2,8.8-4.3"/>
	<path class="st0" d="M203.2,545.7c-4.9-1.6-9.4-4.4-11.7-8.7c-3-5.6-7.8-6.7-12.9-8c-6.8-1.7-13.5-3.5-19.7-6.9
		c-11.6-6.5-18.3-16.8-22-29.3c-2.7-9.1-6.1-18-11.6-25.8c-1-1.4-1.8-3-3.9-2.7"/>
	<path class="st0" d="M137,452.8c-20.1-8.6-16.6-37.8-16.5-46.3c0.1-8.5,3.6-20.3,10.7-28.5c2.6-3,5.7-5.8,6.6-10"/>
	<path class="st0" d="M204.9,540.6c-4.7-5.2-11.1-8.8-14.3-15.4c-3.1-6.3-6.9-12.3-7.4-19.6c-0.5-7-2.5-13.4-8.7-17.8
		c-4.6-3.3-6.6-8.5-8.9-13.5c-4.9-11-10.5-21.6-18.9-30.5c-2.9-3.1-5.6-6.6-6.3-11.1c-0.4-2.5-0.8-4.8,0.8-7"/>
	<path class="st0" d="M242.2,312.5c-3,2.5-61,26.6-66.4,27.7"/>
	<path class="st0" d="M139.7,445.9c-4.1-3.1-5.4-7.8-6.5-12.4c-2.9-12.9-0.5-24.7,7.6-35.5c3.4-4.6,5.2-10.1,6.3-15.7
		c0.9-4.6,1.8-9.1,3.4-13.5c0.3-0.9,0.1-2,1.6-1.9"/>
	<path class="st0" d="M199,555.7c-7.2-4.2-14.9-7-23.1-7.5c-4.3-0.2-8.7-0.1-13.1-0.5c-11.6-1.1-22.7-3.7-32.8-9.7
		c-7.9-4.7-13.1-11.4-15.7-20.1c-0.7-2.3-0.9-4.9-1.2-7.3c-0.2-1.7,0.2-3.5-0.8-5"/>
	<path class="st0" d="M199,548c-0.6-0.3-5.2-2.7-5.8-3.1"/>
	<path class="st0" d="M100.8,441.3c-3.2,0.3-5.4-2-7.6-3.6c-2-1.5-3.6-1.9-5.9-1.5c-4.5,0.8-7.6-3.1-11.5-4.2
		c-4.1-1.1-7.1-4.4-11.1-5.9c-1.3-0.5-2.1-2.5-3.1-3.7"/>
	<path class="st0" d="M173.6,547.6c-3.2-3.1-7.8-2.4-11.6-3.8c-10.7-3.8-21.9-6.7-31.2-13.6c-6.8-5-9.1-12.9-12-20.4
		c-1.2-3.3-0.7-7.1-3.1-10"/>
	<path class="st0" d="M191,349c8.8-5.1,18.9-13.3,29.6-12.4c6.3,0.5,12-0.1,17.8-2.5"/>
	<path class="st0" d="M205,585c5.1-0.2-4.1,9.3-19.5-5.7c-2.9-4-4.5-8.6-6.8-12.8c-1.5-2.6-2.6-5.6-5.1-7.2c-1.7-1,0.7-2.7-1.4-2.9
		c1.4-1.3,2.7-1.4,4.1-1.4c8.7,0,16.9,2.4,24.2,6.7"/>
	<path class="st0" d="M167.4,428.9c0.1,0.3,0.2,0.6,0.4,0.8c19.3,9.1,26.7,25.5,28.5,45.5c0.1,1.3-0.2,2.7,1.7,3.1
		c1.8-4.9,1-10,1-15.1c0-7.8-2.3-15.3-6.2-21.9c-4.9-8.3-13.3-11.5-22.2-13.6c-5.1,2.1-10.6-1-15.9,1.4c-2.2,1-5.3-1.3-8-0.2"/>
	<path class="st0" d="M170.1,288.6c-0.9-3.8-3-7.2-3.5-11.2c-0.7-5.5-1.3-11.1-0.2-16.6c1.2-5.8,10.1-10.9,16.5-10.5
		c5.8,0.4,11.1,2.5,16.5,4.1c1.9,0.6,4.3,1.9,3.9,4.9"/>
	<path class="st0" d="M199.4,534.1c-0.3-3.9-2.8-7.1-4-10.8c-1.1-3.5-2.5-6.9-2.4-10.5c0.1-4.3-2.2-7.9-2.4-12
		c-0.2-7.8-1.6-15.3-5.1-22.4c-2.1-4.3-4.7-8.4-5.7-13.1c-0.7-3.4-0.9-6.8-2.4-10c-2.7-5.9-6.6-10.6-13.1-12.8
		c-1.1-0.4-2.1-0.1-3.1-0.3"/>
	<path class="st0" d="M188.2,523c-3.8-1.1-4.9-4.9-7.3-7.4c-1.8-1.8-2.9-4.3-4.7-6.1c-4.1-4.1-6.3-9.2-8.1-14.7
		c-3-8.7-6.4-17.3-10.7-25.5c-2.2-4.2-5.4-7.6-8.9-10.8c-2.5-2.2-4.3-5-6.2-7.7c-2.9-4.1-2.2-8.4-1.1-12.8"/>
	<path class="st0" d="M189.4,497.5c-6.7-10.4-14.3-20.1-17.9-32.3c-2.2-7.7-4.9-15.3-10.1-21.7c-1.1-1.4-2.4-2.3-3.6-3.4
		c-4.2-3.6-10.1-5.5-12-11.5c-0.1-0.5-1-0.8-1.5-1.2c-5.4-4.2-6.5-10.2-3.1-16.2c1.4-2.5,2.8-4.9,3.3-8.1c0.4-3.1,4.3-4.3,6.3-6.6
		c2.6-2.9,6.4-4.5,8.2-8.4c1.4-2.9,1.1-4.9-0.4-7.4c-1.4-2.4-2.9-4.6-3.3-7.7c-0.4-3,0.1-5.5,1.1-8.1"/>
	<path class="st0" d="M156.5,350.4c3.8-2.7,5.8-4.8,7.9-6.8c2.6-2.6,4.8-5.8,6.8-9c1.4-2.2,3.1-4.5,5.6-6c2.2-1.3,3.6-3.6,4.7-6
		c2.2-5,5.6-9.1,9.6-12.8c2.7-2.4,4.8-5.2,5.9-8.8c0.4-1.1,1.3-2.3,2.5-3.2c6.4-4.8,12.5-9.8,16.8-16.8"/>
	<path class="st0" d="M165.6,286.5c-5.4-3.2-9-9.7-9.7-13c-2.6-11.7-1-22.1,8.7-30.5c5.1-4.4,10.8-4.5,16.6-3.3
		c7.7,1.6,12.4,7.8,17.7,13c0.2,0.2,0,0.8,0,1.1"/>
	<path class="st0" d="M213.7,264.3c-9.3,2.4-12.5,2.9-25,12.6c-5.2,4.1-1.5,16.3-0.9,22.1c0.4,4.6,0.3,9.3-4.2,12.3"/>
	<path class="st0" d="M176.7,291.7c-0.9,0.6-1.8,0.6-2.7,0c-2.6-1.5-5.4-2.5-7.6-4.3c-2.6-2-4.1-4.6-4.5-8.4
		c-0.6-4.9-1.9-9.7-1.7-14.7c0.2-7.9,7.2-17.7,14.7-20c3.5-1.1,7.2-0.5,10.8-0.3c1.1,0.1,2.1-0.3,3.1-0.2"/>
	<path class="st0" d="M93.8,438.5c-5.1-4.3-12-51.9,4.3-58.7c12-5,30.7-12.5,37.3-16.1c1.4-0.7,2.8-1.3,3.1-3.1"/>
	<path class="st0" d="M172,555.7c-8.9-1.7-17.8-2.9-26.6-5.2c-5.9-1.5-12,0.1-17.8-1.8c-9.2-3-16.1-7.9-20-17.6
		c-2.1-5.2-1.5-9.6-0.8-14.4c0.1-0.8,0.6-1.6,1.5-1.9"/>
	<path class="st0" d="M175.5,287c0.9-1.5,0.2-3.2-0.1-4.6c-0.9-4.3-0.8-9.3,0.4-12c2.7-5.9,8.9-10.3,13.9-10.4
		c4.4-0.1,8.7,0.7,13.1-0.3c1.4-0.3,3.5,0.8,4.9,1.8c4.7,3.3,8.9,1.8,13.1-0.9"/>
	<path class="st0" d="M198.7,288.9c-2.2,7.3-6.9,13.9-9.6,21.2c-0.6,1.7-2.5,4.4-5.6,3.5"/>
	<path class="st0" d="M134.3,548.8c-2.4-3.5-6.6-4.1-9.6-6.5c-7.4-6-12.9-12.9-14.8-22.7c-1.7-8.2,1.5-14.1,5.9-20.1
		c0.6-0.8,0.6-2,0.8-3c1.4-6.2,4.1-13.2,5.5-19.4"/>
	<path class="st0" d="M154.9,332.7c-3.1-1.3-8.7-2.5-11.3-4.5c-4.3-3.2-6.9-8-7.3-13.4c-0.4-4.6,4.7-7.1,10.3-6.2
		c7,1,11.6,5.2,15.3,10.5c2,2.8,4.2,4.6,7.4,5.8c3.5,1.2,5.6,0.9,7.7-2c1.8-2.5,3.4-5.1,5.1-7.7c0.4-0.6,1.1-1,1-1.9
		c-0.7-6.2,1.5-13.1-2.9-18.3c-2.1-2.5-3.3-5.6-5.7-8c-2.6-2.5-2.9-6.8-3.5-9.9c-2.1-11.4,1.7-21,13.8-21.9c5-0.2,9.9,1.6,14.6,3.4"
		/>
	<path class="st0" d="M152.4,402.7c-0.4-2.5,1.5-3.3,3.1-4.2c3.9-2.4,7.3-5.2,9.6-9.3c2.5-4.4,2-9.6-1.1-13.9
		c-0.8-1.2-2.1-2.4-1.6-4.2"/>
	<path class="st0" d="M140.4,326.4c-0.8,0.4-1.6,0.5-2.3,0c-7.6-5.1-12.7-11.4-9.2-20.8c0.6-1.5,1.6-2.6,3.1-3.5
		c6.1-3.9,18-0.6,21.2,6.6c0.1,0.2-0.2,0.5-0.4,0.8"/>
	<path class="st0" d="M145.4,400.4c0.1-4,3-6.8,4.8-9.9c2.8-4.7,2.9-9.2,1.7-14c-1-3.6,0.4-7,0.6-10.4c0.1-1.3,2.1-1.7,3.7-1.5"/>
	<path class="st0" d="M156.2,334.1c-4.7-4-8.2-9.1-11.9-13.9c-1.4-1.8,1-4.7,3.4-4.6c3.7,0.3,7,1.7,10,3.9c1.4,1,2.9,1.5,4.6,0.8"/>
	<path class="st0" d="M156.2,402.7c1.4-3.7,5.2-4.4,8.1-6.1c6.4-4,8.9-9.8,6.4-17.8c-0.4-1.5-1-2.7-0.7-4.3"/>
	<path class="st0" d="M179.4,292.4c0.4-0.6,1.2-1.4,1.1-1.9c-1-6.8-2.8-13.6,1.8-17.9c9.6-8.6,22-8.1,25.2-7.9
		c1.1,0,1.7-0.8,2.3-1.5"/>
	<path class="st0" d="M176.3,376.9c5.6-1.3,11.7,5.5,13,9.7c0.7,2.3,0.1,4.9-1.8,6.9c-2.2,2.3-4.9,4.4-7.5,5.4
		c-3.2,1.4-7.1,2.8-11.1,1.5"/>
	<path class="st0" d="M131.2,319c0.3-1.9-0.3-3.7-0.4-5.7c-0.2-6.6,3.5-9.3,12.3-9.6c1.2,0,3.8-0.5,5.4,0"/>
	<path class="st0" d="M114.2,358.7c3.2,0.9,6.5,0.6,9.6,1c5.1,0.6,10.1-1.4,15.1,0.5c0.9,0.3,2.1,0.3,3.1,0c5.6-2,10.8-5.3,14.3-9.5
		c3.1-3.8,5.2-9.8,1.4-15.1c-2-2.8-0.4-6-1.8-9c-0.7-1.4,2.4-3,4.9-2.6c1.4,0.2,2.8,1.6,4.2,0"/>
	<path class="st0" d="M144.7,406.1c1.7,0.7,3.1-0.3,4.2-1.2c2.1-1.8,4.5-1.9,7-1.9c5.8,0,10.9-1.4,15.1-5.8c1.9-2,4.1-3.7,6.1-5.4
		c2.6-2.2,3.6-5.1,2.2-8.1c-1.8-4-3.5-7.9-8.7-9.5c-5-1.6-10.5-3.5-13.6-8.6"/>
	<path class="st0" d="M185.5,525.3c-4.1-4.6-9.4-7.6-14.3-11.2"/>
	<path class="st0" d="M173.7,325.7c-2.9,2-8.5,11-10,13.8c-0.9,1.7-1.8,2.4-3.6,2.2"/>
	<path class="st0" d="M194.8,491c2-4,2-8.4,2.5-12.7"/>
	<path class="st0" d="M159.6,338.7c-0.6-6.5,3.1-10,8.5-12.3c0.6-0.3,0.2-0.6,0.4-0.8"/>
	<path class="st0" d="M187.1,531c0-1.5,0.6-3-0.8-4.3c-1.3-1.2,0.3-1.6,0.8-2.3"/>
</g>
</svg>
