<?xml version="1.0" encoding="UTF-8"?>
<svg id="Layer_2" data-name="Layer 2" xmlns="http://www.w3.org/2000/svg" viewBox="0 0 930.59 662.9">
  <defs>
    <style>
      .cls-1 {
        fill: none;
        stroke: #e5794a;
        stroke-linecap: round;
        stroke-linejoin: round;
        stroke-width: 3px;
      }
    </style>
  </defs>
  <g id="Gert_Ausloos" data-name="Gert Ausloos">
    <g>
      <path class="cls-1" d="M434.92,352.03c-9.54,3.08-32.11,15.11-75.75,6.8-5.83-1.57-11.03-3.12-16.85-1.59-12.66,3.34-25.48,1.62-37.52-1.49-10.11-2.62-20.41-4.78-30.5-7.65-22.49-6.4-42.15,1.11-58.26,16.62-10.69,10.29-20.48,20.9-34.56,27.17-9.29,4.13-65.56,70.74-68.97,83.03-7.76,27.98-27.94,43.98-52.47,56.08-2.1,1.03-7.1,1.09-9.54,1.44"/>
      <path class="cls-1" d="M759.4,172.95c7.27-1.72,12.43,3.19,17.68,6.39,55.43,33.66,100.49,77.88,136.1,132,21.23,32.27,20.6,64.51,1.75,96.78-8.71,14.91-24.95,21.01-40.64,24.77-29.2,6.99-58.54,6.57-86.64-6-3.8-1.7-8.93-4.02-28.76-17.24"/>
      <path class="cls-1" d="M713.56,149.9c-2.3,9.61,5.09,17.88,10.39,24.01,12.33,14.26,26.09,26.12,43.51,35.03,19.94,10.2,33.28,28.69,44.25,48.32,12.12,21.68,24.88,42.89,30.49,67.64,4.98,21.96-1.33,39.09-21.14,49.99-23.08,12.7-77.27,19.64-84.82,19.64"/>
      <path class="cls-1" d="M463.57,357.23c-19.59,2.94-37.61,11.21-56.5,16.46-16.1,4.47-32.64,5.11-49.09.27-9.4-2.77-18.8.28-28.21.88-23.88,1.53-44.71,13.43-67.12,18.97-24.18,5.98-41.44,21.38-61.46,33.15-7.95,4.67-13.58,11.94-16.36,19.92-4.94,14.16-48.57,70.58-58.02,77.73-18.75,14.16-24.12,34.05-26.94,55.42-1.37,10.37-2.2,20.81-3.18,31.23-1.15,12.19,2.52,23.45,7.39,34.32,2.27,5.07,4.53,9.97,4.09,15.66"/>
      <path class="cls-1" d="M691.84,127.23c-11.07,1-23.26-5.11-31.59-10.73-5.72-3.86-85.94-88.24-98.49-99.68"/>
      <path class="cls-1" d="M620.37,103.2c16.18,9.7,26.09,26.2,40.83,37.4,8.36,6.35,17.01,12.49,26.15,17.64,13.07,7.36,22.67,17.86,30.13,30.4,5.45,9.17,13.63,15.69,21.17,22.68,13.06,12.12,20.34,26.96,23.82,43.91,2.94,14.37,11.06,27.42,10.58,42.67-.38,12.08-1.13,22.09-10.74,32.99-13.04,14.79-38.67,20.94-53.47,30.6"/>
      <path class="cls-1" d="M852.43,253.12c13.41,16.87,28,33.01,36.5,53.13,7.41,17.56,13.65,35.77,9.34,55.11-6.37,28.59-24.15,46.64-53.16,53.12-20.37,4.56-41.07,3.13-61.67,3.1-13.48-.02-24.03-6.99-40.6-18.32"/>
      <path class="cls-1" d="M332.91,359.59c-16.14,9.85-40.77,13.88-58.52,12.87-33.56-1.92-57.99,12.06-77.46,37.81-8.32,11-16.53,22.14-27.04,31.36-7.7,6.76-13.81,14.83-19.09,23.75-3.71,6.27-8.63,11.8-14.2,17.02-16.66,15.64-33.05,31.72-48.03,48.94-9.14,10.51-20.04,20.21-23.52,35.1-2.51,10.74-1.81,21.64-3.57,32.39-.73,4.49-1.11,9.99-2.87,13.26-9.45,17.6-4.12,33.12,4.59,48.63"/>
      <path class="cls-1" d="M678.74,37.73c10.29,13.31,18.15,28,18,45.68-.05,6.59.63,13.19.98,19.78"/>
      <path class="cls-1" d="M555.82,277.41c5.59-19.8-3.79-55.66-29.54-56.36-31.84-.87-61.1,9.34-87.63,26.09-15.04,9.5-17.53,28.43-4.32,43.43,6.69,7.59,12.38,16.69,24.01,17.73"/>
      <path class="cls-1" d="M724.9,188.57c13.07,14.18,28.98,25.33,42.61,38.77,21.95,21.65,42.38,44.85,48.38,76.78,1.12,5.95,2.79,11.8,4.13,17.71,4.39,19.23-1.89,30.61-18.75,41.74-16.86,11.13-94.13,21.76-107.8,14.64-3.13-1.46-21.46-5.4-29.02-8.23"/>
      <path class="cls-1" d="M645.46,155.25c4.34,5.04,8.11,10.36,13.37,14.83,8.21,6.96,13.32,16.64,16.87,26.84,1.98,5.7,3.81,11.4,8.45,15.58,6.88,6.2,8.47,14.24,8.34,22.92-.16,10.96.39,21.84,4.2,32.27,5.7,15.64,2.59,29.33-7.14,42.83-11.62,16.11-26.37,29.53-37.76,45.72-5.31,7.55-13.89,6.82-21.03,7.85-7.65,1.1-14.9,2.69-21.87,5.68-14.89,6.38-29.8,2.28-44.99,1.55-15.16-.73-30.98-6.69-45.97,1.54"/>
      <path class="cls-1" d="M350.68,309.34c-1.33-14.58-12.05-22.6-21.94-31.25-11.98-10.49-26.74-13.13-41.8-15.75-17.26-3-34.04-1.4-50.14,4.48-23.66,8.65-40.97,24.34-49.16,48.78-.21.62-.25,1.48,0,2.06,9.58,21.91-10.09,30.64-19.99,43.67-2.48,3.27-6.18,5.62-9.68,8.73-10.94-5.54-20.02,2.1-29.95,4.87-26.89,7.51-51.82,18.41-71.11,39.55-10.29,11.28-15.79,24.18-15.75,39.59.03,10.08-2.56,19.99-2.19,30.2.17,4.73.32,9.73,2.54,13.38,4.45,7.32,6.4,15.56,10.21,23.05"/>
      <path class="cls-1" d="M379.2,352.98c-6.61-1.89-28.34-13.22-48.38-15.51-15.26-2.3-31.16.66-45.98-5.26-12.15-4.85-25.1-4.03-37.67-4.82-8.49-.53-16.26,4.92-21.75,11.25-7.54,8.69-16.72,13.78-27.29,17.72-11.02,4.11-20.51,10.71-26.28,21.65-2.69,5.09-6.2,9.76-9.33,14.62"/>
      <path class="cls-1" d="M679.56,163.12c14.17,20.78,17.64,40.54,25.66,50.29,9.58,11.63,21.57,21.5,24.85,41.78,1.75,10.85-12.17,61.34-22.84,76.26-10.67,14.92-27.57,19.96-30.41,21.62"/>
      <path class="cls-1" d="M864.97,303.09c4.92,17.88,6.79,36.13,1.81,54.06-3.19,11.47-7.8,22.46-20.5,28.45-15.45,7.29-31.54,10.61-48.15,13.59-15.73,2.83-31.52,0-47.12,2.65-2.25.38-4.39-.7-7.17-2.06-9.08-8.95-40.28-14.32-50.11-21.31"/>
      <path class="cls-1" d="M316.73,14.79c-2.91,16.86-5.32,34.1,3.34,51.07,8.12,15.91,17.85,29.48,34.83,36.18,13.51,5.33,45.23,3.14,51.17-10.3"/>
      <path class="cls-1" d="M158.17,369.98c-11.49,10.89-32.36,17.99-46.88,22.61-21.24,6.77-39.36,17.93-48.87,38.67-6.69,14.58-8.16,30.71-10.02,46.7-1.13,9.7,1.72,22.82-4.73,31.81"/>
      <path class="cls-1" d="M459.39,301.01c0,1.04.06,2.09-.01,3.12-.47,6.61,5.35,13.3.46,19.72-6.4,8.4-15.49,13.89-25.58,15.36-12.74,1.85-25.36,5.36-38.66,3.65-9.94-1.27-19.22-3.13-27.17-9.56-3.96-3.2-8.15-4.6-13.61-3.3-8.84,2.12-15.44-4.02-21.8-8.35-37.28-25.34-74.62-18.54-111.84-.61-5.15,2.48-10.89,5.09-14.85,10.08-4.26,5.38-9.96,4.52-15.59,2.15"/>
      <path class="cls-1" d="M345.56,42.8c1.31,14.5,22.2,30.82,39.62,31.14,12.62.24,24.95-1.25,36.67-7.01,7.1-3.49,16.03-2.86,21.91-9.51,2.19-2.48,4.66-4.64,4.14-8.37"/>
      <path class="cls-1" d="M274.35,424.76c10.88,26.47,2.85,63.88-13.59,84.45-15.76,19.72-37.27,28-61.62,26.56-10.64-.63-20.9-.78-31.41.4-5.22.59-8.74-4.46-15.84-2.61-15.73,4.12-21.86,16.19-28.9,27.84-2.93,4.84-4.38,10.88-5.24,16.57-1.05,6.91.33,13.48,7.12,17.7,6.28,3.9,10.67,9.24,12.64,16.61,1.7,6.33,7.02,10.19,11.43,14.59,9.4,9.37,12.83,20.38,9.4,33.32"/>
      <path class="cls-1" d="M157.3,370.76c1.51,7.98-4.16,11.38-9.31,15.74-13.14,11.11-28.89,17.38-44.02,24.84-16.88,8.31-29.55,20.41-35.47,38.57-2.41,7.38-2.56,15.17-3.34,22.87-1.7,16.87,1.97,35.21-12.35,48.99-.7.68-.9,2.01-1.07,3.08-2.85,17.86-6.93,20.66-24.8,32.73-11.95,8.07-20.04,21.23-23.2,36-2.59,12.08-4.58,24.15,3.74,35.61,2.01,2.77,3.79,4.64,6.6,6.01"/>
      <path class="cls-1" d="M362.18,328.08c1.51-8.82-5.32-14.23-10.72-17.23-9.89-5.49-18.03-12.59-25.82-20.3-16.65-16.49-36.67-20.34-59.63-20.22-31.93.16-47.44,22.76-65.69,42.28-1.55,1.66-7.79,10.2-8.14,12.98"/>
      <path class="cls-1" d="M356.14,9.55c-7.17,34.56,8.88,55.34,38.42,51.77,13.54-1.21,39.93-7.15,52.64-12.49"/>
      <path class="cls-1" d="M253.46,398.87c-.73,9.98-89.95,102.26-106.62,120.77-4.14,4.6-5.76,9.68-3.13,15.62"/>
      <path class="cls-1" d="M284.74,404.93c0,2.08-4.37,8.96-5.26,10.54-10.49,18.55-19.63,37.88-24.68,58.44-7.79,31.73-26.48,50.67-58.83,56.18-.4.07-37.46,2.95-37.8,3.29"/>
      <path class="cls-1" d="M331.9,2.21c-1.24,6.91-2.58,13.84-3.09,20.82-1.86,25.77,7.6,46.52,28.07,62.55,7.29,5.71,15.89,5.87,24.14,7.04,21.52,3.05,45.04-9.17,53.29-26.92"/>
      <path class="cls-1" d="M638.18,30.22c16.82,10.12,25.18,18.7,27.14,21.96"/>
      <path class="cls-1" d="M617.22,396.42c-7.32-1.04-16.8-1.31-24-2.88-6.7-1.46-12.83-1.03-18.85,2.19-9.48,5.07-18.21,2.44-27.22-1.97-20.72-10.14-43.32-11.24-65.81-12.59"/>
      <path class="cls-1" d="M386.23,34.24c22.11,6.22,52.9,15.36,60.97,13.65"/>
      <path class="cls-1" d="M540.71,66.78c3.82,7.56,9.27,30.76,9.8,39.53.61,10.06,4.83,18.97,12.36,26.04,5.92,5.56,11.59,11.42,17.83,16.58,8.69,7.19,13.37,16.84,15.32,27.2,2.16,11.49,7.96,20.61,12.73,31.26.9,2.02.9,2.96.11,5.12"/>
      <path class="cls-1" d="M369.49,413.45c-9.98-24.74-52.07-37.04-74.34-16.79-7.13,6.48-15.49,10.19-25.78,12.58-10.38,2.42-20.03,11.75-26.29,21.96-7.91,12.91-18.12,23.59-30.45,32.14-12.36,8.56-21.12,20.09-29.24,32.34-2.61,3.94-4.96,8.33-8.45,11.33-7.74,6.66-13.17,14.62-16.61,24.08"/>
      <path class="cls-1" d="M653.82,167.74c-.03,11.48,2.02,22.6,8.44,32.22,17.16,25.73,9.74,63.33-1.13,76.05-10.86,12.73-14.43,20.53-23.32,28.81-13.65,12.71-44.44,19.32-63.49,5.61-2.24-1.61-4.61-2.87-6.26-5.24-4.73-6.78-9.32-12.93-17.44-17.23-7.93-4.2-10.98-14.58-15.91-22.4-11.95-19.33-35.73-17.7-50.29-10.49-24.95,13.83-24.95,39.33-24.95,45.94"/>
      <path class="cls-1" d="M664.45,143.29c6.3,7.71,27.39,35.89,33.19,40.13,13.17,9.62,26.27,30.85,38.83,46.75,8.54,10.81,19.33,26.58,16.64,56.28-2.7,43.86-78.23,85.99-84.87,83.54"/>
      <path class="cls-1" d="M247.91,439.87c-10.97,30.31-15.95,61.79-48.76,77.77-11.66,5.68-24,7.34-36.63,8.25"/>
      <path class="cls-1" d="M398.09,22.39c16.06,17,66.25,11.6,75.56,16.06"/>
      <path class="cls-1" d="M651.22,356.75c-10.39,14.17-42.17,32.92-60.11,26.49-8.98-3.22-17.86-3.09-27.22-1.18-16.43,3.34-31.98.46-45.96-9.21"/>
      <path class="cls-1" d="M581.33,315.19c-9.2,8.38-20.11,4.39-29.94,3.46-9.11-.86-17.84-3.75-26.07-7.39-14.95-6.62-27.29-.23-39.78,6.42-6.56,3.49-16.65,9.27-25.11,5.07"/>
      <path class="cls-1" d="M79.94,544.63c2.01,2.83,2.62,6.11,2.03,9.36-2.71,15.02.11,29.92,1.42,44.75.76,8.6,1.14,17.17-1.64,24.91-4.62,12.86-2.77,25.09.28,37.58"/>
      <path class="cls-1" d="M711.31,92.78c16.48-7.95,22.58-22.69,15.63-38.5-3.36-7.64-7.28-14.96-13.5-20.88"/>
      <path class="cls-1" d="M501.2,30.32c-15.31-10.89-32.63-18.22-48.33-28.82"/>
      <path class="cls-1" d="M568.1,306.69c-8.85,2.02-15.09.31-20.4-8.49-6.74-11.17-15.2-21.98-25.66-30.44-11.79-9.53-35.37-.59-41.72,15.55-2.29,5.82-4.45,11.72-6.24,17.71-1.69,5.64-6.24,9.38-11.78,11.33"/>
      <path class="cls-1" d="M625.72,166.9c8.21,6.53,26.5,38.79,31.2,52.92,4.69,14.14-2.44,51.16-2.86,63.25"/>
      <path class="cls-1" d="M555.82,290.64c1.3-21.83-6.69-40.51-22.24-55.19-15.54-9.98-64.66,5.13-76.94,14.58"/>
      <path class="cls-1" d="M654.06,320.86c-7.56,6.61-19.57,10.71-26.45,14.17-26.54,13.34-51.32,17.12-79.47,11.25-14.75-3.08-30.13-8.48-45.95-2.76-5.17,1.87-11.18,2.58-16.64.13-11.24-5.03-22.35-2.94-32.31,2.35-15.33,8.14-32.28,5.58-48.16,9.35-9.63,2.28-16.05.38-25.89-2.37"/>
      <path class="cls-1" d="M162.9,392.65c-20.78,32.11-75.75,52.65-79.95,82.21-1.77,12.47-8.58,23.41-20.17,30.19"/>
      <path class="cls-1" d="M639.19,317.67c-17.1,15.12-38.42,15.95-59.57,17.8-13.07,1.14-26.12,4.59-38.69-2.18-13.59,6.89-27.18-5.79-40.77,0-7.12,3.04-15.88,1.14-21.95,7.29"/>
      <path class="cls-1" d="M315.91,297.25c-40.62-20.78-62.03-10.27-82.25.74-6.08,3.31-12.26,6.73-16.83,12.35-6.58,8.09-17.01,10.64-25.04,16.69"/>
      <path class="cls-1" d="M745.81,171.91c-.84,4.76,2.29,7.46,5.19,10.44,8.39,8.62,19.22,14.04,28.24,21.86,63.72,55.26,78.83,83.59,85.45,98.71"/>
      <path class="cls-1" d="M356.53,395.48c4.18-4.56,11.73-4.68,14.92-3.51,16.81,6.2,30.8,2.65,44.14-8.6,12-10.11,48.68-14.54,61.15-3.79,9.99,8.61,19.36,19.44,30.17,25.76,15.33,8.96,30.27,24.82,49.52,20.82,13.91-2.89,30.26,1.2,41.98-10.64,2.7-2.73,7.97-2.02,11.25-2.1"/>
      <path class="cls-1" d="M282.85,405.87c-7.84,10.49-28.2,23.78-34.83,34.13-13.67,21.33-41.15,46.68-49.44,55.39-8.29,8.71-24.93,20.59-35.68,28.54"/>
      <path class="cls-1" d="M764.57,225.46c-2.6,3.85-.26,7.93,1.03,11.03,7.47,17.98,14.79,36.03,21.94,54.14,7.26,19.84-5.04,40-18.72,53.06-13.69,13.06-43.34,20.34-52.32,17.88-6.17-1.69-12.34,1.81-17.58,4.28-12.84,6.04-25.54,6.51-38.82,2.83"/>
      <path class="cls-1" d="M494.05,5.69c23.12,5.66,43.98,12.83,57.36,33.97,7.37,11.64,22.97,32.5,31.8,43.17"/>
      <path class="cls-1" d="M598.33,138.57c5.91,16.26,25.08,56.22,26.94,60.55,3.75,8.72,4.83,20.26,1.4,30.12"/>
      <path class="cls-1" d="M681.45,298.19c-9.34,5.78-19.11,15.85-27.65,22.56-2.13,1.67-19.95,33.4-39.65,37.72-16.02,3.51-31.39-2.06-47.08-1.21-9.42.51-19.26-.16-28.13,2.38-15.87,4.55-29.81-.09-44-5.54-10.09-3.87-20.02-5.68-29.27,2.08"/>
      <path class="cls-1" d="M40.11,550.38c-2.79,16.66-13.91,41.01-15.1,57.79-.62,8.74.01,18.4,3.76,27.02,2.76,6.35,5.26,12.09,4.71,19.84-.59,8.26,7.39,6.27,13.29,5.89-1.31-9.31-7.15-16.1-8.85-24.63-2.73-13.7,2.67-26.38,3.5-39.59.89-13.97,1.28-32.48-1.31-46.31"/>
      <path class="cls-1" d="M549.29,19.91c8.42,7.2,11.85,9.72,17.75,14.59,17.15,14.16,38.84,59.67,53.95,69.12"/>
      <path class="cls-1" d="M541.66,333.14c-12.15-8.99-29.71-12.39-44.74-7.47-12.94,4.23-26.6,6.38-39.64,10.66-1.23.4-5.24-1.47-6.29-3.18"/>
      <path class="cls-1" d="M626.64,171.91c4.7,20.26,13.82,39.58,15.33,60.41,1.03,14.17,1.24,28.45,2.39,42.66.26,3.27,3.17,9.94,4.97,12.82"/>
      <path class="cls-1" d="M38.22,552.27c-6.71,5.37-15.87,26.46-19.31,33.81-7.39,15.82-6.95,32.03-4.34,48,1.45,8.87,8.27,16.58,17.28,20.9"/>
      <path class="cls-1" d="M522.76,98.9c2.2,6.5,1.72,14.43,1.28,20.95-1.22,18.16,8.84,29.89,22.29,39.32,3.55,2.49,6.46,3.97,6.09,8.58"/>
      <path class="cls-1" d="M549.29,146.92c-7.45-10.26-9.99-21.94-10.51-34.35-.51-12.08-4.69-23.83-14.12-32.56"/>
      <path class="cls-1" d="M433.03,375.64c-2.44,3.47-6.39,10.1-7.99,13.92-2.96,7.07-4.03,14.55-.13,21.79,4.07,7.55,6.9,15.47,8.4,23.95,2.05,11.61-2.61,16.92-14.68,15.57-10.83-1.21-21.25-4.41-31.28-8.49-2.53-1.03-4.77-1.85-7.41-1.86"/>
      <path class="cls-1" d="M447.2,47.89c9.45-2.83,12.28-5.67,14.37-5.97,8.73-1.25,15.71-4.78,24-.24,15.16,8.29,30.39,16.92,37.19,33.56,3.08,7.52,3.58,16.63-1.59,24.9-6.84,10.93-14.44,21.56-17.89,34.28-2.66,9.82-.67,18.9,6.42,25.88,6.9,6.8,15.57,8.95,24.94,4.31"/>
      <path class="cls-1" d="M624.77,46.95c28.34,11.33,51.95,52.89,57.95,63.12,6.28,10.09,9.98,21.96,20.84,30.14,10.49,7.91,21.36,15.37,31.84,23.31,5.18,3.92,10.6,7.86,17.72,7.34,5.31-.39,5.61,4.9,8.25,7.42,9.83,9.37,21.78,15.84,32.78,23.45,9.27,6.4,51.64,41.68,59.2,52.07"/>
      <path class="cls-1" d="M122.8,595.64c-4.32,5.19-1.86,10.14,1.17,14.49,2.52,3.62,5.43,7.37,8.47,10.25,12.02,11.37,16.42,24.85,14.4,40.85"/>
      <path class="cls-1" d="M540.93,46.98c17.25,15.9,29.98,35.19,41.89,55.13,1.86,3.12,15.51,36.46,17.4,41.18"/>
      <path class="cls-1" d="M549.21,147.07c3.78,4.72,11.2,9.55,15.56,11.71,12.1,5.99,20.29,16.61,22.87,29.85,1.48,7.62,8.63,11.42,9.74,18.68"/>
      <path class="cls-1" d="M550.16,303.86c-6.65,3.06-13.28,1.84-18.56-.92-20.14-10.51-37.14-4.43-52.17,9.7-5.19,4.88-10.32,6.65-16.9,6.06"/>
      <path class="cls-1" d="M137.43,607.1c3.09-.52,6.03.28,8.31,2.15,4.37,3.59,8.3,7.7,12.62,11.36,12.75,10.81,17.17,23.72,10.43,39.59"/>
      <path class="cls-1" d="M682.04,251.03c-7.65,6.59-9.09,15.98-11.54,24.98-3.31,12.2-21.73,33.03-31.56,42.02"/>
      <path class="cls-1" d="M613.44,405.87c-9.28-4.07-26.45,7.56-43.16,8.02-9.75.27-24.63-5.93-35.98-13.45-10.49-6.95-26.76-8.18-39.87-6.85"/>
      <path class="cls-1" d="M664.45,50.72c14.17,17.95,21.26,32.87,23.78,50.4.52,3.63.68,6.9,5.31,7.28"/>
      <path class="cls-1" d="M421.76,395.75c-3.59.18-7.45-2.17-10.51,2.04-8.41,11.6-20.04,9.24-31.25,6.09-4.85-1.36-9.11-3.34-13.64.19"/>
      <path class="cls-1" d="M676.72,352.98c-4.71,2.51-16.36,8.23-17.82,14.63-.43,1.88-2.78,2.61-5.04,3.29-23.18,6.99-36.92,22.24-44.32,45.56-9.05,28.49-40.82,40.37-60.33,25.31"/>
      <path class="cls-1" d="M368.81,414.37c-.68,15,9.08,28.3,19.69,36.31,11.38,8.59,25.02,12.9,39.53,13.82,6.95.44,13.1-.44,16.73-7.32,3.54-6.73-10.78-27.69-14.56-34.3"/>
      <path class="cls-1" d="M102.94,609.18c4.07,11.44,11.16,20.87,19.89,29.12,6.65,6.29,9.51,13.97,9.38,22.93"/>
      <path class="cls-1" d="M603.05,429.48c-15.9,7.5-38.76,3.54-54.78,10.39"/>
      <path class="cls-1" d="M421.7,403.98c-8.46,16.03-23.27,23.69-37.47,12.46-4.93-3.9-9.35-4.8-14.97-2.23"/>
      <path class="cls-1" d="M511.43,116.84c-3.09,21.95,9.48,39.29,26.44,49.73,2.17,1.34,5.5.76,8.28,1.19,14.43,2.22,25.22,9.01,31.51,22.83,4.22,9.28,11.14,15.74,21.72,19.06,17.67,5.53,35.07,28.48,43.34,45.11"/>
      <path class="cls-1" d="M679.56,207.52c.94,12.28,1.98,19.88,2.32,26.87.53,11.08.62,20.85.57,33.35s.89,26.68-1.02,33.36c-1.66,7.61-4.17,8.99-10.1,18.15-5.93,9.16-21.04,35.61-24.82,42.22"/>
      <path class="cls-1" d="M704,44.89c9.8,14.22,8.28,29.84,6.58,45.84-.64,5.96-4.34,9.81-7.77,10.99-7.85,2.69-10.63,13.17-13.8,18.9"/>
      <path class="cls-1" d="M535.04,294.41c-21.72-15.11-36.03-14.23-42.14-4.82-3.31,5.1-7.11,10.12-7.38,16.62"/>
      <path class="cls-1" d="M513.32,409.65c5.09,13.16,17.81,21.01,28.64,27.76,2,1.25,6.28,3.91,8.2,5.29"/>
      <path class="cls-1" d="M315.14,296.84c12.89,9.37,33.22,23.15,46.11,32.52"/>
      <path class="cls-1" d="M582.74,82.37c14.07,11.85,27.33,24.12,30.66,43.67.42,2.45,11.6,42.76,13.26,45.58"/>
      <path class="cls-1" d="M661.61,117.79c9.63,13.23,54.58,56.75,63.28,70.84"/>
      <path class="cls-1" d="M540.71,46.95c-10.36-12.49-49.23-39.61-80.29-41.56"/>
      <path class="cls-1" d="M612.5,118.73c11.62,15.88,24.56,28.34,33.06,36.84"/>
      <path class="cls-1" d="M555.56,82.37c6.06,10.15,45.14,69.25,52.21,78.86"/>
      <path class="cls-1" d="M500.1,29.94c10.39,7.56,48.76,43.18,55.73,52.89"/>
      <path class="cls-1" d="M456.65,250.02c-15.11,13.22-15.57,19.89-4.57,38.49,2.06,3.49,5.31,9.04,7.4,12.51"/>
      <path class="cls-1" d="M517.93,371.8c-6.94-5.86-15.09-8.57-24.04-8.25-9.87.36-19.14-1.79-28.23-5.29"/>
      <path class="cls-1" d="M428.31,419.09c-.94,3.78-2.83,12.28-10.39,14.17-15.66,3.91-30.16-3.67-46.28-7.56"/>
      <path class="cls-1" d="M476.48,377.53c7.32-2.75,20.54-2.61,27.86-2.66,4.19-.03,8.49.89,12.54-.99"/>
      <path class="cls-1" d="M535.04,294.41c4.17,3.43,6.82,8.63,13.2,7.63"/>
    </g>
  </g>
</svg>