<?xml version="1.0" encoding="UTF-8"?>
<svg id="Layer_2" data-name="Layer 2" xmlns="http://www.w3.org/2000/svg" viewBox="0 0 460.49 489.71">
  <defs>
    <style>
      .cls-1 {
        fill: none;
        stroke: #e57221;
        stroke-linecap: round;
        stroke-linejoin: round;
      }
    </style>
  </defs>
  <g id="home">
    <g>
      <g>
        <path class="cls-1" d="M452.06,281.53c-6.63-2.63-12.65-6.46-17.7-11.41-9.83-9.64-16.81-21.11-20.26-34.52-2.65-10.27-2.91-20.75-1.23-31.12,1.35-8.33,3.69-16.5,5.68-24.73,1.77-7.37,1.69-14.7-.12-22.04"/>
        <path class="cls-1" d="M417.24,158.3c-1.78,4.45-2.59,9.13-3.59,13.8-1.14,5.31-3.44,10.36-4.77,15.64-2.88,11.48-3.91,23.08-2.68,34.98.88,8.43,2.1,16.7,5.01,24.63,5.46,14.92,15.09,26.39,29.02,34.28,6.17,3.49,12.61,6.25,19.52,7.8"/>
        <path class="cls-1" d="M421.88,141.82c-1.64-2.68.04-5.26.68-7.61,2.49-9.1-.02-17.56-2.99-25.85-3.45-9.63-8.34-18.56-15.07-26.41-6.62-7.72-14.88-12.6-24.86-14.55-9.73-1.9-19.52-1.47-29.18.23-7.27,1.28-14.13,3.92-19.77,9.07-1.77,1.62-3.95,2.8-5.97,4.2-2.43,7.11-4.93,14.44-7.46,21.76-.05.15-.37.2-.57.3"/>
        <path class="cls-1" d="M418.56,186.51c.86,7.07-.55,13.93-1.54,20.89-.92,6.49-.77,13.11.24,19.67.92,6.02,2.6,11.86,5.24,17.25,2.43,4.95,5.38,9.8,8.9,14.03,5.42,6.51,11.12,12.91,18.57,17.32"/>
        <path class="cls-1" d="M416.86,141.26c1.79-1.22,1.98-3.09,2.04-5.01.2-7.42-1.73-14.47-3.96-21.42-3.99-12.44-11.01-22.98-20.8-31.62-6.39-5.63-13.77-8.99-22.42-10.04-7.26-.88-14.41-1.47-21.54.26-8.79,2.13-16.32,6.21-20.88,14.47"/>
        <path class="cls-1" d="M359.54,58.67c1.18.19,2.42.72,3.53.52,13.26-2.35,24.82,1.67,35.12,9.63,9.48,7.33,17.77,15.72,22.95,26.84,3.12,6.69,4.99,13.57,5.31,20.87.18,4.2.14,8.42.07,12.63-.07,4.13-1.62,7.86-3.46,11.48"/>
        <path class="cls-1" d="M428.23,175.29c-.28,2.16-.79,4.31-.8,6.47-.02,2.74.54,5.48.54,8.22.03,9.48,1.01,18.85,2.48,28.21,1.21,7.73,2.23,15.45,4.84,22.9,3.55,10.15,10.27,17.55,19.66,22.43"/>
        <path class="cls-1" d="M432.69,120.91c-.52-.87-1.04-1.73-1.45-2.42.77-8.59-.44-16.6-3.97-24.3-4.19-9.14-9.59-17.52-16.75-24.5-6.4-6.23-13.18-12.39-22.11-14.92-10.15-2.88-20.05-2.77-29.21,3.54-1.72,1.19-4.04,1.57-6.14,2.14-7.31,1.98-14.41,4.49-20.57,8.98-3.6,2.63-6.64,5.85-7.35,10.57"/>
        <path class="cls-1" d="M351.02,4.35c-.88.1-1.87-.01-2.64.34-4.79,2.23-8.14,6.06-9.53,10.93-.97,3.39,1.4,6.59,3.77,8.99,5.23,5.31,11.4,9.31,18.27,12.35,7.58,3.35,15.6,4.83,23.65,6.3,7.96,1.46,15.14,4.77,21.23,9.95,10.61,9.01,19.26,19.78,25.45,32.2,3.84,7.71,5.2,16.11,4.21,24.91-.53,4.68-2.02,9.01-2.98,13.52-.85,3.98-1.27,8.05-2.07,12.04-.99,4.94-2.89,9.5-6.4,13.26"/>
        <path class="cls-1" d="M430.24,162.94c.9,3.13,1.93,6.23,2.67,9.4,1.21,5.16,2.36,10.34,3.32,15.56,1.91,10.31.92,20.76,1.42,31.13.46,9.53,3.06,18.47,9.17,26.14.72.9,1.02,2.13,1.52,3.2"/>
        <path class="cls-1" d="M418.39,152.42c1.07-4.21-.08-7.82-2.29-11.52-1.46-2.45-1.87-5.57-2.49-8.44-1.3-6.02-2.48-12.03-5.98-17.32-3.7-5.58-7.1-11.35-10.75-16.96-3.85-5.91-8.43-11.18-14.52-14.91-10.28-6.29-21.32-7.69-32.71-3.88-5.39,1.8-10.42,4.68-15.64,7.02-1.73.78-3.53,1.4-5.29,2.1"/>
        <path class="cls-1" d="M421.35,154.17c2.21,3.39,2.65,7.35,3.59,11.15,1.04,4.16,1.86,8.36,5.3,11.51.85.78,1.13,2.45,1.22,3.74.52,7.14,1.14,14.29,1.27,21.44.18,10.5,2.18,20.69,4.62,30.83.99,4.13,2.51,8,5.07,11.44,1.6,2.15,3.02,4.12,6.2,4.57"/>
        <path class="cls-1" d="M422.31,230.57c1,3.23,1.78,6.54,3.04,9.67,3.46,8.56,9,15.74,16.03,21.63"/>
        <path class="cls-1" d="M346.38,81.65c1.08.19,2.16.53,3.25.55,5.73.08,11.41-.37,17.14,1.01,7.03,1.7,13.17,4.97,18.55,9.48,9.16,7.69,16.18,17.17,21.73,27.74,1.24,2.37,2.57,4.69,3.86,7.04"/>
        <path class="cls-1" d="M356.9.5c-1.96,1.58-4.46,2.8-5.77,4.8-3.08,4.7-1.61,9.44,3.19,12.86,7.1,5.07,15.29,7.95,23.09,11.59,6.91,3.22,13.44,6.96,18.87,12.34,1.41,1.4,3.41,2.91,2.44,5.52"/>
        <path class="cls-1" d="M340.45,13.21c3.4,5.89,8.27,10.13,14.18,13.52,7.66,4.38,15.27,8.79,23.7,11.55,3.01.99,6.15,1.61,9.13,2.67,1.86.66,4.36.88,4.46,3.75"/>
        <path class="cls-1" d="M458.85,102.86c.4.88,1.2,1.79,1.13,2.63-.77,9.98-2.51,19.76-9.34,27.59-2.57,2.95-6.07,5.16-9.34,7.42-2.89,2-5.93,3.85-9.13,5.27-1.6.71-3.69.32-5.56.43"/>
        <path class="cls-1" d="M455.05,108.75c1.54,1.39,1.11,3.08.6,4.69-3.66,11.53-10.21,20.89-20.82,27.1-1.73,1.01-3.72,1.82-5.87.95"/>
        <path class="cls-1" d="M426.16,174.13c-.39,1.47-.95,2.92-1.13,4.42-.82,6.95-1.54,13.91-2.29,20.87"/>
        <path class="cls-1" d="M442.26,147.02c1.58,1.27.91,2.49.03,3.83-2.94,4.48-6.59,8.28-10.87,11.5"/>
        <path class="cls-1" d="M448.69,136.11c1.18,2.6-.83,4.25-2.09,5.84-4.35,5.48-10.35,9.01-16.13,12.72-2.74,1.76-5.37.36-6.2-2.86-.27-1.05-.8-2.03-1.22-3.07-1.33-.05-2.41-.1-3.5-.14"/>
        <path class="cls-1" d="M328.13,89.09c-2.54,2.36-5.09,4.73-7.63,7.09"/>
        <path class="cls-1" d="M428.44,155.9c.29,1.98-.8,4.24,1.21,5.87"/>
      </g>
      <g>
        <path class="cls-1" d="M145.51,300.01c-3.32-1.16-5.86,1.09-8.31,2.42-6.32,3.44-12.48,7.23-18.42,11.29-11.71,8.02-21.61,17.94-28.74,30.23-4.8,8.27-8.89,16.95-13.06,25.57-6.56,13.54-14.36,26.2-25.67,36.36-5.13,4.62-10.54,8.94-17.04,11.61"/>
        <path class="cls-1" d="M120.09,256.74c4.89,1.9,9.77,3.79,14.65,5.69-.88,2.46-2.63,2.78-5.08,2.98-11.84.99-23.47,3.36-34.57,7.63-11.13,4.29-21.02,10.53-28.53,20.07-4.93,6.27-8.93,13.01-12.22,20.31-4.42,9.83-7.37,20.01-8.82,30.62-1,7.39-1.75,14.81-.22,22.54,1.06-.33,2.11-.66,3.4-1.06,1.77-8.28,3.44-16.72,5.4-25.09,3.4-14.52,8.24-28.43,18.17-40.05,8.28-9.69,18.05-17.41,29.39-23.28,6.56-3.39,13.24-6.31,20.52-7.55,4.6-.78,9.29-1.04,13.92-1.62.76-.1,1.47-.63,2.2-.96"/>
        <path class="cls-1" d="M12.45,434.92c-1.4,2,.23,3.28,1.37,4.22,12.19,10.03,24.14,20.36,37.47,28.96,9.02,5.82,18.09,11.55,28.11,15.49,10.55,4.15,21.51,6.42,32.97,5.37,6.38-.58,12.13-2.61,17.49-6.31,5.77-3.98,11.12-8.23,14.98-14.14"/>
        <path class="cls-1" d="M26.33,431.21c-.35,2.27.57,3.75,2.85,4.09,10.69,1.6,20.1,6.72,29.97,10.62,13.81,5.45,28.03,9.03,43.06,7.45,9.32-.98,18.28-3.45,25.98-9.06,5.6-4.08,9.26-9.36,8.95-16.77-.13-3.11-.81-5.66-3.6-7.32"/>
        <path class="cls-1" d="M20.81,437.61c2.31-2.03,4.67-.69,6.89.06,12.74,4.33,24.72,10.33,36.58,16.63,6.11,3.24,12.68,5.25,19.52,6.44,12.52,2.18,24.57.73,36.43-3.82,6.26-2.4,11.92-5.22,16.12-10.69,3.68-4.79,4.75-10.25,4.91-15.98.04-1.47-1.05-2.97-1.62-4.46"/>
        <path class="cls-1" d="M180.07,289.29c-12.87.44-15.84,1.43-18.98,2.42-8.5,2.69-15.12,8.16-21.19,14.43-1,1.03-1.86,2.19-2.92,2.87-1.65.69-3.59,1.03-4.89,2.13-10.44,8.8-20.79,17.8-28.42,29.21-4.33,6.46-7.76,13.57-11.16,20.59-4.81,9.93-11.13,18.8-18.22,27.17-8.57,10.12-18.21,19.14-28.81,27.12"/>
        <path class="cls-1" d="M148.14,450.93c-2.73,5.22-5.43,10.35-10.24,14.23-5.55,4.47-11.82,6.53-18.66,7.62-11.4,1.81-22.82,1.8-34.14-.05-11.87-1.95-22.39-7.05-31.39-15.1-.95-.85-1.9-1.72-3.23-2.92,2.69-.7,4.19.05,5.85,1.13,12.65,8.26,26.45,12.6,41.72,12.36,8.49-.13,16.89-.85,24.92-3.56,8.47-2.86,15.86-7.49,20.98-15.18,3.44-5.16,3.42-13.16-.35-18.01-.39-.5-1.22-.68-1.84-1"/>
        <path class="cls-1" d="M123.11,345.72c2.11,1.51,1.24,3.76,1.53,5.77.66,4.56,1.5,9.09,2.34,13.63.97,5.28-.44,10.12-2.58,14.85-1.98,4.37-3.8,8.81-5.98,13.08-3.29,6.44-8.52,11.1-14.21,15.49-9.21,7.1-19.58,11.65-30.74,14.03-8.59,1.83-17.45,2.66-26.24,3.26-10.22.7-20.5.67-30.75.96"/>
        <path class="cls-1" d="M39,431.62c-.17,1.98.66,3,2.66,3.58,11.39,3.27,22.71,6.81,34.56,8.23,7.4.89,14.8.64,22.13-.43,4.64-.68,9.3-1.64,13.76-3.08,5.23-1.69,10-4.46,14-8.34,5.21-5.05,6.77-10.91,4.2-17.85-1-2.69-2.15-5.1-4.65-6.66"/>
        <path class="cls-1" d="M115.05,262.69c-1.49.57-2.97,1.18-4.48,1.7-7.07,2.44-14.28,4.53-21.21,7.33-13.17,5.32-24.04,13.75-31.71,25.8-4.77,7.49-9.67,15.04-12,23.72-1.69,6.34-2.55,12.87-1.51,19.47"/>
        <path class="cls-1" d="M34.82,291.8c2.89-.69,3.98-2.93,4.54-5.49,2.54-11.48,9.2-20.23,17.93-27.83,6.86-5.98,14.91-9.25,23.56-10.93,9.35-1.81,18.69-.73,27.85,1.79,1.49.41,3.07.55,4.61.76,2.53.34,4.55,1.29,5.32,3.97.22.76.53,1.49.9,2.5-2.63,1.35-5.39,2.65-8.77,2.49-11.06-.52-21.29,2.66-31.38,6.86-6.57,2.73-12.78,5.86-18.46,10.17-3.65,2.77-6.29,6.3-8.74,10-3.9,5.89-7.84,11.77-11.29,17.92-3.28,5.84-4.91,12.18-4.19,19.03.55,5.29.45,10.65,1.03,15.94.37,3.45,1.5,6.81,2.16,10.24.48,2.47.59,5.01,1.16,7.45.36,1.53,1.27,2.93,1.94,4.39"/>
        <path class="cls-1" d="M136.32,309.75c-2.4,3.35-4.82,6.69-7.19,10.06-1.18,1.68-2.31,3.4-3.41,5.12-1.36,2.13-2.5,4.29-1.03,6.88.22.39,0,1.05-.1,1.58-2.38,13.8-4.69,27.63-11.58,40.16-3.1,5.65-7.55,10.17-12.03,14.68-7.47,7.52-15.78,13.95-25.09,19.04-3.09,1.69-6.42,2.93-9.5,4.63-1.32.73-2.28,2.1-3.41,3.18"/>
        <path class="cls-1" d="M30.6,444.86c-.47,2.76,2.25,3.06,3.58,4.12,6.07,4.82,12.4,9.33,18.66,13.91,10.88,7.95,22.35,14.85,35.68,17.85,9.55,2.14,19.29,3.02,29.08,1.84,3.87-.47,7.66-1.55,11.5-2.26,1.11-.21,2.27-.11,3.4-.15"/>
        <path class="cls-1" d="M123.97,331.4c-4.19,2.06-4.58,6.53-6.18,10.11-4.06,9.1-7.18,18.64-11.64,27.52-6.95,13.84-17.28,25.05-30.12,33.78-5.04,3.43-10.63,6.06-15.92,9.14-1.63.95-3.09,2.18-4.62,3.29"/>
        <path class="cls-1" d="M113.93,257.1c-9.12-1.18-18.2-.96-27.07,1.64-5.45,1.6-11,3.2-16.06,5.71-9.46,4.7-17.59,11.2-23.95,19.8-4.48,6.07-7.44,12.75-9.01,20.05-.24,1.13-.81,2.87,1.29,3.31"/>
        <path class="cls-1" d="M120.31,259.48c-1.55,2.29-3.31,3.32-6.42,2.76-3.32-.59-6.91-.47-10.27.05-5.53.86-11.07,1.96-16.43,3.54-15.75,4.65-27.61,14.56-36.7,27.96-4.39,6.47-7.74,13.46-10.15,20.91-.44,1.35-1.69,2.44-2.56,3.65"/>
        <path class="cls-1" d="M118.1,392.87c-1.21.48-2.84.62-3.56,1.5-6.11,7.47-13.81,12.99-22.23,17.37-7.36,3.83-15.33,6.53-23.57,7.7-10.66,1.51-21.41,2.44-32.12,3.53-1.67.17-3.4-.15-5.1-.24"/>
        <path class="cls-1" d="M123.3,397.49c-1.1,1.17-2.36,2.24-3.26,3.54-4.48,6.48-10.29,11.41-17.26,15.05-10.15,5.29-21.1,8.14-32.28,9.99-7.32,1.21-14.78,1.53-22.16,2.37-1.87.21-3.88.55-5.47,1.45-2.75,1.56-5.63,1.84-8.59,1.62-5.61-.42-11.21-.96-16.8-1.63-1.88-.22-3.92-.63-4.68-2.87"/>
        <path class="cls-1" d="M27.07,488.29c3.36-2.34,14.1-3.59,17.63-5.33,2.41-1.19,5-2.02,7.51-3.01"/>
        <path class="cls-1" d="M122.31,385.31c1.88,1.32,2.32,3.22,1.95,5.31-.54,3.03-.72,5.94-.06,9.07,1.99,9.42-2.36,16.31-9.85,21.42-3.06,2.09-6.51,3.8-10.01,4.99-5.95,2.01-12,3.88-18.16,5.01-5.8,1.07-11.78,1.27-17.7,1.54-4.4.2-8.82-.16-13.23-.13-.83,0-1.65.67-2.48,1.04"/>
        <path class="cls-1" d="M115.86,255.25c-4.62-.74-9.21-1.8-13.86-2.16-10.61-.82-20.78,1.68-30.53,5.5-10.97,4.3-19.9,11.35-26.25,21.48-1.41,2.24-3.5,4.06-5.27,6.07"/>
        <path class="cls-1" d="M96.82,242.46c-10.82-1.58-21.27.2-31.26,4.23-8.52,3.44-16.14,8.31-21.68,16.01-4.23,5.88-6.77,12.34-8.05,19.4-.37,2.02-1.24,3.94-1.87,5.91"/>
        <path class="cls-1" d="M42.5,431.78c8.95,1.89,17.84,4.13,26.86,5.58,10.83,1.74,21.66,1.6,32.38-1.53,8.33-2.43,16.08-5.81,22.21-12.06,2.38-2.43,4.2-5.41,6.27-8.14"/>
        <path class="cls-1" d="M124.82,364.23c-.72,2.72-1.26,5.5-2.18,8.15-2.54,7.26-7.68,12.85-12.79,18.3-5.65,6.03-11.96,11.31-19.21,15.55-8.23,4.82-16.91,7.88-26.33,9.09-4.99.64-9.93,1.7-14.91,2.39-1.73.24-3.53-.05-5.18-.52-3.33,1.04-6.61,2.64-10.01,3.02-9.73,1.07-18.75,3.86-26.84,9.45-.46.32-.78.85-1.17,1.28"/>
        <path class="cls-1" d="M107,347.32c-4.36,8.13-8.84,16.19-13.03,24.4-3.86,7.57-8.75,14.46-14.74,20.36-5.26,5.19-11.25,9.68-17.16,14.17-4.46,3.39-9.29,6.3-13.96,9.42"/>
        <path class="cls-1" d="M111.28,238.57c-2.86.42-5.47-.08-8.24-1.09-7.38-2.69-15.08-3.14-22.91-2.33-8.48.88-16.26,3.83-23.46,8.1-4.45,2.63-8.32,6.23-12.45,9.39"/>
        <path class="cls-1" d="M1.57,435.19c-1.86,7.2-1.27,14.27,1.61,21.03,2.27,5.32,5.75,9.87,10.16,13.7,6.74,5.87,14.7,8.79,23.46,9.83,2.48.3,4.99.43,7.44.86.75.13,1.38.97,2.06,1.49"/>
        <path class="cls-1" d="M100.04,223.66c.19-2.96-2.59-3.43-4.23-4.19-5.11-2.37-10.51-3.78-16.33-3.5-8.72.43-16.28,3.24-22.94,9-3.61,3.12-6.09,6.96-8.87,10.65-.61.81-1.47,1.44-2.21,2.16-.25-.14-.5-.28-.74-.41.05-.91.18-1.82.14-2.73-.1-2.46-.33-4.91-.39-7.36-.1-4.25,4.18-9.97,8.24-11.69,3.07-1.3,5.85-3.27,8.93-4.56,9.18-3.85,18.53-4.02,27.55.17,5.47,2.54,10.53,5.98,15.74,9.06,3.5,2.07,5.21,5.22,5.4,9.24"/>
        <path class="cls-1" d="M3.78,433.25c1.72,5.19,3.19,10.47,5.23,15.53,2.67,6.61,7.43,11.77,12.87,16.27,7.28,6.03,15.7,9.81,24.79,12.28,2.16.59,4.21,1.6,6.63,2.54,2.59.05,5.62.1,8.64.15"/>
        <path class="cls-1" d="M108.09,232.39c-1.77,1.74-3.88,1.88-5.97.9-9.16-4.3-18.55-3.89-28.07-1.52-9.23,2.3-17.58,6.16-24.01,13.43"/>
        <path class="cls-1" d="M105.22,220.17c1.44-1.77.3-3.17-.78-4.43-4.04-4.71-8.98-8.18-14.81-10.38-.65-.25-1.45-.49-1.85-.99-3.93-4.98-9.47-5.49-15.05-4.87-7.28.81-14.26,2.74-20.24,7.43-3.7,2.9-6.49,6.4-8.61,10.53-.96,1.86-.11,3.5.38,5.2"/>
        <path class="cls-1" d="M45.41,366.86c.98,3.68-.45,7.12-1.08,10.63-1.55,8.72-3.81,17.25-8.21,25-3.03,5.34-6.28,10.58-10.94,14.82-1.01.91-1.02,2.91-1.49,4.42"/>
        <path class="cls-1" d="M104.61,231.29c-4.31-2.72-8.96-4.63-13.98-5.63-5.73-1.14-11.46-.99-17.12.38-9.06,2.18-16.52,7.25-23.45,13.22-1.19,1.02-2.49,1.91-3.59,2.75-3.3,8.56-6.82,16.95-9.74,25.53-1.91,5.6-3.17,11.45-4.27,17.27-.29,1.51,1.55,3.3,1.66,5.01.24,3.85-.03,7.73-.04,11.59-.02,4.05-.06,8.11.09,12.16.04,1.03.78,2.03,1.21,3.04"/>
        <path class="cls-1" d="M123.42,255.39c1.42-2.11.12-3.78-1.08-5.26-.88-1.09-2.13-1.91-3.31-2.72-4.14-2.85-6.92-6.61-8.6-11.37-3.23-9.17-10.29-13.41-19.61-14.83-10.87-1.67-20.71.94-29.93,6.58-2.98,1.82-6.09,3.55-7.49,7.04-.12.29.21.75.32,1.13"/>
        <path class="cls-1" d="M90.06,211.79c-1.55.38-3.13,1.17-4.65,1.07-7.55-.48-14.87.52-21.9,3.2-5.79,2.21-10.38,6.19-14.55,10.7-.96,1.03-2.39,1.63-3.6,2.42"/>
        <path class="cls-1" d="M87.18,204.57c-7.7-1.47-15.33-1.14-22.61,1.83-5.12,2.08-10.7,3.76-13.36,9.41"/>
        <path class="cls-1" d="M51.01,455.04c-6.21-4.71-12.7-8.7-20.46-10.62-2.78-.69-4.95-3.5-7.63-4.91-4.29-2.27-8.76-4.22-13.19-6.21-1.49-.67-3.12-1.01-4.69-1.51.1-.41.2-.81.29-1.22"/>
        <path class="cls-1" d="M148.88,442.27c.72,2.66.73,5.26-.6,7.5,2.84,3.74.76,7.55.5,11.26"/>
        <path class="cls-1" d="M123.37,328.47c-4.58.98-6.42,5.01-9.04,8.15-1.87,2.25-3.58,4.64-5.36,6.96"/>
        <path class="cls-1" d="M106.42,245.09c2.15,1.2,4.32,2.38,6.43,3.64.25.15.26.73.37,1.11"/>
        <path class="cls-1" d="M135.56,263.15c2.05,1.55,4.1,3.09,6.15,4.64"/>
        <path class="cls-1" d="M44.99,238.04c.55,1.08,1.09,2.16,1.64,3.24"/>
      </g>
    </g>
  </g>
</svg>