<?xml version="1.0" encoding="UTF-8"?>
<svg id="Layer_2" data-name="Layer 2" xmlns="http://www.w3.org/2000/svg" viewBox="0 0 876.58 521.45">
  <defs>
    <style>
      .cls-1 {
        fill: none;
        stroke: #e5794a;
        stroke-linecap: round;
        stroke-linejoin: round;
        stroke-width: 3px;
      }
    </style>
  </defs>
  <g id="Gert_Ausloos" data-name="Gert Ausloos">
    <g>
      <path class="cls-1" d="M351.89,342.5c-10.1,3.26-34,16-80.2,7.2-6.17-1.66-11.68-3.31-17.84-1.68-13.41,3.54-26.98,1.72-39.73-1.58-10.71-2.77-21.6-5.06-32.29-8.1-23.81-6.77-44.63,1.18-61.69,17.6-11.32,10.9-21.68,22.13-36.59,28.76-9.83,4.37-69.41,74.9-73.02,87.9-2.02,7.29-5.23,14.47-8.72,20.35"/>
      <path class="cls-1" d="M695.42,152.9c7.7-1.82,13.16,3.38,18.72,6.76,58.68,35.63,106.39,82.46,144.09,139.75,22.48,34.16,21.81,68.29,1.85,102.46-9.22,15.79-26.41,22.25-43.02,26.22-30.92,7.4-61.98,6.95-91.72-6.35-4.02-1.8-9.45-4.25-30.45-18.25"/>
      <path class="cls-1" d="M646.89,128.5c-2.44,10.17,5.39,18.93,11,25.42,13.05,15.1,27.62,27.65,46.06,37.09,21.11,10.8,35.23,30.37,46.84,51.16,12.83,22.95,26.34,45.4,32.28,71.62,5.27,23.25-1.41,41.38-22.38,52.92-24.43,13.44-81.8,20.8-89.8,20.8"/>
      <path class="cls-1" d="M382.22,348c-20.74,3.12-39.82,11.87-59.82,17.42-17.05,4.73-34.56,5.41-51.98.29-9.95-2.93-19.9.29-29.87.93-25.28,1.62-47.34,14.22-71.06,20.09-25.6,6.33-43.87,22.63-65.07,35.1-8.41,4.95-14.38,12.64-17.32,21.09-4.44,12.74-38.43,57.74-54.7,75.65"/>
      <path class="cls-1" d="M623.89,104.5c-20.3,1.81-35.11-12.41-48.08-25.5-15.11-15.25-30.02-30.71-44.98-46.12-8.47-8.72-16.93-17.44-25.44-26.12"/>
      <path class="cls-1" d="M548.23,79.05c17.13,10.27,27.62,27.74,43.23,39.59,8.85,6.73,18.01,13.22,27.69,18.67,13.84,7.79,24,18.91,31.9,32.18,5.77,9.71,14.44,16.61,22.41,24.01,13.83,12.83,21.54,28.54,25.21,46.49,3.12,15.22,11.71,29.03,11.2,45.18-.4,12.78-1.19,23.39-11.37,34.93-13.81,15.66-40.94,22.17-56.61,32.4"/>
      <path class="cls-1" d="M793.91,237.78c14.19,17.86,29.65,34.95,38.64,56.25,7.85,18.59,14.45,37.87,9.89,58.34-6.75,30.27-25.57,49.38-56.28,56.24-21.57,4.82-43.48,3.32-65.29,3.28-14.27-.03-25.44-7.4-42.98-19.4"/>
      <path class="cls-1" d="M243.89,350.5c-17.09,10.43-43.16,14.7-61.96,13.62-35.53-2.03-61.39,12.77-82,40.03-8.8,11.64-17.5,23.44-28.62,33.21-8.15,7.16-14.62,15.71-20.21,25.15-3.92,6.64-9.14,12.49-15.03,18.02-11.66,10.94-23.19,22.09-34.25,33.65"/>
      <path class="cls-1" d="M607.85,7.11c12.9,14.62,21.09,32.77,21.23,52.35.05,6.54.69,13.06,1.04,19.59"/>
      <path class="cls-1" d="M479.89,263.5c5.92-20.96-4.01-58.93-31.27-59.67-33.71-.92-64.69,9.89-92.78,27.62-15.93,10.06-18.56,30.1-4.57,45.98,7.08,8.04,13.11,17.67,25.42,18.77"/>
      <path class="cls-1" d="M658.9,169.44c13.84,15.02,30.69,26.82,45.11,41.05,23.24,22.93,44.87,47.49,51.22,81.29,1.18,6.3,2.95,12.49,4.38,18.75,4.65,20.36-2,32.4-19.85,44.19-17.86,11.79-99.66,23.04-114.13,15.5-3.31-1.55-22.72-5.72-30.72-8.72"/>
      <path class="cls-1" d="M574.79,134.16c4.59,5.33,8.59,10.97,14.16,15.7,8.69,7.37,14.11,17.62,17.86,28.42,2.1,6.04,4.04,12.07,8.94,16.49,7.28,6.56,8.97,15.07,8.83,24.27-.17,11.6.42,23.12,4.44,34.17,6.03,16.55,2.74,31.05-7.56,45.34-12.3,17.05-27.92,31.27-39.98,48.4-5.63,7.99-14.7,7.22-22.27,8.31-8.1,1.16-15.77,2.84-23.16,6.01-15.76,6.76-31.55,2.41-47.63,1.64-16.05-.77-32.8-7.08-48.67,1.63"/>
      <path class="cls-1" d="M262.7,297.3c-1.41-15.44-12.76-23.92-23.23-33.08-12.69-11.1-28.31-13.9-44.25-16.68-18.28-3.18-36.04-1.49-53.09,4.75-25.05,9.16-43.38,25.77-52.05,51.64-.22.66-.26,1.56,0,2.18,10.14,23.2-10.69,32.44-21.16,46.23-2.63,3.46-6.54,5.95-10.25,9.24-11.58-5.87-21.19,2.22-31.71,5.16-8.61,2.41-17.03,5.14-25.15,8.4"/>
      <path class="cls-1" d="M292.89,343.5c-7-2-30-14-51.22-16.42-16.16-2.44-32.99.7-48.68-5.57-12.86-5.14-26.57-4.26-39.88-5.1-8.99-.56-17.21,5.21-23.03,11.91-7.98,9.2-17.7,14.59-28.89,18.76-11.67,4.35-21.71,11.34-27.82,22.92-2.84,5.39-6.56,10.33-9.88,15.47"/>
      <path class="cls-1" d="M610.89,142.5c15,22,18.67,42.92,27.17,53.24,10.14,12.32,22.83,22.76,26.31,44.23,1.86,11.48-12.89,64.94-24.18,80.74-11.29,15.8-29.19,21.13-32.19,22.89"/>
      <path class="cls-1" d="M807.19,290.68c5.2,18.93,7.19,38.25,1.92,57.23-3.37,12.14-8.26,23.78-21.7,30.13-16.36,7.72-33.4,11.23-50.98,14.39-16.66,2.99-33.37,0-49.89,2.81-2.39.41-4.65-.74-7.59-2.18-9.61-9.48-42.65-15.16-53.06-22.56"/>
      <path class="cls-1" d="M224,7.79c-.42,10.59.92,21.21,6.3,31.74,8.6,16.84,18.9,31.21,36.88,38.3,14.31,5.64,47.89,3.32,54.18-10.9"/>
      <path class="cls-1" d="M58.89,361.5c-12.16,11.53-34.26,19.04-49.64,23.94-2.52.8-5,1.67-7.43,2.59"/>
      <path class="cls-1" d="M377.79,288.48c0,1.1.07,2.21-.01,3.31-.5,7,5.66,14.08.48,20.88-6.78,8.9-16.4,14.71-27.08,16.26-13.49,1.96-26.85,5.67-40.93,3.87-10.52-1.35-20.35-3.31-28.76-10.12-4.19-3.39-8.63-4.87-14.41-3.49-9.36,2.24-16.34-4.26-23.08-8.84-39.47-26.83-79.01-19.63-118.41-.65-5.45,2.63-11.52,5.39-15.72,10.68-4.51,5.69-10.54,4.78-16.51,2.28"/>
      <path class="cls-1" d="M257.27,15.11c1.39,15.35,23.5,32.63,41.95,32.97,13.36.25,26.42-1.32,38.83-7.42,7.51-3.7,16.97-3.02,23.19-10.07,2.32-2.63,4.93-4.91,4.38-8.86"/>
      <path class="cls-1" d="M181.89,419.5c11.52,28.02,3.02,67.63-14.39,89.41-2.85,3.57-5.88,6.78-9.06,9.65"/>
      <path class="cls-1" d="M57.96,362.33c1.6,8.45-4.4,12.05-9.85,16.66-13.91,11.77-30.59,18.41-46.61,26.29"/>
      <path class="cls-1" d="M274.87,317.14c1.6-9.34-5.63-15.06-11.35-18.24-10.47-5.81-19.09-13.33-27.34-21.49-17.63-17.46-38.83-21.53-63.14-21.41-33.81.17-50.22,24.1-69.55,44.77-1.64,1.76-8.24,10.8-8.61,13.74"/>
      <path class="cls-1" d="M267.74,7.38c2.63,12.85,11.1,23.21,24.05,26.5,14.84,3.77,32.09-.94,46.58-4.38,8.95-2.12,18.02-4.45,26.52-8.01"/>
      <path class="cls-1" d="M390.17,6.06c.95,1.46,1.85,2.94,2.72,4.44"/>
      <path class="cls-1" d="M159.77,392.09c-.75,10.36-91.62,104.52-111.78,126.64-.4.44-.77.84-1.11,1.22"/>
      <path class="cls-1" d="M192.89,398.5c0,2.2-4.63,9.48-5.57,11.16-11.1,19.64-20.78,40.1-26.12,61.87-5.18,21.09-14.91,36.85-29.91,47.1"/>
      <path class="cls-1" d="M239.59,7.79c1.77,21.08,11.73,38.57,29.67,52.62,7.72,6.05,16.82,6.22,25.55,7.46,22.78,3.23,47.69-9.71,56.42-28.5"/>
      <path class="cls-1" d="M575.39,6.77c11.66,8.02,18.75,15.48,20.43,18.27"/>
      <path class="cls-1" d="M544.89,389.5c-7.75-1.1-17.78-1.39-25.41-3.05-7.09-1.54-13.58-1.09-19.95,2.32-10.03,5.36-19.28,2.58-28.82-2.09-21.93-10.74-45.86-11.9-69.67-13.33"/>
      <path class="cls-1" d="M310.48,16.92c23.41,6.58,45.87,5.39,54.41,3.58"/>
      <path class="cls-1" d="M463.89,40.5c4.04,8.01,9.82,32.56,10.38,41.85.65,10.65,5.12,20.08,13.09,27.57,6.27,5.88,12.27,12.09,18.88,17.56,9.2,7.61,14.16,17.83,16.22,28.8,2.29,12.16,8.42,21.82,13.47,33.1.96,2.13.96,3.13.12,5.42"/>
      <path class="cls-1" d="M282.62,407.52c-10.57-26.19-55.13-39.21-78.7-17.78-7.55,6.87-16.4,10.79-27.29,13.32-10.99,2.56-21.21,12.44-27.83,23.25-8.38,13.67-19.18,24.98-32.24,34.03-13.08,9.07-22.36,21.27-30.96,34.24-2.76,4.17-5.25,8.82-8.95,12-4.1,3.52-7.97,7.75-10.89,11.99"/>
      <path class="cls-1" d="M583.64,147.39c-.03,12.16,2.14,23.92,8.94,34.11,18.17,27.24,10.31,67.05-1.19,80.52-11.5,13.47-15.27,21.74-24.69,30.5-14.46,13.45-47.05,20.45-67.22,5.94-2.38-1.71-4.88-3.03-6.63-5.55-5-7.18-9.87-13.69-18.46-18.24-8.4-4.45-11.62-15.44-16.84-23.71-12.65-20.46-37.83-18.74-53.24-11.1-26.41,14.64-26.41,41.64-26.41,48.64"/>
      <path class="cls-1" d="M594.89,121.5c6.68,8.16,29,38,35.13,42.48,13.94,10.19,27.82,32.66,41.11,49.5,9.04,11.45,20.47,28.14,17.61,59.58-2.85,46.44-82.82,91.04-89.85,88.44"/>
      <path class="cls-1" d="M153.89,435.5c-11.62,32.09-16.89,65.42-51.62,82.34-.54.26-1.08.52-1.62.76"/>
      <path class="cls-1" d="M347.87,6.2c13.02,1.57,26.25,1.17,39.23,2.93,1.95.26,3.98.55,5.78,1.38"/>
      <path class="cls-1" d="M580.89,347.5c-11,15-44.64,34.85-63.64,28.04-9.5-3.41-18.91-3.27-28.81-1.25-17.39,3.54-33.85.49-48.66-9.75"/>
      <path class="cls-1" d="M506.89,303.5c-9.75,8.88-21.29,4.64-31.7,3.66-9.64-.91-18.89-3.97-27.6-7.83-15.83-7.01-28.89-.24-42.12,6.8-6.94,3.7-17.63,9.81-26.58,5.36"/>
      <path class="cls-1" d="M644.51,68.03c17.45-8.42,23.91-24.02,16.55-40.76-3.28-7.47-7.08-14.65-12.83-20.65-.47-.49-.96-.98-1.47-1.46"/>
      <path class="cls-1" d="M492.89,294.5c-9.37,2.14-15.98.32-21.6-8.99-7.14-11.83-16.09-23.27-27.16-32.23-12.48-10.09-37.44-.63-44.17,16.47-2.42,6.16-4.71,12.41-6.6,18.75-1.78,5.97-6.6,9.93-12.47,12"/>
      <path class="cls-1" d="M553.89,146.5c8.69,6.91,28.06,41.06,33.03,56.03,4.97,14.97-2.58,54.17-3.03,66.97"/>
      <path class="cls-1" d="M479.89,277.5c1.38-23.11-7.08-42.89-23.55-58.43-16.45-10.57-68.45,5.43-81.45,15.43"/>
      <path class="cls-1" d="M583.89,309.5c-8,7-20.72,11.34-28,15-28.1,14.13-54.34,18.13-84.14,11.91-15.62-3.26-31.9-8.98-48.65-2.93-5.48,1.98-11.83,2.73-17.62.14-11.91-5.33-23.67-3.11-34.2,2.48-16.23,8.62-34.18,5.91-50.98,9.89-10.19,2.42-16.99.4-27.41-2.51"/>
      <path class="cls-1" d="M63.89,385.5c-13.75,21.25-41.64,37.71-61.71,54.71"/>
      <path class="cls-1" d="M568.15,306.12c-18.1,16.01-40.68,16.89-63.07,18.84-13.84,1.21-27.66,4.86-40.96-2.31-14.39,7.3-28.78-6.13-43.16,0-7.53,3.21-16.81,1.21-23.24,7.71"/>
      <path class="cls-1" d="M225.89,284.5c-43-22-65.67-10.87-87.08.78-6.44,3.5-12.98,7.13-17.82,13.08-6.97,8.57-18.01,11.27-26.51,17.67"/>
      <path class="cls-1" d="M681.03,151.8c-.89,5.04,2.42,7.89,5.5,11.06,8.88,9.13,20.35,14.86,29.9,23.14,67.46,58.5,83.46,88.5,90.46,104.5"/>
      <path class="cls-1" d="M268.89,388.5c4.43-4.82,12.42-4.96,15.79-3.72,17.8,6.56,32.61,2.8,46.74-9.1,12.71-10.71,51.53-15.39,64.75-4.02,10.58,9.11,20.49,20.58,31.95,27.27,16.23,9.49,32.05,26.28,52.43,22.05,14.73-3.06,32.04,1.27,44.45-11.26,2.86-2.89,8.44-2.14,11.91-2.22"/>
      <path class="cls-1" d="M190.89,399.5c-8.3,11.11-29.86,25.18-36.88,36.14-14.47,22.58-43.57,49.42-52.34,58.64-6.89,7.23-19.21,16.53-29.7,24.27"/>
      <path class="cls-1" d="M700.89,208.5c-2.76,4.08-.27,8.4,1.09,11.67,7.91,19.04,15.65,38.15,23.22,57.32,7.69,21.01-5.33,42.35-19.82,56.18-14.49,13.83-45.88,21.54-55.39,18.93-6.53-1.79-13.06,1.92-18.61,4.53-13.59,6.39-27.04,6.89-41.1,2.99"/>
      <path class="cls-1" d="M626.29,6.76c3.9,3.93,7.48,7.58,10.6,10.74"/>
      <path class="cls-1" d="M472.13,7.31c13.06,17.45,24.06,34.45,36.76,50.19"/>
      <path class="cls-1" d="M524.89,116.5c6.25,17.21,26.55,59.52,28.52,64.11,3.97,9.23,5.12,21.45,1.48,31.89"/>
      <path class="cls-1" d="M612.89,285.5c-9.89,6.11-20.23,16.78-29.28,23.89-2.26,1.77-21.12,35.36-41.98,39.94-16.96,3.72-33.23-2.18-49.85-1.29-9.97.54-20.39-.17-29.78,2.52-16.8,4.82-31.56-.1-46.58-5.86-10.68-4.1-21.2-6.02-30.99,2.21"/>
      <path class="cls-1" d="M491.77,6.32c18.16,15,41.12,63.18,57.12,73.18"/>
      <path class="cls-1" d="M464.89,322.5c-12.86-9.51-31.45-13.12-47.37-7.91-13.7,4.48-28.17,6.76-41.97,11.28-1.3.43-5.55-1.56-6.66-3.37"/>
      <path class="cls-1" d="M554.87,151.8c4.98,21.45,14.63,41.9,16.23,63.96,1.09,15,1.32,30.12,2.53,45.17.28,3.46,3.36,10.52,5.26,13.57"/>
      <path class="cls-1" d="M444.89,74.5c2.33,6.88,1.82,15.27,1.36,22.18-1.29,19.23,9.36,31.65,23.6,41.63,3.76,2.63,6.83,4.21,6.45,9.09"/>
      <path class="cls-1" d="M472.97,125.35c-7.88-10.86-10.58-23.22-11.13-36.37-.54-12.79-4.96-25.23-14.95-34.48"/>
      <path class="cls-1" d="M349.89,367.5c-2.58,3.67-6.76,10.69-8.46,14.74-3.14,7.49-4.27,15.41-.14,23.07,4.31,8,7.3,16.38,8.89,25.35,2.17,12.29-2.77,17.91-15.54,16.48-11.46-1.28-22.49-4.67-33.11-8.99-2.67-1.09-5.05-1.96-7.84-1.97"/>
      <path class="cls-1" d="M364.89,20.5c10-3,13-6,15.22-6.32,9.25-1.32,16.63-5.06,25.41-.26,16.05,8.78,32.17,17.91,39.38,35.53,3.26,7.96,3.79,17.61-1.68,26.36-7.24,11.58-15.29,22.83-18.94,36.3-2.82,10.4-.71,20.01,6.8,27.4,7.31,7.19,16.49,9.48,26.41,4.56"/>
      <path class="cls-1" d="M552.89,19.5c30,12,55,56,61.35,66.82,6.65,10.69,10.56,23.25,22.06,31.91,11.1,8.37,22.61,16.27,33.71,24.68,5.48,4.15,11.22,8.32,18.76,7.77,5.62-.41,5.94,5.18,8.73,7.85,10.41,9.92,23.06,16.77,34.71,24.83,9.81,6.78,54.67,44.13,62.67,55.13"/>
      <path class="cls-1" d="M464.12,19.53c18.26,16.84,31.74,37.26,44.35,58.37,1.97,3.3,16.42,38.6,18.42,43.6"/>
      <path class="cls-1" d="M472.89,125.5c4,5,11.85,10.11,16.47,12.4,12.81,6.34,21.48,17.58,24.21,31.6,1.57,8.07,9.14,12.09,10.31,19.77"/>
      <path class="cls-1" d="M473.89,291.5c-7.04,3.24-14.06,1.95-19.65-.97-21.32-11.13-39.32-4.69-55.23,10.27-5.5,5.17-10.93,7.04-17.89,6.42"/>
      <path class="cls-1" d="M613.52,235.57c-8.1,6.97-9.63,16.92-12.21,26.44-3.51,12.91-23.01,34.97-33.42,44.49"/>
      <path class="cls-1" d="M540.89,399.5c-9.83-4.31-28,8-45.69,8.49-10.32.28-26.07-6.28-38.09-14.24-11.11-7.35-28.33-8.66-42.22-7.25"/>
      <path class="cls-1" d="M594.89,23.5c15,19,22.51,34.81,25.18,53.36.55,3.85.72,7.31,5.62,7.7"/>
      <path class="cls-1" d="M337.95,388.78c-3.8.19-7.89-2.3-11.12,2.16-8.91,12.28-21.22,9.78-33.09,6.45-5.14-1.44-9.65-3.53-14.44.2"/>
      <path class="cls-1" d="M607.89,343.5c-4.98,2.66-17.32,8.72-18.87,15.49-.46,1.99-2.95,2.76-5.34,3.48-24.54,7.4-39.08,23.55-46.92,48.23-9.58,30.16-43.22,42.74-63.87,26.8"/>
      <path class="cls-1" d="M281.89,408.5c-.72,15.88,9.62,29.96,20.85,38.44,12.05,9.09,26.49,13.66,41.85,14.63,7.36.47,13.87-.46,17.71-7.76,3.75-7.12-11.42-29.32-15.42-36.32"/>
      <path class="cls-1" d="M529.89,424.5c-16.83,7.94-41.04,3.74-58,11"/>
      <path class="cls-1" d="M337.89,397.5c-8.96,16.97-24.64,25.08-39.67,13.2-5.22-4.13-9.9-5.08-15.85-2.36"/>
      <path class="cls-1" d="M432.89,93.5c-3.27,23.24,10.03,41.59,28,52.65,2.3,1.42,5.82.81,8.76,1.26,15.27,2.35,26.71,9.54,33.36,24.17,4.47,9.83,11.8,16.67,23,20.17,18.7,5.85,37.13,30.16,45.88,47.76"/>
      <path class="cls-1" d="M610.89,189.5c1,13,2.1,21.05,2.45,28.44.56,11.73.66,22.07.6,35.31-.06,13.24.94,28.24-1.08,35.32-1.75,8.06-4.42,9.52-10.7,19.22-6.28,9.7-22.28,37.7-26.28,44.7"/>
      <path class="cls-1" d="M636.76,17.33c10.37,15.06,8.77,31.59,6.96,48.53-.67,6.31-4.59,10.38-8.23,11.63-8.31,2.85-11.26,13.95-14.61,20.01"/>
      <path class="cls-1" d="M457.89,281.5c-23-16-38.15-15.07-44.62-5.1-3.5,5.4-7.53,10.71-7.81,17.59"/>
      <path class="cls-1" d="M434.89,403.5c5.39,13.94,18.86,22.25,30.32,29.4,2.12,1.32,6.65,4.13,8.68,5.6"/>
      <path class="cls-1" d="M225.07,284.07c13.65,9.92,35.17,24.51,48.82,34.43"/>
      <path class="cls-1" d="M508.38,57.01c14.89,12.55,28.93,25.53,32.46,46.23.44,2.59,12.28,45.27,14.04,48.26"/>
      <path class="cls-1" d="M591.89,94.5c10.19,14,57.79,60.08,67,75"/>
      <path class="cls-1" d="M539.89,95.5c12.3,16.81,26,30,35,39"/>
      <path class="cls-1" d="M479.61,57.01c6.42,10.75,47.79,73.31,55.28,83.49"/>
      <path class="cls-1" d="M420.89,1.5c11,8,51.62,45.71,59,56"/>
      <path class="cls-1" d="M374.89,234.5c-16,14-16.48,21.05-4.84,40.75,2.18,3.69,5.62,9.58,7.84,13.25"/>
      <path class="cls-1" d="M439.77,363.43c-7.34-6.21-15.97-9.08-25.45-8.73-10.45.38-20.27-1.9-29.88-5.6"/>
      <path class="cls-1" d="M344.89,413.5c-1,4-3,13-11,15-16.58,4.14-31.93-3.89-49-8"/>
      <path class="cls-1" d="M395.89,369.5c7.75-2.91,21.75-2.76,29.49-2.82,4.43-.03,8.99.94,13.28-1.05"/>
      <path class="cls-1" d="M457.89,281.5c4.41,3.63,7.22,9.14,13.97,8.08"/>
    </g>
  </g>
</svg>