<?xml version="1.0" encoding="UTF-8"?>
<svg id="Layer_2" data-name="Layer 2" xmlns="http://www.w3.org/2000/svg" viewBox="0 0 1927.06 1094.01">
  <defs>
    <style>
      .cls-1 {
        fill: none;
        stroke: #e57221;
        stroke-linecap: round;
        stroke-linejoin: round;
        stroke-width: 3px;
      }
    </style>
  </defs>
  <g id="Gert_Ausloos" data-name="Gert Ausloos">
    <g>
      <path class="cls-1" d="M1617.05,692.24c3.38,6.13,4.38,13.13,6.38,20.13,3,12,7,24,11,36,3,7,9,11,16,12h7c14,2,27,7,41,6,4-1,8-1,12-3,11-6,22-9,32-16,8-4,18-3,26-6,7-3,14-7,21-7,14,0,27,2,40-3,12-5,22-12,33-20,10-7,22-9,33-14,7-2,12-7,19-11,3-2,6-2,9.36-3.03"/>
      <path class="cls-1" d="M1820.66,737.22c5.78,1.15,11.78-.85,16.78-2.85,17-7,32-16,50-18,13-6,24-15,37.37-20.52"/>
      <path class="cls-1" d="M1662.55,762.79c4.88,13.59,21.88,13.59,34.88,10.59,14-4,26-12,40-12,11-1,20-5,28-11,5-5,12-9,19-8,22,2,43,2,65-1,23-14,50-17,76.12-12.45"/>
      <path class="cls-1" d="M1373.69,99.87c5.74,2.51,10.74-3.49,14.74-6.49,19-20,33-42,50-65,8-9,15-17,23.64-24.61"/>
      <path class="cls-1" d="M1776.24,321.61c2.95,7.06-1.26,13.03-3.6,18.91-3.52,8.86-8.74,17.07-15.32,24-7.28,7.68-10.67,17.47-14.96,26.59-1.65,3.5.13,8.84-1.26,13.73-2.34,8.23-8.08,13.38-13.63,18.66-8.61,8.21-14.42,18.59-22.43,27.29-5.39,5.85-9.98,12.36-17.23,15.94-11.52,5.7-18.41,15.32-23.66,26.52-2.83,6.04-6.9,11.14-11.92,15.5-7.84,6.81-8.86,16.56-11.15,25.77-.55,2.19-.38,4.54-1.81,6.55-6.92,9.69-10.43,21.17-17.17,31.26-6.16,9.21-14.08,17.52-18.78,27.9-2.83,6.24-4.52,12.73-5.94,19.24-.56,2.6-.83,4.75-2.7,6.75-.91.97-1.38,2.69-1.42,4.09-.26,10.86-3.94,18.94-12.01,26.79-3.58,3.48-5.46,8.25-9.12,11.89-3.06,3.04-5.37,6.63-9.8,7.91-.92.27-2.21.77-2.49,1.5-7.1,18.2-23.71,29.56-33.03,46.27-9.56,17.14-18.93,34.43-24.41,53.21-4.34,14.87-6.85,30.71-1.57,46,7.13,20.65,24.29,34.35,48.31,32.26,13.54-1.18,26.19-6.04,39.27-9.15,6.96-1.65,12.23-5.29,17.48-9.65.97-.8,2.06-1.76,2.82-2.63,2.11-2.4,3.39-5.75,1.18-8.39-2.01-2.41-5.44-3.22-8.65-1.99-16.8,6.43-33.53,2.98-50.28-.21-7.2-1.37-16.48-14.92-17.69-26.31-1.65-15.47,2.65-30.07,5.23-44.85,2.21-12.64,6.68-24.81,12.97-36.26,4.46-8.12,11.4-13.9,17.28-20.67,8.28-9.54,13.13-20.69,16.7-32.63.82-2.73.29-4.52-1.26-6.45"/>
      <path class="cls-1" d="M1668.12,66.39c15.88,7.09,29.94,16.06,38.95,31.93,3.14,5.54,8.75,10.51,14.4,13.61,12.18,6.68,22.1,15.79,32.05,25.18,9.52,8.98,21.66,14.01,33.39,19.38,7.63,3.49,17.21,9.51,24.83,13.05,24.05,11.15,29.81,51.68,16.36,96.37-4.73,15.09-12.72,28.28-22.74,40.28-2.55,3.05-6.14,5.1-7.83,9.09-1.32,3.1-1.14,5.56.96,8.04"/>
      <path class="cls-1" d="M1736.08,399.31c-13.33,7.74-100.29,104.82-95.69,107.62-5.44,6.32-6.43,13.94-8.03,21.78-2.39,11.7-8.47,21.77-18.05,29.46-14.99,12.02-22.52,28.15-24.24,46.9-.55,5.96,2.2,12.04,1.43,18.24"/>
      <path class="cls-1" d="M1567.34,676.15c1.02,2.9.49,5.09-1.23,8.02-6.62,11.32-15.94,20.56-23.13,31.39-14.02,21.13-24.98,43.96-27.92,69.11-2.04,17.49,2.79,34.42,17.08,47.32,8.98,8.1,19.77,6.65,29.88,6.54,12.73-.14,25.36-2.89,37.6-6.92,3.4-1.12,6.49-2.45,9.02-4.99"/>
      <path class="cls-1" d="M1158.22,139.32c-2.8,2.47-2.23,5.77-1.85,8.8,2.09,16.57,8.01,31.96,16.71,45.97,6.71,10.82,16.21,19.56,27.61,25.59,11.49,6.09,23.51,11.03,36.6,12.49,17,1.91,31.99-2.29,45.68-13.16,8.81-7,18.52-13.01,24.59-22.63,5.34-8.46,12.32-15.96,15.77-25.54,1.3-3.62,5.36-4.12,6.94-7.23,1.01-1.97,3.17-3.42,2.7-6.05"/>
      <path class="cls-1" d="M1174.56,95.54c4.53,6.01,4.28,13.63,4.85,20.23,3.52,40.81,37.59,72.86,76.97,71.92,18.69-.45,33.95-9.67,49.21-18.55,8.94-5.2,17.01-11.58,27.85-12.62,3.15-.3,5.63-3.13,8.2-5.2,10.46-8.42,23.8-8.93,35.88-12.96,9.74-3.24,18.96-2.07,28.19,1.52.49.19,1.14.43,1.56.26,9.61-3.7,19.86-.69,29.78-3.18,11.85-2.98,19.71-10.78,27.31-18.98,8.34-8.99,17.33-17.28,26.45-25.39,3.63-3.23,9.09-4.41,13.71-6.52"/>
      <path class="cls-1" d="M1598.65,466.83c-11.11-5.4-15.4-18.31-9.17-28.74,8.61-14.41,20.31-25.95,34.89-34.2,16.23-9.18,33.71-15.73,51.5-21.01,10.8-3.2,21.74-5.75,32.51-9.28,8.91-2.91,13.53-6.95,25.35-10.8,11.82-3.86,22.53-5.82,26.38-3.97"/>
      <path class="cls-1" d="M1170.1,105.85c4.73,3.56,2.74,9.26,2.78,13.31.2,22.17,10.14,40.45,24,55.79,16.54,18.29,38.59,25,63.54,21.39,7.19-1.04,14.1-3.31,21.46-3.82,4-.28,7.88-3.75,11.6-6.12,6.77-4.32,13.36-8.92,20.08-13.34,2.9-1.9,6.11-3,9.64-2.86"/>
      <path class="cls-1" d="M1610.09,22.02c.26-4.76,3.98-3.15,6.49-3.37,13.91-1.19,27.89-1.75,41.73-3.46,17.98-2.23,35.65-.11,52.81,4.33,16.5,4.27,26.92,16.92,34.84,31.46,2.31,4.24,5.15,8.21,6.25,13.14,2.98,13.41,9.27,25.49,16.21,37.17,4.75,8,8,16.71,12.28,24.77,2.86,5.38,6.22,12,12.82,15.12,5.83,2.76,11.12,6.45,17.43,8.42,12.49,3.89,20.64,13.04,26.62,22.74,11.35,18.41,21.03,67.79,13.85,82.45-7.16,14.62-17.41,19.92-27.33,25.74"/>
      <path class="cls-1" d="M1847.32,158.28c6.5,5.66,11.48,4.69,21.91,12.94,18.87,13.36,36.72,63.35,21.26,88.75-15.46,25.4-21.93,23.3-35.94,29.71-10.41,4.76-19.36,11.88-28.22,19.16-2.84,2.34-4.12,4.7-5.1,7.76"/>
      <path class="cls-1" d="M1672.71,84.53c10.85.97,18.04,8.41,25.26,15.16,5.32,4.97,9.37,11.22,13.11,17.71,5.73,9.95,13.53,18.24,23.97,23.78,5.08,2.7,10.2,5.27,14.84,8.96,9.21,7.33,14.88,17.77,23.71,25.43,8.03,6.96,14.19,15.79,19.29,25.01,5.47,9.88,7.4,20.86,5.11,32.16-1.88,9.28-1.36,18.42.67,27.56,2.22,10.01.21,19.72-3.69,28.7-7.3,16.81-9.21,35.47-17.62,51.75-.38.73-1.62,1.43-3.61,7.81"/>
      <path class="cls-1" d="M1417.63,86.18c-.1,3.02,2.17,2.93,3.51,1.86,8.83-7.03,20.18-8.18,29.98-12.99,6.82-3.35,10.85-9.55,16.87-13.63,3.54-2.39,6.78-5.01,10.76-6.86,9.51-4.4,18.72-9.43,28.09-14.12,8.75-4.39,17.78-6.36,27.11-1.95,3.85,1.82,7.63,1.94,11.8,1.84,19.07-.48,37.54,1.22,52.01,16.03,6.25,6.4,9.58,15.17,17.19,20.47,8.11,5.66,12.58,14.14,16.4,22.89,1.42,3.24,1.13,7.22,2.55,10.47,9.28,21.32,18.03,42.82,34,60.56,8.18,9.08,17.01,16.99,27.34,23.3,10.54,6.45,22.8,7.28,34.45,10.03,2.39.57,4.98.34,7.2,1.71"/>
      <path class="cls-1" d="M1143.93,17.3c11.52,17.21,35.49,41.4,42.24,61.33,2.67,7.89,3.2,16.1,4.51,24.13,2.56,15.69,6.07,30.75,14.71,44.45,8.86,14.05,21.51,22.11,37.13,26.56,20.13,5.73,37.78.15,54.57-10.81,9.91-6.47,18.72-14.53,29.34-19.93"/>
      <path class="cls-1" d="M1924.56,271.23c-6.48,8.88-14.39,13.98-24.58,17.73-11.87,4.37-23.84,8.48-35.73,12.82-5.27,1.92-12.02,3.93-14.63,9.46"/>
      <path class="cls-1" d="M1909.64,171.41c2.76,7.67,8.16,13.86,13.8,19.59"/>
      <path class="cls-1" d="M1723.12,446.67c-6.17.88-8.38,6.59-11.78,10.43-4.45,5.02-8.29,10.68-10.94,17.15-3.93,9.61-11.88,16.2-19.35,23.01-11.59,10.56-18.11,24.04-22.21,38.83-.96,3.48-2.03,6.71-4.96,8.88-13.58,10.09-19.2,24.2-20.24,40.48-.51,7.96-3.4,15.3-8.27,20.93-13.1,15.14-21.55,33.06-31.4,50.12-2.9,5.02-5.92,10.93-4.02,17.49"/>
      <path class="cls-1" d="M1373.65,94.63c1.78-.26,3.78.74,5.78-.26,3-2,6-5,8-8,18-24,32-47,47-73,3-3,5-7,8.89-9.81"/>
      <path class="cls-1" d="M1889.92,162.98c6.39,10.97,23.69,33.9,25.95,41.58,2.26,7.67,5.71,32.43-4.33,44.91-10.04,12.48-29.03,37.54-51.75,47.8-7.33,3.31-16.37,5.4-19.73,14.55"/>
      <path class="cls-1" d="M1611.67,22.31c11.47,1.62,22.9,3.62,34.42,4.77,15.94,1.58,32.07,1.8,47.8,4.88,17.23,3.38,30.72,13.05,40.42,27.7,8.41,12.71,16.32,25.76,24.98,38.29,2.54,3.68,4.07,10.14,11.17,8.01"/>
      <path class="cls-1" d="M1143.93,17.3c12,13,32.67,52.53,29.71,73.19-.75,5.26-3.72,10.24-5.85,15.27-1.07,2.52-2.29,4.92-3.08,7.61-1.39,4.77-1.81,9.71-4.38,14.37-1.81,3.27-1.99,7.97.15,12.46,2.23,4.66,2.5,10.22,4.03,15.26,7.18,23.65,21.58,41.9,42.43,54.88,9.13,5.68,18.64,10.45,30.04,10.89,14.3.55,26.77-4.54,38.76-11,10.39-5.6,20.64-11.63,29.52-19.66,1.68-1.52,4.38-1.9,6.61-2.81"/>
      <path class="cls-1" d="M1188.75,54.64c-.9,7.76,4.03,13.41,7.34,19.55,3.39,6.27,5.55,12.58,6.83,19.78,2.73,15.41,5.31,31.4,15.73,43.99,12.99,15.7,29.71,22.08,50.23,18.34,16.83-3.07,32.4-9.29,47.42-17.12,3.75-1.95,7.17-4.55,10.72-6.87.06-.04-.05-.51-.2-.65-.24-.22-.58-.34-.88-.5"/>
      <path class="cls-1" d="M1735.04,418.43c.86,5.42-.82,11.11-3.35,14.93-7.99,12.08-10.36,27.21-21.56,37.58-5.78,5.35-9.07,12.73-10.55,20.84-1.76,9.59-7.17,17.34-14.89,23.06-8.16,6.05-14.3,13.19-17.26,23.1-.95,3.17-3.36,5.83-5.51,8.57-10.62,13.55-18,28.37-19.83,46.05-.88,8.5-6.81,15.81-11.64,23.04-2.62,3.93-3.82,7.83-3.2,12.9.69,5.58-.69,11.66-5.84,15.1-4.97,3.32-6.88,8.32-8.66,13.28-1.82,5.06-3.01,9.94-8.22,13.04-2.39,1.42-3.73,4.73-4.53,7.84-2.62,10.17-8.13,19.07-12.48,28.5-4.75,10.28-5.49,25.03-5.15,33.27s.97,10.28,2.55,13.92c1.58,3.63,15.11,21.51,20.3,23.18,23.67,7.59,51.83,7.64,62.66,5.49"/>
      <path class="cls-1" d="M1304.93,108.12c7.46,8.14,17.09,13.86,28.44,12.79s23.21-7.03,31.36-14.46c4.85-4.42,6.99-9.66,9.62-15.5s7.59-10.4,10.24-16.26c1.32-2.93,1.5-5.75,1.79-8.89.3-3.32,2.47-4.98,4.11-7.73,3.09-5.19,4.11-11.21,4.81-17.12,1.53-12.84,3.89-25.04,10.87-36.17"/>
      <path class="cls-1" d="M1322.12,145.86c4.54-5.63,40.71-17.52,46.97-18.32,16.25-2.09,32.64-1.22,48.96-1.62,17.98-.45,33.75-5.84,47.27-17.78,9.49-8.37,19.02-16.69,28.66-24.89,3.17-2.7,6.78-4.73,11.21-2.6"/>
      <path class="cls-1" d="M1632.78,43.08c.83,1.71,2.31,2.78,3.99,3.29,17.01,5.11,33.42,12.27,51.35,14.23,13.58,1.48,22.55,9.65,28.88,21.38,4.29,7.95,9.07,15.29,17.03,20.67,7.3,4.94,13.97,11.29,19.58,18.13,6.94,8.46,16.17,12.62,25.44,17.26,3.38,1.69,6.09,1.19,9.16.18"/>
      <path class="cls-1" d="M1757.78,361.59c-15.31,8.01-44.66,20.78-54.39,36.1-3.84,6.04-9.87,9.13-16.58,12.05-10.03,4.36-20.46,6.96-30.75,10.25-6.28,2.01-10.74,6.99-13.37,12.35-3.65,7.43-7.85,14.04-13.9,19.67-6.64,6.19-10.1,14.3-11.85,23-.55,2.73-1.83,4.15-3.77,5.53"/>
      <path class="cls-1" d="M1436.74,79.81c13.83-17.8,30.18-32.27,52.12-39.33,6.23-2.01,11.59-6.37,15.32-10.84,13.54-16.18,30.67-17.33,49.24-14.07,5.59.98,11.18,2.68,16.4,4.93,6.73,2.89,13.71,3.94,20.83,4.18,9.62.32,19.19,2.99,25.5,9.3,8.35,8.37,17.42,7.88,27.38,7.49,12.99-.52,26.01-.88,38.82,2.02,24.27,5.5,41.6,20.43,54.72,40.84,9.62,14.95,20.33,28.91,34.31,40.11,2.46,1.97,4.71,4.35,8.33,2.79"/>
      <path class="cls-1" d="M1758.22,156.04c40.54,4.81,49.67,58.9,53.89,74.09,4.22,15.2,4.33,38.24-4.09,56.69-3.1,6.78-7.13,13.39-6.51,21.35"/>
      <path class="cls-1" d="M1539.33,15.88c8.73,9.72,18.97,15.36,32.72,14.62,6.12-.33,12.98.9,18.4,4.18,11.17,6.77,24.56,9.84,33.72,19.93,8.8,9.7,18.79,18.32,23.63,31.25,4.56,12.19,11.57,22.61,25.01,27.22,9.99,3.43,16.39,11.75,22.94,19.42,14.62,17.13,30.15,33.08,49.84,44.59,6.9,4.03,13.45,8.83,17.06,16.61,1.95,4.18,3.99,8.13,2.2,12.86"/>
      <path class="cls-1" d="M1574.29,704.83c-1.35.72-2.66.8-3.89,2.48-6.89,9.43-11.19,20.16-16.5,30.41-7.53,14.54-7.09,30-6.69,45.54.12,4.64.21,9.38,1.16,13.9,1.96,9.24,12.08,16.4,23.84,17.75,3.77.43,7.77.94,11.1-.48,8.35-3.54,16.71-2.63,25.12-1.18,4.15.71,7.68.31,11.55-1.75,3.31-1.76,7.25-3.16,11.35-2.05"/>
      <path class="cls-1" d="M1585.67,621.29c-.54-8.48-5.61-16.05-5.03-24.75,1.05-15.57,5.1-29.8,18.24-39.85,3.93-3,7.23-6.67,11.28-9.64,4.41-3.23,8.08-8.73,8.4-14.24.52-9.08,4.9-16.21,9.16-23.51,2.71-4.65,3.74-9.58,3.78-14.7-2.12-12.74,4.76-20.89,12.33-32.11,4.11-6.1,95.17-79.73,104.2-84.48"/>
      <path class="cls-1" d="M1249.49,54.74c-.53-6.47,4.44-10.77,6.77-16.03,4.35-9.82,10.9-18.69,18.39-26.33,4.7-4.8,11.89-6.82,18.89-6.5,15.64.71,27.11,8.14,35.04,21.8,6.85,11.78,4.72,33.66-5.56,42.78-7.46,6.62-13.13,19.02-16.94,28"/>
      <path class="cls-1" d="M1415.32,93.61c19.01,1.03,33.7-7.94,47.41-19.86,13.77-11.98,29.65-18.49,48.36-19.22,7.96-.31,16.38-.68,24.33-3.61,8.56-3.16,17.58-1.63,25.74,1.49,5.91,2.26,11.75,3.43,17.88,4.4,6.24.99,12.33,3.04,17.79,6.57,1.71,1.11,3.21,3.28,5.81,2.07"/>
      <path class="cls-1" d="M1557.41,680.57c-6.11.95-8.28,6.46-12,10.24-16.72,17.03-29.33,37.1-40.42,57.88-10.15,19.03-18.14,39.29-22.8,60.5-6.04,27.53,10.36,56.94,34.32,63.18,10.78,2.8,21.8,2.1,32.77-.44,12.71-2.94,24.83-6.98,35.3-15.02,3.35-2.57,7.16-4.8,8.54-9.23"/>
      <path class="cls-1" d="M1163.05,125.16c3.55,2.1,3.48,6.07,4.1,9.27,4.43,23.19,16.06,42.13,33.6,57.55,15.22,13.38,32.96,19.34,52.85,14.15,9.21-2.4,18.87-4.96,26.64-11.3"/>
      <path class="cls-1" d="M1757.04,169.87c8.96,3.38,13.83,11.09,18.08,18.7,12.01,21.55,13.92,44.01,5.2,67.49-3.71,9.98-3.92,20.77-2.91,31.47.81,8.63,1.56,17.27,1,25.97-.11,1.75.84,3.68-1.8,4.26"/>
      <path class="cls-1" d="M1425,3.87c-15.57,17.5-20.57,41.5-31.57,63.5-1,2-3,4-7.33,3.36"/>
      <path class="cls-1" d="M1354.52,4.79c7.91,17.58,9.91,38.58,2.91,56.58-9,21-32,28-51.5,37.46"/>
      <path class="cls-1" d="M1734.12,1.5c16,6.14,28.71,19.17,35.04,35.02,1.24,3.1,1.86,11.2,5.37,12.03"/>
      <path class="cls-1" d="M1589.95,3.55c20.48,5.83,41.48,4.83,60.78-.91"/>
      <path class="cls-1" d="M1340.23,3.92c6.66,9.55,9.92,21.45,9.87,33.04-.05,12.61-4.39,23.33-13.39,32.26-7.06,7.01-15.35,13.73-24.66,17.32"/>
      <path class="cls-1" d="M1325.41,3.26c20.03,14.12,18.03,40.12,13.83,61.04"/>
      <path class="cls-1" d="M1250.46,27.48c5.99-.4,7.76-7.22,10.41-11.52,2.88-4.67,6.48-8.91,10.72-12.41"/>
      <path class="cls-1" d="M1550.72,2.52c9.71,1.86,18.71,7.86,28.71,11.86s20,3,29.56,6.47"/>
      <path class="cls-1" d="M1464.03,35.05c14.59-11.87,28.88-24.72,46.97-30.97"/>
      <path class="cls-1" d="M1711.1,696.03c-9.12-12.73-1.66-25.72,9.98-29.76,16.28-5.64,33.18-5.8,50.09-2.9,5.85,1,11.79,1.71,17.13,4.67,6.22,3.45,10.56,9.86,9.96,18.12-.69,9.49-6.45,16.17-11.3,23.43-.51.76-2.21.73-3.36,1.07"/>
      <path class="cls-1" d="M1924.89,282.88c-5.13,4.29-12.26,7.51-16.03,13.18"/>
      <path class="cls-1" d="M1822,153.75c5.51-1.46,11.51.54,17.51,3.54h4c18-7,35,3,53,5,6,7,16,7,24,13,1,1,2,2,2.93,2.8"/>
      <path class="cls-1" d="M1642.75,5.66c7.45,3.87,15.15.28,22.73.7,21.18,1.16,42.64.4,62.93,7.89,14.79,5.46,23.13,18.3,32.18,30.16,3.97,5.2,5.01,12.32,10.79,16.31"/>
      <path class="cls-1" d="M1397.76,107.77c2.69,4.07,6.35,1.01,9.28.83,18.75-1.15,36.02-7.33,51.78-17.38,20.25-12.91,41.81-22.58,65.2-28.07,1.19-.28,2.56.19,3.84.31"/>
      <path class="cls-1" d="M1881.06,720.94c15.05,3.15,29.78-1.91,44.18-5.74"/>
      <path class="cls-1" d="M1606.7,669.81c2.15,8.9-.81,17.3-4.11,25-4.12,9.62-5.73,19.85-7.76,29.72-1.94,9.45-3.34,13.89,5.68,28.68,9.02,14.8,62.45,24.97,67.38,28.89"/>
      <path class="cls-1" d="M1717.32,369.34c-13.07,13.76-27.88,34.54-47.53,38.65-11.59,2.42-21.45,6.54-30.52,13.76-2.58,2.06-5.5,4.31-6.73,6.81-5.11,10.37-12.49,19.38-16.99,30.15-2.37,5.66-2.53,11.61-4.49,17.21"/>
      <path class="cls-1" d="M1781.5,706.03c2.94,6.34.94,15.34,6.94,17.34,21,8,49,2,62-17,4-16,4-34,17-46,15-14,35-22,55.89-20.51"/>
      <path class="cls-1" d="M1686.07,555.01c-5.79,13.02-27.22,70.31-29.02,77.43-3.91,15.53-2.6,31.52-4.9,47.15-.69,4.65.91,7.8,3.41,11.06"/>
      <path class="cls-1" d="M1716.32,214.84c-.37-.39-.69-1.07-1.1-1.14-39.24-6.06-61.23-31.59-74.96-66.41-.88-2.24-1.06-4.89-4.63-4.69-.63,9.76,3.49,18.5,6.16,27.47,4.17,14.02,12.21,26.1,22.68,35.91,13.07,12.23,29.88,13.58,46.94,12.54,8.06-6.41,19.52-3.71,27.71-10.8,3.42-2.96,10.1-.41,14.44-3.85"/>
      <path class="cls-1" d="M1855.82,688.65c7.61-3.27,9.61-12.27,13.61-19.27,12-18,34-26,54.28-22.41"/>
      <path class="cls-1" d="M1785.41,467.3c3.57,6.37,9.14,11.33,12.17,18.14,4.23,9.51,8.27,19.19,9.14,29.5.93,11.05-12.36,24.8-23.94,27.46-10.56,2.43-21.16,1.42-31.72,1.44-3.66,0-8.68-1.17-9.54-6.67"/>
      <path class="cls-1" d="M1852.15,705.47c10.54.59,15.57-9.97,22.15-16.31,8.15-7.86,18.21-13.5,29.2-16.25,6.61-1.65,13.44-2.25,20.24-2.07"/>
      <path class="cls-1" d="M1603.65,43.41c2.67,6.87,8.82,11.16,12.79,17.14,3.73,5.62,8.09,11.06,9.86,17.41,2.13,7.67,8.18,13.01,10.52,20.15,4.55,13.89,11,26.5,20.89,37.32,6.01,6.58,12.83,12.54,17.19,20.43,3.09,5.6,5.17,11.76,9.49,16.68,8.03,9.16,17.47,15.46,30.15,15.97,2.15.09,3.79-.89,5.73-1.06"/>
      <path class="cls-1" d="M1189.36,52.55c8.39,3.03,41.91,17.35,50.42,19.97,14.18,4.37,22.58,15.32,31.72,25.88,11.36,13.13,24.6,23.61,43.12,25.02,3.6.27,6.37-.31,9.18-2.12"/>
      <path class="cls-1" d="M1627.79,652.36c-7.86,10.17-11.79,31.4-11.73,38.68.06,7.28-1.16,15.54,1.02,24.43,1.35,5.5,1.51,11.16,1.34,16.87-.3,10.18,4.3,18.27,12.34,24.01,11.91,8.5,24.22,16.44,36.4,24.56,1.47.98,3,1.73,3.99,3.33,2.39,3.87,5.29,4.05,8.47.89"/>
      <path class="cls-1" d="M1853.14,699.93c5.81-.73,9.06-6.35,12.19-10.66,4.09-5.65,7.96-11.53,12.43-16.89,6.93-8.32,16.68-12.39,27.27-13.5,6.21-.65,12.85-.82,19.04.08"/>
      <path class="cls-1" d="M1268.33,39.83c-.71-2.57-1.2-4.56.63-7.49,5.68-9.07,13.49-15.3,23.79-16.29,12.3-1.19,23.61,5.24,26.26,20.47,2.83,16.28-5.53,28.61-15.07,40.37-.37.46-1.34.44-2.03.64"/>
      <path class="cls-1" d="M1629.53,57.52c7.38-.08,11.33,6.14,16.91,9.34,4.13,2.37,7.47,6.13,11.64,8.4,9.61,5.22,16.09,13.19,22.28,21.95,9.92,14.03,20.53,27.59,32.59,39.92,6.18,6.31,13.66,10.86,21.56,14.59,5.69,2.69,10.27,6.71,15.14,10.52,7.44,5.84,8.45,13.8,8.7,22.24"/>
      <path class="cls-1" d="M1204.67,93.42c4.95,6.78,7.13,14.92,10.95,22.28,8.29,15.99,20.75,25.91,38.63,29.15,9.45,1.71,17.86-2.31,26.49-4.37,12.42-2.96,24.79-5.04,37.54-4.81"/>
      <path class="cls-1" d="M1715.12,717.33c-5.27-12.51-3.6-24.71,2.06-36.52,2.5-5.22,6.6-9.63,12.78-9.69,11.64-.11,23.05-3.04,34.88-1.67,7.12.83,12.51,4.17,17.78,7.92,2.94,2.09,3.5,6.61,3.02,10.14-.77,5.72-2.52,11.3-3.86,16.94"/>
      <path class="cls-1" d="M1640.87,103.65c17.46,15,36.23,28.45,49,48.46,8,12.54,16.77,24.83,29.6,33.54,2.71,1.84,5.43,2.85,8.21,4.12,9.41,4.32,20.98,4.45,27.55,14.34.54.81,2.17.87,3.29,1.31,11.78,4.64,17,14.75,14.03,27.34-1.26,5.32-2.47,10.31-1.63,16.17.83,5.78-5.35,9.94-7.88,15.12-3.2,6.55-8.98,11.5-10.28,19.39-.96,5.86.68,9.34,4.72,13.04,3.78,3.47,7.67,6.75,9.93,11.96,2.2,5.08,2.74,9.88,2.28,15.1"/>
      <path class="cls-1" d="M1777.19,349.63c-5.3,6.77-7.93,11.61-10.56,16.42-3.32,6.06-5.42,12.94-7.39,19.77-1.36,4.73-3.11,9.6-6.88,13.63-3.21,3.43-4.65,8.3-5.29,13.29-1.29,10.06-5.12,19.24-10.43,27.86-3.55,5.76-5.74,11.91-5.93,18.88-.06,2.15-1.13,4.76-2.85,7.04-8.92,11.9-17.12,24.15-21.11,38.91-1.31,4.82-5.66,8.81-8.22,12.59"/>
      <path class="cls-1" d="M1794.49,468.58c11.29,2.93,21.18,12.65,24.22,18.18,10.73,19.5,13.43,39.06.48,59.19-6.85,10.65-16.98,13.74-28.01,14.64-14.7,1.21-26.4-7.42-38.58-13.98-.45-.24-.44-1.32-.64-2.01"/>
      <path class="cls-1" d="M1720.26,533.7c15.45-9.21,20.91-11.81,38.06-35.7,7.13-10-5.96-29.99-10.01-40.02-3.24-8-5.41-16.43.97-24.26"/>
      <path class="cls-1" d="M1772.06,465.24c1.28-1.6,2.85-1.92,4.83-1.45,5.32,1.26,10.93,1.74,15.95,3.72,5.72,2.27,9.77,6.16,12.49,12.62,3.56,8.44,8.48,16.29,10.85,25.33,3.73,14.22-3.63,35.5-15.75,43.52-5.69,3.76-12.63,4.69-19.13,6.14-2,.45-3.53,1.64-5.45,1.93"/>
      <path class="cls-1" d="M1566.38,716.15c3.52,3.63.55,7.9-.08,11.08-2.41,12.12-1.5,24.47-3.49,36.61-.8,4.9.14,11.11,1.36,16.47,1.55,6.81,8.74,8.99,14.79,11.28,6.11,2.32,11.29,2.93,18.99,3.75"/>
      <path class="cls-1" d="M1925,292.74c-4.85,2.6-10.11,4.41-15.52,5.44"/>
      <path class="cls-1" d="M1897.02,161.64c8.48-6.35,18.48,3.65,26.47,7.64"/>
      <path class="cls-1" d="M1697.82,518.57c-9.03,8.47-14.15,19.23-17.93,30.76-.64,1.96-1.49,3.9-2.08,5.8-7.83,25.17-29.97,67.77-29.12,76.82.52,5.52-10.54,14.88-10.69,20.31"/>
      <path class="cls-1" d="M1574.67,617.03c.21-5.81-3.38-10.49-4.86-15.81-1.52-5.45-1.68-10.74.19-15.71,3.83-10.17,8.6-19.84,14.17-29.33,5.52-9.42,12.41-17.19,20.23-24.22,11.7-10.52,14.6-23.41,11.89-38.11-1.27-6.88-1.56-14.43-9.07-18.32-1.46-.76-1.18-1.95-1.12-3.44.25-6.74-.18-13.51.2-20.24.9-15.71,11.54-24.97,23.25-32.97,9.39-6.42,55.78-30.75,74.01-36.12"/>
      <path class="cls-1" d="M1842.97,158.81c11.4,4.93,48.79,86.55,23.25,107.27-18.86,15.3-48.36,38.45-58.37,48.43-2.06,2.05-4.37,3.81-3.87,7.17"/>
      <path class="cls-1" d="M1604.13,472.71c-2.08-.63-3.37-2.25-4.13-4.04-6.07-14.14.19-34.08,12.32-44.27,12.58-10.58,19.24-18.87,36.91-26.15,24.77-11.46,56.78-21.66,58.68-21.97"/>
      <path class="cls-1" d="M1826.83,768.38c4.43-1.52,6.11,3.83,9.17,5.83,3.31,2.17,7.56,2.24,11.05.45,3.72-1.92,4.8-6.07,8.12-8.22,1.72-1.11,3.67-.55,5.38-1.4,1.83-.91,2.45-3.02,2.88-4.84,3.44-14.59,18.4-25.12,33.26-25.4,4.19-.08,8.26.81,11.97,2.76,5.16,2.72,10.63,4.16,16.03,6.29"/>
      <path class="cls-1" d="M1626.63,717.15c4.29,2.55,6.68,6.69,9.21,10.77,2.51,4.06,5.22,8,7.98,11.89,4.84,6.82,11.03,11.4,19.83,11.41.76,0,1.65-.2,2.25.11,19.97,10.41,39.34,1.45,58.46-2.77,7.1-1.57,14.67-4.41,21.51-8.53,9.36-5.64,20.13-6.35,30.93-4.14"/>
      <path class="cls-1" d="M1626,625.9c-6.93,11.8-16.34,21.66-24.91,32.2-6.21,7.64-11.21,16.24-14.26,25.78-.57,1.77-1.1,3.76-2.26,5.11-10.65,12.36-12.05,27.53-11.88,42.61.13,11.75-2.65,23.69,1.77,35.39,2.61,6.92,4.65,11.01,12.44,16.75,5.76,4.87,14.89,9.65,19.42,12.32"/>
      <path class="cls-1" d="M1416.86,88.66c-11.04,9.17-21.72,18.81-34.36,25.85-1.07.59-2.43,1.36-3.28,1.53-17.74,3.67-33.36,13.78-51.28,16.79"/>
      <path class="cls-1" d="M1713.62,727.52c.2-4.75.52-8.78,5.13-12.47,3.04-2.43,3.83-8.37,4.52-12.91,1.94-12.73,10.37-18.19,21.79-20.57,6.5-1.36,13.42-2.33,19.43.47,4.59,2.14,8.35,6.3,9.76,11.9,1.04,4.12,2.17,8.38,6.15,10.93"/>
      <path class="cls-1" d="M1770.52,2.29c5.43,7.78,9.99,18.28,6.04,27.68"/>
      <path class="cls-1" d="M1188.85,57.91c-.87,5.75,18.38,18.61,21.03,22.73,5.13,7.97,9.58,16.48,15.45,23.86,10.22,12.84,24.67,19.46,39.99,24.17,2.64.81,5.7.26,8.08,2.22"/>
      <path class="cls-1" d="M1697.41,799.74c6.17-2.81,18-4.67,26.74-8.73,8.74-4.07,33.38-16.42,42.44-21.17,3.75-1.96,7.73-3.36,10.82-6.39"/>
      <path class="cls-1" d="M1776.56,472.9c-.84,3.25,1.23,5.78,2.55,8.22,3.87,7.14,6.38,16.27,5.63,21.61-1.69,11.96-10.48,23.08-19.51,25.87-7.8,2.41-15.97,3.3-23.36,7.43-2.42,1.35-6.73.37-9.8-.67-10.13-3.44-16.95,1.52-23.04,8.44-2.94,3.34-5.62,6.94-8.12,10.62-5.93,8.73-6.23,17.77-2.58,27.72,2.62,7.14,5.46,14.19,6.42,22.15,1.14,9.38-3.04,15.76-7.01,23.09-5.81,10.72-15.35,19.41-16.96,32.53-.67,5.44-4.14,9.72-9.49,12.8-9.9,5.71-14.69,15.49-17.76,26.08-.58,2.02.06,4.39-2.12,5.82"/>
      <path class="cls-1" d="M1659.02,737.81c-1.13-3.84-2.14-5.46-4.07-10.27-.7-1.76-1.69-5.76-2.52-9.7-2.01-9.63-5.52-18.53-5.55-28.4-.03-12.97-1.91-25.94-.12-38.91.69-5.03,2.41-9.96-1.88-14.53-1.24-1.33-1.5-4.25-1.17-6.27,2.34-14.66,2.04-29.93,11.99-42.67,8.22-10.53,11.15-23.57,14.01-36.3,2.38-10.58,8.65-17.82,17.16-23.66.5-.34,1.48,0,2.24.03"/>
      <path class="cls-1" d="M1700.42,804.85c5.77-4.11,24.47-6.17,36.27-8.6,12-2.47,27.57-15.5,37.57-20.63"/>
      <path class="cls-1" d="M1626.94,657.1c3.68,7.55,2.87,15.43.67,22.97-4.64,15.87,1.21,29.01,10.16,41.23,2.87,3.92,4.49,10.33,11.59,9.39"/>
      <path class="cls-1" d="M1722.59,724.88c-1.04-7.56,4.26-13.16,6.33-19.75,2.87-9.13,8.7-15.17,19.47-14.92,9.88.23,15.49,5.62,19.86,13.71,2.72,5.04,5.34,10.84,12.73,10.52"/>
      <path class="cls-1" d="M1638.26,652.27c-2.79,4.92-3.53,10.25-2.08,15.6,2.16,7.94,1.44,15.76-.77,23.4-1.97,6.79-1.62,12.39,3.68,17.79,4.12,4.2,5.3,10.44,8.08,15.61,3.07,5.71,7.52,9.89,11.58,14.4,8.71,9.68,27.33,8.25,37.67,3.87,4.76-2.02,9.73-4.32,12.2-9.48,3.3-6.91,10.99-7.03,16.34-7.86,5.38-.83,9.06-3.22,12.48-6.03,11.62-9.54,25.39-9.18,35.78,1.63"/>
      <path class="cls-1" d="M1686.39,554.62c6.41-11.42,23.09-28.98,32.47-37.98,9.57-9.18,15.13-20.17,15.14-34.79.02-14.28,5.07-28.41,5.91-42.99.2-3.39,2.13-9.12,8.15-9.27"/>
      <path class="cls-1" d="M1205.6,86.4c6.99,8.5,11.81,18.57,19.71,26.46,11.91,11.91,24.84,22.4,42.74,19.98,9.02-1.22,17.94-2.08,26.98-2.43,1.04-.04,2.03-1.49,3.05-2.29"/>
      <path class="cls-1" d="M1679.18,785.04c5.95.95,34.99-6.62,45.68-11.88,6.82-3.35,14.54-6.61,21.64-7.47,9.7-1.17,19.21-4.48,28.53-4.55,6.59-.05,11.03-.95,16.18-4.54,5.33-3.72,12.03-4.97,18.51-5.57,7.84-.73,15.41-.41,22.95,3.46,7.52,3.86,15.47.62,21.89-3.6,3.42-2.25,6.32-2.65,9.84-2.56"/>
      <path class="cls-1" d="M1587.15,547.41c-1.71.91-3.94.45-5.33,2.3-8.64,11.42-18.82,21.85-23.08,36.05-4.64,15.45-1.49,26.01,15.11,31.87,6.61,2.33,14.59,3.39,19.58,9.62"/>
      <path class="cls-1" d="M1754.95,1.7c5.49,5.68,11.49,9.68,15.49,16.68,1,2,2,5,3,7,2,6,4,13,3,20-2,9-6,17-5,26,2,11,1,21,2.55,31.3"/>
      <path class="cls-1" d="M1388.57,58.76c-.14-15.39,2.86-30.39-2.14-45.39-1-3,0-6,.6-8.78"/>
      <path class="cls-1" d="M1789.39,380.43c6.19.67,16.95-.06,22.58,2.09,9.33,3.56,16.52,10.64,20.15,20.07,3.07,7.98-4.64,15.14-15.19,16.61-13,1.82-23.44-3.26-33-10.77-4.95-3.89-10-6.08-16.24-6.45-6.85-.41-10.49,1.28-12.73,7.61-1.9,5.38-3.28,10.95-4.99,16.4-.41,1.31-1.38,2.38-.7,3.98,4.56,10.7,4.23,24.28,14.86,31.28,5.16,3.4,8.84,8.29,14.36,11.28,5.91,3.21,8.83,10.66,11.55,15.91,9.71,19.23,8.08,38.48-13.2,46.46-8.86,2.98-18.6,2.37-28.02,1.62"/>
      <path class="cls-1" d="M1707.7,740.5c9.67,1.39,16.34-5.66,24.38-8.79,2.75-1.07,5.26-3.1,7.46-5.14,7.11-6.58,15.02-6.92,24.16-5.05,6.31,1.29,13.59,3.35,19.38-2.46"/>
      <path class="cls-1" d="M1271.27,37.09c8.55-8.71,18.79-12.41,30.82-9.76,6.99,1.54,12.21,10.23,10.22,17.1-1.61,5.56-3.26,10.85-7.82,15.55-3.6,3.72-6.77,9.93-3.73,16.4.49,1.04.51,2.44.34,3.62-.96,6.62-2.17,12.91,3.68,18.61,1.73,1.69,1.99,7.19-2.16,9.38-5.01,2.64-7.45-1.34-9.51-4.66-3.32-5.35-6.25-10.7-7.72-17.21-2.45-10.83-9.06-19.14-19.98-23.45-1.89-.75-4.99-.37-5.62-3.47"/>
      <path class="cls-1" d="M1417.28,153.74c7.33-.7,10.83,5.79,15.93,8.98,12.33,7.71,22.58,6.05,30.95-5.4,4.33-5.92,7.5-13.23,15.36-16.13,1.3-.48,2.33-3.08,3.13-5.1,3.56-9.01,7.58-17.84,11.51-26.71,2.36-5.32,3.63-11.2,9.05-14.84,1.56-1.05,2.97-4.08,2.63-5.86-1.38-7.28,3.77-9.72,8.34-12.99,4.99-3.58,11.16-5.61,14.75-11.03.91-1.37,2.24-.84,3.42-1.15,8.85-2.36,17.79-4.44,26.88-5.27,2.74-.25,4.08-1.67,5.98-2.75"/>
      <path class="cls-1" d="M1497.07,91.27c-2.88,7.75-9.66,12.72-13.91,19.62-5.37,8.72-12.56,16.31-18.8,24.51-8.51,11.17-20.9,17.98-37.06,11.65-4.46-1.75-8.98-3.36-13.47-5.04"/>
      <path class="cls-1" d="M1757.03,253.82c2,4.17-1.04,6.64-3.32,9.18-5.69,6.35-10.33,13.25-12.33,21.66-2.21,9.27,1.45,18.23,9.3,24.31,2.14,1.65,5,3.25,5.06,6.69"/>
      <path class="cls-1" d="M1863.14,764.44c4.25,11.34-.93,20.52-7.28,29.01-5.77,7.72-14.51,11.77-23,15.82-4.48,2.14-11.71-1.05-13.65-5.67-2.14-5.09-.66-11.2,3.73-15.34"/>
      <path class="cls-1" d="M1818.61,384.08c1.16-1.16,2.55-1.71,4.13-1.2,16.22,5.14,28.69,13.65,27.48,32.35-.19,2.99-1.57,5.51-3.6,7.88-8.82,10.27-31.85,10.49-41.39-.63-.22-.26.15-1.02.24-1.55"/>
      <path class="cls-1" d="M1770.66,254.3c1.91,7.22-1.84,13.8-3.45,20.25-2.46,9.87-.4,17.99,4.41,25.9,3.61,5.93,3.02,12.64,4.43,18.94.54,2.4-2.95,4.2-5.82,4.73"/>
      <path class="cls-1" d="M1480.49,141.87c2.77,11.91-.84,22.83-5.03,33.73-4.52,11.76-22.37,17.11-35.39,5.26-4.51-4.11-10.46-6.71-14.45-11.6-6.4-7.83-9.55-17.88-17.05-25-.56-.53-1.11-1.88-.18-2.9"/>
      <path class="cls-1" d="M1705.49,809.35c3.11.24,40.01-5.03,46.21-8.14,5.36-2.69,9.99-5.03,12.82-7.74"/>
      <path class="cls-1" d="M1786.27,378.61c10.57,4.62,19.4,11.97,28.57,18.69,3.45,2.53.78,8.97-3.66,9.93-6.8,1.48-13.46.72-19.95-1.62-3.12-1.12-6.03-1.24-8.69,1.07"/>
      <path class="cls-1" d="M1750.13,255.85c-.62,7.4-7.1,10.55-11.31,15.23-9.42,10.46-10.74,22.24-2.18,35.16,1.56,2.35,3.28,4.37,3.49,7.26"/>
      <path class="cls-1" d="M1457.46,27.99c9.19-8.14,17.32-17.14,27.39-24.27"/>
      <path class="cls-1" d="M1395.18,4.62c-2.05,5.09-2.41,10.86-5.24,15.52"/>
      <path class="cls-1" d="M1260.16,55.35c4.48-3.88,10.07-5.79,14.4-10.54,5.24-5.75,16.66-.35,22.08,7.43,3.66,5.89.23,12.85,2.84,17.01"/>
      <path class="cls-1" d="M1737.16,743.82c1.39-7.5,9.44-13.4,19.15-13.86,7.66-.36,15.34-.53,23-.8,3.04-.11,6.26.18,8.07-3.12"/>
      <path class="cls-1" d="M1446.1,40.33c-7.38,6.45-13.81,13.87-18.81,22.18-4.34,7.21-9.19,13.98-14.43,20.47-2.56,3.17-2.69,6.11-1.6,9.58"/>
      <path class="cls-1" d="M1766.82,465.28c-.35,1.35-1.4,3.03-.95,4.01,5.41,11.61,12.09,22.8,6.22,32.99-12.75,20.43-35.12,26.03-41,27.51-1.92.49-2.68,2.24-3.33,3.94"/>
      <path class="cls-1" d="M1440.91,180.51c5.65-1.86,11.61.32,17.43-1.94,6.23-2.42,10.82-5.63,12.94-12.21,1.67-5.19,3.97-10.18,5.91-15.29.57-1.48,1.58-2.18,3.06-2.39"/>
      <path class="cls-1" d="M1691.64,622.32c3.52-8.99,2.83-17.93.37-27.09-2.05-7.61-2.29-15.34,2.29-22.41"/>
      <path class="cls-1" d="M1206.24,67.39c26.3,7.89,64.86,36.59,75.6,51.26,1.1,1.5,2.76,2.37,4.55,3.3,9.97,5.17,20.65,6.98,31.64,7.83,2.13.16,4.22.73,6.33,1.1"/>
      <path class="cls-1" d="M1726.52,722.97c3.84-5.63,7.61-11.3,11.54-16.87,3.47-4.92,8.51-5.9,13.73-3.97,6.04,2.23,10.77,6.34,13.47,12.43"/>
      <path class="cls-1" d="M1700.52,583.73c6.91,4.08,10.65,11.41,17.2,16.15,6.4,4.63,5.98,20.56.48,26.43-.74.79-1.52,2.11-2.89,2.55-7.07,2.28-14.13,4.63-21.18,6.96"/>
      <path class="cls-1" d="M1272.86,50.11c12.59,1.69,17.23,9.7,18.62,21.55.61,5.26,1.4,11.26,5.78,15.49"/>
      <path class="cls-1" d="M1690.67,624.1c-3.26,4.21-6.49,8.43-9.78,12.62-3.64,4.63-6.15,9.34-5.27,15.77.86,6.25-3.16,12-3.44,18.28"/>
      <path class="cls-1" d="M1814.66,752.48c5.14,4.44,11.25,8.15,11.5,16.1.17,5.21-1.28,10.27-1.85,15.38-.56,5.02-.06,9.52,2.86,12.68,3.5,3.78,8.05,1.77,12.4-.38,5.17-2.56,10.01-5.49,14.57-8.95,1.66-1.26,3.45-1.86,5.53-1.61"/>
      <path class="cls-1" d="M1858.52,766.55c-1.36,7.24-5.79,12.84-10.52,17.97-5.82,6.31-13.73,4.23-16.8-3.93-.79-2.1-.88-4.56-3.22-5.79"/>
      <path class="cls-1" d="M1597.8,795.44c7.75,2.57,19.72,3.64,28.03.3,6.09-2.44,35.54-13.41,42.34-12.68-.09.53-24.22,16.01-24.32,16.54"/>
      <path class="cls-1" d="M1727.87,312.61c-9.41,5.36-23.86-3.57-28.33-10.46-2.45-3.76-2.81-8.65-.47-13.34,2.65-5.3,6.54-10.39,10.53-13.69,5.02-4.15,11.33-8.72,18.99-8.44"/>
      <path class="cls-1" d="M1190.77,57.35c5.22,3.85,26.43,21.56,30.74,26.54,3.08,3.56,3.99,7.93,6.14,11.79,7.6,13.64,19.28,21.14,34.4,21.71,6.76.26,12.66,4.47,19.46,2.87"/>
      <path class="cls-1" d="M1825.29,760.59c3.13-1.48,5.83-.14,8.61,1.19,6.47,3.09,12.37,2.3,18.11-2.2,3.22-2.52,6.91-4.79,11.45-4.23"/>
      <path class="cls-1" d="M1282.7,77.19c2.53-6.85-2.39-14.57-10.83-17.87-4.39-1.72-8.76-2.12-13.16-1.19-3.39.72-6.55.26-9.86-.24.17-3.34,2.85-4.53,5.28-5.13,2.77-.68,5.04-2.6,6.06-4.34,5.65-9.64,17.63-10.45,25.31-12.71,9.53-2.81,21.45,5.54,23.59,12.86"/>
      <path class="cls-1" d="M1225.97,89.4c14.43,5.36,23.24,17.77,34.29,27.38"/>
      <path class="cls-1" d="M1787.15,745.59c-5.18,4.32-10.81,7.94-17.42,9.57-5.83,1.43-10.15,4.78-13.74,9.35"/>
      <path class="cls-1" d="M1680.61,785.95c3.12-.09,5.66,1.27,8.36,2.72,7.86,4.2,58.96-14.3,67.63-22.09"/>
      <path class="cls-1" d="M1839.02,392.31c.56,3.58,2.55,6.52,3.7,9.95,3.92,11.69-1.32,18.44-16.98,23.76-2.12.72-6.43,2.94-9.59,2.82"/>
      <path class="cls-1" d="M1246.08,60.99c1.28,2.51,2.72,4.57,5.96,5.04,13.73,1.98,21.85,11.41,29.12,22.07,1.07,1.58,1.23,5.07,4.78,3.88"/>
      <path class="cls-1" d="M1783.34,763.2c.98,2.62-.37,4.95-1.91,6.45-8.09,7.91-12.23,17.83-16.76,28-4.69,10.51-12.59,19.85-23.03,25.36-3.7,1.95-9.09,3.72-14.21,2.4-5.04-1.3-10.04-.64-14.35-6.05-3.04-3.81-8.14-6.87-10.82-11.34-4.14-6.93-10.42-11.04-17.25-14.18-3.32-1.53-5.69-3.38-7.65-6.18"/>
      <path class="cls-1" d="M1714.26,818.76c11.89,1.22,23.08-4.42,34.93-3.54"/>
      <path class="cls-1" d="M1644.09,616.08c-7.07,4.34-10.3,10.89-10.91,18.95-.42,5.66-3.89,10.34-5.11,15.74"/>
      <path class="cls-1" d="M1848.45,312.34c-6.14.02-11.89,2.33-17.72,3.26-9.4,1.49-17.36,7.87-27.24,7.08-1.78-.14-3.99.54-5.46,1.6-8.9,6.46-16.61,15.15-20.66,24.51-3.62,8.36-4.2,20.28,5.39,27.79,5.06,3.96,3.97,10.59,7.84,15.11,1.91,2.23-2.68,6.7-7.34,7.28-2.67.33-5.9-1.36-7.58,2.25"/>
      <path class="cls-1" d="M1712.78,597.36c.76,4.27,2.21,8.56,2.12,12.82-.15,7.47-6.13,17.91-11.67,22.88"/>
      <path class="cls-1" d="M1143.93,17.3c9,7,22,14,28,18,6.62,4.41,11.72,13.35,18.68,18.05"/>
      <path class="cls-1" d="M1685.38,285.4c-.68,1.95-1.37,3.89-2.02,5.84-3.28,9.73-2.17,13.3,6.42,19.03,1.57,1.04,2.18,2.22,2.55,3.81"/>
      <path class="cls-1" d="M1768.99,243.55c-3.39-.29-5.44,2.26-6.83,4.4-2.84,4.38-7.08,5.72-11.54,7.01-10.33,2.98-18.84,8.2-23.93,18.23-2.29,4.52-5.32,8.69-8.14,12.93-3.53,5.31-3.67,11.02.29,15.59,5.35,6.17,10.4,12.2,20.58,12.48,9.8.27,20.61.8,28.82,8.28"/>
      <path class="cls-1" d="M1143.93,17.3c11,8,61.91,34.98,70.89,39.43,9.96,4.93,20.81,1.5,31.08,3.44.28.05.92-1.99,2.33-2.05"/>
      <path class="cls-1" d="M1259.58,3.63c-1.15,3.74-5.15,6.74-7.15,10.74-3,7-2,14-4,21-2,6-5,11-8,16-2,2-4,4-4.74,7.43"/>
      <path class="cls-1" d="M1633.14,51.96c9.72,6.06,20.79,8.69,31.41,12.49"/>
      <path class="cls-1" d="M1610.51,825.32c12.76-6.53,23.02-16.35,33.67-25.65"/>
      <path class="cls-1" d="M1707.33,275.94c-7.74-1.24-13.12,4.63-19.75,6.71-1.01.32-1.23,1.84-3.3,1.73-8.07-.4-12.92,4.18-16.17,11.29-3.4,7.44-2.61,11.8,4.09,16.03,1.32.83,3.06.99,3.73,2.7"/>
      <path class="cls-1" d="M1759.49,402.79c4.15-5.04,9.36-24.16,10.61-30.03.75-3.52,1.95-5.27,5.21-5.92"/>
      <path class="cls-1" d="M1634.66,118.22c-1.49,8.23.83,16.11,2.22,24.08"/>
      <path class="cls-1" d="M1710.79,313.15c-8.24,3.85-17.11.49-25.58,2.18-3.79.76-7.61-1.41-11.76,1.04-3.29,1.94-16.83-4.79-18.87-8.41-2.87-5.1-.9-9.75,3.08-12.65,3.38-2.47,6.85-5.98,11.87-5.23"/>
      <path class="cls-1" d="M1777.78,372.11c4.51,11.29-.22,19.57-8.76,26.48-1,.81-.05,1.14-.23,1.65"/>
      <path class="cls-1" d="M1636.66,748.67c8.53,2.34,16.74,5.28,23.01,11.96"/>
      <path class="cls-1" d="M1434.67,67.68c-4.25,6.75-10.06,12.07-15.86,17.41"/>
      <path class="cls-1" d="M1595.65,634.84c4.05,1.04,6.59-3.06,10.35-3.05"/>
      <path class="cls-1" d="M1627.34,42.43c.74,2.63.44,5.67,3.59,7.22,2.87,1.41.25,3-.14,4.5"/>
    </g>
    <g>
      <path class="cls-1" d="M232.24,418.9c-.8-1.52-2.8-4.52-3.8-6.52-5-17-13-32-20-48-3-6-10-9-16-10-9,0-18,0-27-2-9-1-18-1-27,3-2,1-4,2-7,3-18,9-33,23-54,27-7,1-11,9-19,9-7,0-15-1-22,0-12,2-23,8-33.31,14.13"/>
      <path class="cls-1" d="M25.18,394.26c-7.75.11-13.75,5.11-21.88,7.4"/>
      <path class="cls-1" d="M179.99,353.2c-5.17-10.73-18.54-10.63-28.65-8.5-13.25,2.78-24.46,11.15-37.12,15.63-6.41,2.27-13.15,2.65-19.56,4.65-5.4,1.69-9.87,5.2-13.96,8.99s-8.01,7.91-13.33,9.87c-2.63.97-5.41,1.31-8.2,1.05-3.48-.32-5.98-.1-9.42.66-15.58,3.42-31.84.92-47.27,5.4"/>
      <path class="cls-1" d="M532.95,984.32c-8.31-1.07-13.35,7.84-17.71,13.46-5.53,7.15-10.74,14.55-15.57,22.19-9.47,14.97-17.14,30.89-27.25,45.47-5.7,8.21-11.83,16.13-18.33,23.72"/>
      <path class="cls-1" d="M110.46,803.45c-3.63-6.74-.03-13.09,1.72-19.17,2.63-9.16,7.01-17.85,12.87-25.4,6.49-8.36,8.89-18.43,12.26-27.94,1.29-3.65-1-8.78-.1-13.79,1.52-8.42,6.72-14.11,11.72-19.91,7.76-9.02,12.51-19.93,19.63-29.38,4.78-6.35,8.71-13.29,15.57-17.57,10.9-6.81,16.81-17.07,20.93-28.73,2.22-6.29,5.77-11.77,10.33-16.6,7.13-7.55,7.18-17.36,8.55-26.74.33-2.24-.08-4.56,1.15-6.69,5.93-10.33,8.28-22.09,14-32.81,5.22-9.78,12.28-18.82,15.93-29.62,2.19-6.49,3.24-13.11,4.01-19.74.3-2.64.36-4.81,2.02-6.98.81-1.06,1.11-2.82,1-4.21-.81-10.83,2.05-19.24,9.3-27.85,3.21-3.82,4.62-8.75,7.9-12.74,2.75-3.33,4.69-7.13,8.97-8.84.89-.35,2.12-.99,2.33-1.74,5.27-18.81,20.68-31.76,28.3-49.31,7.82-18,15.44-36.13,19.03-55.36,2.85-15.23,3.78-31.24-2.99-45.93-9.14-19.84-27.56-31.78-51.27-27.33-13.36,2.51-25.47,8.6-38.17,12.98-6.76,2.33-11.65,6.47-16.44,11.33-.88.9-1.88,1.96-2.55,2.89-1.87,2.6-2.8,6.06-.35,8.47,2.24,2.2,5.73,2.67,8.81,1.13,16.09-8.06,33.07-6.28,50.06-4.76,7.3.65,17.87,13.22,20.21,24.44,3.17,15.23.34,30.19-.77,45.15-.95,12.79-4.19,25.35-9.32,37.37-3.63,8.52-9.97,14.96-15.15,22.28-7.3,10.32-11.02,21.89-13.39,34.12-.54,2.8.16,4.52,1.89,6.29"/>
      <path class="cls-1" d="M243.27,1046.73c-16.51-5.48-31.38-13.03-41.91-27.92-3.67-5.2-9.74-9.6-15.67-12.12-12.78-5.44-23.55-13.53-34.38-21.89-10.36-8-22.94-11.8-35.15-15.98-7.94-2.72-18.07-7.77-26-10.53-25.03-8.72-34.77-48.49-25.8-94.28,3.21-15.48,9.86-29.4,18.65-42.33,2.24-3.29,5.61-5.68,6.9-9.82,1-3.22.58-5.65-1.74-7.9"/>
      <path class="cls-1" d="M142.74,722.16c12.5-9.02,89.44-114.22,84.58-116.55,4.79-6.82,5.02-14.51,5.84-22.47,1.22-11.87,6.27-22.5,15.05-31.1,13.73-13.44,19.63-30.24,19.48-49.07-.05-5.98-3.38-11.76-3.23-18.01"/>
      <path class="cls-1" d="M283.29,430c-1.3-2.79-.99-5.02.43-8.11,5.47-11.92,13.83-22.03,19.91-33.52,11.86-22.41,20.52-46.21,20.95-71.53.3-17.61-6.18-33.98-21.67-45.4-9.74-7.18-20.33-4.66-30.38-3.55-12.65,1.4-24.95,5.38-36.73,10.6-3.28,1.45-6.22,3.08-8.48,5.86"/>
      <path class="cls-1" d="M743.46,923.77c2.54-2.73,1.65-5.96.97-8.94-3.71-16.28-11.13-31.01-21.17-44.1-7.75-10.1-18.07-17.86-30-22.74-12.03-4.92-24.49-8.65-37.66-8.82-17.1-.22-31.61,5.44-44.16,17.61-8.08,7.83-17.14,14.77-22.23,24.95-4.48,8.94-10.69,17.1-13.17,26.97-.94,3.73-4.92,4.63-6.2,7.88-.81,2.06-2.82,3.72-2.09,6.29"/>
      <path class="cls-1" d="M731.53,968.95c-5.11-5.54-5.6-13.14-6.82-19.66-7.53-40.26-44.6-68.79-83.7-63.96-18.55,2.29-32.83,12.98-47.14,23.32-8.38,6.06-15.78,13.2-26.47,15.31-3.1.61-5.29,3.67-7.65,5.99-9.57,9.41-22.8,11.24-34.43,16.44-9.37,4.19-18.66,3.93-28.2,1.27-.51-.14-1.17-.31-1.58-.11-9.2,4.64-19.69,2.65-29.32,6.11-11.49,4.14-18.55,12.68-25.3,21.59-7.42,9.77-15.54,18.91-23.81,27.88-3.29,3.57-8.61,5.28-13,7.84"/>
      <path class="cls-1" d="M272.83,641.39c11.59,4.27,17.14,16.7,11.97,27.69-7.15,15.19-17.65,27.83-31.34,37.48-15.24,10.74-31.99,18.99-49.17,26-10.43,4.25-21.06,7.87-31.43,12.45-8.58,3.78-12.77,8.25-24.15,13.25-11.38,5.01-21.85,8.02-25.86,6.56"/>
      <path class="cls-1" d="M734.95,958.25c-5.06-3.08-3.64-8.95-4.08-12.97-2.39-22.04-14.09-39.25-29.4-53.14-18.27-16.57-40.87-21.06-65.35-15.01-7.05,1.75-13.7,4.69-20.97,5.93-3.95.67-7.47,4.51-10.94,7.24-6.31,4.97-12.41,10.2-18.66,15.25-2.7,2.18-5.78,3.59-9.31,3.8"/>
      <path class="cls-1" d="M187.73,1090.96c-12.23-10.68-24.23-21.68-29.23-37.68-1-2-3-4-4-7,0-1,0-3-1-4-10-17-20-32-32-49-9-11-23-12-35-17-34-15-42-55-45-88-2-17,12-30,25.39-39.23"/>
      <path class="cls-1" d="M305.4,1085.15c.26,2.99-1.53,2.64-4.23,3.32-2.54.64-5.1,1.18-7.67,1.68"/>
      <path class="cls-1" d="M1.5,879.34c3.67-10.31,10.42-22.18,19.68-28.5,3.22-2.2,6.8-3.78,10.25-5.57,6.33-3.27,12.14-7.32,17.55-11.96,6.29-5.4,15.42-11.92,17.19-20.44"/>
      <path class="cls-1" d="M55.87,973c-4.43-3.14-9.77-4.38-14.75-6.35s-9.42-4.73-13.44-8.08c-8.31-6.92-14.5-16.55-19.1-26.24-2.69-5.66-4.87-11.58-6.54-17.62"/>
      <path class="cls-1" d="M236.91,1029.14c-10.89.11-18.78-6.59-26.63-12.59-5.78-4.42-10.44-10.24-14.8-16.33-6.69-9.33-15.27-16.81-26.2-21.3-5.32-2.18-10.67-4.24-15.65-7.45-9.89-6.38-16.56-16.21-26.1-22.96-8.68-6.14-15.68-14.31-21.67-22.98-6.42-9.29-9.42-20.03-8.26-31.49.95-9.42-.47-18.46-3.39-27.36-3.2-9.74-2.16-19.6.83-28.92,5.6-17.45,5.66-36.2,12.42-53.24.3-.76,1.47-1.58,2.82-8.12"/>
      <path class="cls-1" d="M490.58,1002.29c-.2-3.01-2.45-2.7-3.67-1.51-8.1,7.87-19.27,10.13-28.55,15.89-6.46,4.01-9.86,10.58-15.44,15.23-3.28,2.73-6.25,5.66-10.03,7.89-9.02,5.32-17.7,11.23-26.56,16.83-8.27,5.23-17.07,8.08-26.78,4.62-4.01-1.43-7.79-1.18-11.92-.66-18.93,2.36-37.48,2.5-53.34-10.81-6.86-5.75-11.03-14.15-19.13-18.68-8.63-4.83-13.92-12.83-18.58-21.15-1.73-3.09-1.84-7.07-3.57-10.16-11.34-20.29-22.17-40.83-39.82-56.9-9.04-8.23-18.6-15.22-29.51-20.49-11.13-5.37-23.41-4.99-35.28-6.58-2.44-.33-4.99.15-7.34-.99"/>
      <path class="cls-1" d="M769.74,1043.79c-13.17-15.98-39.41-37.69-48.1-56.85-3.44-7.59-4.78-15.7-6.87-23.57-4.1-15.36-9.08-30-19.03-42.77-10.21-13.1-23.59-19.87-39.57-22.76-20.6-3.71-37.61,3.58-53.24,16.15-9.22,7.41-17.2,16.31-27.23,22.73"/>
      <path class="cls-1" d="M3,842.32c12.44-6.94,26.44-9.94,35.45-21.3"/>
      <path class="cls-1" d="M150.96,673.75c6.06-1.48,7.68-7.39,10.69-11.55,3.93-5.44,7.2-11.45,9.19-18.15,2.96-9.96,10.22-17.29,16.98-24.81,10.49-11.65,15.65-25.71,18.27-40.83.62-3.56,1.36-6.87,4.06-9.33,12.52-11.39,16.71-25.98,16.14-42.28-.28-7.98,1.87-15.56,6.16-21.65,11.54-16.36,18.18-35.03,26.29-52.97,2.39-5.28,4.81-11.46,2.27-17.8"/>
      <path class="cls-1" d="M533.5,989.53c-1-.24-2-.24-3-.24-1,1-4,2-5,3-17,24-29,47-39,74-4,9-9,16-15.6,23.4"/>
      <path class="cls-1" d="M2.5,860.7c6.93-8.56,14.73-16.69,23.98-22.77,7.88-5.17,18.8-8.19,21.44-18.43"/>
      <path class="cls-1" d="M13.01,972.54c-3.38-4.2-6.95-8.23-10.5-12.28"/>
      <path class="cls-1" d="M303.8,1085.02c-11.57-.48-23.15-1.34-34.72-1.34-16.02,0-32.09,1.38-48.05-.13-17.48-1.66-31.86-9.95-42.96-23.57-9.62-11.82-18.79-24.02-28.64-35.64-2.9-3.42-5.05-9.69-11.91-6.87"/>
      <path class="cls-1" d="M769.74,1043.79c-13.23-11.75-37.7-49.04-36.8-69.89.23-5.31,2.69-10.56,4.32-15.77.82-2.62,1.79-5.12,2.31-7.88.91-4.89.84-9.84,2.94-14.74,1.47-3.43,1.2-8.12-1.38-12.38-2.68-4.42-3.5-9.92-5.52-14.79-9.48-22.82-25.61-39.56-47.65-50.42-9.65-4.75-19.58-8.56-30.97-7.87-14.29.86-26.19,7.16-37.48,14.77-9.79,6.6-19.39,13.61-27.44,22.48-1.52,1.68-4.17,2.32-6.3,3.45"/>
      <path class="cls-1" d="M721.45,1011.05c.13-7.81-5.33-12.95-9.24-18.73-3.99-5.91-6.77-11.97-8.75-19.01-4.24-15.07-8.39-30.72-20-42.22-14.48-14.34-31.75-19.04-51.8-13.29-16.44,4.72-31.32,12.44-45.5,21.72-3.54,2.32-6.68,5.23-9.99,7.9-.05.04.1.5.27.63.26.2.61.28.92.41"/>
      <path class="cls-1" d="M141.88,703.04c-1.39-5.31-.28-11.13,1.86-15.19,6.76-12.81,7.62-28.1,17.74-39.53,5.22-5.9,7.76-13.56,8.44-21.78.8-9.72,5.43-17.96,12.54-24.42,7.52-6.83,12.93-14.54,14.89-24.69.63-3.24,2.77-6.14,4.64-9.08,9.23-14.53,15.11-30.01,15.18-47.78.04-8.54,5.22-16.4,9.31-24.08,2.22-4.17,3.03-8.17,1.91-13.15-1.24-5.49-.47-11.67,4.31-15.61,4.62-3.8,6.02-8.96,7.31-14.07,1.31-5.21,2.01-10.19,6.89-13.79,2.24-1.65,3.24-5.07,3.73-8.25,1.6-10.37,6.2-19.78,9.6-29.59,3.71-10.7,2.99-25.45,1.83-33.62s-1.98-10.14-3.91-13.6c-1.93-3.46-17.16-19.91-22.49-21.06-24.3-5.21-52.33-2.48-62.9.73"/>
      <path class="cls-1" d="M600.56,969.31c-15.06-16.03-39.06-10.03-55.06,2.97-8,7-10,17-14,26-4,8-9,15-8,24-4,5-5,10-6,16,0,18-2,36-11.54,50.89"/>
      <path class="cls-1" d="M579.73,933.46c-3.97,6.06-38.78,21.46-44.93,22.88-15.96,3.68-32.36,4.44-48.56,6.46-17.85,2.22-33.01,9.15-45.28,22.36-8.61,9.27-17.28,18.49-26.06,27.6-2.89,3-6.28,5.37-10.89,3.69"/>
      <path class="cls-1" d="M280.74,1066.44c-.99-1.62-2.57-2.54-4.29-2.88-17.43-3.4-34.47-8.91-52.5-9.08-13.66-.13-23.39-7.38-30.85-18.42-5.05-7.48-10.53-14.32-18.99-18.89-7.75-4.19-15.02-9.86-21.27-16.1-7.75-7.73-17.33-10.96-27.02-14.66-3.53-1.35-6.18-.58-9.13.72"/>
      <path class="cls-1" d="M124.87,761.84c14.44-9.48,42.38-25.09,50.56-41.3,3.22-6.39,8.92-10.06,15.31-13.63,9.55-5.33,19.68-8.94,29.59-13.24,6.05-2.62,10-8.02,12.09-13.61,2.9-7.76,6.43-14.75,11.88-20.95,6-6.82,8.63-15.23,9.51-24.05.28-2.77,1.41-4.31,3.2-5.87"/>
      <path class="cls-1" d="M472.19,1010.52c-12.01,19.08-26.85,35.09-47.98,44.29-6,2.61-10.9,7.49-14.18,12.3-11.87,17.44-28.81,20.28-47.61,18.87-5.66-.42-11.39-1.56-16.81-3.28-6.98-2.21-14.04-2.57-21.14-2.1-9.6.63-19.39-1.08-26.29-6.74-9.14-7.51-18.11-6.12-27.98-4.74-12.87,1.8-25.8,3.45-38.83,1.82-24.7-3.07-43.41-16.22-58.49-35.23-11.05-13.93-23.09-26.76-38.11-36.52-2.64-1.72-5.12-3.87-8.56-1.95"/>
      <path class="cls-1" d="M144.75,966.43c-40.81-.78-55.25-53.7-60.95-68.41-5.7-14.7-8.09-37.62-1.53-56.81,2.41-7.05,5.77-14.03,4.37-21.89"/>
      <path class="cls-1" d="M376.42,1084.27c-9.65-8.81-20.39-13.41-34.01-11.32-6.06.93-13.01.39-18.72-2.34-11.79-5.63-25.41-7.37-35.53-16.5-9.72-8.78-20.51-16.37-26.6-28.76-5.74-11.68-13.75-21.35-27.58-24.61-10.28-2.42-17.47-10.07-24.75-17.06-16.24-15.6-33.27-29.94-54-39.45-7.26-3.33-14.26-7.46-18.62-14.84-2.35-3.97-4.77-7.7-3.46-12.57"/>
      <path class="cls-1" d="M273.54,402.15c1.27-.85,2.57-1.06,3.63-2.85,5.92-10.07,9.14-21.17,13.42-31.89,6.06-15.21,4.09-30.55,2.16-45.98-.58-4.61-1.13-9.32-2.53-13.71-2.87-9-13.64-15.13-25.47-15.31-3.8-.06-7.82-.17-11,1.57-7.96,4.35-16.37,4.27-24.88,3.66-4.2-.3-7.68.46-11.32,2.88-3.12,2.08-6.9,3.86-11.09,3.16"/>
      <path class="cls-1" d="M270.48,486.4c1.38,8.39,7.17,15.42,7.45,24.13.49,15.6-2.13,30.16-14.21,41.45-3.61,3.38-6.53,7.35-10.28,10.71-4.07,3.65-7.18,9.48-6.95,15,.38,9.09-3.27,16.62-6.79,24.3-2.24,4.89-2.77,9.91-2.31,15,3.37,12.47-2.67,21.26-9.1,33.18-3.49,6.47-86.82,88.75-95.34,94.36"/>
      <path class="cls-1" d="M661,1016.95c1.17,6.38-3.36,11.16-5.15,16.62-3.35,10.2-9,19.67-15.69,28.02-4.21,5.25-11.16,7.96-18.16,8.34-15.64.84-27.78-5.42-37.03-18.23-7.98-11.05-8.02-33.03,1.31-43.12,6.77-7.32,11.19-20.23,14.09-29.53"/>
      <path class="cls-1" d="M492.14,994.67c-19.02.86-32.75,11.23-45.21,24.45-12.52,13.28-27.68,21.33-46.22,23.91-7.89,1.1-16.23,2.29-23.85,6-8.21,3.99-17.33,3.36-25.76,1.07-6.11-1.67-12.03-2.25-18.23-2.61-6.3-.37-12.57-1.81-18.35-4.78-1.81-.93-3.52-2.94-5.99-1.49"/>
      <path class="cls-1" d="M292.74,424.62c5.98-1.55,7.6-7.24,10.93-11.37,14.96-18.6,25.52-39.81,34.5-61.59,8.22-19.94,14.17-40.89,16.71-62.45,3.29-27.99-15.94-55.64-40.39-59.47-11-1.72-21.9.07-32.57,3.68-12.36,4.18-24.02,9.4-33.64,18.43-3.08,2.89-6.65,5.49-7.58,10.03"/>
      <path class="cls-1" d="M740.06,938.34c-3.74-1.74-4.07-5.69-4.99-8.82-6.7-22.64-20.14-40.33-39.12-53.95-16.47-11.81-34.71-15.99-53.99-8.86-8.93,3.3-18.28,6.8-25.39,13.88"/>
      <path class="cls-1" d="M144.55,952.55c-9.25-2.48-14.86-9.67-19.83-16.82-14.08-20.26-18.2-42.42-11.85-66.65,2.7-10.3,1.84-21.05-.21-31.6-1.66-8.51-3.26-17.03-3.56-25.74-.06-1.76-1.2-3.58,1.37-4.41"/>
      <path class="cls-1" d="M487.6,1089.87c14.92-18.22,20-42.5,26.81-64.55,1.56-5.05,2.69-10.71,9.08-10.78"/>
      <path class="cls-1" d="M571.81,1089.21c-13.79-10.68-19.63-30.64-20.42-47.41-.88-18.76,5.14-35.17,21.18-45.77,4.37-2.89,9.26-4.86,13.37-8.14,4.73-3.77,8.77-7.07,14.54-9.23"/>
      <path class="cls-1" d="M148.32,1090.81c-3.82-4.53-4.82-10.53-9.19-15.81"/>
      <path class="cls-1" d="M594.74,1089.24c-14.52-4.46-24.59-17.18-29.25-31.2s-4.69-28.82,3.06-41.08c6.36-10.07,16.43-20.1,27.05-25.45"/>
      <path class="cls-1" d="M654.58,1069.99c-5.24,1.17-7.91,6.14-11.51,9.61-4.23,4.08-9.42,7.24-14.96,9.17"/>
      <path class="cls-1" d="M662.74,1044.18c-4.74.82-5.98,4.72-7.44,8.45-12.86,32.69-50.28,40.66-74.67,14.77-10.02-10.64-11.15-23.91-10.6-37.58.18-4.5.48-8.99.73-13.49"/>
      <path class="cls-1" d="M343.27,1092.51c-5.84-2.12-11.71-4.05-17.94-4.57s-12.65.11-18.72-1.73"/>
      <path class="cls-1" d="M449.46,1057.75c-11.21,11.13-22.09,22.95-35.7,31.21"/>
      <path class="cls-1" d="M138.28,424.42c10.33,11.76,4.2,25.43-6.99,30.6-15.65,7.22-32.44,9.05-49.56,7.84-5.92-.42-11.9-.53-17.51-2.95-6.53-2.82-11.48-8.77-11.7-17.05-.25-9.52,4.82-16.73,8.93-24.43.43-.81,2.13-.95,3.24-1.4"/>
      <path class="cls-1" d="M81.51,975.01c-5.08,2.36-9.08.36-14.08-.64-9-2-16,5-25,4-13-2-25-1-37-5-1,0-1-1-2.35-1.6"/>
      <path class="cls-1" d="M165.91,1090.9c-4.66-4.47-9.37-9.25-13.44-14.27-3.82-4.71-5.83-10.96-11.39-14.06"/>
      <path class="cls-1" d="M508.22,978.84c-3.08-3.78-6.42-.38-9.32.09-18.55,2.99-35.12,10.86-49.81,22.41-18.87,14.84-39.37,26.6-62.11,34.37-1.16.4-2.56.06-3.85.07"/>
      <path class="cls-1" d="M244.76,440.2c-3.02-8.64-.9-17.3,1.62-25.29,3.15-9.98,3.74-20.32,4.78-30.34.99-9.59,1.95-14.15-8.49-27.98-10.44-13.83-64.61-18.68-69.9-22.09"/>
      <path class="cls-1" d="M164.37,750.13c11.64-14.98,24.33-37.13,43.47-43.16,11.29-3.56,20.69-8.62,29.01-16.71,2.37-2.3,5.05-4.83,6.03-7.44,4.06-10.82,10.51-20.52,13.93-31.68,1.79-5.87,1.37-11.81,2.76-17.57"/>
      <path class="cls-1" d="M67.23,421.43c-2.96-6.84-3.04-17.19-12.15-18.6-5.07-.78-10.62.21-15.64.94-6.7.98-13.36,2.52-19.58,5.26s-11.93,6.55-16.35,11.54"/>
      <path class="cls-1" d="M177.12,562.28c4.48-13.52,20.14-72.66,21.22-79.92,2.35-15.84-.53-31.63.22-47.4.22-4.7-1.68-7.67-4.48-10.67"/>
      <path class="cls-1" d="M180.63,903.78c.4.35.79,1,1.21,1.02,39.65,2.15,64.05,25.38,81.15,58.68,1.1,2.14,1.54,4.76,5.07,4.2-.34-9.77-5.3-18.06-8.84-26.73-5.53-13.53-14.73-24.77-26.12-33.49-14.21-10.88-31.08-10.56-47.95-7.84-7.39,7.17-19.06,5.62-26.5,13.49-3.11,3.28-10.01,1.4-13.99,5.26"/>
      <path class="cls-1" d="M86.94,659.38c-4.18-5.98-10.22-10.37-13.91-16.85-5.15-9.04-10.13-18.28-12.01-28.46-2.02-10.9,9.85-25.9,21.11-29.69,10.27-3.46,20.92-3.51,31.42-4.57,3.64-.37,8.75.31,10.15,5.7"/>
      <path class="cls-1" d="M309.7,1063.23c-3.33-6.57-9.88-10.24-14.42-15.79-4.27-5.22-9.15-10.2-11.53-16.35-2.88-7.42-9.42-12.14-12.46-19.01-5.9-13.37-13.57-25.28-24.48-35.07-6.63-5.95-14.01-11.21-19.12-18.64-3.63-5.27-6.31-11.19-11.09-15.66-8.89-8.32-18.91-13.66-31.58-12.92-2.15.13-3.69,1.26-5.59,1.62"/>
      <path class="cls-1" d="M721.05,1013.19c-8.64-2.18-43.42-13.12-52.15-14.89-14.54-2.95-23.98-13.01-34.12-22.62-12.6-11.94-26.82-21.06-45.38-20.64-3.61.08-6.31.94-8.93,3.02"/>
      <path class="cls-1" d="M225.49,459.65c6.82-10.89,8.63-32.41,7.85-39.65s-.38-15.58-3.43-24.21c-1.89-5.34-2.6-10.96-3-16.65-.7-10.16-6.09-17.76-14.66-22.67-12.69-7.28-25.73-13.96-38.65-20.84-1.56-.83-3.15-1.43-4.3-2.92-2.76-3.61-5.66-3.51-8.52-.05"/>
      <path class="cls-1" d="M643.73,1033.66c.96,2.48,1.65,4.42.11,7.51-4.75,9.58-11.91,16.56-22.07,18.56-12.12,2.4-24.01-2.88-28.15-17.77-4.43-15.92,2.67-29.02,11.01-41.66.33-.49,1.29-.57,1.96-.84"/>
      <path class="cls-1" d="M282.54,1051.75c-7.33.81-11.88-4.99-17.75-7.63-4.34-1.95-8.04-5.37-12.41-7.21-10.08-4.25-17.31-11.53-24.34-19.64-11.26-12.98-23.16-25.43-36.38-36.5-6.77-5.67-14.66-9.45-22.9-12.38-5.93-2.11-10.88-5.66-16.1-8.97-7.98-5.07-9.77-12.9-10.85-21.27"/>
      <path class="cls-1" d="M701.78,974.03c-5.59-6.26-8.57-14.15-13.1-21.09-9.83-15.09-23.21-23.73-41.32-25.19-9.58-.77-17.54,4.06-25.93,6.96-12.06,4.17-24.17,7.46-36.88,8.5"/>
      <path class="cls-1" d="M132.17,403.63c6.48,11.92,6.03,24.23,1.56,36.54-1.97,5.44-5.62,10.24-11.76,10.91-11.57,1.26-22.63,5.31-34.55,5.11-7.17-.12-12.86-2.92-18.47-6.12-3.13-1.79-4.14-6.23-4.01-9.8.2-5.76,1.39-11.49,2.17-17.24"/>
      <path class="cls-1" d="M266.71,1006.97c-18.85-13.2-38.87-24.73-53.54-43.38-9.2-11.69-19.14-23.05-32.77-30.45-2.88-1.56-5.68-2.3-8.58-3.29-9.79-3.37-21.32-2.36-28.83-11.55-.61-.75-2.25-.65-3.4-.98-12.18-3.45-18.38-13-16.66-25.82.72-5.42,1.43-10.5.02-16.25-1.39-5.67,4.34-10.42,6.35-15.82,2.54-6.83,7.8-12.33,8.31-20.32.38-5.93-1.6-9.23-5.99-12.51-4.11-3.08-8.3-5.96-11.06-10.92-2.69-4.84-3.71-9.57-3.76-14.8"/>
      <path class="cls-1" d="M106.74,775.67c4.61-7.26,6.74-12.34,8.89-17.38,2.7-6.35,4.12-13.42,5.4-20.4.89-4.84,2.14-9.86,5.5-14.24,2.85-3.73,3.8-8.72,3.95-13.75.29-10.13,3.19-19.65,7.63-28.76,2.96-6.08,4.53-12.42,4.04-19.38-.15-2.14.66-4.85,2.13-7.29,7.7-12.72,14.65-25.73,17.17-40.8.82-4.92,4.76-9.33,6.94-13.34"/>
      <path class="cls-1" d="M77.77,659c-11.52-1.8-22.32-10.5-25.89-15.7-12.61-18.34-17.22-37.54-6.33-58.85,5.77-11.28,15.54-15.35,26.43-17.34,14.51-2.65,27,4.78,39.78,10.1.47.19.57,1.27.84,1.94"/>
      <path class="cls-1" d="M145.2,586.87c-14.46,10.69-19.64,13.82-34.35,39.29-6.1,10.66,8.9,29.25,13.92,38.83,4.01,7.65,7.01,15.81,1.43,24.23"/>
      <path class="cls-1" d="M100.42,660.11c-1.11,1.72-2.65,2.19-4.67,1.92-5.42-.73-11.05-.65-16.24-2.13-5.91-1.69-10.33-5.16-13.67-11.32-4.37-8.05-10.05-15.37-13.3-24.14-5.11-13.78.1-35.69,11.37-44.87,5.29-4.31,12.1-5.91,18.43-8,1.95-.64,3.35-1.99,5.23-2.45"/>
      <path class="cls-1" d="M280.3,390.1c-3.87-3.26-1.33-7.8-1.01-11.04,1.2-12.3-.92-24.49-.15-36.78.31-4.96-1.24-11.04-2.98-16.26-2.21-6.63-9.59-8.08-15.83-9.77-6.31-1.7-11.52-1.8-19.27-1.86"/>
      <path class="cls-1" d="M6.08,974.58c-.73,1.09-1.77,1.95-2.99,2.43"/>
      <path class="cls-1" d="M169.02,599.7c8.15-9.32,12.18-20.53,14.8-32.38.45-2.01,1.1-4.03,1.5-5.98,5.31-25.82,23.13-70.4,21.39-79.32-1.06-5.44,9.02-15.85,8.63-21.27"/>
      <path class="cls-1" d="M281.84,489.55c.37,5.8,4.39,10.1,6.4,15.25,2.05,5.28,2.73,10.52,1.36,15.65-2.81,10.5-6.6,20.59-11.2,30.58-4.57,9.92-10.65,18.33-17.74,26.1-10.61,11.63-12.22,24.73-8.06,39.1,1.94,6.72,2.98,14.21,10.83,17.33,1.53.61,1.36,1.82,1.46,3.31.42,6.73,1.52,13.43,1.8,20.16.66,15.72-9.02,25.98-19.88,35.1-8.71,7.31-52.47,36.11-70.08,43.26"/>
      <path class="cls-1" d="M60.14,972.05c-11.83-3.78-57.1-81.3-33.73-104.45,17.26-17.09,44.32-43.04,53.3-53.96,1.85-2.25,3.97-4.22,3.14-7.52"/>
      <path class="cls-1" d="M266.79,636.08c2.13.42,3.57,1.9,4.51,3.61,7.44,13.47,3.18,33.93-7.88,45.27-11.48,11.77-17.29,20.67-34.14,29.67-23.52,13.85-54.36,27.16-56.23,27.66"/>
      <path class="cls-1" d="M15.96,363.87c-4.51,2.07-9.34-4.23-13.24-5.55"/>
      <path class="cls-1" d="M220.24,395.06c-4.52-2.11-7.3-6-10.22-9.81-2.9-3.79-5.98-7.45-9.12-11.05-5.49-6.31-12.1-10.26-20.86-9.4-.75.07-1.62.36-2.25.11-20.9-8.39-39.29,2.45-57.9,8.54-6.91,2.26-14.16,5.84-20.56,10.61-8.76,6.54-19.41,8.31-30.37,7.18"/>
      <path class="cls-1" d="M229.89,485.8c5.73-12.43,14.12-23.17,21.6-34.5,5.43-8.22,9.56-17.27,11.64-27.07.39-1.82.72-3.85,1.75-5.31,9.37-13.35,9.27-28.58,7.61-43.58-1.29-11.68.3-23.83-5.26-35.04-3.28-6.62-5.72-10.5-14.04-15.43-6.21-4.28-15.77-8.13-20.54-10.34"/>
      <path class="cls-1" d="M491.1,999.75c10.08-10.22,19.76-20.86,31.64-29.12,1-.7,2.29-1.59,3.11-1.85,17.29-5.41,31.83-17.01,49.37-21.77"/>
      <path class="cls-1" d="M132.65,393.34c.27,4.75.35,8.78-3.87,12.91-2.78,2.72-2.98,8.71-3.22,13.29-.68,12.86-8.52,19.12-19.65,22.62-6.34,1.99-13.13,3.65-19.38,1.45-4.78-1.67-8.93-5.45-10.89-10.87-1.44-4-2.99-8.12-7.2-10.27"/>
      <path class="cls-1" d="M721.03,1007.8c.29-5.81-20.13-16.7-23.18-20.54-5.9-7.42-11.16-15.45-17.73-22.21-11.44-11.77-26.47-16.93-42.18-20.1-2.71-.55-5.7.31-8.26-1.41"/>
      <path class="cls-1" d="M141.64,319.87c-5.86,3.41-17.45,6.42-25.75,11.33-8.3,4.91-31.6,19.64-40.14,25.26-3.53,2.33-7.36,4.1-10.14,7.43"/>
      <path class="cls-1" d="M95.18,652.93c.52-3.31-1.79-5.63-3.35-7.92-4.55-6.72-7.96-15.56-7.74-20.94.5-12.07,8.15-24,16.86-27.68,7.52-3.17,15.57-4.86,22.51-9.7,2.27-1.59,6.66-1.03,9.82-.3,10.42,2.43,16.71-3.19,22.1-10.67,2.6-3.61,4.9-7.46,7.03-11.37,5.04-9.27,4.45-18.29-.17-27.84-3.31-6.84-6.83-13.58-8.58-21.41-2.06-9.22,1.46-15.99,4.69-23.67,4.72-11.24,13.36-20.83,13.66-34.04.12-5.48,3.16-10.08,8.17-13.68,9.29-6.66,13.09-16.87,15.09-27.71.38-2.07-.5-4.36,1.54-6"/>
      <path class="cls-1" d="M185.98,377.71c1.5,3.71,2.67,5.22,5.06,9.82.88,1.68,2.26,5.56,3.47,9.41,2.95,9.38,7.33,17.9,8.33,27.71,1.32,12.9,4.46,25.62,3.96,38.7-.19,5.07-1.41,10.14,3.31,14.27,1.37,1.2,1.91,4.08,1.79,6.12-.88,14.82.93,29.98-7.71,43.65-7.14,11.29-8.77,24.55-10.36,37.5-1.32,10.76-6.84,18.59-14.74,25.24-.47.39-1.47.14-2.23.19"/>
      <path class="cls-1" d="M138.15,315.08c-5.33,4.66-23.74,8.56-35.24,12.14s-25.9,18.15-35.35,24.24"/>
      <path class="cls-1" d="M225.87,454.84c-4.41-7.15-4.38-15.07-2.93-22.79,3.05-16.25-4.07-28.75-14.19-40.02-3.25-3.62-5.48-9.83-12.46-8.2"/>
      <path class="cls-1" d="M123.99,396.86c1.79,7.42-2.94,13.51-4.35,20.28-1.95,9.37-7.16,15.96-17.9,16.77-9.86.75-15.97-4.06-21.11-11.68-3.2-4.74-6.39-10.26-13.7-9.21"/>
      <path class="cls-1" d="M215.08,460.77c2.29-5.17,2.5-10.54.52-15.73-2.94-7.69-3-15.54-1.55-23.36,1.29-6.95.39-12.49-5.42-17.34-4.51-3.77-6.3-9.86-9.58-14.74-3.62-5.38-8.46-9.1-12.95-13.19-9.62-8.77-28.01-5.51-37.87-.13-4.54,2.48-9.26,5.26-11.21,10.64-2.61,7.2-10.24,8.09-15.48,9.44-5.27,1.36-8.69,4.1-11.83,7.24-10.62,10.64-24.35,11.65-35.76,1.91"/>
      <path class="cls-1" d="M176.84,562.71c-5.25,11.99-20.11,31.12-28.56,41.01-8.62,10.08-13.06,21.57-11.63,36.12,1.4,14.21-2.23,28.78-1.63,43.36.14,3.4-1.22,9.29-7.2,10.03"/>
      <path class="cls-1" d="M701.55,981.11c-7.8-7.77-13.59-17.31-22.23-24.39-13.03-10.67-26.93-19.83-44.5-15.66-8.86,2.1-17.65,3.84-26.61,5.08-1.03.14-1.87,1.69-2.8,2.58"/>
      <path class="cls-1" d="M161.25,332.7c-20.81,3.67-38.81,13.67-57.81,22.67-15,7-30,10-46,13-7,7-16,10-26,12-9,1-19-2-28.31-3.18"/>
      <path class="cls-1" d="M276.31,560.07c1.61-1.07,3.87-.84,5.08-2.81,7.47-12.22,16.57-23.61,19.41-38.16,3.09-15.84-1.09-26.03-18.19-30.22-6.8-1.67-14.85-1.94-20.43-7.64"/>
      <path class="cls-1" d="M139.67,1090.72c-2.17-6.44-2.17-13.44-.17-19.44,3-17-4-33-5.17-50.2"/>
      <path class="cls-1" d="M522.2,1026.7c3.3,4.59-.7,10.59.3,15.59,1,12,5,24,7,36,0,3-1,7-1.87,10.15"/>
      <path class="cls-1" d="M91.56,746.21c-6.23-.06-16.86,1.73-22.68.15-9.63-2.62-17.49-8.95-22.04-17.98-3.84-7.63,3.12-15.52,13.47-18.03,12.76-3.09,23.65.93,33.9,7.46,5.31,3.38,10.55,5.06,16.8,4.82,6.85-.27,10.31-2.31,11.91-8.83,1.36-5.55,2.18-11.22,3.34-16.82.28-1.35,1.14-2.51.31-4.03-5.59-10.2-6.61-23.74-17.88-29.66-5.47-2.88-9.61-7.37-15.4-9.81-6.2-2.61-9.84-9.73-13.06-14.69-11.56-18.18-11.84-37.49,8.54-47.54,8.52-3.84,18.28-4.2,27.72-4.38"/>
      <path class="cls-1" d="M137.26,379.84c-9.76-.43-15.7,7.24-23.39,11.16-2.63,1.34-4.92,3.6-6.92,5.85-6.43,7.25-14.26,8.38-23.54,7.41-6.41-.66-13.85-1.99-19.04,4.36"/>
      <path class="cls-1" d="M641.07,1036.67c-7.64,9.51-17.47,14.2-29.7,12.76-7.1-.84-13.16-8.97-11.86-16.01,1.05-5.69,2.17-11.12,6.24-16.25,3.21-4.05,5.75-10.55,2.09-16.69-.59-.99-.75-2.38-.7-3.57.3-6.68.88-13.06-5.5-18.16-1.89-1.51-2.69-6.96,1.22-9.54,4.73-3.12,7.55.59,9.93,3.69,3.83,5,7.27,10.03,9.38,16.36,3.51,10.54,10.91,18.15,22.2,21.36,1.96.56,5.01-.13,5.93,2.89"/>
      <path class="cls-1" d="M484.25,935.03c-7.22,1.42-11.35-4.69-16.74-7.36-13.03-6.46-23.07-3.79-30.26,8.43-3.72,6.32-6.15,13.91-13.69,17.57-1.24.6-2.02,3.29-2.61,5.39-2.65,9.32-5.78,18.51-8.82,27.72-1.82,5.52-2.51,11.51-7.54,15.67-1.45,1.2-2.55,4.36-2.04,6.09,2.1,7.11-2.79,10.04-7.01,13.75-4.61,4.05-10.55,6.69-13.59,12.44-.77,1.45-2.14,1.05-3.29,1.49-8.58,3.23-17.26,6.18-26.22,7.9-2.7.52-3.89,2.07-5.68,3.33"/>
      <path class="cls-1" d="M411.02,1005.07c2.1-8,8.36-13.61,11.9-20.89,4.48-9.21,10.88-17.47,16.29-26.25,7.37-11.95,19.02-19.96,35.73-15.26,4.61,1.3,9.27,2.46,13.9,3.68"/>
      <path class="cls-1" d="M136.27,869.01c-2.4-3.96.38-6.71,2.39-9.46,5.03-6.88,8.97-14.2,10.13-22.77,1.28-9.45-3.24-18-11.66-23.27-2.29-1.44-5.29-2.74-5.7-6.15"/>
      <path class="cls-1" d="M3.07,325.5c5.07-3.1,10.82-4.04,15.51.64s3.34,12.89-.71,17.56"/>
      <path class="cls-1" d="M62.12,745.48c-1.04,1.27-2.37,1.95-3.99,1.61-16.65-3.51-29.9-10.75-30.55-29.48-.1-2.99,1.02-5.64,2.81-8.19,7.76-11.09,30.65-13.59,41.25-3.46.24.23-.05,1.03-.09,1.56"/>
      <path class="cls-1" d="M122.66,869.88c-2.61-6.99.47-13.92,1.43-20.5,1.47-10.06-1.38-17.94-6.95-25.34-4.18-5.55-4.25-12.28-6.28-18.41-.77-2.34,2.52-4.47,5.32-5.28"/>
      <path class="cls-1" d="M422.52,953.08c-3.94-11.58-1.42-22.8,1.67-34.06,3.34-12.15,20.57-19.24,34.7-8.74,4.9,3.64,11.07,5.65,15.53,10.12,7.14,7.16,11.27,16.85,19.43,23.19.61.48,1.29,1.76.46,2.87"/>
      <path class="cls-1" d="M132.66,311.1c-3.12.07-39.31,8.96-45.18,12.67-5.07,3.21-9.44,5.99-12,8.97"/>
      <path class="cls-1" d="M94.84,747.72c-10.97-3.55-20.49-10-30.28-15.78-3.68-2.17-1.66-8.85,2.66-10.25,6.62-2.14,13.32-2.04,20.02-.36,3.21.81,6.13.64,8.54-1.93"/>
      <path class="cls-1" d="M142.94,866.31c-.12-7.42,6.02-11.2,9.75-16.27,8.34-11.34,8.49-23.19-1.3-35.21-1.78-2.19-3.69-4.02-4.19-6.88"/>
      <path class="cls-1" d="M456.7,1064.13c-7.77,8.41-14.8,17.52-23.21,25.34"/>
      <path class="cls-1" d="M518.08,1088.93c2.42-7.65,4.42-15.65,6.57-23.66"/>
      <path class="cls-1" d="M650.32,1017.4c-4.08,4.3-9.45,6.76-13.29,11.91-4.65,6.24-16.54,2-22.7-5.22-4.22-5.5-1.5-12.77-4.51-16.65"/>
      <path class="cls-1" d="M107.62,379.45c-.64,7.6-8.07,14.27-17.68,15.69-7.59,1.12-15.21,2.04-22.81,3.07-3.01.41-6.25.43-7.73,3.9"/>
      <path class="cls-1" d="M466.78,1050.73c6.71-7.15,12.37-15.17,16.53-23.93,3.61-7.61,7.77-14.82,12.33-21.8,2.23-3.41,2.07-6.35.65-9.69"/>
      <path class="cls-1" d="M105.63,659.55c.22-1.38,1.1-3.15.55-4.08-6.53-11.02-14.29-21.49-9.45-32.22,10.67-21.59,32.37-29.37,38.08-31.43,1.86-.67,2.44-2.5,2.93-4.25"/>
      <path class="cls-1" d="M458.09,910.72c-5.44,2.41-11.59.83-17.16,3.65-5.96,3.02-10.21,6.67-11.67,13.43-1.15,5.33-2.94,10.52-4.37,15.8-.42,1.53-1.36,2.33-2.81,2.68"/>
      <path class="cls-1" d="M164.92,495.86c-2.61,9.29-1.05,18.12,2.31,26.99,2.79,7.37,3.79,15.04-.07,22.53"/>
      <path class="cls-1" d="M702.79,1000.09c-26.95-5.26-68.16-30-80.3-43.54-1.24-1.39-2.98-2.09-4.86-2.83-10.43-4.16-21.24-4.91-32.26-4.66-2.13.05-4.27-.3-6.41-.47"/>
      <path class="cls-1" d="M120.26,399.14c-3.26,5.98-6.46,12-9.81,17.93-2.97,5.24-7.88,6.71-13.28,5.31-6.23-1.62-11.35-5.25-14.63-11.03"/>
      <path class="cls-1" d="M159.9,535.13c-7.27-3.37-11.73-10.3-18.71-14.37-6.82-3.98-7.99-19.86-3.09-26.26.66-.86,1.31-2.25,2.63-2.82,6.81-2.97,13.6-6.01,20.39-9.02"/>
      <path class="cls-1" d="M638.21,1023.87c-12.69-.44-18.11-7.95-20.65-19.6-1.13-5.17-2.5-11.07-7.28-14.84"/>
      <path class="cls-1" d="M165.71,493.98c2.83-4.51,5.63-9.03,8.49-13.52,3.16-4.97,5.2-9.9,3.68-16.21-1.48-6.14,1.96-12.25,1.62-18.53"/>
      <path class="cls-1" d="M29.65,378.49c-5.21-3.11-10.21-6.11-12.21-11.11-2-6-1-13,0-20,0-7-6-16-13.78-11.8"/>
      <path class="cls-1" d="M4.06,345.96c2.47.91,4.39,2.83,5.73,5.05s1.72,5.49,4.41,6.59"/>
      <path class="cls-1" d="M241.19,314.3c-7.96-1.79-19.98-1.67-27.92,2.47-5.82,3.03-34.04,16.86-40.88,16.8.04-.53,22.52-18.33,22.56-18.86"/>
      <path class="cls-1" d="M159.48,807.62c8.83-6.26,24.09,1.2,29.23,7.61,2.8,3.5,3.65,8.33,1.79,13.23-2.11,5.54-5.48,10.99-9.12,14.66-4.59,4.62-10.41,9.79-18.07,10.27"/>
      <path class="cls-1" d="M719.18,1008.56c-5.57-3.32-28.44-18.84-33.21-23.37-3.41-3.24-4.76-7.5-7.28-11.13-8.91-12.82-21.27-19.13-36.38-18.2-6.75.41-13.04-3.2-19.65-.93"/>
      <path class="cls-1" d="M18.26,371.46c-4.03,2.45-10.34-.66-14.42-1.31"/>
      <path class="cls-1" d="M625.73,997.9c-1.84,7.07,3.82,14.26,12.54,16.72,4.54,1.28,8.93,1.25,13.21-.12,3.3-1.05,6.49-.91,9.84-.73.16,3.34-2.39,4.79-4.75,5.63-2.69.95-4.76,3.08-5.61,4.92-4.67,10.15-16.51,12.14-23.93,15.15-9.2,3.73-21.9-3.39-24.75-10.47"/>
      <path class="cls-1" d="M680.98,980.14c-14.89-3.91-24.89-15.39-36.83-23.85"/>
      <path class="cls-1" d="M57.7,382.62c4.73-4.81,9.97-8.97,16.39-11.24,5.66-2,9.63-5.76,12.75-10.66"/>
      <path class="cls-1" d="M159.73,331.93c-3.09.39-5.76-.7-8.59-1.88-8.23-3.4-57.25,20.06-65.11,28.66"/>
      <path class="cls-1" d="M40.99,739.3c-.91-3.51-3.18-6.23-4.67-9.54-5.06-11.24-.51-18.48,14.55-25.32,2.04-.92,6.11-3.56,9.27-3.76"/>
      <path class="cls-1" d="M663.77,1010.4c-1.52-2.37-3.16-4.28-6.43-4.43-13.86-.62-22.87-9.2-31.15-19.08-1.22-1.46-1.72-4.92-5.14-3.38"/>
      <path class="cls-1" d="M59.75,364.72c-1.23-2.51-.12-4.97,1.26-6.61,7.27-8.67,10.4-18.96,13.91-29.52,3.63-10.92,10.57-21,20.41-27.51,3.49-2.31,8.68-4.6,13.9-3.79,5.14.8,10.05-.35,14.88,4.6,3.4,3.49,8.78,6.03,11.89,10.22,4.81,6.49,11.46,9.96,18.56,12.41,3.46,1.19,6,2.8,8.23,5.39"/>
      <path class="cls-1" d="M123,302.61c-11.95-.04-22.53,6.68-34.41,6.97"/>
      <path class="cls-1" d="M212.86,497.36c6.61-5.02,9.18-11.86,8.98-19.94-.14-5.68,2.85-10.67,3.53-16.17"/>
      <path class="cls-1" d="M39.51,819.81c6.1-.63,11.6-3.49,17.31-4.99,9.2-2.42,16.5-9.55,26.41-9.73,1.79-.03,3.92-.93,5.27-2.13,8.22-7.31,15.03-16.72,18.13-26.43,2.77-8.68,2.17-20.59-8.11-27.12-5.42-3.44-5-10.15-9.3-14.26-2.13-2.03,2-6.94,6.59-7.97,2.62-.59,6,.77,7.32-2.99"/>
      <path class="cls-1" d="M146.36,522.78c-1.18-4.18-3.04-8.3-3.38-12.54-.59-7.45,4.33-18.43,9.35-23.92"/>
      <path class="cls-1" d="M769.74,1043.79c-9.65-6.08-23.28-11.76-29.64-15.14-7.02-3.74-12.98-12.12-20.37-16.12"/>
      <path class="cls-1" d="M204.45,830.5c.48-2,.98-4.01,1.44-6.02,2.3-10.01.84-13.45-8.27-18.3-1.66-.88-2.39-1.99-2.91-3.54"/>
      <path class="cls-1" d="M125.38,880.41c3.4-.04,5.2-2.78,6.36-5.05,2.39-4.64,6.48-6.39,10.8-8.11,9.99-3.99,17.94-10.03,22.01-20.5,1.83-4.73,4.43-9.17,6.82-13.67,2.99-5.64,2.57-11.33-1.83-15.48-5.94-5.61-11.56-11.11-21.71-10.39-9.78.7-20.58,1.24-29.5-5.39"/>
      <path class="cls-1" d="M769.74,1043.79c-11.74-6.87-65.06-28.69-74.44-32.23-10.4-3.92-20.85.56-31.27-.35-.29-.03-.72,2.07-2.11,2.27"/>
      <path class="cls-1" d="M641.7,1089.76c10.8-9.47,16.8-23.47,20.8-36.47,2-5,2-11,2-17,1-8,4-16,10-22,0-1,0-2-.18-2.74"/>
      <path class="cls-1" d="M279.5,1057.64c-10.27-5.07-21.55-6.6-32.49-9.32"/>
      <path class="cls-1" d="M225.59,285.82c-12.05,7.76-21.29,18.54-30.97,28.85"/>
      <path class="cls-1" d="M183.54,842.08c7.82.47,12.59-5.9,18.99-8.63.97-.41,1.04-1.95,3.11-2.05,8.07-.4,12.44-5.43,14.97-12.83,2.65-7.74,1.44-12-5.66-15.55-1.4-.7-3.14-.68-3.98-2.32"/>
      <path class="cls-1" d="M119.1,721.01c-3.63,5.43-6.93,24.97-7.59,30.93-.4,3.57-1.42,5.43-4.6,6.4"/>
      <path class="cls-1" d="M271.44,991.86c.67-8.34-2.42-15.95-4.59-23.74"/>
      <path class="cls-1" d="M176.42,805.4c7.82-4.64,16.98-2.18,25.24-4.7,3.69-1.13,7.71.65,11.6-2.2,3.08-2.25,17.22,3.11,19.61,6.51,3.36,4.79,1.86,9.61-1.81,12.9-3.12,2.79-6.22,6.62-11.29,6.38"/>
      <path class="cls-1" d="M103.93,753.35c-5.6-10.79-1.71-19.5,6.1-27.21.92-.9-.06-1.14.06-1.67"/>
      <path class="cls-1" d="M207.14,364.68c-8.71-1.49-17.18-3.6-24.08-9.63"/>
      <path class="cls-1" d="M475.45,1022.38c3.56-7.14,8.82-13.01,14.06-18.89"/>
      <path class="cls-1" d="M259.2,473.91c-4.14-.63-6.26,3.69-9.99,4.05"/>
      <path class="cls-1" d="M286.22,1066.55c-.99-2.54-1-5.6-4.29-6.83-3-1.12-.54-2.96-.31-4.49"/>
    </g>
  </g>
</svg>