<?xml version="1.0" encoding="UTF-8"?>
<svg id="Layer_2" data-name="Layer 2" xmlns="http://www.w3.org/2000/svg" viewBox="0 0 877.11 987.99">
  <defs>
    <style>
      .cls-1 {
        fill: none;
        stroke: #e57221;
        stroke-linecap: round;
        stroke-linejoin: round;
        stroke-width: 3px;
      }
    </style>
  </defs>
  <g id="homepage">
    <g>
      <path class="cls-1" d="M213.2,627.23c-3.96,6.35-9.96,10.35-14.96,15.35-7,10-15,17-23,27-1,2-3,5-4,7-3,8,1,17,5,24,4,11,6,22,12,32,5,7,11,13,18,18,12,7,24,13,34,22,6,7,11,15,20,18,3,1,4,5,6,7,5,9,8,17,14,25,9,10,19,19,31,23,6,3,12,5,18,8,8,5,15,12,23,18,13,9,30,13,38,28,3,8,0,16,3,24,4,7,7,15,7,23,1,13-4,26,.98,39.23"/>
      <path class="cls-1" d="M281.54,828.88c-.3.7-.3,1.7.7,2.7,12,10,22,21,36,28,9,11,19,20,32,26,15,6,30,17,33,34,2,15,1,30,7,44-1,8-8,14-8.45,22.73"/>
      <path class="cls-1" d="M175.77,703.69c-8.03,9.93-.96,23.13,5.94,31.57,7.67,9.38,18.43,15.51,27.18,23.78,8.43,7.97,13.44,19.32,23.97,24.79,8.42,4.38,19.14,6.06,24.01,15.17,1.28,2.39,1.64,5.13,3.11,7.41,1.68,2.61,3.88,4.91,5.62,7.5,3.46,5.17,6.3,10.72,9.21,16.21,5.55,10.5,11.73,21.11,21.43,28.33,4.71,3.5,10.01,5.76,14.39,9.77,4.17,3.83,7.67,8.31,11.48,12.48,8.11,8.89,13.02,18.67,18.21,29.43,5.26,10.91,12.44,20.22,15.76,32.05,1.63,5.83,2.76,11.79,4.13,17.68s4.02,11.58,2.99,17.48c-.53,3.06-2.21,5.72-3.25,8.62"/>
      <path class="cls-1" d="M600.79,106.63c1.56,4.69,5.08,6.78,9.68,7.99,19.21,5.04,38.67,8.22,58.48,9.27,24.54,1.3,48.66,5.85,72.05,13.13,31.74,9.88,52.09,32.04,62.54,63.34,4.42,13.23,7.81,26.69,9.81,40.55,1.52,10.55,8.89,19.05,12.08,29.11"/>
      <path class="cls-1" d="M620.19,574.25c-4.59,6.25-12.02,5.66-18.38,6.66-9.58,1.51-19.49,1.21-29-.95-10.54-2.39-20.85-.28-31.07.7-3.92.37-7.63,4.7-12.63,6.02-8.41,2.22-15.92-.14-23.45-2.25-11.7-3.28-23.81-2.97-35.63-5.48-7.94-1.68-16.04-2.33-22.99-6.82-11.05-7.14-23.07-8.17-35.6-6.96-6.76.65-13.35-.26-19.8-2.39-10.07-3.33-19.11.84-28.34,3.61-2.2.66-4.16,2.03-6.66,1.82-12.1-1.03-23.95,1.86-36.31,1.19-11.28-.61-22.7-3.24-34.22-1.96-6.93.77-13.48,2.65-19.9,4.79-2.56.85-4.58,1.73-7.31,1.14-1.33-.29-3.08.19-4.31.88-9.6,5.41-18.59,6.38-29.69,3.39-4.92-1.32-10.07-.5-15.18-1.82-4.27-1.1-8.61-1.26-12.07-4.48-.72-.67-1.84-1.53-2.62-1.41-19.61,3.23-38.28-5.42-57.76-4.91-19.98.53-40,1.29-59.25,6.24-15.25,3.92-30.37,9.94-40.9,22.5-14.22,16.96-17.1,39.1-2.59,59.05,8.18,11.25,19.1,19.8,28.71,29.64,5.11,5.23,11.07,7.96,17.64,10.3,1.21.43,2.62.89,3.78,1.11,3.21.6,6.8-.02,7.94-3.32,1.04-3.02-.06-6.43-2.84-8.61-14.48-11.38-20.31-27.82-26.37-44.14-2.61-7.01,4.3-22.18,13.58-29.15,12.61-9.47,27.6-13.29,41.84-18.7,12.18-4.63,25.14-7.03,38.44-7.47,9.43-.31,18.13,2.77,27.14,4.4,12.69,2.3,24.96.76,37.25-2.31,2.81-.7,4.09-2.09,4.95-4.45"/>
      <path class="cls-1" d="M785.45,347.1c2.21,17.59,1.82,34.55-7.25,50.68-3.16,5.63-4.54,13.12-4.26,19.67.61,14.14-2.09,27.55-5.01,41.14-2.8,13-.77,26.24.75,39.3.99,8.5.8,20.01,1.75,28.51,2.99,26.85-29.29,52.93-75.32,64.34-15.64,3.69-31.36,3.54-47.1.99-4-.65-7.68-2.73-12.05-2.14-3.4.46-5.45,1.89-6.5,5.01"/>
      <path class="cls-1" d="M531.28,579.42c-13.78-7.66-144.29-33.42-144.3-27.93-8.38-1.49-15.55,1.61-23.22,4.27-11.45,3.98-23.44,3.89-35.2-.52-18.39-6.89-36.42-5.11-53.67,3.12-5.48,2.61-9.33,8.17-15.13,10.72"/>
      <path class="cls-1" d="M200.97,575.35c-1.99,2.4-4.18,3.07-7.64,3.09-13.36.08-26.33-3.29-39.56-3.96-25.82-1.31-51.49.94-74.95,11.42-16.32,7.29-28.52,20.31-32.21,39.52-2.32,12.07,4.65,20.77,10.09,29.56,6.85,11.07,15.91,20.71,25.88,29.33,2.77,2.4,5.57,4.41,9.11,5.31"/>
      <path class="cls-1" d="M405.65,2.27c-3.35,23.47,2.38,52.1,18.5,70.07,7.16,7.99,16.17,13.27,26.08,17.14,6.11,2.39,12.11,5.11,18.41,7.02,6.49,1.97,12.88,2.16,19.58,2.7,8.08.65,15.71,1.1,23.78.23,4.96-.53,12.4,5.46,17.01,1.49"/>
      <path class="cls-1" d="M449.42,46.9c10.26,16.13,39.26,27.3,55.05,36.06,9.25,5.13,19.07,8.88,25.7,17.84,1.93,2.6,5.7,3.3,8.87,4.48,12.86,4.79,20.35,16.21,30.24,24.7,7.97,6.84,11.82,15.53,13.56,25.48.09.53.23,1.22.6,1.51,8.3,6.49,11.09,17.03,18.5,24.43,8.85,8.83,19.8,11.66,30.96,14.07,12.24,2.64,24.21,6.21,36.09,9.98,4.73,1.5,8.64,5.67,12.92,8.62"/>
      <path class="cls-1" d="M399.88,494.11c-1.17-12.53,7.82-23,20.19-22.95,17.1.06,33.34,4.32,48.22,12.8,16.57,9.44,31.51,21.35,45.51,34.19,8.49,7.79,16.49,16.05,25.25,23.65,7.24,6.29,13.19,8.24,22.8,16.59,9.6,8.35,16.97,16.71,17.39,21.04"/>
      <path class="cls-1" d="M439.53,2.18c-1.29,19.4,3.71,39.4,16.71,54.4,4,4,8,8,11,13,10,12,25,15,38,22,3,2,6,3,7.61,7.34"/>
      <path class="cls-1" d="M793.46,273.25c4.28-2.24,4.85,1.85,6.36,3.94,8.38,11.56,16.26,23.51,25.06,34.75,11.44,14.59,18.92,31.17,24.12,48.49,5,16.66-.53,32.36-9.01,46.84-2.48,4.23-4.43,8.77-8.15,12.29-10.12,9.57-17.31,21.35-23.82,33.49-4.46,8.31-10.33,15.68-15.09,23.61-3.18,5.3-7.17,11.68-6.41,19.08.68,6.53.25,13.08,1.87,19.64,3.2,12.96-.46,24.84-5.76,35.12-10.04,19.5-47.95,53.6-64.52,54.92-16.52,1.31-26.55-4.91-36.86-10.58"/>
      <path class="cls-1" d="M800.03,551.72c-1.5,8.63,1.97,12.49.3,25.9-1.67,23.46-35.81,65.04-66.1,64.69-30.29-.35-31.88-7.11-44.86-16.06-9.64-6.64-20.57-10.79-31.59-14.77-3.54-1.28-6.27-1.17-9.45-.43"/>
      <path class="cls-1" d="M772.07,360.53c4.89,10,2.2,20.16.13,29.99-1.52,7.24-4.82,14.03-8.51,20.68-5.64,10.18-8.74,21.32-8.06,33.33.33,5.85.79,11.67.03,17.64-1.52,11.87-7.63,22.25-9.64,33.96-1.83,10.64-6.26,20.62-11.6,29.88-5.72,9.92-14.27,17.31-25.32,21.17-9.08,3.17-16.77,8.37-23.66,14.89-7.55,7.14-17.07,10.42-26.95,11.67-18.5,2.33-35.77,10.34-54.4,11.43-.84.05-2.1-.67-8.71.89"/>
      <path class="cls-1" d="M635.92,138.01c-2.68,1.48-1.41,3.42.23,4.04,10.79,4.09,17.78,13.43,27.16,19.51,6.52,4.23,14.05,4.55,20.78,7.7,3.95,1.86,7.95,3.33,11.66,5.87,8.85,6.04,18.1,11.5,27.14,17.27,8.44,5.39,14.93,12.27,16.02,22.73.45,4.31,2.34,7.69,4.63,11.28,10.49,16.45,18.76,33.51,13.5,53.87-2.27,8.8-8.16,16.27-8.76,25.68-.65,10.04-5.67,18.36-11.28,26.24-2.08,2.92-5.69,4.74-7.77,7.66-13.67,19.19-27.79,38.02-34.8,61.21-3.59,11.88-5.82,23.71-5.87,36.04-.05,12.58,5.7,23.75,9.45,35.38.77,2.39,2.33,4.54,2.32,7.19"/>
      <path class="cls-1" d="M464.85,2.38c-3.61,17.2,2.39,33.2,11.39,47.2,15,22,41,27,62,38.07"/>
      <path class="cls-1" d="M821.5,613.11c-5.18,6.32-7.73,14.14-9.63,21.66-4.84,19.17-17.9,29.82-34.8,37.48-15.99,7.26-31.98,8.06-48.73,1.91-5.46-2-10.72-4.38-14.63-8.13-9.1-8.69-19.16-16.16-28.89-24.01-4.85-3.91-9.77-8.78-16.84-8.89"/>
      <path class="cls-1" d="M483.18,592.65c-4.02-4.95-10.17-3.91-15.31-4.9-6.73-1.29-13.68-1.72-20.72-.67-10.45,1.55-20.39-1.99-30.27-5-15.32-4.67-30.51-3.39-45.56.7-3.54.96-6.91,1.7-10.36.27-15.97-6.65-31.23-4.25-45.96,3.29-7.21,3.69-15.12,4.97-22.61,3.62-20.11-3.62-40.18-1.71-60.25-1.48-5.91.07-12.65.5-17.36,5.56"/>
      <path class="cls-1" d="M605.33,103.88c1.43,3.73,4.73,5.85,8.09,6.3,25.18,3.42,50.38,6.65,75.86,4.69,28.08-2.16,52.47,7.12,74.25,24.71,9.96,8.05,21.13,14.74,30.39,23.48,15.32,14.46,31.09,29.02,36.19,50.85,1.4,6.01,1.19,12.1.29,18.11-2.31,15.59-.31,30.68,5.27,45.39.43,1.12,1.43,2.03,2.17,3.04"/>
      <path class="cls-1" d="M818.44,591.46c-6.19,11.29-17.03,38.34-22.52,44.3-5.49,5.96-25.24,21.83-41.42,19.52-16.18-2.31-48.04-5.94-68.97-20.51-6.76-4.7-13.35-11.53-23.1-9.73"/>
      <path class="cls-1" d="M794.05,274.78c4.65,10.88,8.94,21.94,14.02,32.61,7.04,14.78,15.37,29.02,20.99,44.39,6.15,16.85,4.85,33.67-2.79,49.77-6.63,13.96-13.82,27.66-20.17,41.75-1.87,4.14-6.69,8.83-1.08,13.94"/>
      <path class="cls-1" d="M417.79,2.21c-3.55,18.37-2.55,38.37,9.45,54.37,16,20,39,29,62,39,1,1,1,2,2.33,2.55"/>
      <path class="cls-1" d="M482.83,2.27c-3.59,12.31,1.41,24.31,8.41,34.31,14,21,34,36,57,46q0-1,.07-1.51"/>
      <path class="cls-1" d="M514.08,588.43c-4.27,3.56-10.11,5.04-14.78,4.81-14.74-.73-29.18,5.05-44.13.63-7.71-2.28-15.88-1.33-23.73,1.58-9.29,3.44-18.89,2.72-27.96-1.07-9.58-4.01-19.05-5.67-29.24-3.12-3.26.82-6.86.08-10.38-.38-17.42-2.27-34.22-1.03-50.59,6.54-7.87,3.64-17.37,2.24-26.22,1.76-4.8-.26-8.84.71-12.93,3.89-4.5,3.5-10.53,5.45-16.24,2.73-5.52-2.63-10.88-1.71-16.14-.69-5.36,1.03-10.25,2.53-15.7-.43-2.5-1.36-6.09-.81-9.22.1-10.24,2.98-20.91,2.78-31.42,3.86-11.47,1.18-24.71,8.19-31.7,12.76s-8.45,6.18-10.78,9.45c-2.33,3.27-10.76,24.39-9.47,29.81,5.89,24.66,20.72,49.35,28.31,57.72"/>
      <path class="cls-1" d="M557.28,50.7c-5.81,19.86.44,32.88,18.24,44.2,8.3,5.28,17.69,10.06,28.21,8.4,5.91-.93,11.68-1.65,17.61-.53,5.21.99,10.32.44,14.86-2.2,1.55-.9,3.33-1.75,4.63-1.48,10.93,2.27,20.05-3.1,29.18-7.05,21.21-9.16,42.02-8.43,62.25,2.27,9.34,4.94,17.58,11.97,26.34,18.01,1.23.84,1.78,2.45,3.73,2.52,10.03.36,14.87,8.19,20.32,14.81,9.77,11.85,20.88,21.59,34.93,28.45,12.68,6.19,24.29,14.26,32.53,26.52,12.45,18.53,15.48,38.21,9.33,59.28-4,13.68-8.5,27.22-12.47,40.91-.61,2.1-.89,4.14-2.45,5.74"/>
      <path class="cls-1" d="M533.48,85.34c7.31,1.06,36.76,26.55,40.77,31.62,10.4,13.15,18.3,27.95,27.27,42.04,9.89,15.51,22.91,26.52,40.45,32.17,12.31,3.96,24.59,7.99,36.82,12.18,4.03,1.38,7.7,3.48,8.18,8.46"/>
      <path class="cls-1" d="M787.1,304.04c-1.05,1.61-1.21,3.47-.76,5.2,4.53,17.55,6.96,35.63,14.72,52.35,5.88,12.66,3.5,24.76-3.38,36.39-4.66,7.88-8.53,15.88-9.02,25.64-.45,8.96-2.46,18.1-5.45,26.55-3.7,10.47-2.45,20.71-1.6,31.24.31,3.83,2.18,5.95,4.68,8.11"/>
      <path class="cls-1" d="M575.61,578.84c-15.06-9.25-41.69-28.32-60.18-28.89-7.29-.23-13.17-3.91-19.26-8.26-9.1-6.52-16.87-14.31-25.17-21.61-5.07-4.46-11.77-5.78-17.82-5.3-8.4.66-16.38.41-24.48-1.96-8.9-2.61-17.79-1.42-26.29,1.56-2.67.94-4.58.55-6.81-.43"/>
      <path class="cls-1" d="M651.57,151.43c22.82,2.88,44.05,9.68,61.8,25.23,5.04,4.41,11.67,6.84,17.53,7.8,21.24,3.46,31.3,17.86,38.26,35.82,2.1,5.41,3.57,11.19,4.37,16.92,1.03,7.4,3.81,14.06,7.36,20.41,4.8,8.59,7.53,18.36,5.36,27.16-2.88,11.66,2.33,19.35,7.94,27.86,7.31,11.11,14.5,22.33,18.74,35.05,8.03,24.11,4.17,47.03-6.68,69.12-7.95,16.18-14.45,32.81-16.83,50.87-.42,3.17-1.3,6.39,1.97,8.74"/>
      <path class="cls-1" d="M754.93,472.53c17.21,38-25.08,74.07-36.09,85.66-11.01,11.58-31.03,23.64-51.55,25.84-7.54.81-15.43.71-22.04,5.38"/>
      <path class="cls-1" d="M761.45,208.09c-3.86,12.7-3.37,24.59,4.54,36.24,3.52,5.19,6.07,11.83,6.08,18.28,0,13.3,4.4,26.61.44,39.88-3.8,12.74-6.04,25.96-14.75,36.91-8.21,10.32-13.59,21.87-10.5,36.03,2.29,10.52-1.58,20.45-4.8,30.17-7.2,21.69-12.9,43.57-12.53,66.79.13,8.13-.59,16.36-5.46,23.56-2.62,3.87-4.98,7.71-10.04,8.6"/>
      <path class="cls-1" d="M179.65,596.32c-1.34-.81-2.11-1.92-4.22-2.12-11.85-1.14-23.48.67-35.21,1.33-16.64.95-29.88,9.36-43.21,17.78-3.98,2.51-8.07,5.05-11.49,8.23-7.02,6.52-7.91,19.09-2.88,30.09,1.62,3.53,3.28,7.29,6.28,9.47,7.5,5.47,11.12,13.27,14.3,21.39,1.57,4,3.79,6.89,7.62,9.2,3.28,1.98,6.58,4.71,7.78,8.87"/>
      <path class="cls-1" d="M258.44,562.92c7.1-4.88,11.02-13.25,18.91-17.25,14.12-7.16,28.65-11,44.35-4.71,4.69,1.88,9.63,2.87,14.36,4.88,5.15,2.19,11.87,2.55,16.84-.04,8.18-4.26,16.71-4.13,25.32-4.18,5.48-.04,10.32-1.7,14.8-4.32,9.98-8.47,20.72-6.68,34.49-5.87,7.48.44,119.73,41.96,128.63,47.4"/>
      <path class="cls-1" d="M628.23,139.84c9.15,17.18,24.72,25.39,42.34,31.2,17.71,5.84,31.77,16.37,42.29,32.37,4.47,6.81,9.24,13.99,16,19.43,7.27,5.86,10.71,14.55,12.3,23.31,1.15,6.35,3.22,12.07,5.61,17.95,2.43,5.98,3.86,12.38,3.67,18.99-.06,2.08-1.16,4.52,1.27,6.17"/>
      <path class="cls-1" d="M191.87,568.94c-4.06-4.85-10-3.9-15.26-5.19-23.67-5.81-47.81-6.43-71.77-5.35-21.94.99-43.81,4.51-64.75,11.44-27.18,9-44.14,38.63-36.92,62.85,3.25,10.89,9.68,20.18,17.69,28.47,9.27,9.6,19.2,18.12,31.72,23.11,4.01,1.6,7.96,3.77,12.55,2.69"/>
      <path class="cls-1" d="M742.26,478.68c1.78,9.6-2.36,17.87-6.75,25.54-12.43,21.7-30.99,35.03-56.06,39.59-10.65,1.94-20.16,7.35-28.95,13.78-7.09,5.19-14.22,10.33-22.1,14.35-1.59.81-2.76,2.65-4.66.63"/>
      <path class="cls-1" d="M792.65,142.73c-9.41-.47-16.65-5.94-23.76-11.16-9.37-6.88-17.9-15.02-28.49-20.06-16.87-8.03-34.44-12.92-53.32-10.56-15.12,1.89-30.25,3.72-45.33,5.85-4.31.61-7.13-.62-9.02-4.42"/>
      <path class="cls-1" d="M682.4,7.34c2.5,19.86-9.03,36.9-23.85,48.95-16.86,13.71-39.34,21.43-59.85,11.27-5.89-2.92-10.66-7.41-16.37-10.55-5.95-3.27-11.44-5.41-16.42-10.25"/>
      <path class="cls-1" d="M766.44,170.09c6.15,9.52,13.22,18.55,16.87,29.45,5.54,16.52,11.07,33.04,16.25,49.67,4.71,15.16,11.92,29.07,22.89,40.39,5.77,5.96,13.47,10.38,17.78,17.62,56.1,94.16-21.16,124.9-21.79,128.33"/>
      <path class="cls-1" d="M670.4,7.48c1.84,28.1-25.16,51.1-52.16,53.1-18-3-34-11-49.55-19.48"/>
      <path class="cls-1" d="M704.98,152.1c13.47,4.94,27.13,9.24,39.7,16.59,17.12,10.01,29.06,23.93,34.42,42.94,2.35,8.35,4.25,16.87,4.54,25.71.37,10.98,5.54,20.74,9.55,30.75.45,1.11.49,2.39.71,3.59"/>
      <path class="cls-1" d="M259.57,711.56c6.27-14.59,21.53-14.81,31.2-6.7,13.52,11.33,22.57,26.05,28.99,42.36,2.22,5.64,4.74,11.21,4.98,17.43.28,7.24-3.01,14.36-10.53,18.13-8.63,4.33-17.49,2.74-26.38,2.26-.94-.05-1.81-1.56-2.71-2.39"/>
      <path class="cls-1" d="M790.61,527.19c4.93,3.74,5.11,9.72,6.1,14.84.88,4.54,2.57,7.21,6.35,9.67,7.37,4.79,7.22,13.82,10.79,20.79,3.66,7.13,3.72,15.53,8.13,22.61,1.35,2.16-.28,6.08-.34,9.2-.17,7.79,3.71,15.25,1.62,23.27-6.72,25.78-18.24,47.55-45.07,57.61-17.87,6.7-34.97,3.87-52.03-3.29-4.43-1.86-8.66-4.52-13.66-4.76"/>
      <path class="cls-1" d="M606.61,131.81c-2.12,4.47,2.47,6.08,4.18,8.56,10.9,15.83,25.41,27.74,42.49,36.32,21.94,11.03,41.75,24.9,58.89,42.53.87.9,1.18,2.34,1.76,3.53"/>
      <path class="cls-1" d="M327.63,873.33c5.06,16.51,18.18,25.66,29.79,37.26,11.09,11.07,15.36,26,14.79,41.38-.43,11.51-1.13,22.99-1.12,34.52"/>
      <path class="cls-1" d="M227.28,606.52c-6.62,6.5-15.5,8.27-23.96,9.38-10.56,1.38-20.32,5.28-29.99,8.63-9.25,3.21-13.87,4.28-21.99,19.86-8.13,15.58,11.22,67.65,10.42,74"/>
      <path class="cls-1" d="M547.49,547.43c-18.89-4.3-44.82-6.49-58.77-21.56-8.23-8.89-17.02-15.39-28.1-19.58-3.16-1.2-6.66-2.58-9.49-2.36-11.73.91-23.49-.88-35.24.77-6.18.87-11.45,3.81-17.37,5.01"/>
      <path class="cls-1" d="M288.03,778.4c-.82.89-1.55,1.9-2.48,2.66-11.24,9.13-12.6,12.45-5.39,24.45,6.61,11,14.41,21.63,26.03,28.07,8.46,4.69,16.71,7.24,27.22,2.8,8.25-3.48,16.54-7.79,26.92-7.75,20.64.08,35.19,10.5,48.66,23.72,13.81,13.56,18.98,30.77,17.08,49.51-.68,6.72-1.86,15.05-10.8,17.53"/>
      <path class="cls-1" d="M412.92,958.84c5.12,1.53,6.62,6.15,8.77,10.5,2.7,5.5,6,10.67,8.96,16.03"/>
      <path class="cls-1" d="M369.22,616.43c-14.4,1.68-75.64,12.66-82.79,14.78-15.6,4.64-28.84,14.08-43.67,20.18-4.41,1.81-6.31,4.85-7.84,8.72"/>
      <path class="cls-1" d="M800.54,167.83c33.22,8.87,52.79,28.28,48.31,66.16-1.1,9.32-4.73,17.7-6.81,26.61-1.29,5.51-3.48,11.14-2,16.61.98,3.61-4.38,2.88-1.85,5.86-3.57-.04-5.64-1.51-7.66-3.36-12.25-11.22-20.59-25.18-25.4-40.63-4.8-15.42-11.07-30.24-16.39-45.43-3.84-10.95-10.72-19.42-21.31-24.63"/>
      <path class="cls-1" d="M681.57,466.36c.15-.52.57-1.16.41-1.55-15.45-37.51-4.82-70.02,18.27-100.11,1.49-1.94,3.7-3.47,1.64-6.49-8.83,4.51-14.27,12.66-20.68,19.65-10.01,10.93-16.29,24.24-19.31,38.5-3.76,17.79,3.95,33.22,13.86,47.62,9.84,3.73,13.54,15.17,24.05,18.66,4.38,1.45,5.69,8.63,10.99,10.65"/>
      <path class="cls-1" d="M342.43,834.46c1.81,4.12,4.81,2.12,7.81,2.12,9,0,17-1,26,2,17,4,32,16,38,33,3,9,3,19,3,29-1,12-5,23-7,35-1,8-1,17,1,25,2,9,5,17,10.02,24.49"/>
      <path class="cls-1" d="M498.09,657.9c-3.66,6.43-5.04,13.89-9.38,20.08-6.05,8.64-12.35,17.2-20.88,23.32-9.13,6.55-28.13,2.05-36.57-6.71-7.7-7.99-12.42-17.79-18.01-27.03-1.94-3.2-3.56-8.21.78-11.81"/>
      <path class="cls-1" d="M325.84,839.98c4.66,8.79,13.54,8.22,21.44,9.86,14.75,3.05,27.3,10.31,37.16,21.54,10.58,12.05,18.01,29.21,20.82,44.75,2.31,1.47,4.63,2.94,6.94,4.42"/>
      <path class="cls-1" d="M319.83,940.44c-19.18,4.21-28.18,25.35-27.84,43.22"/>
      <path class="cls-1" d="M771.43,278.7c-4.58,5.9-5.07,13.52-8.18,20.1-2.92,6.19-5.36,12.83-9.96,17.67-5.55,5.84-7.01,13.91-12,19.67-9.7,11.2-17.28,23.39-21.48,37.67-2.56,8.68-4.15,17.74-8.73,25.66-3.25,5.62-7.51,10.63-9.52,16.96-3.74,11.78-4.24,23.32,2.01,34.7,1.06,1.93,2.78,2.86,3.95,4.46"/>
      <path class="cls-1" d="M552.47,2.56c-3.56,12.71-8.69,24.8-9.12,38.19-.33,10.36,1.8,28.11,12.41,33.31"/>
      <path class="cls-1" d="M253.62,615.93c-13.01-1.61-33.58,5.97-39.9,9.8-6.31,3.83-14.15,7.05-20.75,13.58-4.08,4.04-8.93,7.12-13.99,9.93-9.03,5.02-13.65,13.25-14.4,23.27-1.11,14.84-1.53,29.74-2.17,44.62-.08,1.79.08,3.52-.8,5.22-2.11,4.1-.74,6.73,3.7,7.88"/>
      <path class="cls-1" d="M331.19,837.97c2.98,3.8,7.32,4.31,11.62,4.74,7.98.81,15.98,1.32,23.94,2.3,18.19,2.25,27.53,15.19,35.63,29.74,4.66,8.38,5.83,17.54,7.47,26.68.66,3.64-.48,7.87,3.01,10.78"/>
      <path class="cls-1" d="M636.41,6.52c.79,20.14-22.23,29.07-38.94,28.48-3.82-.13-12.65.43-15.13-2.82"/>
      <path class="cls-1" d="M772.8,308.7c3.96,6.42.63,13.11.79,19.65.11,4.84-1.4,9.72-1.17,14.55.52,11.13-2.99,20.93-7.35,30.91-6.98,15.97-13.2,32.3-17.57,49.26-2.24,8.69-2.25,17.6-1.32,26.46.67,6.38-.42,12.48-1.17,18.72-1.15,9.55-7.56,14.56-14.79,19.16"/>
      <path class="cls-1" d="M494.82,1.67c-.89,11.43,1.86,24.29,9.54,33.05,7.6,8.67,16.6,15.9,23.97,24.86,4.43,5.39,8.51,11.07,12,17.11"/>
      <path class="cls-1" d="M243.14,726.14c8.11-11.11,19.63-15.98,32.9-17.16,5.87-.52,11.88.78,15.19,6.16,6.25,10.13,14.82,18.6,19.88,29.68,3.04,6.66,2.97,13.12,2.49,19.68-.27,3.66-3.91,6.49-7.24,7.91-5.39,2.29-11.18,3.66-16.8,5.41"/>
      <path class="cls-1" d="M410.6,964.63c-3.36,6.95.64,13.95,1.67,21.09"/>
      <path class="cls-1" d="M738.6,342.57c-3.85,23.07-5.65,46.5-16.34,68.06-6.7,13.52-12.77,27.58-13.58,43.33-.17,3.33.39,6.23.74,9.33,1.21,10.48,7.2,20.69,2.05,31.57-.42.89.39,2.36.6,3.56,2.18,12.72-3.87,22.55-16.41,26.48-5.3,1.66-10.28,3.19-14.95,6.97-4.6,3.72-11.48.48-17.34.95-7.4.59-14.76-1.89-22.32,1.07-5.62,2.2-7.78,5.45-8.87,10.9-1.02,5.11-1.83,10.22-5.18,14.9-3.27,4.56-7.16,7.53-11.95,9.84"/>
      <path class="cls-1" d="M596.28,589.63c-8.7-1.13-14.3-.92-19.88-.73-7.03.24-14.14,1.97-21.13,3.79-4.84,1.26-10,2.26-15.51,1.05-4.68-1.03-9.69.24-14.37,2.27-9.44,4.09-19.47,5.51-29.79,5.33-6.89-.12-13.4,1.15-19.58,4.61-1.9,1.06-4.75,1.48-7.64,1.17-15.08-1.64-30.08-2.45-45.05,1.7-4.89,1.36-10.66-.38-15.31-.67"/>
      <path class="cls-1" d="M501.78,666.53c3.41,11.41.16,25.11-3.05,30.64-11.32,19.52-26.94,32.03-51.32,31.14-12.9-.47-20.94-7.74-27.55-16.93-8.81-12.24-7.47-26.97-8.2-41.04-.03-.51.92-1.07,1.41-1.6"/>
      <path class="cls-1" d="M405.84,635.32c16.18,8.75,21.33,12.18,51.21,14.8,12.48,1.05,22.98-20.79,29.58-29.54,5.27-6.99,11.45-13.27,21.65-11.74"/>
      <path class="cls-1" d="M492.84,645.14c2.07.29,3.18,1.5,3.82,3.48,1.71,5.32,4.26,10.48,5.18,15.9,1.05,6.18-.21,11.75-4.4,17.48-5.47,7.49-9.71,15.88-16.34,22.65-10.42,10.64-32.85,15.25-46.24,8.8-6.29-3.03-10.75-8.62-15.46-13.56-1.45-1.52-3.3-2.24-4.56-3.77"/>
      <path class="cls-1" d="M349.41,930.05c-2.72,2.09-1.56,9.44-1.83,12.78-.38,4.78-.86,9.58-.66,14.38.41,9.81,5.98,18.28,4.59,28.27"/>
      <path class="cls-1" d="M165.61,595.27c-1.3,4.97-6.59,4.58-9.7,5.68-11.83,4.18-22.11,11.38-33.74,15.95-4.69,1.84-9.61,5.89-13.64,9.74-5.12,4.89-3.21,12.32-2.02,18.81,1.21,6.56,3.41,11.41,6.76,18.58"/>
      <path class="cls-1" d="M823.35,596.98c5.22.85,5.92,5.96,6.37,9.12,3.49,24.17-1.86,46.49-15.92,66.29-15.87,22.35-38.45,27.36-64.65,24.93-15.54-1.44-27.95-7.13-38.18-18.56"/>
      <path class="cls-1" d="M407.17,607.82c-12.15-3.51-24.22-2.41-36.27.26-2.05.45-4.19.72-6.16,1.19-26.07,6.2-74.88,8.93-82.31,14.37-4.53,3.32-18.53-1.5-23.34,1.18"/>
      <path class="cls-1" d="M256.35,551.08c5.17-2.83,7.35-8.4,11.21-12.46,3.95-4.16,8.47-7.05,13.78-7.99,10.88-1.92,21.83-2.76,33.03-2.82,11.13-.05,21.53,1.94,31.79,5.14,15.35,4.79,28.1.64,39.48-9.37,5.32-4.68,11.75-8.85,11.17-17.45-.11-1.67,1.07-2.04,2.41-2.77,6-3.28,11.67-7.17,17.74-10.33,14.16-7.37,27.85-2.85,41,3.25,10.55,4.89,56.25,32.89,70.55,46.07"/>
      <path class="cls-1" d="M797.27,548.19c1.73,12.54-49.64,87.65-81.18,76.04-23.29-8.58-59.04-22.39-73.02-25.97-2.88-.74-5.62-1.85-8.29.34"/>
      <path class="cls-1" d="M397.65,501.96c-.55-2.14.18-4.12,1.33-5.72,9.11-12.66,29.79-17.52,45.08-12.19,15.86,5.53,26.6,7.06,42.27,18.75,23.07,15.74,48.85,38.48,50.13,39.99"/>
      <path class="cls-1" d="M257.65,850.46c.59,1.12,1.59,1.12,1.59,2.12,1,5-4,9-1,14,3,6,9,6,15,7,4,1,6,7,11,5,7-4,15-2,22,1,9,5,19,11,21,23,1,8,1,16,5,23,4,4,7,9,6,14,0,15-2,30,1.68,45.44"/>
      <path class="cls-1" d="M196.56,648.55c.04,5.08-2.3,9.32-4.52,13.65-2.21,4.31-4.22,8.72-6.15,13.16-3.38,7.78-4.11,15.58.53,23.29.4.66,1.05,1.34,1.09,2.03,1.48,22.89,19.51,35.2,33.29,49.75,5.11,5.4,11.59,10.56,18.79,14.41,9.86,5.27,16.16,14.34,19.95,24.94"/>
      <path class="cls-1" d="M275.72,600.63c-13.94.06-27.5-3.07-41.2-5.1-9.94-1.47-20.07-1.39-29.99.9-1.84.43-3.85.99-5.65.67-16.39-2.91-30.35,3.74-43.4,11.71-10.17,6.21-22.04,9.97-29.9,19.92-4.65,5.88-7.14,9.79-8.02,19.59-1.2,7.57-.55,18.05-.48,23.4"/>
      <path class="cls-1" d="M633.36,138.62c-13.82-4.91-27.86-9.26-40.67-16.67-1.08-.63-2.47-1.43-3.07-2.08-12.57-13.63-29.63-22.06-41.71-36.2"/>
      <path class="cls-1" d="M233.47,730.11c4.25-2.29,7.92-4.1,13.57-1.98,3.72,1.4,9.31-1,13.63-2.74,12.11-4.9,21.32-.36,29.43,8.4,4.62,4.99,9.12,10.54,9.85,17.26.56,5.13-1.08,10.58-5.21,14.72-3.04,3.05-6.15,6.25-6.27,11.06"/>
      <path class="cls-1" d="M837.49,284.09c10.31,13.79,38.12,46.22,38.12,76.43-4.65,70.24-50.05,69.19-57.17,75.01"/>
      <path class="cls-1" d="M161.98,753.4c5.71,3.94,13.57,13.34,21.73,18.89,8.16,5.55,31.94,20.71,40.86,26.17,3.69,2.26,7.01,5.03,11.28,6.16"/>
      <path class="cls-1" d="M488.54,653.07c-3.27.95-4.39,4.07-5.81,6.5-4.18,7.09-10.81,14.04-15.85,16.15-11.32,4.73-25.65,2.8-32.85-3.66-6.22-5.58-11.31-12.27-18.81-16.6-2.46-1.42-3.88-5.71-4.59-8.93-2.35-10.66-10.28-14.05-19.52-15.8-4.46-.84-9.01-1.32-13.54-1.6-10.73-.66-18.77,3.76-25.51,12.13-4.84,6-9.48,12.14-15.91,17.12-7.57,5.86-15.34,5.52-23.82,5.85-12.41.48-25.02-3.37-37.3,2.03-5.09,2.24-10.66,1.42-16.16-1.66-10.2-5.71-21.26-4.83-32.11-2.01-2.07.54-3.79,2.33-6.19,1.16"/>
      <path class="cls-1" d="M195.67,687.63c2.75-2.98,3.63-4.71,6.8-8.89,1.16-1.53,4.12-4.47,7.12-7.24,7.33-6.76,13.23-14.46,21.81-19.6,11.28-6.76,21.59-15.13,33.83-20.3,4.75-2,9.94-3.06,11.67-9.19.5-1.78,2.91-3.52,4.84-4.28,14.01-5.56,27.15-13.75,43.51-11.65,13.51,1.73,26.42-2.47,39.02-6.57,10.47-3.41,20.09-1.68,29.68,2.74.57.26.78,1.3,1.15,1.98"/>
      <path class="cls-1" d="M159.12,758.69c6.63,2.91,18.3,18.23,26.65,27.29,8.49,9.22,28.06,16.1,37.82,22.19"/>
      <path class="cls-1" d="M249.04,617.65c-4.64,7.14-11.93,10.52-19.66,12.51-16.27,4.17-24.64,16.12-30.55,30.3-1.9,4.55-6.63,9.29-2.06,15.02"/>
      <path class="cls-1" d="M240.51,736.59c6.04-4.84,13.71-3.1,20.55-4.71,9.47-2.23,17.81-.25,23.28,9.3,5.02,8.77,3.28,16.48-1.46,24.51-2.95,5-6.63,10.3-2.44,16.6"/>
      <path class="cls-1" d="M259.22,625.06c-5.76.11-10.79,2.22-14.69,6.28-5.78,6.02-12.97,9.45-20.8,11.47-6.95,1.8-11.65,5.01-13.56,12.46-1.48,5.78-6.3,10.06-9.34,15.18-3.36,5.66-4.65,11.72-6.43,17.62-3.83,12.65,7.24,28.21,16.52,35,4.27,3.12,8.9,6.28,14.71,5.76,7.76-.69,11.93,5.97,15.48,10.23,3.57,4.28,7.59,6.26,11.85,7.8,14.45,5.22,21.41,17.46,17.48,32.18"/>
      <path class="cls-1" d="M369.73,616.52c13.33-.32,37.45,5.18,50.24,8.72,13.06,3.62,25.56,2.78,38.31-4.8,12.45-7.4,27.43-10.31,40.58-17.14,3.06-1.59,9.07-2.87,12.39,2.33"/>
      <path class="cls-1" d="M330.06,948.88c-.82.7-1.82.7-2.82,1.7-3,12-7,22-9.78,33.7"/>
      <path class="cls-1" d="M330.55,925.55c-3.91,3.21-7.16,7.33-8.63,12.22-1.53,5.1-1.47,9.98-3.92,14.89-5,10.03-10.75,19.57-13.01,30.73"/>
      <path class="cls-1" d="M165.16,729.8c2.31,5.71,24.25,27.21,34.47,33.84,6.52,4.23,13.44,9.3,17.93,15.07,6.14,7.89,14.05,14.49,19.04,22.62,3.52,5.75,6.65,9.16,12.5,11.81,6.06,2.74,10.68,7.95,14.63,13.32,4.78,6.49,8.5,13.29,9.11,21.89.61,8.59,7.63,13.87,14.7,17.3,3.77,1.83,5.65,4.16,7.43,7.29"/>
      <path class="cls-1" d="M323.6,525.86c-1.69-1.03-2.47-3.21-4.82-3.48-14.51-1.64-28.98-5.14-43.6-1.5-15.91,3.96-23.44,12.19-19.79,29.78,1.45,7,4.75,14.53,1.96,22.14"/>
      <path class="cls-1" d="M644.46,98.33c.82-.89,1.51-2.37,2.49-2.59,9.99-2.2,17.5-9.09,26.29-13.52,1.5-.76,2.93-1.93,3.98-3.24,8.99-11.2,21.42-13.65,34.69-12.46,11.7,1.05,22.69,4.64,30.78,14.24,1.58,1.88,3.62,3.33,3.34,6.14"/>
      <path class="cls-1" d="M575.88,616.3c2.68,5.77,9,14.82,10.11,20.86,1.82,10.02-.54,19.99-6.84,28.07-5.33,6.83-15.64,3.79-22.49-4.68-8.45-10.45-9.54-22.22-8.04-34.49.77-6.35.01-11.91-2.95-17.57-3.26-6.21-6.66-8.52-13.36-7.19-5.69,1.13-11.27,2.81-16.93,4.14-1.36.32-2.81.03-3.84,1.45-6.92,9.55-18.91,16.31-19.41,29.25-.24,6.29-2.55,12.04-2.25,18.43.33,6.84-4.62,13.27-7.76,18.37-11.63,18.49-29.26,27.05-47.45,12.56-7.27-6.21-11.89-15.06-16.2-23.7"/>
      <path class="cls-1" d="M219.03,731.66c3.89,9.19,13.56,11.37,20.54,16.79,2.38,1.85,5.48,2.99,8.42,3.87,9.49,2.82,13.96,9.56,17.16,18.53,2.21,6.2,4.26,13.64,12.38,15.69"/>
      <path class="cls-1" d="M625.83,5.31c1.41,8.27-1.59,16.27-9.59,19.27-8,2-15,1-23,0-2,0-4,1-6,2-6,4-11,7-17,11-4,3-3,8-7,11s-9,0-9-3c-1-14,14-23,20-35,1-2,1-5,1.97-7.21"/>
      <path class="cls-1" d="M576.88,172.77c4.48,6.06.68,12.49.59,18.61-.21,14.8,6.66,22.92,21.05,24.3,7.45.72,15.49-.3,22.17,5.08,1.1.89,3.91.45,6.1.1,9.73-1.56,19.55-2.62,29.35-3.78,5.88-.7,11.68-2.63,17.71.22,1.73.82,5.13.48,6.5-.74,5.61-4.99,10.46-1.74,15.72.56,5.75,2.51,10.78,6.86,17.4,7.19,1.67.08,1.91,1.52,2.81,2.4,6.74,6.52,13.27,13.27,18.79,20.8,1.66,2.27,3.61,2.7,5.55,3.81"/>
      <path class="cls-1" d="M673.44,210.22c-8.27,1.5-16.19-1.86-24.43-2-10.44-.17-20.84-2.53-31.29-3.74-14.22-1.66-26.71-8.97-29.72-26.41-.83-4.82-1.81-9.61-2.72-14.41"/>
      <path class="cls-1" d="M332.27,929.11c-1.78,18.37-.98,36.85-.59,55.26"/>
      <path class="cls-1" d="M669.11,522.24c-2.58,3.92-6.33,2.54-9.75,1.86-8.53-1.68-17-2.17-25.38.45-9.25,2.88-15.12,10.73-16.26,20.76-.31,2.73-.19,6.06-3.15,7.9"/>
      <path class="cls-1" d="M280.27,880.21c-7.63,9.61-18.37,9.84-29.12,8.69-9.78-1.05-17.92-6.6-25.93-11.93-4.23-2.82-5.27-10.8-2.27-14.9,3.31-4.52,9.42-6.39,15.33-4.7"/>
      <path class="cls-1" d="M588.14,643.78c1.62.41,2.83,1.35,3.23,2.99,4.09,16.87,3.26,32.21-13.67,40.86-2.71,1.38-5.63,1.49-8.76.93-13.6-2.4-25.96-22.44-21.31-36.58.11-.33.97-.4,1.48-.59"/>
      <path class="cls-1" d="M675.89,534.43c-5.28,5.42-13,5.55-19.47,7.49-9.9,2.97-15.88,8.99-20.23,17.31-3.26,6.24-9.42,9.21-14.16,13.71-1.81,1.72-5.22-.4-7.19-2.64"/>
      <path class="cls-1" d="M620.6,221.96c-8.91,8.61-20.33,11.12-32.04,13.11-12.64,2.15-26.72-10.71-23.28-28.26,1.19-6.09.33-12.64,2.48-18.68,3.44-9.67,10.54-17.64,12.78-27.9.17-.77,1.05-1.94,2.43-1.66"/>
      <path class="cls-1" d="M157.87,765.47c1.43,2.85,25.51,32.43,31.5,36.24,5.18,3.3,9.65,6.14,13.52,7.21"/>
      <path class="cls-1" d="M575.83,612.63c1.55,11.65-.19,23.2-1.19,34.73-.38,4.33-7.4,5.34-10.59,1.95-4.88-5.19-7.73-11.42-9.13-18.32-.67-3.31-2.11-5.93-5.52-7.05"/>
      <path class="cls-1" d="M663.7,517.25c-6.77,3.3-12.94-.74-19.24-2-14.09-2.81-25.05,2.14-31.79,16.34-1.23,2.59-2.08,5.14-4.48,6.83"/>
      <path class="cls-1" d="M707.65,142.68c10.12,3.24,20.61,5.13,30.51,9.21,10.1,4.16,19.82,8.83,27.69,16.67"/>
      <path class="cls-1" d="M768.01,114.08c-5.36-9.05-12.12-16.94-19.71-24.21-3.68-3.53-8.64-3.53-12.75-5.71-16.92-8.97-34.32-11.92-52.59-4.89-1.22.47-2.74.15-4.12.2"/>
      <path class="cls-1" d="M603.73,4.27c1.51,11.31-8.49,15.31-15.46,21.48"/>
      <path class="cls-1" d="M231.7,759.18c7.27-2.68,16.67,1.31,22.19,9.57,4.36,6.52,8.56,13.16,12.85,19.73,1.7,2.6,3.14,5.58,6.98,5.45"/>
      <path class="cls-1" d="M690.91,139.14c-9.52-3.12-19.38-4.9-29.26-4.96-8.58-.06-17.04-.79-25.45-2.01-4.12-.59-6.75.82-9.19,3.57"/>
      <path class="cls-1" d="M490.04,640.58c-1.36.39-3.38.35-3.99,1.25-7.26,10.76-13.48,22.42-25.46,22.58-24.53-.56-41.22-17.24-45.62-21.62-1.44-1.43-3.37-1.18-5.2-.87"/>
      <path class="cls-1" d="M566.03,207.35c4.6,3.98,5.85,10.34,10.89,14.26,5.4,4.21,10.62,6.55,17.47,4.99,5.41-1.23,10.96-1.81,16.44-2.76,1.59-.27,2.74.26,3.7,1.44"/>
      <path class="cls-1" d="M313.52,656.26c9.69-1.58,17.12-6.83,23.8-13.74,5.55-5.74,12.15-9.96,20.74-9.62"/>
      <path class="cls-1" d="M542.81,2.48c-1.57,13.1-4.57,25.1-6.57,38.1-3,14,7,26,11.48,38.95"/>
      <path class="cls-1" d="M244.25,739.05c6.93.44,13.87.8,20.79,1.35,6.12.49,9.63,4.39,10.71,9.97,1.24,6.44.16,12.73-3.71,18.25"/>
      <path class="cls-1" d="M351.83,644c.1,8.16-4.32,15.25-4.99,23.44-.66,8.01-14.75,15.91-22.78,14.14-1.08-.24-2.64-.24-3.75-1.21-5.72-5.01-11.5-9.96-17.25-14.94"/>
      <path class="cls-1" d="M592.85,4.6c-2.11,13.2-18.5,16.08-21.34,28.49"/>
      <path class="cls-1" d="M311.45,656.33c-5.39-.67-10.78-1.31-16.16-2.02-5.96-.78-11.39-.54-16.52,3.57-4.99,4-12.12,3.46-17.74,6.47"/>
      <path class="cls-1" d="M265.08,831.55c-1.15,6.8-1.16,14.08-7.96,18.43-4.45,2.85-9.63,4.21-14.37,6.36-4.67,2.11-8.33,4.89-9.53,9.08-1.45,5.03,2.71,7.97,6.88,10.66,4.96,3.2,10.07,5.92,15.49,8.12,1.97.8,3.45,2.06,4.32,4"/>
      <path class="cls-1" d="M275.99,877.26c-7.03,2.57-14.25,1.59-21.21.11-8.57-1.82-10.94-9.83-5.45-16.75,1.41-1.79,3.51-3.14,3.35-5.83"/>
      <path class="cls-1" d="M113.12,663.94c1.85,8.12,7.24,19.16,14.54,24.7,5.35,4.06,30.46,24.16,33.41,30.5-.51.19-26.75-12.9-27.26-12.71"/>
      <path class="cls-1" d="M602.48,527.23c-9.64-5.46-9.49-22.75-5.85-30.24,1.99-4.09,6.05-6.95,11.38-7.34,6.02-.43,12.51.34,17.48,2.12,6.27,2.24,13.58,5.4,17.38,12.25"/>
      <path class="cls-1" d="M521.33,1.5c.66,7.14,3.92,12.6,6.45,19.09,2.09,5.37,2.37,11.56,6.57,15.9"/>
      <path class="cls-1" d="M263.63,845.07c2.95,1.97,3.2,5.03,3.51,8.16.72,7.27,4.53,12.02,11.49,14.72,3.9,1.51,7.82,3.57,9.73,7.83"/>
      <path class="cls-1" d="M529.42,1.51c-1.18,4.83-2.42,9.65-3.27,14.56"/>
      <path class="cls-1" d="M256.55,803.88c-6.5-2.3-12.63-5.34-17.53-10.29-4.32-4.36-9.53-6.41-15.4-7.18"/>
      <path class="cls-1" d="M165.13,731.53c1.72,2.68,1.88,5.62,2.05,8.73.49,9.06,43.6,44.21,54.96,47.76"/>
      <path class="cls-1" d="M591.75,665.93c-2.83,2.35-4.33,5.62-6.71,8.41-8.11,9.5-16.76,8.42-29.67-2.54-1.74-1.48-5.95-4.11-7.53-6.93"/>
      <path class="cls-1" d="M568.06,2.35c-.86,4.71-2.47,9.23-4.33,13.62-1.08,2.54-5.41,7.36-2.41,9.71"/>
      <path class="cls-1" d="M239.2,809.68c-1.77,2.22-4.51,2.24-6.63,1.68-11.16-2.98-21.99-1.45-33.24-.14-11.63,1.35-23.94-.72-34.25-7-3.66-2.23-8.04-6.03-9.59-11.2-1.53-5.08-4.74-9.12-2.31-15.71,1.71-4.64,1.68-10.7,4.17-15.36,3.85-7.23,4.12-14.86,3.24-22.46-.42-3.7-.07-6.74,1.34-9.91"/>
      <path class="cls-1" d="M154.3,778.03c5.22,11.04,16.04,17.92,21.53,28.75"/>
      <path class="cls-1" d="M293.84,611.38c-7.52-3.94-14.93-3.37-22.27.28-5.16,2.57-11.06,1.96-16.41,3.7"/>
      <path class="cls-1" d="M666.41,632.68c-3.26-5.36-8.31-9.2-12.2-13.83-6.27-7.45-16.03-11.12-20.55-20.18-.82-1.64-2.58-3.22-4.28-3.95-10.33-4.44-21.97-6.68-32.27-5.37-9.2,1.17-19.88,6.85-21.36,19.15-.78,6.48-7.13,8.97-9.02,14.71-.94,2.84-7.25,1.14-10.22-2.65-1.69-2.17-1.93-5.87-5.97-5.47"/>
      <path class="cls-1" d="M346.42,661.81c-3.32,2.88-6.29,6.38-10.05,8.51-6.58,3.75-18.84,3.93-26.1,1.66"/>
      <path class="cls-1" d="M603.75,475.89c-2.05.42-4.11.82-6.16,1.26-10.21,2.18-12.73,5.01-13.19,15.5-.08,1.91-.78,3.06-1.97,4.21"/>
      <path class="cls-1" d="M684.37,527.39c-1.54-3.12-4.84-3.6-7.44-3.7-5.31-.21-8.72-3.23-12.2-6.47-8.06-7.5-17.1-12.24-28.52-11.49-5.15.34-10.38-.15-15.56-.41-6.49-.34-11.54,2.5-13.43,8.34-2.54,7.89-5.13,15.44,0,24.5,4.94,8.73,10.18,18.46,8.01,29.54"/>
      <path class="cls-1" d="M779.55,308.97c-.15,11.65,3.41,22.72,5.71,33.99"/>
      <path class="cls-1" d="M93.8,690.58c12.43,7.78,26.4,11.68,40.13,16.17"/>
      <path class="cls-1" d="M623.59,490.2c-3.01-7.42-10.96-9.08-16.28-13.81-.81-.72-2.25-.12-3.25-1.99-3.92-7.28-10.46-9.14-18.37-8.3-8.28.88-11.66,3.83-11.81,11.91-.03,1.59.76,3.19-.38,4.67"/>
      <path class="cls-1" d="M540.61,601.72c6.59,1.02,25.99-4.35,31.77-6.29,3.46-1.17,5.62-1.02,7.91,1.5"/>
      <path class="cls-1" d="M722.63,344.69c-7.96,2.97-13.6,9.09-19.81,14.44"/>
      <path class="cls-1" d="M593,512.54c-7.71-5.22-9.46-14.73-15.41-21.27-2.66-2.92-2.79-7.4-7.12-9.76-3.43-1.87-4.71-17.22-2.63-20.89,2.93-5.16,8.02-5.85,12.65-3.87,3.93,1.68,8.82,2.89,10.82,7.68"/>
      <path class="cls-1" d="M577,601.82c-7.45,9.81-17.17,9.96-27.7,6.07-1.23-.46-1.02.55-1.56.66"/>
      <path class="cls-1" d="M174.39,673.7c2.46,8.68,4.24,17.4,1.73,26.36"/>
      <path class="cls-1" d="M661.04,143.32c-8.12-.22-15.83-2.54-23.54-4.85"/>
      <path class="cls-1" d="M251.91,578.69c1.24,4.09,6.15,4.19,8.12,7.48"/>
      <path class="cls-1" d="M784.79,298.94c-1.9,2.01-4.71,3.33-4.4,6.89.28,3.25-2.48,1.77-4,2.21"/>
    </g>
  </g>
</svg>