<?xml version="1.0" encoding="utf-8"?>
<!-- Generator: Adobe Illustrator 28.1.0, SVG Export Plug-In . SVG Version: 6.00 Build 0)  -->
<svg version="1.1" id="Layer_2_00000003814994997189769130000002715238360525629361_"
	 xmlns="http://www.w3.org/2000/svg" xmlns:xlink="http://www.w3.org/1999/xlink" x="0px" y="0px" viewBox="0 0 2001.2 1052.7"
	 style="enable-background:new 0 0 2001.2 1052.7;" xml:space="preserve">
<style type="text/css">
	.st0{fill:none;stroke:#E57221;stroke-width:3;stroke-linecap:round;stroke-linejoin:round;}
</style>
<g id="Gert_Ausloos">
	<g id="Gert_Ausloos-2">
		<g>
			<path class="st0" d="M5.1,699.1c6.1,11.3,12.3,21.3,22.7,29.3c8.3,6,17.7,10,27,14c21.8,7,42.6,14,62.3,25c2.1,2,4.2,4,7.3,5
				c9.3,4,17.7,8,26,14c17.7,29,50.9,44,85.2,47c14.5,2,27,7,39.5,14c13.5,8,29.1,9,43.6,14c11.4,4,21.8,11,27,22
				c2.1,6,3.1,13,5.2,19c2.1,5,6.2,9,10.4,13c3.1,5,7.3,8,9.3,14c3.1,14,1,27,6.2,40c1,2,2.1,4,3.1,7c2.1,5,5.2,9,8.3,14
				c2.1,2,4.2,4,5.2,7l3.1,3c11.4,15,11.4,33,7.3,49.6"/>
			<path class="st0" d="M1.8,693.7c0.9,1.5,1.8,3,2.7,4.5"/>
			<path class="st0" d="M23.8,583.9c-1.7,6.7-5.9,12.3-9.9,17.8c-4.3,5.9-6.8,11.9-10,18.4"/>
			<path class="st0" d="M176.7,818.9c0.7,1.5,1.7,3.5,3.8,4.5c12.5,5,22.8,13,35.3,18c7.3,2,14.5,3,20.8,7c19.7,13,41.5,19,64.4,25
				c11.4,3,21.8,8,30.1,18c8.3,11,11.4,23,15.6,36c3.1,10,7.3,18,13.5,27c2.1,4,2.1,8,1,12c-3.1,10-4.2,18-3.1,28
				c2.1,11,10.4,18,16.6,27c5.2,9,5.2,19,2.1,28.2"/>
			<path class="st0" d="M4.5,719.7c6.7,5.7,11.9,11.7,19.1,15.7c21.8,11,43.6,20,61.3,37c11.4,5,23.9,6,36.3,8
				c9.3,2,14.5,11,20.8,18c5.2,5,10.4,7,15.6,12c1,1,1,3,2.1,4c4.2,4,7.3,9,11.4,13c9.3,10,20.8,18,33.2,24c11.4,5,22.8,9,34.3,16
				c2.1,1,2.1,3,4.2,4c32.2,20,53,47,73.7,77c7.3,12,12.5,24,14.5,37c0,7-4.2,13-3.1,20c3.1,15,9.3,28,10.2,43.5"/>
			<path class="st0" d="M3.4,535.2c5.2-1.9,10.3-4,15.3-6.5c4.1-2,7.5-3.8,8-8.5"/>
			<path class="st0" d="M600.3,402.3c-19.6-0.3-38.3-0.3-58,1.7c-21.8,3-41.5,12-63.3,13c-13.5,0-28,3-40.5,12
				c-7.3,5-15.6,12-24.9,12c-30.1,1-60.2,6-91.4,5c-12.5-4-26-7-39.5-4c-18.7,3-35.3,7-54,8c-8.3,0-15.6,5-22.8,9l-3.1,3
				c-2.1,1-3.1,2-5.2,3c-12.5,4-26,7-38.4,11c-16.6,5-33.2,4-50.9,8c-13.5,3-23.9,10-36.3,17c-2.1,1-5.2,1-7.3,2
				c-8.3,4-13.5,11-22.8,13c-13.5,1-26,2-38.5,3.8"/>
			<path class="st0" d="M427.5,427.8c-20.5-5.6-200.3,1-198.6,8c-11.5,0.6-20,6.7-29.2,12.4c-13.8,8.5-29.6,12-46.5,9.9
				c-26.3-3.2-49.5,4.5-69.6,20.1c-6.4,5-9.7,13.2-16.6,18.1"/>
			<path class="st0" d="M711.7,306.5c-7.1,27.7,0,65-30.2,98.1c-14.8,16.2-65.8,1.8-81.2-2.3"/>
			<path class="st0" d="M767.7,308.3c0.7,11.4,11.2,18.9,13.2,36.4c5.1,30.2-26.8,93.2-66.8,101.8c-40,8.6-44.2,0.6-64-6.9
				c-14.8-5.5-30.4-7.5-46.2-9.2c-5.1-0.5-8.6,0.4-12.6,2.3"/>
			<path class="st0" d="M762.4,472.3c-18.8,14-22.2,19.1-46.1,16.3c-7.8-0.9-54.5-9.6-69.8-16.6c-3.6-1.7-7.5-4.4-11.5-7.4
				c-4.4-3.3-8.8-6.9-13.1-10"/>
			<path class="st0" d="M368.3,459c-6.8-5.1-14.6-1.9-21.7-1.6c-9.3,0.4-18.5,1.9-27.5,5.4c-13.3,5.1-27.4,3.6-41.4,2.8
				c-21.6-1.3-41.2,4.9-59.7,14.6c-4.4,2.3-8.6,4.2-13.6,3.5c-23.1-3.6-42.4,4-59.4,18c-8.3,6.8-18.3,10.8-28.6,11.4
				c-27.6,1.5-53.4,9.9-79.7,16.2c-7.8,1.9-16.5,4.4-21.1,12.3"/>
			<path class="st0" d="M809.1,356.8c-4.6,16.2-10.4,53.7-15.8,62.9c-5.4,9.2-26.4,35.2-48.4,37.2s-65.1,6.9-97.2-5.3
				c-10.4-3.9-21.2-10.6-33.4-5.4"/>
			<path class="st0" d="M407.6,444.3c-1.5,2.7-4.6,4.7-7.7,6.7c-14.5,8-31.2,9-45.7,15c-10.4,3-21.8,2-32.2,3
				c-11.4,2-20.8,9-31.2,14c-7.3,2-14.5,4-21.8,3c-18.7-4-35.3-1-51.9,6c-13.5,0-27,3-39.5,7c-9.3,4-19.7,8-28,14
				c-11.4,10-28,10-41.5,14c-10.4,4-16.6,17-28,16c-7.3,0-14.5-1-20.8,2c-9.3,5-19.7,7-31.2,7c-2.1,0-4.2,1-6.2,2
				c-5.2,2-9.3,5-14.5,6c-1,0-2.1,1-3.1,1.5"/>
			<path class="st0" d="M381.3,405.3c-14-5.5-53-8-66.2-14.8c-8.1-4.1-16.9-2.3-25.5-6.9c-8.6-4.6-19.4-9.4-27.9-8.9
				c-8.4,0.5-13.8,3-24,9.4c-3.2,2-11.8,5.6-19.2,16.7"/>
			<path class="st0" d="M63.3,488.8c7.8-8.3,10.4-20.1,19.5-27.5c16.3-13.3,34.3-22.5,56.9-19.3c6.8,1,13.6,0.7,20.4,1.9
				c7.5,1.2,16.4-0.3,22.1-5.1c9.4-7.9,20.7-10.2,32-12.9c7.2-1.7,13.1-5.3,18.1-9.9c10.5-13.7,25.2-14.7,43.6-17.8
				c10-1.7,170.6,17.2,184,21.4"/>
			<path class="st0" d="M111.1,676.8c3.7-20.4,23.7-25.2,39-17.9c21.3,10.3,37.8,26.2,51.3,45c4.7,6.5,9.7,12.8,12,20.6
				c2.6,9.1,0.5,19.1-8.2,26.1c-10,8.1-22.2,8.7-34,10.8c-1.2,0.2-2.9-1.4-4.3-2.2"/>
			<path class="st0" d="M251.2,861.4c5.1,8,11.3,14,18.6,20c12.5,9,26,13,38.4,22c11.4,9,19.7,20,23.9,34c6.2,23,8.3,44,14.5,67
				c0,1,2.1,3,2.1,4c-1,14,3.1,28,7.2,41.4"/>
			<path class="st0" d="M35.9,553.4c-7.1,10.9-19.3,15.3-31.1,20"/>
			<path class="st0" d="M169.4,753c-0.8,1.4-1.4,2.9-2.4,4.1c-11.9,15-12.7,19.6,0.5,32.6c12.1,12,25.7,23.1,43,27.8
				c12.6,3.4,24.2,4.2,36.7-4.6c9.8-6.9,19.3-14.8,33-17.9c27.2-6.1,49.6,2.7,71.4,15.4c22.4,13,34.6,33.3,37.9,57.6
				c1.2,8.7,2.2,19.6-8.7,25.5"/>
			<path class="st0" d="M390.1,944.1c5.3,0.3,9.5,5.3,13.6,8.3c2.1,2,2.1,4,4.2,6c27,24,49.8,57,43.2,92.8"/>
			<path class="st0" d="M225.8,523.3c-18.4,6.5-95.6,38.8-104.3,43.6c-19.1,10.6-33.6,26.5-51.2,38.7c-5.2,3.6-6.8,8-7.6,13.4"/>
			<path class="st0" d="M258.5,807.7c0.8,0.7,1.9,1.7,2.9,1.7c16.6-2,31.2-10,48.8-7c22.8,4,45.7,14,56.1,34c7.3,15,13.5,30,12.5,46
				c-2.1,26,3.1,52,15.6,75c22.8,25,55,56,40.8,93.4"/>
			<path class="st0" d="M238.4,819.6c8.9,9.7,20.4,6.3,31.3,6c20.4-0.6,39.1,4.9,55.6,16.1c17.7,12.1,32.8,31.6,41.3,50.5
				c3.5,1.2,7,2.3,10.5,3.5"/>
			<path class="st0" d="M261.8,948.7c-31.2,14.5-30.3,56.6-15.6,81.7c4.3,7.4,10.2,13.9,17.6,18.6"/>
			<path class="st0" d="M73.5,557.4c-20.6,2.2-39.3,15.7-54.2,28.7c-5.5,4.8-11,9.5-15.5,15.2"/>
			<path class="st0" d="M244.8,815.5c5.1,3.9,11,3.3,16.8,2.5c10.7-1.4,21.4-3.1,32.2-4.3c24.6-2.6,41,11,56.2,27
				c8.7,9.2,13.1,20.5,18.2,31.6c2,4.4,1.8,10.1,7.3,12.8"/>
			<path class="st0" d="M94.1,700.2c7.2-16.5,20.8-26.2,37.9-31.6c7.6-2.4,15.9-2.6,21.9,3.2c11.4,11,25.3,19.1,35.4,31.6
				c6.1,7.5,8,15.7,9.4,24.2c0.8,4.7-3.1,9.4-7.1,12.2c-6.4,4.5-13.6,8-20.4,11.9"/>
			<path class="st0" d="M388.8,952.1c-3.8,10.3,3.4,18.3,8.6,26.3c15.6,22,35.3,45,26.3,72"/>
			<path class="st0" d="M516.2,421.2c-11.8,1.2-19.1,3.1-26.4,5c-9.2,2.4-18,6.7-26.6,11.1c-6,3-12.5,5.9-20.1,6
				c-6.5,0.1-12.7,3.2-18.2,7.2c-11.1,8-23.9,12.8-37.5,15.7c-9.1,1.9-17.3,5.5-24.3,11.7c-2.2,1.9-5.8,3.3-9.7,3.8
				c-20.3,2.5-40.4,5.9-58.7,15.7c-6,3.2-14.2,2.7-20.4,3.8"/>
			<path class="st0" d="M297.5,926.7c-0.8,1.7-0.8,4.7-0.8,6.7c3.1,13,4.2,26,9.3,38c4.2,7,10.4,14,10.4,22c1,19,2.1,38,6.7,55.7"/>
			<path class="st0" d="M273,501c-17.1-0.8-32.6,4.2-47.6,11.2c-2.6,1.2-5.3,2.2-7.7,3.3c-32.4,15.7-95.7,33.8-103.8,42.9
				c-4.9,5.6-24.9,3.7-30.3,8.5"/>
			<path class="st0" d="M56.8,474.4c5.9-5.1,7.1-12.9,10.9-19.2c3.9-6.5,9-11.5,15.6-14.3c13.7-5.7,27.9-10.1,42.6-13.5
				c14.6-3.4,28.9-4,43.4-3c21.7,1.5,37.2-7.6,49-23.7"/>
			<path class="st0" d="M767.7,308.3c-11.9,9.7-41.4,124.9-83.1,120.7c-33.4-3.3-84.7-10.6-104.2-11c-4-0.1-8-0.6-10.8,2.9"/>
			<path class="st0" d="M152,853.4c2.5,1,3.5,3,3.5,5c-1,8,0,17,8.3,20c6.2,2,11.4,0,17.7,0c2.1,1,4.2,3,7.3,4h3.1
				c6.2-2,9.3-6,15.6-7c15.6-1,30.1,1,42.6,11c11.4,10,12.5,25,19.7,37c4.2,5,11.4,7,14.5,12c2.1,5,3.1,11,4.2,16
				c1,10,2.1,20,5.2,29c5.2,12,11.4,23,13.5,36c1,11,2.1,22,4.2,32.8"/>
			<path class="st0" d="M8.6,615.9c1.6,6.4-0.1,12.5-1.7,18.7c-1.6,6.1-2.8,12.3-4,18.5c-2,10.9-0.6,21,8,29.3
				c0.7,0.7,1.8,1.4,2.1,2.2c9.1,28.6,36.7,38.7,59.3,53c8.4,5.3,18.5,9.9,29.2,12.6c14.6,3.7,25.7,13.3,34,25.6"/>
			<path class="st0" d="M97.8,531.4c-24.5,5.7-50.2,3-74.6,8.9c-6.6,1.6-13.1,3.8-19.2,6.6"/>
			<path class="st0" d="M82.6,708.2c4.9-4.2,9.1-7.6,17.2-6.6c5.3,0.7,11.9-4.1,17.1-7.6c14.4-9.8,27.9-6.9,41.3,1.8
				c7.6,4.9,15.3,10.6,18.3,18.9c2.3,6.3,1.9,13.7-2.3,20.2c-3.1,4.8-6.1,9.8-4.8,15.9"/>
			<path class="st0" d="M3,762.5C12.6,768,22,773,31.3,777c26,9,51.9,18,77.7,24.8"/>
			<path class="st0" d="M409.3,467c-4,2.2-17.9,28.2-19,31.7c-3.3,10.2-2.7,20.5-7.3,35.3c-4.6,14.8-46.6,10.5-58.1,4.5
				c-25-11.8-53.2-4.2-65.9-3.6c-6.1,0.3-12.3,1-18.3,2c-14.3,2.4-23.5,10.4-29.8,23c-4.5,9-8.7,18.2-15.6,26.5
				c-8.1,9.7-18.5,11.6-29.5,14.6c-16.2,4.3-34,3.2-48.4,13.8c-6,4.4-13.6,5-21.8,2.8c-15.2-4.2-29.5,0.3-42.9,7.1
				c-2.6,1.3-4.3,4.1-7.8,3.3"/>
			<path class="st0" d="M19.6,665.7c2.7-4.6,3.3-7.1,6.2-13.3c1-2.3,4-6.9,7.1-11.3c7.5-10.8,12.9-22.3,22.6-31.4
				c12.7-12,23.7-25.7,38.2-35.9c5.6-4,12.1-6.9,12.5-15.2c0.1-2.4,2.7-5.3,5-6.9c16.7-11.2,31.4-25.6,53.6-27.8
				c18.3-1.9,34-11.1,49.3-20c12.7-7.5,25.9-8.2,39.9-5.4c0.8,0.2,1.4,1.4,2.1,2.2"/>
			<path class="st0" d="M2.6,770.3C13.7,777,24,785,36.5,793c17.7,11,38.4,11,57.4,17"/>
			<path class="st0" d="M68,561c-3.9,10.5-12.4,16.9-22,21.8c-20.1,10.2-27.4,27.8-30.7,47.6c-1.1,6.3-5.8,13.8,2,19.7"/>
			<path class="st0" d="M93.9,714.3c6.4-8,17.1-8,25.6-12.1c11.8-5.7,23.4-5.7,33.5,4.8c9.3,9.6,9.5,19.9,5.7,31.5
				c-2.3,7.2-5.5,15,2,21.8"/>
			<path class="st0" d="M83.7,567.3c-7.5,1.9-13.5,6.1-17.4,12.4c-5.7,9.4-14.1,15.9-23.8,20.8c-8.6,4.4-13.8,9.8-14,19.9
				c-0.1,7.8-5.2,14.6-7.5,22c-2.6,8.2-2.5,16.2-3,24.3C17,683.8,36.4,700.2,50.7,706c6.6,2.7,13.7,5.3,21.2,2.9
				c10-3.2,17.6,4,23.6,8.3c6,4.3,11.9,5.7,18,6.3c20.6,2.3,33.6,15.7,33,35.5"/>
			<path class="st0" d="M226.5,523.3c17.4-4.4,50.9-4.7,68.8-4c18.3,0.7,34.5-4.2,48.9-17.6c14.1-13.1,32.9-21.3,48-33.9
				c3.5-2.9,11-6.4,17-0.8"/>
			<path class="st0" d="M277.9,956.4c-0.9,1-2,1-2,2c-2.1,10-1,20-3.1,30c-2.1,22,0,45,17.7,60.2"/>
			<path class="st0" d="M271.3,926.7c-5.7,6.7-9.9,17.7-6.8,26.7c-4.2,25-14.5,49-5.2,74c4.2,8,11.4,14,17.1,21.2"/>
			<path class="st0" d="M4.3,737.5C20.9,749,40.7,757,60.4,766c21.8,10,39.5,26,60.2,39c7.3,4,15.6,6,22.8,9c2.1,2,4.2,3,7.3,5
				c8.3,6,13.5,13,18.7,21c1,16,18.7,22,32.2,26c2.1,1,4.2,3,6.4,4.7"/>
			<path class="st0" d="M137.5,422.3c-2.6-0.8-4.3-3.3-7.4-3c-19.6,2.3-39.7,2.2-57.8,11.2c-19.7,9.8-27,22.5-16.7,43.7
				c4.1,8.4,10.8,17,9.5,27.5"/>
			<path class="st0" d="M497.7,461.1c5.3,6.5,16.5,16.1,19.8,23.4c5.5,12.1,5.5,25.5-0.2,37.6c-4.9,10.2-19.4,9.5-31.1,0.8
				c-14.4-10.7-19.5-25.3-21.3-41.3c-1-8.3-3.7-15.1-9.4-21.4c-6.2-6.9-11.4-8.8-19.8-5.1c-7.1,3.1-14,7-21,10.3
				c-1.7,0.8-3.7,0.9-4.6,3"/>
			<path class="st0" d="M64.1,714.5c8,10.5,21.4,10.3,32.3,15.1c3.7,1.6,8.1,2.2,12.3,2.4c13.4,0.7,21.4,7.9,28.4,18.3
				c4.8,7.2,9.9,16,21.2,16.2"/>
			<path class="st0" d="M274.7,930.7c4.5,31.8,15.9,62.1,21.9,93.6c1.6,8.4,3.2,16.8,6.3,24.8"/>
			<path class="st0" d="M191,884.3c-7,14.5-21.1,18-35.6,19.8c-13.2,1.6-25.6-3-37.8-7.3c-6.4-2.3-10.3-12.1-7.6-18.2
				c2.9-6.7,10.4-10.9,18.7-10.6"/>
			<path class="st0" d="M522.4,492.2c2.3,0,4.2,0.9,5.2,2.8c10.6,20.2,14.3,39.8-5.2,55.9c-3.1,2.6-6.9,3.6-11.2,3.8
				c-18.7,1-41.2-20.6-39.4-40c0-0.5,1.2-0.8,1.8-1.2"/>
			<path class="st0" d="M2.7,782.6C23,795,40.7,816,66.9,817.2"/>
			<path class="st0" d="M496.4,456.5c5.7,14.3,7,29.5,9.3,44.4c0.9,5.6-8.1,9-13.3,5.7c-8-5.1-13.7-12.1-17.7-20.5
				c-1.9-4-4.6-6.9-9.5-7.3"/>
			<path class="st0" d="M89.3,745.5c8.7-5.6,22.3-3.3,32.2,5.5c7.8,7,15.4,14.1,23.1,21.1c3.1,2.8,5.9,6.1,10.9,4.8"/>
			<path class="st0" d="M164.9,590.5c12.3-4.9,20.4-13.8,27-24.5c5.5-9,12.9-16.3,24.3-18.4"/>
			<path class="st0" d="M99.6,716.2c9.3-1.5,18.5-3.2,27.8-4.5c8.2-1.2,14,2.7,17.2,9.4c3.6,7.8,4.2,16.1,0.8,24.2"/>
			<path class="st0" d="M162.2,591.2c-7.3,0.8-14.6,1.6-21.9,2.3c-8.1,0.8-15.2,2.7-20.6,9.5c-5.3,6.6-14.9,8-21.3,13.5"/>
			<path class="st0" d="M155.8,827.2c0.6,9,2.9,18.2-4.7,25.7c-5,5-11.4,8.2-16.9,12.4c-5.5,4.1-9.4,8.7-9.7,14.4
				c-0.3,6.8,6.1,9.3,12.4,11.4c7.5,2.6,15.1,4.5,22.9,5.6c2.8,0.4,5.2,1.6,6.9,3.8"/>
			<path class="st0" d="M184.4,881.8c-8.4,5.4-18.2,6.3-27.9,6.5c-11.8,0.3-17.5-9.2-12.4-19.6c1.3-2.7,3.6-5,2.6-8.4"/>
			<path class="st0" d="M158.1,844.8c4.5,1.6,5.8,5.4,7.2,9.3c3.2,9,9.7,13.9,19.7,15.2c5.6,0.7,11.4,2.2,15.3,7"/>
			<path class="st0" d="M136,794.7c-9.3-1-18.3-3-26.3-7.8c-7.1-4.2-14.5-5.3-22.5-4.5"/>
			<path class="st0" d="M3.7,747c24.5,16.1,52.5,30.1,82,38"/>
			<path class="st0" d="M534,519.2c-3,3.8-3.9,8.4-6.2,12.7c-7.7,14.5-19.4,15.7-39.8,5.7c-2.8-1.3-9.1-3.4-12.1-6.5"/>
			<path class="st0" d="M114.9,807.3c-3.1,6.3-14,4-19.8,4.8c-8.3,1.1-16.3,3.6-24.1,6.3c-16,5.5-31.6,9.4-48.7,6
				c-7.7-1.6-15.7-4.4-20.9-10.4"/>
			<path class="st0" d="M2.2,801c9.4,7.3,20.6,12.7,28.5,21.7"/>
			<path class="st0" d="M125,539.6c-11.1-2.7-20.7,0.2-29.2,7c-6,4.8-13.9,5.8-20.4,9.6"/>
			<path class="st0" d="M621.9,454.7c-6-5.8-13.8-9.2-20.4-13.9c-10.6-7.6-24.6-9.3-33.3-19.4c-1.6-1.8-4.4-3.3-6.9-3.7
				c-15-2.5-31-1.9-44.1,2.9c-11.7,4.2-24,14.6-22.1,30.7c1,8.5-6.6,13.5-7.3,21.4c-0.3,3.9-9.2,3.6-14.3-0.3
				c-2.9-2.2-4.4-6.9-9.6-5.1"/>
			<path class="st0" d="M446.7,453.2c9-0.7,32.8-13.3,39.8-17.5c4.2-2.5,7.1-3,10.9-0.5"/>
			<path class="st0" d="M494.6,442.4c-6.7,14.7-19.5,17.8-34.5,16c-1.8-0.2-1.2,1-1.8,1.3"/>
			<path class="st0" d="M59.6,510.8c2.9,4.8,9.4,3.5,13,7"/>
		</g>
		<path class="st0" d="M1213.4,61.5c-6.1,2.7-8.4,7.5-9.3,13.6c-4,25.6-5.4,51.2-3.9,77c1.8,31.9-0.8,63.8-7.2,95.1
			c-8.7,42.5-35.5,71.9-76.1,89.9c-17.1,7.6-34.7,13.9-53.1,18.4c-14,3.5-24.3,14.2-37.4,19.7"/>
		<path class="st0" d="M1194.4,3.2c-7.3,9.8-15.6,19.8-24,28.8c-7.3,7-17.7,10-27,14c-2.1,1-3.1,4-5.2,6c-3.1,2-5.2,5-7.3,7
			c-12.5,8-21.8,17-27,30l-3.1,9c-3.1,24-5.2,46-11.4,69c-2.1,5-5.2,9-8.6,14.5"/>
		<path class="st0" d="M1176.4,111.3c-2.4-3.3-4.8-1.3-5.4,0.9c-3.9,14.5-15.5,24.9-22.3,37.9c-4.7,9-4.1,18.8-7.3,28
			c-1.9,5.4-3.3,10.8-6.2,15.9c-6.8,12.3-12.8,25.1-19.3,37.6c-6,11.7-14.3,21.1-28.2,23.9c-5.7,1.2-10,4.1-14.5,7.6
			c-20.6,15.9-42.3,29-70.5,25c-12.2-1.7-23.1-8.3-35.8-7.8c-13.6,0.6-25.5-4.8-36.9-10.9c-4.2-2.3-7.2-6.7-11.4-9
			c-27.8-15-55.2-30.6-87.4-36.5c-16.5-3-32.7-4.2-49.3-2.5c-16.9,1.7-31.1,10.7-46.2,17.2c-3.1,1.3-5.8,3.7-9.3,4"/>
		<path class="st0" d="M1217.8,66.9c-4.8,2.4-7.2,6.9-7.3,11.3c-0.9,33.1-1.6,66.2,4.7,98.9c7,36.1-1.9,68.9-22.4,99.6
			c-9.4,14-16.7,29.4-27.1,42.6c-17.2,21.9-34.5,44.3-63.1,54c-7.9,2.7-16.1,3.2-24.3,2.9c-21.3-0.8-41.3,3.9-60.3,13.2
			c-1.5,0.7-2.5,2.1-3.8,3.2"/>
		<path class="st0" d="M1019.7,334.6c-14,7.5-32.3,15.3-46,23.3c-18.8,11.2-36.8,24-56.6,33.4c-21.8,10.3-53.2,22.2-67.3,3.4
			c-9.4-12.5-12.9-19.4-43.7-19.5"/>
		<path class="st0" d="M1240.5,6.7c-5.7,5-10.6,11.8-15,20.4c-5.9,11.5-11,24.3-7.2,37.7c2.1,7.5,3.9,14.9,3.3,22.7
			c-0.6,6.9,0.9,13.4,5.1,18.9c1.4,1.9,2.8,4.1,2.7,5.8c-1.5,14.5,7.1,25.5,13.7,36.8c15.4,26.2,17.4,53.2,6,80.9
			c-5.3,12.8-13.5,24.4-20.4,36.6c-1,1.7-3,2.6-2.8,5.2c1,13-8.8,20.4-16.9,28.4c-14.5,14.3-26,30.1-33.2,49.2
			c-6.5,17.3-15.6,33.4-30.9,45.8c-23.1,18.7-49.1,25.4-78.3,20.4c-19-3.3-37.8-7.2-56.8-10.4c-2.9-0.5-5.7-0.6-8.1-2.4"/>
		<path class="st0" d="M1214.8,3.4c-5.4,7.9-11,16.1-17.4,23.3c-10.5,11.8-24.7,21.1-37.5,30.5c-13.6,10-27.5,19.8-37.7,33.3
			c-10.2,13.4-14.8,28.2-18.3,44.3c-2.3,10.8-4.7,21.7-7.2,32.5c-1.7,7.6-2.5,18.6-12.2,20.6"/>
		<path class="st0" d="M975.1,330.3c-2.3-1.1-30.9-5-49,2.8c-22.4,9.6-70.1-32.4-82.2-33.2c-40-2.5-73.6,4.8-76.2,8.4"/>
		<path class="st0" d="M1160.6,133.5c-0.6,29.9-6.6,58.4-24.9,83.6c-5.2,7.1-7.5,16.1-7.9,23.8c-1.6,28-19.5,43-42.6,54.6
			c-7,3.5-14.5,6.2-22.1,8c-9.8,2.4-18.3,6.9-26.4,12.4c-10.9,7.4-23.6,12.3-35.7,10.7c-16.1-2.1-25.7,5.7-36.3,14.2
			c-13.9,11-13.7,14.7-24,21.1c-7,4.3-11.3,12.1-42.6,1.2c-22.9-8-49.3-25.1-68.2-26.9c-5.9-0.6-17.2,3.1-20.8,20.7
			c0,0,18-4.5,51,12c33,16.5,55.6,18.7,63.6,16.8"/>
		<path class="st0" d="M1387.3,8.9c5.9,6.4,4,14.9,5.8,22.4c3.3,13.9,3.4,28.5,1.5,42.6c-1.2,8.9-7.5,16.8-15.4,22.1
			c-17.8,11.9-36.5,13.3-56.5,5.3c-17.2-6.9-32.9-31.7-29.2-49.6c2.8-13-1.2-30.7-4.4-43.2"/>
		<path class="st0" d="M1172.8,101.6c-21.8,14.2-30.5,35.6-35.8,59.2c-5.3,23.8-17.4,43.4-37.4,59.3c-8.5,6.8-17.5,13.9-23.8,23.4
			c-6.8,10.2-18,15.9-29.6,19.2c-8.4,2.4-15.8,5.9-23.3,9.8c-7.7,4-16.1,6.7-25,7.4c-2.8,0.2-6.2-0.9-8.1,2.5"/>
		<path class="st0" d="M1192.8,314.9c-0.7-12.2,5.6-22.4,11.5-32.3c7.9-13.1,17.6-25.3,22.8-39.7c8.3-23,12.4-46.4,6.4-70.5
			c-4.7-19.3-9.4-38.6-14.5-57.9c-1.4-5.5-0.2-9.3,4.6-12.3"/>
		<path class="st0" d="M1384.1,137.6c-14.8,20.1-47.9,20.9-68,10.4c-22.1-11.7-38.4-27.9-48.9-49.6c-10.1-21.1-5.9-41.6,6.5-60.8
			c2.8-4.3,4.7-8.9,6-13.5c1.8-6.3,5.1-11.3,9.1-16.3"/>
		<path class="st0" d="M1152.2,284.8c-11.9,9.3-23,19.7-37.1,26c-21.4,9.5-42.8,19-64.4,28c-19.7,8.2-37.3,19.5-51,35.3
			c-7.2,8.3-13.5,17.3-21.1,25.5c-20.1,21.5-42.4,39.9-70.2,51.3c-21.7,8.9-43.5,9.6-65.4,2.1c-5.9-2-11.4-5.3-16.8-8.4
			c-3.7-2.1-6.8-5.4-11.5-5.7"/>
		<path class="st0" d="M1417.5,73.3c-5.5,5.2-4.9,12.6-6.7,18.9c-6.1,21.2-21.5,32.8-40.8,41.4c-42.4,18.9-88.1-21.3-91.2-53.3
			c-1.4-14.7,3.1-28.7,7.5-43.3c1.4-4.7,3.9-7.9,6-11.2"/>
		<path class="st0" d="M1408.8,38.5c-5,4.2-3.7,9.5-2.7,14.7c8.1,45.9-30.2,81.1-77.4,68.8c-19.4-5-30.1-19.2-39.2-35.1
			c-3-5.2-5.8-10.5-8.7-15.8"/>
		<path class="st0" d="M1167.5,202.7c-4.7,18.1-8.5,36.4-16.5,53.7c-11,23.6-27.9,41-52.7,50.6c-10.9,4.2-22.1,7.9-33.9,9.5
			c-14.7,2-27.1,10.1-39.9,16.7c-1.4,0.7-3.1,1-4.7,1.4"/>
		<path class="st0" d="M995,377.8c-11.4,1.9-16.9,11.9-25.6,17.6c-24.3,15.9-47.3,34-75.8,42.4c-20.8,6.2-40.6-0.7-60.3-5.9
			c-8.7-2.3-15.7-9-25.3-8.5"/>
		<path class="st0" d="M1180.4,72.5c-6.3-2.1-7.8,4.1-10.9,6.6c-19.7,16.3-33.6,36.8-42.7,60.1c-11.6,29.9-27.4,57.5-48.6,82.2
			c-1.1,1.3-3,1.9-4.5,2.8"/>
		<path class="st0" d="M1160.2,328.6c-7.1,44.2-30.3,72.3-81.9,71.8c-12.7-0.1-24.5-3.6-36.8-5.1c-7.6-0.9-15.5-3-22.6-0.3
			c-4.7,1.8-4.5-5.3-8.2-1.6c-0.5-4.6,1.2-7.5,3.4-10.4c13.3-17.4,30.9-30.2,50.9-38.6c20-8.4,39.1-18.6,58.7-27.6
			c14.2-6.5,24.5-16.6,30-31"/>
		<path class="st0" d="M741.6,216.4c0.7,0.1,1.6,0.6,2.1,0.3c48.2-25.3,93.4-16,137.3,9.6c2.8,1.6,5.2,4.3,9,1.2
			c-7.4-10.8-19.1-16.7-29.4-24c-16.1-11.4-35-17.7-54.6-19.6c-24.5-2.4-44.1,9.8-62,24.6c-3.6,13.3-18.4,19.7-21.6,33.8
			c-1.3,5.9-8.7,57-10.7,64.1"/>
		<path class="st0" d="M1049.7,306.5c-8.6-5.1-61.7-4.7-71-7.8c-8.7-2.9-18-5.1-25.2-10.4c-8.7-6.4-19.7-7.1-28.2-12.8
			c-16.5-11-34-19.1-53.8-22.5c-12-2.1-24.5-2.9-35.8-7.7c-8-3.4-15.4-8.2-24.2-9.9c-16.4-3.2-32-2.2-46.4,7.5
			c-2.4,1.6-42.9,24.2-44.9,25.9"/>
		<path class="st0" d="M1378.9,39.8c2.9,2.1,5.1,3.8,5.5,8.4c1.2,14.2-2.2,27-12.8,36.4c-12.6,11.2-30.3,13.5-45.8-0.4
			c-16.5-14.9-17.5-34.7-16.7-54.8c0-0.8,1.1-1.5,1.7-2.3"/>
		<path class="st0" d="M1175.2,108.1c4.6-20.1,6.7-40.1,19.2-58c10.4-16,20.8-31,30.9-46.5"/>
		<path class="st0" d="M1009.3,392.8c-17,15.3-33.4,31.4-51.4,45.5c-12.2,9.6-18.3,24.1-31,32.9c-20.2,14-41,20.6-66.8,14.2
			c-13.8-3.4-29.3,20.2-38.2,11.8c-1.4-1.4-36.4-46.9-59.5-24.9"/>
		<path class="st0" d="M937.1,458.1c-10.7-0.4-18.6,7.2-28.3,9.7c-23.6,6.1-46.2,6.9-69.4-3.5c-19.4-8.7-26.9-23.6-32.2-41.3
			c-5.3-17.7-2.5-45.5-1.1-47.8"/>
		<path class="st0" d="M1231,116.8c1.3,0.9,3.4,1.6,3.8,2.9c4.4,12.6,14.8,21.4,22,32.1c1.2,1.8,3,3.5,4.9,4.7
			c16.4,10.1,21.5,25.8,21.8,43.2c0.3,15.3-2.9,30-14.7,41.9c-2.3,2.3-4,5.1-7.8,5.2"/>
		<path class="st0" d="M1321.9,4.7c13.7,11.3,31.3,13.3,48,6.3c1,0,1,1,2.5,1.5"/>
		<path class="st0" d="M1377.9,45.1c-1.2,9.8-5.2,19.5-12.3,26.7c-6.9,6.9-17.6,12.4-27.6,8.7c-10.8-3.9-15.7-15.3-15.9-25.7
			c-0.1-6.2,0.8-12.5-0.8-18.6c-1.4-5.3-6.5-5.6-9.8-9.4c-7.1-8-10.3-19.1-22.8-20.7"/>
		<path class="st0" d="M1121.1,39.8c-7.5,6.7-16.7,2.6-24.9,3.4c-19.9,1.8-29.8,11.8-29.6,30.7c0.1,9.7,2.7,20-3.6,29.4
			c-1,1.6,0,5.1,0.8,7.9c3.5,12.4,6.4,24.9,9.4,37.5c1.8,7.5,5.2,14.8,2.3,23c-0.9,2.4,0.1,6.7,1.9,8.3c7.5,6.6,3.9,13.3,1.5,20.4
			c-2.5,7.8-7.7,14.9-7.1,23.5c0.1,2.2-1.8,2.7-2.8,4c-7.8,9.6-15.9,19-25.2,27.2c-2.8,2.5-3.1,5.1-4.3,7.7"/>
		<path class="st0" d="M1084.7,170c-3.2-10.5,0.1-21.2-0.9-31.9c-1.3-13.5,0.4-27.3,0.5-41c0.2-18.7,8.2-35.8,31.2-42.2
			c6.4-1.8,12.6-3.7,19-5.5"/>
		<path class="st0" d="M1061.3,103.2c-12.9-10.3-17.9-24.8-22.3-39.7c-4.7-16.1,10.5-36.1,34.6-34.1c8.4,0.7,17-1.4,25.5,0.6
			c13.5,3.1,25.3,11.2,39.4,12.6c1.1,0.1,2.8,1.1,2.6,2.9"/>
		<path class="st0" d="M1180.5,166.2c-2.9,13.6-3.9,66.1-7.9,79.4c-4.1,13.7-9,26.9-18.4,38.2"/>
		<path class="st0" d="M1227.8,279c11.4-8.2,21-18.1,29.7-28.9c4.2-5.3,3.5-11.7,5.8-17.3c9.6-23.2,11-46.1-1.1-68.8
			c-0.8-1.5-0.6-3.5-0.9-5.3"/>
		<path class="st0" d="M1375.1,16.9c-1.7,7.7-6.3,14.2-7.2,22.7c-1,10.3-18,13.8-30.4,10c-8.9-3.3-10.9-13.4-17.2-15.7"/>
		<path class="st0" d="M1167.5,202.7c2.8-12.8,19.1-45.8,17.8-58.6c-1.2-11.1-1.4-22.2-1-33.2c0.2-5.4-2.1-8.6-6.1-11.4"/>
		<path class="st0" d="M1073,30.5c-4.7,6.5-13,9-17.6,16.1c-4.9,7.6-7.3,14.7-4.2,23.3c2.4,6.8,4,13.9,6.1,20.9c0.6,2,0.1,3.6-1.4,5
			"/>
		<path class="st0" d="M1365.5,32.6c-15.2,8.4-27,3.7-38.3-7.7c-5-5.1-10.8-10.8-19.1-11.7"/>
		<path class="st0" d="M1332.3,12c2.9,9.3,14.6,13.5,26.7,10.1c6.3-1.7,11.4-4.8,15.5-9.4c3.1-3.5,7-5.6,11-7.7
			c2.6,3.7,0.6,7.1-1.6,9.7c-2.5,3-3.4,6.8-3.1,9.5c1.7,14.7-10.8,25.2-17.4,33.8c-8.2,10.6-28.2,11.5-36.6,5.5"/>
		<path class="st0" d="M1417.2,94.5c5.8-10.9,1.4-22,0.6-32.8c-0.7-9.3-2.6-17.9-8.9-26.2c-7.1-9.4-8.2-22-8.4-34"/>
		<path class="st0" d="M911.1,252.6c-5.2-9.9-14.2-16.3-22.3-23.6"/>
		<path class="st0" d="M1178.5,171.9c-0.9-10.6-4.5-48.2-2.5-58.5"/>
		<path class="st0" d="M657.7,412.1c0,0,10.1,10,28.7,0c18.6-10,34.9-32.1,38.4-75.7s-4.4-69-4.4-69c7.2,8.7,14.9,16.3,27.9,16.5
			c8.5,0.1,16.9,0.6,25.3-1.1c11.8-2.4,23.8-3.7,35.8-2c23.4,3.3,46.3,9,68.8,15.8c14,4.2,27.7,7.4,42.6,5.2
			c6.5-1,15.2-7.6,21.7-8.5c8.8-1.1,8.9-2.9,11-5"/>
		<path class="st0" d="M743.2,283.4c0,0,2.8,20.7,2.4,32.3s-16,72.5-25.3,79.3s-18.5,30.7-39.7,28.8c-21.2-1.9-42.4-11.6-42.4-11.6"
			/>
		<path class="st0" d="M720.3,268.7c0,0,40.9-14.1,69.4-14c11.4,0,34.6,3.4,49.5,11.5c0,0,3.5-6.2,31.3-3.4
			c27.8,2.8,79.6,26,79.6,26s-77.4,2.8-99.2-11.2c-6.9-4.5-11.6-11.5-11.6-11.5S813.3,281.9,720.3,268.7L720.3,268.7L720.3,268.7z"
			/>
		<path class="st0" d="M774.3,325c28.9-16.4,65.3-2,79.3,18.2"/>
		<path class="st0" d="M770.1,317c0,0,26.4-13.2,57.8-8.7s69.8,39.8,72.1,45.3s17.3,14.4,17.3,14.4"/>
		<path class="st0" d="M900,353.6c0,0,38.1,6.2,56.4-23.1"/>
		<path class="st0" d="M805.6,394.7c0,0,12.4,19.5,50.5,25.7c38.2,6.1,76-19.9,76-19.9l87.6-46.3"/>
		<path class="st0" d="M635,464.6c0,0,59.2,22.7,122.3-2c37.7-14.7,48.3-46.1,48.3-46.1"/>
		<g>
			<path class="st0" d="M2001.5,99.6c-20,1.4-36.6,9.4-53.2,20.4c-14.5,10-22.8,23-38.4,32c-9.3,5-18.7,8-28,14
				c-7.3,6-13.5,11-20.8,17c-11.4,7-22.8,13-36.3,11c-13.5-8-29.1-7-43.6-7c-6.2,0-12.5-1-17.7-4c-8.3-5-16.6-12-26-15
				c-15.6-5-31.2-4-46.7-5c-21.8-2-38.4-16-50.9-34c-6.2-9-15.6-14-27.2-14.7"/>
			<path class="st0" d="M1976.4,100.8c-1.2-0.2-2.7-0.9-3.5-0.5c-15.8,8.2-33.9,12.1-47.5,24.6c-5,4.6-12,6.7-18.9,8.5
				c-10,2.7-18.6,8.7-27.2,14.1c-10,6.2-18.4,14.9-28.4,21.2c-14.5,9.2-30.9,10.9-47.2,6c-15.5-4.7-30.2-11.7-47.1-11.8
				c-6,0-10.1-3.4-14.1-8.2c-11-13.5-24.5-22.4-44.2-20.7c-13.2,1.2-24.5-4.4-33.1-14.4c-17.2-20.1-40.7-25.2-66.4-25.4
				c-2.4,0-3.9,1.3-5.8,1.7"/>
			<path class="st0" d="M2001.9,89.6c-21.4,2.4-43.2,2.4-64,10.4c-9.3,4-16.6,12-26,16c-10.4,4-19.7,8-31.2,10c-6.2,2-11.4,2-16.6,3
				c-16.6,1-33.2,2-49.8,4c-18.7,2-36.3-3-56.1-7c-8.3-1-15.6-7-21.8-12c-9.3-7-18.7-12-30.1-15c-2.1-1-4.2-2-7.3-3s-5.2-2-7.3-4
				c-6.2-5-10.4-11-17.7-14c-12.5-4-26-6-37.4-14c-20.8-15-27-38-40.4-58.5"/>
			<path class="st0" d="M1896.7,133.4c-12.9-1.4-24.3,1.6-35.7,4.6c-8.3,3-16.6,8-24.9,12c-17.7,7-36.3,7-54,0
				c-23.9-10-46.7-21-70.6-31c-5.2-6-12.5-8-18.7-10c-18.7-8-36.3-14-55-21c-3.1-1-6.2-1-8.3-2c-3.1-2-7.3-2-10.4-4
				c-1-1-2.1-1-3.1-2c-12.5-21-17.7-43-29.1-64c-1-3-3.1-7-6.6-10.4"/>
			<path class="st0" d="M2001.4,111.8c-19.7,3.1-40.3,9.6-53.5,24.9c-13.9,16.1-4.8,38-11.9,56.5c-6.5,16.9-19.9,30-35.8,38.9
				c-18,10.2-38.4,17.4-59.6,14.9c-11.2-1.3-22-5.1-31.8-10.3c-6.5-3.5-13.7-7.8-15.5-15.3c-0.5-2.1-0.5-4.3-0.3-6.4"/>
			<path class="st0" d="M1745.2,192.1c-3.4,4-7.4,4.9-13.1,5c-14,0.1-27.8,3.5-42,3.4c-21.7-0.1-42.3-3.5-60.7-15.3
				c-5.4-3.4-9.9-8.3-12.4-13.4c-4.9-10.1-12.3-18.8-16.6-29.2c-3.2-7.8-4.8-15.1-1.9-23.1"/>
			<path class="st0" d="M1937.3,170.9c-6.1,1.9-6.7,7.5-8.5,12.1c-6.1,15.1-12.8,30-27.7,38.9c-19.6,11.7-40,21.5-64,12.4
				c-10.2-3.9-22.3-5.7-30-12.3c-7.5-6.4-16.1-10.6-23.7-16.4c-8.6-6.6-19-8.8-28.7-12.6c-22.2-8.8-44.7-3.7-67.1-2.8
				c-29.9,1.1-49.8-12.8-65.4-36.1c-7.7-11.6-11.2-25.6-22.5-35.1c-1.1-0.9-2.1-2.9-2-4.2c2.1-16.1-8.7-24.8-21.7-28.7
				c-13.8-4.1-19.8-12.6-25.2-23.9c-5.2-10.9-12.6-20.8-16.4-32.5c-2.2-6.9-2.5-13.3-1.5-20.1"/>
			<path class="st0" d="M1939.2,148.2c-13.4,1.1-17.4,12-23.6,20.7c-11.6,16.1-27.3,27.5-46.5,33.6c-20.6,6.5-45.9,6.7-66.7,2.1
				c-3.1,2-6.1,4-9.2,6.1"/>
			<path class="st0" d="M1817.3,89.9c3.2-17.8-6.2-34.8-20.7-45.8c-4.2-3-7.3-5-11.4-7c-12.5-5-26-10-40.5-8
				c-21.8,4-40.5,16-58.2,27c-20.8,7-41.5-5-55-21c-7.3-9-1-20-0.6-29.5"/>
			<path class="st0" d="M1938.8,155.7c-6.3,1.6-9.2,6.6-12.1,11.5c-5.2,9.1-10.1,18.5-15.5,27.5c-12.4,20.7-33.5,25.3-55.9,27.5
				c-12.9,1.3-24.9-1.9-37.2-4.6c-4.9-1.1-9.5-4.6-15-1.9"/>
			<path class="st0" d="M1739.2,186.3c-1-3.1-3.3-3.6-6.4-4.7c-15.7-5.8-32.2-3.8-48.3-4.8c-28.2-1.8-48.5-13.4-58.6-40.1
				c-3.4-9.1-11.1-16.7-16.7-25c-2.6-3.8-6.5-3.8-10.5-3.8"/>
			<path class="st0" d="M1814.6,130.6c-0.4-0.9-0.6-2.3-1.2-2.5c-16.1-5.9-29.8-17.4-48.5-17.7c-9.8-0.1-19.1-3.5-26.7-10
				c-16.2-14-36.8-20.2-56-28.8c-5.5-2.4-11.2-5-9.2-12.6"/>
			<path class="st0" d="M2072.1,651.6c2.4-3.1,5.3-5.8,4-10.1"/>
			<path class="st0" d="M1962.2,61.2c-4.3,2-6.3-0.2-9.4-3.1c-7.7-7.2-19.6-4.7-24.8,4.5c-2.2,3.9-3.4,7.7-9.3,8.5
				c-3,0.4-5.1,3.5-5.1,8c-0.2,22-34,47.4-58.8,37.3c-6-2.4-12.8-2.9-19.3-4.2c-1.9-0.4-4.3-1.3-5.7-0.5
				c-14.2,8.1-25.6-0.9-36.5-6.4c-10.4-5.2-20.6-9.9-32.1-11.8c-15.2-2.4-28.4-9.4-41.3-16.6c-6.6-3.7-12.9-7.8-20.2-9.6
				c-6.3-1.6-9.7-5.2-11.5-10.8"/>
			<path class="st0" d="M1801.4,97.8c0.4-6.3-6.2-7.3-9.5-10.3c-10.4-9.3-21-19-33-26.1c-14.7-8.7-31.4-11.6-48.8-7.2
				c-3.6,0.9-7.4,1.2-11.2,1.8"/>
			<path class="st0" d="M1830.2,110.3c-2.7-8.7-7.7-15.9-16.1-20c-9.1-4.4-13.7-12.7-19.9-19.6c-12.2-13.5-25.1-26-44.5-29.5
				c-10.1-1.8-20.2,1.5-30.3,0.7"/>
			<path class="st0" d="M2001.5,76.9c-15.9,7.2-32.5,6.2-50.2,3.2c-10.4-2-18.7,5-27,11c-3.1,1-5.2,4-9.9,3.4"/>
			<path class="st0" d="M1824.8,110.5c-24.7-13-51.2-22-77.1-32.2c-15.6-6.1-29.8-15.2-46.9-17.9c-1.9-0.3-1.8-2-2.5-3.1"/>
			<path class="st0" d="M1913.2,73.1c-7.9-14-2.5-27,4.6-39.3c6.5-11.2,17.7-18.1,28.6-25c5.7-3.6,16.2-0.8,19.7,4.9
				c3.9,6.3,3,14.5-2.3,20.8"/>
			<path class="st0" d="M1612.1,76.1c-22.1-3-28.4-28-40.8-43c-8.3-8-17.7-16-18.8-27.6"/>
			<path class="st0" d="M1560.4,79.8c-14,4.2-25.5-7.8-34.8-16.8c-4.2-5-8.3-11-9.3-17c-1-14,0-28,8.9-40.5"/>
			<path class="st0" d="M1573.2,81.5c0.2-3.5-0.9-5.5-1.9-8.5l-12.5-27l-3.1-3c-2.1-6-8.3-9-10.4-14c-3.1-8-6.2-16-11.1-23.4"/>
			<path class="st0" d="M1981.8,79.7c-7.9-4.8-16.9-8.6-18.7-18.9c-1.2-6.8-0.1-13.7-0.3-20.5c-0.2-6.7-1.7-12.5-6.3-16
				c-5.5-4.3-11.4-0.8-16.9,2.8c-6.6,4.3-12.7,9.1-18.3,14.4c-2,2-4.4,3.1-7.3,3.1"/>
			<path class="st0" d="M1919.2,69.5c0.5-9.7,5.6-17.9,11.1-25.5c6.8-9.3,18-8.1,23.7,2c1.5,2.6,2.1,5.8,5.5,7"/>
			<path class="st0" d="M1552.8,70.6c-15.8-7.5-23.8-21.1-29.6-36c-1.1-2.8-2.9-4.4-4.5-6.4"/>
			<path class="st0" d="M1603.8,14.1c3.8-2.1,2.8-5.1,2.4-8.5"/>
			<path class="st0" d="M1965.7,71.1c-4,2.5-8,1.3-12,0.1c-9.4-2.8-17.4-0.7-24.4,6.3c-3.9,3.9-8.6,7.6-14.9,7.7"/>
		</g>
	</g>
</g>
</svg>
