<?xml version="1.0" encoding="utf-8"?>
<!-- Generator: Adobe Illustrator 28.1.0, SVG Export Plug-In . SVG Version: 6.00 Build 0)  -->
<svg version="1.1" id="Layer_2_00000003814994997189769130000002715238360525629361_"
	 xmlns="http://www.w3.org/2000/svg" xmlns:xlink="http://www.w3.org/1999/xlink" x="0px" y="0px" viewBox="0 0 1684.7 883.2"
	 style="enable-background:new 0 0 1684.7 883.2;" xml:space="preserve">
<style type="text/css">
	.st0{fill:none;stroke:#E57221;stroke-width:3;stroke-linecap:round;stroke-linejoin:round;}
</style>
<g id="Gert_Ausloos">
	<g id="Gert_Ausloos-2">
		<g>
			<path class="st0" d="M1.4,588.1c5.1,9.5,10.4,18,19.1,24.7c7,5.1,14.9,8.4,22.8,11.8c18.4,5.9,35.9,11.8,52.5,21.1
				c1.8,1.7,3.5,3.4,6.2,4.2c7.8,3.4,14.9,6.7,21.9,11.8c14.9,24.4,42.9,37.1,71.8,39.6c12.2,1.7,22.8,5.9,33.3,11.8
				c11.4,6.7,24.5,7.6,36.8,11.8c9.6,3.4,18.4,9.3,22.8,18.5c1.8,5.1,2.6,11,4.4,16c1.8,4.2,5.2,7.6,8.8,11
				c2.6,4.2,6.2,6.7,7.8,11.8c2.6,11.8,0.8,22.8,5.2,33.7c0.8,1.7,1.8,3.4,2.6,5.9c1.8,4.2,4.4,7.6,7,11.8c1.8,1.7,3.5,3.4,4.4,5.9
				l2.6,2.5c9.6,12.6,9.6,27.8,6.2,41.8"/>
			<path class="st0" d="M-1.3,583.5c0.8,1.3,1.5,2.5,2.3,3.8"/>
			<path class="st0" d="M17.2,491c-1.4,5.6-5,10.4-8.3,15c-3.6,5-5.7,10-8.4,15.5"/>
			<path class="st0" d="M146.1,689.1c0.6,1.3,1.4,3,3.2,3.8c10.5,4.2,19.2,11,29.8,15.2c6.2,1.7,12.2,2.5,17.5,5.9
				c16.6,11,35,16,54.3,21.1c9.6,2.5,18.4,6.7,25.4,15.2c7,9.3,9.6,19.4,13.2,30.3c2.6,8.4,6.2,15.2,11.4,22.8
				c1.8,3.4,1.8,6.7,0.8,10.1c-2.6,8.4-3.5,15.2-2.6,23.6c1.8,9.3,8.8,15.2,14,22.8c4.4,7.6,4.4,16,1.8,23.8"/>
			<path class="st0" d="M0.9,605.4c5.6,4.8,10,9.9,16.1,13.2c18.4,9.3,36.8,16.9,51.7,31.2c9.6,4.2,20.1,5.1,30.6,6.7
				c7.8,1.7,12.2,9.3,17.5,15.2c4.4,4.2,8.8,5.9,13.2,10.1c0.8,0.8,0.8,2.5,1.8,3.4c3.5,3.4,6.2,7.6,9.6,11
				c7.8,8.4,17.5,15.2,28,20.2c9.6,4.2,19.2,7.6,28.9,13.5c1.8,0.8,1.8,2.5,3.5,3.4c27.1,16.9,44.7,39.6,62.1,64.9
				c6.2,10.1,10.5,20.2,12.2,31.2c0,5.9-3.5,11-2.6,16.9c2.6,12.6,7.8,23.6,8.6,36.7"/>
			<path class="st0" d="M0,449.9c4.4-1.6,8.7-3.4,12.9-5.5c3.5-1.7,6.3-3.2,6.7-7.2"/>
			<path class="st0" d="M503.2,337.9c-16.5-0.3-32.3-0.3-48.9,1.4c-18.4,2.5-35,10.1-53.4,11c-11.4,0-23.6,2.5-34.1,10.1
				c-6.2,4.2-13.2,10.1-21,10.1c-25.4,0.8-50.7,5.1-77.1,4.2c-10.5-3.4-21.9-5.9-33.3-3.4c-15.8,2.5-29.8,5.9-45.5,6.7
				c-7,0-13.2,4.2-19.2,7.6l-2.6,2.5c-1.8,0.8-2.6,1.7-4.4,2.5c-10.5,3.4-21.9,5.9-32.4,9.3c-14,4.2-28,3.4-42.9,6.7
				c-11.4,2.5-20.1,8.4-30.6,14.3c-1.8,0.8-4.4,0.8-6.2,1.7c-7,3.4-11.4,9.3-19.2,11c-11.4,0.8-21.9,1.7-32.5,3.2"/>
			<path class="st0" d="M357.5,359.4c-17.3-4.7-168.9,0.8-167.4,6.7c-9.7,0.5-16.9,5.6-24.6,10.5c-11.6,7.2-25,10.1-39.2,8.3
				c-22.2-2.7-41.7,3.8-58.7,16.9c-5.4,4.2-8.2,11.1-14,15.3"/>
			<path class="st0" d="M597.1,257.1c-6,23.4,0,54.8-25.5,82.7c-12.5,13.7-55.5,1.5-68.5-1.9"/>
			<path class="st0" d="M644.3,258.6c0.6,9.6,9.4,15.9,11.1,30.7c4.3,25.5-22.6,78.6-56.3,85.8c-33.7,7.2-37.3,0.5-54-5.8
				c-12.5-4.6-25.6-6.3-38.9-7.8c-4.3-0.4-7.2,0.3-10.6,1.9"/>
			<path class="st0" d="M639.8,396.9C624,408.7,621.1,413,601,410.6c-6.6-0.8-45.9-8.1-58.8-14c-3-1.4-6.3-3.7-9.7-6.2
				c-3.7-2.8-7.4-5.8-11-8.4"/>
			<path class="st0" d="M307.6,385.7c-5.7-4.3-12.3-1.6-18.3-1.3c-7.8,0.3-15.6,1.6-23.2,4.6c-11.2,4.3-23.1,3-34.9,2.4
				c-18.2-1.1-34.7,4.1-50.3,12.3c-3.7,1.9-7.2,3.5-11.5,3c-19.5-3-35.7,3.4-50.1,15.2c-7,5.7-15.4,9.1-24.1,9.6
				c-23.3,1.3-45,8.3-67.2,13.7c-6.6,1.6-13.9,3.7-17.8,10.4"/>
			<path class="st0" d="M679.2,299.5c-3.9,13.7-8.8,45.3-13.3,53c-4.6,7.8-22.3,29.7-40.8,31.4c-18.5,1.7-54.9,5.8-81.9-4.5
				c-8.8-3.3-17.9-8.9-28.2-4.6"/>
			<path class="st0" d="M340.7,373.3c-1.3,2.3-3.9,4-6.5,5.6c-12.2,6.7-26.3,7.6-38.5,12.6c-8.8,2.5-18.4,1.7-27.1,2.5
				c-9.6,1.7-17.5,7.6-26.3,11.8c-6.2,1.7-12.2,3.4-18.4,2.5c-15.8-3.4-29.8-0.8-43.8,5.1c-11.4,0-22.8,2.5-33.3,5.9
				c-7.8,3.4-16.6,6.7-23.6,11.8c-9.6,8.4-23.6,8.4-35,11.8c-8.8,3.4-14,14.3-23.6,13.5c-6.2,0-12.2-0.8-17.5,1.7
				c-7.8,4.2-16.6,5.9-26.3,5.9c-1.8,0-3.5,0.8-5.2,1.7c-4.4,1.7-7.8,4.2-12.2,5.1c-0.8,0-1.8,0.8-2.6,1.3"/>
			<path class="st0" d="M318.6,340.4c-11.8-4.6-44.7-6.7-55.8-12.5c-6.8-3.5-14.2-1.9-21.5-5.8s-16.4-7.9-23.5-7.5
				c-7.1,0.4-11.6,2.5-20.2,7.9c-2.7,1.7-9.9,4.7-16.2,14.1"/>
			<path class="st0" d="M50.5,410.8c6.6-7,8.8-16.9,16.4-23.2c13.7-11.2,28.9-19,48-16.3c5.7,0.8,11.5,0.6,17.2,1.6
				c6.3,1,13.8-0.3,18.6-4.3c7.9-6.7,17.5-8.6,27-10.9c6.1-1.4,11-4.5,15.3-8.3c8.9-11.5,21.2-12.4,36.8-15
				c8.4-1.4,143.8,14.5,155.1,18"/>
			<path class="st0" d="M90.8,569.3c3.1-17.2,20-21.2,32.9-15.1c18,8.7,31.9,22.1,43.2,37.9c4,5.5,8.2,10.8,10.1,17.4
				c2.2,7.7,0.4,16.1-6.9,22c-8.4,6.8-18.7,7.3-28.7,9.1c-1,0.2-2.4-1.2-3.6-1.9"/>
			<path class="st0" d="M208.9,724.9c4.3,6.7,9.5,11.8,15.7,16.9c10.5,7.6,21.9,11,32.4,18.5c9.6,7.6,16.6,16.9,20.1,28.7
				c5.2,19.4,7,37.1,12.2,56.5c0,0.8,1.8,2.5,1.8,3.4c-0.8,11.8,2.6,23.6,6.1,34.9"/>
			<path class="st0" d="M27.4,465.3c-6,9.2-16.3,12.9-26.2,16.9"/>
			<path class="st0" d="M139.9,633.5c-0.7,1.2-1.2,2.4-2,3.5c-10,12.6-10.7,16.5,0.4,27.5c10.2,10.1,21.7,19.5,36.2,23.4
				c10.6,2.9,20.4,3.5,30.9-3.9c8.3-5.8,16.3-12.5,27.8-15.1c22.9-5.1,41.8,2.3,60.2,13c18.9,11,29.2,28.1,31.9,48.6
				c1,7.3,1.9,16.5-7.3,21.5"/>
			<path class="st0" d="M326,794.6c4.5,0.3,8,4.5,11.5,7c1.8,1.7,1.8,3.4,3.5,5.1c22.8,20.2,42,48.1,36.4,78.2"/>
			<path class="st0" d="M187.5,439.9c-15.5,5.5-80.6,32.7-87.9,36.8c-16.1,8.9-28.3,22.3-43.2,32.6c-4.4,3-5.7,6.7-6.4,11.3"/>
			<path class="st0" d="M215.1,679.6c0.7,0.6,1.6,1.4,2.4,1.4c14-1.7,26.3-8.4,41.1-5.9c19.2,3.4,38.5,11.8,47.3,28.7
				c6.2,12.6,11.4,25.3,10.5,38.8c-1.8,21.9,2.6,43.8,13.2,63.2c19.2,21.1,46.4,47.2,34.4,78.7"/>
			<path class="st0" d="M198.1,689.7c7.5,8.2,17.2,5.3,26.4,5.1c17.2-0.5,33,4.1,46.9,13.6c14.9,10.2,27.7,26.6,34.8,42.6
				c3,1,5.9,1.9,8.9,3"/>
			<path class="st0" d="M217.8,798.5c-26.3,12.2-25.5,47.7-13.2,68.9c3.6,6.2,8.6,11.7,14.8,15.7"/>
			<path class="st0" d="M59.1,468.6c-17.4,1.9-33.1,13.2-45.7,24.2c-4.6,4-9.3,8-13.1,12.8"/>
			<path class="st0" d="M203.5,686.2c4.3,3.3,9.3,2.8,14.2,2.1c9-1.2,18-2.6,27.1-3.6c20.7-2.2,34.6,9.3,47.4,22.8
				c7.3,7.8,11,17.3,15.3,26.6c1.7,3.7,1.5,8.5,6.2,10.8"/>
			<path class="st0" d="M76.5,589c6.1-13.9,17.5-22.1,31.9-26.6c6.4-2,13.4-2.2,18.5,2.7c9.6,9.3,21.3,16.1,29.8,26.6
				c5.1,6.3,6.7,13.2,7.9,20.4c0.7,4-2.6,7.9-6,10.3c-5.4,3.8-11.5,6.7-17.2,10"/>
			<path class="st0" d="M324.9,801.4c-3.2,8.7,2.9,15.4,7.2,22.2c13.2,18.5,29.8,37.9,22.2,60.7"/>
			<path class="st0" d="M432.3,353.8c-9.9,1-16.1,2.6-22.3,4.2c-7.8,2-15.2,5.6-22.4,9.4c-5.1,2.5-10.5,5-16.9,5.1
				c-5.5,0.1-10.7,2.7-15.3,6.1c-9.4,6.7-20.1,10.8-31.6,13.2c-7.7,1.6-14.6,4.6-20.5,9.9c-1.9,1.6-4.9,2.8-8.2,3.2
				c-17.1,2.1-34.1,5-49.5,13.2c-5.1,2.7-12,2.3-17.2,3.2"/>
			<path class="st0" d="M247.9,779.9c-0.7,1.4-0.7,4-0.7,5.6c2.6,11,3.5,21.9,7.8,32c3.5,5.9,8.8,11.8,8.8,18.5
				c0.8,16,1.8,32,5.6,47"/>
			<path class="st0" d="M227.3,421.1c-14.4-0.7-27.5,3.5-40.1,9.4c-2.2,1-4.5,1.9-6.5,2.8c-27.3,13.2-80.7,28.5-87.5,36.2
				c-4.1,4.7-21,3.1-25.5,7.2"/>
			<path class="st0" d="M45,398.7c5-4.3,6-10.9,9.2-16.2c3.3-5.5,7.6-9.7,13.2-12.1c11.5-4.8,23.5-8.5,35.9-11.4
				c12.3-2.9,24.4-3.4,36.6-2.5c18.3,1.3,31.4-6.4,41.3-20"/>
			<path class="st0" d="M644.3,258.6c-10,8.2-34.9,105.3-70.1,101.8c-28.2-2.8-71.4-8.9-87.8-9.3c-3.4-0.1-6.7-0.5-9.1,2.4"/>
			<path class="st0" d="M125.3,718.2c2.1,0.8,3,2.5,3,4.2c-0.8,6.7,0,14.3,7,16.9c5.2,1.7,9.6,0,14.9,0c1.8,0.8,3.5,2.5,6.2,3.4h2.6
				c5.2-1.7,7.8-5.1,13.2-5.9c13.2-0.8,25.4,0.8,35.9,9.3c9.6,8.4,10.5,21.1,16.6,31.2c3.5,4.2,9.6,5.9,12.2,10.1
				c1.8,4.2,2.6,9.3,3.5,13.5c0.8,8.4,1.8,16.9,4.4,24.4c4.4,10.1,9.6,19.4,11.4,30.3c0.8,9.3,1.8,18.5,3.5,27.7"/>
			<path class="st0" d="M4.4,517.9c1.3,5.4-0.1,10.5-1.4,15.8c-1.3,5.1-2.4,10.4-3.4,15.6c-1.7,9.2-0.5,17.7,6.7,24.7
				c0.6,0.6,1.5,1.2,1.8,1.9c7.7,24.1,30.9,32.6,50,44.7c7.1,4.5,15.6,8.3,24.6,10.6c12.3,3.1,21.7,11.2,28.7,21.6"/>
			<path class="st0" d="M79.6,446.7c-20.7,4.8-42.3,2.5-62.9,7.5c-5.6,1.3-11,3.2-16.2,5.6"/>
			<path class="st0" d="M66.8,595.8c4.1-3.5,7.7-6.4,14.5-5.6c4.5,0.6,10-3.5,14.4-6.4c12.1-8.3,23.5-5.8,34.8,1.5
				c6.4,4.1,12.9,8.9,15.4,15.9c1.9,5.3,1.6,11.5-1.9,17c-2.6,4-5.1,8.3-4,13.4"/>
			<path class="st0" d="M-0.3,641.5c8.1,4.6,16,8.9,23.9,12.2c21.9,7.6,43.8,15.2,65.5,20.9"/>
			<path class="st0" d="M342.2,392.4c-3.4,1.9-15.1,23.8-16,26.7c-2.8,8.6-2.3,17.3-6.2,29.8c-3.9,12.5-39.3,8.9-49,3.8
				c-21.1-9.9-44.8-3.5-55.6-3c-5.1,0.3-10.4,0.8-15.4,1.7c-12.1,2-19.8,8.8-25.1,19.4c-3.8,7.6-7.3,15.3-13.2,22.3
				c-6.8,8.2-15.6,9.8-24.9,12.3c-13.7,3.6-28.7,2.7-40.8,11.6c-5.1,3.7-11.5,4.2-18.4,2.4c-12.8-3.5-24.9,0.3-36.2,6
				c-2.2,1.1-3.6,3.5-6.6,2.8"/>
			<path class="st0" d="M13.7,559.9c2.3-3.9,2.8-6,5.2-11.2c0.8-1.9,3.4-5.8,6-9.5c6.3-9.1,10.9-18.8,19.1-26.5
				c10.7-10.1,20-21.7,32.2-30.3c4.7-3.4,10.2-5.8,10.5-12.8c0.1-2,2.3-4.5,4.2-5.8c14.1-9.4,26.5-21.6,45.2-23.4
				c15.4-1.6,28.7-9.4,41.6-16.9c10.7-6.3,21.8-6.9,33.6-4.6c0.7,0.2,1.2,1.2,1.8,1.9"/>
			<path class="st0" d="M-0.7,648.1c9.4,5.6,18,12.4,28.6,19.1c14.9,9.3,32.4,9.3,48.4,14.3"/>
			<path class="st0" d="M54.5,471.7c-3.3,8.9-10.5,14.2-18.5,18.4C19,498.6,12.8,513.5,10,530.2c-0.9,5.3-4.9,11.6,1.7,16.6"/>
			<path class="st0" d="M76.3,600.9c5.4-6.7,14.4-6.7,21.6-10.2c9.9-4.8,19.7-4.8,28.2,4c7.8,8.1,8,16.8,4.8,26.6
				c-1.9,6.1-4.6,12.6,1.7,18.4"/>
			<path class="st0" d="M67.7,477c-6.3,1.6-11.4,5.1-14.7,10.5c-4.8,7.9-11.9,13.4-20.1,17.5c-7.2,3.7-11.6,8.3-11.8,16.8
				c-0.1,6.6-4.4,12.3-6.3,18.5c-2.2,6.9-2.1,13.7-2.5,20.5c-0.8,14.4,15.5,28.2,27.6,33.1c5.6,2.3,11.5,4.5,17.9,2.4
				c8.4-2.7,14.8,3.4,19.9,7c5.1,3.6,10,4.8,15.2,5.3c17.4,1.9,28.3,13.2,27.8,29.9"/>
			<path class="st0" d="M188.1,439.9c14.7-3.7,42.9-4,58-3.4c15.4,0.6,29.1-3.5,41.2-14.8c11.9-11,27.7-18,40.5-28.6
				c3-2.4,9.3-5.4,14.3-0.7"/>
			<path class="st0" d="M231.4,805c-0.8,0.8-1.7,0.8-1.7,1.7c-1.8,8.4-0.8,16.9-2.6,25.3c-1.8,18.5,0,37.9,14.9,50.7"/>
			<path class="st0" d="M225.8,779.9c-4.8,5.6-8.3,14.9-5.7,22.5c-3.5,21.1-12.2,41.3-4.4,62.4c3.5,6.7,9.6,11.8,14.4,17.9"/>
			<path class="st0" d="M0.8,620.5c14,9.7,30.7,16.4,47.3,24c18.4,8.4,33.3,21.9,50.7,32.9c6.2,3.4,13.2,5.1,19.2,7.6
				c1.8,1.7,3.5,2.5,6.2,4.2c7,5.1,11.4,11,15.8,17.7c0.8,13.5,15.8,18.5,27.1,21.9c1.8,0.8,3.5,2.5,5.4,4"/>
			<path class="st0" d="M113,354.7c-2.2-0.7-3.6-2.8-6.2-2.5c-16.5,1.9-33.5,1.9-48.7,9.4c-16.6,8.3-22.8,19-14.1,36.8
				c3.5,7.1,9.1,14.3,8,23.2"/>
			<path class="st0" d="M416.7,387.4c4.5,5.5,13.9,13.6,16.7,19.7c4.6,10.2,4.6,21.5-0.2,31.7c-4.1,8.6-16.4,8-26.2,0.7
				c-12.1-9-16.4-21.3-18-34.8c-0.8-7-3.1-12.7-7.9-18c-5.2-5.8-9.6-7.4-16.7-4.3c-6,2.6-11.8,5.9-17.7,8.7
				c-1.4,0.7-3.1,0.8-3.9,2.5"/>
			<path class="st0" d="M51.2,601.1c6.7,8.9,18,8.7,27.2,12.7c3.1,1.3,6.8,1.9,10.4,2c11.3,0.6,18,6.7,23.9,15.4
				c4,6.1,8.3,13.5,17.9,13.7"/>
			<path class="st0" d="M228.7,783.3c3.8,26.8,13.4,52.4,18.5,78.9c1.3,7.1,2.7,14.2,5.3,20.9"/>
			<path class="st0" d="M158.1,744.2c-5.9,12.2-17.8,15.2-30,16.7c-11.1,1.3-21.6-2.5-31.9-6.2c-5.4-1.9-8.7-10.2-6.4-15.3
				c2.4-5.6,8.8-9.2,15.8-8.9"/>
			<path class="st0" d="M437.5,413.7c1.9,0,3.5,0.8,4.4,2.4c8.9,17,12.1,33.6-4.4,47.1c-2.6,2.2-5.8,3-9.4,3.2
				c-15.8,0.8-34.7-17.4-33.2-33.7c0-0.4,1-0.7,1.5-1"/>
			<path class="st0" d="M-0.6,658.5c17.1,10.5,32,28.2,54.1,29.2"/>
			<path class="st0" d="M415.6,383.6c4.8,12.1,5.9,24.9,7.8,37.4c0.8,4.7-6.8,7.6-11.2,4.8c-6.7-4.3-11.5-10.2-14.9-17.3
				c-1.6-3.4-3.9-5.8-8-6.2"/>
			<path class="st0" d="M72.4,627.2c7.3-4.7,18.8-2.8,27.1,4.6c6.6,5.9,13,11.9,19.5,17.8c2.6,2.4,5,5.1,9.2,4"/>
			<path class="st0" d="M136.1,496.5c10.4-4.1,17.2-11.6,22.8-20.7c4.6-7.6,10.9-13.7,20.5-15.5"/>
			<path class="st0" d="M81.1,602.5c7.8-1.3,15.6-2.7,23.4-3.8c6.9-1,11.8,2.3,14.5,7.9c3,6.6,3.5,13.6,0.7,20.4"/>
			<path class="st0" d="M133.9,497.1c-6.2,0.7-12.3,1.3-18.5,1.9c-6.8,0.7-12.8,2.3-17.4,8c-4.5,5.6-12.6,6.7-18,11.4"/>
			<path class="st0" d="M128.5,696.1c0.5,7.6,2.4,15.3-4,21.7c-4.2,4.2-9.6,6.9-14.2,10.5c-4.6,3.5-7.9,7.3-8.2,12.1
				c-0.3,5.7,5.1,7.8,10.5,9.6c6.3,2.2,12.7,3.8,19.3,4.7c2.4,0.3,4.4,1.3,5.8,3.2"/>
			<path class="st0" d="M152.6,742.1c-7.1,4.6-15.3,5.3-23.5,5.5c-9.9,0.3-14.8-7.8-10.5-16.5c1.1-2.3,3-4.2,2.2-7.1"/>
			<path class="st0" d="M130.4,710.9c3.8,1.3,4.9,4.6,6.1,7.8c2.7,7.6,8.2,11.7,16.6,12.8c4.7,0.6,9.6,1.9,12.9,5.9"/>
			<path class="st0" d="M111.8,668.7c-7.8-0.8-15.4-2.5-22.2-6.6c-6-3.5-12.2-4.5-19-3.8"/>
			<path class="st0" d="M0.3,628.5c20.7,13.6,44.3,25.4,69.1,32"/>
			<path class="st0" d="M447.3,436.4c-2.5,3.2-3.3,7.1-5.2,10.7c-6.5,12.2-16.4,13.2-33.6,4.8c-2.4-1.1-7.7-2.9-10.2-5.5"/>
			<path class="st0" d="M94,679.3c-2.6,5.3-11.8,3.4-16.7,4c-7,0.9-13.7,3-20.3,5.3c-13.5,4.6-26.6,7.9-41.1,5.1
				c-6.5-1.3-13.2-3.7-17.6-8.8"/>
			<path class="st0" d="M-1,674c7.9,6.2,17.4,10.7,24,18.3"/>
			<path class="st0" d="M102.5,453.6c-9.4-2.3-17.5,0.2-24.6,5.9c-5.1,4-11.7,4.9-17.2,8.1"/>
			<path class="st0" d="M521.4,382c-5.1-4.9-11.6-7.8-17.2-11.7c-8.9-6.4-20.7-7.8-28.1-16.4c-1.3-1.5-3.7-2.8-5.8-3.1
				c-12.6-2.1-26.1-1.6-37.2,2.4c-9.9,3.5-20.2,12.3-18.6,25.9c0.8,7.2-5.6,11.4-6.2,18c-0.3,3.3-7.8,3-12.1-0.3
				c-2.4-1.9-3.7-5.8-8.1-4.3"/>
			<path class="st0" d="M373.7,380.8c7.6-0.6,27.7-11.2,33.6-14.8c3.5-2.1,6-2.5,9.2-0.4"/>
			<path class="st0" d="M414.1,371.7c-5.6,12.4-16.4,15-29.1,13.5c-1.5-0.2-1,0.8-1.5,1.1"/>
			<path class="st0" d="M47.4,429.3c2.4,4,7.9,3,11,5.9"/>
		</g>
		<path class="st0" d="M1020,50.6c-5.1,2.3-7.1,6.3-7.8,11.5c-3.4,21.6-4.6,43.2-3.3,64.9c1.5,26.9-0.7,53.8-6.1,80.2
			c-7.3,35.8-29.9,60.6-64.2,75.8c-14.4,6.4-29.3,11.7-44.8,15.5c-11.8,3-20.5,12-31.5,16.6"/>
		<path class="st0" d="M1004,1.4c-6.2,8.3-13.2,16.7-20.2,24.3c-6.2,5.9-14.9,8.4-22.8,11.8c-1.8,0.8-2.6,3.4-4.4,5.1
			c-2.6,1.7-4.4,4.2-6.2,5.9c-10.5,6.7-18.4,14.3-22.8,25.3l-2.6,7.6c-2.6,20.2-4.4,38.8-9.6,58.2c-1.8,4.2-4.4,7.6-7.2,12.2"/>
		<path class="st0" d="M988.8,92.6c-2-2.8-4-1.1-4.6,0.8c-3.3,12.2-13.1,21-18.8,31.9c-4,7.6-3.5,15.8-6.2,23.6
			c-1.6,4.6-2.8,9.1-5.2,13.4c-5.7,10.4-10.8,21.2-16.3,31.7c-5.1,9.9-12.1,17.8-23.8,20.1c-4.8,1-8.4,3.5-12.2,6.4
			c-17.4,13.4-35.7,24.4-59.4,21.1c-10.3-1.4-19.5-7-30.2-6.6c-11.5,0.5-21.5-4-31.1-9.2c-3.5-1.9-6.1-5.6-9.6-7.6
			c-23.4-12.6-46.5-25.8-73.7-30.8c-13.9-2.5-27.6-3.5-41.6-2.1c-14.2,1.4-26.2,9-38.9,14.5c-2.6,1.1-4.9,3.1-7.8,3.4"/>
		<path class="st0" d="M1023.7,55.1c-4,2-6.1,5.8-6.2,9.5c-0.8,27.9-1.3,55.8,4,83.4c5.9,30.4-1.6,58.1-18.9,84
			c-7.9,11.8-14.1,24.8-22.8,35.9c-14.5,18.5-29.1,37.3-53.2,45.5c-6.7,2.3-13.6,2.7-20.5,2.4c-18-0.7-34.8,3.3-50.8,11.1
			c-1.3,0.6-2.1,1.8-3.2,2.7"/>
		<path class="st0" d="M856.7,280.8c-11.8,6.3-27.2,12.9-38.8,19.6c-15.8,9.4-31,20.2-47.7,28.2c-18.4,8.7-44.8,18.7-56.7,2.9
			c-7.9-10.5-10.9-16.4-36.8-16.4"/>
		<path class="st0" d="M1042.9,4.4c-4.8,4.2-8.9,9.9-12.6,17.2c-5,9.7-9.3,20.5-6.1,31.8c1.8,6.3,3.3,12.6,2.8,19.1
			c-0.5,5.8,0.8,11.3,4.3,15.9c1.2,1.6,2.4,3.5,2.3,4.9c-1.3,12.2,6,21.5,11.5,31c13,22.1,14.7,44.8,5.1,68.2
			c-4.5,10.8-11.4,20.6-17.2,30.9c-0.8,1.4-2.5,2.2-2.4,4.4c0.8,11-7.4,17.2-14.2,23.9c-12.2,12.1-21.9,25.4-28,41.5
			c-5.5,14.6-13.2,28.2-26,38.6c-19.5,15.8-41.4,21.4-66,17.2c-16-2.8-31.9-6.1-47.9-8.8c-2.4-0.4-4.8-0.5-6.8-2"/>
		<path class="st0" d="M1021.2,1.6c-4.6,6.7-9.3,13.6-14.7,19.6c-8.9,9.9-20.8,17.8-31.6,25.7c-11.5,8.4-23.2,16.7-31.8,28.1
			c-8.6,11.3-12.5,23.8-15.4,37.3c-1.9,9.1-4,18.3-6.1,27.4c-1.4,6.4-2.1,15.7-10.3,17.4"/>
		<path class="st0" d="M819.1,277.2c-1.9-0.9-26-4.2-41.3,2.4c-18.9,8.1-59.1-27.3-69.3-28c-33.7-2.1-62,4-64.2,7.1"/>
		<path class="st0" d="M975.5,111.3c-0.5,25.2-5.6,49.2-21,70.5c-4.4,6-6.3,13.6-6.7,20.1c-1.3,23.6-16.4,36.2-35.9,46
			c-5.9,3-12.2,5.2-18.6,6.7c-8.3,2-15.4,5.8-22.3,10.5c-9.2,6.2-19.9,10.4-30.1,9c-13.6-1.8-21.7,4.8-30.6,12
			c-11.7,9.3-11.5,12.4-20.2,17.8c-5.9,3.6-9.5,10.2-35.9,1c-19.3-6.7-41.6-21.2-57.5-22.7c-5-0.5-14.5,2.6-17.5,17.5
			c0,0,15.2-3.8,43,10.1s46.9,15.8,53.6,14.2"/>
		<path class="st0" d="M1166.6,6.2c5,5.4,3.4,12.6,4.9,18.9c2.8,11.7,2.9,24,1.3,35.9c-1,7.5-6.3,14.2-13,18.6
			c-15,10-30.8,11.2-47.6,4.5c-14.5-5.8-27.7-26.7-24.6-41.8c2.4-11-1-25.9-3.7-36.4"/>
		<path class="st0" d="M985.8,84.4c-18.4,12-25.7,30-30.2,49.9c-4.5,20.1-14.7,36.6-31.5,50C916.9,190,909.3,196,904,204
			c-5.7,8.6-15.2,13.4-25,16.2c-7.1,2-13.3,5-19.6,8.3c-6.5,3.4-13.6,5.6-21.1,6.2c-2.4,0.2-5.2-0.8-6.8,2.1"/>
		<path class="st0" d="M1002.7,264.2c-0.6-10.3,4.7-18.9,9.7-27.2c6.7-11,14.8-21.3,19.2-33.5c7-19.4,10.5-39.1,5.4-59.4
			c-4-16.3-7.9-32.5-12.2-48.8c-1.2-4.6-0.2-7.8,3.9-10.4"/>
		<path class="st0" d="M1163.9,114.7c-12.5,16.9-40.4,17.6-57.3,8.8c-18.6-9.9-32.4-23.5-41.2-41.8c-8.5-17.8-5-35.1,5.5-51.3
			c2.4-3.6,4-7.5,5.1-11.4c1.5-5.3,4.3-9.5,7.7-13.7"/>
		<path class="st0" d="M968.4,238.8c-10,7.8-19.4,16.6-31.3,21.9c-18,8-36.1,16-54.3,23.6c-16.6,6.9-31.4,16.4-43,29.8
			c-6.1,7-11.4,14.6-17.8,21.5c-16.9,18.1-35.7,33.6-59.2,43.2c-18.3,7.5-36.7,8.1-55.1,1.8c-5-1.7-9.6-4.5-14.2-7.1
			c-3.1-1.8-5.7-4.6-9.7-4.8"/>
		<path class="st0" d="M1192.1,60.5c-4.6,4.4-4.1,10.6-5.6,15.9c-5.1,17.9-18.1,27.7-34.4,34.9c-35.7,15.9-74.3-18-76.9-44.9
			c-1.2-12.4,2.6-24.2,6.3-36.5c1.2-4,3.3-6.7,5.1-9.4"/>
		<path class="st0" d="M1184.8,31.2c-4.2,3.5-3.1,8-2.3,12.4c6.8,38.7-25.5,68.4-65.2,58c-16.4-4.2-25.4-16.2-33-29.6
			c-2.5-4.4-4.9-8.9-7.3-13.3"/>
		<path class="st0" d="M981.3,169.6c-4,15.3-7.2,30.7-13.9,45.3c-9.3,19.9-23.5,34.6-44.4,42.7c-9.2,3.5-18.6,6.7-28.6,8
			c-12.4,1.7-22.8,8.5-33.6,14.1c-1.2,0.6-2.6,0.8-4,1.2"/>
		<path class="st0" d="M835.9,317.2c-9.6,1.6-14.2,10-21.6,14.8c-20.5,13.4-39.9,28.7-63.9,35.7c-17.5,5.2-34.2-0.6-50.8-5
			c-7.3-1.9-13.2-7.6-21.3-7.2"/>
		<path class="st0" d="M992.2,59.9c-5.3-1.8-6.6,3.5-9.2,5.6c-16.6,13.7-28.3,31-36,50.7c-9.8,25.2-23.1,48.5-41,69.3
			c-0.9,1.1-2.5,1.6-3.8,2.4"/>
		<path class="st0" d="M975.2,275.7c-6,37.3-25.5,60.9-69,60.5c-10.7-0.1-20.7-3-31-4.3c-6.4-0.8-13.1-2.5-19.1-0.3
			c-4,1.5-3.8-4.5-6.9-1.3c-0.4-3.9,1-6.3,2.9-8.8c11.2-14.7,26-25.5,42.9-32.5c16.9-7.1,33-15.7,49.5-23.3
			c12-5.5,20.7-14,25.3-26.1"/>
		<path class="st0" d="M622.3,181.2c0.6,0.1,1.3,0.5,1.8,0.3c40.6-21.3,78.7-13.5,115.7,8.1c2.4,1.3,4.4,3.6,7.6,1
			c-6.2-9.1-16.1-14.1-24.8-20.2c-13.6-9.6-29.5-14.9-46-16.5c-20.7-2-37.2,8.3-52.3,20.7c-3,11.2-15.5,16.6-18.2,28.5
			c-1.1,5-7.3,48.1-9,54"/>
		<path class="st0" d="M882,257.1c-7.2-4.3-52-4-59.9-6.6c-7.3-2.4-15.2-4.3-21.2-8.8c-7.3-5.4-16.6-6-23.8-10.8
			c-13.9-9.3-28.7-16.1-45.4-19c-10.1-1.8-20.7-2.4-30.2-6.5c-6.7-2.9-13-6.9-20.4-8.3c-13.8-2.7-27-1.9-39.1,6.3
			c-2,1.3-36.2,20.4-37.9,21.8"/>
		<path class="st0" d="M1159.6,32.3c2.4,1.8,4.3,3.2,4.6,7.1c1,12-1.9,22.8-10.8,30.7c-10.6,9.4-25.5,11.4-38.6-0.3
			c-13.9-12.6-14.8-29.3-14.1-46.2c0-0.7,0.9-1.3,1.4-1.9"/>
		<path class="st0" d="M987.8,89.9c3.9-16.9,5.6-33.8,16.2-48.9c8.8-13.5,17.5-26.1,26-39.2"/>
		<path class="st0" d="M848,329.9c-14.3,12.9-28.2,26.5-43.3,38.4c-10.3,8.1-15.4,20.3-26.1,27.7c-17,11.8-34.6,17.4-56.3,12
			c-11.6-2.9-24.7,17-32.2,9.9c-1.2-1.2-30.7-39.5-50.2-21"/>
		<path class="st0" d="M787.1,384.9c-9-0.3-15.7,6.1-23.9,8.2c-19.9,5.1-38.9,5.8-58.5-3c-16.4-7.3-22.7-19.9-27.1-34.8
			s-2.1-38.4-0.9-40.3"/>
		<path class="st0" d="M1034.9,97.2c1.1,0.8,2.9,1.3,3.2,2.4c3.7,10.6,12.5,18,18.5,27.1c1,1.5,2.5,3,4.1,4
			c13.8,8.5,18.1,21.7,18.4,36.4c0.3,12.9-2.4,25.3-12.4,35.3c-1.9,1.9-3.4,4.3-6.6,4.4"/>
		<path class="st0" d="M1111.5,2.7c11.5,9.5,26.4,11.2,40.5,5.3c0.8,0,0.8,0.8,2.1,1.3"/>
		<path class="st0" d="M1158.7,36.8c-1,8.3-4.4,16.4-10.4,22.5c-5.8,5.8-14.8,10.5-23.3,7.3c-9.1-3.3-13.2-12.9-13.4-21.7
			c-0.1-5.2,0.7-10.5-0.7-15.7c-1.2-4.5-5.5-4.7-8.3-7.9c-6-6.7-8.7-16.1-19.2-17.5"/>
		<path class="st0" d="M942.2,32.3c-6.3,5.6-14.1,2.2-21,2.9c-16.8,1.5-25.1,9.9-25,25.9c0.1,8.2,2.3,16.9-3,24.8
			c-0.8,1.3,0,4.3,0.7,6.7c3,10.5,5.4,21,7.9,31.6c1.5,6.3,4.4,12.5,1.9,19.4c-0.8,2,0.1,5.6,1.6,7c6.3,5.6,3.3,11.2,1.3,17.2
			c-2.1,6.6-6.5,12.6-6,19.8c0.1,1.9-1.5,2.3-2.4,3.4c-6.6,8.1-13.4,16-21.2,22.9c-2.4,2.1-2.6,4.3-3.6,6.5"/>
		<path class="st0" d="M911.5,142c-2.7-8.9,0.1-17.9-0.8-26.9c-1.1-11.4,0.3-23,0.4-34.6c0.2-15.8,6.9-30.2,26.3-35.6
			c5.4-1.5,10.6-3.1,16-4.6"/>
		<path class="st0" d="M891.8,85.7c-10.9-8.7-15.1-20.9-18.8-33.5c-4-13.6,8.9-30.4,29.2-28.7c7.1,0.6,14.3-1.2,21.5,0.5
			c11.4,2.6,21.3,9.4,33.2,10.6c0.9,0.1,2.4,0.9,2.2,2.4"/>
		<path class="st0" d="M992.3,138.8c-2.4,11.5-3.3,55.7-6.7,66.9c-3.5,11.5-7.6,22.7-15.5,32.2"/>
		<path class="st0" d="M1032.2,233.9c9.6-6.9,17.7-15.3,25-24.4c3.5-4.5,3-9.9,4.9-14.6c8.1-19.6,9.3-38.9-0.9-58
			c-0.7-1.3-0.5-3-0.8-4.5"/>
		<path class="st0" d="M1156.3,13c-1.4,6.5-5.3,12-6.1,19.1c-0.8,8.7-15.2,11.6-25.6,8.4c-7.5-2.8-9.2-11.3-14.5-13.2"/>
		<path class="st0" d="M981.3,169.6c2.4-10.8,16.1-38.6,15-49.4c-1-9.4-1.2-18.7-0.8-28c0.2-4.6-1.8-7.2-5.1-9.6"/>
		<path class="st0" d="M901.7,24.4c-4,5.5-11,7.6-14.8,13.6c-4.1,6.4-6.2,12.4-3.5,19.6c2,5.7,3.4,11.7,5.1,17.6
			c0.5,1.7,0.1,3-1.2,4.2"/>
		<path class="st0" d="M1148.3,26.2c-12.8,7.1-22.8,3.1-32.3-6.5c-4.2-4.3-9.1-9.1-16.1-9.9"/>
		<path class="st0" d="M1120.3,8.9c2.4,7.8,12.3,11.4,22.5,8.5c5.3-1.4,9.6-4,13.1-7.9c2.6-3,5.9-4.7,9.3-6.5c2.2,3.1,0.5,6-1.3,8.2
			c-2.1,2.5-2.9,5.7-2.6,8c1.4,12.4-9.1,21.2-14.7,28.5c-6.9,8.9-23.8,9.7-30.9,4.6"/>
		<path class="st0" d="M1191.8,78.4c4.9-9.2,1.2-18.5,0.5-27.7c-0.6-7.8-2.2-15.1-7.5-22.1c-6-7.9-6.9-18.5-7.1-28.7"/>
		<path class="st0" d="M765.2,211.7c-4.4-8.3-12-13.7-18.8-19.9"/>
		<path class="st0" d="M990.6,143.6c-0.8-8.9-3.8-40.6-2.1-49.3"/>
		<path class="st0" d="M551.6,346.1c0,0,8.5,8.4,24.2,0s29.4-27.1,32.4-63.8s-3.7-58.2-3.7-58.2c6.1,7.3,12.6,13.7,23.5,13.9
			c7.2,0.1,14.2,0.5,21.3-0.9c9.9-2,20.1-3.1,30.2-1.7c19.7,2.8,39,7.6,58,13.3c11.8,3.5,23.4,6.2,35.9,4.4
			c5.5-0.8,12.8-6.4,18.3-7.2c7.4-0.9,7.5-2.4,9.3-4.2"/>
		<path class="st0" d="M623.7,237.6c0,0,2.4,17.5,2,27.2c-0.3,9.8-13.5,61.1-21.3,66.9c-7.8,5.7-15.6,25.9-33.5,24.3
			c-17.9-1.6-35.7-9.8-35.7-9.8"/>
		<path class="st0" d="M604.3,225.3c0,0,34.5-11.9,58.5-11.8c9.6,0,29.2,2.9,41.7,9.7c0,0,3-5.2,26.4-2.9
			c23.4,2.4,67.1,21.9,67.1,21.9s-65.2,2.4-83.6-9.4c-5.8-3.8-9.8-9.7-9.8-9.7S682.7,236.4,604.3,225.3L604.3,225.3L604.3,225.3z"/>
		<path class="st0" d="M649.9,272.7c24.4-13.8,55-1.7,66.9,15.3"/>
		<path class="st0" d="M646.3,266c0,0,22.3-11.1,48.7-7.3c26.5,3.8,58.8,33.6,60.8,38.2c1.9,4.6,14.6,12.1,14.6,12.1"/>
		<path class="st0" d="M755.8,296.8c0,0,32.1,5.2,47.5-19.5"/>
		<path class="st0" d="M676.3,331.5c0,0,10.5,16.4,42.6,21.7c32.2,5.1,64.1-16.8,64.1-16.8l73.8-39"/>
		<path class="st0" d="M532.4,390.4c0,0,49.9,19.1,103.1-1.7c31.8-12.4,40.7-38.9,40.7-38.9"/>
		<g>
			<path class="st0" d="M1684.4,82.7c-16.9,1.2-30.9,7.9-44.8,17.2c-12.2,8.4-19.2,19.4-32.4,27c-7.8,4.2-15.8,6.7-23.6,11.8
				c-6.2,5.1-11.4,9.3-17.5,14.3c-9.6,5.9-19.2,11-30.6,9.3c-11.4-6.7-24.5-5.9-36.8-5.9c-5.2,0-10.5-0.8-14.9-3.4
				c-7-4.2-14-10.1-21.9-12.6c-13.2-4.2-26.3-3.4-39.4-4.2c-18.4-1.7-32.4-13.5-42.9-28.7c-5.2-7.6-13.2-11.8-22.9-12.4"/>
			<path class="st0" d="M1663.2,83.7c-1-0.2-2.3-0.8-3-0.4c-13.3,6.9-28.6,10.2-40,20.7c-4.2,3.9-10.1,5.6-15.9,7.2
				c-8.4,2.3-15.7,7.3-22.9,11.9c-8.4,5.2-15.5,12.6-23.9,17.9c-12.2,7.8-26,9.2-39.8,5.1c-13.1-4-25.5-9.9-39.7-9.9
				c-5.1,0-8.5-2.9-11.9-6.9c-9.3-11.4-20.7-18.9-37.3-17.5c-11.1,1-20.7-3.7-27.9-12.1c-14.5-16.9-34.3-21.2-56-21.4
				c-2,0-3.3,1.1-4.9,1.4"/>
			<path class="st0" d="M1684.7,74.3c-18,2-36.4,2-54,8.8c-7.8,3.4-14,10.1-21.9,13.5c-8.8,3.4-16.6,6.7-26.3,8.4
				c-5.2,1.7-9.6,1.7-14,2.5c-14,0.8-28,1.7-42,3.4c-15.8,1.7-30.6-2.5-47.3-5.9c-7-0.8-13.2-5.9-18.4-10.1
				c-7.8-5.9-15.8-10.1-25.4-12.6c-1.8-0.8-3.5-1.7-6.2-2.5s-4.4-1.7-6.2-3.4c-5.2-4.2-8.8-9.3-14.9-11.8
				c-10.5-3.4-21.9-5.1-31.5-11.8c-17.5-12.6-22.8-32-34.1-49.3"/>
			<path class="st0" d="M1596.1,111.2c-10.9-1.2-20.5,1.3-30.1,3.9c-7,2.5-14,6.7-21,10.1c-14.9,5.9-30.6,5.9-45.5,0
				c-20.1-8.4-39.4-17.7-59.5-26.1c-4.4-5.1-10.5-6.7-15.8-8.4c-15.8-6.7-30.6-11.8-46.4-17.7c-2.6-0.8-5.2-0.8-7-1.7
				c-2.6-1.7-6.2-1.7-8.8-3.4c-0.8-0.8-1.8-0.8-2.6-1.7c-10.5-17.7-14.9-36.2-24.5-54c-0.8-2.5-2.6-5.9-5.6-8.8"/>
			<path class="st0" d="M1684.3,93c-16.6,2.6-34,8.1-45.1,21c-11.7,13.6-4,32-10,47.6c-5.5,14.2-16.8,25.3-30.2,32.8
				c-15.2,8.6-32.4,14.7-50.2,12.6c-9.4-1.1-18.5-4.3-26.8-8.7c-5.5-3-11.5-6.6-13.1-12.9c-0.4-1.8-0.4-3.6-0.3-5.4"/>
			<path class="st0" d="M1468.3,160.7c-2.9,3.4-6.2,4.1-11,4.2c-11.8,0.1-23.4,3-35.4,2.9c-18.3-0.1-35.7-3-51.2-12.9
				c-4.6-2.9-8.3-7-10.5-11.3c-4.1-8.5-10.4-15.8-14-24.6c-2.7-6.6-4-12.7-1.6-19.5"/>
			<path class="st0" d="M1630.3,142.8c-5.1,1.6-5.6,6.3-7.2,10.2c-5.1,12.7-10.8,25.3-23.4,32.8c-16.5,9.9-33.7,18.1-54,10.5
				c-8.6-3.3-18.8-4.8-25.3-10.4c-6.3-5.4-13.6-8.9-20-13.8c-7.2-5.6-16-7.4-24.2-10.6c-18.7-7.4-37.7-3.1-56.6-2.4
				c-25.2,0.9-42-10.8-55.1-30.4c-6.5-9.8-9.4-21.6-19-29.6c-0.9-0.8-1.8-2.4-1.7-3.5c1.8-13.6-7.3-20.9-18.3-24.2
				c-11.6-3.5-16.7-10.6-21.2-20.1c-4.4-9.2-10.6-17.5-13.8-27.4c-1.9-5.8-2.1-11.2-1.3-16.9"/>
			<path class="st0" d="M1631.9,123.7c-11.3,0.9-14.7,10.1-19.9,17.5c-9.8,13.6-23,23.2-39.2,28.3c-17.4,5.5-38.7,5.6-56.2,1.8
				c-2.6,1.7-5.1,3.4-7.8,5.1"/>
			<path class="st0" d="M1529.1,74.5c2.7-15-5.2-29.3-17.5-38.6c-3.5-2.5-6.2-4.2-9.6-5.9c-10.5-4.2-21.9-8.4-34.1-6.7
				c-18.4,3.4-34.1,13.5-49.1,22.8c-17.5,5.9-35-4.2-46.4-17.7c-6.2-7.6-0.8-16.9-0.5-24.9"/>
			<path class="st0" d="M1631.5,130c-5.3,1.3-7.8,5.6-10.2,9.7c-4.4,7.7-8.5,15.6-13.1,23.2c-10.5,17.5-28.2,21.3-47.1,23.2
				c-10.9,1.1-21-1.6-31.4-3.9c-4.1-0.9-8-3.9-12.6-1.6"/>
			<path class="st0" d="M1463.3,155.8c-0.8-2.6-2.8-3-5.4-4c-13.2-4.9-27.1-3.2-40.7-4c-23.8-1.5-40.9-11.3-49.4-33.8
				c-2.9-7.7-9.4-14.1-14.1-21.1c-2.2-3.2-5.5-3.2-8.9-3.2"/>
			<path class="st0" d="M1526.8,108.8c-0.3-0.8-0.5-1.9-1-2.1c-13.6-5-25.1-14.7-40.9-14.9c-8.3-0.1-16.1-3-22.5-8.4
				c-13.7-11.8-31-17-47.2-24.3c-4.6-2-9.4-4.2-7.8-10.6"/>
			<path class="st0" d="M1651.3,50.3c-3.6,1.7-5.3-0.2-7.9-2.6c-6.5-6.1-16.5-4-20.9,3.8c-1.9,3.3-2.9,6.5-7.8,7.2
				c-2.5,0.3-4.3,3-4.3,6.7c-0.2,18.5-28.7,40-49.6,31.4c-5.1-2-10.8-2.4-16.3-3.5c-1.6-0.3-3.6-1.1-4.8-0.4
				c-12,6.8-21.6-0.8-30.8-5.4c-8.8-4.4-17.4-8.3-27.1-9.9c-12.8-2-23.9-7.9-34.8-14c-5.6-3.1-10.9-6.6-17-8.1
				c-5.3-1.3-8.2-4.4-9.7-9.1"/>
			<path class="st0" d="M1515.7,81.2c0.3-5.3-5.2-6.2-8-8.7c-8.8-7.8-17.7-16-27.8-22c-12.4-7.3-26.5-9.8-41.1-6.1
				c-3,0.8-6.2,1-9.4,1.5"/>
			<path class="st0" d="M1540,91.7c-2.3-7.3-6.5-13.4-13.6-16.9c-7.7-3.7-11.5-10.7-16.8-16.5c-10.3-11.4-21.2-21.9-37.5-24.9
				c-8.5-1.5-17,1.3-25.5,0.6"/>
			<path class="st0" d="M1684.4,63.6c-13.4,6.1-27.4,5.2-42.3,2.7c-8.8-1.7-15.8,4.2-22.8,9.3c-2.6,0.8-4.4,3.4-8.3,2.9"/>
			<path class="st0" d="M1535.4,91.9c-20.8-11-43.2-18.5-65-27.1c-13.2-5.1-25.1-12.8-39.5-15.1c-1.6-0.3-1.5-1.7-2.1-2.6"/>
			<path class="st0" d="M1610,60.4c-6.7-11.8-2.1-22.8,3.9-33.1c5.5-9.4,14.9-15.3,24.1-21.1c4.8-3,13.7-0.7,16.6,4.1
				c3.3,5.3,2.5,12.2-1.9,17.5"/>
			<path class="st0" d="M1356.1,62.9c-18.6-2.5-23.9-23.6-34.4-36.2c-7-6.7-14.9-13.5-15.8-23.3"/>
			<path class="st0" d="M1312.6,66c-11.8,3.5-21.5-6.6-29.3-14.2c-3.5-4.2-7-9.3-7.8-14.3c-0.8-11.8,0-23.6,7.5-34.1"/>
			<path class="st0" d="M1323.3,67.4c0.2-3-0.8-4.6-1.6-7.2l-10.5-22.8l-2.6-2.5c-1.8-5.1-7-7.6-8.8-11.8
				c-2.6-6.7-5.2-13.5-9.4-19.7"/>
			<path class="st0" d="M1667.8,65.9c-6.7-4-14.2-7.2-15.8-15.9c-1-5.7-0.1-11.5-0.3-17.3c-0.2-5.6-1.4-10.5-5.3-13.5
				c-4.6-3.6-9.6-0.7-14.2,2.4c-5.6,3.6-10.7,7.7-15.4,12.1c-1.7,1.7-3.7,2.6-6.2,2.6"/>
			<path class="st0" d="M1615,57.3c0.4-8.2,4.7-15.1,9.4-21.5c5.7-7.8,15.2-6.8,20,1.7c1.3,2.2,1.8,4.9,4.6,5.9"/>
			<path class="st0" d="M1306.1,58.3c-13.3-6.3-20.1-17.8-25-30.3c-0.9-2.4-2.4-3.7-3.8-5.4"/>
			<path class="st0" d="M1349.1,10.6c3.2-1.8,2.4-4.3,2-7.2"/>
			<path class="st0" d="M1654.2,58.7c-3.4,2.1-6.7,1.1-10.1,0.1c-7.9-2.4-14.7-0.6-20.6,5.3c-3.3,3.3-7.2,6.4-12.6,6.5"/>
		</g>
	</g>
</g>
</svg>
