<?xml version="1.0" encoding="utf-8"?>
<!-- Generator: Adobe Illustrator 28.1.0, SVG Export Plug-In . SVG Version: 6.00 Build 0)  -->
<svg version="1.1" id="Layer_1" xmlns="http://www.w3.org/2000/svg" xmlns:xlink="http://www.w3.org/1999/xlink" x="0px" y="0px"
	 viewBox="0 0 1024 768" style="enable-background:new 0 0 1024 768;" xml:space="preserve">
<style type="text/css">
	.st0{fill:#EF4F15;}
</style>
<g>
	<path class="st0" d="M347.9,522.7c-6.3,0-11.5-5.2-11.5-11.5s5.2-11.5,11.5-11.5h323c6.3,0,11.5,5.2,11.5,11.5s-5.2,11.5-11.5,11.5
		H347.9z"/>
	<path class="st0" d="M670.8,500.2c6.1,0,11,4.9,11,11c0,6.1-4.9,11-11,11h-323c-6.1,0-11-4.9-11-11c0-6.1,4.9-11,11-11H670.8
		 M670.8,499.2h-323c-6.6,0-12,5.4-12,12v0c0,6.6,5.4,12,12,12h323c6.6,0,12-5.4,12-12v0C682.8,504.6,677.4,499.2,670.8,499.2
		L670.8,499.2z"/>
</g>
<g>
	<path class="st0" d="M509.4,481.5l-0.3,0c-3.1,0-6-1.2-8.1-3.3L477,454.2c-0.7-0.7-1.3-1.5-1.8-2.4l0-0.1L418.4,395
		c-4.5-4.5-4.5-11.8,0-16.3l23.9-23.9c2.2-2.2,5.1-3.4,8.1-3.4s6,1.2,8.1,3.4l16.9,16.9V156.2c0-6.3,5.2-11.5,11.5-11.5h44.7
		c6.3,0,11.5,5.2,11.5,11.5v215.6l16.9-16.9c2.2-2.2,5.1-3.4,8.1-3.4s6,1.2,8.1,3.4l23.9,23.9c4.5,4.5,4.5,11.8,0,16.3l-56.7,56.7
		l0,0.1c-0.5,0.9-1.1,1.7-1.8,2.4l-23.9,23.9c-2.2,2.2-5,3.3-8.1,3.3L509.4,481.5z"/>
	<path class="st0" d="M531.7,145.2c6.1,0,11,4.9,11,11v214.4v2.4l1.7-1.7l16.1-16.1c2.1-2.1,4.8-3.2,7.8-3.2c2.9,0,5.7,1.1,7.8,3.2
		l23.9,23.9c2.1,2.1,3.2,4.8,3.2,7.8s-1.1,5.7-3.2,7.8l-56.7,56.7l-0.1,0.1l-0.1,0.1c-0.5,0.9-1.1,1.7-1.8,2.3l-23.9,23.9
		c-2.1,2.1-4.8,3.2-7.8,3.2c-0.1,0-0.2,0-0.3,0l0,0l0,0c-0.1,0-0.2,0-0.3,0c-3,0-5.7-1.1-7.8-3.2l-23.9-23.9
		c-0.7-0.7-1.3-1.5-1.8-2.3l-0.1-0.1l-0.1-0.1l-56.7-56.7c-2.1-2.1-3.2-4.8-3.2-7.8s1.1-5.7,3.2-7.8l23.9-23.9
		c2.1-2.1,4.8-3.2,7.8-3.2s5.7,1.1,7.8,3.2l16.1,16.1l1.7,1.7v-2.4V156.2c0-6.1,4.9-11,11-11H531.7 M531.7,144.2H487
		c-6.6,0-12,5.4-12,12v214.4l-16.1-16.1c-2.3-2.3-5.4-3.5-8.5-3.5c-3.1,0-6.2,1.2-8.5,3.5L418,378.4c-4.7,4.7-4.7,12.3,0,17
		l56.7,56.7c0.5,0.9,1.2,1.8,1.9,2.6l23.9,23.9c2.3,2.3,5.4,3.5,8.5,3.5c0.1,0,0.2,0,0.3,0c0.1,0,0.2,0,0.3,0c3.1,0,6.1-1.2,8.5-3.5
		l23.9-23.9c0.8-0.8,1.4-1.6,1.9-2.6l56.7-56.7c4.7-4.7,4.7-12.3,0-17l-23.9-23.9c-2.3-2.3-5.4-3.5-8.5-3.5s-6.2,1.2-8.5,3.5
		l-16.1,16.1V156.2C543.7,149.6,538.3,144.2,531.7,144.2L531.7,144.2z"/>
</g>
</svg>
