<?xml version="1.0" encoding="UTF-8"?>
<svg id="Calque_2" data-name="Calque 2" xmlns="http://www.w3.org/2000/svg" viewBox="0 0 2019.85 1057.05">
  <defs>
    <style>
      .cls-1 {
        fill: none;
        stroke: #e57221;
        stroke-linecap: round;
        stroke-linejoin: round;
        stroke-width: 3px;
      }
    </style>
  </defs>
  <g id="homepage">
    <g>
      <path class="cls-1" d="M269.85,719.43c-6.97-2.44-12.31,2.29-17.43,5.08-13.27,7.21-26.2,15.17-38.67,23.71-24.58,16.83-45.36,37.67-60.33,63.45-10.07,17.35-18.66,35.59-27.41,53.67-13.76,28.43-30.15,54.99-53.88,76.33-10.77,9.69-22.12,18.77-35.77,24.36"/>
      <path class="cls-1" d="M216.49,628.61c10.25,3.98,20.51,7.96,30.76,11.94-1.84,5.17-5.52,5.83-10.65,6.26-24.86,2.07-49.26,7.04-72.56,16.03-23.36,9.01-44.12,22.1-59.89,42.13-10.36,13.15-18.75,27.31-25.64,42.63-9.29,20.64-15.48,42-18.51,64.29-2.11,15.51-3.66,31.1-.47,47.3,2.24-.7,4.43-1.38,7.15-2.23,3.72-17.39,7.22-35.1,11.34-52.66,7.15-30.48,17.29-59.67,38.14-84.07,17.38-20.33,37.89-36.54,61.7-48.86,13.76-7.12,27.8-13.24,43.08-15.84,9.66-1.64,19.49-2.19,29.22-3.41,1.6-.2,3.08-1.33,4.62-2.02"/>
      <path class="cls-1" d="M1.5,1018.14c5.52,4.52,11.02,9.06,16.54,13.59"/>
      <path class="cls-1" d="M224.44,1028.25c16.17-8.75,30.88-24.64,27.67-44.46-.79-4.84-3.06-9.46-7.4-12.04"/>
      <path class="cls-1" d="M19.7,994.83c-.91,5.68,2.48,7.97,7.56,8.83,6.5,1.09,12.88,2.78,19.13,4.87,12.35,4.12,24.14,9.68,36.13,14.69,6.99,2.92,14.07,5.62,21.25,8.04"/>
      <path class="cls-1" d="M246.95,1030.98c11.28-11.81,19.28-31.81,10.62-47.51"/>
      <path class="cls-1" d="M8.11,1008.28c4.3-3.83,9.28-1.72,13.99-.04,5.87,2.09,11.73,4.16,17.52,6.48,11.52,4.62,22.81,9.8,33.94,15.3"/>
      <path class="cls-1" d="M351.7,696.99c-16.53.57-33.1-.03-49.13,5.03-17.85,5.64-31.74,17.13-44.47,30.28-2.09,2.16-3.9,4.59-6.14,6.03-3.46,1.45-7.54,2.16-10.27,4.46-21.91,18.48-43.64,37.36-59.67,61.32-9.08,13.57-16.29,28.48-23.42,43.23-10.09,20.85-23.36,39.46-38.24,57.03-17.99,21.24-38.22,40.18-60.48,56.94"/>
      <path class="cls-1" d="M267.81,1031.04c5.82-10.67,6.87-31.74-5.87-37.8"/>
      <path class="cls-1" d="M222.85,815.38c1.38,1.79,3.38,2.79,3.38,4.79,0,4-1,7,0,11,4,17,8,34,2,51-8,18-15,37-29,52-6,6-13,11-20,17l-15,9c-11,7-22,10-34,13-43,12-85,12-127.72,12.29"/>
      <path class="cls-1" d="M46.28,995.7c-.36,4.15,1.38,6.31,5.58,7.51,23.92,6.86,47.67,14.29,72.54,17.27,15.54,1.87,31.06,1.35,46.46-.91,9.74-1.43,19.52-3.44,28.88-6.46,10.99-3.54,20.99-9.37,29.39-17.52,10.93-10.6,14.21-22.91,8.82-37.48-2.09-5.65-4.51-10.7-9.75-13.99"/>
      <path class="cls-1" d="M205.91,641.08c-3.13,1.2-6.24,2.48-9.41,3.58-14.85,5.11-29.98,9.52-44.52,15.39-27.66,11.17-50.46,28.85-66.56,54.16-10.01,15.73-20.3,31.56-25.18,49.8-3.56,13.31-5.35,27.01-3.16,40.88"/>
      <path class="cls-1" d="M37.51,702.19c6.07-1.46,8.35-6.16,9.53-11.51,5.34-24.11,19.31-42.46,37.63-58.42,14.41-12.56,31.29-19.41,49.46-22.93,19.62-3.81,39.23-1.54,58.46,3.76,3.14.86,6.44,1.16,9.69,1.59,5.3.71,9.55,2.72,11.16,8.33.46,1.59,1.12,3.12,1.9,5.26-5.53,2.84-11.32,5.55-18.41,5.22-23.21-1.1-44.69,5.59-65.88,14.4-13.79,5.73-26.84,12.29-38.75,21.34-7.65,5.81-13.19,13.23-18.34,21-8.19,12.35-16.46,24.71-23.71,37.62-6.88,12.25-10.3,25.57-8.81,39.95,1.15,11.11.95,22.36,2.16,33.46.78,7.24,3.14,14.3,4.53,21.49,1,5.18,1.23,10.52,2.43,15.64.75,3.21,2.67,6.15,4.06,9.21"/>
      <path class="cls-1" d="M250.58,739.87c-5.04,7.04-10.12,14.04-15.1,21.12-2.48,3.52-4.85,7.13-7.17,10.76-2.86,4.47-5.26,9.01-2.17,14.45.46.81-.01,2.21-.2,3.31-5,28.98-9.85,57.99-24.3,84.3-6.51,11.85-15.85,21.35-25.26,30.82-15.68,15.78-33.12,29.29-52.66,39.97-6.48,3.54-13.48,6.15-19.95,9.72-2.77,1.53-4.79,4.41-7.15,6.68"/>
      <path class="cls-1" d="M28.65,1023.49c-.55,3.04,1.13,5.13,3.7,6.48"/>
      <path class="cls-1" d="M224.64,785.32c-8.8,4.32-9.62,13.72-12.96,21.22-8.51,19.09-15.06,39.12-24.43,57.76-14.6,29.06-36.28,52.59-63.22,70.9-10.59,7.2-22.31,12.72-33.41,19.19-3.41,1.99-6.48,4.58-9.7,6.9"/>
      <path class="cls-1" d="M203.57,629.36c-19.15-2.47-38.21-2.02-56.82,3.44-11.44,3.36-23.1,6.72-33.71,11.99-19.85,9.86-36.92,23.5-50.27,41.57-9.41,12.74-15.63,26.76-18.92,42.1-.51,2.38-1.7,6.03,2.72,6.95"/>
      <path class="cls-1" d="M216.97,634.35c-3.25,4.81-6.94,6.96-13.47,5.8-6.98-1.25-14.5-1-21.56.1-11.61,1.8-23.23,4.12-34.49,7.44-33.05,9.75-57.95,30.56-77.03,58.68-9.21,13.58-16.24,28.25-21.3,43.89-.92,2.83-3.54,5.12-5.38,7.66"/>
      <path class="cls-1" d="M212.31,914.36c-2.54,1.01-5.96,1.3-7.47,3.14-12.83,15.68-28.99,27.26-46.65,36.46-15.46,8.04-32.18,13.7-49.48,16.16-22.38,3.18-44.93,5.12-67.43,7.4-3.51.36-7.13-.31-10.7-.51"/>
      <path class="cls-1" d="M223.24,924.06c-3.01,3.11-6.01,6.11-8.01,10.11-9,10-17,19-29,26-21,12-42,19-66,23-18,2-34,4-52,5-8,1-16,6-24,7-14,1-28-1-41.75-2.98"/>
      <path class="cls-1" d="M221.17,898.48c3.95,2.77,4.87,6.76,4.1,11.15-1.12,6.37-1.52,12.48-.13,19.05,4.18,19.76-4.94,34.24-20.68,44.97-6.42,4.38-13.66,7.98-21.02,10.47-12.48,4.21-25.2,8.15-38.12,10.52-12.17,2.24-24.73,2.67-37.15,3.24-9.24.42-18.52-.34-27.78-.28-1.74.01-3.47,1.41-5.21,2.17"/>
      <path class="cls-1" d="M207.62,625.48c-9.7-1.56-19.34-3.79-29.1-4.54-22.27-1.73-43.62,3.52-64.08,11.55-23.02,9.03-41.77,23.83-55.1,45.09-2.95,4.7-7.34,8.51-11.06,12.74"/>
      <path class="cls-1" d="M167.66,598.63c-22.72-3.33-44.65.42-65.63,8.88-17.89,7.22-33.88,17.45-45.51,33.6-8.89,12.35-14.22,25.9-16.9,40.72-.77,4.23-2.59,8.28-3.93,12.41"/>
      <path class="cls-1" d="M53.62,996.03c18.78,3.97,37.44,8.67,56.37,11.71,22.73,3.65,45.47,3.36,67.98-3.22,17.49-5.11,33.74-12.2,46.62-25.32,5-5.09,8.81-11.35,13.16-17.08"/>
      <path class="cls-1" d="M226.43,854.24c-2.2,9.93-4.2,20.93-10.2,29.93-31,46-76,76-130,79-4,0-9,2-13,3-6,0-11,1-17-1-12,7-26,7-40,10-5,1-9,4-13.64,4.44"/>
      <path class="cls-1" d="M189.03,818.73c-9.15,17.06-18.56,33.98-27.36,51.21-8.11,15.9-18.36,30.35-30.94,42.75-11.05,10.89-23.62,20.31-36.01,29.73-9.36,7.12-19.5,13.22-29.3,19.77"/>
      <path class="cls-1" d="M198,590.47c-5.99.89-11.48-.17-17.3-2.29-15.49-5.66-31.65-6.59-48.09-4.89-17.79,1.84-34.13,8.05-49.25,17-9.33,5.53-17.46,13.07-26.14,19.72"/>
      <path class="cls-1" d="M174.41,559.16c.4-6.21-5.43-7.21-8.87-8.8-10.73-4.98-22.05-7.94-34.29-7.34-18.31.9-34.17,6.81-48.16,18.9-7.57,6.54-12.78,14.6-18.62,22.36-1.28,1.71-3.08,3.03-4.64,4.53-.52-.29-1.04-.58-1.56-.87.11-1.91.38-3.82.3-5.72-.21-5.16-.7-10.3-.82-15.46-.21-8.92,8.77-20.93,17.29-24.53,6.44-2.73,12.29-6.87,18.74-9.57,19.27-8.07,38.91-8.44,57.84.36,11.49,5.34,22.1,12.55,33.05,19.02,7.34,4.33,10.93,10.96,11.33,19.39"/>
      <path class="cls-1" d="M191.32,577.48c-3.72,3.66-8.15,3.95-12.52,1.9-19.23-9.02-38.94-8.17-58.93-3.19-19.38,4.83-36.89,12.93-50.4,28.2"/>
      <path class="cls-1" d="M185.28,551.84c3.02-3.72.63-6.66-1.64-9.3-8.48-9.89-18.84-17.18-31.08-21.79-1.37-.52-3.04-1.02-3.87-2.08-8.26-10.46-19.88-11.53-31.6-10.23-15.29,1.69-29.94,5.76-42.49,15.6-7.77,6.09-13.62,13.44-18.08,22.11-2.01,3.91-.23,7.34.81,10.92"/>
      <path class="cls-1" d="M59.75,859.76c2.06,7.72-.95,14.95-2.26,22.32-3.25,18.3-8,36.21-17.24,52.48-6.37,11.21-13.18,22.22-22.97,31.1-2.11,1.92-2.14,6.12-3.13,9.27"/>
      <path class="cls-1" d="M184.02,575.17c-9.06-5.72-18.81-9.71-29.34-11.81-12.04-2.4-24.06-2.07-35.94.79-19.01,4.57-34.67,15.21-49.23,27.75-2.49,2.15-5.23,4.02-7.54,5.77-6.93,17.98-14.31,35.57-20.45,53.58-4.01,11.75-6.65,24.03-8.97,36.25-.6,3.16,3.26,6.93,3.48,10.52.49,8.08-.06,16.22-.09,24.33-.03,8.51-.13,17.03.19,25.53.08,2.16,1.65,4.26,2.53,6.39"/>
      <path class="cls-1" d="M223.5,625.76c2.97-4.43.25-7.92-2.26-11.04-1.84-2.29-4.48-4.02-6.95-5.72-8.69-5.98-14.52-13.87-18.05-23.88-6.79-19.25-21.61-28.14-41.16-31.14-22.83-3.5-43.48,1.98-62.82,13.81-6.26,3.83-12.79,7.45-15.73,14.77-.24.6.43,1.57.68,2.36"/>
      <path class="cls-1" d="M153.47,534.24c-3.26.8-6.58,2.46-9.77,2.25-15.84-1.02-31.21,1.1-45.97,6.73-12.16,4.64-21.78,12.99-30.55,22.46-2.01,2.17-5.02,3.41-7.57,5.08"/>
      <path class="cls-1" d="M147.43,519.09c-16.17-3.08-32.18-2.38-47.47,3.83-10.74,4.37-22.45,7.9-28.05,19.75"/>
      <path class="cls-1" d="M46.63,1029.23c-7.64-3.61-15.81-6.07-23.41-9.7s-13.42-9-20.8-12.34"/>
      <path class="cls-1" d="M276.93,1018.05c1.1,4.06,1.5,8.44.2,12.5"/>
      <path class="cls-1" d="M223.38,779.16c-9.61,2.07-13.49,10.51-18.97,17.11-3.93,4.72-7.51,9.73-11.25,14.61"/>
      <path class="cls-1" d="M187.8,604.14c4.52,2.52,9.06,4.99,13.51,7.63.54.32.54,1.53.79,2.32"/>
      <path class="cls-1" d="M248.98,642.06c4.3,3.24,8.6,6.49,12.91,9.73"/>
      <path class="cls-1" d="M58.85,589.35c1.15,2.26,2.29,4.53,3.44,6.79"/>
    </g>
    <g>
      <path class="cls-1" d="M1486.32,513.01c-1.03,1.24-2.84,2.41-2.95,3.73-.88,10.32,2.01,19.21,9.19,27.17,18.71,20.73,42.45,32.11,68.97,39.13,25.42,6.72,51.11,10.76,77.44,9.36,13.84-.74,27.66-1.95,41.46-3.27,15.25-1.45,30.35-1.05,45.18,3.01,1.99.54,3.61,2.42,4.95,4.5-22.83-2-43.55,6.03-64.9,9.84-20.88,3.73-41.77,5.65-63.14,3.66-20.58-1.91-40.63-5.74-60.03-12.42-21.42-7.38-40.63-18.31-52.82-38.49-2.28-3.78-4.19-7.77-6.27-11.67"/>
      <path class="cls-1" d="M1318.62,780.24c-1.58-6.55-7.39-9.61-11.92-13.4-21.59-18.1-33.64-40.91-34.11-69.02-.27-15.94,6.47-30.07,15.09-43.24,6.35-9.69,12.95-19.23,18.99-29.11,10.75-17.57,6.68-45.31-7.56-60.46-13.47-14.34-30.27-20.68-49.1-23.84-12.63-2.12-25.21-2.94-37.77-.84-18.3,3.06-35.85,8.53-49.98,21.2-10.35,9.29-16.82,20.86-17.94,35.15-.75,9.5-2.28,18.93-3.5,28.39-1.25,9.67-5.76,17.95-10.96,25.99-2.25,3.48-5.32,6.96-3.09,11.7"/>
      <path class="cls-1" d="M1243,116.4c40.4.82,72.97,17.75,98.6,48.29,18.54,22.09,36.5,44.66,54.89,66.88,7.44,9,14.79,18.17,23.11,26.32,12.85,12.57,27.72,22.6,45.23,27.54,21.19,5.98,42.01,6.12,61.28-6.86,2.11-1.42,5.17-1.42,9.28-2.46-3.18,7.87-8.33,12.16-13.68,15.85-16.32,11.29-34.81,15.98-54.32,13.68-18.96-2.24-36.43-9.44-50.82-22.41-7.45-6.72-14.17-14.24-21.22-21.41"/>
      <path class="cls-1" d="M1466.18,573.54c-12.93,13.82-12.25,28.92-.97,42.51,15.76,18.97,36.85,29.36,60.14,36.21,17.64,5.19,35.55,7.84,53.91,7.04,19.09-.83,37.28-5.84,55.01-12.63,4.28-1.64,8.36-3.92,12.33-6.23,2.09-1.22,3.76-3.15,5.62-4.76-.25-.56-.51-1.12-.76-1.68-3.68.54-7.41.82-11.02,1.65-22.23,5.12-44.79,6.74-67.44,5.06-17.71-1.31-34.37-7.44-50.83-13.79-15.89-6.13-30.47-14.26-42.26-26.89-9.32-9.98-14.27-21.59-12.24-35.09.75-4.99,4.3-9.73,7.17-14.21,3.32-5.19,7.29-9.96,10.98-14.91"/>
      <path class="cls-1" d="M1270.25,763.2c-10.42-8.25-22.24-15.07-29.78-26.41-12.57-18.93-15.89-39.66-10.18-61.56,4.06-15.58,13.42-28.3,23.89-40.2,6.88-7.82,14.19-15.61,17.61-25.46,5.39-15.53,2.68-23.29-12.39-34.98-15.44-11.97-42.38-9.04-56.35,1.37-10.82,8.07-15.3,19.47-19.01,31.62-4.69,15.35-9.7,30.6-20.19,43.27-10.19,12.31-21.79,22.8-37.64,27.26-5.83,1.64-11.68,3.09-18,.97-2.9-.97-6.53.24-9.83.46"/>
      <path class="cls-1" d="M1510.9,731.82c-4.12,1.05-8.2,2.74-12.37,3.03-19.89,1.38-37.75,8.34-54.37,18.89-16.27,10.32-32.32,20.92-51.24,26.2-23.1,6.44-46.12,7.39-69.37.99-2.05-.56-4.63-.05-6.75.62-4.41,1.4-8.22,1.32-12.48-1.14-9.74-5.62-19.83-10.64-29.77-15.91.38-.28.75-.56,1.13-.84-2.44-3.85-4.29-8.3-7.44-11.44-8.94-8.92-17.28-18.23-21.63-30.25-6.22-17.16-2.51-33.7,4.01-49.96,6.21-15.48,17.85-27.49,26.4-41.46,6.03-9.86,10.1-20.46,11.03-32.1,1.08-13.54-6.06-22.83-16.3-30.06-12.71-8.98-27.47-13.11-42.72-13.22-28.04-.21-54.17,16.29-61.11,46.93-2.03,8.94-3.45,17.93-6.94,26.69-5.54,13.88-14.85,23.54-27.37,30.87-10.2,5.97-21.53,8.75-32.75,11.89-4.27,1.2-8.42,2.8-13.14,4.39.32,2.47.56,4.29.8,6.11"/>
      <path class="cls-1" d="M990.25,462.36c-3.74,9.35-5.43,19.17-7.53,28.97-2.39,11.14-7.22,21.74-10,32.82-6.05,24.1-8.21,48.44-5.62,73.42,1.84,17.69,4.41,35.04,10.51,51.7,11.47,31.32,31.68,55.4,60.91,71.94,12.95,7.33,26.46,13.11,40.97,16.37,19.94,4.48,38.32-.13,55.63-10.14,1.22-.7,2.16-1.96,3.06-3.09.3-.38.04-1.2.04-2.23-6.65,1.62-13.3,2.96-19.77,4.88-19.26,5.71-37.35,1.05-55.11-6.01-13.92-5.53-26.55-13.55-37.15-23.94-20.64-20.24-35.28-44.31-42.53-72.45-5.55-21.55-6.11-43.54-2.58-65.31,2.83-17.48,7.75-34.64,11.91-51.9,3.72-15.47,3.55-30.86-.25-46.26"/>
      <path class="cls-1" d="M1300.56,115.5c3.52,1.63,6.92,3.59,10.57,4.82,14.01,4.73,25.08,14.14,36.55,22.78,25.01,18.84,46.6,41.46,69.15,63.03,19.78,18.92,41.56,35.34,66.44,47.14,11.31,5.36,22.63,11.02,35.29,12.93,2.68.4,5.29,1.26,7.94,1.9.39-.54.78-1.07,1.18-1.61-1.81-1.76-3.36-3.92-5.46-5.22-24.63-15.24-48.05-32.1-69.52-51.55-17.28-15.66-34.42-31.48-51.62-47.22-10.41-9.53-23.41-14.48-35.98-20.22-7.13-3.25-13.98-7.13-21.18-10.19-2.07-.88-4.56-4.66-7.36-.74"/>
      <path class="cls-1" d="M1499.89,1018.03c3.64,3.96,8.36,2.79,12.35,1.65,15.97-4.55,29.24-13.43,40.21-25.91,4.71-5.35,3.29-12.02,4.56-18.01,1.75-8.23,2.58-16.83,2.44-25.24-.32-20.03-6.21-38.79-13.55-57.36-7.49-18.94-20.36-33.57-35.24-46.45-13.26-11.48-28.32-20.77-44.6-27.6-8.39-3.52-17.29-5.86-26-8.61-6.16-1.94-12.4-3.65-18.59-5.49-6.84-2.04-10.51-.45-13.57,6.25-6.07,13.32-12.39,26.57-14.06,41.38-.21,1.85-.57,3.7-.57,5.55.03,15.83.28,31.66.15,47.49-.1,12.34-.05,24.73-1.14,37-2.19,24.66-8.38,48.1-24.31,67.97-15.12,18.86-34.52,30.21-58.64,33.64-17.97,2.55-35.57,2.58-52.69-4.62-3.62-1.52-7.88-1.47-11.69-2.65-1.29-.4-2.12-2.33-3.15-3.55"/>
      <path class="cls-1" d="M1759.82,621.46c-11.35.05-22.73-.44-34.04.29-18.15,1.16-35.05,6.96-50.67,16.19-15.52,9.17-30.46,19.41-46.41,27.76-24.41,12.77-50.67,19.22-78.43,17.1-17.09-1.3-33.57-6.13-49.54-12.12-13.85-5.19-26.86-12.29-36.6-23.82-4.66-5.52-8.4-11.81-12.55-17.75"/>
      <path class="cls-1" d="M1150.27,14.47c-13.1,2.14-24.82,8.04-35.02,15.83-12.49,9.53-24.04,20.41-35.18,31.52-8.62,8.59-11.13,20.45-13.6,32-2.33,10.9-1.2,21.69-.1,32.71,1.67,16.63.22,33.24-5.04,49.35-1.62,4.95-.95,10.82-6.07,14.13,1.04,7.24,1.56,14.56,3.22,21.61,2.73,11.6,5.63,23.21,9.47,34.47,5,14.67,7.7,29.6,8.16,45.03.31,10.28.44,20.6,1.46,30.82,1.52,15.12-4.12,28.17-11.14,40.72-9.97,17.79-21.31,34.66-36.78,48.38-3.3,2.93-6.38,5.63-11.16,3.71"/>
      <path class="cls-1" d="M1546.29,240.13c.77-10.69,2.08-21.38,2.14-32.08.05-7.8-.35-16-2.71-23.33-3.15-9.79-4.77-19.77-4.54-29.67.47-21.07-9.65-36.32-24.73-49.12-6.06-5.15-13.12-9.14-19.79-13.57-15.4-10.22-32.99-13.96-50.83-17.08-13.75-2.4-27.54-4.32-41.49-3.39-29.34,1.96-57.98,6.67-84.83,19.83-7.3,3.58-13.98,9.23-22.74,9.62-3.3.15-6.6.43-9.9.65"/>
      <path class="cls-1" d="M2016.93,760c-4.12,1-8.31,1.74-12.54,2.13"/>
      <path class="cls-1" d="M999.99,427.78c-3.43-5.62.08-11.04,1.43-15.97,5.23-19.09-.04-36.85-6.28-54.25-7.24-20.21-17.51-38.96-31.63-55.44-13.88-16.21-31.23-26.44-52.17-30.54-20.42-4-40.97-3.09-61.24.47-15.26,2.68-29.66,8.22-41.49,19.04-3.71,3.4-8.28,5.87-12.53,8.81-5.1,14.91-10.35,30.3-15.65,45.66-.11.31-.79.43-1.2.64"/>
      <path class="cls-1" d="M1401.65,798.95c1.02,7.52-4.26,13.11-6.12,19.76-4.38,15.67-9.47,31.16-13.22,46.98-4.5,19.01-5.55,38.54-7.59,57.94-2.66,25.25-8.43,49.92-22.85,71.7-14.4,21.75-35.18,33.95-59.9,40.28-5.23,1.34-10.73,1.63-16.05,2.69-1.94.39-3.72,1.59-5.57,2.42"/>
      <path class="cls-1" d="M1245.44,109.6c11.93-1.76,23.86-3.51,35.7-5.26,8.82,10.79,20.51,7.08,31.16,7.3,15.67.33,31.36-.22,47.04-.08,19.88.18,39.11,4.44,58.25,9.48,21.94,5.78,42.75,14.36,62.54,25.19,10.8,5.91,21.16,12.81,31.04,20.18,14.08,10.5,24.46,24.16,31.26,40.42,1.06,2.54,2.47,4.93,3.72,7.39"/>
      <path class="cls-1" d="M1950.64,783.36c-1.4,1.86-3.4,3.86-2.4,5.86,21,34.99,43.99,65.99,69.74,95.95"/>
      <path class="cls-1" d="M1476.6,551.29c2.19,9.27,1.79,19.13,6.9,27.74,7.88,13.28,19.93,21.52,33.64,27.48,14.33,6.23,29.2,11.06,44.6,14.05,18.42,3.57,36.94,5.05,55.73,3.51,28.69-2.35,55.89-11.15,83.49-18.28,8.33-2.15,16.88-3.44,25.34-5.13"/>
      <path class="cls-1" d="M1244.21,112.07c3.51.19,7.02.41,10.53.56,28.87,1.22,54.32,11.19,76.26,29.88,10.89,9.27,22.31,18.08,32.18,28.34,18.6,19.33,36.01,39.78,54.37,59.34,16.64,17.74,35.34,32.76,59.55,39.22,14.08,3.76,28.34,4.36,42.72,1.7,1.4-.26,2.88-.05,4.33-.05"/>
      <path class="cls-1" d="M993.01,521.55c1.81,14.84-1.16,29.24-3.24,43.84-1.94,13.62-1.61,27.52.5,41.29,1.93,12.63,5.45,24.88,11,36.21,5.1,10.39,11.29,20.57,18.69,29.45,11.38,13.66,23.33,27.1,38.96,36.36,16.82,9.97,34.93,14.91,54.49,11.91,5.95-.91,11.56-3.99,17.33-6.07,4.4-1.58,8.8-2.74,13,.55"/>
      <path class="cls-1" d="M1531.47,119.94c.4-1.85,1.54-3.9,1.1-5.53-8.45-31.41-30.09-48.48-60.78-56.63-22.1-5.87-44.47-6.65-66.92-5.51-26.61,1.35-52.66,6.11-76.01,20-12.58,7.48-24.73,15.67-37.07,23.54"/>
      <path class="cls-1" d="M1546.01,440.56c-6.38-2.1-11.3.27-14.73,4.92-8.04-.63-13.47,3.49-18.57,7.65-9.68,7.91-15.16,17.75-16.4,30.8-.91,9.57-5.42,18.8-8.77,29.6,6,17.41,21.14,28.23,37.94,37.55,17.39,9.64,35.93,16.52,55.27,20.39,14.99,3,30.46,4.11,45.78,4.81,16.26.75,32.6-.35,48.89.05,17.87.43,35.63,2.24,52.65,8.29,4.37,1.55,8.69,3.24,13.03,4.86"/>
      <path class="cls-1" d="M1307.45,4.46c-7.01.86-14.02,1.78-21.04,2.51-1.61.17-3.39-.07-4.94-.58-15.41-5.08-28.7.35-41.44,8.27-17.39,10.82-31.13,25.58-44.42,40.87-17.64,20.3-36.29,39.49-61,51.51-1,.49-2.03.91-4.78,2.14.77-2.97.63-5.38,1.75-6.33,16.54-14.06,24.63-33.58,34.32-52.07,8.2-15.64,19.11-28.54,35.66-36.1,2.09-.96,6.58-1.42,5-6.03"/>
      <path class="cls-1" d="M1417.69,785.93c-6.95-.07-11.65,3.41-14.82,9.32-.57,1.06-.97,2.55-1.87,3.02-10.55,5.51-14.55,16.76-22.06,24.91-1.1,1.2-1.94,3.29-1.8,4.87.97,10.96-4.99,20.17-7.36,30.27-4.95,21.17-9.99,42.33-14.5,63.6-3.51,16.55-6.01,33.68-13.78,48.6-14.22,27.28-32.7,51.11-64.4,60.24-7.11,2.05-14.41,3.41-21.63,5.09"/>
      <path class="cls-1" d="M1312.31,884.49c-11.52-2.83-23.02-1.58-34.69-.69-12.3.93-24.75.05-37.12-.23-8.26-.19-16.51-.81-24.77-1.06-19.4-.59-38.82-1.94-58.19-1.34-18.73.59-36.54,5.37-52.01,17.16-10.09,7.7-13.24,18.36-15.17,29.8-.82,4.86-.85,9.86-1.24,14.79"/>
      <path class="cls-1" d="M1303.03,885.15c-2.88,1.25-5.71,3.42-8.66,3.6-23.71,1.4-47.43,2.71-71.16,3.49-21.24.7-42.54,0-63.74,1.21-19.58,1.13-38.62,5.52-52.44,21.09-11.22,12.64-15.35,27.33-9.06,43.72,1.43,3.73,4.06,7.01,6.14,10.49"/>
      <path class="cls-1" d="M1332.72,880.69c-8.91-1.8-15.9.7-21.79,7.99-3.42,4.23-9.14,5.22-14.61,6.58-14.17,3.55-27.92,8.82-42.12,12.17-22.12,5.22-44.49,9.4-66.75,14.05-14.48,3.02-29.2,4.76-42.73,11.77-14.8,7.67-21.95,20.22-25.69,35.44-1.14,4.65-1.6,9.46-2.56,15.4,12.31,14.31,24.99,29.01,46.66,31.39,6.3.69,12.45,2.95,18.6,4.75,4,1.17,7.82,3.81,11.81,4,8.41.4,16,2.86,23.58,6.19,6.84,3,14.22,3.52,21.64,3.06.62-.04,1.35.21,1.84-.05,12.91-6.57,27.44-9.82,38.37-20.42,24.51-23.77,42.64-51.51,53.94-83.61,7.58-21.53,14.76-43.2,21.95-64.87,1.11-3.33,1.27-6.97,1.88-10.47"/>
      <path class="cls-1" d="M1980.36,784.45c-4.48,9.12,8.41,12.3,14.25,15.97,7.94,4.99,15.29,10.86,22.46,16.89"/>
      <path class="cls-1" d="M989.46,426.59c3.75-2.56,4.16-6.49,4.27-10.51.43-15.57-3.62-30.36-8.31-44.96-8.37-26.1-23.1-48.23-43.65-66.35-13.4-11.82-28.9-18.86-47.06-21.06-15.23-1.85-30.24-3.08-45.2.55-18.44,4.47-34.24,13.04-43.82,30.36"/>
      <path class="cls-1" d="M1965.55,793.77c1.69-.55,4.69-1.55,6.69-.55,17,11,30.99,23,45.08,36.6"/>
      <path class="cls-1" d="M1492.46,502.49c4.57,7.17,8.33,15.06,13.89,21.38,13.06,14.87,30.99,21.85,49.53,26.9,13.02,3.55,26.35,6.04,39.64,8.46,6.06,1.1,12.36,1.23,18.55,1.2,16.51-.09,33.01-.58,49.52-.77,18.04-.21,35.99.37,53.28,6.47,4.56,1.61,8.98,5.21,14.23,1.82"/>
      <path class="cls-1" d="M1541.33,240.15c-2.51-6.57-5.01-13.14-7.52-19.7-4.96-12.93-12.3-24.28-21.75-34.5-15.2-16.44-33.4-28.61-53.55-37.78-20.72-9.42-42.53-15.85-65.04-19.49-16.67-2.7-33.48-4.58-50.14-7.34-7.35-1.22-14.48-2.54-21.68.22"/>
      <path class="cls-1" d="M1508.52,1009.36c3.24.98,5.86.94,8.75-1.8,11.98-11.33,21.26-24.5,22.91-40.94,1.34-13.41,1.25-27.33-.84-40.61-2.98-18.94-11.37-36.1-22.73-51.8-11.12-15.36-24.97-27.54-41.79-36.01-17.7-8.91-35.91-16.82-53.93-25.1-.43-.2-1.21.37-1.83.57"/>
      <path class="cls-1" d="M1541,171.08c-2.69-2.04-5.87-3.68-7.99-6.2-8.96-10.64-20.68-17.5-32.39-24.44-16.36-9.7-33.87-16.59-52.07-22.05-16.28-4.88-32.74-8.53-49.59-10.88-17.7-2.47-35.44-4.02-53.26-3.2-15.08.7-30.12,2.49-45.17,3.79"/>
      <path class="cls-1" d="M1761.1,628.86c-18.69-2.75-36.06,2.37-53.19,8.9-1.89.72-4.12,1.23-5.48,2.56-2.87,2.81-5.71,2.2-9.35,2.28-4.57.1-9.44,3.13-13.52,5.87-7.77,5.22-14.67,11.39-21.3,18.23-14.06,14.52-31.69,23.56-51.58,28.34-22.87,5.49-46.1,6.99-69.3,4.92-21.05-1.88-41.84-6.74-60-18.19-7.37-4.65-13.01-12.02-19.43-18.17-1.26-1.21-2.49-2.45-3.73-3.68"/>
      <path class="cls-1" d="M869.16,253.26c2.48.4,5.08,1.5,7.41,1.09,27.83-4.92,52.08,3.5,73.7,20.21,19.89,15.38,37.3,32.98,48.17,56.33,6.54,14.04,10.48,28.47,11.14,43.81.38,8.83.29,17.68.15,26.52-.14,8.67-3.41,16.49-7.27,24.09"/>
      <path class="cls-1" d="M1496.75,494.45c11.6,27.9,36.72,37.14,62.72,45.38,24.75,7.84,50.2,6.61,75.56,6.32,23.87-.27,47.55.81,70.6,7.74,4.37,1.31,8.63,3.04,13.05,4.12,1.46.36,3.27-.72,4.92-1.14"/>
      <path class="cls-1" d="M1502.19,466.06c1.04,2.26,2.96,4.5,2.99,6.77.22,15.48,8.16,26.62,20.19,34.95,17.31,11.99,36.55,19.67,57.61,21.95,16.26,1.75,32.59,3.13,48.92,4.03,8.83.49,17.73-.5,26.61-.55,3.51-.02,7.01.9,10.53,1.07,3.91.19,7.88-.36,11.75.08,6.02.68,11.98,1.95,17.98,2.9,5.36.85,10.74,1.6,16.1,2.4"/>
      <path class="cls-1" d="M1993.7,599.37c5.13.6,7.19-2.39,8.02-6.82-5.95-9.82-15.5-7.04-24.17-6.57-6.63.36-13.19,2.17-19.8,2.36-20.21.59-40.45,1.3-60.65.85-21.51-.47-42.25,2.21-62.51,9.62-21.08,7.71-40.16,18.4-56.14,34.27-1.96,1.95-4.1,3.73-6.15,5.59"/>
      <path class="cls-1" d="M1537.2,152.6c-12.56-20.53-30.52-34.8-52.21-44.78-14.03-6.46-28.95-9.92-44.02-12.69-25.18-4.62-50.63-5.53-76.15-4.56-17.77.68-35.32,3.22-52.59,7.56-.53.13-1.23-.36-1.85-.57"/>
      <path class="cls-1" d="M1013.33,498.02c-.6,4.53-1.65,9.05-1.68,13.58-.03,5.75,1.12,11.51,1.14,17.26.06,19.89,2.12,39.56,5.2,59.19,2.54,16.22,4.69,32.43,10.16,48.07,7.45,21.3,21.56,36.82,41.25,47.08,9.79,5.1,20.52,8.47,30.97,12.22,2.12.76,4.9-.29,7.37-.51"/>
      <path class="cls-1" d="M2017.83,852.32c-1.35-2.23-2.66-4.48-4-6.72,1.22.05,2.43.21,3.61.53"/>
      <path class="cls-1" d="M1769.8,636.22c4.42-7.55,8.23-15.36,14.63-21.78,9.58-9.59,21.12-15.66,33.48-20.31,20.35-7.65,41.66-12.05,63.07-14.94,24.99-3.38,50.24-4.63,75.48-1.84,6.82.75,13.62,1.67,20.44,2.33,5.18.5,5.51.25,9.17-3.61-4.75-13.4-17.97-14.67-28.54-19.55-3.71-1.71-8.21-2.49-12.32-2.42-16.32.29-32.65-.99-48.93,2.4-14.26,2.97-28.92,3.95-43.24,6.66-21.82,4.12-43.68,8.36-63.67,18.73-2.79,1.44-5.76,2.89-7.94,5.04-3.09,3.05-6.52,4.02-10.6,3.65"/>
      <path class="cls-1" d="M1981.22,577.23c-12-6.49-24.81-10.39-38.43-10.82-12.37-.39-24.8-.62-37.12.26-12.43.89-24.8,2.96-37.12,5-16.13,2.68-32.29,5.33-48.22,8.95-14.83,3.37-28.86,9.22-40.09,19.87-6.05,5.73-9.95,13.16-12.98,20.94"/>
      <path class="cls-1" d="M2017.01,784.48c-17.91-4.57-35.63-9.82-53.44-14.75"/>
      <path class="cls-1" d="M1411.78,843.93c-.81,2.27-2.4,4.56-2.32,6.79.71,19.74,1.17,39.51,2.83,59.18,1.13,13.44,4.79,26.65,6.02,40.09,1.9,20.62-1.75,39.92-14.2,57.56-10.77,15.27-23.73,27.6-39.68,36.99-4.49,2.64-9.4,4.47-14.81,2.59"/>
      <path class="cls-1" d="M1998.18,628.95c.25,7.07-4.68,10.5-9.86,13.59-12.73,7.6-26.48,11.29-41.4,11.43-16.11.15-31.88-1.89-47.72-4.64-15.76-2.74-31.83-3.71-47.64-6.22-16.09-2.56-31.64-.91-46.33,5.48-9.93,4.32-19.42,10-28.33,16.19-4.89,3.4-6.25,10.4-4.14,15.72,3.27,8.21,2.17,16.15.98,24.14-2.01,13.46-4.86,26.69-11.41,38.96-13.54,25.36-33.9,41.48-62.35,47.17-5,1-9.9,2.48-14.85,3.74"/>
      <path class="cls-1" d="M1762.38,637.49c-4.4,1.11-8.8,2.23-13.2,3.34-8.88-.94-16.24,1.38-22.75,8.45-8.57,9.31-18.08,17.75-26.96,26.78-11.51,11.7-19.92,25.65-28.29,39.59-8.81,14.68-19.79,27.18-35.16,35.28-15.85,8.35-32.51,12.16-50.71,10.98-17.86-1.16-33.48-8.43-49.61-14.71-4.69-1.82-9.23-3.23-14.93-1.56-6.39,1.87-13.62.61-20.3,1.77-19.84,3.45-39.68,7.15-56.86,18.69-1.19.8-2.07,2.03-3.1,3.07"/>
      <path class="cls-1" d="M1094.04,676.48c9.54,9.11,20.83,14.26,34.12,14.61,13.46.36,25.01-3.93,34.66-13.65,9.74-9.81,19.06-19.77,26.56-31.54,8.17-12.84,11.74-26.89,14.59-41.47,3.9-20.01,20.65-29.63,38.72-23.42,14.98,5.14,18.06,18.91,11.76,31.06-3.44,6.64-9.16,12.12-13.93,18.06-7.14,8.9-15.31,17.16-21.34,26.74-16.92,26.88-15.07,58.45,6.32,82.56,11.24,12.67,25.91,19.93,40.56,27.26,2.05,1.03,5.66-1.03,8.54-1.66"/>
      <path class="cls-1" d="M1286.97,892.63c-16.49,3.37-32.97,6.81-49.48,10.08-10.28,2.04-20.58,4.02-30.93,5.66-8.61,1.37-17.29,2.59-25.98,3.18-16.06,1.09-31.85,3.38-46.98,8.99-16.76,6.21-31.6,27.76-26.79,49.37.9,4.04,4.76,7.43,7.25,11.12"/>
      <path class="cls-1" d="M1022.68,383.88c-1.09-1.82-2.17-3.64-3.04-5.08,1.63-18.02-.92-34.84-8.32-51.01-8.79-19.17-20.13-36.78-35.16-51.41-13.43-13.07-27.67-25.99-46.41-31.31-21.29-6.04-42.07-5.82-61.31,7.43-3.61,2.49-8.49,3.29-12.89,4.49-15.34,4.16-30.24,9.42-43.16,18.84-7.56,5.51-13.94,12.28-15.43,22.19"/>
      <path class="cls-1" d="M2005.16,792.96c-3.08,7.39,6.83,11.14,11.73,14.35"/>
      <path class="cls-1" d="M1696.17,643.97c-13.28,9.81-23.85,22.21-34.66,34.56-15.67,17.91-34.62,31.46-57.8,38.77-15.61,4.92-31.38,6.58-47.67,6.43-19.22-.17-37.63-3.8-55.79-9.64-4.05-1.3-8.54-1.22-13-1.11,10.45,12.2,25.1,18.11,37.31,27.4"/>
      <path class="cls-1" d="M1741.37,644.99c-12.47,9.84-20.72,23.1-28.12,36.62-12.1,22.09-23.73,44.62-39.75,64.01-18.04,21.83-41.77,31.93-70.8,25.88-5.74-1.2-11.58-1.9-17.33-3.06-7.82-1.58-18.63,5.83-18.93,13.7-.08,2.21,1.76,5.21,3.65,6.62,5.14,3.83,7.96,8.5,8.76,14.88.53,4.16,2.22,8.24,7.95,7.38"/>
      <path class="cls-1" d="M1531.48,250.07c-4.48-14.99-13.49-27.48-23.22-39.26-16.16-19.55-34.71-36.59-57.05-49.19-15.64-8.82-32.3-15.03-49.64-19.42-16.88-4.28-33.84-8.21-50.83-12-1.83-.41-4.09,1.11-6.15,1.74"/>
      <path class="cls-1" d="M851.27,139.25c-1.86.21-3.93-.03-5.53.72-10.04,4.67-17.08,12.72-20.01,22.94-2.04,7.12,2.94,13.83,7.91,18.87,10.98,11.15,23.93,19.55,38.35,25.92,15.9,7.03,32.74,10.13,49.63,13.23,16.7,3.07,31.78,10.01,44.57,20.88,22.27,18.91,40.42,41.51,53.41,67.58,8.06,16.18,10.91,33.81,8.83,52.29-1.11,9.81-4.23,18.92-6.25,28.38-1.79,8.35-2.67,16.9-4.35,25.28-2.08,10.37-6.07,19.93-13.43,27.83"/>
      <path class="cls-1" d="M1727.76,646.9c-3.09.22-6.82-.59-9.18.83-14.16,8.55-27.67,18.01-39.61,29.58-12.98,12.57-25.83,25.32-39.5,37.11-17.95,15.49-39.13,23.84-62.89,26.52-14.02,1.58-27.71,1.23-41.51-1.16-2.82-.49-5.79-.04-9.5-.03-.08.77-.23,2.24-.37,3.7"/>
      <path class="cls-1" d="M1980.5,814.05c-.81,6.18,3.92,9.98,7.4,14.53s6.77,9.11,10.07,13.74c6.62,9.29,13.13,18.68,20.38,27.51"/>
      <path class="cls-1" d="M1477.85,40.02c-3.51-.39-7.45.1-10.45-1.35-9.5-4.6-19.7-5.77-29.83-6.31-20.79-1.1-41.46.76-61.86,5.08-19.44,4.11-36.97,11.73-51.38,26.01-6.01,5.95-13.15,10.91-20.29,15.54-10.01,6.49-17.59,14.84-22.71,25.5"/>
      <path class="cls-1" d="M1479.48,1021.22c7.78,3.78,13.99-1.22,19.66-4.63,13.17-7.92,19.42-21.34,24.67-35.07,4.53-11.85,3.07-24-.24-35.72-6.74-23.8-16.15-46.46-31.13-66.5-12.15-16.26-28.49-27.69-44.75-39.27-4.9-3.49-9.38-7.58-14.37-10.91-3.03-2.02-6.05-5.25-10.48-3.13"/>
      <path class="cls-1" d="M1508.96,73.79c-.42-1.64-.33-3.75-1.34-4.86-12.84-14.04-25.19-28.6-42.17-38.14-12.98-7.29-26.57-12.16-41.55-13.42-13.63-1.15-27.12-2.66-40.88-1.07-16.18,1.87-31.46,6.39-45.67,14.02-16.89,9.07-31.01,21.73-43.85,35.86-11.18,12.3-23.65,23.23-37.69,32.1-6.47,4.09-11.44,8.89-14.98,17.91,4.56,9.59,9.53,21.12,15.44,32.15,6.46,12.05,8.04,25.1,10.09,38.23,2.46,15.69,5.12,31.41,8.94,46.81,5.21,21.01,21.58,30.71,40.94,35.96,3.95,1.07,9.98,2.54,12.91-3.49"/>
      <path class="cls-1" d="M1330.89,886.25c-6.79,4.76-13,12.02-20.49,13.71-12.03,2.71-22.09,9.67-33.84,12.51-18.19,4.39-36.34,8.96-54.4,13.84-15.12,4.08-30.06,8.84-45.15,13.06-11,3.08-21.4,7.46-30.83,13.82-9.13,6.16-15.92,14.15-18.63,25.28-1,4.12-3.54,7.86-5.38,11.78"/>
      <path class="cls-1" d="M1569.29,774.71c-2.69-1.84-5.14-4.49-8.12-5.37-13.33-3.96-26.64-8.49-40.3-10.75-14.69-2.44-29.84-1.72-44.47,1.37-9.51,2.01-18.54,6.2-27.88,9.09-3.11.96-6.53.9-10.69,1.42-3.72,3.24-8.39,7.02-12.71,11.15-6.33,6.04-7.98,13.7-7.43,22.2.41,6.35.14,12.75.17,19.09,1.79.91,3.09,1.56,4.16,2.11,1.51,9.37,7.62,15.57,13.34,21.83,14.15,15.49,29,30.37,42.77,46.19,15.65,18,26.35,39.11,29.14,62.71,2.73,23.15-3.61,44.41-23.56,59.17-7.67,5.67-16.77,8.57-27.52,8.26,2.18-3.09,4.24-6.29,6.57-9.26,7.96-10.15,15.52-20.51,18.37-33.41,3.06-13.87,1.87-26.75-6.76-38.97-4.93-6.97-7.45-15.58-11.54-23.2-4.92-9.17-10.43-18.02-15.51-27.11-5.12-9.16-10.05-18.42-14.95-27.7-.3-.56.34-1.61.54-2.44"/>
      <path class="cls-1" d="M1374.55,826.84c-2.67,2.48-5.4,4.9-8,7.45-5.2,5.08-9.02,10.84-7.91,18.72-5.11.41-7.79,2.19-8.96,7.18-.85,3.63-3.98,6.88-6.55,9.91-3.95,4.68-8.29,9.04-12.23,13.29,5.08,8.54,3.15,14.46-4.87,18.95-9.35,5.24-19.14,9.94-27.69,16.28-28.94,21.47-61.57,34.71-95.82,44.79-15.38,4.53-30.44,9.87-42.7,21.02-6.46,5.87-7.32,6.57-7.28,15.59,4.33,4.06,9.01,8.44,13.68,12.82"/>
      <path class="cls-1" d="M2001.79,608.58c-9.8,10.71-22.8,15.54-36.47,17.83-11.98,2-24.31,2.77-36.47,2.65-11.16-.11-22.28-2.33-33.45-3.27-22.25-1.88-44.58-4.32-66.82-.74-7.38,1.19-15.18,2.88-21.04,8.52"/>
      <path class="cls-1" d="M1307.44,901.78c-17.48,14.13-37.59,23.45-58.71,30.34-25.12,8.2-50.66,15.13-75.96,22.77-8.76,2.64-16.98,6.36-24.14,12.35-8.79,7.35-12.84,16.72-13.45,27.88-.11,2.06-.38,4.11-.58,6.17"/>
      <path class="cls-1" d="M1946.92,526.21c-11.14.05-22.28.11-33.43.16-10.11.05-20.23-.14-30.33.22-7.85.28-15.72.91-23.51,1.95-21.98,2.94-43.67,6.7-62.48,19.9-14.9,10.46-23.01,24.78-27.19,42.09-1.09,4.5-5.01,7.97-10.28,8.73"/>
      <path class="cls-1" d="M1939.47,520.07c-6.19-.59-12.54-.51-18.55-1.88-19.12-4.35-38.19-4.64-57.63-2.23-20.5,2.54-40.11,8.16-58.56,16.8-11.9,5.58-23.95,12.17-31.6,23.89-3.8,5.82-6.18,12.19-5.95,19.14.08,2.29,1.93,4.52,2.98,6.77"/>
      <path class="cls-1" d="M1974.33,561.84c1.86-2.81.14-4.7-1.91-6.12-10.74-7.45-22.32-12.94-35.33-15.31-22.12-4.04-44.16-2.22-66.24.31-9.87,1.13-19.87,1.28-29.68,2.75-23.93,3.59-44.7,13.41-60.52,32.26"/>
      <path class="cls-1" d="M1556.07,986.93c4.16.95,4.6-2.61,6.19-4.94,12.52-18.34,12.66-38.47,6.92-58.58-7.84-27.45-20.58-52.65-41.74-72.51-12.67-11.88-26.6-22.41-43.39-28.18-2.64-.91-5.74-.48-8.63-.68"/>
      <path class="cls-1" d="M2017.92,776.91c-7.5-1.57-14.97-3.43-22.16-6.11"/>
      <path class="cls-1" d="M1998.04,599.35c3.2,5.08,6.4,10.16,9.15,14.53-4.04,16.13-18.21,18-30.07,22.43-16.47,6.15-33.83,7.66-51.28,6.43-9.55-.67-18.99-2.76-28.51-4.02-11.34-1.5-22.67-3.24-34.07-4.06-12.34-.88-24.76-1.07-37.14-1.07-5.77,0-11.55,1.18-17.32,1.82"/>
      <path class="cls-1" d="M2016.86,791.49c-6.63,1.73-14.63.73-21.63-1.27-10-4-20-9-30.99-13-3-2-7-4-8.1-9.31"/>
      <path class="cls-1" d="M1776.27,693.54c7.76,3.47,7.96,9.92,7.63,17.24-.85,19.04-5,36.88-16.57,52.5-13.3,17.95-32.23,26.7-53.08,32.33-4.54,1.23-9.04,2.62-13.61,3.73-6.25,1.52-12.03-.33-17.99-2.24-12.68-4.06-25.93-6.42-37.79-12.88"/>
      <path class="cls-1" d="M1893.7,785.48c-6.36,6.61-13.62,12.58-18.92,19.95-13.96,19.38-12.54,42.63-.37,62.09,12.17,19.47,30.38,31.21,52.7,36.06,11.3,2.46,23.04,1.33,33.91-2.16,8.07-2.59,16.19-2.15,24.23-3.44,5.5-.89,11.12-.96,16.69-1.4"/>
      <path class="cls-1" d="M1017.53,472.09c1.89,6.57,4.04,13.08,5.61,19.72,2.55,10.83,4.95,21.71,6.98,32.65,4.01,21.63,1.93,43.57,2.99,65.34.97,20,6.42,38.77,19.25,54.85,1.51,1.89,2.15,4.46,3.19,6.72"/>
      <path class="cls-1" d="M1233.6,863.9c-8.72,2.71-15.53-2.65-22.92-5.46-13.67-5.2-27.15-10.96-40.97-15.72-22.61-7.78-45.46-7.4-68.03.32-10.22,3.49-18.68,9.62-23.44,19.77-2.4,5.11-3.38,10.21-2.01,16.08,1.09,4.69.79,9.88.2,14.74-2.52,20.46,1.85,39.27,12.74,56.69.49.78.84,1.64,1.26,2.46"/>
      <path class="cls-1" d="M1420.46,846.97c-4.09,4.58-2.63,9.46-.49,14.16,1.79,3.93,2.5,7.48.83,11.82-.94,2.43-.11,5.75.51,8.54,2.16,9.69,4.6,19.31,6.87,28.97.57,2.43,1.14,4.91,1.25,7.39.57,13.36,1.38,26.72,1.39,40.08.01,21.53-5.13,41.63-18.17,59.31-11.52,15.62-26.85,26.77-43.99,34.96-6.71,3.2-16.06,4.3-23.19,2.45-10.64-2.77-21.22-1.62-31.71-3.1-5.84-.82-11.58-2.34-17.36-3.55"/>
      <path class="cls-1" d="M1879.87,483.98c-3.92.22-7.85.37-11.76.69-12.79,1.05-25.76,1.16-38.32,3.49-18.81,3.49-36.67,10.14-51.92,22.24-18.93,15.01-27.45,34.66-25.7,58.69.15,2.07.74,4.13,1.25,6.16.92,3.71,3.76,7.48.01,11.08-3.79,3.63-7.39,7.73-11.83,10.32-2.71,1.58-6.87.7-10.37.92"/>
      <path class="cls-1" d="M1418.49,824.16c-6.95,10.29-5.39,13.74,3.61,22.4,11.43,10.99,21.81,23.18,31.84,35.49,12.9,15.84,23.21,33.51,31.13,52.26,8.88,21.01,12.78,42.64.45,64.04-2.22,3.85-5.12,7.31-7.26,11.2-1.45,2.65-2.12,5.72-3.14,8.6"/>
      <path class="cls-1" d="M992.67,450.01c2.24-8.83-.17-16.41-4.81-24.18-3.06-5.14-3.93-11.69-5.23-17.72-2.72-12.64-5.2-25.24-12.56-36.35-7.76-11.71-14.89-23.82-22.55-35.6-8.07-12.4-17.7-23.47-30.47-31.29-21.57-13.2-44.74-16.15-68.65-8.14-11.32,3.79-21.87,9.81-32.82,14.73-3.63,1.63-7.4,2.94-11.11,4.4"/>
      <path class="cls-1" d="M1854.73,791.84c-3.48,7.33-11.18,9.22-17.33,12.94-15.88,9.61-32.2,18.48-48.05,28.14-25.16,15.33-51.71,26.68-80.94,31.98-14.06,2.55-28.04,2.36-42.12,2.44-2.27.01-4.54-.36-6.81-.55"/>
      <path class="cls-1" d="M1892.29,491.93c-3.3.02-6.6.08-9.9.04-29.63-.32-57.83,5.91-83.99,19.72-9.07,4.79-17.75,10.98-25.21,18-11.83,11.14-16.63,25.42-14.28,41.82.51,3.55.62,7.37-2.98,9.87"/>
      <path class="cls-1" d="M1763.67,649.82c-1.65,0-3.3.02-5.57.03-7.46,7.03-9.28,16.94-11.62,26.58-3.69,15.22-6.15,30.85-11.18,45.6-10.16,29.79-31.07,48.81-61.99,56.55-5.24,1.31-10.31,3.29-15.46,4.96"/>
      <path class="cls-1" d="M1762.08,832.37c-11.75,2.93-23.58,5.57-35.2,8.94-4.98,1.45-9.3,5.56-14.29,6.49-11.83,2.2-23.84,3.84-35.85,4.55-13.37.79-26.82.17-40.22.43-4.17.08-8.32,1.01-12.48,1.55-.22.53-.45,1.06-.67,1.58-1.94-2.19-3.87-4.37-6.22-7.02,8.17-5.11,15.95-4.95,23.66-4.81,13.42.24,26.84,1.13,40.24.87,12.39-.24,24.75-1.65,37.13-2.47,1.01-.07,2.06.37,3.1.57"/>
      <path class="cls-1" d="M1856.29,472.37c-6.6.65-13.19,1.38-19.8,1.93-28.11,2.36-52.95,12.67-73.38,31.96-16.17,15.26-20.06,35.33-18.34,56.68.48,5.97,1.02,11.76-1.86,17.28"/>
      <path class="cls-1" d="M1241.06,871.88c-7.64-.79-15.42-.91-22.89-2.49-17.03-3.61-33.74-8.93-50.89-11.69-19.97-3.21-40.25-4.51-59.99,2.48-10.04,3.56-19.63,7.61-24.77,17.96-.7,1.4-2.78,2.12-4.22,3.15"/>
      <path class="cls-1" d="M1764.52,824.96c-3.47-4.17-8.32-2.73-12.37-2.25-15.67,1.85-31.01-.35-46.47-2.27-11.68-1.45-23.51-1.68-35.28-2.43-12.38-.78-24.78-2.26-37.15-2.06-10.12.16-20.3,1.91-30.26,3.88-3.01.59-5.39,4.29-8.07,6.56"/>
      <path class="cls-1" d="M1941.48,551.52c-16.41-2.94-32.74-3.95-49.56-2.52-27.72,2.36-54.3,8.79-80.34,18.02-5.72,2.03-11.02,5.26-16.74,7.31-5.4,1.93-11.09,3.03-16.66,4.5"/>
      <path class="cls-1" d="M1988.7,589.53c-20.34,7.61-41.46,10.39-63.09,10.2-12.17-.11-24.38-.5-36.51.27-21.74,1.39-43.17,4.81-63.71,12.51"/>
      <path class="cls-1" d="M2011.98,795.4c1.75.97,3.5,1.95,5.25,2.93"/>
      <path class="cls-1" d="M1845.11,463.79c-29.18-10.98-56.77-6.25-81.41,11.22-14.42,10.23-24.58,25.1-30.42,42.34-3.28,9.66-5.94,19.34-6.11,29.65-.06,3.35-1.52,6.68-2.73,11.61,6.16,7.29,13.29,15.66,20.33,24.1,1.42,1.7,2.52,3.67,3.77,5.51"/>
      <path class="cls-1" d="M1573.85,436.73c-4.46-2.81-8.18-2.62-10.43,1.33-4.05,7.08-5.74,14.64-3.09,22.79,7.25,22.32,22.38,36.19,44.77,43.05,13.6,4.17,27.64,5.07,41.54,7.08,8.66,1.25,17.35,2.32,26,3.67,1.14.18,2.09,1.55,3.12,2.36"/>
      <path class="cls-1" d="M1763.73,662.15c-.81,2.47-2.42,4.97-2.32,7.41.84,20.45-2.64,40.09-9.69,59.28-9.86,26.82-28.31,44.68-55.55,53.14-8.37,2.6-17.27,3.51-25.93,5.2"/>
      <path class="cls-1" d="M1514.5,452.43c.66,7.6.06,15.58,2.23,22.73,4.61,15.21,15.55,26,29.06,33.75,18.13,10.39,38,15.48,58.82,17.12,13.02,1.03,26.01,2.3,39.01,3.53.65.06,1.25.77,1.87,1.18"/>
      <path class="cls-1" d="M1749.4,642.48c-.61,2.26-.65,4.92-1.92,6.73-8.79,12.59-12.41,27.2-17.1,41.45-5.31,16.15-10.94,32.19-20.74,46.39-13.2,19.13-29.84,33.48-53.05,39.16-3.01.74-5.78,2.42-8.67,3.67"/>
      <path class="cls-1" d="M1108.92,811.47c.53-7.55,6.48-13.99,14.76-16.78,10.13-3.41,18.98.97,27.85,4.34,9.58,3.64,17.41,10.12,24.93,16.99,3.89,3.55,8.24,6.59,12.38,9.86,3.73,2.93,7.18,5.46,9.85,10.15,3.23,5.71,9.94,9.75,15.72,13.67,9.03,6.12,18.1,12.53,27.98,17,13.18,5.96,27.64,6.69,42,5.55,23.38-1.87,44.11-10.73,63.1-24.21,2.87-2.04,6.23-4.72,10.44-2.62"/>
      <path class="cls-1" d="M1530.57,446.19c-8.61,21.62,1.72,37.94,18.26,51.64,15.51,12.84,33.93,18.58,53.89,19.51,12.37.58,24.77.61,37.14,1.16,5,.23,9.96,1.21,14.25,1.76,2.8-.73,5.08-1.72,7.42-1.86,10.51-.62,21.04-.95,31.56-1.5,1.67-.09,3.3-.79,4.95-1.21"/>
      <path class="cls-1" d="M1916.48,502.92c-3.73-2.65-7.18-6.95-11.24-7.63-9.32-1.57-16.64-6.55-24.08-11.41-7.22-4.72-14.34-9.32-23-10.98-1.15-.22-2.08-1.56-3.12-2.37-2.58-1.98-5.17-3.94-6.53-4.98-5.22.56-8.95,1.33-12.68,1.31-25.98-.1-49.71,7.1-70.37,22.71-18.89,14.27-28.63,33.96-30.69,57.4-.27,3.04.55,6.16.55,9.24,0,3.7-.33,7.4-.52,11.1"/>
      <path class="cls-1" d="M2017.29,768.03c-25.34-2.04-52.39-6.67-76.62,3.66"/>
      <path class="cls-1" d="M998.87,453.68c4.63,7.12,5.55,15.43,7.54,23.4,2.18,8.73,3.91,17.55,11.12,24.15,1.79,1.64,2.37,5.14,2.57,7.86,1.09,14.99,2.4,29.99,2.66,45,.38,22.05,4.58,43.42,9.7,64.71,2.08,8.67,5.28,16.79,10.64,24.01,3.36,4.52,6.35,8.64,13,9.59,3.45.49,5.97,5.78,9.45,8.08,7.87,5.2,16.08,9.88,24.15,14.78"/>
      <path class="cls-1" d="M1247.37,124.39c2.47-.42,5.18-1.71,7.38-1.12,9.19,2.48,18.31,5.27,27.3,8.41,13.12,4.58,24.05,12.91,34.76,21.4,25.02,19.84,42.28,45.84,57.94,73.08,5.93,10.31,11.8,20.65,18.11,31.71,0-.55.16.12-.02.23-9.72,5.89-18.91,13.4-31.48,11.23-2.34-.4-4.74-1.24-6.8-2.43-18.44-10.58-31.43-26.11-41.14-44.75-12.3-23.6-24.95-47.01-41.19-68.24-3.61-4.72-7.87-8.96-12.4-14.06,0-.93-.01-2.98-.02-5.04"/>
      <path class="cls-1" d="M1833.77,807.97c-.82,2.06-1.04,4.85-2.54,6.07-17.74,14.44-34.94,29.71-53.74,42.66-23.91,16.46-51.32,21.46-80.2,18.59-5.74-.57-11.55-.53-17.33-.56-7.72-.05-14.64-1.87-20.56-7.23-1.65-1.49-4.4-1.97-6.74-2.5-9.05-2.03-18.03-4.21-26.03-9.17"/>
      <path class="cls-1" d="M1318.05,919.62c-4.86-.56-8.36,2.21-11.72,5.01-12.58,10.49-24.82,21.41-37.7,31.51-12.65,9.91-27.21,16.66-41.87,23.19-16.22,7.23-33.01,12.64-50.01,17.69-5.43,1.61-11.17,4.71-13.64,10.92"/>
      <path class="cls-1" d="M1000.89,614.02c2.1,6.77,3.73,13.73,6.38,20.29,7.27,17.97,18.89,33.03,33.65,45.4,14.51,12.16,30.6,21.84,48.9,27.76,10.19,3.3,20.39,4.84,31.02,4.75,3.3-.03,6.61,1.1,9.91,1.7"/>
      <path class="cls-1" d="M841.53,301.5c2.27.4,4.54,1.12,6.82,1.15,12.02.17,23.94-.77,35.97,2.13,14.76,3.56,27.64,10.43,38.92,19.9,19.22,16.14,33.95,36.05,45.6,58.22,2.61,4.97,5.4,9.85,8.1,14.77"/>
      <path class="cls-1" d="M1425.53,872.23c12.66,21.98,18.54,46.11,22.63,70.81,4,24.15,1.33,47.72-5.84,70.96-4.3,13.95-13.99,22.91-26.44,29.81-11.83,6.56-24.19,10.32-37.76,9.96"/>
      <path class="cls-1" d="M1836.57,748.14c-.79,6.99-.62,14.27-2.59,20.92-3.46,11.68-10.03,21.61-20.01,29.23-7.31,5.58-13.91,12.06-21.07,17.85-4.2,3.39-8.9,5.08-14.76,5.48-4.83.33-9.42,4.32-12.94,6.11-9.05,1.48-17.22,2.9-25.41,4.13-10.5,1.58-21.01,4.05-31.55,4.27-21.03.44-42.11,0-63.13-.87-11.6-.48-23.13-2.61-34.69-3.99"/>
      <path class="cls-1" d="M1249.87,129.31c11.71,4.13,22.17,10.41,31.66,18.35,23.85,19.98,38.3,46.49,51.82,73.71,3.8,7.66,8.36,14.99,13.08,22.14,8.02,12.13,19.8,18.36,34.08,20.23"/>
      <path class="cls-1" d="M1441.23,19.85c-.83-1.23-1.44-3.27-2.53-3.56-8.41-2.25-16.83-4.61-25.39-6.07-13.91-2.38-27.94-3.06-42.1-1.92-5.49.44-11.13-1.1-16.71-1.58-13.45-1.17-25.24,4.35-37.08,9.44-25.05,10.76-43.51,29.27-59.15,50.86-13.35,18.43-31.82,27.97-53.77,31.51-2.69.43-5.76-1.45-8.65-2.26"/>
      <path class="cls-1" d="M1324.78,903.55c-3.5,17.79-10.07,34.22-20.09,49.5-16.64,25.38-38.08,45.8-63.71,61.67-7.89,4.88-17.57,6.9-26.42,10.25-1.47.56-2.89,1.24-4.33,1.86"/>
      <path class="cls-1" d="M1357,10.39c-9.68,3.75-19.24,7.84-29.06,11.17-19.93,6.76-34.89,19.6-47.58,35.99-12.47,16.1-25.4,31.96-43.65,42.21-2.57,1.44-5.29,2.63-8.02,3.74-3.98,1.62-6.58,4.2-6.76,8.69"/>
      <path class="cls-1" d="M1535.32,276.57c1.11-4.24,2.22-8.48,3.18-12.16-32.84-35.4-68.03-66.4-107.71-92.13-6.57-4.26-13.43-8.21-20.54-11.48-2.96-1.36-6.93-.57-10.44-.76"/>
      <path class="cls-1" d="M1275.87,131.04c3.11,2.66,5.87,5.95,9.38,7.87,30.53,16.75,49.97,42.77,64.21,73.73,8.75,19.03,19.94,36.58,39.07,47.37"/>
      <path class="cls-1" d="M1315.59,923.33c-10.47,11.97-21.16,23.76-31.33,35.98-9.66,11.61-21.11,21.05-33.34,29.72-16.58,11.75-34.94,19.04-54.97,22.58-6.12,1.08-11.97,3.63-17.95,5.51"/>
      <path class="cls-1" d="M1219.37,608.03c-.86-8.23,6.37-16.73,14.77-17.33,1.44-.1,2.89-.03,4.33-.03,8.48,7.36,8.78,9,3.18,17.87-9.2,14.58-18.73,28.77-31.23,41-13.26,12.96-17.56,29.88-19.3,48.03-2.29,23.83,7.56,41.64,25.3,55.93,11.22,9.04,22.94,17.5,34.77,25.75,13.52,9.44,28.88,15.13,44.64,19.48,13.49,3.72,27.1,7.6,40.91,9.47,13.01,1.76,26.38.89,39.58,1.42,3.73.15,7.44,1.13,11.15,1.73"/>
      <path class="cls-1" d="M1758.9,814.5c5.81,3.1,10.46,1.84,15.6-2.38,7.08-5.81,15.07-10.54,22.7-15.68,7.83-5.27,15.35-10.72,21.06-18.53,5.38-7.35,6.87-15.5,7.19-24.16.07-1.85-.07-3.7,0-5.55.29-8.87.02-9.24-9.49-11.89-.35,5.1-.77,10.06-1.01,15.02-.52,10.68-4.6,19.86-11.65,27.81-11.66,13.14-26.84,21.88-40.73,32.23-7.31,5.45-18.38,5.06-25.27.43-5.86-.32-10.46-.19-14.92-.91-6.18-.99-12-2.68-18.63-2.01-7.07.72-14.41-1.37-21.65-1.99-8.45-.72-16.92-1.56-25.39-1.67-10.52-.14-21.12-.27-31.54.92-6.74.77-13.23,3.86-19.8,6.04-3.8,1.26-5.81,3.8-4.92,8.02"/>
      <path class="cls-1" d="M1834.55,457.06c-7.26-6.95-14.21-14.26-21.87-20.74-5.2-4.39-9.72-9.81-17.22-11.43-3.48-.75-5.94-5.41-9.46-6.9-6.88-2.92-14.03-3.32-21.64-1.46-12.95,3.17-25.82,6.27-37.67,12.66-15.53,8.37-27.67,19.78-32.49,37.22-2.1,7.58-3,15.41-.84,23.46.9,3.36-.57,7.35-.97,11.05"/>
      <path class="cls-1" d="M1928.94,777.3c-8.05,13.11-11.19,27.46-9.58,42.59,1.26,11.9,5.38,23.01,11.77,33.28,9.77,15.7,23.73,26.31,40.43,33.7,4.73,2.09,9.6,3.89,14.21,6.22,1.41.71,2.13,2.76,3.17,4.19"/>
      <path class="cls-1" d="M1433.21,925.23c2.51,6.77,6.22,13.36,7.29,20.35,2.58,16.96,2.26,33.84-3.06,50.6-5,15.75-14.81,27.58-27.27,37.63-4.61,3.71-9.59,7.14-14.83,9.86-4.16,2.16-8.99,3.06-13.52,4.52"/>
      <path class="cls-1" d="M1807.82,433.13c-3.09.63-6.47,2.39-9.22,1.69-10.09-2.57-19.46-.17-28.47,3.52-24.04,9.82-38.74,28.42-48.11,51.93-6.2,15.56-6.71,31.79-6.53,48.15.08,7.16,3.77,12.52,8.75,17.23"/>
      <path class="cls-1" d="M1210.14,878.2c-11.36-1.8-22.66-4.15-34.08-5.25-15.65-1.51-31.31-1.31-47.05.51-14.48,1.67-26.93,6.95-37.58,16.5-3.55,3.19-6.24,7.34-9.3,11.06-1.86,2.26-3.69,4.54-5.54,6.81"/>
      <path class="cls-1" d="M1341.51,6.76c-7.55-8.16-16.65-5.14-24.7-2.16-30.32,11.2-57.32,27.35-78.6,52.47-11.67,13.78-23.68,27.42-39.77,36.92-11.38,6.72-23.2,8.97-35.98,8.64-1.85-.05-4.03-.16-5.51.7-5.79,3.37-12.05,4.6-18.6,4.93"/>
      <path class="cls-1" d="M1708.49,888.13c4.61-3.48,10.04-4.47,15.44-3.68,21.13,3.08,40.38-1.98,57.38-14.13,10.4-7.44,19.63-16.57,29.06-25.28,10.17-9.4,19.96-19.2,29.91-28.83.73.33,1.46.65,2.19.98,0,1.64.73,3.92-.09,4.83-7.99,8.89-8.71,20.92-13.73,31.12-11.89,24.21-30.7,38.68-57.02,43.16-12.09,2.06-24.37.91-36.53-1.36-4.98-.93-10.29-.11-15.45-.08"/>
      <path class="cls-1" d="M1792.92,423.96c-9.49.87-19.14.9-28.43,2.75-32.79,6.53-53.73,27.17-60.9,59.99-1.08,4.95-.32,10.27-.74,15.39-.2,2.5-1.14,4.95-1.75,7.42"/>
      <path class="cls-1" d="M863.62,131.17c-4.11,3.31-9.35,5.88-12.11,10.07-6.47,9.86-3.37,19.81,6.69,26.99,14.9,10.63,32.08,16.68,48.46,24.32,14.49,6.76,28.21,14.62,39.6,25.89,2.97,2.94,7.16,6.11,5.11,11.59"/>
      <path class="cls-1" d="M1934.5,774.8c-1.26,19.41-1.26,39.41,6.74,57.41,13,28.99,36.99,47.99,63.99,64.99,4,2,8,4,11.97,4.17"/>
      <path class="cls-1" d="M1413.45,935.19c-1.21,5.56-3.36,11.09-3.47,16.67-.44,22.8-9.05,42.48-22.19,60.52-10.47,14.38-24.52,24.76-39.41,34.15-3.31,2.09-8.55.08-10.51,4.97"/>
      <path class="cls-1" d="M1822.74,446.01c-4.95.02-9.97.58-14.84-.02-18.87-2.35-35.24,3.76-50.03,14.59-15.78,11.57-26.69,27.01-33.88,45.11-2.09,5.27-.75,11.7-5.49,16.06"/>
      <path class="cls-1" d="M1280.85,7.05c-4.32,2.49-8.49,5.28-12.99,7.41-18.14,8.58-34.05,20.03-46.17,36.09-15.59,20.66-35.02,36.58-57.99,48.38-.99.51-1.66,1.61-2.49,2.44"/>
      <path class="cls-1" d="M1850.03,843.05c-1.22,3.3-3.42,6.57-3.5,9.89-.47,18.41-10.35,31.12-24.79,40.73-16.79,11.16-35.23,16.16-55.61,12.82-3.98-.65-8.23.32-12.36.55"/>
      <path class="cls-1" d="M1274.67,779.83c6.21,5.43,14.07,6.8,21.72,8.49,22.02,4.85,44.34,7.61,66.88,7.59,9.9,0,19.79-1.69,29.71-2.39,2.03-.14,4.13.72,6.19,1.12"/>
      <path class="cls-1" d="M1144.07,11.41c-2.68-.4-5.76-1.85-7.99-1.02-13.83,5.11-28.49,7.88-41.51,15.36-17.13,9.85-30.56,22.81-37.46,41.6-2.83,7.72-3.67,15.8-3.06,24.05.98,13.15,2.46,26.3,2.51,39.46.06,13.57-1.49,27.14-2.02,40.72-.22,5.53.39,11.1.62,16.65"/>
      <path class="cls-1" d="M1846.28,835.67c-1.23,2.27-3.15,4.41-3.58,6.82-5.2,29.47-24.42,46.6-51.9,53.66-11.82,3.04-24.28,3.61-36.43,5.36-1.47.21-2.89.81-4.33,1.23"/>
      <path class="cls-1" d="M1189.24,8.73c-2.67,2.48-4.99,5.55-8.07,7.35-29.21,17.03-44.49,43.93-54.09,74.97-.98,3.16-2.83,6.1-3.53,9.3-.78,3.58-.71,7.35-1.13,12.57,3.55-1.81,5.71-2.9,7.87-4"/>
      <path class="cls-1" d="M1782.46,822.41c.4,6.78-3.57,10.42-9.21,13.02-11.15,5.13-21.99,11.03-33.42,15.4-15.4,5.88-31.67,7.92-48.18,7.81-6.6-.04-13.21.05-19.81.08"/>
      <path class="cls-1" d="M1453.94,601.97c-2.54,6.77-5.62,13.16-3.89,21.05.96,4.39-1.64,9.44-1.36,14.12.67,11.25,1.71,22.34,5.26,33.39,4.4,13.69,12.91,23.54,23.34,32.52,3.19,2.74,5.85,6.09,8.75,9.16"/>
      <path class="cls-1" d="M1136.68,20.08c.39,3.02-1.24,4.57-3.63,6.26-21.62,15.28-32.22,37.12-36.89,62.39-1.79,9.67-3,19.52-5.66,28.95-1.61,5.71-5.52,10.77-8.34,16.15-.73,1.38-1.86,2.92-1.76,4.31.97,13.87-4.96,25.92-9.77,38.31-2.68,6.91-4.81,14.03-7.44,20.96-.77,2.03-2.39,3.74-3.62,5.59"/>
      <path class="cls-1" d="M829.08,157.86c7.13,12.36,17.35,21.26,29.76,28.37,16.07,9.2,32.05,18.45,49.74,24.24,6.32,2.07,12.91,3.38,19.16,5.61,3.9,1.39,9.15,1.84,9.36,7.86"/>
      <path class="cls-1" d="M1723.66,825.16c-14.89,4.28-30.08,2.88-45.17,1.99-19.82-1.17-39.68-3.4-59.39,0-6.05,1.05-11.56,5.16-17.82,8.1-4.69-6.73-11.57-11.74-12.83-21.14-1.49-11.11,2.82-19.97,13.75-21.46,10.8-1.47,21.84-1.09,32.77-1.65,2.7-.14,5.36-.81,8.04-1.23"/>
      <path class="cls-1" d="M1246.8,7.22c-14.52-3.88-28.88,1.18-43.32.76-6.2-.18-12.38-1.23-18.58-1.63-2.45-.16-5.01.1-7.41.64-8.69,1.97-17.33,4.14-24.01,5.76-3.53,4.96-5.46,9.43-8.83,12.1-17.25,13.66-26.63,32.19-30.8,52.79-3.04,15.05-6.62,29.66-12.44,43.82-.76,1.86.3,4.47.52,6.73"/>
      <path class="cls-1" d="M1077.59,346c.83,1.85,2.51,3.76,2.37,5.53-1.61,20.94-5.26,41.46-19.59,57.91-5.4,6.19-12.74,10.83-19.61,15.58-6.06,4.19-12.46,8.08-19.17,11.07-3.35,1.49-7.74.67-11.66.89"/>
      <path class="cls-1" d="M1191.25,553.9c-11.27,4.9-21.48,11.03-28.43,21.68-4.85,7.43-6.97,15.76-8.34,24.16-2.64,16.22-6.7,31.82-14.63,46.38-1.61,2.95-1.35,6.92-1.95,10.41"/>
      <path class="cls-1" d="M1562.71,436.78c-12.89-1.67-18.57,2.11-19.63,14.29-1.06,12.22,2.4,23.56,10.02,33.19,14.18,17.92,33.54,26.46,55.79,29.41,3.33.44,6.61,1.18,9.92,1.78"/>
      <path class="cls-1" d="M1880.11,919.38c.52,8.89-2.82,16.59-8,23.43-7.46,9.84-15.58,18.77-28.25,22.57-7.04,2.11-14.03,2.86-21.08,2.25-9.28-.8-18.65-1.14-27.37-5.72-5.23-2.75-9.15-6.09-11.72-11.23"/>
      <path class="cls-1" d="M1799.31,723.65c-4.94,4.79-3.69,11.56-5.32,17.34-6.17,21.95-20.13,37.27-39.57,48.23-11.61,6.55-24.06,10.91-37.06,13.76"/>
      <path class="cls-1" d="M1834.51,834.49c-3.92-.14-5,2.88-6.87,5.52-10.48,14.8-21.99,28.57-38.06,37.95-9.85,5.75-20.29,9.1-31.57,9.9-8.86.63-17.74.94-26.61,1.4"/>
      <path class="cls-1" d="M1757.26,604.21c-3.3,1.25-6.6,3.61-9.88,3.57-24.13-.26-46.62,6.39-68.64,15.3-8.84,3.58-17.71,7.08-26.56,10.62"/>
      <path class="cls-1" d="M2016.49,734.18c-10.26,9.04-20.26,16.04-32.26,24.04-2,2-3,4-3.36,5.87"/>
      <path class="cls-1" d="M1280.38,167.4c.22,3.7-.63,7.92.87,11,4.53,9.26,5.71,19.25,7.19,29.07,2.26,14.9,8.58,27.85,17.82,39.26,10.21,12.6,23.35,21.2,39.59,24.66,3.99.85,7.41.73,10.53-1.98"/>
      <path class="cls-1" d="M1876.39,919.39c-3.12,8.99-7.05,17.56-13.51,24.73-11.05,12.26-24.96,18.01-41.37,16.73-8.32-.65-16.52-2.74-24.8-4.03-2.85-.44-5.77-.42-8.66-.61"/>
      <path class="cls-1" d="M1589.31,433.57c-3.09.43-6.31.45-9.26,1.35-8.19,2.51-10.99,7.02-9.19,14.76,1.95,8.39,5.86,15.73,11.77,22.21,15.22,16.67,35.16,24.95,55.97,31.59,3.36,1.07,7.41.41,11.09.04,11.29-1.12,21.2,2.35,30.38,8.54"/>
      <path class="cls-1" d="M1197.56,835.09c-3.51.02-7.7,1.29-10.4-.17-11.01-5.93-22.74-10.06-34.88-11.62-10.32-1.33-21.02-.11-31.52.57-5.2.33-10.56,1.34-15.42,3.17-10.36,3.9-17.8,10.94-20.37,22.17"/>
      <path class="cls-1" d="M1885.52,501.22c-10.72,1.29-21.52,2.15-32.16,3.94-22.97,3.88-45.05,10.16-63.03,26.12"/>
      <path class="cls-1" d="M1867.57,887.37c.01,2.88-.29,5.8.09,8.63,2.38,17.54-4.93,30.69-17.67,42.17-8.36,7.54-17.74,12.18-28.55,14.07-5.04.88-10.29.57-15.45.8"/>
      <path class="cls-1" d="M1602.32,435.36c-2.67-.28-5.35-.57-7.67-.81-9.72,5.88-9.64,14.73-4.03,24.33,11.4,19.48,29.59,29.91,49.7,38.09,2.85,1.16,5.02,3.97,7.51,6.01"/>
      <path class="cls-1" d="M1806.78,731.01c-2.43,9.06-4.03,18.44-7.48,27.1-6.2,15.59-18.47,26.22-32.52,34.67-9.15,5.5-18.88,10.06-28.34,15.04"/>
      <path class="cls-1" d="M1767.49,412.98c-18.68-3.05-36.85-.83-54.41,5.91-6.61,2.54-12.74,6.27-19.21,9.19-2.71,1.22-5.86,1.46-8.59,2.65-2.43,1.06-5.45,2.29-6.68,4.35-7.81,13.05-13.8,26.66-12.39,42.53,1.24,13.93,6.3,25.1,20.06,30.66,2.27.92,4.93.87,7.4,1.27"/>
      <path class="cls-1" d="M1240.52,115.79c-4.34-.6-8.78-.78-12.98-1.88-8.03-2.1-16.01-1.72-24.18-1.16-11.11.77-22.3.24-33.41,1.02-10.97.77-22.01,1.79-32.74,4.01-6.04,1.25-11.01.57-16.16-2.04"/>
      <path class="cls-1" d="M1469.18,938.62c-.8,4.53-2.33,9.06-2.28,13.58.19,15.95-.99,31.7-6.19,46.87-1.63,4.74-4.27,9.17-6.69,13.61-2.07,3.81-4.47,7.44-6.72,11.15"/>
      <path class="cls-1" d="M1818.16,909.19c-2.48.01-5.05-.4-7.41.11-11.45,2.48-22.97,3.52-34.67,2.59-4.53-.36-9.14.01-13.6-.71-3.42-.55-7.05-1.71-9.86-3.64-6.18-4.27-12.62-5.86-19.91-4.1"/>
      <path class="cls-1" d="M1679.34,875.94c3.31,1.63,6.46,3.84,9.96,4.78,11.39,3.05,21.18,8.86,30.43,15.93,3.18,2.43,6.98,4.04,10.8,5.5,7.66,11.56,19.68,16,32.59,19.05,16.21,3.83,31.55,1.15,46.43-5.73,1.02-.47,2.45-.07,3.69-.08"/>
      <path class="cls-1" d="M1849.61,884.99c6.91,14.03,1.11,34.51-9.05,46.31-9.14,10.62-20.88,16.18-34.59,18.04"/>
      <path class="cls-1" d="M1069.6,358.37c3.23,2.92,2.33,6.47,1.25,9.85-7.68,24.2-21.43,43.85-43.69,56.88-3.64,2.13-7.82,3.81-12.32,1.99"/>
      <path class="cls-1" d="M1687.72,431.86c-.82,2.06-1.23,4.42-2.51,6.13-11.89,15.9-14.12,32.96-6.47,51.25.81,1.94,1.8,3.91,3.13,5.52,8.87,10.72,17.86,21.36,26.98,32.22-5.31,2.31-35.1-1.53-51.66-6.16"/>
      <path class="cls-1" d="M1089.18,53.61c4.24,2.34,1.41,6.29.43,7.87-8.25,13.23-8.46,28.09-9.34,42.75-.47,7.77.3,15.62.68,23.42.05,1.05,1.17,2.05,1.79,3.08"/>
      <path class="cls-1" d="M1168.34,809.95c-5.64,2.26-10.35-1.53-15.47-2.49-15.36-2.87-30.11-2.14-43.94,5.87-6.17,3.57-10.65,8.15-9.21,16.07"/>
      <path class="cls-1" d="M1301.62,592.84c.45,14.64-5.73,26.85-14.04,38.31-9.26,12.77-18.45,25.57-27.68,38.36"/>
      <path class="cls-1" d="M1856.33,866.45c-.41,1.03-.99,2.03-1.2,3.09-2.48,12.6-10.32,21.64-19.67,29.72-.98.85-2.43,2.09-2.37,3.06.84,11.88-7.22,18.57-14.9,25.31-7.41,6.5-15.81,11.54-25.9,12.39-4.07.34-8.24-.8-12.38-1.01-3.5-.18-7.01,0-10.52,0"/>
      <path class="cls-1" d="M1604.19,438.43c-7.32,7.76-5.79,15-.61,22.27,11.1,15.58,25.09,26.44,44.15,30.75,5.1,1.15,10.65,3.43,12.47,9.61"/>
      <path class="cls-1" d="M1692.05,429.99c.41,5.15-.8,9.67-3.53,14.27-8.99,15.16-7.81,31.01-1.61,46.75.88,2.23,3.6,3.74,5.46,5.58"/>
      <path class="cls-1" d="M1638.85,437.03c-7.22-.17-14.46-.68-21.66-.39-4.71.19-9,2.58-10.36,7.37-1.28,4.5.5,8.98,3.71,12.2,5.75,5.78,12.05,11.01,17.92,16.67,4.93,4.75,9.57,9.79,14.34,14.7"/>
      <path class="cls-1" d="M1656.7,802.04c-6.07-4.12-13.22-2.72-19.85-3.4-7.96-.82-16.08.09-24.12-.14-8.61-.25-15.3,3.72-21.62,8.8"/>
      <path class="cls-1" d="M1824.17,614.99c-11.41,2.31-20.89,8.55-30.24,14.97-10.45,7.18-17.43,17.19-22.78,28.45"/>
      <path class="cls-1" d="M1690.78,423.21c-4.6-2.62-6.46-2.01-12.28,2.04-14.09,9.79-22.58,23.12-23.44,40.69-.44,9.05-1.13,18.1-1.7,27.15"/>
      <path class="cls-1" d="M1849.99,834.41c2.51,7.59,6.03,15.02,7.34,22.82,3.13,18.75,15.13,30.31,30.1,39.92,13.23,8.49,27.95,11.32,43.39,11.5"/>
      <path class="cls-1" d="M1008.98,495.57c-.81,3.09-2,6.13-2.37,9.27-1.73,14.59-3.22,29.2-4.81,43.8"/>
      <path class="cls-1" d="M1887.42,765.78c-2.27-1.02-4.48-2.24-6.84-3.01-8.23-2.73-16.51-5.34-24.79-7.91-1.98-.62-4.07-.91-6.63-1.46,1.96,13.86-2.86,25.76-6.28,37.86-1.3,4.61-7.24,6.73-13.6,5.62,6.29-9.94,10.6-20.68,12.83-32.14.89-4.59.48-9.44.67-14.16"/>
      <path class="cls-1" d="M1832.36,902.34c-9.35,2.83-15.17,10.21-21.56,16.78-5.9,6.07-12.58,10.81-21.03,12.32-4.04.72-8.24.44-12.36.79-3.31.28-6.6.82-9.9,1.25"/>
      <path class="cls-1" d="M1089.74,683.28c8.07,4.69,15.65,10.96,24.34,13.65,9.75,3.01,20.52,2.74,30.83,4,3.33.41,6.61,1.17,9.92,1.77"/>
      <path class="cls-1" d="M1667.3,433.19c-6.4-1.68-11.22.09-14.23,6.23-2.55,5.2-6.09,10.07-7.77,15.52-2.57,8.35-.69,16.37,4.85,23.38.66.84.87,2.03,1.29,3.05"/>
      <path class="cls-1" d="M1197.36,665.49c-3.5,2.48-7.32,4.62-10.43,7.52-10.02,9.33-20.25,18.52-29.46,28.6-5.82,6.37-10.56,13.68-18.03,18.43"/>
      <path class="cls-1" d="M1238.55,606.71c-3.6-3.56-7.66-2.86-11.76-1.16-2.9,1.2-5.74,2.53-8.77,3.88-3.18,9.3-6.7,18.7-9.51,28.3-1.2,4.08-.92,8.6-1.31,12.92"/>
      <path class="cls-1" d="M1717.38,548.28c-11.57-3.23-23.14-6.48-34.72-9.68-1.2-.33-2.47-.42-3.71-.62"/>
      <path class="cls-1" d="M2014.7,846.57c-9.42-13.08-19.84-24.92-34.02-33.44-5.07-3.05-7.67-9.93-12.11-14.35-7.12-7.09-14.76-13.67-22.33-20.29-2.54-2.22-5.57-3.9-8.37-5.83.44-.75.88-1.49,1.32-2.23-11.41,4.15-22.81,8.3-32.8,11.93-1.91,6.42-3.25,10.92-4.58,15.41"/>
      <path class="cls-1" d="M1654.93,435.1c-4.25-2.31-12.04-.56-15.49,3.13-7.35,7.87-10.93,16.42-6.8,27.25,1.03,2.7.18,6.11.2,9.19"/>
      <path class="cls-1" d="M1126.77,788.56c4.74-1.67,9.46-3.38,14.22-4.99,9.92-3.36,19.03-1.9,26.59,5.47,7.3,7.12,14.76,14.21,20.99,22.22,3.95,5.07,8.27,10.86,7.12,18.3"/>
      <path class="cls-1" d="M1644.22,781.13c-1.85.83-3.77,2.48-5.55,2.36-9.72-.69-19.41-1.83-29.12-2.81"/>
      <path class="cls-1" d="M1868.82,760.32c-.59,5.55-1.02,11.13-1.84,16.65-.46,3.14-1.47,6.21-2.39,9.27-1.25,4.13-4.68,3.6-8,3.83-4.35.3-8.67,1.19-13,1.83"/>
      <path class="cls-1" d="M1042.75,438.67c3.31,2.66,1.9,5.23.07,8.04-6.17,9.41-13.84,17.38-22.82,24.14"/>
      <path class="cls-1" d="M1333.92,872.67c-5.36.23-10.73.55-16.09.67-5.98.13-11.97.08-17.95.11"/>
      <path class="cls-1" d="M1936.96,771.09c-4.75-1.21-9.46-3.13-14.27-3.45-5.52-.36-11.13,1.06-16.69.99-3.32-.04-6.67-1.3-9.91-2.32-6.95-2.18-10.2.35-9.25,7.48.36,2.68.84,5.34,1.27,8.01"/>
      <path class="cls-1" d="M1876.26,762.75c4.11,7.39-2,15.38.7,23.41,4.27-1.22,7.78-2.23,11.69-3.35,1.69.55,3.99,1.29,6.7,2.18,1.76-1.18,3.75-2.52,5.75-3.86"/>
      <path class="cls-1" d="M1889.25,503.66c10.52-.05,21.09-.68,31.54.16,3.68.29,8,3.45,10.41,6.55,7.99,10.28,19.02,16.87,28.78,24.99,5.63,4.69,11.33,9.3,13.61,16.63.33,1.07-.33,2.45-.53,3.68"/>
      <path class="cls-1" d="M1581.14,792.54c5.87-7.29,14.74-7.79,22.85-9.99.88-.24,1.73-.6,2.83-.98-7.44-5.23-25.27-4.17-31.27,9.15"/>
      <path class="cls-1" d="M1859.52,757.28c.66,11.1-.99,21.95-3.56,32.7"/>
      <path class="cls-1" d="M1141.6,784.17c1.03.61,2.01,1.35,3.11,1.81,6.39,2.68,12.73,5.52,19.26,7.84,2.44.87,5.33.49,8.01.69"/>
      <path class="cls-1" d="M1806.32,635.43c.83,0,1.65,0,2.48-.01-.28-.58-.57-1.16-.85-1.74-11.93,4.24-17.88,16.4-28.29,22.55.77,1.52,1.4,2.75,2.02,3.98"/>
      <path class="cls-1" d="M1297.57,779.1c-2.26,1.67-4.36,2.05-7.46,1.47-9.19-1.74-18.58-2.37-27.82-3.87-3.21-.52-6.28-2.19-9.3-3.58-2.71-1.25-5.21-2.3-7.44.69"/>
      <path class="cls-1" d="M1056.26,415.79c2.48,5.46-1.74,8.91-4.39,12.26-9.13,11.49-21.71,18.9-33.85,26.69-5.75,3.69-11.27.75-13.02-6.01-.57-2.2-1.67-4.26-2.55-6.45-2.79-.11-5.06-.21-7.34-.3"/>
      <path class="cls-1" d="M1874.39,888.57c0,1.64-.53,3.55.12,4.89,3.43,7.06,4.78,14.45,4.35,22.22"/>
      <path class="cls-1" d="M1875.14,786.81c-7.39,7.23-14.68,14.57-22.23,21.64-3.42,3.2-7.35,5.84-11.05,8.74"/>
      <path class="cls-1" d="M1122.89,112.66c-3.63,6.11-9.19,9.83-15.37,13.11-7.11,3.77-13.49,8.39-17.47,15.94-1.72,3.27-3.9,7.46-9.08,6.92"/>
      <path class="cls-1" d="M1628.95,438.31c-9.88,5.28-9.63,14.23-8.55,23.48"/>
      <path class="cls-1" d="M1828.15,798.13c-4.94,2.7-9.76,5.65-14.87,7.96-2.13.97-4.89.56-7.37.78"/>
      <path class="cls-1" d="M1852.35,810.97c2.22,8.24-.36,15.44-4.84,22.23"/>
      <path class="cls-1" d="M1750.74,920.62c1.45,1.64,2.87,3.31,4.36,4.91,5.17,5.54,10.52,10.92,15.5,16.62,4.52,5.18,9.64,7.94,16.81,7.42,4.9-.35,9.9.63,14.85,1.02"/>
      <path class="cls-1" d="M1784.99,705.83c4.15,4.71,8.41,9.33,12.42,14.15,3.67,4.42,6.28,9.77,12.43,11.75,2.11.68,3.77,2.74,5.63,4.17"/>
      <path class="cls-1" d="M1768.57,638.69c-1.63,4.94-3.66,9.8-4.68,14.87-.4,2.01.98,4.87,2.42,6.64,2.27,2.8,5.28,5,7.97,7.45"/>
      <path class="cls-1" d="M1543.83,243.84c0,6.41-.36,12.75-3.62,18.52"/>
      <path class="cls-1" d="M1455.98,1024.41c-4.12.84-8.22,1.85-12.38,2.45-1.79.26-3.7-.32-5.56-.51"/>
      <path class="cls-1" d="M803.23,317.1c-5.34,4.96-10.68,9.92-16.02,14.88"/>
      <path class="cls-1" d="M1773.08,546.16c-3.28,4.95-6.56,9.9-9.83,14.85"/>
      <path class="cls-1" d="M1013.75,457.31c.61,4.16-1.68,8.9,2.54,12.32"/>
      <path class="cls-1" d="M1901.67,769.41c-2.03,5.23-2.22,10.04,3.16,13.55"/>
      <path class="cls-1" d="M1826.64,743.25c7.44,3.25,14.89,6.51,22.33,9.76"/>
      <path class="cls-1" d="M1536.53,269.78c-2.89-.6-5.78-1.21-8.67-1.81"/>
      <path class="cls-1" d="M1714.2,530.41c-1.86-.61-3.72-1.22-5.58-1.82"/>
      <path class="cls-1" d="M1912.83,772.44c.22,1.85.43,3.7.65,5.55"/>
    </g>
  </g>
</svg>