<?xml version="1.0" encoding="UTF-8"?>
<svg id="Calque_2" data-name="Calque 2" xmlns="http://www.w3.org/2000/svg" viewBox="0 0 1132 1202.79">
  <defs>
    <style>
      .cls-1 {
        fill: none;
        stroke: #e5794a;
        stroke-linecap: round;
        stroke-linejoin: round;
        stroke-width: 2px;
      }
    </style>
  </defs>
  <g id="Gert_Ausloos" data-name="Gert Ausloos">
    <g>
      <path class="cls-1" d="M518.06,412.76c-11.62-4.18-22.86-10.66-35.75-4.47-3.22,1.55-8.03,1.51-11.28,0-12.15-5.65-23.44.44-34.31,3.7-7.1,2.13-13.44,4.24-20.53,2.16-15.43-4.54-31.04-2.2-45.71,2.02-12.32,3.55-24.86,6.49-37.15,10.39-27.39,8.69-51.35-1.51-70.98-22.57-13.03-13.98-24.95-28.39-42.1-36.9-11.31-5.61-14.9-19.56-17.87-32.15-5.3-22.47-18.48-37.04-37.15-44.94-15.68-6.63-24.85-19.01-28.99-35.7-9.45-38.01-34.03-59.74-63.92-76.18-2.55-1.41-5.89-1.07-8.86-1.54"/>
      <path class="cls-1" d="M924.27,664.49c8.86,2.33,15.14-4.34,21.54-8.68,67.52-45.72,122.42-105.79,165.8-179.3,25.87-43.83,25.1-87.62,2.13-131.46-10.61-20.26-30.39-28.54-49.5-33.64-35.58-9.5-71.32-8.92-105.54,8.15-4.63,2.31-10.97,3.32-11.51,11.19"/>
      <path class="cls-1" d="M869.52,692.77c-2.81-13.05,5.12-21.27,11.57-29.59,15.02-19.37,31.78-35.48,53-47.58,24.29-13.86,40.54-38.97,53.9-65.63,14.76-29.45,30.31-58.26,37.15-91.89,6.07-29.83-1.62-53.1-25.75-67.9-28.11-17.25-57.77-28.07-90.33-22.27-5.51.98-8.71-1.4-12.79-3.23"/>
      <path class="cls-1" d="M563.9,414.17c-23.87-4-45.82-15.23-68.83-22.35-19.62-6.07-39.77-6.95-59.81-.37-11.45,3.76-22.9-.38-34.37-1.2-29.08-2.08-54.47-18.24-81.76-25.77-29.46-8.13-50.48-29.04-74.87-45.03-9.68-6.35-16.54-16.22-19.93-27.06-6.01-19.24-15.74-34.05-30.9-45.24-6.87-5.07-13.32-12.46-14.99-21.15-3.36-17.41-13.27-29.49-24.79-39.19-22.84-19.24-29.38-46.25-32.82-75.28-1.67-14.08-2.67-28.27-3.87-42.42-1.4-16.56,3.07-31.85,9.01-46.61,2.77-6.88,5.51-13.54,4.99-21.27"/>
      <path class="cls-1" d="M837.68,726.71c-13.48-1.35-24.04,6.81-34.19,14.45-6.97,5.24-13.15,11.77-20.47,16.82-19.3,13.32-31.28,33.45-39.51,56.43-8.92,24.91-26.01,40.26-47.24,50.74-5.37,2.65-9.83,5.33-12.76,11.41-15.78,32.69-40.43,55.05-70.08,70.46-12.93,6.72-23.62,15.74-32.94,27.21-11.35,13.97-26.04,23.05-39.59,33.78-3.53,2.8-7.72,5.85-12.66,2.95"/>
      <path class="cls-1" d="M754.91,759.24c19.71-13.18,31.78-35.59,49.74-50.8,10.19-8.63,20.73-16.97,31.86-23.96,15.92-10,27.62-24.26,36.7-41.29,6.64-12.46,16.61-21.31,25.78-30.8,15.91-16.46,24.78-36.62,29.01-59.64,3.59-19.52,13.47-37.24,12.89-57.97-.46-16.4-1.37-30.01-13.08-44.81-15.89-20.09-37.73-24.09-55.76-37.21"/>
      <path class="cls-1" d="M1037.61,555.59c16.33-22.92,34.11-44.84,44.46-72.18,9.03-23.86,16.63-48.59,11.38-74.85-7.76-38.83-29.42-63.35-64.76-72.16-24.82-6.19-50.03-4.26-75.13-4.21-16.42.03-31.57,3.85-42.02,19.75"/>
      <path class="cls-1" d="M390.72,1186.33c8.61-12.28,18.38-23.18,30.57-31.1,15.86-10.32,27.9-25.48,40.68-39.67,2.12-2.36,4.87-5.56,4.92-8.42.34-19,13.44-28.59,22.88-41.25,5.78-7.76,14.23-6.96,20.92-12.03,21.98-16.64,42.9-34.98,65.78-50.25,9.79-6.53,19.96-8.71,30.67-11.3,17.67-4.28,30.22-18.05,42.04-32.28,9.88-11.9,21.21-21.21,34.34-28.42,15.13-8.31,18.89-27.17,28.57-40.41,14.5-19.82,26.32-43.11,47.92-55.58"/>
      <path class="cls-1" d="M397.08,407.1c-19.66-13.38-42.02-14.99-63.64-13.61-40.89,2.61-70.64-16.38-94.36-51.36-10.13-14.94-20.13-30.07-32.93-42.6-9.38-9.18-16.83-20.15-23.25-32.27-4.51-8.51-10.52-16.03-17.3-23.12-20.3-21.24-40.26-43.09-58.51-66.47-11.14-14.28-24.41-27.45-28.65-47.67-3.06-14.59-2.21-29.39-4.35-44-.89-6.09-1.36-13.57-3.5-18.01-11.52-23.91-5.02-44.99,5.59-66.06"/>
      <path class="cls-1" d="M663.23,1030.77c21.16-9.69,34.85-27.3,41.87-50.97,5.86-19.72,16.79-35.04,30.85-47.84,3.28-2.99,6.42-5.87,7.38-10.12,4.64-20.71,18.1-31.74,34.52-39.53,17.8-8.44,36.04-16.65,48.17-34.15,12.53-18.07,22.11-38.04,21.93-62.05-.07-8.95.77-17.91,1.19-26.87"/>
      <path class="cls-1" d="M674.69,540.04c6.81,26.89-3.02,58.16-34.39,59.12-38.78,1.18-74.43-12.68-106.75-35.44-18.33-12.9-21.35-38.62-5.26-58.99,8.15-10.32,15.09-22.68,29.25-24.08"/>
      <path class="cls-1" d="M749.82,1043.49c15.9,17.21,16.24,40.7,1.31,58.03-24.45,28.37-55.39,42.23-89.2,49.34-28.56,6.01-57.61,7.71-86.58,8.1-8.6.12-19.27,1.93-26.1-7.99"/>
      <path class="cls-1" d="M882.25,643.27c15.92-19.27,35.31-34.41,51.9-52.67,26.74-29.41,51.63-60.93,58.93-104.3,1.36-8.08,3.39-16.03,5.04-24.05,5.35-26.12-1.75-42.93-22.84-56.69-10.01-6.53-20.2-10.81-31.9-9.76-11.06.99-21.13-2.9-30.49-8.64-8.15-5-16.35-6.44-25.55-5.69-14.46,1.16-29.23-3.17-43.38,4.21-3.81,1.99-7.44,3.62-10.09,7.29"/>
      <path class="cls-1" d="M785.47,688.53c5.28-6.84,9.88-14.08,16.29-20.14,10-9.45,16.23-22.61,20.55-36.46,2.42-7.75,4.64-15.48,10.29-21.16,8.38-8.42,10.32-19.34,10.16-31.14-.2-14.89.48-29.66,5.11-43.83,6.94-21.24,3.16-39.84-8.7-58.17-14.15-21.88-32.12-40.11-46-62.1-6.47-10.26-16.92-9.27-25.62-10.66-9.32-1.49-18.15-3.65-26.65-7.71-18.14-8.67-36.31-3.1-54.81-2.1-18.47.99-37.74,9.09-56-2.09"/>
      <path class="cls-1" d="M426.37,479.23c-1.62,19.81-14.68,30.7-26.72,42.45-14.6,14.25-32.58,17.84-50.92,21.4-21.03,4.08-41.47,1.91-61.08-6.09-28.83-11.75-49.91-33.06-59.89-66.26-.26-.85-.3-2.01,0-2.8,11.67-29.76-12.3-41.62-24.35-59.32-3.02-4.44-7.52-7.64-11.79-11.85-13.33,7.53-24.38-2.85-36.48-6.62-32.75-10.2-63.13-25.01-86.62-53.72-12.53-15.32-19.24-32.84-19.19-53.77.03-13.69-3.12-27.16-2.67-41.02.21-6.43.39-13.22,3.09-18.17,5.42-9.95,7.8-21.14,12.44-31.31"/>
      <path class="cls-1" d="M423.82,436.8c-7.22,1.41-14.41,2.99-21.65,4.21-18.59,3.13-37.96-.9-56.01,7.14-14.8,6.59-30.57,5.47-45.88,6.54-10.35.72-19.8-6.68-26.49-15.28-9.19-11.8-20.37-18.71-33.25-24.07-13.42-5.58-24.98-14.54-32.01-29.4-3.27-6.92-7.55-13.25-11.37-19.85"/>
      <path class="cls-1" d="M836.41,654.59c3.68-17.17,12.09-31.82,21.86-45.06,11.67-15.8,16.88-35.88,29.15-51.04,1.57-1.94,1.44-3.9,1.12-5.71-2.52-14.43-.62-28.46,2.54-42.47.6-2.66,1.15-6.56-.08-8.31-10.03-14.19-14.06-31.91-22.89-46.71-1.56-2.61-4.02-4.66-7.38-6.09-10.66-4.55-20.45-11.07-26.88-22.28-2.34-4.09-6.71-4.84-10.17-7.09"/>
      <path class="cls-1" d="M451.84,1156.63c15.89-9.84,34.25-11.2,50.97-18.28,9.79-4.14,18.79-8.88,26.91-16.81,11.69-11.42,25.3-17.78,41.77-19.26,17.88-1.61,35.53-3.57,53.54-2.45,13.91.86,25.13-6.6,34.46-18.05,5.02-6.16,10.95-11.4,16.47-17.06"/>
      <path class="cls-1" d="M1052.89,487.71c5.99-24.29,8.28-49.08,2.2-73.43-3.88-15.58-9.5-30.51-24.97-38.65-18.83-9.91-38.43-14.41-58.66-18.46-19.16-3.84-38.4.01-57.41-3.6-2.75-.52-6.81.68-8.73,2.79-11.06,12.16-27.65,10.13-39.62,19.63"/>
      <path class="cls-1" d="M552.44,1148.14c11.18-6.43,23.77-7.72,35.71-9.45,35.07-5.1,68.73-15.81,101.73-29,25.64-10.25,39.23-32.75,44.81-61.92,1.33-6.94.71-15.25,7.49-19.83"/>
      <path class="cls-1" d="M404.72,914.8c-15.67-5.47-17.66-22.23-19.71-35.48-3.54-22.9-6.48-46.32,4.07-69.37,9.89-21.61,21.75-40.04,42.43-49.14,16.46-7.24,55.1-4.26,62.34,13.98"/>
      <path class="cls-1" d="M738.36,1018.04c13.25,16.56,10.26,35.28,4.96,53.69-7.21,25.08-24.03,40.08-45.76,47.97-34.04,12.37-69.74,17.26-104.38,27.01-8.88,2.5-17.82,4.74-26.74,7.09"/>
      <path class="cls-1" d="M184.42,392.96c-13.99-14.8-31.99-20.54-49.68-26.82-25.87-9.2-47.95-24.35-59.54-52.52-8.15-19.81-9.94-41.72-12.21-63.43-1.38-13.18,3.21-27.43-4.64-39.66"/>
      <path class="cls-1" d="M558.81,490.54c0-1.41.08-2.83-.01-4.24-.57-8.98,6.51-18.07.55-26.79-7.8-11.41-18.87-18.87-31.16-20.86-15.52-2.51-30.9-7.28-47.09-4.96-12.11,1.73-23.42,4.25-33.1,12.99-4.82,4.35-9.93,6.25-16.58,4.48-10.77-2.88-18.8,5.46-26.56,11.34-45.41,34.42-90.91,25.19-136.24.83-6.28-3.37-13.26-6.92-18.08-13.7-5.19-7.3-12.13-6.14-19-2.92"/>
      <path class="cls-1" d="M449.29,951.57c-8.98-.64-12.99-7.37-16.66-15.5-13.58-30.14-15.16-62.19-12.5-94.8,1.6-19.7,27.04-41.86,48.27-42.3,15.37-.32,30.4,1.69,44.67,9.52,8.64,4.74,19.53,3.88,26.69,12.92,2.67,3.37,5.67,6.3,5.04,11.37"/>
      <path class="cls-1" d="M330.87,298.21c13.25-35.95,5.99-62.54-14.03-90.49-19.2-26.79-45.41-38.03-75.07-36.07-12.96.86-25.46,1.06-38.26-.54-6.35-.8-10.65,6.06-19.29,3.54-19.16-5.59-26.63-22-35.21-37.82-3.57-6.58-5.34-14.78-6.39-22.5-1.28-9.38.4-18.32,8.67-24.05,7.65-5.3,13-12.55,15.4-22.56,2.07-8.6,8.55-13.84,13.92-19.82,11.45-12.73,15.63-27.68,11.45-45.27"/>
      <path class="cls-1" d="M190.79,395.79c1.84-10.84-5.06-15.46-11.34-21.37-16-15.1-35.2-23.61-53.63-33.74-20.56-11.29-35.99-27.73-43.21-52.39-2.93-10.03-3.12-20.61-4.06-31.07-2.07-22.92,2.4-47.83-15.05-66.55-.86-.92-1.09-2.73-1.3-4.18-3.48-24.27-8.45-28.06-30.21-44.46-14.55-10.97-24.41-28.84-28.26-48.9C.59,76.71-1.84,60.31,8.29,44.75c2.45-3.76,4.62-6.31,8.04-8.16"/>
      <path class="cls-1" d="M440.38,453.77c1.84,11.99-6.48,19.33-13.06,23.4-12.05,7.46-21.97,17.1-31.45,27.58-20.29,22.4-44.68,27.62-72.65,27.47-38.9-.21-57.79-30.92-80.03-57.43-1.89-2.25-1.04-7.34-1.47-11.11"/>
      <path class="cls-1" d="M464.57,958.64c-6.85,2.96-11.81.16-13.9-7.11-6.23-21.58-12.67-43.14-17.64-65.1-2.45-10.81-.79-22.64,10.01-27.92,6.53-3.19,6.97-8.04,7.65-14.41,2.14-20.24,11.22-29.77,29.15-27.99,16.49,1.64,32.92,5.17,48.41,12.42"/>
      <path class="cls-1" d="M476.03,1026.52c13.43-13.8,18.88-32.12,15.99-50.8-3.56-22.99,2.99-38.77,14.8-57.49,11.5-18.21,25.25-29.29,41.77-38.83,11.86-6.85,21.34-16.68,28.04-29.65"/>
      <path class="cls-1" d="M307.94,357.61c-.88-13.56-14.69-14.45-19.56-25.2-7.06-15.57-19.05-27.03-33.89-34.28-9.87-4.82-17.27-14.11-21.3-24.15-12.75-31.84-34.84-55.27-55.14-80.42-5.04-6.25-7.02-13.15-3.82-21.22"/>
      <path class="cls-1" d="M339.78,343.46c0-2.83.94-6.25-.14-8.4-12.77-25.2-23.91-51.45-30.06-79.38-9.49-43.1-32.26-68.82-71.66-76.32-.48-.09-.86-.9-1.28-1.37"/>
      <path class="cls-1" d="M432.74,941.67c-20.88-6.21-26.01-25.05-29.25-45.26-1.5-9.38-3.15-18.8-3.76-28.28-2.27-35,9.26-63.19,34.19-84.97,8.88-7.76,19.36-7.98,29.4-9.57,26.22-4.14,54.87,12.46,64.92,36.56"/>
      <path class="cls-1" d="M642.85,1008.14c-11.5,8.94-24,14.75-38.2,15.58-16.18.95-30.37,8.17-43.22,18.47-9.54,7.64-19.25,15.48-30.69,17.97-20.87,4.53-34.62,19.69-48.45,35.53-3.78,4.33-6.43,11.6-13.89,10.02"/>
      <path class="cls-1" d="M665.77,991.17c2.55-1.89,6.12-3.12,7.48-5.76,12.91-25.08,34.19-43.3,45.96-69.22,12.49-27.5,31.42-47.15,57.39-57.83,14.26-5.87,23.98-17.25,33.06-29.83"/>
      <path class="cls-1" d="M748.54,360.43c-8.91,1.41-17.94,2.28-26.71,4.4-8.16,1.98-15.63,1.4-22.96-2.97-11.55-6.88-22.18-3.31-33.16,2.68-25.24,13.77-52.77,15.27-80.17,17.1"/>
      <path class="cls-1" d="M463.3,955.81c-6.99-17.66-15.55-34.66-14.2-55.17.59-9.01,4.03-15.5,10.47-19.6,6.84-4.36,10.62-11.26,12.31-18.66,1.99-8.7,2.1-19.48,9.47-23.43,9.1-4.88,20-6.33,30.3-4.5,6.57,1.17,12.82,1.78,19.12-.34,2.87-.97,1.12-2.75.02-4.17"/>
      <path class="cls-1" d="M660.68,787.52c4.65-10.28,8.49-20.6,9.13-32.51.74-13.66,5.89-25.76,15.06-35.37,7.21-7.55,14.12-15.51,21.72-22.53,10.58-9.77,16.29-22.87,18.66-36.95,2.63-15.61,7.04-29.73,15.5-42.46,1.01-1.53.14-4.6.14-6.96"/>
      <path class="cls-1" d="M449.29,337.81c-12.16,33.61-63.43,50.31-90.56,22.81-8.69-8.81-18.87-13.84-31.4-17.09-12.65-3.28-24.4-15.96-32.02-29.82-9.64-17.54-22.07-32.05-37.1-43.66-15.05-11.63-25.73-27.29-35.62-43.93-3.18-5.35-6.04-11.31-10.3-15.39-9.43-9.04-16.05-19.86-20.23-32.71"/>
      <path class="cls-1" d="M795.66,671.56c-.04-15.6,2.46-30.69,10.28-43.77,20.91-34.95,11.79-69.09-1.37-103.31-14.33-8.84-17.57-27.89-28.41-39.13-16.63-17.26-54.13-26.24-77.34-7.62-2.73,2.19-5.61,3.89-7.63,7.12-5.76,9.21-11.36,17.56-21.25,23.4-9.66,5.71-13.37,19.81-19.38,30.43-8.17,14.43-19.34,19.93-34.48,17.04-8.8-1.68-17.89,1.62-26.78-2.8-17.64-8.77-27.02-23.04-24.96-43.94.68-6.96-1.29-10.94-4.26-15.61"/>
      <path class="cls-1" d="M500.23,1101.48c26-7.53,50.07-20.8,75.05-31.35,4.79-2.02,9.47-3.45,14.06-2.43,27.64,6.16,48.51-6.5,66.25-28.45"/>
      <path class="cls-1" d="M816.03,682.87c7.68-10.47,12.81-23.92,26.71-27.06,2.37-.54,5.01-3.11,6.29-5.54,12.67-24.03,32.01-41.9,47.3-63.5,10.4-14.69,15.52-30.85,13.97-49.56-.81-9.75,3.52-18.1,6.3-26.88,3.59-11.35,1.94-22.35-5.24-30.91-7.24-8.62-13.78-17.74-20.24-27.02-4.76-6.83-14.64-6.99-18.5-11.89-14.4-18.3-33.05-26.39-52.69-33.67-2.53-.94-6.1-4.07-5.17-8.92"/>
      <path class="cls-1" d="M305.4,302.45c-13.37-41.17-23.66-84.48-63.62-106.18-14.21-7.72-29.24-9.97-44.62-11.2"/>
      <path class="cls-1" d="M402.18,1126.93c2.09-1.42,1.32-3.74,1.23-5.65-1.44-31.8,18.64-40.74,40.72-48.36,5.56-1.92,10.17-5.92,14.53-12.07,21.25-29.95,18.42-61.02,10.59-95.38-4.69-20.59-7.74-44.95,9.36-63.37,8.32-8.96,15.72-18.62,19-31.17,4.07-15.58,16.05-14.78,26.81-16.99,11.82-2.43,24.31.45,35.66-5.61"/>
      <path class="cls-1" d="M767.65,402.86c-10.07-24.55-26.52-32.76-48.38-24.02-10.94,4.37-21.75,4.19-33.15,1.61-20.01-4.54-38.95-.63-55.99,12.51"/>
      <path class="cls-1" d="M706.52,469.33c-11.21-11.39-23.67-4.01-35.65-2.76-11.1,1.16-21.73,5.1-31.76,10.04-18.21,8.99-33.24.31-48.46-8.72-7.99-4.74-15.18-12.75-25.48-7.05"/>
      <path class="cls-1" d="M96.56,159.62c2.45-3.85,3.19-8.3,2.48-12.71-3.3-20.4.14-40.65,1.73-60.79.92-11.68,1.39-23.32-2-33.84-5.63-17.47-3.38-34.08.34-51.05"/>
      <path class="cls-1" d="M865.7,773.38c20.08,10.8,27.51,30.81,19.04,52.29-4.09,10.37-8.87,20.32-16.45,28.36-17.02,18.05-35.12,34.37-55.97,46.82-4.07,2.43-6.89,3.63-10.28-.2"/>
      <path class="cls-1" d="M609.74,858.23c-18.65,14.79-40.22,24-58.88,39.14-13.05,10.59-18,24.79-22.53,40.09-2.53,8.55-5.21,16.52-9.89,24.3-6.36,10.56-11.64,22.22-14.54,35.02-3.85,17.03-11.29,31.36-27.87,36.81"/>
      <path class="cls-1" d="M689.97,482.06c-10.79-2.74-17.12.35-23.58,12.29-8.21,15.18-18.52,29.86-31.25,41.35-14.36,12.95-43.08.81-50.82-21.13-2.79-7.91-5.42-15.92-7.6-24.05-2.05-7.66-6.06-12.88-12.82-15.53"/>
      <path class="cls-1" d="M777.83,668.73c10-8.87,7.87-22.59,9.65-34.04,1.95-12.63,5.7-23.5,11.95-33.87,6.32-10.48,9.75-20.45,4.37-34.15-5.8-14.75-7.62-31.41-8.14-47.84"/>
      <path class="cls-1" d="M677.23,506.1c1.59,29.65-9.1,53.55-28.05,73.5-4.19,4.41-9.36,6.95-15.24,5.64-21.81-4.86-44.56-4.92-65.07-16.66-4.77-2.73-9.28-5.79-13.89-8.74"/>
      <path class="cls-1" d="M790.57,452.36c-9.39-2.64-15.75-10.99-24.13-15.69-32.33-18.13-65.23-15.6-99.52-7.62-17.97,4.18-36.71,11.52-55.98,3.75-6.3-2.54-13.62-3.5-20.27-.18-13.7,6.84-27.23,3.99-39.35-3.19-18.67-11.06-39.33-7.58-58.66-12.69-11.73-3.1-22.05,3.36-33.17,3.1"/>
      <path class="cls-1" d="M158.96,334.98c-33.29-14.53-53.62-40.43-58.74-80.58-2.16-16.94-8.64-31.83-22.76-41.04"/>
      <path class="cls-1" d="M777.83,467.91c-20.83-20.54-46.81-21.66-72.57-24.18-15.92-1.55-31.82-6.23-47.13,2.96-16.55-9.36-33.11,7.87-49.66,0-8.67-4.12-19.34-1.55-26.74-9.9"/>
      <path class="cls-1" d="M362.7,510.34c-28.34,7.49-54.25-.75-78.88-15.7-7.41-4.5-14.93-9.15-20.5-16.78-8.02-10.99-20.73-14.46-30.51-22.68"/>
      <path class="cls-1" d="M498.96,1156.63c29.34-17.39,57.68-38.05,91.72-42.06,14.65-1.72,29.68.58,44.53,1.05"/>
      <path class="cls-1" d="M907.72,665.9c-1.02-6.46,2.78-10.13,6.33-14.19,10.22-11.71,22.42-20.52,34.4-29.69,25.25-19.33,48.2-41.41,66.24-69.26"/>
      <path class="cls-1" d="M436.56,367.51c5.09,6.19,11.23,1.07,15.11-.52,20.48-8.42,37.52-3.59,53.78,11.68,14.62,13.74,59.3,19.75,74.5,5.15,12.17-11.69,23.58-26.4,36.76-34.99,18.67-12.17,36.88-33.71,60.33-28.29,16.95,3.92,36.87-1.63,51.14,14.45,3.29,3.7,7.48,2.72,11.46,2.82"/>
      <path class="cls-1" d="M332.14,342.05c-9.55-14.25-22.75-26.25-30.83-40.31-16.65-28.97-44.7-45.34-60.23-75.24-7.83-15.06-21.92-26.37-35.01-37.18"/>
      <path class="cls-1" d="M929.37,590.95c-3.17-5.24.89-8.57,2.46-12.77,9.1-24.43,18.01-48.94,26.72-73.54,1.21-3.43,1-7.49,1.37-11.27.9-8.95-2-17.65-.43-26.96,1.06-6.31-1.08-14.25-7.25-18.2-6.44-4.12-11.35-9.99-16.5-15.66-3.55-3.91-8.12-6.53-12.75-6.83-8.85-.56-15.85-5.27-22.89-10.18-8.64-6.03-17.16-10.63-28.1-7.28-7.52,2.3-15.03-2.46-21.42-5.81-15.64-8.2-31.11-8.84-47.29-3.84"/>
      <path class="cls-1" d="M716.71,1050.56c8.02-10.49,11.44-23.9,18.08-35.17,2.33-3.96-.15-6.3-.57-8.6-4.48-24.88.75-47.38,13.2-67.84,6.77-11.12,17.7-18.32,28.07-23.67,26.18-13.51,46.31-34.78,66.01-57.06"/>
      <path class="cls-1" d="M487.5,1042.08c4.24-5.19,8.26-10.63,12.78-15.51,14.25-15.37,24.86-32.4,28.57-55.08,1.46-8.91,6.04-19.07,13.46-25.5,8.4-7.29,15.01-17.41,18.39-27.22,7.53-21.87,25.88-23.14,40.34-27.08,28.17-7.69,53.58-17.43,69.87-46.15,8.98-15.82,17.21-32.2,27.97-46.7"/>
      <path class="cls-1" d="M386.9,1165.11c5.59-8.02,7.61-17.93,11.37-26.92,2.21-5.26-8.67-27.91-13.75-34.07-12.41-15.03-24.33-30.61-35.52-46.76-2.39-3.45-3.05-9.71.65-15.54,3.64-5.72,7.96-4.49,11.74-3.75,10.03,1.95,19.29,6.35,28.19,12.23,5.92,3.91,11.94,10.72,20.24,5.91"/>
      <path class="cls-1" d="M335.96,1078.85c-1.7.47-3.87,1.94-5.02,1.26-18.48-10.91-32.29-27.23-37.95-49.45-6.61-25.99,11.02-48.27,35.33-48.1,19.62.14,34.46,9.9,47.26,25.43,2.79,3.38,2.13,6.56,2.4,10.05"/>
      <path class="cls-1" d="M726.9,711.16c7.19-22.08,25.38-38.84,24.62-65.07-.18-6.05,7.09-11.26,9.36-17.15,4.57-11.85,8.41-24.59,4.22-37.99"/>
      <path class="cls-1" d="M826.22,491.95c-11.37-7.85-20.18-19.12-30.59-28.24-2.59-2.27-3.35-5.53-3.68-8.54-2.76-25.26-20.63-36.83-44.62-42.69-19.51-4.77-38.24,2.8-57.36,1.65-11.47-.69-23.46.22-34.27-3.23-19.33-6.18-36.31.13-53.6,7.52-12.29,5.26-24.39,7.72-35.66-2.83"/>
      <path class="cls-1" d="M39.26,141.23c-3.4-22.63-8.17-45.15-9.62-67.93-.76-11.87.01-24.99,4.57-36.7,3.36-8.63,6.41-16.43,5.74-26.95-.71-11.22,9.01-8.52,16.19-8-1.6,12.65-8.71,21.87-10.78,33.45-3.33,18.61,3.25,35.83,4.27,53.78,1.08,18.98,1.69,37.8-1.46,56.58"/>
      <path class="cls-1" d="M245.55,1196.23c-1.7-.94-3.41-2.74-5.09-2.7-33.13.85-66.17-5.76-99.33-1.54"/>
      <path class="cls-1" d="M375.43,1098.65c-8.49-3.77-17.1-7.24-25.44-11.38-15.23-7.56-29.87-37.42-28.04-56.5,1.08-11.3,9.62-19.09,22.93-19.69,14.86-.67,27.94,5.32,39.45,15.48,10.65,9.41,20.15,20.03,28.16,32.4,4.95,7.65,12.6,11.86,20.26,15.65"/>
      <path class="cls-1" d="M668.32,872.38c4.68-10.02,14.43-13.2,21.63-19.82,20.89-19.24,38.33-41.69,49.46-69.38,2.75-6.84,7.32-11.94,10.4-18.28"/>
      <path class="cls-1" d="M653.04,448.11c-14.8,12.21-30.21,15.61-48.52,8.93-15.76-5.75-32.41-8.67-48.29-14.47-1.49-.55-3.78-1.02-5.06,1.3"/>
      <path class="cls-1" d="M762.55,665.9c5.73-27.52,16.83-53.76,18.67-82.06,1.25-19.25,1.51-38.65,2.91-57.95.32-4.44.42-8.81,2.61-12.72"/>
      <path class="cls-1" d="M36.71,131.33c-8.17-7.29-10.31-18.04-14.5-28.03-9-21.49-8.46-43.51-5.28-65.2,1.77-12.04,10.07-22.52,21.05-28.39"/>
      <path class="cls-1" d="M636.48,763.48c2.68-8.82,1.62-18,1.08-26.86-1.49-24.67,10.77-40.61,27.15-53.41,4.33-3.38,7.86-5.4,7.42-11.66"/>
      <path class="cls-1" d="M495.14,1059.05c.79-14.65,9.35-24.83,18.13-33.56,6.67-6.63,13.14-12.83,17.57-21.56,4.86-9.59,12.4-17.53,20.54-22.2,22.05-12.64,35.92-33.03,48.18-55.61"/>
      <path class="cls-1" d="M668.32,699.84c-9.07,13.93-12.17,29.8-12.81,46.67-.62,16.4-3.71,31.98-15.21,43.84"/>
      <path class="cls-1" d="M525.7,384.48c-2.97-4.71-6.78-9.04-8.73-14.23-3.61-9.6-4.91-19.77-.16-29.6,4.96-10.26,8.4-21.02,10.23-32.53,2.5-15.77-3.18-22.98-17.89-21.14-13.19,1.65-25.88,6-38.1,11.53-3.08,1.4-5.81,2.51-9.03,2.53"/>
      <path class="cls-1" d="M533.34,835.61c10.24-2.05,19.19.98,28.13,6.86,9.26,6.09,19.14,6.49,29.24.33,18.47-11.27,37.02-22.98,45.31-45.59,3.75-10.22,4.37-22.59-1.93-33.82-8.33-14.85-17.59-29.29-21.79-46.57-3.25-13.34-.82-25.68,7.82-35.16,8.41-9.23,18.97-12.16,30.39-5.85"/>
      <path class="cls-1" d="M808.39,790.35c8.76-12.66,15.01-27.08,22.48-40.44,7.65-13.71,12.15-29.83,25.38-40.95,12.77-10.74,26.02-20.88,38.79-31.66,6.31-5.32,12.91-10.68,21.59-9.97,6.47.53,6.83-6.65,10.05-10.07,11.97-12.73,26.53-21.52,39.93-31.85,11.29-8.7,22.26-17.65,32.79-27.38"/>
      <path class="cls-1" d="M148.77,90.32c-5.27-7.05-2.26-13.77,1.42-19.69,3.07-4.92,6.62-10.02,10.32-13.92,14.64-15.45,20-33.75,17.54-55.48"/>
      <path class="cls-1" d="M658.13,835.61c21.02-21.6,36.53-47.8,51.03-74.89,2.27-4.24,5.84-7.61,8.82-11.38"/>
      <path class="cls-1" d="M673.41,694.19c5.5-1.85,8.45-7.52,13.76-10.45,14.74-8.14,24.72-22.56,27.86-40.55,1.81-10.35,10.51-15.51,11.86-25.37"/>
      <path class="cls-1" d="M304.12,1050.56c.71-18.07,2.93-35.57,16.58-48.05,9.61-8.79,21.81-7.6,33.08-9.93"/>
      <path class="cls-1" d="M668.32,483.47c-8.1-4.15-15.12.69-21.55,4.44-24.54,14.28-45.24,6.02-63.55-13.18-6.32-6.63-12.57-9.03-20.59-8.23"/>
      <path class="cls-1" d="M166.6,74.77c3.77.71,7.35-.38,10.12-2.92,5.32-4.88,10.12-10.46,15.37-15.43,15.53-14.69,20.92-32.22,12.71-53.77"/>
      <path class="cls-1" d="M830.04,558.42c-9.32-8.95-11.08-21.7-14.05-33.93-4.04-16.57-8.35-33.06-20.33-45.27"/>
      <path class="cls-1" d="M743.45,349.12c-11.31,5.53-20.56-1.91-29.05-7.51-7.04-4.64-13.77-2.89-20.5-4.4-18.9-4.24-30,8.05-43.83,18.26-12.78,9.43-29.44,11.01-45.41,9.2"/>
      <path class="cls-1" d="M812.21,825.71c18.01-16.51,22.29-39.85,25.36-63.66.64-4.94.83-9.37,6.47-9.88"/>
      <path class="cls-1" d="M512.96,361.85c-4.37-.25-9.07,2.95-12.8-2.78-10.25-15.75-24.41-12.55-38.07-8.28-5.91,1.85-11.1,4.53-16.62-.26"/>
      <path class="cls-1" d="M816.04,414.17c-5.73-3.41-12.4-5.41-14.18-14.1-.52-2.56-3.39-3.54-6.14-4.47-28.24-9.49-44.97-30.21-53.99-61.88-11.02-38.7-49.63-54.56-73.4-34.1"/>
      <path class="cls-1" d="M449.29,332.15c-.83-20.37,10.22-34.04,23.15-44.92,13.87-11.67,30.48-17.52,48.16-18.77,8.47-.6,15.96.59,20.38,9.95,4.32,9.14,3.03,17.35-2.43,25.56-2.96,4.45-4.26,10.39-10.31,11.22"/>
      <path class="cls-1" d="M124.57,71.94c4.96-15.54,13.6-28.35,24.23-39.56,8.1-8.55,11.58-18.98,11.43-31.15"/>
      <path class="cls-1" d="M729.44,315.18c-19.37-10.19-41.6-3.42-61.12-12.73"/>
      <path class="cls-1" d="M506.6,343.46c-10.31-21.78-22.06-24.98-39.35-9.73-6.01,5.3-11.39,6.51-18.24,3.03,7.69-5.67,15.61-10.25,20.66-18.76"/>
      <path class="cls-1" d="M622.48,735.2c-3.76-29.81,11.27-47.86,31.94-62.04,2.65-1.82,6.7-1.03,10.08-1.61,17.57-3.02,30.73-12.24,38.39-31.01,5.15-12.61,13.57-21.39,26.46-25.88,21.52-7.51,37.15-23.75,47.21-46.33"/>
      <path class="cls-1" d="M830.04,609.33c-2.51-9.43-.61-18.81-.21-28.29.64-15.04,2.34-29.93.69-45.31-1.59-14.83,1.77-29.91-1.24-45.32-2.02-10.34-5.13-20.32-12.31-24.66-7.7-4.65-14.52-12.16-23.87-13.4"/>
      <path class="cls-1" d="M856.78,838.43c11.93-19.32,10.09-40.53,8.01-62.27-.77-8.09-5.28-13.32-9.47-14.93-9.56-3.66-11.24-12.61-15.1-20.39"/>
      <path class="cls-1" d="M635.21,513.17c-17.65,11.35-28.14,5.66-35.58-7.12-4.03-6.93-8.66-13.75-8.99-22.57"/>
      <path class="cls-1" d="M688.69,1056.22c18.95-9.28,29.06-27.55,38.06-46.75,1.38-2.95.45-7.38,5.23-6.99"/>
      <path class="cls-1" d="M548.62,1153.8c-12.31,2.36-24.9,7.71-36.86,6.34-16.43-1.88-31.61,1-47.23,4.74-5.68,1.36-13.18,1.82-14.98-6.91-1.21-5.89-.08-11.58,4.57-17.18,10.51-12.64,22.39-22.8,35.92-30.84"/>
      <path class="cls-1" d="M625.02,339.22c6.21-17.88,21.18-24.79,34.37-33.97,2.44-1.7,4.68-3.74,7.02-5.63"/>
      <path class="cls-1" d="M383.08,496.2c15.71-12.73,31.41-25.46,47.12-38.18"/>
      <path class="cls-1" d="M709.07,787.52c17.14-16.1,33.29-32.76,37.35-59.32.51-3.33,3.92-7.55,5.94-11.39"/>
      <path class="cls-1" d="M821.13,722.47c11.73-17.97,30.15-28.94,40.75-48.08"/>
      <path class="cls-1" d="M607.2,878.03c-14.46,8.01-28.71,16.82-45.84,14.14"/>
      <path class="cls-1" d="M248.09,1197.64c18.03,4.94,36.76-1.97,54.82,4,2.5.83,5.83-1.95,8.86-2.51,4.2-.77,9.1-2.76,12.62-1.2,21.31,9.44,34.09-6.93,48.5-18.67,4.94-4.02,7.38-12.22,15.28-11.32"/>
      <path class="cls-1" d="M571.54,940.26c11.41-15.23,19.94-32.98,33.11-46.67"/>
      <path class="cls-1" d="M747.27,736.61c18.11-4.14,24.53-20.26,30.56-36.77"/>
      <path class="cls-1" d="M675.96,787.52c7.38-13.79,11.75-29.37,20.37-42.43"/>
      <path class="cls-1" d="M627.57,858.23c8.49-13.2,16.98-26.4,25.47-39.6"/>
      <path class="cls-1" d="M552.44,557.01c-15.8-21.54-15.94-24.22-2.54-49.49,2.51-4.74,5.09-9.43,7.64-14.15"/>
      <path class="cls-1" d="M630.12,394.37c-8.45,7.96-18.38,11.65-29.28,11.21-12.03-.48-23.32,2.44-34.39,7.18"/>
      <path class="cls-1" d="M388.17,1102.89c4.81-9.62-5.18-17.51-1.23-27.02,4.25-7.16,11.23-8.5,19.05-5.47,5.16,2.01,9.93.96,14.66-1.46"/>
      <path class="cls-1" d="M678.51,1090.16c10.19-10.37,20.37-20.74,30.56-31.11"/>
      <path class="cls-1" d="M511.69,337.81c-2.69-3.46-1.37-7.64-1.14-11.3,1.05-16.77-3.42-27.91-23.06-22.64"/>
      <path class="cls-1" d="M586.82,390.13c8.91,3.73,17.83,0,26.74.07,5.1.04,10.34-1.21,15.28,1.34"/>
      <path class="cls-1" d="M774.01,739.44c1.02-8.49,6.22-14.95,8.91-22.63"/>
      <path class="cls-1" d="M650.49,499.03c5.69-2.94,8.78-11.25,16.55-9.9"/>
      <path class="cls-1" d="M530.79,978.44c5.27.98,5.66-6.73,10.19-7.07"/>
    </g>
  </g>
</svg>