<?xml version="1.0" encoding="utf-8"?>
<!-- Generator: Adobe Illustrator 28.1.0, SVG Export Plug-In . SVG Version: 6.00 Build 0)  -->
<svg version="1.1" id="Calque_2_00000166643865343961141520000002205064746086611348_"
	 xmlns="http://www.w3.org/2000/svg" xmlns:xlink="http://www.w3.org/1999/xlink" x="0px" y="0px" viewBox="0 0 946 898.7"
	 style="enable-background:new 0 0 946 898.7;" xml:space="preserve">
<style type="text/css">
	.st0{fill:none;stroke:#E57221;stroke-width:3;stroke-linecap:round;stroke-linejoin:round;}
</style>
<g id="Gert_Ausloos">
	<g>
		<path class="st0" d="M55.8,760.3c2.6-0.4,5.5-0.1,7.7-1.2c26-12.8,47.3-29.8,55.5-59.4c3.6-13,11.6-22.7,25.2-27.8
			c16.2-6.2,27.7-17.5,32.3-35c2.6-9.8,5.7-20.7,15.5-25.1c14.9-6.6,25.3-17.9,36.6-28.8c17.1-16.4,37.9-24.4,61.7-17.6
			c10.7,3,21.6,5.3,32.3,8.1c12.8,3.3,26.3,5.1,39.7,1.6c6.2-1.6,11.7,0,17.8,1.7c9.5,2.5,19.3,7.3,29.8,2.9c2.8-1.2,7-1.2,9.8,0
			c11.2,4.8,21-0.2,31.1-3.5"/>
		<path class="st0" d="M823.8,640.2c0.5,7.2,11.7,9.6,17.1,11.6c31.8,12,70.2,11,101.7-1.9"/>
		<path class="st0" d="M944.4,495.4c-11-13.3-21-25.3-33-38.3c-6-7-13-12-19-18c-25-24-51-43-80-59c-3-1-6,0-8.6-0.1"/>
		<path class="st0" d="M779.5,613.7c3.5-1.4,6.3-3.3,11.1-2.5c28.3,4.5,54.1-3.9,78.5-17.4c21-11.5,27.6-29.7,22.4-52.9
			c-5.9-26.2-19.4-48.7-32.3-71.6c-11.6-20.8-25.7-40.4-46.8-51.2c-18.4-9.4-33-22-46.1-37.1c-5.6-6.5-12.5-12.9-10.1-23.1"/>
		<path class="st0" d="M114.4,897c0.5-6-1.9-11.2-4.3-16.6c-5.2-11.5-9-23.4-7.8-36.3c1-11,1.9-22.1,3.4-33.1
			c3-22.6,8.7-43.7,28.5-58.7c10-7.6,18.6-17,21.5-30.5c1.5-6.8,7.1-12.5,13-16.5c13.2-8.7,21.6-20.3,26.8-35.3
			c2.9-8.5,8.9-16.1,17.3-21.1c21.2-12.5,39.5-28.8,65.1-35.1c23.7-5.9,45.8-18.5,71.1-20.1c10-0.6,19.9-3.9,29.9-0.9
			c17.4,5.1,34.9,4.4,52-0.3c20-5.5,39.1-14.3,59.8-17.4"/>
		<path class="st0" d="M459.7,110c4.3-2.3,7.9,0.1,11,2.3c11.8,8.4,24.5,15.4,34.4,26.3c8.1,8.9,17.4,16,28.6,21.2
			c25.8,12,47.2,29.4,60.9,54.9c2.5,4.7,6.4,6.8,11.1,8.9c18.5,8.2,33.3,20.1,41,39.6c7.2,17.9,17.6,33.6,34.3,44
			c6.4,3.9,11.7,9,17.8,13.1c8.8,6,18,12.3,29.7,11.3"/>
		<path class="st0" d="M758.5,576.2c15.7-10.2,34.7-13.3,48.5-29c10.2-11.5,11-22.1,11.4-34.9c0.5-16.2-8.1-30-11.2-45.2
			c-3.7-17.9-11.4-33.7-25.2-46.5c-8-7.4-16.6-14.3-22.4-24c-7.9-13.3-18.1-24.4-31.9-32.2c-9.7-5.5-18.8-11.9-27.7-18.7
			c-15.6-11.9-26.1-29.3-43.2-39.6"/>
		<path class="st0" d="M792.8,623.6c5.7,7.5,14.7,13.5,24.7,14.5c31,2,62,3,92-7c12-4,22-13,29.1-22.9"/>
		<path class="st0" d="M942.5,524.7c-9.3-22.7-25-40.8-40.1-59.8"/>
		<path class="st0" d="M661.1,246.7c-6.6-3.5-12.6-7.5-17.6-12.5c-14-16-25-32-37-51c-4-7-12-12-21-17c-19-10-30-30-50-40
			c-36-4-60-30-90-49c-5-3-11-4-16-7c-11-10-22-21-24-36c-8-13-21-23-32.6-32.7"/>
		<path class="st0" d="M66.8,896.4C57.6,880,52,863.6,62,845c1.9-3.5,2.3-9.3,3-14c1.9-11.4,1.1-22.9,3.8-34.3
			c3.7-15.8,15.2-26,24.9-37.2c15.9-18.2,33.2-35.2,50.8-51.8c5.9-5.5,11.1-11.4,15-18c5.6-9.4,12.1-18,20.2-25.2
			c11.1-9.8,19.8-21.6,28.6-33.2c20.6-27.3,46.5-42.1,82-40c18.8,1.1,38.2-0.2,55.3-10.6"/>
		<path class="st0" d="M738.6,306.2c-0.4-7-1.1-14-1-20.9c0.1-18.7-8.2-34.3-19.1-48.4c-10.5-13.6-26.4-20-41.9-26.6
			c-14.3-6.1-26-14.7-30-30.8c-0.8-3.3-3.6-5.6-6.4-7.9c-12.2-10-21.7-21.9-26.8-37.3c-6.1-18.4-18-32.2-36.4-39.7"/>
		<path class="st0" d="M485.2,523.3c-12.3-1.1-18.3-10.7-25.4-18.8c-14-15.9-11.4-35.9,4.6-46c28.1-17.7,59.1-28.5,92.8-27.6
			c27.3,0.8,35.8,25.1,29.9,46.1"/>
		<path class="st0" d="M588.6,3.7c25.9,5.5,49.9,18.5,67.9,38.5c10,12,8,32-4.2,42.5"/>
		<path class="st0" d="M725.3,591.7c2.3,2.9,5.5,4.1,8.8,5.7c12.3,5.8,25.1,2.4,37.7,3.3c8,0.6,15.1-0.5,22.2-4.4
			c8.1-4.5,16.9-7.5,26.5-6.7c10.2,0.8,19-2.5,27.7-7.6c18.3-10.7,24.5-23.8,19.9-44.2c-1.4-6.3-3.2-12.5-4.4-18.8
			c-6.4-33.8-28-58.4-51.2-81.3c-14.4-14.2-31.3-26-45.1-41"/>
		<path class="st0" d="M548.2,591.7c15.9-8.7,32.6-2.4,48.7-1.6c16.1,0.8,31.9,5.1,47.6-1.6c7.4-3.2,15.1-4.9,23.2-6
			c7.6-1.1,16.6-0.3,22.3-8.3c12.1-17.1,27.7-31.4,40-48.4c10.3-14.3,13.6-28.8,7.6-45.3c-4-11.1-4.6-22.6-4.4-34.2
			c0.1-9.2-1.6-17.7-8.8-24.3c-4.9-4.4-6.8-10.4-8.9-16.5c-3.8-10.8-9.2-21.1-17.9-28.4c-5.6-4.7-9.6-10.4-14.2-15.7"/>
		<path class="st0" d="M54.7,748.2c-4-7.9-6.1-16.7-10.8-24.4c-2.3-3.9-2.5-9.2-2.7-14.2c-0.4-10.8,2.4-21.3,2.3-32
			c0-16.3,5.8-30,16.7-41.9c20.4-22.4,46.8-33.9,75.3-41.9c10.5-2.9,20.1-11,31.7-5.2c3.7-3.3,7.6-5.8,10.2-9.2
			c10.5-13.8,31.3-23,21.2-46.2c-0.3-0.6-0.2-1.5,0-2.2c8.7-25.9,27-42.5,52-51.6c17.1-6.2,34.8-7.9,53.1-4.8
			c15.9,2.8,31.6,5.6,44.2,16.7c10.5,9.2,21.8,17.6,23.2,33.1"/>
		<path class="st0" d="M172,612.6c3.3-5.1,7-10.1,9.9-15.5c6.1-11.6,16.2-18.6,27.8-22.9c11.2-4.2,20.9-9.6,28.9-18.8
			c5.8-6.7,14-12.5,23-11.9c13.3,0.8,27,0,39.9,5.1c15.7,6.3,32.5,3.1,48.7,5.6c6.3,1,12.5,2.2,18.8,3.3"/>
		<path class="st0" d="M716.5,570.7c3-1.8,6.8-2.3,8.8-5.5c5.6-8.7,14.1-13.8,23.4-17.4c2.9-1.1,5.1-2.7,6.4-4.8
			c7.7-11.5,11.2-25.3,19.9-36.4c1.1-1.4,0.6-4.4,0.1-6.5c-2.8-10.9-4.4-21.9-2.2-33.1c0.3-1.4,0.4-2.9-1-4.5
			c-10.7-11.8-15.2-27.5-25.3-39.8c-8.5-10.3-15.8-21.7-19-35.1"/>
		<path class="st0" d="M588.1,68.1c-9.6-8.9-19.6-18.9-30.6-25.9c-34-4-71,4-100-20c-13-10-28-15-42.7-17.7"/>
		<path class="st0" d="M753,604.9c10.4,7.4,24.8,5.8,34.4,15.3c1.7,1.6,5.2,2.6,7.6,2.2c16.5-2.8,33.2,0.2,49.9-2.8
			c17.6-3.2,34.6-6.7,51-14.4c13.4-6.3,18.3-18,21.7-30.1c5.3-19,3.3-38.3-1.9-57.2"/>
		<path class="st0" d="M645.6,96.8c-2.1-0.6-3.1-2.6-4.1-4.6c-4-15-6-31-17-43c-7-7-14-12-23-16c-33-13-67-20-103-24
			c-4-1-9-2-12.6-3.8"/>
		<path class="st0" d="M429.8,294.1c-6.3,14.2-39.9,16.5-54.2,10.9c-18-7.1-28.3-21.5-36.9-38.3c-9.2-18-6.6-36.2-3.5-54.1
			c1.8-10.3,3.5-23.4,17.1-27.7"/>
		<path class="st0" d="M511,2.9c31.5,7.2,62.5,12.2,93.5,21.2c8,3,16,6,23,11c20,16,33,48,14.8,69.3"/>
		<path class="st0" d="M51.3,733.9c6.8-9.5,2.8-20.6,4-30.9c2-16.9,3.5-34,10.6-49.4c10.1-22,29.3-33.8,51.7-40.9
			c15.4-4.9,31-9.4,43.2-20.9"/>
		<path class="st0" d="M201.8,549.8c6,2.5,12,3.4,16.5-2.3c4.2-5.3,10.3-8,15.7-10.7c39.4-19,78.9-26.2,118.4,0.7
			c6.7,4.6,13.7,11.1,23.1,8.8c5.8-1.4,10.2,0.1,14.4,3.5c8.4,6.8,18.2,8.8,28.8,10.1c14.1,1.8,27.4-1.9,40.9-3.9
			c10.7-1.5,20.3-7.4,27.1-16.3c5.2-6.8-1-13.9-0.5-20.9c0.1-1.1,0-2.2,0-3.3"/>
		<path class="st0" d="M474.1,248.9c0.5,3.9-2.1,6.2-4.4,8.9c-6.2,7.1-15.7,6.4-23.2,10.1c-12.4,6.1-25.5,7.7-38.8,7.4
			c-18.5-0.3-40.6-17.6-42-33c-2.3-25.4-0.9-50.4,10.9-73.9c3.2-6.3,6.7-11.6,14.5-12.1"/>
		<path class="st0" d="M167.5,895.9c3.6-13.7,0-25.4-10-35.3c-4.7-4.7-10.3-8.8-12.1-15.5c-2.1-7.8-6.7-13.5-13.4-17.6
			c-7.2-4.5-8.6-11.4-7.5-18.7c0.9-6,2.5-12.4,5.5-17.5c7.5-12.3,13.9-25.1,30.6-29.5c7.5-2,11.2,3.4,16.8,2.8
			c11.1-1.2,22-1.1,33.2-0.4c25.8,1.5,48.5-7.2,65.2-28.1c17.4-21.8,23.7-42.5,12.2-70.5"/>
		<path class="st0" d="M14.8,869.4c-3-1.5-4.9-3.4-7-6.4c-8.8-12.1-6.7-24.9-4-37.7c3.3-15.6,11.9-29.6,24.6-38.1
			c18.9-12.8,23.2-15.7,26.2-34.7c0.2-1.1,0.4-2.5,1.1-3.3c15.2-14.6,11.3-34,13.1-51.9c0.8-8.2,1-16.4,3.5-24.2
			c6.3-19.2,19.7-32,37.5-40.8c16-7.9,32.7-14.5,46.6-26.3c5.4-4.6,11.4-8.2,9.8-16.7"/>
		<path class="st0" d="M210.7,536.5c0.4-2.9-0.4-6.9,1.3-8.7c19.3-20.7,35.7-44.6,69.5-44.8c24.3-0.1,45.5,4,63.1,21.4
			c8.2,8.2,16.9,15.7,27.3,21.5c5.7,3.2,12.9,8.9,11.3,18.2"/>
		<path class="st0" d="M459.7,252.2c-13.5,5.6-27.8,8.4-42.1,9.7c-15.6,1.4-23.5-6-25.3-21.8c-0.6-5-1-8.7-6.6-11.2
			c-9.4-4.1-10.8-13.3-8.7-21.8c4.3-17.1,9.9-33.9,15.3-50.7c1.8-5.7,6.1-7.8,12.1-5.5"/>
		<path class="st0" d="M501.8,235.6c-5.8-10.1-14.1-17.8-24.4-23.1c-14.4-7.4-26.3-16.1-36.3-30.3c-10.3-14.6-16-26.9-12.9-44.8
			c2.5-14.6-2.2-28.8-13.9-39.6"/>
		<path class="st0" d="M152.1,763.6c-2.8-6.3-1.1-11.7,3.3-16.5c17.6-19.6,36.8-37.9,47.9-62.7c3.5-7.8,9.9-15.1,18.5-18.8
			c12.9-5.6,23.3-14.6,29.5-26.7c4.2-8.4,16.2-9.1,17-19.6"/>
		<path class="st0" d="M206.3,759.2c0.4-0.4,0.7-1,1.1-1.1c34.2-5.8,54-25.9,62.3-59.5c5.3-21.8,15-42.2,26.1-61.9
			c1-1.7,0.1-4.3,0.1-6.5"/>
		<path class="st0" d="M459.7,266.5c-8.7,18.8-33.6,31.7-56.4,28.5c-8.7-1.2-17.8-1.4-25.5-7.5c-21.7-17-31.7-39-29.7-66.2
			c0.5-7.4,2-14.7,3.3-22.1c2.8-15.8,7.3-30.4,25.4-35.3"/>
		<path class="st0" d="M407.7,36.1c6.5-1.2,8.8,4.4,12.1,7.8c12,12.3,24,24.2,42.1,27.7c9.9,1.9,18.4,8.1,26.7,14
			c11.2,8,23.5,13.7,37.6,14.4c12.3,0.7,23.2,5.2,33.2,12.1"/>
		<path class="st0" d="M704.3,252.2c-7.9-9.8-16.3-18.7-28.7-23.2c-22.6-8.3-39-23.6-49.9-45.1c-10.2-20.2-28.7-34.4-40-53.9
			c-1.2-2.1-4.3-3-6.5-4.5"/>
		<path class="st0" d="M509.5,600.5c23.8,1.4,47.7,2.6,69.7,13.3c9.5,4.7,18.8,7.5,28.8,2.1c6.4-3.4,12.9-3.9,20-2.3
			c7.6,1.7,15.5,2.3,23.2,3.4"/>
		<path class="st0" d="M461.9,251.1c1-1.1,2.5-2.5,0-3.2c-5.5-1.7-10.9-1.2-16.6-0.3c-8.9,1.4-18.4,0.3-26.3-3.5
			c-6.4-3.1-6.5-11.5-8.2-18.3c-1.5-5.8-4.8-11.1-10.7-14.5c-5.6-3.2-8.6-8.3-9.1-15.3c-1.2-16,6.3-29.2,12.3-43"/>
		<path class="st0" d="M644.5,421.9c0-1.8,0.8-4.2-0.1-5.4c-7.4-9.9-11.2-20.9-13.5-33.1c-2.1-11-7-21.2-16.2-28.8
			c-6.6-5.5-12.6-11.7-18.9-17.6c-8-7.5-12.4-16.9-13.1-27.6c-0.6-9.3-3.9-17.3-7.9-25.3"/>
		<path class="st0" d="M167.5,759.2c3.6-10,9.4-18.5,17.6-25.5c3.7-3.2,6.2-7.8,9-12c8.6-13,17.9-25.2,31-34.2
			c13.1-9,23.9-20.4,32.2-34c6.6-10.8,16.8-20.7,27.8-23.2c10.9-2.5,19.7-6.5,27.3-13.3c23.6-21.4,68.1-8.4,78.7,17.8"/>
		<path class="st0" d="M487.4,513.4c2.6-3.6,4.3-6.7,3.7-12.2c-1.8-16.3,6.4-27.4,21.7-34.2c7.7-3.4,15.6-0.9,23.3-2.2
			c13.2-2.3,22.9,2,30,13.3c5.2,8.3,8.4,19.3,16.8,23.7c8.6,4.5,13.5,11.1,18.5,18.2c1.8,2.5,4.2,3.8,6.6,5.5
			c20.2,14.5,52.8,7.5,67.2-5.9c9.4-8.8,12.2-23.6,24.7-30.5c11.4-26.7,19.4-53.3,1.2-80.5c-6.8-10.2-9-21.9-8.9-34.1"/>
		<path class="st0" d="M570.4,87.9c-15.4-17.1-33.6-27-57.6-22.2c-4,0.8-8.1-0.3-12.2-1.9c-21.7-8.2-42.6-18.6-65.2-24.4"/>
		<path class="st0" d="M708.7,587.8c-0.8-3.8,2.3-6.2,4.5-7c17.1-5.7,33.3-12,45.8-26.2c3.4-3.8,12-3.9,16.1-9.3
			c5.6-7.2,11.3-14.3,17.6-21.1c6.2-6.7,7.7-15.2,4.5-24.1c-2.4-6.8-6.2-13.4-5.5-21c1.4-14.6-3.1-27.2-12.1-38.6
			c-13.3-16.8-30.1-30.8-41.1-49.5c-1.1-1.9-3.4-3.9-5.5-4.3c-12.1-2.4-16.5-12.9-23.2-21.1"/>
		<path class="st0" d="M172,753.7c13.4-1,26.4-2.7,38.8-8.7c34.7-16.9,43.7-50.7,55.3-82.8"/>
		<path class="st0" d="M487.4,236.7c-9.9-4.7-20.7-2.5-31-4.4c-9.3-1.7-19.8-1.1-23.3-13.2c-2.9-9.8-9.3-17.3-16.5-24.3
			c-14.9-14.4-12.2-33.3-8.1-49.4c6.8-26.8,9.3-51-9.2-74.3c-3.8-4.8-7.8-7.9-12.6-9.4C367.4,55.8,350,48.8,351.2,24
			c0.1-1.5,0.8-3.3-1.1-4.4"/>
		<path class="st0" d="M548.3,591.7c14.8,10.2,31.3,13.3,48.7,9.8c9.9-2,19.3-2.2,28.8,1.2c19,6.8,33.3,0.4,42-18.7"/>
		<path class="st0" d="M491.8,538.8c8.9,4.5,15.2-1.8,22.1-5.5c13.2-7,26.3-13.8,42.1-6.8c8.7,3.9,18,6.9,27.6,7.8
			c10.4,1,21.2,6.7,31-2.2"/>
		<path class="st0" d="M86.8,897c-3.2-13.2-5.2-26.2-0.3-39.8c3-8.2,2.5-17.3,1.7-26.4c-1.4-15.7-4.4-31.5-1.5-47.4
			c0.6-3.4,0-6.9-2.2-9.9"/>
		<path class="st0" d="M697.6,195.9c2.9-3,5.4-2.1,8.9-0.2c18.1,9.7,33.9,22.4,48.6,36.5c6.6,6.3,10.8,14,14.3,22.1
			c7.4,16.7,0.9,32.3-16.6,40.8"/>
		<path class="st0" d="M414.3,92.3c14.4,4.2,20.9,15.4,24.2,28.7c2.5,10,7.1,19.1,12.6,27.3c4.1,6.1,6.4,12.3,8.6,18.9
			c3.9,11.9,8.2,23,19.6,31.2c16.2,11.8,35,19,51.2,30.5"/>
		<path class="st0" d="M490.7,527.7c5.9-2.1,9.4-6.1,11.1-12.1c1.9-6.3,4.2-12.6,6.6-18.8c6.7-17.1,31.7-26.6,44.2-16.5
			c11.1,9,20,20.4,27.2,32.2c5.6,9.3,11.1,11.7,20.5,9.6"/>
		<path class="st0" d="M692.1,493.6c0.5-12.8,2-25.8,7.1-37.3c4.7-10.7,1.7-18.4-3.8-26.6c-5.4-8.1-8.7-16.6-10.4-26.4
			c-1.5-8.9,0.3-19.6-8.4-26.5"/>
		<path class="st0" d="M483,461.6c4-2.3,7.9-4.7,12.1-6.8c17.8-9.2,37.6-9.2,56.5-13c5.1-1,9.6,1,13.2,4.4
			c16.5,15.6,25.8,34.2,24.4,57.3"/>
		<path class="st0" d="M400,570.7c9.7-0.2,18.6,4.8,28.8,2.4c16.8-4,34.7-1.3,51-9.9c10.5-5.6,22.3-7.8,34.2-2.5
			c5.8,2.6,12.1,1.8,17.6-0.1c16.8-6,33-0.3,48.7,2.9c29.8,6.2,58.4,8.2,86.5-5.9c7.3-3.7,12.8-10.2,21-12.2"/>
		<path class="st0" d="M67.9,731.6c12.3-7.2,17.9-18.8,19.8-32c4.5-31.3,22.1-51.5,51-62.8"/>
		<path class="st0" d="M506.2,557.5c6.4-6.5,15.7-4.5,23.2-7.7c14.4-6.1,28.8,7.3,43.2,0c13.3,7.2,27.1,3.5,41,2.3
			c22.4-2,45-2.8,63.1-18.8"/>
		<path class="st0" d="M203,543.2c8.5-6.4,19.5-9.1,26.5-17.7c4.8-6,11.4-9.6,17.8-13.1c21.4-11.7,43.9-18.1,68.5-12.2"/>
		<path class="st0" d="M552.7,28.4c-8.6,0.2-17.2,1.1-25.9,1.3c-27.6,0.5-52.4-11.4-76.1-24.3"/>
		<path class="st0" d="M882.5,467.1c-15.7-21.7-35.6-38.9-57.6-54c-10.4-7.1-21-14-29.9-23.1c-3.1-3.2-6.4-6-5.5-11.1"/>
		<path class="st0" d="M643.4,634.6c-3.5,0.1-7.1-0.7-10,2.2c-12.4,12.5-29.7,8.2-44.5,11.3c-20.4,4.2-36.2-12.6-52.4-22
			c-11.5-6.7-21.4-18.2-32-27.3c-13.2-11.4-52-6.7-64.8,4c-14.1,11.9-28.9,15.7-46.7,9.1c-3.4-1.2-8.7-5.2-13.1-0.4"/>
		<path class="st0" d="M179.7,750.4c11.4-8.4,23.6-17.2,30.4-29c13.5-23.3,37.9-36.1,52.3-58.6c7-11,18.5-20.3,26.8-31.4"/>
		<path class="st0" d="M698.7,587.2c14.1,3.9,27.5,3.4,41.1-3c5.5-2.6,12.1-6.3,18.6-4.5c9.5,2.6,16.9-1,24.4-5.7
			c6.1-3.8,12.2-7.5,19.9-7.9c4-0.2,8-2.3,11.1-5.3c4.5-4.4,8.8-9,14.3-12.2c5.4-3.1,7.2-9.3,6.3-14.2c-1.4-7.2,1.2-14,0.4-21
			c-0.3-2.9-0.1-6.1-1.2-8.8c-7.6-19.2-15.3-38.3-23.2-57.3c-1.4-3.3-4.9-5.9-2.1-10"/>
		<path class="st0" d="M732,229c-17.1-17.4-34.6-33.9-57.4-44.5c-9-4.2-18.5-9.8-24.4-18.4c-10.8-15.9-15.4-33.5-11.5-52.9
			c0.4-1.8,2.5-3.6,0.5-6.7c-5.8-8.8-8.7-19.2-15.7-27.4"/>
		<path class="st0" d="M608,275.3c-9.3-11.3-16.5-24.1-24.3-36.4c-14.2-22.4-36.2-30-60.7-36c-12.6-3.1-28.5-4.1-35.1-21.1
			c-2.9-7.6-8.7-15.5-16-21.2c-6.5-5-10.4-12.9-11.7-19.9c-3.2-17.7-12.4-30.9-24.8-42.9c-3.9-3.8-7.4-8-11.1-12.1"/>
		<path class="st0" d="M356.8,74.7c-1.3-0.5-3.3-1.5-4.3-1.5c-8,1-14,8-22,11c-3,1-5,2-7,3c-5,2-10,3-15,2c-6-2-8-8-5-13
			c10-20,30-32,40-52c1-3,2-5,3-7c2-6-1-11-3.4-15.5"/>
		<path class="st0" d="M329.1,104.5c-0.2,2.7,0.3,5.2-2.1,7.8c-11.1,12.1-24,19.7-41.1,19.8c-21.1,0.1-36.4-17.2-30.7-37.5
			c4.9-17.3,16.9-30,33-38.5c1-0.5,2.9,0.6,4.4,1"/>
		<path class="st0" d="M665.6,437.3c3.6-10.4,0.3-20.4-3.7-29.6c-2-4.6-8.3-8.6-8.1-13.4c0.7-20.5-15.1-33.5-21.4-50.7"/>
		<path class="st0" d="M492.9,574c9.8-8.2,20.3-6.3,31-2.2c15,5.8,29.8,10.7,46.6,5.9c9.4-2.7,19.8-2,29.8-2.5
			c16.6-0.9,32.9,5,49.9,1.3c20.8-4.6,36.4-13.6,38.8-33.3c0.3-2.3,0.9-4.9,3.2-6.7c9-7.1,16.7-15.9,26.6-22"/>
		<path class="st0" d="M42.5,784.6c2.7,14.6,2.2,29.3,1.3,44.1c-0.9,14-6.6,27.4-3.7,41.9c1.8,9,8,16.2,9.4,26.1
			c-6.2,0.4-14.7,2.5-14.1-6.2c0.6-8.2-2.1-14.3-5-21c-4-9.1-4.6-19.3-4-28.6c1.3-17.8,5.4-35.3,8.4-52.9"/>
		<path class="st0" d="M376.7,60.4c-6.7,3-13.3,6.2-17.6,12.2c-7,9.6-15.2,17.9-24.5,25.2c-10,7.9-21.4,12.6-34.3,12.1
			c-11.6-0.5-19-6.5-19.9-15.3c-1.6-14.9,11.1-38.2,24.4-44c7.2-3.2,14.7-5.9,22.1-8.9"/>
		<path class="st0" d="M652.3,301.8c-2.7-4.9-6.7-8.9-9-14.2c-9.7-21.6-24.8-39.1-43-54.1c-6.3-5.2-14.7-7.6-18.8-15.4"/>
		<path class="st0" d="M479.6,552c1.1,1.8,3.1,1.5,4.4,1c13.8-4.5,28.3-6.8,42-11.3c15.9-5.2,29.3-2.5,42.2,7"/>
		<path class="st0" d="M684.4,498c-1.9-3.1-2-6.5-2.3-9.9c-1.2-15-1.4-30.2-2.5-45.2c-1.6-22.1-11.2-42.5-16.2-64"/>
		<path class="st0" d="M33.6,890.4c-9.5-4.6-16.8-12.7-18.3-22.1c-2.8-16.9-3.2-34.1,4.6-50.8c3.6-7.8,5.5-16.2,12.6-21.8"/>
		<path class="st0" d="M584.8,374.5c0.4-4.9-2.7-6.5-6.5-9.1c-14.2-10-24.9-22.4-23.6-41.6c0.5-6.9,1.4-14-0.9-20.9"/>
		<path class="st0" d="M521.7,176.1c-10.6-17.6-22.7-33.5-41.9-43.3c-7.1-3.6-13.6-9.8-17.9-17.3c-3.8-6.8-9.5-11.6-15.3-16.8
			c-7.6-6.8-15.1-14.7-15.8-26.2"/>
		<path class="st0" d="M557.1,281.9c10,9.2,12.7,21.4,13.2,34.2c0.6,13.1,3.2,25.5,11.1,36.4"/>
		<path class="st0" d="M402.2,663.3c2.8,0,5.2,0.9,7.8,2c10.6,4.3,21.6,7.7,33.1,9c12.8,1.4,17.7-4.2,15.5-16.5
			c-1.6-9-4.6-17.3-8.9-25.3c-4.1-7.7-3-15.6,0.1-23.1c1.7-4,5-7.4,7.6-11.1"/>
		<path class="st0" d="M566,371.2c-9.9,4.9-19.1,2.6-26.4-4.6c-7.5-7.4-9.6-17-6.8-27.4c3.6-13.5,11.7-24.7,18.9-36.3
			c5.5-8.8,4.9-18.4,1.7-26.4c-7.2-17.6-23.3-26.8-39.4-35.5c-8.8-4.8-17.4-4.5-25.4,0.3c-7.8,4.6-15.6,7-24.5,5.4"/>
		<path class="st0" d="M869.2,431.8c-9.1-7.6-18.7-14.6-28.5-21.3c-11.6-8.1-24.3-14.9-34.7-24.8c-2.8-2.7-3.1-8.3-8.7-7.9
			c-7.5,0.6-13.3-3.6-18.8-7.8c-11.1-8.4-22.6-16.3-33.7-24.7c-11.5-8.7-15.4-21.2-22.1-31.9c-6.5-10.4-11.9-21.6-19.5-31.5"/>
		<path class="st0" d="M155.4,897c2.1-16.9-2.5-31.2-15.2-43.2c-3.2-3-6.3-7-9-10.8c-3.2-4.6-5.8-9.8-1.2-15.3"/>
		<path class="st0" d="M624.6,313.9c-2.6-2.9-5.7-5.6-7.7-8.9c-12.6-21.1-26.1-41.5-44.3-58.4"/>
		<path class="st0" d="M632.4,416.4c-1.2-7.7-8.7-11.7-10.3-19.8c-2.7-14-11.4-25.3-24.2-31.6c-4.6-2.3-7.2-6.7-12-8.1"/>
		<path class="st0" d="M308.1,124.3c-9.8-1.8-20.4-0.9-28.8-7.7c-11.9-9.7-13.8-23.4-14.4-37.4"/>
		<path class="st0" d="M489.6,534.3c7,0.6,12.4-1.2,17.9-6.4c15.9-15,33.9-21.4,55.2-10.3c5.6,2.9,11.7,6.7,18.7,3.5"/>
		<path class="st0" d="M178.6,895.9c7.1-16.8,2.5-30.5-11-41.9c-4.6-3.9-8.7-8.2-13.4-12c-2.4-2-5.5-2.8-8.8-2.3"/>
		<path class="st0" d="M692.1,524.4c10.4-9.5,14.2-22.4,17.7-35.3c2.6-9.5,4.1-19.5,12.2-26.4"/>
		<path class="st0" d="M526.1,613.7c13.9-1.4,28.4-0.2,39.5,7.2c12,8,21.7,17.5,38.1,14.2c5.9-1.2,11.7,0.2,17.8-3.4
			c7.4-4.4,15.4-10.2,25.2-5.9"/>
		<path class="st0" d="M734.2,311.7c-4.9-0.4-5.1-3.9-5.6-7.7c-2.7-18.5-6.4-36.7-22-49.6"/>
		<path class="st0" d="M387.8,624.7c4.8-3.7,9.3-1.6,14.4-0.2c11.9,3.3,24.2,5.8,33.1-6.5c3.2-4.5,7.3-2,11.1-2.2"/>
		<path class="st0" d="M581.4,664.4c20.7,15.9,54.2,3.6,63.8-26.6c7.8-24.7,22.4-40.8,46.9-48.2c2.4-0.7,4.9-1.5,5.3-3.5
			c1.6-6.8,7.4-8.3,12.3-11"/>
		<path class="st0" d="M459.7,652.3c5.3,0.6,6.4,5.3,9,8.7c4.7,6.4,5.9,12.8,2.1,19.9c-3.8,7.3-10.4,8.2-17.7,7.8
			c-15.4-1-29.8-5.5-41.9-14.6c-11.2-8.5-20.8-19.1-20.1-35"/>
		<path class="st0" d="M139.9,897c0.1-9.5-2.9-17.6-9.9-24.3c-9.2-8.7-16.8-18.7-21.1-30.8"/>
		<path class="st0" d="M581.5,662.2c17-7.3,36.3-2,53.1-9.9"/>
		<path class="st0" d="M408.8,650.1c-4.4-6.6-11.3-10.2-18-14.6c5.9-2.7,10.6-1.8,15.8,2.4c15,11.9,25.2,9.4,34.2-7.6"/>
		<path class="st0" d="M675.5,455c-8.8-17.6-22.3-30.3-41-36.1c-11.2-3.5-18.5-10.4-23-20.2c-6.7-14.6-18.1-21.8-33.4-24.2
			c-2.9-0.5-6.5,0.2-8.8-1.3c-18-11.1-31-25.1-27.8-48.4"/>
		<path class="st0" d="M689.9,545.3c8.1-1,14-6.8,20.7-10.4c6.2-3.4,9-11.2,10.7-19.2c2.6-12-0.3-23.8,1.1-35.3
			c1.4-12,0-23.6-0.6-35.3c-0.3-7.4-2-14.7,0.2-22"/>
		<path class="st0" d="M730.9,320.5c3.3-6.1,4.8-13,13.1-15.9c3.6-1.2,7.6-5.3,8.2-11.6c1.8-16.9,3.4-33.5-7-48.5"/>
		<path class="st0" d="M513.9,521.1c0.3-6.9,4.3-12.2,7.8-17.6c6.5-10,15.6-14.4,30.9-5.5"/>
		<path class="st0" d="M636.8,116.6c-4.2,0.3-3.3-3.1-4.5-5.4c-7.8-15-16.6-29.2-33.1-36.4"/>
		<path class="st0" d="M426.5,32.8c-11-8.6-25-13.6-33.3-26.6"/>
		<path class="st0" d="M579.8,664.4c-2-1.5-4-3.1-6.1-4.4c-11.5-7.1-24.5-12.5-29.9-26.5"/>
		<path class="st0" d="M374.5,541c-13.7-9.9-27.3-19.8-41-29.8"/>
		<path class="st0" d="M654.5,339.2c-1.8-3-4.7-6.3-5.2-8.9c-3.5-20.7-17.6-33.7-32.5-46.2"/>
		<path class="st0" d="M749.7,372.3c-9.2-14.9-25.2-23.5-35.4-37.5"/>
		<path class="st0" d="M488.5,202.6c14.9-2.1,27.3,4.8,39.8,11"/>
		<path class="st0" d="M526.1,201.5c-11.4-10.7-18.8-24.5-28.8-36.4"/>
		<path class="st0" d="M676.6,352.5c-5.2-12.9-10.8-25.4-26.6-28.7"/>
		<path class="st0" d="M605.8,317.2c-7.5-10.2-11.3-22.3-17.7-33.1"/>
		<path class="st0" d="M568.2,259.9c-7.4-10.3-14.8-20.6-22.1-30.9"/>
		<path class="st0" d="M485.2,513.4c-2.2-3.7-4.5-7.3-6.6-11c-11.6-19.7-11.5-21.8,2.2-38.6"/>
		<path class="st0" d="M492.9,576.2c9.6,3.7,19.4,6,29.9,5.6c9.5-0.4,18.1,2.5,25.5,8.7"/>
		<path class="st0" d="M366.2,64.8c-4.1-1.9-8.2-2.7-12.7-1.1c-6.8,2.4-12.8,1.3-16.5-4.3c-3.4-7.4,5.2-13.6,1.1-21.1"/>
		<path class="st0" d="M616.9,72.5c-8.8-8.1-17.7-16.2-26.6-24.2"/>
		<path class="st0" d="M424.3,661.1c17.1,4.1,21-4.6,20-17.6c-0.2-2.9-1.4-6.1,1-8.8"/>
		<path class="st0" d="M547.1,592.8c-4.3,2-8.9,1-13.3,1c-7.8,0.1-15.5-2.8-23.2,0.1"/>
		<path class="st0" d="M681.1,339.2c-2.3-6-6.9-11-7.8-17.6"/>
		<path class="st0" d="M580.3,516.7c-6.8,1.1-9.4-5.4-14.4-7.7"/>
		<path class="st0" d="M470.8,140.8c-3.9-0.3-4.3-6.3-8.9-5.5"/>
	</g>
</g>
</svg>
