<?xml version="1.0" encoding="UTF-8"?>
<svg id="Calque_2" data-name="Calque 2" xmlns="http://www.w3.org/2000/svg" viewBox="0 0 943.32 769.25">
  <defs>
    <style>
      .cls-1 {
        fill: none;
        stroke: #e5794a;
        stroke-linecap: round;
        stroke-linejoin: round;
        stroke-width: 3px;
      }
    </style>
  </defs>
  <g id="Gert_Ausloos" data-name="Gert Ausloos">
    <g>
      <path class="cls-1" d="M439.56,230.53c-10.1-3.26-19.86-8.31-31.07-3.49-2.8,1.2-6.98,1.18-9.81,0-10.56-4.4-20.37.34-29.82,2.88-6.17,1.66-11.68,3.31-17.84,1.68-13.41-3.54-26.98-1.72-39.73,1.58-10.71,2.77-21.6,5.06-32.29,8.1-23.81,6.77-44.63-1.18-61.69-17.6-11.32-10.9-21.68-22.13-36.59-28.76-9.83-4.37-12.95-15.25-15.53-25.06-4.6-17.51-16.06-28.87-32.29-35.02-13.63-5.17-21.59-14.82-25.2-27.82-8.21-29.63-29.58-46.56-55.55-59.38-2.22-1.1-5.12-.83-7.7-1.2"/>
      <path class="cls-1" d="M941.82,162.13c-22.25-12.5-48.25-16.5-73.25-15.5-19,1-37,5-54,15-1,1-2,3-2.05,4.97"/>
      <path class="cls-1" d="M792.6,426.73c5.98,1.41,11.02-1.7,15.8-4.87,5.26-3.48,10.71-6.68,15.99-10.13,10.7-7,21.1-14.45,31.17-22.34,19.78-15.5,38.22-32.68,55.1-51.29,9.64-10.63,18.78-21.71,27.39-33.19"/>
      <path class="cls-1" d="M745.01,448.77c-2.44-10.17,4.45-16.57,10.06-23.06,13.05-15.1,27.62-27.65,46.06-37.09,21.11-10.8,35.23-30.37,46.84-51.16,12.83-22.95,26.34-45.4,32.28-71.62,5.27-23.25-1.41-41.38-22.38-52.92-24.43-13.44-50.21-21.88-78.51-17.36-4.79.76-7.57-1.09-11.12-2.52"/>
      <path class="cls-1" d="M479.4,231.63c-5.83-1-12.83-2-18.83-4-19-7-38-14-58-17-15-1-30,1-44,5-28-3-55-8-81-20-31-5-55-25-82-42-4-3-6-8-9-12-5-10-8-19-15-28-6-8-15-12-22-19-2-2-3-4-4-6-2-9-5-16-10-23-6-8-15-12-22-19-5-6-8-12-12-19-3-7-3-14-5.53-21.07"/>
      <path class="cls-1" d="M717.34,475.23c-11.72-1.05-20.9,5.31-29.72,11.26-6.05,4.09-11.43,9.18-17.79,13.11-16.77,10.38-27.18,26.07-34.33,43.98-7.75,19.41-22.6,31.38-41.05,39.55-4.66,2.06-8.54,4.15-11.09,8.89-13.72,25.48-35.14,42.9-60.9,54.92-11.24,5.24-20.53,12.27-28.63,21.21-9.87,10.89-22.63,17.97-34.41,26.33-3.07,2.18-6.71,4.56-11,2.3"/>
      <path class="cls-1" d="M645.41,500.58c17.13-10.27,27.62-27.74,43.23-39.59,8.85-6.73,18.01-13.22,27.69-18.67,13.84-7.79,24-18.91,31.9-32.18,5.77-9.71,14.44-16.61,22.41-24.01,13.83-12.83,21.54-28.54,25.21-46.49,3.12-15.22,11.71-29.03,11.2-45.18-.4-12.78-1.19-23.39-11.37-34.93-13.81-15.66-32.79-18.77-48.46-29"/>
      <path class="cls-1" d="M935.9,214.72c-5.33-18.09-20.33-31.09-36.33-38.09-28-13-59-10-89-8-11,0-22,5-29.04,14.5"/>
      <path class="cls-1" d="M891.1,341.86c14.86-18.69,30.54-36.6,39.76-58.93,2.73-6.62,5.26-13.33,7.14-20.24"/>
      <path class="cls-1" d="M400.08,757.58c3.49-8.94,10.49-15.94,19.49-20.94,7-4,13-6,20-10,28-20,52-40,86-47,4-1,8-3,11-6,14-11,23-26,38-34,6-4,12-6,17-10,17-20,25-45,46-62,4-3,9-4,12.26-7.53"/>
      <path class="cls-1" d="M334.43,226.12c-7.85-3.49-15.85-7.49-23.85-9.49-24-3-48,3-71-7-2-1-4-2-7-3-19-9-32-25-44-43-8-11-18-18-27-28-8-9-13-18-20-28-3-4-6-7-9-10-24-22-45-43-66-68-5-7-9-16-10.1-24.86"/>
      <path class="cls-1" d="M565.73,712.21c18.39-7.55,30.29-21.28,36.39-39.72,5.09-15.37,14.59-27.31,26.81-37.29,2.85-2.33,5.58-4.57,6.41-7.89,4.04-16.14,15.73-24.74,30-30.81,15.47-6.58,31.32-12.98,41.87-26.62,10.89-14.09,19.21-29.65,19.06-48.36-.06-6.98.67-13.96,1.04-20.94"/>
      <path class="cls-1" d="M575.69,329.73c5.92,20.96-2.62,45.33-29.89,46.08-33.71.92-64.69-9.89-92.78-27.62-15.93-10.06-18.56-30.1-4.57-45.98,7.08-8.04,13.11-17.67,25.42-18.77"/>
      <path class="cls-1" d="M640.98,722.13c13.63,10.01,12.51,29.14,3.44,41.62"/>
      <path class="cls-1" d="M756.08,410.19c13.84-15.02,30.69-26.82,45.11-41.05,23.24-22.93,44.87-47.49,51.22-81.29,1.18-6.3,2.95-12.49,4.38-18.75,4.65-20.36-1.52-33.46-19.85-44.19-8.7-5.09-17.56-8.43-27.73-7.61-9.61.77-18.37-2.26-26.5-6.73-7.09-3.9-14.21-5.02-22.21-4.44-12.57.91-25.4-2.47-37.7,3.28-3.31,1.55-6.46,2.82-8.77,5.68"/>
      <path class="cls-1" d="M671.97,445.47c4.59-5.33,8.59-10.97,14.16-15.7,8.69-7.37,14.11-17.62,17.86-28.42,2.1-6.04,4.04-12.07,8.94-16.49,7.28-6.56,8.97-15.07,8.83-24.27-.17-11.6.42-23.12,4.44-34.17,6.03-16.55,2.74-31.05-7.56-45.34-12.3-17.05-27.92-31.27-39.98-48.4-5.63-7.99-14.7-7.22-22.27-8.31-8.1-1.16-15.77-2.84-23.16-6.01-15.76-6.76-31.55-2.41-47.63-1.64-16.05.77-32.8,7.08-48.67-1.63"/>
      <path class="cls-1" d="M359.88,282.33c-1.41,15.44-12.76,23.92-23.23,33.08-12.69,11.1-28.31,13.9-44.25,16.68-18.28,3.18-36.04,1.49-53.09-4.75-25.05-9.16-43.38-25.77-52.05-51.64-.22-.66-.26-1.56,0-2.18,10.14-23.2-10.69-32.44-21.16-46.23-2.63-3.46-6.54-5.95-10.25-9.24-11.58,5.87-21.19-2.22-31.71-5.16-28.46-7.95-54.87-19.49-75.28-41.87-10.89-11.94-16.72-25.6-16.68-41.91.03-10.67-2.71-21.17-2.32-31.97.18-5.01.34-10.3,2.69-14.17,4.71-7.75,6.78-16.48,10.81-24.41"/>
      <path class="cls-1" d="M357.67,249.27c-6.27,1.1-12.52,2.33-18.82,3.28-16.16,2.44-32.99-.7-48.68,5.57-12.86,5.14-26.57,4.26-39.88,5.1-8.99.56-17.21-5.21-23.03-11.91-7.98-9.2-17.7-14.59-28.89-18.76-11.67-4.35-21.71-11.34-27.82-22.92-2.84-5.39-6.56-10.33-9.88-15.47"/>
      <path class="cls-1" d="M716.24,419.01c3.2-13.38,10.51-24.8,19-35.12,10.14-12.32,14.67-27.96,25.33-39.78,1.37-1.51,1.25-3.04.98-4.45-2.19-11.25-.54-22.18,2.21-33.1.52-2.07,1-5.12-.07-6.48-8.71-11.06-12.22-24.87-19.9-36.41-1.35-2.03-3.5-3.63-6.42-4.75-9.26-3.55-17.77-8.62-23.36-17.36-2.04-3.19-5.83-3.77-8.84-5.52"/>
      <path class="cls-1" d="M522.08,765.56c10.09-.02,20.55-.6,29.75-5.18,9.94-4.94,17.18-14.09,24.97-21.71"/>
      <path class="cls-1" d="M904.38,288.95c5.2-18.93,7.19-38.25,1.92-57.23-3.37-12.14-8.26-23.78-21.7-30.13-16.36-7.72-33.4-11.23-50.98-14.39-16.66-2.99-33.37,0-49.89-2.81-2.39-.41-5.92.53-7.59,2.18-9.61,9.48-24.03,7.89-34.44,15.3"/>
      <path class="cls-1" d="M600.5,767.75c7.75-5.07,14.44-10.9,19.19-18.95,4.8-8.13,6.41-16.67,8.21-25.78.95-4.82,2.36-9.88,6.45-13"/>
      <path class="cls-1" d="M341.07,621.83c-13.62-4.27-15.35-17.33-17.13-27.66-3.08-17.85-5.63-36.11,3.54-54.07,8.6-16.84,18.9-31.21,36.88-38.3,14.31-5.64,47.89-3.32,54.18,10.9"/>
      <path class="cls-1" d="M631.02,702.29c12.31,13.81,9.08,34.91,1.11,50.01-2.31,4.37-5.12,8.49-8.48,12.13"/>
      <path class="cls-1" d="M149.61,215.1c-12.16-11.53-27.8-16.01-43.17-20.91-22.48-7.17-41.67-18.98-51.74-40.94-7.08-15.44-8.64-32.52-10.61-49.44-1.2-10.27,2.79-21.38-4.04-30.91"/>
      <path class="cls-1" d="M474.98,291.15c0-1.1.07-2.21-.01-3.31-.5-7,5.66-14.08.48-20.88-6.78-8.9-16.4-14.71-27.08-16.26-13.49-1.96-26.85-5.67-40.93-3.87-10.52,1.35-20.35,3.31-28.76,10.12-4.19,3.39-8.63,4.87-14.41,3.49-9.36-2.24-16.34,4.26-23.08,8.84-39.47,26.83-79.01,19.63-118.41.65-5.45-2.63-11.52-5.39-15.72-10.68-4.51-5.69-10.54-4.78-16.51-2.28"/>
      <path class="cls-1" d="M379.8,650.49c-7.81-.5-11.29-5.74-14.48-12.08-11.81-23.49-13.17-48.47-10.87-73.89,1.39-15.35,23.5-32.63,41.95-32.97,13.36-.25,26.42,1.32,38.83,7.42,7.51,3.7,16.97,3.02,23.19,10.07,2.32,2.63,4.93,4.91,4.38,8.86"/>
      <path class="cls-1" d="M276.88,141.25c4.69-12.61,7.69-25.61,4.69-39.61-6-23-21-41-42-52-8-4-17-6-25-6-21-1-42-4-62,2-20-3-30-22-37.59-39.47"/>
      <path class="cls-1" d="M155.14,217.3c2.43-7.67-4.57-13.67-10.57-17.67-33-23-80-32-86-76-2-18,1-36-5-53-2-6-7-10-10-15-2-5-2-12-5-17C30.57,24.63,14.57,19.63,3.57,6.63c-1-1-1-3-2.07-3.61"/>
      <path class="cls-1" d="M372.05,262.49c1.6,9.34-5.63,15.06-11.35,18.24-10.47,5.81-19.09,13.33-27.34,21.49-17.63,17.46-38.83,21.53-63.14,21.41-33.81-.17-50.22-24.1-69.55-44.77-1.64-1.76-.91-5.72-1.28-8.66"/>
      <path class="cls-1" d="M393.08,656c-5.95,2.31-10.26.12-12.08-5.54-5.42-16.82-11.01-33.63-15.33-50.74-2.13-8.43-.69-17.64,8.7-21.76,5.67-2.49,6.06-6.27,6.64-11.23,1.86-15.78,9.76-23.2,25.33-21.82,14.33,1.28,28.61,4.03,42.08,9.68"/>
      <path class="cls-1" d="M403.04,708.9c11.68-10.75,16.41-25.03,13.89-39.6-3.09-17.92,2.6-30.22,12.87-44.81,9.99-14.19,21.94-22.83,36.3-30.26,10.31-5.34,18.55-13,24.37-23.11"/>
      <path class="cls-1" d="M256.96,187.54c-.77-10.57-12.77-11.26-17-19.64-6.13-12.13-16.55-21.07-29.45-26.72-8.58-3.76-15.01-11-18.51-18.82-11.08-24.81-30.27-43.08-47.92-62.68-4.38-4.87-6.1-10.25-3.32-16.54"/>
      <path class="cls-1" d="M284.63,176.52c0-2.2.82-4.87-.13-6.54-11.1-19.64-20.78-40.1-26.12-61.87-8.24-33.59-28.03-53.64-62.28-59.48-.42-.07-.74-.7-1.11-1.07"/>
      <path class="cls-1" d="M365.41,642.77c-18.14-4.84-22.6-19.52-25.42-35.28-1.31-7.31-2.73-14.66-3.27-22.05-1.97-27.28,8.05-49.25,29.72-66.23,7.72-6.05,16.82-6.22,25.55-7.46,22.78-3.23,47.69,9.71,56.42,28.5"/>
      <path class="cls-1" d="M548.02,694.58c-13.45,10.06-29.45,12.06-45.45,14.06-17,3-29,16-43,24-19,3-36,13-49.2,28.24"/>
      <path class="cls-1" d="M567.94,681.35c2.21-1.47,5.32-2.43,6.5-4.49,11.22-19.55,29.71-33.75,39.95-53.95,10.86-21.43,27.31-36.75,49.87-45.07,12.4-4.57,20.84-13.44,28.74-23.25"/>
      <path class="cls-1" d="M639.88,189.74c-7.75,1.1-15.59,1.77-23.21,3.43-7.09,1.54-13.58,1.09-19.95-2.32-10.03-5.36-19.28-2.58-28.82,2.09-21.93,10.74-45.86,11.9-69.67,13.33"/>
      <path class="cls-1" d="M391.97,653.79c-6.07-13.76-13.52-27.01-12.34-43,.52-7.02,3.5-12.08,9.1-15.28,5.95-3.4,9.23-8.77,10.7-14.54,1.73-6.78,1.83-15.18,8.23-18.26,7.91-3.8,17.38-4.93,26.33-3.51,5.71.91,11.14,1.39,16.62-.27,2.49-.75.97-2.15.02-3.25"/>
      <path class="cls-1" d="M563.51,522.62c4.04-8.01,7.37-16.06,7.94-25.34.65-10.65,5.12-20.08,13.09-27.57,6.27-5.88,12.27-12.09,18.88-17.56,9.2-7.61,14.16-17.83,16.22-28.8,2.29-12.16,6.12-23.17,13.47-33.1.88-1.19.12-3.59.12-5.42"/>
      <path class="cls-1" d="M379.8,172.11c-10.57,26.19-55.13,39.21-78.7,17.78-7.55-6.87-16.4-10.79-27.29-13.32-10.99-2.56-21.21-12.44-27.83-23.25-8.38-13.67-19.18-24.98-32.24-34.03-13.08-9.07-22.36-21.27-30.96-34.24-2.76-4.17-5.25-8.82-8.95-12-8.19-7.05-13.95-15.48-17.58-25.5"/>
      <path class="cls-1" d="M680.82,432.24c-.03-12.16,2.14-23.92,8.94-34.11,18.17-27.24,10.25-53.85-1.19-80.52-12.45-6.89-15.27-21.74-24.69-30.5-14.46-13.45-47.05-20.45-67.22-5.94-2.38,1.71-4.88,3.03-6.63,5.55-5,7.18-9.87,13.69-18.46,18.24-8.4,4.45-11.62,15.44-16.84,23.71-7.1,11.25-16.81,15.54-29.96,13.28-7.65-1.31-15.55,1.27-23.28-2.18-15.33-6.84-23.48-17.96-21.7-34.25.6-5.43-1.12-8.52-3.7-12.17"/>
      <path class="cls-1" d="M437.81,763.19c11.76-4.56,23.76-8.56,35.76-13.56,8-4,15-9,24-8,16,0,31,1,45-8,6-5,11-10,16.51-14.81"/>
      <path class="cls-1" d="M698.53,441.06c6.68-8.16,11.13-18.64,23.21-21.09,2.06-.42,4.35-2.42,5.47-4.32,11.01-18.73,27.82-32.66,41.11-49.5,9.04-11.45,13.49-24.04,12.14-38.63-.7-7.6,3.06-14.11,5.48-20.95,3.12-8.84,1.69-17.42-4.55-24.09-6.29-6.72-11.97-13.83-17.59-21.06-4.13-5.33-12.72-5.45-16.08-9.27-12.52-14.26-28.72-20.57-45.79-26.24-2.19-.73-5.3-3.17-4.5-6.95"/>
      <path class="cls-1" d="M254.74,144.55c-11.62-32.09-20.56-65.84-55.29-82.76-12.35-6.02-25.41-7.77-38.78-8.73"/>
      <path class="cls-1" d="M347.56,759.19c8.01-6.56,18.01-9.56,28.01-13.56,22-10,30-37,26-60-2-21-13-42-5-62,5-10,15-16,20-26,3-5,4-10,8-15,11-14,30-8,46-10,2,0,4-2,5.51-2.61"/>
      <path class="cls-1" d="M656.48,222.81c-8.75-19.13-23.05-25.53-42.05-18.72-9.5,3.41-18.91,3.27-28.81,1.25-17.39-3.54-33.85-.49-48.66,9.75"/>
      <path class="cls-1" d="M603.35,274.62c-9.75-8.88-20.57-3.13-30.98-2.15-9.64.91-18.89,3.97-27.6,7.83-15.83,7.01-28.89.24-42.12-6.8-6.94-3.7-13.19-9.94-22.14-5.49"/>
      <path class="cls-1" d="M73.25,33.22c4.33-7.59-.67-17.59.98-26.9"/>
      <path class="cls-1" d="M741.69,511.6c17.45,8.42,23.91,24.02,16.55,40.76-3.55,8.08-7.7,15.84-14.3,22.11-14.79,14.07-30.52,26.79-48.65,36.49-3.54,1.9-5.99,2.83-8.94-.16"/>
      <path class="cls-1" d="M519.25,577.74c-16.21,11.53-34.95,18.71-51.17,30.51-11.34,8.25-15.64,19.32-19.58,31.24-2.2,6.67-4.53,12.87-8.6,18.94-5.53,8.23-10.12,17.32-12.64,27.3-3.35,13.28-9.81,24.44-24.22,28.69"/>
      <path class="cls-1" d="M588.97,284.54c-9.37-2.14-14.87.27-20.49,9.58-7.14,11.83-16.09,23.27-27.16,32.23-12.48,10.09-37.44.63-44.17-16.47-2.42-6.16-4.71-12.41-6.6-18.75-1.78-5.97-5.27-10.04-11.14-12.1"/>
      <path class="cls-1" d="M665.33,430.04c8.69-6.91,6.84-17.61,8.38-26.53,1.7-9.84,4.95-18.32,10.39-26.4,5.5-8.17,8.48-15.94,3.8-26.61-5.04-11.5-6.63-24.49-7.08-37.29"/>
      <path class="cls-1" d="M577.9,303.28c1.38,23.11-7.91,41.74-24.38,57.29-3.64,3.44-8.13,5.42-13.24,4.4-18.96-3.79-38.73-3.83-56.55-12.98-4.14-2.13-8.07-4.51-12.07-6.81"/>
      <path class="cls-1" d="M676.4,261.39c-8.16-2.06-13.69-8.57-20.97-12.23-28.1-14.13-56.69-12.16-86.49-5.94-15.62,3.26-31.9,8.98-48.65,2.93-5.48-1.98-11.83-2.73-17.62-.14-11.91,5.33-23.67,3.11-34.2-2.48-16.23-8.62-34.18-5.91-50.98-9.89-10.19-2.42-19.16,2.62-28.82,2.41"/>
      <path class="cls-1" d="M127.47,169.9c-28.93-11.33-46.6-31.51-51.05-62.81-1.87-13.2-7.51-24.81-19.78-31.98"/>
      <path class="cls-1" d="M665.33,273.52c-18.1-16.01-40.68-16.89-63.07-18.84-13.84-1.21-27.66-4.86-40.96,2.31-14.39-7.3-28.78,6.13-43.16,0-7.53-3.21-16.81-1.21-23.24-7.71"/>
      <path class="cls-1" d="M304.55,306.58c-24.63,5.83-47.15-.58-68.55-12.24-6.44-3.5-12.98-7.13-17.82-13.08-6.97-8.57-18.01-11.27-26.51-17.67"/>
      <path class="cls-1" d="M778.21,427.83c-.89-5.04,2.42-7.89,5.5-11.06,8.88-9.13,19.48-15.99,29.9-23.14,21.94-15.06,41.89-32.28,57.57-53.98"/>
      <path class="cls-1" d="M368.73,195.26c4.43,4.82,9.76.83,13.13-.41,17.8-6.56,32.61-2.8,46.74,9.1,12.71,10.71,51.53,15.39,64.75,4.02,10.58-9.11,20.49-20.58,31.95-27.27,16.23-9.49,32.05-26.28,52.43-22.05,14.73,3.06,32.04-1.27,44.45,11.26,2.86,2.89,6.5,2.12,9.96,2.2"/>
      <path class="cls-1" d="M277.99,175.42c-8.3-11.11-19.77-20.46-26.79-31.42-14.47-22.58-38.84-35.34-52.34-58.64-6.8-11.74-19.05-20.55-30.43-28.98"/>
      <path class="cls-1" d="M797.03,369.41c-2.76-4.08.77-6.68,2.13-9.95,7.91-19.04,15.65-38.15,23.22-57.32,1.05-2.67.87-5.84,1.19-8.78.78-6.98-1.74-13.76-.38-21.01.93-4.92-.94-11.11-6.3-14.18-5.59-3.21-9.86-7.79-14.34-12.2-3.09-3.04-7.06-5.09-11.08-5.32-7.69-.44-13.78-4.11-19.89-7.93-7.51-4.7-14.91-8.28-24.42-5.67-6.53,1.79-13.06-1.92-18.61-4.53-13.59-6.39-27.04-6.89-41.1-2.99"/>
      <path class="cls-1" d="M612.21,727.64c6.97-8.18,9.94-18.62,15.71-27.42,2.03-3.09-.13-4.91-.49-6.7-3.9-19.39.65-36.93,11.47-52.87,5.88-8.67,15.39-14.28,24.39-18.45,22.75-10.53,40.24-27.11,57.37-44.47"/>
      <path class="cls-1" d="M413,721.03c3.69-4.04,7.18-8.29,11.1-12.09,12.38-11.98,21.61-25.26,24.83-42.93,1.27-6.95,5.25-14.86,11.7-19.88,7.3-5.68,13.05-13.57,15.98-21.22,6.54-17.05,22.49-18.03,35.06-21.11,24.48-6,46.56-13.59,60.73-35.97,7.8-12.33,14.96-25.09,24.31-36.4"/>
      <path class="cls-1" d="M318.14,762.09c-9.57-9.45-19.57-18.45-25.57-30.45-3-6,0-14,7-14,16,0,27,13,42,16,1,0,3-1,3.92-1.58"/>
      <path class="cls-1" d="M281.3,749.69c-1.48.37-3.37,1.51-4.36.99-16.06-8.51-28.06-21.22-32.98-38.54-5.75-20.26,9.57-37.62,30.7-37.49,17.05.11,29.95,7.72,41.07,19.82,2.42,2.63,1.85,5.12,2.09,7.83"/>
      <path class="cls-1" d="M621.06,463.1c6.25-17.21,22.06-30.27,21.4-50.72-.15-4.72,6.16-8.78,8.13-13.36,3.97-9.23,7.31-19.17,3.67-29.61"/>
      <path class="cls-1" d="M707.38,292.25c-9.89-6.11-17.54-14.9-26.59-22.01-2.26-1.77-2.91-4.31-3.2-6.66-2.4-19.69-17.93-28.7-38.78-33.28-16.96-3.72-33.23,2.18-49.85,1.29-9.97-.54-20.39.17-29.78-2.52-16.8-4.82-31.56.1-46.58,5.86-10.68,4.1-21.2,6.02-30.99-2.21"/>
      <path class="cls-1" d="M33.18,1.91c-.15,6.8-.73,13.6-1.99,20.3"/>
      <path class="cls-1" d="M23.44,18.9c-.97-5.81-2.07-11.6-3.16-17.4"/>
      <path class="cls-1" d="M310.54,763.13c-6.65-2.58-14.1-4.7-20.13-8.57-4.59-2.95-8.31-7.21-11.39-11.66-5.93-8.59-11.31-20.38-9.84-31.1,1.71-12.45,15.05-15.69,25.72-14.81,14.22,1.18,25.82,9.08,36.08,18.44,6,5.48,11.42,11.5,16.28,18.01,4.69,6.28,11.09,9.82,18.15,12.94"/>
      <path class="cls-1" d="M570.15,588.76c4.07-7.81,12.54-10.29,18.8-15.45,18.16-15,33.31-32.49,42.99-54.07,2.39-5.33,6.36-9.31,9.04-14.25"/>
      <path class="cls-1" d="M556.87,258.08c-12.86,9.51-26.25,12.16-42.17,6.96-13.7-4.48-28.17-6.76-41.97-11.28-1.3-.43-3.29-.8-4.4,1.02"/>
      <path class="cls-1" d="M652.05,427.83c4.98-21.45,14.63-41.9,16.23-63.96,1.09-15,1.32-30.12,2.53-45.17.28-3.46.36-6.87,2.27-9.92"/>
      <path class="cls-1" d="M21.23,11.18c-2.71-2.18-4.84-4.99-6.51-8.02"/>
      <path class="cls-1" d="M542.49,503.89c2.33-6.88,1.41-14.03.94-20.93-1.29-19.23,9.36-31.65,23.6-41.63,3.76-2.63,6.83-4.21,6.45-9.09"/>
      <path class="cls-1" d="M419.64,734.26c.69-11.42,8.12-19.35,15.76-26.16,5.8-5.17,11.42-10,15.27-16.81,4.23-7.47,10.78-13.66,17.85-17.3,19.16-9.85,31.22-25.75,41.87-43.35"/>
      <path class="cls-1" d="M570.15,454.28c-7.88,10.86-10.58,23.22-11.13,36.37-.54,12.79-3.23,24.93-13.22,34.17"/>
      <path class="cls-1" d="M446.2,208.48c-2.58-3.67-5.89-7.05-7.59-11.09-3.14-7.49-4.27-15.41-.14-23.07,4.31-8,7.3-16.38,8.89-25.35,2.17-12.29-2.77-17.91-15.54-16.48-11.46,1.28-22.49,4.67-33.11,8.99-2.67,1.09-5.05,1.96-7.84,1.97"/>
      <path class="cls-1" d="M452.84,560.1c8.9-1.6,16.68.76,24.45,5.35,8.05,4.75,16.63,5.06,25.41.26,16.05-8.78,32.17-17.91,39.38-35.53,3.26-7.96,3.79-17.61-1.68-26.36-7.24-11.58-15.29-22.83-18.94-36.3-2.82-10.4-.71-20.01,6.8-27.4,7.31-7.19,16.49-9.48,26.41-4.56"/>
      <path class="cls-1" d="M691.89,524.83c7.62-9.87,13.05-21.1,19.53-31.52,6.65-10.69,10.56-23.25,22.06-31.91,11.1-8.37,22.61-16.27,33.71-24.68,5.48-4.15,11.22-8.32,18.76-7.77,5.62.41,5.94-5.18,8.73-7.85,10.41-9.92,23.06-16.77,34.71-24.83,9.81-6.78,19.35-13.76,28.5-21.34"/>
      <path class="cls-1" d="M561.3,560.1c18.26-16.84,31.74-37.26,44.35-58.37,1.97-3.3,5.08-5.93,7.66-8.87"/>
      <path class="cls-1" d="M574.58,449.88c4.78-1.44,7.35-5.86,11.96-8.14,12.81-6.34,21.48-17.58,24.21-31.6,1.57-8.07,9.14-12.09,10.31-19.77"/>
      <path class="cls-1" d="M253.64,727.64c.62-14.08,2.55-27.72,14.41-37.45,8.36-6.85,18.96-5.92,28.75-7.74"/>
      <path class="cls-1" d="M570.15,285.64c-7.04-3.24-13.14.54-18.73,3.46-21.32,11.13-39.32,4.69-55.23-10.27-5.5-5.17-10.93-7.04-17.89-6.42"/>
      <path class="cls-1" d="M710.7,344.06c-8.1-6.97-9.63-16.92-12.21-26.44-3.51-12.91-7.26-25.77-17.67-35.28"/>
      <path class="cls-1" d="M635.45,180.93c-9.83,4.31-17.87-1.49-25.25-5.86-6.12-3.62-11.97-2.25-17.82-3.43-16.43-3.3-26.07,6.28-38.09,14.24-11.11,7.35-25.58,8.58-39.47,7.17"/>
      <path class="cls-1" d="M695.21,552.39c15.66-12.87,19.37-31.06,22.04-49.61.55-3.85.72-7.31,5.62-7.7"/>
      <path class="cls-1" d="M435.14,190.85c-3.8-.19-7.89,2.3-11.12-2.16-8.91-12.28-21.22-9.78-33.09-6.45-5.14,1.44-9.65,3.53-14.44-.2"/>
      <path class="cls-1" d="M698.53,231.63c-4.98-2.66-10.78-4.22-12.33-10.99-.46-1.99-2.95-2.76-5.34-3.48-24.54-7.4-39.08-23.55-46.92-48.23-9.58-30.16-43.14-42.52-63.79-26.58"/>
      <path class="cls-1" d="M379.8,167.7c-.72-15.88,8.89-26.53,20.12-35.01,12.05-9.09,26.49-13.66,41.85-14.63,7.36-.47,13.87.46,17.71,7.76,3.75,7.12,2.63,13.52-2.11,19.92-2.57,3.47-3.7,8.1-8.96,8.74"/>
      <path class="cls-1" d="M623.28,154.47c-16.83-7.94-36.16-2.66-53.12-9.92"/>
      <path class="cls-1" d="M429.6,176.52c-8.96-16.97-19.17-19.47-34.2-7.58-5.22,4.13-9.9,5.08-15.85,2.36,6.69-4.42,13.57-7.99,17.96-14.62"/>
      <path class="cls-1" d="M530.31,481.84c-3.27-23.24,9.79-37.3,27.76-48.36,2.3-1.42,5.82-.81,8.76-1.26,15.27-2.35,26.71-9.54,33.36-24.17,4.47-9.83,11.8-16.67,23-20.17,18.7-5.85,32.28-18.51,41.03-36.11"/>
      <path class="cls-1" d="M710.7,383.74c-2.18-7.35-.53-14.66-.18-22.05.56-11.73,2.03-23.33.6-35.31-1.38-11.56,1.53-23.31-1.08-35.32-1.75-8.06-4.46-15.84-10.7-19.22-6.69-3.63-12.62-9.48-20.74-10.44"/>
      <path class="cls-1" d="M733.94,562.31c10.37-15.06,8.77-31.59,6.96-48.53-.67-6.31-4.59-10.38-8.23-11.63-8.31-2.85-9.77-9.83-13.12-15.89"/>
      <path class="cls-1" d="M541.38,308.79c-15.34,8.84-24.46,4.41-30.92-5.55-3.5-5.4-7.53-10.71-7.81-17.59"/>
      <path class="cls-1" d="M587.86,732.05c16.47-7.23,25.25-21.47,33.08-36.44,1.2-2.3.39-5.75,4.55-5.45"/>
      <path class="cls-1" d="M532.53,173.21c5.39-13.94,18.41-19.33,29.87-26.47,2.12-1.32,4.07-2.92,6.1-4.39"/>
      <path class="cls-1" d="M322.25,295.56c13.65-9.92,27.3-19.84,40.95-29.76"/>
      <path class="cls-1" d="M605.57,522.62c14.89-12.55,28.93-25.53,32.46-46.23.44-2.59,3.41-5.89,5.17-8.88"/>
      <path class="cls-1" d="M702.96,471.92c10.19-14,26.2-22.55,35.41-37.48"/>
      <path class="cls-1" d="M517.03,593.17c-12.56,6.24-24.95,13.11-39.84,11.02"/>
      <path class="cls-1" d="M486.04,641.67c9.92-11.87,17.33-25.7,28.77-36.37"/>
      <path class="cls-1" d="M638.77,482.94c15.74-3.23,21.32-15.79,26.56-28.66"/>
      <path class="cls-1" d="M576.79,522.62c6.42-10.75,10.22-22.89,17.71-33.07"/>
      <path class="cls-1" d="M534.74,577.74c7.38-10.29,14.76-20.58,22.13-30.86"/>
      <path class="cls-1" d="M469.44,342.96c-13.73-16.79-13.86-18.88-2.21-38.58,2.18-3.69,4.42-7.35,6.64-11.03"/>
      <path class="cls-1" d="M536.95,216.2c-7.34,6.21-15.97,9.08-25.45,8.73-10.45-.38-20.27,1.9-29.88,5.6"/>
      <path class="cls-1" d="M327.56,761.56c-1.52-6.77-5.82-13.86,2.41-18.26,3.37-1.8,7.28-1.6,10.86-.61,5.08,1.4,9.17,1.55,14.07-.72"/>
      <path class="cls-1" d="M579.01,758.51c8.85-8.08,17.71-16.17,26.56-24.25"/>
      <path class="cls-1" d="M434.03,172.11c-2.34-2.69-1.19-5.95-.99-8.81.92-13.07-2.97-21.75-20.04-17.64"/>
      <path class="cls-1" d="M499.32,212.89c7.75,2.91,15.49,0,23.24.06,4.43.03,8.99-.94,13.28,1.05"/>
      <path class="cls-1" d="M662.01,485.15c.89-6.62,5.41-11.65,7.75-17.64"/>
      <path class="cls-1" d="M554.66,297.77c4.95-2.29,7.63-8.77,14.39-7.72"/>
      <path class="cls-1" d="M450.63,671.43c4.58.76,4.92-5.24,8.85-5.51"/>
    </g>
  </g>
</svg>