<?xml version="1.0" encoding="UTF-8"?>
<svg id="Layer_2" data-name="Layer 2" xmlns="http://www.w3.org/2000/svg" viewBox="0 0 265.68 424.72">
  <defs>
    <style>
      .cls-1 {
        fill: none;
        stroke: #e57221;
        stroke-linecap: round;
        stroke-linejoin: round;
        stroke-width: 9px;
      }
    </style>
  </defs>
  <g id="Layer_1-2" data-name="Layer 1">
    <g id="homepage">
      <g id="viFNLi">
        <g>
          <path class="cls-1" d="M67.67,141.7c-7,3-23,10-37.86,28.94-13.18,16.81-40.58,88.41-14.35,133.23,23.17,39.59,82.79,82.99,89.8,116.34"/>
          <path class="cls-1" d="M123.67,284.7C201.52,245.96,230.67,57.7,251.45,6.74"/>
          <path class="cls-1" d="M103.21,114.84c-22.02,50.34-20.89,151.58,14.16,174.48"/>
          <path class="cls-1" d="M121,284.33c25.89-37.64,57.66-159.63,35.66-216.63"/>
          <path class="cls-1" d="M105.24,420.22c-2.79-15.15-2.07-46.87-5.11-63.47-5.46-39.05,17.54-50.05,17.54-67.05"/>
          <path class="cls-1" d="M118.96,288.19c31.99,1.16,82.71-8.49,118.71-75.49s21-171,17-208"/>
          <path class="cls-1" d="M103.67,114.7c-70,37-76,116-57,164s29.78,51.09,53.4,80.49"/>
          <path class="cls-1" d="M103.21,114.84c25.31-39.19,74.55-55.32,109.3-82.57,12.67-9.92,24.51-20.93,41.7-27.77"/>
        </g>
      </g>
    </g>
  </g>
</svg>