<?xml version="1.0" encoding="UTF-8"?>
<svg id="Layer_2" data-name="Layer 2" xmlns="http://www.w3.org/2000/svg" viewBox="0 0 84.46 330.17">
  <defs>
    <style>
      .cls-1 {
        fill: none;
        stroke: #006837;
        stroke-linecap: round;
        stroke-linejoin: round;
        stroke-width: 3px;
      }
    </style>
  </defs>
  <g id="homepage">
    <g>
      <path class="cls-1" d="M79,86.67c.67,8.41-1.47,16.08-7.59,21.9-5.22,4.97-11.05,9.38-16.99,13.48-3.03,2.09-3.82,4.57-3.37,7.61"/>
      <path class="cls-1" d="M61,35.17c5.7,6.54,6.46,10.65,2.98,17.49-4.64,9.14-8.65,18.65-15.48,26.51-1.28,1.47-.97,3.27-1,5"/>
      <path class="cls-1" d="M64,41.17c-3.95,6.88-5.94,14.64-9.91,21.55-3.32,5.77-6.51,11.56-11.09,16.45"/>
      <path class="cls-1" d="M77.5,60.17c-3.18,1-3.45,4.36-4.86,6.59-6.98,11.06-15.68,20.3-26.64,27.41"/>
      <path class="cls-1" d="M53,27.67c6.33,1.96,8.65,5.82,6.46,11.49-4.49,11.65-8.12,23.8-17.93,32.55-.6.53-1.23,2.03-.95,2.4,2.26,3.01,1,7.17,3.42,10.06"/>
      <path class="cls-1" d="M57.5,31.17c-2.52,2.86-2.14,6.72-3.4,10.04-3.48,9.18-7.53,17.93-14.6,24.96"/>
      <path class="cls-1" d="M77,69.17c-7.15,8.65-13.75,17.82-23,24.5-2.37,1.71-4.53,3.78-7.5,4.5"/>
      <path class="cls-1" d="M22.5,3.17c7.54.08,9.29,1.4,9.98,8,1.09,10.47.67,20.85-2.48,31"/>
      <path class="cls-1" d="M82,76.17c2.83,4.48-1.29,8.25-3.25,9.65-4.47,3.18-6.99,7.79-10.78,11.32-5.99,5.57-11.41,11.87-18.97,15.54"/>
      <path class="cls-1" d="M38,16.17c4.03,4.73,9.66,7.34,14.73,10.83-2.33,12.2-7.85,22.62-15.23,32.17"/>
      <path class="cls-1" d="M27,4.67c1.65,5.59-.02,11.52,1.24,16.95,1.2,5.19.03,9.62-1.24,14.3"/>
      <path class="cls-1" d="M47,24.67c.63,11.03-5.48,19.74-10.04,28.98-.16.33-.96.35-1.46.52"/>
      <path class="cls-1" d="M33.5,8.67c3.78.93,3.91,4.24,3.91,7-.01,9.78-1.6,19.41-3.43,29-.2,1.02-1.68,1.66-.97,3"/>
      <path class="cls-1" d="M67.5,44.17c2.62,2.22,5.92,3.13,8.23,6.33,3.23,4.46,1.6,9.2,2.77,13.67,1.8,6.87-1.73,11.71-5.94,16.55-4.42,5.08-8.7,10.27-13.55,14.96-1.27,1.23-3.06,2.22-2.51,4.49"/>
      <path class="cls-1" d="M44,22.67c-2.49,2.89-2.24,6.7-2.81,10.03-.82,4.75-3.19,8.86-4.24,13.46-.46,2.03-1.96,2.75-3.95,1.51"/>
      <path class="cls-1" d="M80,71.17c2.23,1.29,3.55,2.41,1.07,5.07-3.62,3.9-6.6,8.39-10.11,12.4-5.13,5.86-10.85,11.15-17.99,14.48-4.88,2.27-6.24,5.6-4.5,10.56,1.02,2.94.17,6.41,2.53,8.99"/>
      <path class="cls-1" d="M17.5,2.17c1.86-1.29,3.99-.46,4.37,1.03,2.12,8.46,4.81,16.98,1.13,25.72"/>
      <path class="cls-1" d="M18.75,20.67c-3.02-1.84-4.34-4.67-5.32-7.98C11.59,6.48,8.15,4.07,1.5,3.67"/>
      <path class="cls-1" d="M71.5,47.67c-2.08,5.87-6.41,10.89-6.54,17.5-.01.67-.52,1.42-.97,1.99-3.97,5.02-7.91,10.08-12.02,14.98-1.66,1.98-4.81,1.86-6.46,4.03"/>
      <path class="cls-1" d="M77.5,92.17c-4.28,4.6-7.86,9.84-12.14,14.37-4.31,4.57-8.92,9.26-15.36,11.13"/>
      <path class="cls-1" d="M75,52.17c-3.23,4.29-3.96,10.4-9.5,13"/>
      <path class="cls-1" d="M11,4.17c3.96-3.92,5.82-3.63,6.93,1.52,1.02,4.74,2.74,9.45,1.16,14.51-.56,1.81.29,3.69,1.34,5.51,4.01,6.98,7.74,14.13,11.57,21.21"/>
      <path class="cls-1" d="M44.5,85.42c.94,5.05.55,10.24,1.87,15.28.5,1.91,1.31,3.23,2.63,4.47"/>
      <path class="cls-1" d="M33.5,48.67c-.6,2.7,1.29,4.68,2.03,6.99,1.74,5.45,3.64,10.84,5.47,16.26"/>
    </g>
  </g>
</svg>