<?xml version="1.0" encoding="UTF-8"?>
<svg id="Layer_2" data-name="Layer 2" xmlns="http://www.w3.org/2000/svg" viewBox="0 0 127.43 195.72">
  <defs>
    <style>
      .cls-1 {
        fill: none;
        stroke: #006837;
        stroke-linecap: round;
        stroke-linejoin: round;
        stroke-width: 3px;
      }
    </style>
  </defs>
  <g id="homepage">
    <g>
      <path class="cls-1" d="M48.31,83.75c.73,5.1-1.36,9.84-2.69,14.45"/>
      <path class="cls-1" d="M50.81,66.75c-4.27.29-7.6-1.09-10.62-4.39-2.17-2.38-5.03-4.65-8.88-4.14-.47.06-1.02-.25-1.49-.48-6.88-3.32-12.9-3.88-18.66,2.88-4.2,4.92-8.4,9.3-9.51,16.1-.66,4.07.95,5.59,4.17,6.5,4.09,1.15,8.05-.15,11.99-1,6.93-1.51,13.91-2.23,21.01-2,1.33.04,2.67-.3,4-.49.02,0,.04-.32,0-.48-.05-.18-.16-.34-.24-.5"/>
      <path class="cls-1" d="M96.81,1.75c1.59,11.48,4.33,22.9.62,34.54-.72,2.26-2.28,4.11-2.62,6.46"/>
      <path class="cls-1" d="M104.81,3.75c-1.78,2.63.54,4.97.58,7.5.1,6.49-1.18,12.73-2.51,19.02-.97,4.57-2.61,9.24-.55,14.12,1.55-5.47,5.31-9.76,6.2-15.61,1.01-6.67,2.1-13.37,3.28-20.03"/>
      <path class="cls-1" d="M41.31,77.75c-8.77-3.75-18-1.7-27-1.81-3.78-.05-7.67.03-11.5.31"/>
      <path class="cls-1" d="M89.81,4.75c1.48,9.27,3.49,18.47,2.1,28.01-.47,3.24.23,6.65.4,9.99"/>
      <path class="cls-1" d="M33.31,25.25c4.29,9.71,10.13,18.28,17.95,25.55,3.62,3.36,6.71,7.28,10.05,10.95"/>
      <path class="cls-1" d="M6.31,67.25c5.05,2.45,10.67,2.87,16.02,3.27,5.32.4,10.42,1.37,15.45,2.83,1.68.48,3.03.32,4.53-.1"/>
      <path class="cls-1" d="M11.81,61.75c5.5,3.51,12.06,3.84,18,6.01,4.92,1.8,10.22,1.96,14.66,5.81,4.16,3.6,8.12.94,8.34-4.82"/>
      <path class="cls-1" d="M18.31,54.75c1.33-6.17,2.04-12.56,4.15-18.45,3.11-8.68,9.97-13.88,18.88-15.91,1.86-.42,4.01.69,5.05,3.32,4.63,11.79,11.45,22.04,21.92,29.53"/>
      <path class="cls-1" d="M52.81,22.75c3.63,10.14,8.54,19.46,17.01,26.49,1.28,1.06,2.66,2.01,3.99,3.01"/>
      <path class="cls-1" d="M76.81,14.75c1.41,10.64,5.29,20.54,9,30.5"/>
      <path class="cls-1" d="M70.81,18.75c1.8,9.41,3.69,18.84,10.07,26.44,1.6,1.9.51,2.53-.57,3.56"/>
      <path class="cls-1" d="M64.81,20.25c2.35,7.28,4.92,14.46,9,21,.77,1.23,1.11,2.56,1,4"/>
      <path class="cls-1" d="M38.81,22.25c1.75,7.73,5.69,14.48,10.63,20.39,4.74,5.67,10.54,10.44,15.87,15.61"/>
      <path class="cls-1" d="M60.31,23.75c4.21,9.33,8.04,18.91,17.41,25-4.13,3.78-7.52,6.89-10.91,10"/>
      <path class="cls-1" d="M18.31,55.75c4.88,5.24,12.18,5.67,17.96,9.06,2.18,1.28,2.92-1.27,4.54-1.06"/>
      <path class="cls-1" d="M28.31,29.25c1.89,6.38,5.71,11.68,9.49,17.01,1.3,1.83,3.25,3.37,3.01,5.99"/>
      <path class="cls-1" d="M96.81,1.75c23.19,3,25.3,21.62,23.01,26.01-1.97,3.79-3.67,7.76-6.56,10.95-1.64,1.81-2.23,3.72-1.96,6.04"/>
      <path class="cls-1" d="M67.81,81.25c-6.89,4.94-13.94,2.98-21,.49-1.19-.42-2.34-.99-3.5-1.49"/>
      <path class="cls-1" d="M22.31,39.25c5.07,3.53,9.88,7.39,14.69,11.27,3.59,2.89,7.55,5.37,10.82,8.73,1.79,1.84,3.36,3.6,3.59,6.5.31,4.01,3.75,2.04,5.91,2.51"/>
      <path class="cls-1" d="M79.81,70.25c-5.02-3.85-11.28-4.48-17-6.5"/>
      <path class="cls-1" d="M122.31,23.25c3.64,4.42,4.04,9.79,3.35,14.98-.61,4.57-5.53,4.62-8.88,5.93-2.83,1.1-5.96,1.42-8.96,2.09"/>
      <path class="cls-1" d="M65.31,60.25c-3.02,2.18-3.9,6.36-8.03,8.17,6.07,2.08,12.58,1.31,17.53,5.33"/>
      <path class="cls-1" d="M80.31,50.75c5.02,3.41,11.23,4.87,15.5,9.5"/>
      <path class="cls-1" d="M71.31,56.75c4.9,2.7,10.49,3.99,15.02,7.47,2.16,1.66,3.62.03,4.98-1.47"/>
      <path class="cls-1" d="M82.31,47.25c6.69,1.83,12.37,5.43,17.5,10"/>
      <path class="cls-1" d="M81.81,66.75c-4.47-3.47-10.41-3.78-15-7"/>
      <path class="cls-1" d="M76.31,53.75c4.54,2.73,10.02,3.74,13.99,7.51,1.54,1.46,2.76,1.06,4.55.07,6.19-3.43,9.62-8.97,12.46-15.08"/>
      <path class="cls-1" d="M75.31,75.25c-.83.83-1.7,1.63-2.49,2.51-1.93,2.13-3.59,3.53-7.09,2.21-2.8-1.06-6.14-1.75-9.42-1.24-3,.47-4.43-1.26-5-3.98"/>
      <path class="cls-1" d="M20.31,48.75c4.03,2.01,7.84,4.36,11.57,6.89,1.1.75.74,1.37.93,2.11"/>
      <path class="cls-1" d="M91.81,45.75c3.94,2.11,7.32,5.35,12,6"/>
      <path class="cls-1" d="M54.31,72.75c5.61,2.31,11.76,1.47,17.49,3.02.55.15,1.01.64,1.51.98"/>
      <path class="cls-1" d="M96.81,1.75c-15.12-2.27-19.5,11.73-22.9,13.67-8.51,4.85-17.38,7.27-27.1,6.83"/>
      <path class="cls-1" d="M86.81,65.25c-4.31,2.21-7.64,5.63-11,9"/>
      <path class="cls-1" d="M84.31,47.5c3.67-2.9,7.55-5.53,12.46-3.65,1.59.61,2.71-.36,4.04-.1"/>
    </g>
  </g>
</svg>