<?xml version="1.0" encoding="UTF-8"?>
<svg id="Layer_2" data-name="Layer 2" xmlns="http://www.w3.org/2000/svg" viewBox="0 0 75.81 133.81">
  <defs>
    <style>
      .cls-1 {
        fill: none;
        stroke: #006837;
        stroke-linecap: round;
        stroke-linejoin: round;
        stroke-width: 3px;
      }
    </style>
  </defs>
  <g id="homepage">
    <g>
      <path class="cls-1" d="M45.68,16.45c-3.26-.51-6.26.74-8.96,2.08-12.22,6.07-24.47,12.21-32.07,24.4-.09.15-.64.02-.97.02"/>
      <path class="cls-1" d="M45.18,40.45c-1.64,3.43-5.12,4.63-8.02,6.47-12.79,8.08-21.7,19.75-29.98,32.03"/>
      <path class="cls-1" d="M73.68,29.95c1.2-4.45-.57-7.13-4.43-9.61-7.57-4.85-15.99-7-24.59-7.66-5.83-.45-11.79,2.16-16.88,4.96-6.68,3.67-13.62,7.22-19.13,12.78-.66.67-1.61,1.08-2.48,1.51-4.11,2.03-5.78,5.01-3.9,8.97,3.36,7.07,2.57,13.94.52,21.08-.47,1.62-1.38,3.64-.11,5.47"/>
      <path class="cls-1" d="M62.68,71.95c3.92-7.55,3.55-9.78-3.03-14.46-3.43-2.44-6.96-4.66-8.92-8.55-9.52-.46-15.48,6.02-21.42,11.64-7.23,6.85-14.22,14.15-18.63,23.37"/>
      <path class="cls-1" d="M71.18,20.95c.11-3.38-2.44-7.51-5.51-7.92-5.77-.77-10.78-4.81-17-3.65-2.02.38-3.06-1.92-4.41-3.02C37.31.76,29.76.57,21.67,2.93c-7.15,2.09-12.4,6.11-14.48,13.53-.98,3.5-4.2,6.37-3.01,10.5"/>
      <path class="cls-1" d="M45.68,20.45c-2.59.12-4.82,1.18-7.01,2.48-12.25,7.27-23.2,16.22-33.49,26.02"/>
      <path class="cls-1" d="M71.18,45.45c1.52-1.9,1.37-4.33,1.95-6.51.44-1.68-.08-2.95-1.89-4.08-3.72-2.33-6.44-6.02-10.55-7.93-6.29-2.92-11.76-3.78-18.66.26-13.7,8.01-25.55,17.86-35.77,29.83-.55.65-.86.93-1.58.93"/>
      <path class="cls-1" d="M32.18,41.95c-3-.55-4.91,1.55-6.98,3.03-8.74,6.29-15.15,14.88-21.92,23.06-2.31,2.8.5,6.11,1.57,8.84,1.04,2.65,3.49,4.73,5.33,7.07"/>
      <path class="cls-1" d="M40.18,4.95c-8.29,2.09-16.8,3.32-24.58,7.35-2.3,1.19-4.24,3.18-6.92,3.65"/>
      <path class="cls-1" d="M25.68,110.95c6.58-4.17,11.17-10.26,15.44-16.54,3.44-5.07,7.83-9.78,8.06-16.46-1.48-2.07-3.51-1.8-4.94-.43-2.37,2.28-5.12,4.25-6.59,7.42-3.66,7.9-10.11,13.43-16.47,19.01"/>
      <path class="cls-1" d="M46.18,79.95c-6.98,10.05-13.97,20.09-23.5,28"/>
      <path class="cls-1" d="M47.68,18.45c10.71-1.08,17.86,5.81,25.46,11.56,1.69,1.27,1.43,3.28.04,4.94"/>
      <path class="cls-1" d="M46.18,52.45c-.67.5-1.61.86-1.96,1.52-3.84,7.43-10.35,12.32-16.57,17.45-5.68,4.68-9.19,11.13-13.98,16.53"/>
      <path class="cls-1" d="M48.18,91.95c-2.4.81-2.62,3.13-3.5,5-2.22,4.75-5.91,8.32-9.47,12.03-1.79,1.87-4.29,3.2-5.04,5.97"/>
      <path class="cls-1" d="M71.68,41.95c-6.18-3.73-11.09-9.3-17.98-12.05-4.83-1.93-6.54-1.08-5.89,4.03.21,1.68.1,3.36.37,5.02"/>
      <path class="cls-1" d="M63.68,78.95c1.19-3.38,0-5.64-2.96-7.56-3.18-2.06-6.07-4.57-9.03-6.95-3.53-2.83-6.19-2.96-8.91.58-2.21,2.87-4.86,4.42-7.92,6.22-4.2,2.48-7.18,7.03-10.67,10.7-2.84,2.99-5.67,6-8.5,9"/>
      <path class="cls-1" d="M65.18,61.95c2.06-4.01,3.21-8.43,5.17-12.42,1.38-2.8.16-2.99-1.63-4.14-6.76-4.35-13.37-8.94-20.04-13.44"/>
      <path class="cls-1" d="M43.68,7.45c-10.48,3.61-21.3,6.18-30.63,12.82-3.15,2.24-5.63,5.13-8.81,7.27-1.55,1.04-1.34,3.15-.56,4.91"/>
      <path class="cls-1" d="M33.68,116.95c2.53-.25,3.36-2.65,4.97-4.03,2.91-2.5,8.77-3.58,11.47-1.4,2.82,2.27,3.04,5.73,1.98,8.91-1.28,3.81-.19,8.32-3.22,11.89-2.12-1.34-3.2-3.12-4.16-4.88-1.94-3.53-2.64-7.07.43-10.51,1.19-1.33,2.03-2.97,3.03-4.47"/>
      <path class="cls-1" d="M45.18,70.45c-4.32,2.2-8.73,4.63-10.84,9.08-1.4,2.95-1.94,6.19-4.06,9-3.05,4.03-6.33,7.53-11.09,9.43"/>
      <path class="cls-1" d="M32.68,80.95c-2.2.18-2.93,2.05-3.99,3.51-3.04,4.17-6.98,7.38-11.01,10.49"/>
      <path class="cls-1" d="M47.18,30.45c-5.63,2.44-11.44,4.66-14,11"/>
      <path class="cls-1" d="M47.18,49.95c-.04,5.72,5.31,7.72,8.17,11.37,1.96,2.51,5.5,3.8,8.33,5.63"/>
      <path class="cls-1" d="M49.68,77.95c4.67,6,9.33,12,14,18"/>
      <path class="cls-1" d="M54.68,44.45c5.83.58,9.8,4.75,14.5,7.5"/>
      <path class="cls-1" d="M49.18,68.95c3.63,2.55,6.57,5.84,10.9,7.73,4.03,1.75,4.6,5.94,4.98,10.74.64,8.12-3.39,14.21-5.9,21.02-1.26,3.42-4.35,3.84-7.47,4.01"/>
      <path class="cls-1" d="M49.18,89.45c-.17.17-.51.4-.47.49,2.65,6.95-.93,14.04.47,21.01"/>
      <path class="cls-1" d="M47.68,7.45c7.21-4.01,13.68-3.33,17.95,2.04.55.69.39,1.96.55,2.96"/>
      <path class="cls-1" d="M64.18,87.95c-3.28-2.66-4.7-8.11-10.5-7"/>
      <path class="cls-1" d="M61.18,100.95c-2.48-4.97-6.78-8.22-11.04-11.45-1.12-.85-1.25-2.08-1.96-3.05"/>
      <path class="cls-1" d="M59.18,105.45c-2.29-3.38-4.63-6.71-8.5-8.5"/>
      <path class="cls-1" d="M48.68,54.95c-1.11,5.47-.06,11.01-.5,16.5-.14,1.67-.33,3.33-.5,5"/>
      <path class="cls-1" d="M46.68,13.95c.2,3.33-.55,6.71.5,10"/>
    </g>
  </g>
</svg>