<?xml version="1.0" encoding="UTF-8"?>
<svg id="Layer_2" data-name="Layer 2" xmlns="http://www.w3.org/2000/svg" viewBox="0 0 100.3 107.52">
  <defs>
    <style>
      .cls-1 {
        fill: none;
        stroke: #006837;
        stroke-linecap: round;
        stroke-linejoin: round;
        stroke-width: 2px;
      }
    </style>
  </defs>
  <g id="homepage">
    <g id="knHR2N">
      <g>
        <path class="cls-1" d="M25.11,55.22c-1.65-1.96-3.31-3.91-4.94-5.87-2.42-2.9-3.26-6.49-4.05-10.02-.23-1.04.31-2.7,1.1-3.42,1.85-1.68,1.01-3.49.36-4.97-1.4-3.14-1.31-5.98.62-8.77.25-.37.15-.6.11-.96-.23-1.78.11-3.58-.19-5.39-.22-1.32.52-2.58,1.16-3.67.78-1.33.91-2.65.51-3.98-.57-1.9-.13-3.33,1.04-4.92,1.21-1.65,2.42-2.34,4.51-2.23,3.96.2,7.85.76,10.91,3.35,4.39,3.7,9.22,6.83,13.11,11.19,4.84,5.43,9.19,11.14,12.47,17.63,1.49,2.94,2.82,5.96,4.13,8.99,1.26,2.91,3,5.62,4.65,8.35,1.3,2.16,2.74,4.22,4.28,6.23,1.21,1.58.1,3.41-.1,5.12"/>
        <path class="cls-1" d="M20.16,8.58c3.4.52,6.48,2,9.61,3.31,6.64,2.79,12.19,7.16,17.59,11.87,5.22,4.56,8.69,10.22,11.44,16.38,2.31,5.2,5.23,9.97,8.92,14.28.57.67,1.25,1.27,2.12,1.57,1.68.56,2.52,1.63,2.35,3.5-.08.89.17,1.8.26,2.71"/>
        <path class="cls-1" d="M2.04,97.06c2.54.84,5.19.28,7.79.53,2.72.26,5.5-.22,8.25-.2,6.09.05,11.85-1.6,17.56-3.41,2.22-.7,4.18-2.1,5.89-3.61,4.18-3.69,8.78-6.9,12.36-11.28,1.75-2.14,4.04-3.83,6.08-5.73.46-.43.98-.7,1.61-.79,4.75-.74,6.67-3.74,6.6-8.31,0-.19.04-.38.06-.57"/>
        <path class="cls-1" d="M99.3,69.26c-16.21-11.97-26.46-6.82-29.65-6-.93.37-1.76.25-2.67-.25-1.86-1.02-3.79-1.23-5.89-.48-2.22.79-4.55.86-6.94.75-1.43-.07-3.23-.03-4.03,1.79-.23.52-.69.89-1.24,1.01-4.23.98-8.11,2.94-12.25,4.21-4.2,1.29-8.42,2.18-12.76,2.57-1.9.17-3.82.03-5.74,0-2.68-.04-5.35-.1-8.02-.15-.25,1.09-.54,2.08-.68,3.09-.1.76-.29,1.34-.96,1.83-1.64,1.21-2.05,3.06-2.01,4.94.02,1.21-.33,1.99-1.02,3.02-1.35,2.04-2.77,4.29-1.96,7.01.16.55.1.92-.33,1.32-1.11,1.03-1.2,2.58-1.86,3.85-1.15,2.22,1.43,5.17,3.64,4.74,2.43-.47,4.85.07,7.28.05,7.32-.06,14.61-.05,21.69-2.4,4.91-1.63,8.83-4.56,12.38-8.28,3.71-3.88,7.29-7.86,10.74-11.96.83-.98,1.33-2.21,2.42-3,.5-.36.99-.54,1.58-.4"/>
        <path class="cls-1" d="M19.1,13.25c2.46.85,5.16,1.05,7.39,2.5,4.38,2.85,9.08,5.17,13.32,8.24,2.37,1.72,4.75,3.43,7.13,5.14,2.19,1.58,4.04,3.6,5.46,5.79,2.87,4.43,5.67,8.91,7.9,13.74.93,2.01,2.43,3.79,3.81,5.56.45.58.41,1.03.37,1.61"/>
        <path class="cls-1" d="M21.08,3.31c.63.77,1.58.59,2.4.85,3.17.99,6.26,2.26,9.39,3.37,2.89,1.02,5.67,2.71,7.92,4.93,1.3,1.28,2.65,2.49,4.06,3.63,4.09,3.3,7.55,7.05,10.14,11.73,2.67,4.82,5.43,9.6,7.96,14.49,2.31,4.45,4.37,9.02,7.71,12.84.17.2.08.63.11.95"/>
        <path class="cls-1" d="M3.78,93.22c5.97.18,11.88-.52,17.76-1.44,7.36-1.15,14.44-3.28,20.61-7.52,2.32-1.59,4.73-3.28,6.6-5.54,1.79-2.16,4.55-3.23,6.31-5.47.37-.47.71-.86.7-1.47"/>
        <path class="cls-1" d="M3.75,102.78c.79,2.18,3.74,4,6.69,3.71,3.97-.4,7.92.12,11.88-.07,3.64-.17,7.26-.68,10.69-1.82,6.84-2.26,11.83-7.05,16.47-12.39,3.52-4.05,6.74-8.33,10.07-12.5,1.6-2.01,3.33-4.39,3.96-7.14"/>
        <path class="cls-1" d="M6.86,81.86c5.07.79,10.18.64,15.27.41,6.81-.31,12.9-2.77,18.85-6.01,4.85-2.63,9.49-5.61,14.39-8.14,1.77-.91,3.64-1.91,5.56-.21"/>
        <path class="cls-1" d="M4.76,87.38c3.08.83,6.22.38,9.34.44,2.59.05,5.13-.27,7.7-.36,3.32-.12,6.48-.91,9.56-1.96,6.43-2.18,12.08-5.77,17.34-10.03,1.75-1.41,3.56-3.26,5.58-3.66,2.11-.42,3.56-1.52,5.17-2.54,1.78-1.13,7.1-4.35,8.82-5.58"/>
        <path class="cls-1" d="M17.18,28.18c2.42.03,4.51,1.25,6.66,2.08,5.88,2.26,11.07,5.74,15.84,9.82,4.39,3.76,8.67,7.63,12.99,11.47,2.77,2.46,6.11,4.05,9.16,6.07,1.84,1.22,3.98,3.32,4.87,4.9"/>
        <path class="cls-1" d="M18.59,18.18c1.6.11,2.98.87,4.46,1.37,7.23,2.44,13.34,6.57,18.91,11.72,3.59,3.32,7.29,6.49,10.43,10.27,1.38,1.67,2.7,3.37,3.83,5.22,1.06,1.74,2.02,3.52,3.51,4.96,1.04,1,.97,2.85,2.53,3.48.33.13.46.47.9.52,3.1.33,3.81,2.51,3.88,5.16.02.65.12,1.29.18,1.93"/>
        <path class="cls-1" d="M9.47,76.96c4.32.58,8.67.56,12.99.16,10.08-.93,19.54-3.88,28.15-9.32.39-.24.79-.55,1.22-.62,1.99-.36,3.06-1.56,3.42-3.5"/>
        <path class="cls-1" d="M18.56,22.19c2.71.98,5.44,1.89,8.11,2.97,1.63.66,3.35,1.34,4.71,2.41,6.83,5.37,13.59,10.8,19.32,17.42,2.35,2.72,5.07,5.13,7.59,7.72.54.56,1.06.92,1.85.75"/>
        <path class="cls-1" d="M18.68,34.07c2.48.23,4.66,1.33,6.83,2.43,3.77,1.9,7.69,3.56,11.22,5.83,3.01,1.94,5.88,4.14,8.4,6.83,2.6,2.77,5.47,5.39,9.18,6.79,1.25.47,2.53,1.11,3,2.58"/>
        <path class="cls-1" d="M14.91,63.16c3.48.29,6.97.89,10.43.77,2.18-.07,4.37.1,6.52.14,3.46.06,6.81-.6,10.22-.78,1.27-.07,2.66-.62,3.77.56"/>
        <path class="cls-1" d="M16.48,38.63c6.88,2.39,13.35,5.62,19.76,9.06,3.99,2.14,7.6,4.9,11.68,6.9.91.45,2.41,1,2.25,2.64"/>
        <path class="cls-1" d="M18.11,45.12c2.18-.43,3.93.93,5.74,1.63,5.28,2.04,10.4,4.46,15.61,6.68,1.9.81,6.15,2.31,7.79,3.72"/>
        <path class="cls-1" d="M14.16,66.72c.59,1.01,1.53.31,2.26.37,2.85.24,5.72.28,8.58.36,4.6.12,12.92.25,19.05-1.42,1.33-.43,1.42-1.55,2.19-2.08,1.19-.81,2.82-.69,4.17.19"/>
        <path class="cls-1" d="M18.35,59.5c2.25.82,4.58.33,6.86.28,3.32-.08,6.63-.07,9.93.3,4.94.55,9.9.49,14.85.78.85.05,4.41,1.55,5,2.44"/>
        <path class="cls-1" d="M22.79,51.72c2.01-.07,3.9.6,5.83.98,3.36.66,6.41,2.49,9.86,2.77.93.07,1.24.68,1.51,1.11"/>
        <path class="cls-1" d="M10.11,72.62c-.63-2.43,1.28-3.63,2.67-4.83,1.05-.9,1.23-1.81,1.41-2.98.34-2.27,1.24-4.05,3.34-5.48,2.38-1.62,5.06-2.43,7.53-3.74.6-.31,1.17-.07,1.73.01,3.58.53,7.16,1.11,10.74,1.66.68.1,1.89.13,2.44-.51"/>
        <path class="cls-1" d="M39.98,56.75c.83-.34,1.58.19,2.37.24,2.54.14,5.03.65,7.62.5,1.4-.08,2.88.64,4.26,1.15.7.26,1.46.47,2.06.32,2.21-.55,4.52,1.68,6.04,3.11"/>
      </g>
    </g>
  </g>
</svg>