<?xml version="1.0" encoding="UTF-8"?>
<svg id="Layer_2" data-name="Layer 2" xmlns="http://www.w3.org/2000/svg" viewBox="0 0 675.5 631.56">
  <defs>
    <style>
      .cls-1 {
        fill: none;
        stroke: #e57221;
        stroke-linecap: round;
        stroke-linejoin: round;
        stroke-width: 3px;
      }
    </style>
  </defs>
  <g id="homepage">
    <g>
      <path class="cls-1" d="M528.45,147.39c-4.51-8.16-3.02-17.9-6.5-26.12-4.13-9.77-4.38-20.32-8.54-30.33-5.11-12.28-13.02-14.18-24.04-15.33-7.97-.83-15.58-4.43-23.52-6.01-15.02-3-29.43.32-42.98,6.63-10.61,4.95-20.97,10.4-32.52,12.82-6.01,1.26-12.66-.94-18.2,2.97-10.04,7.09-20.6,3.83-31.27,2.33-11.81-1.66-23.01,2.48-34.28,5.19-9.75,2.34-16.8,9.67-25.19,14.51-8.61,4.96-16.9,9.36-26.98,11.02-6.67,1.1-13.29,4.54-19.13,8.2-8.29,5.19-17.44,7.25-26.65,9.01-5.25,1-10.57-1.28-14.63-4.63-5.9-4.87-12.87-6.1-19.99-7.07-8.79-1.2-16.31-3.93-22.5-11.02-8.68-9.94-20.35-14.75-33.42-17.93-10.47-2.55-21.89-4.21-30.08-13.27-4.87-5.38-8.58-11.05-11.7-17.5-4.15-8.59-8.7-17.26-19.62-19.3"/>
      <path class="cls-1" d="M322.91,91.82c-.83-.3-1.8-1.05-2.47-.84-12.66,3.99-26.39,4.44-38.06,11.92-4.33,2.78-9.67,3.37-14.94,3.82-7.69.66-14.77,3.99-21.77,6.83-8.17,3.32-15.5,8.67-23.65,12.05-11.84,4.91-24.03,3.95-35.16-2.02-10.6-5.68-20.26-13.02-32.52-15.4-4.32-.84-6.86-3.96-9.03-8.17-6.03-11.72-14.58-20.32-29.14-21.73-9.77-.94-17.18-6.71-21.98-15.5-9.56-17.54-25.95-24.63-44.57-28.38-1.75-.35-2.99.44-4.49.43"/>
      <path class="cls-1" d="M485.8,73.71c-4.69-12.71-19.69-14.71-31.69-12.71-14,3-26,9-40,10s-27,4-39,14c-2,1-5,2-8,3-22,1-44-4-66-3-8,1-15,5-23,8-18,5-36,6-55,2-10-1-19,0-29-3-11-2-21-6-32-10-7-3-11-8-15-15-2-3-5-4-7-6-11-9-24-14-31-26-12-7-24-12-32-24-1-3-3-6-4.69-9.28"/>
      <path class="cls-1" d="M542.14,10.03c.97,1.97,2.97,4.97,5.97,4.97,10-1,20-5,31-3,11,3,24,1,32,11,4,5,6,10,8,15,2,7,1,14,0,22-5,24-8,46-23,67-7,9-15,15-22,23-8,10-16,21-13.99,34.75"/>
      <path class="cls-1" d="M345.74,514.9c-2.63-9.9,4.37-17.9,9.37-26.9,6-10,15-18,22-28,3-5,4-11,8-15-1-6,0-12,3-18,6-9,15-14,22-22,8-11,17-20,27-29,8-5,16-8,23-15,6-7,9-15,14-22,4-5,10-8,13-13,5-8,8-16,9-25,0-1,2-2,3-3,10-19,22-35,36-52,2-2,3-5,4-7,4-10,7-21,11-31,1-2,1-5,1-7,6-13,17-21,26-32,2-3,7-2,9-5,4-7,8-13,13-19,8-7,15-14,22-23,6-10,11-18,17-28,13-25,26-55,13.12-82.47"/>
      <path class="cls-1" d="M294.62,554.14c10.6-5.15,9.65-13.4,20.55-25.05,2.77-2.96,6.55-4.86,8.49-8.82,1.51-3.08,1.46-5.58-.54-8.18"/>
      <path class="cls-1" d="M390.97,438.19c14.04-7.18,108.13-101.22,103.58-104.28,5.9-6.13,7.33-13.81,9.39-21.66,3.07-11.73,9.83-21.63,20.04-28.94,15.97-11.43,24.53-27.4,27.3-46.31.88-6.01-1.59-12.3-.48-18.54"/>
      <path class="cls-1" d="M547.53,9.47c-1.15.62-2.23,1.37-3.2,2.24"/>
      <path class="cls-1" d="M578.35,166.14c-1.24-6.14,3.76-11.14,6.76-15.14,22-25,42-50,51-82,5-20,3-42-12.09-57.66"/>
      <path class="cls-1" d="M535.01,376.58c11.06,6.01,14.74,19.31,7.81,29.55-9.58,14.17-22.16,25.28-37.49,32.91-17.07,8.5-35.28,14.28-53.75,18.74-11.2,2.71-22.52,4.76-33.71,7.8-9.26,2.51-14.19,6.37-26.48,9.69-12.28,3.32-23.33,4.79-27.16,2.73"/>
      <path class="cls-1" d="M264.55,628.74c-2.04-11.6-3.35-23.6-2.55-35.38.78-11.52,5.46-20.55,14.41-28.14,5.46-4.63,11.88-7.81,18.2-11.08"/>
      <path class="cls-1" d="M222.98,629.38c-4.88-16.38-7.88-33.38-1.88-49.38,4-9,10-18,18-25,9-7,19-8,29-14,11-6,26-11,31.4-23.24"/>
      <path class="cls-1" d="M318.51,626.69c-.41-4.69-2.41-10.69-1.41-15.69,5-15,2-31,2-46,0-4,1-9,3-13s4-7,6-11c6-18,12-37,21.63-53.26"/>
      <path class="cls-1" d="M180.91,629.09c-13.81-29.09-.81-66.09,25.19-83.09,19-7,38-11,57-19,2,0,5-2,7.1-5.21"/>
      <path class="cls-1" d="M406.78,390.87c6.35-.58,8.91-6.26,12.6-9.99,4.82-4.87,9.05-10.41,12.1-16.83,4.53-9.54,13.01-15.82,21.02-22.35,12.41-10.12,19.81-23.45,24.8-38.23,1.17-3.48,2.44-6.69,5.55-8.75,14.42-9.55,20.92-23.57,22.87-40,.95-8.04,4.3-15.33,9.59-20.79,14.21-14.68,23.8-32.42,34.79-49.21,3.23-4.94,6.64-10.78,5.06-17.51"/>
      <path class="cls-1" d="M198.02,630.06c-2.81-6.29-2.93-14-2.8-20.76.17-9.4,1.7-19.88,7.85-27.37,13.22-16.09,29.04-32.38,47.41-42.45,9.61-5.27,24.68-6.61,29.53-17.8"/>
      <path class="cls-1" d="M393.07,418.88c-.58-5.53,1.44-11.21,4.23-14.95,8.82-11.84,12.06-27.04,24.06-37,6.19-5.14,9.95-12.45,11.91-20.58,2.31-9.63,8.27-17.2,16.46-22.62,8.66-5.73,15.32-12.66,18.88-22.55,1.14-3.16,3.75-5.74,6.1-8.41,11.59-13.2,19.92-27.85,22.75-45.66,1.36-8.56,7.82-15.67,13.14-22.76,2.89-3.85,4.33-7.74,3.97-12.9-.4-5.69,1.34-11.78,6.78-15.01,5.26-3.12,7.48-8.08,9.57-13.02,2.13-5.03,3.61-9.92,9.1-12.8,2.52-1.32,4.07-4.6,5.05-7.71,3.23-10.17,9.34-18.92,14.3-28.24,5.41-10.18,6.96-25.08,7.06-33.44s-.43-10.46-1.84-14.22c-1.42-3.76-14.26-22.53-19.48-24.47-23.76-8.85-52.52-10.29-63.71-8.64"/>
      <path class="cls-1" d="M366.76,475.32c16.07-7.36,46.74-18.84,57.52-33.88,4.25-5.93,10.58-8.76,17.59-11.39,10.48-3.92,21.28-6.04,31.97-8.86,6.52-1.73,11.35-6.55,14.33-11.85,4.13-7.35,8.78-13.83,15.26-19.24,7.12-5.94,11.09-13.98,13.35-22.71.71-2.74,2.09-4.12,4.15-5.41"/>
      <path class="cls-1" d="M305.69,627.09c-1.33-12.9-1.61-25.95-1.15-38.91.43-11.99,1.03-25,5.38-36.33,3.18-8.29,9.5-15.21,9.27-24.59"/>
      <path class="cls-1" d="M572.81,136.75c1.42-.66,2.76-.68,4.11-2.32,7.55-9.21,12.53-19.87,18.51-29.98,8.48-14.35,8.87-30.03,9.31-45.79.13-4.71.3-9.51-.43-14.13-1.5-9.46-11.44-17.2-23.38-19.15-3.83-.62-7.88-1.33-11.37-.06-8.72,3.18-17.21,1.84-25.73-.04-4.2-.93-7.83-.69-11.89,1.2-3.47,1.62-7.58,2.84-11.7,1.52"/>
      <path class="cls-1" d="M556.65,220.79c.09,8.62,4.86,16.53,3.79,25.31-1.92,15.72-6.82,29.93-20.79,39.46-4.17,2.85-7.74,6.4-12.05,9.21-4.68,3.06-8.73,8.44-9.35,14-1.02,9.17-5.88,16.18-10.63,23.36-3.03,4.57-4.34,9.52-4.66,14.7,1.47,13.01-6,20.93-14.34,31.92-4.53,5.97-101.54,76.06-111.02,80.42"/>
      <path class="cls-1" d="M588.74,162.15c10.36-4.15,16.36-13.15,23.36-20.15,12-14,23-28,32-44l3-3c13-27,29-54,26.67-83.66"/>
      <path class="cls-1" d="M332.04,627.13c-2.93-17.13,1.07-35.13,8.07-51.13,2-6,2-12,3-18,0-13-2-25,0-38,0,0,1-1,2.05-1.21"/>
      <path class="cls-1" d="M432.59,138.93c8.62,13.34.3,26.13-11.81,29.64-16.94,4.91-34.2,4.24-51.33.48-5.92-1.3-11.95-2.31-17.25-5.57-6.17-3.8-10.25-10.5-9.19-18.84,1.22-9.58,7.47-16.06,12.81-23.17.56-.75,2.3-.63,3.49-.92"/>
      <path class="cls-1" d="M170.75,628.7c-13.75-27.89-6.05-59.99,17.87-79.42,3.19-2.59,6.55-5.01,10.05-7.19,3.65-2.28,7.58-4.3,10.21-7.83"/>
      <path class="cls-1" d="M260.32,105.34c-6.22-1.34-11.22-2.34-17.22-2.34-11,1-21,5-32,7-15,2-29-2-41-11-14-11-27-19-41-30-12-10-25-17-39-26-7-5-14-9-22-14-9-6-7-18-9.8-27.14"/>
      <path class="cls-1" d="M537.81,170.62c-1.72-9.12,1.77-17.48,5.56-25.12,4.73-9.54,6.93-19.82,9.54-29.72,2.49-9.47,4.17-13.9-4.25-29.33-8.41-15.43-62.43-28.36-67.26-32.57"/>
      <path class="cls-1" d="M408.5,469.47c14.09-13.29,30.36-33.61,50.64-36.8,11.97-1.88,22.26-5.56,31.92-12.43,2.75-1.96,5.85-4.09,7.25-6.56,5.78-10.25,13.81-19.02,18.99-29.7,2.72-5.62,3.21-11.64,5.52-17.21"/>
      <path class="cls-1" d="M361.22,125.33c-.28-1.18-.72-2.35-.83-3.54-1.32-14.42-3.32-17.4-17.3-18.1-12.82-.64-25.99-.08-37.81,5.98-8.61,4.41-15.32,9.84-17.49,21.05-1.7,8.79-2.74,18.08-8.56,26.67-11.57,17.09-28.32,23.38-46.8,27.2-18.95,3.91-36.13-1.38-50.63-13.4-5.2-4.31-11.46-9.93-8.54-18.73"/>
      <path class="cls-1" d="M141.79,128.54c-3.08,2.51-6.07,2.71-10.24,1.96-10.18-1.84-20.71-1.25-30.96-3.27-15.74-3.09-30.23-8.53-41.86-19.96-3.4-3.35-5.99-7.61-7.07-11.8-2.14-8.29-6.21-15.87-7.83-24.35-1.2-6.32-1.33-12.07,1.99-17.7"/>
      <path class="cls-1" d="M450.5,282.98c6.63-12.9,31.62-69.87,33.84-76.99,4.83-15.54,4.37-31.8,7.57-47.51.95-4.68-.51-7.94-2.88-11.37"/>
      <path class="cls-1" d="M284.36,139.28c-1.25-.28-2.25-.28-3.25.72-7,8-10,18-18,25-16,13-37,19-56,11s-31-24-46-38c-11-9-23-14-36-16-13-1-25-2-37-6-2-1-5-2-7-3-21-12-24-37-33-58,0-1-2-1-2-2,0-8,3-18-6-24C29.1,23,21.1,14,18.86,1.75"/>
      <path class="cls-1" d="M289.02,122.43c-9.89-1.03-14.37,6.66-20.13,12.32-10.75,10.55-23.77,16.93-38.59,18.87-15.9,2.08-34.3-1.31-48.76-7.64-2.51,1.1-5.02,2.2-7.53,3.3"/>
      <path class="cls-1" d="M208.94,61.48c7.77-19.79-7.16-39.81-23.69-49.19-10.02-5.68-21.58-8.44-32.95-5.67-5.71,1.39-11.49,2.83-17.12,4.51-5.68,1.7-10.77,5.45-16.47,6.76-12.86,2.94-24.54-6.56-31.69-16.1"/>
      <path class="cls-1" d="M515.31,187.26c8.58-9.91,13.75-31.22,14.08-38.59.34-7.38,2.03-15.68.28-24.79-1.08-5.64-.94-11.38-.45-17.15.86-10.3-3.4-18.72-11.31-24.92-11.71-9.19-23.85-17.84-35.85-26.66-1.45-1.06-2.97-1.9-3.89-3.57-2.23-4.03-5.18-4.36-8.61-1.32"/>
      <path class="cls-1" d="M287.7,127.99c-4.82.36-7.65,3.68-10.41,7.01-5.12,6.17-10,12.54-15.25,18.6-12,13.85-27.95,14.4-44.54,13.02-9.55-.8-17.82-4.93-26.32-8.66-3.39-1.48-6.27-4.79-10.63-3.51"/>
      <path class="cls-1" d="M429.63,117.16c4.7,12.92,2.34,25.2-4.08,36.88-2.84,5.16-7.27,9.43-13.58,9.19-11.9-.46-23.71,1.95-35.72-.03-7.23-1.19-12.55-4.84-17.73-8.89-2.89-2.26-3.22-6.87-2.54-10.42,1.1-5.75,3.19-11.32,4.86-16.97"/>
      <path class="cls-1" d="M138.29,123.38c-.27-2.43-1.89-3.18-3.94-4.45-10.59-6.53-22.81-7.34-34.41-10.34-20.24-5.24-33.29-16.86-36.75-38.39-1.18-7.32-5.64-14.11-8.56-21.15-1.32-3.18-4.15-3.79-7.09-4.29"/>
      <path class="cls-1" d="M349.23,627.76c-11.12-11.76-1.12-26.76-2.12-40.76,6-14,25-25,19-42-8-9-16-19-13.57-31.73"/>
      <path class="cls-1" d="M346.28,486.48c5.78-6.6,8.73-11.37,11.68-16.1,3.72-5.97,6.24-12.84,8.62-19.66,1.65-4.72,3.69-9.56,7.77-13.46,3.46-3.31,5.2-8.18,6.12-13.2,1.86-10.12,6.27-19.23,12.17-27.7,3.94-5.65,6.51-11.78,7.08-18.83.18-2.17,1.42-4.77,3.29-6.99,9.76-11.61,18.8-23.62,23.68-38.36,1.59-4.81,6.26-8.64,9.08-12.34"/>
      <path class="cls-1" d="M414.42,302.87c-16.28,8.57-22,10.93-40.82,34.28-7.82,9.78,4.46,30.66,8.06,41.02,2.87,8.27,4.64,16.9-2.31,24.52"/>
      <path class="cls-1" d="M201.09,91.83c-.17-.71-.1-1.8-.54-2.07-10.87-6.7-19.17-17.29-32.69-20.08-7.09-1.46-13.37-5.28-17.92-11.28-9.72-12.82-23.79-20.34-36.55-29.47-3.62-2.59-7.43-5.33-4.89-10.79"/>
      <path class="cls-1" d="M581.5,125.67c-3.4-3.85-.13-8.03.69-11.22,3.12-12.15,2.86-24.7,5.55-36.91,1.09-4.92.46-11.26-.49-16.75-1.21-6.98-8.44-9.53-14.49-12.15-6.12-2.65-11.37-3.52-19.19-4.73"/>
      <path class="cls-1" d="M159.7,628.79c-8.6-16.79-9.6-37.79-1.6-55.79,10-20,27-38,50.25-40.93"/>
      <path class="cls-1" d="M436.52,319.3c9.69-8.13,15.49-18.77,19.98-30.27.76-1.95,1.74-3.88,2.44-5.77,9.37-25.1,34.29-67.16,33.92-76.36-.23-5.62,11.57-14.55,12.02-20.04"/>
      <path class="cls-1" d="M567.66,225.64c-.53,5.87,2.88,10.79,4.11,16.25,1.26,5.6,1.13,10.96-1.05,15.9-4.46,10.11-9.86,19.67-16.06,29-6.15,9.27-13.6,16.8-21.98,23.53-12.53,10.08-16.19,22.98-14.21,38.01.92,7.03.81,14.69,8.27,19,1.45.84,1.1,2.03.96,3.54-.62,6.81-.54,13.69-1.3,20.49-1.77,15.87-13.14,24.72-25.54,32.24-9.94,6.04-58.65,28.4-77.56,32.93"/>
      <path class="cls-1" d="M245.6,628.03c-2.49-13.03-7.49-26.03-5.49-40.03,1-8,3-15,9-20,23-17,44-31,66-49,2-1,3-3,2.29-5.54"/>
      <path class="cls-1" d="M529.74,370.35c2.09.74,3.32,2.44,4,4.29,5.44,14.61-2.04,34.5-14.98,44.23-13.43,10.09-20.68,18.16-39.12,24.67-25.92,10.39-59.17,19.14-61.14,19.36"/>
      <path class="cls-1" d="M318.29,59.96c-3.4.89-4.53-1-6.38-3.63-4.55-6.47-13.59-6.28-18.67-.04-2.16,2.66-3.58,5.36-7.98,5.09-2.22-.13-4.19,1.97-4.87,5.35-3.31,16.54-31.53,31-48.11,19.96-3.99-2.66-8.9-3.98-13.42-5.85-1.31-.54-2.97-1.56-4.04-1.18-11.5,4.11-18.44-4.22-25.58-9.91-6.77-5.39-13.52-10.33-21.63-13.33-10.66-3.94-19.3-11.01-27.64-18.24-4.25-3.68-8.24-7.66-13.28-10.07-4.38-2.09-6.27-5.27-6.79-9.71"/>
      <path class="cls-1" d="M520.01,121.7c-4.24-2.79-6.46-7.1-8.82-11.36-2.35-4.23-4.89-8.36-7.51-12.44-4.58-7.14-10.65-12.09-19.63-12.53-.77-.04-1.69.12-2.3-.23-19.83-11.53-40.1-3.4-59.86-.07-7.33,1.24-15.22,3.74-22.43,7.58-9.87,5.25-20.91,5.44-31.82,2.67"/>
      <path class="cls-1" d="M515.71,214.13c7.72-11.61,17.86-21.13,27.19-31.38,6.76-7.44,12.34-15.89,15.96-25.41.67-1.77,1.32-3.75,2.59-5.07,11.55-11.99,13.8-27.29,14.45-42.57.51-11.91,3.99-23.86.11-35.93-2.3-7.13-4.16-11.38-11.8-17.57-5.62-5.22-14.68-10.51-19.17-13.43"/>
      <path class="cls-1" d="M431.72,106.92c-.46,4.8-1,8.86-5.92,12.37-3.24,2.31-4.36,8.29-5.32,12.85-2.68,12.79-11.57,17.91-23.37,19.76-6.72,1.05-13.84,1.7-19.82-1.43-4.57-2.39-8.19-6.79-9.33-12.53-.84-4.23-1.76-8.59-5.69-11.37"/>
      <path class="cls-1" d="M452.19,34.57c-6.45,2.55-18.64,3.84-27.79,7.53-9.15,3.69-34.99,14.99-44.5,19.35-3.93,1.81-8.08,3.02-11.4,5.94"/>
      <path class="cls-1" d="M353.61,361.67c1.04-3.25-.94-5.91-2.16-8.45-3.56-7.42-5.64-16.8-4.58-22.16,2.38-12.03,11.96-22.86,21.33-25.24,8.09-2.06,16.49-2.55,24.26-6.38,2.54-1.25,6.9-.04,9.97,1.16,10.16,3.99,17.39-.71,24-7.41,3.18-3.23,6.11-6.75,8.87-10.35,6.53-8.54,7.33-17.68,4.14-27.95-2.29-7.36-4.8-14.64-5.36-22.75-.65-9.55,3.96-15.81,8.41-23.04,6.52-10.57,16.74-18.9,19.09-32.11.97-5.48,4.76-9.64,10.38-12.5,10.42-5.29,15.85-14.97,19.56-25.54.71-2.01.17-4.45,2.48-5.78"/>
      <path class="cls-1" d="M488.05,99.18c.95,3.94,1.89,5.64,3.6,10.6.62,1.82,1.42,5.91,2.05,9.95,1.53,9.85,4.64,19.04,4.13,29.03-.67,13.14.54,26.36-1.99,39.41-.98,5.06-3,9.96,1.14,14.81,1.2,1.4,1.3,4.37.86,6.41-3.19,14.73-3.7,30.21-14.56,42.62-8.96,10.26-12.67,23.32-16.28,36.07-3.01,10.6-9.8,17.62-18.81,23.12-.53.32-1.51-.08-2.29-.14"/>
      <path class="cls-1" d="M449.4,29.25c-6.11,3.88-25.33,5.04-37.51,6.92-12.39,1.91-29,14.34-39.49,19.04"/>
      <path class="cls-1" d="M516.44,182.49c-3.35-7.83-2.09-15.77.57-23.3,5.6-15.84.34-29.44-8.15-42.25-2.72-4.11-4.02-10.68-11.33-10.08"/>
      <path class="cls-1" d="M422.42,109.15c.66,7.71-5.07,13.11-7.54,19.69-3.42,9.1-9.71,14.93-20.69,14.15-10.08-.72-15.52-6.45-19.54-14.86-2.5-5.24-4.87-11.24-12.43-11.28"/>
      <path class="cls-1" d="M504.62,186.83c3.12-4.85,4.17-10.2,2.97-15.7-1.78-8.15-.62-16.03,2.06-23.66,2.38-6.78,2.33-12.47-2.79-18.2-3.98-4.45-4.85-10.83-7.41-16.21-2.83-5.94-7.15-10.39-11.05-15.16-8.37-10.23-27.46-9.7-38.27-5.77-4.98,1.81-10.17,3.89-12.98,9-3.75,6.83-11.6,6.58-17.12,7.16-5.54.58-9.43,2.81-13.08,5.5-12.38,9.09-26.43,8.05-36.46-3.41"/>
      <path class="cls-1" d="M450.15,283.36c-7.16,11.25-25.16,28.22-35.23,36.87-10.28,8.83-16.54,19.68-17.35,34.49-.79,14.46-6.72,28.53-8.37,43.24-.39,3.43-2.67,9.13-8.83,8.99"/>
      <path class="cls-1" d="M196.23,65.27c1.19-4.73-3.43-6.36-5.43-9.09-6.22-8.5-12.52-17.21-20.23-24.29-9.38-8.62-21.12-13.11-34.45-12.17-2.78.2-5.58-.12-8.38-.2"/>
      <path class="cls-1" d="M215.33,78.67c-.68-6.9-3.27-13.05-8.78-17.3-5.99-4.61-8.11-11.48-11.64-17.52-6.94-11.86-14.45-23.11-28.06-28.46-7.08-2.79-14.85-1.7-22.07-3.7"/>
      <path class="cls-1" d="M470.02,50.36c-6.03-1.26-36.1,4.98-47.3,9.78-7.14,3.06-15.21,5.98-22.51,6.5-9.98.71-19.87,3.6-29.39,3.21-6.73-.28-11.31.42-16.78,3.8-5.65,3.5-12.56,4.44-19.21,4.73-8.05.35-15.77-.35-23.25-4.63-7.48-4.28-15.77-1.39-22.56,2.57-3.62,2.11-6.6,2.38-10.19,2.11"/>
      <path class="cls-1" d="M551.13,295.54c1.8-.83,4.05-.26,5.57-2.07,9.44-11.14,20.41-21.2,25.54-35.38,5.58-15.42,2.93-26.26-13.71-33.02-6.62-2.69-14.72-4.15-19.48-10.71"/>
      <path class="cls-1" d="M335.49,454.68c-6.29-.99-17.32-.78-22.96-3.23-9.33-4.07-16.3-11.59-19.5-21.32-2.7-8.23,5.56-15.1,16.42-16.07,13.38-1.2,23.76,4.45,33.12,12.53,4.84,4.18,9.88,6.65,16.24,7.34,6.97.76,10.79-.78,13.41-7.08,2.23-5.36,3.95-10.93,5.99-16.37.49-1.31,1.54-2.35.93-3.99-4.07-11.06-3.01-24.79-13.48-32.41-5.09-3.7-8.58-8.83-14.06-12.13-5.86-3.54-8.45-11.23-10.93-16.68-8.87-19.96-6.16-39.37,16-46.4,9.21-2.58,28.9-1.16,38.48.06"/>
      <path class="cls-1" d="M438.47,94.06c-9.8-1.88-16.99,4.92-25.38,7.71-2.86.95-5.54,2.88-7.9,4.84-7.62,6.31-15.72,6.27-24.95,3.93-6.38-1.62-13.7-4.06-19.93,1.54"/>
      <path class="cls-1" d="M211.42,78.11c-16.07-13.2-34-23.69-51.38-35.02-10.42-6.79-19.46-15.64-31.45-20.02-1.33-.49-1.02-1.74-1.39-2.67"/>
      <path class="cls-1" d="M361.68,584.5c-1.81-4.32,1.42-6.67,3.89-9.14,6.15-6.15,11.27-12.91,13.77-21.33,2.76-9.28-.49-18.54-8.18-25.07-2.1-1.78-4.93-3.54-4.81-7.02"/>
      <path class="cls-1" d="M280.99,62.17c-3.73-11.69,2.06-20.74,9.01-29.03,6.32-7.53,15.46-11.2,24.35-14.89,4.7-1.95,11.91,1.64,13.64,6.41,1.91,5.26.06,11.38-4.64,15.35"/>
      <path class="cls-1" d="M305.84,449.55c-1.25,1.11-2.7,1.6-4.29,1.02-16.29-6-28.57-15.24-26.32-34.12.36-3.02,1.9-5.51,4.11-7.8,9.57-9.96,33.1-9.06,42.25,2.68.21.27-.21,1.03-.33,1.56"/>
      <path class="cls-1" d="M347.78,583.34c-1.56-7.4,2.63-13.89,4.63-20.34,3.05-9.87,1.38-18.2-3.1-26.45-3.36-6.19-2.4-12.95-3.5-19.4-.42-2.46,3.24-4.11,6.2-4.5"/>
      <path class="cls-1" d="M444.46,24.44c-3.16-.4-41.14,3.12-47.64,5.97-5.62,2.46-10.47,4.6-13.52,7.21"/>
      <path class="cls-1" d="M338.58,456.68c-10.54-5.2-19.17-13.08-28.17-20.34-3.39-2.73-.31-9.12,4.28-9.88,7.03-1.16,13.79-.06,20.29,2.62,3.12,1.29,6.09,1.55,8.93-.66"/>
      <path class="cls-1" d="M61.89,22.59c-9.78-1.59-13.78-11.59-17.23-20.78"/>
      <path class="cls-1" d="M368.83,582.79c1.03-7.46,7.82-10.33,12.38-14.87,10.19-10.13,12.18-21.99,4.14-35.5-1.46-2.46-3.11-4.59-3.17-7.53"/>
      <path class="cls-1" d="M408.56,89.25c-1.83,7.52-10.37,13.11-20.31,13.09-7.85-.01-15.69-.22-23.54-.32-3.11-.04-6.38-.5-8.42,2.76"/>
      <path class="cls-1" d="M23.77,18.25C13.1,21,8.1,8,1.5,1.6"/>
      <path class="cls-1" d="M363.15,369.87c.43-1.35,1.6-3,1.18-4.01-4.89-12.02-11.11-23.68-4.57-33.72,14.13-20.06,37.28-24.63,43.37-25.84,1.99-.4,2.85-2.14,3.62-3.83"/>
      <path class="cls-1" d="M448.46,214.54c-4.08,8.93-3.87,18.02-1.85,27.41,1.68,7.81,1.5,15.64-3.56,22.58"/>
      <path class="cls-1" d="M418.29,110.89c-4.23,5.51-8.39,11.07-12.7,16.51-3.81,4.81-9.01,5.56-14.24,3.34-6.04-2.56-10.66-6.96-13.09-13.25"/>
      <path class="cls-1" d="M437.3,253.18c-6.83-4.47-10.26-12.08-16.69-17.2-6.28-5.01-5-21.11.94-26.79.8-.77,1.67-2.06,3.09-2.44,7.35-1.96,14.68-4,22.02-6.01"/>
      <path class="cls-1" d="M449.55,212.78c3.56-4.1,7.09-8.22,10.67-12.3,3.97-4.51,6.79-9.16,6.23-15.71-.54-6.38,3.88-11.99,4.51-18.34"/>
      <path class="cls-1" d="M32.83,21.32c3.28-6.32-3.72-12.32-3.58-19.82"/>
      <path class="cls-1" d="M329.87,76.66c-5.01-4.74-11.04-8.81-10.87-16.87.11-5.28,1.87-10.34,2.73-15.48.85-5.05.58-9.64-2.23-12.98-3.37-4-8.13-2.19-12.68-.23-5.42,2.34-10.52,5.06-15.37,8.34-1.76,1.19-3.63,1.71-5.73,1.36"/>
      <path class="cls-1" d="M285.83,60.26c1.78-7.27,6.61-12.72,11.72-17.68,6.29-6.1,14.25-3.61,16.95,4.8.7,2.17.65,4.67,2.98,6.03"/>
      <path class="cls-1" d="M553.71,43.83c-7.77-2.99-19.94-4.66-28.61-1.69-6.35,2.18-37.03,11.83-43.94,10.76.13-.53,25.61-15.03,25.74-15.55"/>
      <path class="cls-1" d="M394.65,526.39c9.9-4.96,24.17,4.79,28.38,11.99,2.29,3.93,2.41,8.9-.24,13.53-2.99,5.24-7.25,10.2-11.5,13.34-5.35,3.95-12.04,8.27-19.86,7.61"/>
      <path class="cls-1" d="M19.58,10.26c-3.13-2.39-5.86-5.26-8.08-8.51"/>
      <path class="cls-1" d="M319.45,67.92c-3.28,1.35-5.96-.14-8.73-1.63-6.44-3.45-12.51-2.94-18.62,1.34-3.43,2.4-7.32,4.51-11.93,3.72"/>
      <path class="cls-1" d="M357.6,84.99c5.53-4.12,11.48-7.51,18.31-8.83,6.03-1.16,10.63-4.34,14.54-8.79"/>
      <path class="cls-1" d="M468.61,49.37c-3.19-.07-5.71-1.56-8.39-3.16-7.8-4.64-61,11.58-70.28,19.04"/>
      <path class="cls-1" d="M285.44,440.21c-.37-3.66-2.25-6.72-3.24-10.26-3.37-12.03,2.34-18.61,18.63-23.23,2.2-.62,6.73-2.66,9.95-2.39"/>
      <path class="cls-1" d="M362.44,67.35c-.86-2.7.65-5,2.3-6.44,8.69-7.61,13.46-17.46,18.64-27.53,5.36-10.41,13.94-19.48,24.9-24.55,3.89-1.8,9.48-3.32,14.65-1.73,5.07,1.56,10.22,1.15,14.33,6.83,2.9,4,7.95,7.36,10.43,12.02,3.86,7.22,10.05,11.69,16.85,15.21,3.31,1.71,5.63,3.7,7.48,6.63"/>
      <path class="cls-1" d="M436.02,14.48c-12.08-1.82-23.81,3.34-35.87,1.86"/>
      <path class="cls-1" d="M496.69,223.19c7.46-4.05,11.12-10.52,12.17-18.65.74-5.72,4.53-10.28,6.07-15.69"/>
      <path class="cls-1" d="M271.47,520.74c6.27.28,12.27-1.77,18.28-2.43,9.68-1.05,18.16-7.12,28.21-5.83,1.81.23,4.11-.35,5.66-1.35,9.45-6.1,17.79-14.52,22.43-23.81,4.15-8.29,5.39-20.33-4-28.41-4.95-4.26-3.48-10.92-7.19-15.69-1.83-2.36,3.1-6.66,7.9-7.01,2.74-.2,5.95,1.66,7.87-1.91"/>
      <path class="cls-1" d="M425.52,238.77c-.54-4.37-1.79-8.78-1.47-13.08.55-7.56,7.23-17.84,13.16-22.59"/>
      <path class="cls-1" d="M436.57,556.04c.8-1.94,1.61-3.87,2.38-5.82,3.87-9.7,2.93-13.37-5.53-19.59-1.54-1.14-2.1-2.35-2.39-3.98"/>
      <path class="cls-1" d="M348.9,594.31c3.45.46,5.68-2.02,7.22-4.12,3.13-4.29,7.54-5.44,12.17-6.53,10.72-2.51,19.69-7.38,25.43-17.28,2.59-4.47,5.9-8.54,9.01-12.69,3.9-5.21,4.35-10.98.55-15.8-5.13-6.51-9.96-12.86-20.34-13.65-10-.76-21-1.83-28.99-9.81"/>
      <path class="cls-1" d="M542.35,12.94c-13.39,5.99-24.4,15.42-35.78,24.32"/>
      <path class="cls-1" d="M413.64,564.54c7.84,1.64,13.65-4.04,20.54-5.83,1.05-.27,1.35-1.8,3.46-1.59,8.22.8,13.42-3.59,17.13-10.64,3.88-7.37,3.31-11.82-3.31-16.44-1.3-.91-3.07-1.15-3.67-2.92"/>
      <path class="cls-1" d="M367.25,433.51c-4.51,4.9-10.87,24.01-12.47,29.89-.96,3.52-2.28,5.24-5.65,5.74"/>
      <path class="cls-1" d="M412.13,526.69c8.63-3.49,17.5.35,26.25-.95,3.91-.58,7.7,1.8,12.07-.47,3.47-1.8,16.93,5.68,18.82,9.45,2.66,5.31.39,9.92-3.83,12.66-3.58,2.33-7.32,5.72-12.4,4.71"/>
      <path class="cls-1" d="M346.9,463.68c-4-11.66,1.29-19.81,10.39-26.38,1.07-.77.11-1.15.32-1.66"/>
      <path class="cls-1" d="M511.48,89.28c-8.58-2.79-16.81-6.17-22.85-13.25"/>
      <path class="cls-1" d="M547.19,206.58c-4.08-1.25-6.9,2.77-10.73,2.58"/>
    </g>
  </g>
</svg>