<?xml version="1.0" encoding="UTF-8"?>
<svg id="Calque_2" data-name="Calque 2" xmlns="http://www.w3.org/2000/svg" viewBox="0 0 633.52 2037.14">
  <defs>
    <style>
      .cls-1 {
        fill: none;
        stroke: #e57221;
        stroke-linecap: round;
        stroke-linejoin: round;
        stroke-width: 3px;
      }
    </style>
  </defs>
  <g id="homepage">
    <g id="Ab07q6">
      <g>
        <path class="cls-1" d="M231.11,714.34c-1.4-5.38-2.76-15.02-3.87-19.28,1.4-18.42,4.1-35.81,3.76-53.11-.99-50.62,13.24-95.05,36.14-133.99,23.29-39.61,51.12-74.83,75.42-113.55,17.85-28.44,34.27-58.59,49.3-89.58,10.63-21.91,15.6-46.85,9.14-73.3-.58-2.38,1.68-5.89,2.63-8.88"/>
        <path class="cls-1" d="M96.64,446.22c17.86-26.87,37.29-52.31,53.25-80.9,30.15-53.98,38.16-136.02,3.25-194.89-16.17-27.27-34.73-52.37-53.17-77.29-16.67-22.54-23.96-49.7-27.7-79.17-.43-3.4.83-7.15,1.3-10.73"/>
        <path class="cls-1" d="M430.15,323.12c2.81,1.8,6.49,2.7,8.29,5.54,11.95,18.87,22.58,39.25,35.48,56.96,10.5,14.43,23.88,24.97,41.51,28.04,1.2-14.91,2.3-27.53,3.21-40.17,2.93-40.64,5.61-81.31,8.74-121.92,3.39-43.98-4.04-85.5-22.75-121.63-24.23-46.8-49.93-92.88-87.97-124.18-1.54-1.27-3.7-1.29-5.58-1.89"/>
        <path class="cls-1" d="M102.69,384.66c14.02-32.65,31.47-63.74,41.15-98.36,10.69-38.24,4.9-77.41-15.74-110.8-14.04-22.72-27.2-46.44-42.28-67.98-18.59-26.55-27.23-56.43-25-91.76.22-3.55-.62-7.2-.95-10.69-12.97-2.22-16.61.33-20.13,12.43-3.77,13-8,25.78-12.73,40.94-1.18,10.38-2.71,23.72-4.23,37.07"/>
        <path class="cls-1" d="M513,387.83c-2.74-38.26-6.22-76.47-8.05-114.8-3.1-64.97-17.44-124.89-47.81-177.46-17.78-30.78-37.18-60.04-56.06-89.78-.74-1.17-3.61-.16-5.48-.16"/>
        <path class="cls-1" d="M228.94,671.39c-5.64-30.06-7.52-73.47-1.58-102.92,8.74-43.35,26.49-80.69,50.75-112.83,11.72-15.53,24.38-29.9,36.55-44.88,23.39-28.77,46.36-58,62.01-94.95,2.89-6.83,5.15-14.11,4.84-21.34-.17-4.83-.33-9.66-.5-14.48"/>
        <path class="cls-1" d="M225.55,692.14c-24.01-34.96-37.75-71.73-33.29-122.17,5.22-59.09,32.4-95.03,64.84-128.62,22.34-23.13,46.06-44.06,68.85-66.5,23.17-22.82,39.48-52.66,52.24-85.9"/>
        <path class="cls-1" d="M236.54,723.63c.95-4.18,5.83-14.76,5.72-18.9-2.18-84.35,20.64-158.8,58.73-225.37,19.65-34.34,43.58-65.13,67.79-94.56,7.3-8.87,12.92-19.36,20.26-28.05,8.75-10.36,17.5-13.41,28.4-8.56"/>
        <path class="cls-1" d="M373.31,1373.87c-7.46-22.73-15.17-45.33-22.3-68.22-7.54-24.21-8.03-49.15-7.84-75.3.21-29.46,5.28-57.43,8.12-86.05,7.1-71.52,5.14-143.4,6.37-215.18.35-20.39,5.32-40.65,8.17-60.97"/>
        <path class="cls-1" d="M546.9,305.41c-1.84-16.14-4-32.24-5.47-48.44-3.41-37.64-5.71-75.46-9.96-112.94-2.88-25.4-16.19-44.85-29.4-62.55-21.2-28.4-44.16-54.66-71.39-73.8-2.72-1.91-6.48-1.38-9.76-1.99"/>
        <path class="cls-1" d="M322.41,1519.03c-7.46-20.94-12.81-43.74-22.91-62.34-12.88-23.71-26.2-47.59-27.92-75.94-1.12-18.49-6.51-32.88-12.07-48.36-9.03-25.16-27.18-39.4-42.22-57.29-5.85-6.95-14.3-10.74-19.31-18.37-20.36-31.01-47.1-49.65-74.44-68.5-36.63-25.26-37.83-97.09-4.35-128.98,14.86-14.16,30.86-23.67,47.9-32.36,21.75-11.09,42.39-25.73,63.51-38.84"/>
        <path class="cls-1" d="M489.13,368.06c-3.74-5.98-7.13-12.4-11.28-17.88-15.59-20.6-20.07-46.37-24.15-73.54-5.1-33.95-14.26-66.86-20.17-100.65-3.79-21.7-4.44-44.26-7.34-66.25-1.99-15.12-5.34-29.96-8.24-44.87-1.17-6.05-2.75-11.97-4.15-17.95"/>
        <path class="cls-1" d="M483.53,355.5c-2.31-16.74-5.3-33.39-6.77-50.25-2.02-23.22-2.51-46.66-4.33-69.91-3.21-40.88-14.51-78.99-26.59-116.53-11.88-36.94-26.65-72.04-47.47-102.37-3.05-4.44-6.52-8.42-9.79-12.61"/>
        <path class="cls-1" d="M92.57,369.1c12.68-9.51,11.62-27.01,12.2-41.26,1.17-28.75-5.98-56.38-15.05-82.33-10.49-29.98-22.04-59.54-34.99-87.89-14.45-31.63-19.7-64.73-16.58-100.68.3-3.42-1.7-7.15-2.63-10.74"/>
        <path class="cls-1" d="M217.73,367.54c20.65-13.11,41.26-26.31,61.96-39.31,34.07-21.41,49.52-60.26,59.09-103.98,6.41-29.31,3.31-58.71-2.31-87.87-1.19-6.2-.15-13.1-.14-19.67"/>
        <path class="cls-1" d="M539.44,529.55c-.46-2.99-2.1-6.81-1.22-8.85,18.74-43.29,16.88-91.14,20.09-138.13,2.79-40.76,13.62-79.12,29.62-114.61,6.84-15.18,16-28.63,23.7-43.22,3.14-5.94,2.97-9.66,4.56-18.93,1.59-9.27-1.66-77.77-16.7-106.65-2.94-4.72-52.43-91.66-53.36-97.64"/>
        <path class="cls-1" d="M325.53,1229.76c3.26-8.13,7.16-25.14,7.37-33.5.62-25.56-1.86-50.27-6.44-75.47-12.53-68.95-13.06-138.56-.08-207.88"/>
        <path class="cls-1" d="M631.4,298.36c-2.3-32.55-7.3-65.55-14.7-97.17"/>
        <path class="cls-1" d="M598.6,479.45c18.5-19.65,27.5-46.65,32.31-73.26"/>
        <path class="cls-1" d="M330.97,1150.82c.96-12.55,6.06-31.65,6.16-44.22.4-53.79.54-107.6.37-161.39-.16-50.46,11.36-95.51,34.33-130.89-2.05-30.83-5.3-65.42-7.14-93.02"/>
        <path class="cls-1" d="M395.92,575.91c-8.49-29.03-5.14-91.43-4.03-98.64"/>
        <path class="cls-1" d="M558.2,280.32c0-4.18-.39-8.44.08-12.54,9.14-79.29-2.99-150.9-46.01-211.77-15.3-21.65-32.07-40.57-53.39-52.05"/>
        <path class="cls-1" d="M306.32,369.51c-15.49,13.72-30.72,27.97-46.54,41.04-26.47,21.86-52.16,45.06-65.95,82.63-11.99,32.66-21.57,66.74-12.87,103.75,1.14,4.83,8.26,11.08,11.07,15.27"/>
        <path class="cls-1" d="M413.42,986.6c-.97,14.94-2.34,29.86-2.81,44.83-.89,28.73-4.75,55.97-19.79,79.01-2.72,4.16-3.64,10.23-6.34,18.19-3.33,2.26-8.89,6.03-16.08,10.91-2.29-5.84-5.96-10.68-5.57-14.91,2.77-29.97,7.54-59.69,9.37-89.72,1.67-27.34.63-54.96.45-82.46-.16-24.51.37-49.17-1.62-73.47-1.35-16.55-.39-31.9,4.88-46.57,3.56-9.9,8.78-18.84,12.75-27.15-.67-5.21-1.71-8.86-1.48-12.37.63-9.6,1.76-19.14,2.77-28.7,1.39-13.16,4.65-26.47,3.9-39.41-1.44-24.64-7.92-56.76-10.69-81.27"/>
        <path class="cls-1" d="M324.02,1350.64c-2.96-24.7-5.92-49.39-9.09-75.82,3.05-13.17,6.71-28.93,10.47-45.15-2.85-8.72-6.97-27.44-6.23-28.46.03-.04.06-.07.06-.13-.6-7-1.05-14.03-1.83-21-3.63-32.3-8-64.48-10.82-96.89-2.02-23.15-2.63-46.59-2.75-69.91-.18-36.07,14.87-79.74,25-113.22"/>
        <path class="cls-1" d="M108.16,308.16c13.02-46.14,4.1-88.66-14.02-128.99-7.66-17.05-17.76-32.28-26.38-48.66-17.58-33.39-23.78-69.72-16.86-109.43.67-3.87-.77-8.33-1.23-12.51"/>
        <path class="cls-1" d="M241.95,925.62c-5.11-24.52-16.37-56.33-17.27-81.1-1.21-33.5-13.24-59.51-26.04-86.03-13.2-27.36-34.43-41.96-56.06-55.79-9.93-6.35-19.56-13.46-29.53-19.68-22.08-13.77-29.69-36.52-40.53-66.51-2.43-6.73-4.78-19.46-4.28-25.2"/>
        <path class="cls-1" d="M195.62,1637.15c-8.86-25.12-20.13-49.36-26.02-75.57-9.13-40.64,8.11-81.84,37.42-93.67,14.26-5.75,24.61-.5,35.18,8.2,5.44,4.48,9.35,11.9,14.19,17.66,15.53,18.5,32.63,13.21,40.79-12.44,1.82-5.71,3.76-11.36,5.65-17.03"/>
        <path class="cls-1" d="M430.21,1033.26c9.44-46.86,33.44-84.52,49.52-127.19,11.82-31.35,19.22-64.24,22.54-98.64,1.03-10.67,1.06-21.5,1.55-32.26"/>
        <path class="cls-1" d="M584.54,481.22c1.42-4.78,2.01-10.39,4.37-14.21,20.93-33.77,27.09-73.47,28.06-114.85.94-40.15,7.87-63.2,4.07-103.38-1-10.55-5.84-25.45-5.43-34.83"/>
        <path class="cls-1" d="M525.57,429.1c2.85-19.72,4.88-39.71,8.74-59.1,5.63-28.25,9.35-58.02,22.74-82.26,18.14-32.85,20.75-69.91,22.46-107.8,1.09-24.15-7.74-44.78-13.93-66.4-10.26-35.83-27.67-65.59-47.52-93.5-2.5-3.51-2.94-9.4-4.34-14.18"/>
        <path class="cls-1" d="M428.87,258.56c.01-7.17.28-14.36,0-21.52-3.18-83.47-21.92-160.86-55.77-232.34"/>
        <path class="cls-1" d="M434.32,348.23c0,4.18-.02,8.37-.02,12.55,3.23,24.98,14.71,44.77,30.67,61.27,11.54,11.94,22.54,25.14,32.21,39.5,13.64,20.26,16.43,45.68,16.96,71.53.14,6.9-2.04,15.49,8.88,16.29,12.75-13.6,36.4-44.38,50.22-59.13"/>
        <path class="cls-1" d="M569.97,493.73c2.85-20.92,6.55-50.72,8.97-71.72,3.22-28.02,6.42-56.09,8.53-84.27,2.38-31.85,9.94-61.74,18.54-91.44,1.48-5.13,1.97-10.72,2.92-16.1"/>
        <path class="cls-1" d="M226.23,331.7c6.57-4.77,13.42-9.01,19.67-14.4,27.81-24.03,53.48-51.37,67.41-91.41,9.99-28.73,13.37-59.52,9.22-91.33-1.04-7.94,1.61-16.67,2.56-25.04"/>
        <path class="cls-1" d="M135.85,535.96c16.17-58.09,53.62-88.47,93.01-116.43,19.82-14.07,39.32-28.86,59.21-42.76,9.55-6.67,19.82-11.64,29.42-18.22,3.35-2.3,5.66-7.09,8.44-10.75-.6-1.39-1.2-2.77-1.8-4.16-4.52,1.45-9.04,2.9-13.56,4.35-3.75,1.2-7.5,2.38-11.26,3.57"/>
        <path class="cls-1" d="M368.14,1131.77c10.93-21.88,14.6-46.18,17.39-71.63,5.03-45.9.28-90.91-2.42-136.41-1.76-29.62,1.6-59.72,2.3-89.61.08-3.54-2.16-7.17-3.33-10.76"/>
        <path class="cls-1" d="M410.89,835.96c5.65-15.53,10.67-31.52,17.21-46.42,3.83-8.72,9.65-16.29,15.36-23.34,13.34-16.48,27.48-31.94,40.54-48.76,3.04-3.92,5.62-13.35,4.01-17.3-4.54-11.1-2.09-20.65.54-30.81,10.62-41.03,6.4-77.84-16.4-111.5-13.55-20-25.02-42.4-36.47-64.54-4.65-9-12.31-25.36-15.58-35.53"/>
        <path class="cls-1" d="M410.16,1223.31c.01-5.89.02-11.79.03-17.68,10.31-62.54,38.91-112.08,74.56-156.47,10.66-13.28,18.07-30.77,27.13-46.17,1.97-3.35,4.64-6.02,6.99-9.01"/>
        <path class="cls-1" d="M478.04,1019c14.52-23.88,20.56-52.53,26.58-80.75,5.63-26.42,10.15-53.49,12.59-80.65,1.41-15.74-2.32-32.2-3.57-48.36-.32-4.14-.03-8.36-.03-12.55"/>
        <path class="cls-1" d="M230.5,304.8c6.12-11.94,11.9-24.19,18.43-35.76,8.6-15.23,17.04-30.79,26.88-44.67,18.28-25.8,28.89-55.52,32.41-89.78,1.54-15,3.75-29.89,5.65-44.83"/>
        <path class="cls-1" d="M165.89,1219.33c-1.86-7.77-10.36-22.89-13.03-30.18-14.05-38.39-4.84-76.13,13.38-109.33,13.98-25.48,32.45-46.95,48.81-70.33,2.67-3.82,4.75-8.31,7.1-12.49"/>
        <path class="cls-1" d="M570.56,1173.4c-1.38-11.36-1.8-23.09-4.36-34-5.39-22.98-10.5-46.34-18.27-68.07-12.78-35.76-17.33-72.65-14.72-111.41-3.46-2.47-6.75-4.82-10.05-7.17"/>
        <path class="cls-1" d="M405.04,218.16c-.77-53.72-4.34-106.7-25.02-155.17-7.92-18.56-15.81-37.13-23.89-55.58-.73-1.68-2.72-2.46-4.12-3.66"/>
        <path class="cls-1" d="M631.78,1067.14c-10.68-13.33-19.68-27.33-31.68-40.33-16-17-33-31-48-48,2-25,1-51-2.12-76.23"/>
        <path class="cls-1" d="M413.48,954.32c2.37-15.54,4.52-31.14,7.16-46.6,7.62-44.66,24.63-83.85,43.65-121.98,6.51-13.04,11.44-27.37,17.09-41.1"/>
        <path class="cls-1" d="M242.98,1304.07c-.93-3.59-6.89-14.78-8.69-17.41-15.22-22.37-26.22-40.67-40.49-63.97-23.47-38.32-26-92.86-10.33-132.97,1.93,4.58,5.08,8.58,4.47,11.13-11.71,49.25,2.16,88.78,28.16,123.87,11.61,15.66,24.07,30.4,34.83,46.94,9,13.83,18.85,33.7,26.79,48.66"/>
        <path class="cls-1" d="M232.1,204.38c-4.62-14.67,3.99-26.33,6.2-39.3,2.55-14.94,9.84-28.45,13.46-43.22,9.53-38.89,9.12-77.44-5.33-114.65-.65-1.67-2.71-2.46-4.12-3.66"/>
        <path class="cls-1" d="M471.61,703.37c.98-23.31,4.56-47.04,2.34-69.84-3.37-34.59-19-63.35-34.24-91.74-7.33-13.66-17.42-38.33-23.96-52.68"/>
        <path class="cls-1" d="M210.98,220.48c7.34-22.47,2.65-45.29,1.83-68.16-.56-15.45,2.69-31.1,2.4-46.6-.7-37.39-7.49-72.5-27.72-101.38"/>
        <path class="cls-1" d="M205.49,1622.82c-8.39-22.73-18.41-44.75-24.81-68.36-9.99-36.86,16.91-70.09,37.66-63.98,6.95,2.05,14.23,6.54,19.5,12.57,10.57,12.1,19.47,26.55,29.88,38.92,3.93,4.67,14.61,6.36,19.76,9.36"/>
        <path class="cls-1" d="M338.53,1519.97c-12.59-35.29-29.77-84.21-42.69-119.3-10.39-28.2-9.98-52.09-1.81-81.52"/>
        <path class="cls-1" d="M460.34,715.9c-.45-11.96-1.74-23.98-1.18-35.86,1.8-37.93-7.13-72.5-19.8-105.76-6.59-17.3-23.74-42.89-31.21-59.64"/>
        <path class="cls-1" d="M424.75,943.58c4.26-19.72,6.66-40.49,13.14-58.94,15.85-45.15,33.58-89.22,51.12-135.21-2.57-3.46-4.39-5.92-6.47-8.71,1.78-1.52,5.13-4.39,10.57-9.06,3.81,12.91,7.27,24.62,10.73,36.33"/>
        <path class="cls-1" d="M417.67,970.47c14.82-2.66,1.54-18.18,7.08-25.09.47,0,1.1-.25,1.38.05,1.01,1.08,1.9,2.35,2.38,2.97,12.81-32.51,24.3-66.32,39-97.68,14.57-31.07,20.61-65.43,27.94-100.54,7.92,4.98,18.9,3.22,12.81,21.79,13.07,3.62,25.9,5.31,37.61,10.86,17.31,8.21,36.12,15.36,46.21,37.52,5.99,13.15,18.82,23.68,12.81,42.89"/>
        <path class="cls-1" d="M376.61,1856.27c-23.62-11.15-48.28-12.36-73.1-12.77-29.61-.49-54.47-12.51-68.81-48.47"/>
        <path class="cls-1" d="M246.25,1228.61c-15.6-35.13-17.81-94.31-10.05-132.9,5.7-28.37,9.05-56.87,8.43-86.12"/>
        <path class="cls-1" d="M131.85,421.18c3.3-7.76,5.53-16.78,10.08-23.07,16.28-22.5,33.87-43.02,46.78-69.74,15.02-31.08,17.14-60.44,9.07-95.7-7.04-30.76-21.47-51.41-38.67-71.53-33.31-38.96-56.64-85.95-68.59-141.77-1.1-5.16-1-10.73-1.46-16.11"/>
        <path class="cls-1" d="M411.31,1312.17c1.9-11.35,6.03-30.76,7.05-42.24,3.04-34.13,15.46-62.96,32.94-87.45,19.39-27.16,41.47-51.15,61.45-77.67,5.55-7.37,10.18-18.44,11.07-28.41,1.75-19.48.94-39.39.51-59.1-.42-19.15-2.13-38.25-2.36-57.4-.08-6.54,1.87-13.59,4.19-19.61,3.6-9.36,7.87-18.42,12.7-26.83,2.87-5,7.35-8.51,11.11-12.68"/>
        <path class="cls-1" d="M80.7,327.83c.71-2.39,2.51-5.34,1.96-7.08-6.96-22.08-6.05-46.45-14.71-68.56-13.85-35.38-25.25-72.4-36.53-109.31-4.11-13.46-4.92-28.56-7.24-42.91"/>
        <path class="cls-1" d="M220.89,186.43c12.59-46.07,15.64-93.59,11.08-141.58-1.35-14.2-7.95-27.58-12.14-41.34"/>
        <path class="cls-1" d="M379.44,1847.31c-20.25-18.22-42.99-24.2-67.46-23.7-12.64.26-25.58-.53-37.89-3.82-15.52-4.14-28.16-14.94-33.75-35.51"/>
        <path class="cls-1" d="M180.15,161.25c-3.71-18.54-5.92-37.84-11.44-55.46C155.2,62.64,134.99,25.8,97.95,1.5c1.98,12.52,2.86,22.67,5.23,32.23,7.8,31.49,24.48,56.46,41.02,80.24,14.15,20.35,25.03,46.06,47.02,56.84,4.01,1.97,5.59,11.55,8.62,17.34,3.53,6.75,7.43,13.21,11.16,19.79"/>
        <path class="cls-1" d="M295.17,860.61c-1.4-2.99-6.63-16.68-6.41-19.47,2.48-31.82-5.63-61.42-11.34-91.49-5.46-28.77-6.71-57.38.13-86.12,1.08-4.55,1.04-9.53,1.52-14.31"/>
        <path class="cls-1" d="M301.22,828.58c-5.06-48.43-10.49-96.8-14.94-145.32-1.11-12.16.94-24.8,1.67-40.01-22.35,11.16-29.58,31.81-32.52,54.41-2.68,20.56-3.4,41.8-2.96,62.67.38,18.01-12.62,21.66-19.19,29.47"/>
        <path class="cls-1" d="M383.14,644.03c-1.39-7.77-3.58-15.47-4.03-23.33-1.7-29.86-2.9-59.76-4.16-89.66-.6-14.34-.68-28.71-1.44-43.03-.44-8.41-1.76-16.75-2.68-25.12"/>
        <path class="cls-1" d="M630.88,217.68c-3.87-10.13-5.83-23.2-13.09-31.58"/>
        <path class="cls-1" d="M616.67,490.25c5.53-7.94,10.42-16.32,14.67-25.02"/>
        <path class="cls-1" d="M256.52,674.27c-4.17-17.29,2.43-32.8,5.99-48.31,11.05-48.24,28.48-92.19,57.63-127.31"/>
        <path class="cls-1" d="M222.51,812.29c3.69-7.48,7.39-14.96,10.45-21.15-2.42-9.32-4.88-16.34-6.05-23.7-7.36-46.54-32.33-68.66-65.91-81.32-13.85-5.22-26.34-16.26-39.45-24.66"/>
        <path class="cls-1" d="M202.88,653.98c-27.94-11.7-54.25-31.42-67.79-64.73-5.3-13.03-2.1-31.68-2.98-52.94-10.7-23.18-5.24-45.4,15.41-77.15,17.52-26.95,39.35-47.85,65.9-59.46,3.51-1.54,6.6-4.65,9.89-7.04"/>
        <path class="cls-1" d="M413,1208.97c14.58-44.93,38.06-80.49,67.28-111.7,15.57-16.63,26.75-39.95,39.92-60.25"/>
        <path class="cls-1" d="M78.02,465.94c0,27.86.81,64.64,4.38,91.43,5.43,40.69,27.77,60.34,56.14,71.63,8.09,3.22,20.08,3.45,28.51,5.26"/>
        <path class="cls-1" d="M599.11,214.05c1.85-2.99,2.53-6.13,2.94-8.8,9.13-60.24-16.64-108.55-45.09-152.39-11.97-18.44-26.99-33.67-39.34-48.79"/>
        <path class="cls-1" d="M387.93,1079.8c2.84-11.95,6.6-23.68,8.34-35.89,6.41-45.03,2.6-89.24-8.02-132.68"/>
        <path class="cls-1" d="M631.79,1016.36c-22.69-18.56-45.69-35.56-64.69-60.56-4-5-9-8-12.98-11.98"/>
        <path class="cls-1" d="M630.77,980.74c-19.81-15.59-45.75-21.26-61.59-41.93-2.12-2.77-3.88-5.96-6.69-8.1-2.56-1.95-5.62-3.12-8.33-4.81"/>
        <path class="cls-1" d="M625.35,1202.2c2.19-.52,4.33-1.22,6.41-2.08"/>
        <path class="cls-1" d="M594.37,484.83c12.23,7.06,24.63,13.79,37.04,20.52"/>
        <path class="cls-1" d="M446.23,740.98c1.44-20.32,4.69-40.75,3.95-60.94-1.39-38.27-12.38-72.65-31.76-102.3"/>
        <path class="cls-1" d="M234.4,1214.01c-33.58-28.34-30.76-76.27-20.59-123.68,2.95-13.75,9.15-26.38,13.87-39.52"/>
        <path class="cls-1" d="M597.2,1216.49c8.63-4.21,17.26-8.42,24.35-11.88,20.19-49.11,9.2-89.57-15.87-125.93-9.35-13.56-21.29-24.21-32.05-36.18"/>
        <path class="cls-1" d="M397.02,1476.13c7.04-5.96,13.7-12.93,21.2-17.69,18.12-11.5,31.06-29.53,39.13-52.28,9.46-26.68,28.36-39.02,47.03-47.17,26.19-11.44,36.08-36.09,41.66-65.6,3.49-18.5,4.47-38.16,4.22-57.25-.13-10.24,10.04-17.9,3.35-28.7"/>
        <path class="cls-1" d="M371.87,654.76c-7.56-12.76-10.57-26.28-10.24-43.07.7-35.82-2.02-71.73-1.75-107.58.11-14.11-.58-30.15,9.54-41.23"/>
        <path class="cls-1" d="M231.89,1791.44c2.9-4.99,5.8-9.97,9.55-16.41,13.67,22.67,29.16,29.77,48.05,31.39,24.01,2.06,47.82,7.94,71.72,12.17"/>
        <path class="cls-1" d="M241.91,1222.8c-24.83-28.65-30.97-84.01-21.84-119.63,8.23-32.1,11.35-65.24,18.95-97.18"/>
        <path class="cls-1" d="M366.16,697.79c-10.26-25.72-21.04-51.14-30.61-77.27-6.77-18.49-11.39-37.97-10.11-59.11.39-6.45-1.65-13.13-2.57-19.71"/>
        <path class="cls-1" d="M343.96,1488.63c-7.46-22.73-17.85-61.07-27.37-82.29-12.46-27.76-20.72-55.97-19.11-88.21"/>
        <path class="cls-1" d="M387.41,1350.59c-25.09-41.75-40.3-86.39-25.14-141.26,4.69-.74,9.43-1.48,14.16-2.23"/>
        <path class="cls-1" d="M218.14,154.15c2.39-23.91,6.39-47.78,6.66-71.73.22-19.09-3.45-38.44-6.73-57.3-1.35-7.73-6.22-14.45-9.48-21.63"/>
        <path class="cls-1" d="M282.73,937.93c10.83-23.89,21.14-48.19,32.66-71.53,8.02-16.26,19.36-30.09,26.25-46.97,11.05-27.08,15.73-56.38,4.62-85.73-7.19-19-14.54-38.24-23.96-55.46-12.35-22.57-18.87-46.42-17.98-73.83.09-2.94-1.73-5.97-2.66-8.96"/>
        <path class="cls-1" d="M526.84,502.63c-2.33-8.97-4.59-17.97-6.99-26.91-7.69-28.65-25.22-47.04-41.93-66.6-14.14-16.56-27.24-34.56-40.8-51.92"/>
        <path class="cls-1" d="M345.05,1490.95c3.26-48.76-16.23-95.14-29.82-135.64-5.39-16.07-11.56-37.06-3.65-56.87"/>
        <path class="cls-1" d="M512.7,543.85c-1.87-2.99-5.15-5.81-5.39-9-1.99-26.94-14.01-46.47-28.21-64.6-17.72-22.61-36.4-44.2-47.68-73.6"/>
        <path class="cls-1" d="M418.35,1348.85c3.78-16.13,8.49-32.02,11.13-48.45,4.04-25.17,12.77-46.97,25.72-66.17,7.13-10.57,15.26-20.06,22.29-30.73,1.81-2.75,1.15-8.15,1.63-12.34"/>
        <path class="cls-1" d="M240.39,1760.97c16.75,22.58,39.22,19.35,60.43,21.59,16.77,1.77,31.95,9.21,46.43,19.71,2.33,1.69,5.55,1.36,8.37,1.96"/>
        <path class="cls-1" d="M364.71,721.1c-2.34-1.2-5.97-1.56-6.83-3.72-14.31-35.68-35.3-67.3-41.88-107.63-1.87-11.45-.03-23.84-.35-35.78-.1-3.63-1.73-7.18-2.66-10.77"/>
        <path class="cls-1" d="M302.61,841.13c-.89-18.03,11.7-21.91,19.81-30.34,2.89-3.01,6.56-4.8,10.79-7.8,2.11-24.78-3.69-48.01-10.58-71.27-7.54-25.45-13.79-51.52-21.28-76.99-1.87-6.36-6.33-11.47-9.6-17.16"/>
        <path class="cls-1" d="M413.88,746.3c15.87-33.41,11.95-68.66,5.75-103.98-2.33-13.29-5.5-26.33-8.29-39.49"/>
        <path class="cls-1" d="M419.27,868.25c1.9-10.76,2.92-21.92,5.86-32.19,7.6-26.53,20.82-48.6,34.88-70.21,7.42-11.41,18.5-21.16,17.19-39.16"/>
        <path class="cls-1" d="M130.16,566.43c-31.06-46.79-21.53-94.15.7-142.01,3.8-.81,10.27-.13,14.9-3.53,23.41-17.23,48.94-26.68,74.74-35.41"/>
        <path class="cls-1" d="M559.28,1191.31c-.47-1.2-1.48-2.53-1.32-3.57,5.67-35.66-5.7-67.01-15.47-98.62-3.99-12.9-9.22-25.18-13.88-37.74"/>
        <path class="cls-1" d="M583.12,1223.64c11.26,1.29,12.81-12.03,16.63-19.92,22.59-46.7,15.18-82.46-9.45-123.41-.92-1.53-3.63-1.32-5.5-1.92"/>
        <path class="cls-1" d="M352.82,1791.67c-9.83-7.79-18.94-18.54-29.64-22.73-19.6-7.68-40.16-11.33-60.27-16.98-6.65-1.87-13.13-4.72-19.69-7.13"/>
        <path class="cls-1" d="M398.27,1431.74c-1.84-19.73-2.12-47.44-5.55-66.71-5.38-30.23-12.54-59.95-19.26-89.77-7.6-33.75-2.87-67.06,1.64-100.44"/>
        <path class="cls-1" d="M78.32,471.29c-.45-8.37-.87-16.74-1.36-25.11-2.79-47.7-18.12-90.3-33.61-132.7-8.67-23.72-19.02-46.44-27.68-70.18-4.79-13.12-7.64-27.4-11.36-41.15"/>
        <path class="cls-1" d="M387.84,1126.43c24.34-9.38,31.56-35.09,36.66-62.7,5.11-27.64-1.06-54.09-5.45-80.7"/>
        <path class="cls-1" d="M417.65,981.23c-.46-3.59.04-8.19-1.53-10.61-17.89-27.63-4.96-57.55-3.46-86.2.89-17.01-.29-32.67-4.49-48.5-2-7.52-3.09-15.44-4.88-24.66-3.41-1.65-7.72-3.73-12.02-5.82"/>
        <path class="cls-1" d="M418.07,760.66c9.85-5.96,20.61-10.34,29.28-18.37,7.03-6.51,10.74-18.63,17.42-26.06,7.96-8.85,17.53-15.36,27.95-19.99.47-.3.94-.6,1.41-.89-.23-.3-.71-.71-.67-.88,3.5-12.56,8.28-24.8,10.24-37.74,2.03-13.37,2.1-27.45,1.65-41.15-.7-21.56-1.6-43.26-4.34-64.49-1.3-10.08-6.04-20.19-10.96-28.63-18.71-32.14-38.11-63.63-57.38-95.24-.76-1.24-2.73-1.28-4.13-1.88"/>
        <path class="cls-1" d="M268.3,1872.2c12.66-1.77,25.29-3.98,37.98-5.2,16.85-1.61,33.75-3.12,50.63-3.22,5.61-.03,11.24,4.42,16.86,6.82"/>
        <path class="cls-1" d="M249.51,1229.77c-.9-17.34-3.26-73.96-1.9-91,2.27-28.29,10.06-89.87,13.87-117.96"/>
        <path class="cls-1" d="M347.24,1771.93c-14.5-19.57-33.03-25.61-53.37-27.25-13.66-1.1-27.16-4.93-40.8-6.8-4.58-.63-9.36,1.02-14.15,1.65-.69,12.47-1.39,25.02-2.08,37.58"/>
        <path class="cls-1" d="M402.73,1429.52c7.98-7.76,17.21-14.11,23.72-23.53,20.74-29.98,31.9-66.77,42.61-103.67"/>
        <path class="cls-1" d="M199.92,1597.7c-.44-13.75-.76-27.51-1.36-41.25-.62-14.29,5.05-23.58,14.15-30.48,9.21-6.98,17.92-4.65,25.17,3.85,6.09,7.15,16.73,10.27,15.57,24.93"/>
        <path class="cls-1" d="M391.75,1467.73c28.47-31.86,53.14-70.43,70.16-113.43,2.55-6.45,10.03-19.31,12.39-25.88"/>
        <path class="cls-1" d="M504.12,1356.19c8-16.72,18.76-32.29,23.44-50.4,10.3-39.87,9-81.05.78-121.7-2.67-13.19-5.56-26.32-8.34-39.47"/>
        <path class="cls-1" d="M249.35,747.78c-2.81-2.4-7.51-4.17-8.14-7.28-7.86-39.4-35.8-44.72-59.28-57.29-19.01-10.17-38.36-19.32-57.56-28.92"/>
        <path class="cls-1" d="M412.44,760.64c-2.3-25.11-4.21-50.29-7.01-75.31-2.16-19.25-7.55-59.84-10.32-78.97"/>
        <path class="cls-1" d="M528.84,927.64c.96-13.75,1.89-27.5,2.9-41.24,2.43-33.24-.13-64.65-17.91-91.71-4.16-6.32-5.8-15.34-8.59-23.11"/>
        <path class="cls-1" d="M188.65,132.57c8.19-.11,7.75-7.92,6.93-14.31-5.03-39.13-4.64-80.27-24.97-113.95"/>
        <path class="cls-1" d="M92.14,383.51c-.03,17.37.33,38.25.28,61.84,8.02,13.58,6.44,34.06,2.03,56.68-2.31,11.84.18,28.39,5.45,38.7,8.36,16.36,20.87,29.26,31.62,43.63"/>
        <path class="cls-1" d="M257.5,157.81c2.36-6.57,3.96-13.83,7.2-19.6,14.82-26.39,19.41-57.16,23.73-87.99.62-4.43-2.73-9.7-2.26-14.25.45-4.42,3.46-8.41,5.34-12.59"/>
        <path class="cls-1" d="M1.5,188.7c.84-18.92,1.77-35.01,2.24-51.11,1.11-37.54,10.45-72.06,22.5-105.9,3.19-8.96,6.84-13.32,14.33-12.39"/>
        <path class="cls-1" d="M1.51,187.8c.98,4.94,1.96,9.89,2.94,14.83"/>
        <path class="cls-1" d="M253.26,907.39c-2.32-11.96-5.34-23.78-6.82-35.91-3.27-26.75-7.26-53.56-1.55-80.72.67-3.2-.3-6.66-.76-10.25"/>
        <path class="cls-1" d="M536.73,1214.58c7.25-17.18,7.47-35.57,4.15-53.74-4.41-24.13-10.05-47.89-15.16-71.81"/>
        <path class="cls-1" d="M402.27,936.37c-3.73-25.79-10.79-50.77-5.88-78.13,2.73-15.19,1.4-31.56,1.9-47.4"/>
        <path class="cls-1" d="M165.64,397.93c9.86-7.15,19.14-16.77,29.72-20.81,12-4.59,25.15-5.39,37.83-5.66,16.81-.37,33.55-.57,49.19-9.29,18.96-10.58,30.04-32.38,42.1-52.02,15.22-24.79,44.86-98.12,51.13-128.66"/>
        <path class="cls-1" d="M357.66,1470.68c.61-9.05,1.21-18.1,1.82-27.15.69-37.35-23.52-60.92-35.04-93.04"/>
        <path class="cls-1" d="M362.53,626.1c-12.22-11.67-16.06-32.24-19.84-48.58-11.39-49.32,1.7-94.99,15.95-139.55,5.4-16.88,15.57-31.27,23.57-46.8"/>
        <path class="cls-1" d="M193.71,157.71c2.17-10.45-10.33-26.4-8.47-35.65,4.04-20.18-2.21-37.22-6.9-53.79-6.42-22.68-9.56-48.43-26.01-64.88"/>
        <path class="cls-1" d="M181.64,118.21c-8.85-26.92-16.46-54.67-27.08-80.4-5.5-13.33-16.32-23.09-24.73-34.47"/>
        <path class="cls-1" d="M352.87,1768.36c-9.48-20.65-23.38-32.65-42.1-36.08-9.73-1.78-18.93-3.02-27.37-13.38-5.33-6.54-17.09-5.18-26.05-6.19-30.57-3.43-45.59-27.27-51.93-62.98-.22-1.27-.9-2.4-1.37-3.6"/>
        <path class="cls-1" d="M298.39,1146.18c-4.64-25.11-5.51-50.46-10.32-75.52-6.2-32.33-3.99-64.74.49-96.79,2.8-20.05,8.4-39.45,12.3-59.28.5-2.53-1.67-5.92-2.6-8.91"/>
        <path class="cls-1" d="M501.54,564.56c-18.22-29.32-39.57-63.07-57.5-92.69-4.97-8.22-15.39-26.03-19.59-35"/>
        <path class="cls-1" d="M92.55,383.45c-2.32-11.96-3.1-24.91-7.33-35.64-6.02-15.29-15.24-28.47-21.9-43.43-11.28-25.33-21.72-51.27-32.19-77.17-1.14-2.83-.14-7.07-.13-10.66"/>
        <path class="cls-1" d="M23.31,187.85c-8.63-25.46-7.75-52.17-6.01-78.9.2-3.11,2.66-5.99,4.07-8.98"/>
        <path class="cls-1" d="M237.88,1601.36c-4.51,15.24-13.33,28.72-11.37,46.61,2.1,19.23,7,36.51,21.15,46.39,3.44,2.4,8.32,1.48,12.54,2.09"/>
        <path class="cls-1" d="M286.54,1893.76c20.82-1.01,39.78-10.32,59.49-17.97,15.58-6.05,36.1-9.45,51.76,9.01,2.72,3.21,7.35,3.8,11.09,5.6,12.34,16.77,6.39,32.91-1.62,48.31-4.96,9.53-11.16,18.02-16.8,26.97"/>
        <path class="cls-1" d="M418.3,1377.54c19.37-28.59,34.18-60.8,46.72-94.87,1.32-3.6,4.56-6.05,6.91-9.04"/>
        <path class="cls-1" d="M276.7,881.5c-2.31-18.53-4.76-43.64-8.04-61.89-2.54-14.1-7.03-27.67-11.08-41.26-.86-2.89-3.59-4.86-5.46-7.26"/>
        <path class="cls-1" d="M396.16,1928.04c.82-22.01-18.32-41.95-37.84-37.36-12.59,2.96-24.66,9.49-36.96,14.42-.03,1.56-.06,3.12-.1,4.68,3.41.66,6.91,2.3,10.23,1.84,22.34-3.12,44.49-5.79,61.84,18.23,2.92,4.05,5.63,8.36,8.43,12.55"/>
        <path class="cls-1" d="M374.05,2035.64c2.03-18.67,5.13-49.98,16.19-69.81-8.05-23.47-33.52-28.2-53.21-33.99-10.44-3.07-21.5-2.76-32.28-3.98"/>
        <path class="cls-1" d="M521.22,1239.66c2.94-21.97-.47-43.04-3.59-64.69-3.2-22.17-2.3-45.31-3.19-68.03"/>
        <path class="cls-1" d="M360.26,1445.68c4.83-25.88.36-54.3-9.32-75.52-5.78-12.68-10.38-26.23-15.51-39.39"/>
        <path class="cls-1" d="M484.41,1368.7c5.65-15.53,11.94-30.75,16.77-46.69,4.22-13.89,7.2-28.47,9.9-42.99.92-4.97-.7-10.7-1.16-16.08"/>
        <path class="cls-1" d="M630.65,962.93c-3.55-5.12-9.55-9.12-11.55-16.12-2-11-7-20-14-28-13-14-27-24-42-35-5-4-9-7-13.06-11.72"/>
        <path class="cls-1" d="M215.35,1613.87c-2.11-14.22-8.95-27.46-2.89-43.15,8.53-22.11,16.57-26.43,33.96-16.03,1.72,1.03,3.73,1.26,5.6,1.86"/>
        <path class="cls-1" d="M413.49,1305.2c10.84-33.3,33.43-84.75,54.81-108.03,10.51-11.45,22.22-20.42,29.26-36.39,4.64-10.53,10.25-20.38,15.43-30.53"/>
        <path class="cls-1" d="M191,374.67c-2.11-10.87,3.91-18.62,7.35-26.7,8.05-18.9,16.29-37.48,18.05-59.34.48-5.92,1.42-12.62-.19-17.77-2.78-8.91.36-11.22,5.94-12.69"/>
        <path class="cls-1" d="M380.58,1985.4c-16.94-34.52-46.12-36.77-73.19-46.72,2.35,26.17,9.94,34.66,22.92,26.7-6.75-6.01-13.36-11.89-19.97-17.78"/>
        <path class="cls-1" d="M357,1457.29c-9.32-28.71-21.08-62.99-30.4-91.7-.96-2.97-2.32-14.42-3.26-17.41"/>
        <path class="cls-1" d="M223.61,231.27c4.24-9.56,8.44-19.14,12.72-28.66,10.4-23.16,23.7-43.36,37.94-62.87,14.37-19.69,25-42.45,28.49-69.69.25-1.94,1.79-3.6,2.73-5.39"/>
        <path class="cls-1" d="M494.42,1280.85c-6.83-24.43-10.4-49.27-7.06-75.37.73-5.73-.74-11.92-1.2-17.9"/>
        <path class="cls-1" d="M358.89,84.48c-3.07-30.9-8.75-60.27-29.42-80.68-.59-.58-1.83-.08-2.77-.08"/>
        <path class="cls-1" d="M382.08,1198.15c4.97-28.69,17.5-51.97,32.49-73.46,22.96-32.92,45.94-65.8,69.79-99.97-1.48-1.12-3.25-2.45-5.72-4.32-2.51,6.58-5.09,13.34-7.67,20.11"/>
        <path class="cls-1" d="M261.48,1023.13c-9.49-25.13,1.95-112.21,22.75-128.23,7.96-6.13,12.41-21.76,10.94-34.3"/>
        <path class="cls-1" d="M302.6,842.93c4.22-2.98,8.85-5.31,12.58-9.09,6.34-6.41,12.72-11.38,21.2-8.78"/>
        <path class="cls-1" d="M553.5,1268.41c7.19-14.46,16.16-27.17,24.44-40.37,8.92-14.24,14.31-36.1,14.25-54.59-.11-32.31-3.24-65.34-9.5-96.63-5.49-27.42-17.11-52.81-25.73-79.26-1-3.05-.12-7.1-.12-10.69"/>
        <path class="cls-1" d="M306.14,1938.63c-1.65-21.88-14-34.97-25.37-48.26-10.54-12.33-22.11-23.31-33.58-34.26-18.94-18.06-24.71-36.84-18.12-61.09"/>
        <path class="cls-1" d="M131.75,668.5c-3.26-2.32-7.6-4.64-11.95-8.12-16.33-22.16-32.67-42.93-51.56-68.56.05-24.92.1-53.01.15-80.2"/>
        <path class="cls-1" d="M544.59,780.62c-1.4-2.39-2.41-5.61-4.27-7.06-21.11-16.51-35.36-39.58-41.99-70.14"/>
        <path class="cls-1" d="M236.21,1737.65c-7.48-9.58-14.92-19.21-22.45-28.72-17.5-22.09-22.56-59.25-6.91-81.77,9.83-14.14,26.1-21.02,39.47-31.16"/>
        <path class="cls-1" d="M519.29,776.99c11.69,26.52,26.41,49.98,50.62,56.89,16.37,4.68,23.98,20.94,34.92,33.03.96,1.06,1.39,3.49,1.4,5.29.09,13.75,0,27.5-.02,41.24"/>
        <path class="cls-1" d="M279.96,1657.03c6.02-12.93,4.01-26.3-1.63-37.42-7.19-14.18-16.53-26.58-24.94-39.74"/>
        <path class="cls-1" d="M508.74,409.34c-6.39-13.66-12.78-27.33-19.14-40.92-3.26,2.69-4.68,3.86-5.32,4.39-17.9-24.1-39-45.02-47.04-78.37"/>
        <path class="cls-1" d="M397.77,344.58c5.19-18.52,10.57-36.96,15.48-55.6,1.98-7.53,2.93-15.5,4.36-23.26"/>
        <path class="cls-1" d="M183.28,1089.31c13.64-22.69,29.26-51.85,43.19-74.24,2.82-4.53,7.38-7.3,11.13-10.88"/>
        <path class="cls-1" d="M30.88,275.73c-2.32-10.76-4.17-21.75-7.08-32.24-4.21-15.16-9.2-29.96-13.86-44.91"/>
        <path class="cls-1" d="M241.95,925.62c.46,7.17,2.75,16.05,3.26,23.22.88,12.56.1,19.11,2.17,31.34.73,4.3-1.09,15.09-9.78,24.38"/>
        <path class="cls-1" d="M261.48,1020.81c2.07,20.93,3.01,48.69,5.81,69.45.63,4.67,5.29,8.45,8.09,12.64"/>
        <path class="cls-1" d="M548.68,846.98c3.28.6,7.38-.19,9.71,2.04,15.23,14.53,30.07,29.72,45.05,44.69"/>
        <path class="cls-1" d="M483.66,1022.6c9.41-19.11,18.75-38.28,28.28-57.29,2.52-5.02,5.6-9.59,8.42-14.37"/>
        <path class="cls-1" d="M367.86,1466.57c1.42-8.37,4.43-21.51,4.7-29.94.63-20.3.71-42.61.75-62.93"/>
        <path class="cls-1" d="M345.5,1207.04c4.71-11.95,10.1-23.55,13.92-35.94,3.35-10.86,4.94-22.6,7.3-33.96"/>
        <path class="cls-1" d="M536.11,803.92c17.4,1.55,33.97,6.71,49.25,17.89,1.41,1.03,3.69.14,5.56.15"/>
        <path class="cls-1" d="M266.18,1506.37c10.97,29.12,21.08,59.41,53.47,63.01,3.71-4.82,9.23-8.85,10.79-14.61,5.56-20.54,9.78-41.68,14.51-62.59"/>
        <path class="cls-1" d="M359.06,1472.48c49.69-19.94,71.09-110.19,48.13-168.48"/>
        <path class="cls-1" d="M337.44,1531.58c3.29-2.38,4.61-2.32,7.37-5.45,8.68-9.83,16.56-20.87,25.58-30.11,7.67-7.84,19.38-14.38,27.87-21.33-.65-1.52-4.87-3.15-6.52-6.96"/>
        <path class="cls-1" d="M271.23,1248.34c10.57-14.05,15.07-34.65,17.99-52.18.89-5.35,1.13-10.87,1.67-16.32,1.36-.39,2.73-.79,4.09-1.18,2.31,8.83,4.62,17.67,6.93,26.5"/>
        <path class="cls-1" d="M231.08,988.31c3.32-17.93,7.59-45.08,10.9-63.01"/>
        <path class="cls-1" d="M253.89,909.37c11.75-14.92,29.53-33.84,41.27-48.76"/>
        <path class="cls-1" d="M278.44,1714.42c-.93-3.59-1-9.03-2.92-10.48-25.44-19.2-33.5-40.19-29.35-75.67,2.86-24.41,4.87-48.99,7.26-73.49"/>
        <path class="cls-1" d="M430.17,315.94c.02-8.37.4-16.77-.06-25.1-.43-7.82-.32-16.46-2.95-23.14-6.11-15.53-13.72-30.1-20.72-45.05"/>
        <path class="cls-1" d="M261.45,1240.22c2.84-16.73,13.67-43.49,16.64-60.19,1.08-6.07,2.67-12,2.37-17.6-1.25-9.68-7.98-55.32-9.23-65"/>
        <path class="cls-1" d="M468.87,1302.87c.75-22.71,8.16-54.93,8.69-77.65.14-5.96-.82-11.95-1.28-17.93"/>
        <path class="cls-1" d="M74.45,288.37c-8.87-16.75-17.53-33.71-26.72-50.18-4.61-8.26-10.19-15.65-15.33-23.43"/>
        <path class="cls-1" d="M368.66,125.74c-.24-16.2-4.04-29.68-13.77-41.56-15.77-19.27-29.94-40.67-45.25-60.58-3.7-4.82-9.22-7.37-13.9-10.97"/>
        <path class="cls-1" d="M395.11,606.36c3.8-.8,12.58-3.36,16.62-4.21,3.79-17.73,2.1-37.58-10.1-52.68"/>
        <path class="cls-1" d="M396.2,576.18c3.55-17.33,25.79-130.11,29.34-147.43"/>
        <path class="cls-1" d="M425.73,428.91c5.44-17.43-5.46-30.89-5.83-46.91-1.48.13-2.96.26-4.43.4.61,14.9-24.21,80.2-23.6,95.11"/>
        <path class="cls-1" d="M406.97,1302.88c-7.93-22.73-25.45-56.92-33.38-79.65"/>
        <path class="cls-1" d="M252.77,1232.09c1.91-20.32,12.22-120.15,14.14-140.47"/>
        <path class="cls-1" d="M280.71,1264.31c13.45-10.14,14.16-28.97,13.33-44.99-.31-5.95,5.57-12.67,6.52-16.25"/>
        <path class="cls-1" d="M283.49,1280.45c13.33-10.17,17.2-28.09,22.64-44.76,1.04-3.18,2.77-6,4.18-8.99"/>
        <path class="cls-1" d="M286.11,643.84c2.83-8.96,7.75-17.8,8.07-26.91.75-21.16,8.89-38.61,14.59-57.33"/>
        <path class="cls-1" d="M230.61,1725.08c10.78,1.22,21.54,2.79,32.34,3.53,8.41.58,16.87.15,25.31.16"/>
        <path class="cls-1" d="M370.23,774.91c13-14.29-.06-59.71-4.45-78"/>
        <path class="cls-1" d="M275.99,1524.32c16.76.51,29.85-6.31,35.21-28.63"/>
        <path class="cls-1" d="M379.24,1212.49c4.19,12.56,8.07,25.32,12.74,37.58,1.83,4.8,8.47,23.79,10.65,35.4"/>
        <path class="cls-1" d="M274.33,1657.02c-7.47-17.95-14.93-35.89-22.4-53.84"/>
        <path class="cls-1" d="M467.51,1383.02c2.37-11.95,5.22-23.79,6.89-35.9.79-5.7-.7-11.91-1.22-17.88"/>
        <path class="cls-1" d="M222.4,1608.5c.8-19.4,1.64-38.77,16.97-50.18"/>
        <path class="cls-1" d="M280.19,1533.3c3.75,1.2,7.56,2.15,11.23,3.65,15.82,6.47,21.19-.28,30.81-18.13"/>
        <path class="cls-1" d="M375.75,2008.3c-9.97-16.91-18.39-29.25-34.52-37.33"/>
        <path class="cls-1" d="M548.31,1040.66c-7.79-23.67-4.51-49.05-6.57-73.58-.63-7.48,2.52-15.49,3.94-23.26"/>
        <path class="cls-1" d="M515.66,545.98c2.36-7.17,7.98-19.83,9.61-27.26,2.84-12.98,5.69-26.11,7.06-39.42,2.7-26.17-6.5-47.29-19.39-66.36"/>
        <path class="cls-1" d="M566.22,1236.16c.96-11.36,2.2-22.69,2.75-34.08.26-5.32-.79-10.75-1.25-16.13"/>
        <path class="cls-1" d="M570.89,262.41c5.64-7.76,11.44-15.34,16.88-23.32,4.5-11.78,6.67-15.26,11.01-24.55"/>
        <path class="cls-1" d="M374.05,2035.64c-2.36-21.25-31.58-58.02-43.79-69.76"/>
        <path class="cls-1" d="M372.21,1373.7c-11.25-24.1-30.57-40.37-48.01-57.31"/>
        <path class="cls-1" d="M267.96,1356.3c1.95-18.55,14.28-39.73,14.8-59.69.46-17.59-5.18-30.65-10.46-44.88"/>
        <path class="cls-1" d="M274.29,1678.54c-8.41-15.56-16.82-31.12-25.22-46.67"/>
        <path class="cls-1" d="M269.01,1497.41c15.24-8.61,19.03-26.61,22.58-44.79"/>
        <path class="cls-1" d="M404.8,1295.92c.02-12.55-.71-33.19-.22-45.72.49-12.58,1.82-25.11,2.78-37.66"/>
        <path class="cls-1" d="M407.49,1886.82c0-2.99,1.01-7.07-.14-8.8-10.96-16.44-21.75-33.17-33.65-48.46-11.49-14.75-22.03-29.08-18.2-52.28.34-2.04-1.72-4.73-2.72-7.26-1.81,1.27-3.64,2.56-9,6.31,3.61,2.54,6.34,4.45,9.06,6.36"/>
        <path class="cls-1" d="M379.32,1169.45c8.47-17.32,16.94-34.64,25.41-51.96"/>
        <path class="cls-1" d="M275.59,1106.71c7.05,14.72,8.6,57.28,15.65,71.99,1.41-.7,2.81-1.4,4.22-2.1.65-11.81,7.05-22.3,1.3-32.73-5.8-10.52-16.97-28.68-21.17-40.64"/>
        <path class="cls-1" d="M375.58,181.34c11.6-19.68.98-35.49-5.53-52.02"/>
        <path class="cls-1" d="M98.03,455.19c9.39-9.55,18.79-19.09,28.18-28.64"/>
        <path class="cls-1" d="M206.48,369.32c3.3-7.76,5.59-16.67,10.08-23.07,12.29-17.53,12.92-38.07,11.07-59.36-1.31-15.02-1.66-41.09-3.51-56.04"/>
        <path class="cls-1" d="M474.64,1327.44c11.29-21.5,22.58-43,33.87-64.49"/>
        <path class="cls-1" d="M538.13,1221.76c13.16-17.91,27.39-34.79,38.87-54.3,3.83-6.51.64-19.75.66-29.91,0-4.18-.77-8.69.18-12.49,2.25-8.99,1.95-14.38-7.2-13.03-.65.1-1.83-5.58-2.76-8.57"/>
        <path class="cls-1" d="M328.77,902.23c3.87-29.45,16.59-53.98,28.55-79.06,2.13-4.46,2.06-10.63,3.01-16"/>
        <path class="cls-1" d="M328.83,902.39c-1.17,3.7-1.78,9.24-3.26,13.93"/>
        <path class="cls-1" d="M493.29,400.35c-2.8-8.97-5.59-17.94-8.39-26.92"/>
        <path class="cls-1" d="M547.96,859.53c-2.08-13.75-4.17-27.5-6.25-41.26"/>
        <path class="cls-1" d="M548.36,1015.55c1.92,6.55,3.84,13.1,6.41,21.86-2.24,1.45-5.04,3.26-7.65,4.94,3.82,11.23,6.9,20.29,10.66,31.32,7.06-14.99-2.15-24.11-3.83-34.81"/>
        <path class="cls-1" d="M377.91,1173.03c-3.23-7.17-3.44-13.13-1.43-19.76,2.14-7.04,3.83-14.31,5.72-21.48"/>
        <path class="cls-1" d="M296.11,1300.2c5.17-7.76,10.34-15.52,15.51-23.28"/>
        <path class="cls-1" d="M301.96,1917.1c7.03-1.18,14.07-2.36,21.1-3.55"/>
        <path class="cls-1" d="M611.24,492.57c6.68-2.42,13.33-4.92,19.99-7.41"/>
        <path class="cls-1" d="M258.23,992.95c3.3-11.95,9.92-26.95,13.23-38.9"/>
        <path class="cls-1" d="M504.21,568.94c3.53-7.17,7.06-14.33,10.59-21.5"/>
        <path class="cls-1" d="M275.65,1701.86c.96-13.75,1.93-27.49,2.89-41.24"/>
        <path class="cls-1" d="M274.02,935.85c3.53-11.92,7.57-25.54,11.6-39.16"/>
        <path class="cls-1" d="M232.55,1212.85c7.19,8.8,22.39,27.37,39.77,38.97"/>
        <path class="cls-1" d="M512.74,1261.16c6.11-9.55,12.22-19.11,18.34-28.66"/>
        <path class="cls-1" d="M68.24,513.54c.96-9.56,8.82-43.84,9.78-53.4"/>
        <path class="cls-1" d="M261.48,1020.38c-7.96-5.4-15.92-10.79-23.87-16.19"/>
        <path class="cls-1" d="M405.18,882.57c-1.86-5.98-3.73-11.96-5.59-17.94"/>
        <path class="cls-1" d="M285.88,25.16c-4.2-7.18-8.41-14.36-12.61-21.54"/>
        <path class="cls-1" d="M321.54,1235.69c-13.22-1.11-13.97-23.5-19.9-32.63"/>
        <path class="cls-1" d="M287.48,1551.33c6.33,3.98,46.06-6.66,47.79-17.42"/>
        <path class="cls-1" d="M283.21,937.22c-1.17,4.29-7.05,12.86-8.22,17.15-1.23-.18-2.46-.37-3.69-.55.53-5.3,2.69-14.78,3.22-20.08"/>
        <path class="cls-1" d="M294.67,1318.12c1.59-.35,2.82-11.41,1.68-17.43-5.03,2.13-8.26,3.49-11.5,4.86"/>
        <path class="cls-1" d="M333.61,805.33c5.6,1.9,11.2,3.79,18.57,6.28,5.49-5.17,11.75-11.07,18.01-16.97"/>
        <path class="cls-1" d="M258.23,1006.88c1.85-9.45,23.3-41.62,16.69-51.76"/>
        <path class="cls-1" d="M295.17,861.77c3.29-2.38,27.12-11.55,30.41-13.93"/>
        <path class="cls-1" d="M573.27,490.17c3.28-2.41,6.56-4.82,10.28-7.55,2.96,1.25,6.2,2.63,9.43,4,.93-1.8,4.29-5.03,5.24-6.82"/>
        <path class="cls-1" d="M334.11,541.71c-3.28-.6-6.56-1.21-9.84-1.81"/>
        <path class="cls-1" d="M220.2,385.1c5.73-2.64,11.46-5.28,17.19-7.92"/>
        <path class="cls-1" d="M191.39,168.44c.94-3.58,1.89-7.17,2.83-10.75"/>
        <path class="cls-1" d="M392.07,1858.09c-3.83-2.83-7.65-5.67-11.34-8.4-.79,1.83-1.81,4.16-3.64,8.37,3.27,0,5.61.01,7.96.02"/>
        <path class="cls-1" d="M573.52,1098.09c-1.23-3.09-2.46-6.19-3.85-9.67-4.6,9.13-4.39,9.94,2.44,11.46"/>
        <path class="cls-1" d="M134.67,415.81c7.98-4.77,23.34-13.6,31.32-18.37"/>
        <path class="cls-1" d="M569.32,1087.32c-.47-1.79-.94-3.58-1.42-5.37-.93-.01-1.86-.02-2.79-.04l-.02,8.99"/>
        <path class="cls-1" d="M562.29,1083.72c0-3,.01-5.99.02-12.2,3.46,5.32,4.54,6.97,5.61,8.62"/>
        <path class="cls-1" d="M344.09,1973.15c-3.44-2.21-10.85-7.43-13.84-7.26"/>
      </g>
    </g>
  </g>
</svg>