<?xml version="1.0" encoding="UTF-8"?>
<svg id="Layer_2" data-name="Layer 2" xmlns="http://www.w3.org/2000/svg" viewBox="0 0 1369.18 1064.66">
  <defs>
    <style>
      .cls-1 {
        fill: none;
        stroke: #e57221;
        stroke-linecap: round;
        stroke-linejoin: round;
        stroke-width: 3px;
      }
    </style>
  </defs>
  <g id="Gert_Ausloos" data-name="Gert Ausloos">
    <g>
      <path class="cls-1" d="M4.95,711.05c5.85,11.27,11.85,21.27,21.85,29.27,8,6,17,10,26,14,21,7,41,14,60,25,2,2,4,4,7,5,9,4,17,8,25,14,17,29,49,44,82,47,14,2,26,7,38,14,13,8,28,9,42,14,11,4,21,11,26,22,2,6,3,13,5,19,2,5,6,9,10,13,3,5,7,8,9,14,3,14,1,27,6,40,1,2,2,4,3,7,2,5,5,9,8,14,2,2,4,4,5,7l3,3c11,15,11,33,6.99,49.62"/>
      <path class="cls-1" d="M1.76,705.61c.87,1.49,1.74,2.97,2.61,4.46"/>
      <path class="cls-1" d="M23,595.81c-1.66,6.68-5.71,12.28-9.58,17.84-4.11,5.9-6.59,11.92-9.63,18.37"/>
      <path class="cls-1" d="M170.17,830.81c.63,1.51,1.63,3.51,3.63,4.51,12,5,22,13,34,18,7,2,14,3,20,7,19,13,40,19,62,25,11,3,21,8,29,18,8,11,11,23,15,36,3,10,7,18,13,27,2,4,2,8,1,12-3,10-4,18-3,28,2,11,10,18,16,27,5,9,5,19,2.01,28.23"/>
      <path class="cls-1" d="M4.36,731.64c6.44,5.68,11.44,11.68,18.44,15.68,21,11,42,20,59,37,11,5,23,6,35,8,9,2,14,11,20,18,5,5,10,7,15,12,1,1,1,3,2,4,4,4,7,9,11,13,9,10,20,18,32,24,11,5,22,9,33,16,2,1,2,3,4,4,31,20,51,47,71,77,7,12,12,24,14,37,0,7-4,13-3,20,3,15,9,28,9.78,43.49"/>
      <path class="cls-1" d="M3.36,547.09c5.03-1.86,9.93-4.05,14.73-6.45,3.95-1.97,7.21-3.78,7.73-8.54"/>
      <path class="cls-1" d="M578.11,414.25c-18.9-.28-36.9-.28-55.9,1.72-21,3-40,12-61,13-13,0-27,3-39,12-7,5-15,12-24,12-29,1-58,6-88,5-12-4-25-7-38-4-18,3-34,7-52,8-8,0-15,5-22,9l-3,3c-2,1-3,2-5,3-12,4-25,7-37,11-16,5-32,4-49,8-13,3-23,10-35,17-2,1-5,1-7,2-8,4-13,11-22,13-13,1-25,2-37.05,3.75"/>
      <path class="cls-1" d="M411.71,439.69c-19.77-5.57-192.88.99-191.24,7.95-11.06.63-19.22,6.7-28.14,12.39-13.31,8.49-28.53,11.97-44.76,9.91-25.37-3.21-47.68,4.47-67.07,20.07-6.16,4.96-9.36,13.16-15.96,18.13"/>
      <path class="cls-1" d="M685.39,318.41c-6.87,27.72,0,64.97-29.13,98.11-14.25,16.21-63.39,1.81-78.15-2.27"/>
      <path class="cls-1" d="M739.38,320.22c.7,11.38,10.8,18.88,12.7,36.38,4.92,30.23-25.84,93.17-64.33,101.82s-42.53.57-61.67-6.87c-14.21-5.52-29.31-7.49-44.47-9.22-4.87-.55-8.3.4-12.11,2.29"/>
      <path class="cls-1" d="M734.29,484.23c-18.09,14-21.35,19.1-44.42,16.33-7.52-.9-52.5-9.59-67.19-16.62-3.5-1.67-7.26-4.37-11.1-7.37-4.2-3.27-8.49-6.91-12.66-9.97"/>
      <path class="cls-1" d="M354.72,470.9c-6.59-5.07-14.06-1.91-20.87-1.61-8.91.39-17.86,1.93-26.46,5.37-12.78,5.1-26.43,3.6-39.86,2.75-20.82-1.31-39.67,4.87-57.52,14.57-4.2,2.28-8.25,4.23-13.05,3.45-22.23-3.64-40.85,4-57.25,17.97-8.03,6.84-17.67,10.84-27.56,11.38-26.57,1.45-51.43,9.9-76.79,16.22-7.47,1.86-15.88,4.43-20.33,12.26"/>
      <path class="cls-1" d="M779.19,368.7c-4.45,16.16-10.06,53.7-15.23,62.9s-25.42,35.24-46.62,37.17-62.66,6.91-93.56-5.27c-9.97-3.93-20.38-10.6-32.19-5.39"/>
      <path class="cls-1" d="M392.61,456.27c-1.4,2.7-4.4,4.7-7.4,6.7-14,8-30,9-44,15-10,3-21,2-31,3-11,2-20,9-30,14-7,2-14,4-21,3-18-4-34-1-50,6-13,0-26,3-38,7-9,4-19,8-27,14-11,10-27,10-40,14-10,4-16,17-27,16-7,0-14-1-20,2-9,5-19,7-30,7-2,0-4,1-6,2-5,2-9,5-14,6-1,0-2,1-2.97,1.55"/>
      <path class="cls-1" d="M367.25,417.27c-13.48-5.52-51.08-8.05-63.79-14.81-7.76-4.12-16.32-2.28-24.59-6.93s-18.72-9.38-26.85-8.91-13.28,3.02-23.16,9.36c-3.1,1.99-11.41,5.64-18.48,16.7"/>
      <path class="cls-1" d="M61.02,500.73c7.53-8.31,9.99-20.1,18.78-27.53,15.74-13.32,33-22.55,54.78-19.29,6.51.97,13.06.74,19.66,1.87,7.18,1.22,15.81-.34,21.32-5.11,9.09-7.85,19.94-10.25,30.83-12.91,6.94-1.69,12.57-5.26,17.46-9.92,10.1-13.73,24.25-14.68,41.95-17.8,9.62-1.69,164.32,17.2,177.23,21.43"/>
      <path class="cls-1" d="M107.09,688.74c3.57-20.37,22.84-25.23,37.52-17.86,20.53,10.3,36.42,26.22,49.45,44.97,4.51,6.49,9.37,12.78,11.55,20.59,2.53,9.09.5,19.1-7.89,26.13-9.64,8.08-21.34,8.73-32.75,10.79-1.2.22-2.76-1.43-4.15-2.21"/>
      <path class="cls-1" d="M241.93,873.29c4.87,8.03,10.87,14.03,17.87,20.03,12,9,25,13,37,22,11,9,19,20,23,34,6,23,8,44,14,67,0,1,2,3,2,4-1,14,3,28,6.92,41.41"/>
      <path class="cls-1" d="M34.62,565.34c-6.87,10.9-18.56,15.33-29.91,20.02"/>
      <path class="cls-1" d="M163.23,764.89c-.77,1.38-1.39,2.88-2.35,4.12-11.5,14.95-12.23,19.56.51,32.6,11.68,11.96,24.76,23.08,41.41,27.76,12.13,3.41,23.35,4.16,35.34-4.62,9.41-6.89,18.62-14.84,31.78-17.91,26.18-6.09,47.75,2.73,68.78,15.44,21.57,13.03,33.29,33.29,36.51,57.6,1.15,8.72,2.16,19.63-8.42,25.46"/>
      <path class="cls-1" d="M375.69,956.03c5.11.29,9.11,5.29,13.11,8.29,2,2,2,4,4,6,26,24,48,57,41.58,92.84"/>
      <path class="cls-1" d="M217.46,535.27c-17.74,6.46-92.04,38.76-100.47,43.6-18.37,10.56-32.31,26.51-49.28,38.69-5.05,3.62-6.54,8.03-7.31,13.41"/>
      <path class="cls-1" d="M249.01,819.59c.79.73,1.79,1.73,2.79,1.73,16-2,30-10,47-7,22,4,44,14,54,34,7,15,13,30,12,46-2,26,3,52,15,75,22,25,53,56,39.29,93.35"/>
      <path class="cls-1" d="M229.64,831.57c8.54,9.74,19.62,6.35,30.13,6.05,19.61-.56,37.7,4.86,53.56,16.13,17.03,12.09,31.6,31.61,39.82,50.45,3.37,1.17,6.75,2.34,10.12,3.51"/>
      <path class="cls-1" d="M252.2,960.67c-30,14.45-29.17,56.56-15.02,81.72,4.16,7.4,9.86,13.88,16.94,18.6"/>
      <path class="cls-1" d="M70.83,569.35c-19.84,2.22-37.88,15.73-52.2,28.69-5.27,4.76-10.59,9.49-14.89,15.18"/>
      <path class="cls-1" d="M235.82,827.42c4.92,3.92,10.57,3.26,16.15,2.52,10.35-1.37,20.65-3.13,31.02-4.27,23.73-2.61,39.45,10.98,54.08,26.98,8.42,9.21,12.66,20.48,17.48,31.57,1.92,4.42,1.75,10.12,7.05,12.76"/>
      <path class="cls-1" d="M90.64,712.15c6.94-16.51,20.07-26.15,36.54-31.62,7.28-2.42,15.29-2.58,21.1,3.25,10.96,10.97,24.37,19.12,34.1,31.64,5.85,7.53,7.7,15.73,9.07,24.18.76,4.72-3,9.4-6.8,12.2-6.14,4.52-13.07,7.99-19.66,11.9"/>
      <path class="cls-1" d="M374.48,964.06c-3.68,10.26,3.32,18.26,8.32,26.26,15,22,34,45,25.32,72.03"/>
      <path class="cls-1" d="M497.14,433.1c-11.37,1.18-18.4,3.14-25.41,5.05-8.83,2.41-17.33,6.74-25.64,11.15-5.76,3.05-11.99,5.87-19.34,5.99-6.24.1-12.21,3.21-17.53,7.19-10.73,8.02-23.01,12.82-36.14,15.7-8.77,1.92-16.64,5.49-23.43,11.72-2.09,1.92-5.57,3.3-9.33,3.77-19.59,2.45-38.86,5.93-56.57,15.69-5.78,3.19-13.63,2.72-19.6,3.75"/>
      <path class="cls-1" d="M286.56,938.62c-.76,1.7-.76,4.7-.76,6.7,3,13,4,26,9,38,4,7,10,14,10,22,1,19,2,38,6.41,55.73"/>
      <path class="cls-1" d="M262.97,512.95c-16.45-.8-31.41,4.22-45.88,11.23-2.46,1.19-5.09,2.17-7.44,3.35-31.16,15.69-92.2,33.81-99.99,42.94-4.75,5.57-23.94,3.66-29.22,8.51"/>
      <path class="cls-1" d="M54.8,486.36c5.7-5.14,6.8-12.85,10.46-19.16,3.75-6.46,8.62-11.47,15.07-14.26,13.21-5.71,26.83-10.06,41.01-13.49,14.08-3.41,27.86-4,41.83-3.03,20.89,1.46,35.81-7.63,47.22-23.74"/>
      <path class="cls-1" d="M739.38,320.22c-11.46,9.68-39.84,124.91-80.03,120.73-32.15-3.34-81.54-10.63-100.33-10.98-3.87-.07-7.68-.65-10.4,2.92"/>
      <path class="cls-1" d="M146.39,865.33c2.41.99,3.41,2.99,3.41,4.99-1,8,0,17,8,20,6,2,11,0,17,0,2,1,4,3,7,4h3c6-2,9-6,15-7,15-1,29,1,41,11,11,10,12,25,19,37,4,5,11,7,14,12,2,5,3,11,4,16,1,10,2,20,5,29,5,12,11,23,13,36,1,11,2,22,4.07,32.76"/>
      <path class="cls-1" d="M8.32,627.83c1.58,6.42-.12,12.5-1.63,18.66-1.5,6.12-2.72,12.32-3.84,18.53-1.95,10.87-.53,20.98,7.66,29.35.71.72,1.73,1.38,1.99,2.25,8.74,28.56,35.3,38.74,57.13,53.05,8.1,5.31,17.86,9.9,28.14,12.62,14.07,3.72,24.79,13.31,32.77,25.61"/>
      <path class="cls-1" d="M94.24,543.33c-23.6,5.69-48.32,3.01-71.82,8.89-6.37,1.59-12.58,3.79-18.51,6.61"/>
      <path class="cls-1" d="M79.59,720.09c4.69-4.18,8.8-7.58,16.61-6.58,5.14.65,11.5-4.06,16.45-7.57,13.88-9.85,26.91-6.86,39.81,1.81,7.35,4.94,14.72,10.62,17.67,18.91,2.25,6.33,1.81,13.74-2.18,20.22-2.94,4.78-5.92,9.77-4.63,15.89"/>
      <path class="cls-1" d="M2.94,774.47c9.26,5.49,18.26,10.49,27.26,14.49,25,9,50,18,74.79,24.82"/>
      <path class="cls-1" d="M394.18,478.92c-3.87,2.18-17.19,28.24-18.27,31.73-3.17,10.24-2.61,20.5-7.04,35.27-4.43,14.77-44.87,10.51-55.93,4.49-24.08-11.76-51.2-4.16-63.44-3.6-5.9.27-11.81,1.04-17.64,2.04-13.8,2.38-22.65,10.41-28.69,23.04-4.32,9.05-8.37,18.24-15.02,26.47-7.83,9.7-17.78,11.6-28.42,14.57-15.58,4.33-32.72,3.24-46.65,13.78-5.78,4.37-13.08,5-20.98,2.75-14.64-4.17-28.38.27-41.29,7.09-2.46,1.3-4.11,4.1-7.49,3.33"/>
      <path class="cls-1" d="M18.93,677.62c2.58-4.6,3.19-7.06,5.95-13.31,1.01-2.29,3.88-6.9,6.85-11.32,7.25-10.77,12.42-22.29,21.75-31.39,12.26-11.96,22.81-25.66,36.78-35.89,5.42-3.96,11.68-6.87,12.02-15.15.1-2.4,2.63-5.33,4.85-6.88,16.08-11.25,30.27-25.58,51.63-27.83,17.64-1.86,32.74-11.06,47.48-20.04,12.25-7.46,24.96-8.16,38.43-5.44.8.16,1.38,1.41,2.06,2.16"/>
      <path class="cls-1" d="M2.56,782.24c10.65,6.73,20.65,14.73,32.65,22.73,17,11,37,11,55.3,17.01"/>
      <path class="cls-1" d="M65.54,572.91c-3.73,10.45-11.95,16.92-21.16,21.75-19.37,10.18-26.38,27.82-29.61,47.57-1.04,6.34-5.61,13.76,1.9,19.65"/>
      <path class="cls-1" d="M90.45,726.19c6.2-7.95,16.44-8.04,24.63-12.14,11.33-5.67,22.5-5.67,32.3,4.79,9,9.61,9.11,19.9,5.51,31.49-2.24,7.22-5.3,15.05,1.89,21.77"/>
      <path class="cls-1" d="M80.67,579.23c-7.27,1.87-13.01,6.06-16.73,12.37-5.52,9.36-13.6,15.87-22.9,20.78-8.27,4.37-13.26,9.85-13.44,19.86-.14,7.77-4.96,14.63-7.27,22.04-2.55,8.17-2.37,16.25-2.86,24.26-1.06,17.18,17.65,33.58,31.45,39.38,6.35,2.68,13.16,5.29,20.37,2.89,9.63-3.21,16.91,3.98,22.69,8.31,5.8,4.35,11.5,5.65,17.36,6.32,19.88,2.27,32.37,15.7,31.81,35.52"/>
      <path class="cls-1" d="M218.13,535.22c16.8-4.4,49.01-4.69,66.28-4.04,17.63.66,33.23-4.16,47.1-17.59,13.55-13.11,31.66-21.31,46.27-33.9,3.4-2.93,10.63-6.36,16.39-.77"/>
      <path class="cls-1" d="M267.7,968.29c-.9,1.03-1.9,1.03-1.9,2.03-2,10-1,20-3,30-2,22,0,45,17.03,60.24"/>
      <path class="cls-1" d="M261.31,938.58c-5.51,6.74-9.51,17.74-6.51,26.74-4,25-14,49-5,74,4,8,11,14,16.43,21.22"/>
      <path class="cls-1" d="M4.24,749.41c15.97,11.55,34.97,19.55,53.97,28.55,21,10,38,26,58,39,7,4,15,6,22,9,2,2,4,3,7,5,8,6,13,13,18,21,1,16,18,22,31,26,2,1,4,3,6.21,4.65"/>
      <path class="cls-1" d="M132.45,434.21c-2.46-.8-4.1-3.33-7.15-2.96-18.88,2.29-38.27,2.19-55.7,11.2-18.97,9.8-26.04,22.49-16.13,43.68,3.94,8.43,10.38,16.99,9.13,27.46"/>
      <path class="cls-1" d="M479.3,473.03c5.14,6.51,15.86,16.07,19.07,23.4,5.32,12.14,5.31,25.49-.24,37.62-4.7,10.25-18.68,9.5-29.91.83-13.84-10.7-18.76-25.29-20.55-41.29-.93-8.28-3.56-15.1-9.02-21.38-5.99-6.89-10.99-8.8-19.09-5.1-6.88,3.14-13.44,6.95-20.21,10.34-1.63.82-3.55.88-4.43,2.99"/>
      <path class="cls-1" d="M61.76,726.4c7.69,10.47,20.59,10.34,31.07,15.1,3.58,1.63,7.84,2.15,11.83,2.37,12.87.72,20.57,7.92,27.31,18.33,4.66,7.19,9.5,16,20.4,16.17"/>
      <path class="cls-1" d="M264.55,942.58c4.34,31.82,15.28,62.09,21.13,93.57,1.55,8.36,3.08,16.78,6.02,24.8"/>
      <path class="cls-1" d="M183.98,896.24c-6.78,14.47-20.32,17.99-34.29,19.76-12.7,1.61-24.68-2.98-36.44-7.33-6.21-2.3-9.92-12.11-7.35-18.2,2.83-6.72,10.01-10.93,18.02-10.56"/>
      <path class="cls-1" d="M503.09,504.17c2.18.04,4,.86,5,2.82,10.25,20.15,13.8,39.84-5.05,55.88-3.01,2.56-6.69,3.57-10.83,3.82-17.96,1.05-39.63-20.64-37.99-39.95.04-.45,1.11-.8,1.7-1.19"/>
      <path class="cls-1" d="M2.67,794.54c19.54,12.43,36.54,33.43,61.83,34.6"/>
      <path class="cls-1" d="M478.12,468.39c5.47,14.3,6.74,29.46,8.92,44.36.82,5.6-7.78,8.99-12.83,5.66-7.74-5.11-13.23-12.14-17.07-20.47-1.84-4-4.45-6.88-9.12-7.28"/>
      <path class="cls-1" d="M86.08,757.46c8.4-5.57,21.51-3.34,30.99,5.47,7.49,6.96,14.8,14.1,22.21,21.14,2.94,2.79,5.66,6.12,10.48,4.81"/>
      <path class="cls-1" d="M158.84,602.46c11.8-4.92,19.64-13.79,26.03-24.55,5.31-8.95,12.41-16.28,23.39-18.42"/>
      <path class="cls-1" d="M95.93,728.18c8.91-1.52,17.81-3.15,26.75-4.54,7.9-1.22,13.53,2.67,16.57,9.41,3.51,7.79,4.03,16.08.78,24.24"/>
      <path class="cls-1" d="M156.24,603.18c-7.03.77-14.05,1.58-21.08,2.3-7.78.8-14.59,2.74-19.86,9.49-5.13,6.57-14.32,8.03-20.54,13.53"/>
      <path class="cls-1" d="M150.11,839.13c.58,8.96,2.76,18.19-4.55,25.74-4.78,4.95-10.94,8.23-16.31,12.37-5.28,4.08-9.08,8.7-9.35,14.38-.32,6.81,5.83,9.29,11.92,11.44,7.24,2.56,14.54,4.48,22.07,5.63,2.74.42,4.98,1.57,6.68,3.77"/>
      <path class="cls-1" d="M177.66,893.78c-8.13,5.37-17.57,6.3-26.84,6.51-11.41.26-16.81-9.17-11.94-19.59,1.26-2.69,3.5-5.04,2.49-8.39"/>
      <path class="cls-1" d="M152.33,856.7c4.33,1.62,5.57,5.41,6.9,9.29,3.1,8.99,9.35,13.87,18.97,15.2,5.39.74,10.99,2.17,14.69,7"/>
      <path class="cls-1" d="M131,806.63c-8.93-.96-17.61-2.98-25.31-7.77-6.79-4.23-13.99-5.26-21.67-4.47"/>
      <path class="cls-1" d="M3.63,758.91c23.57,16.06,50.57,30.06,78.99,37.97"/>
      <path class="cls-1" d="M514.31,531.15c-2.88,3.82-3.8,8.42-5.98,12.67-7.42,14.48-18.71,15.71-38.36,5.7-2.66-1.35-8.78-3.42-11.62-6.53"/>
      <path class="cls-1" d="M110.75,819.2c-2.94,6.28-13.5,3.99-19.03,4.79-7.97,1.14-15.67,3.62-23.24,6.31-15.44,5.49-30.4,9.43-46.86,5.95-7.42-1.56-15.13-4.39-20.12-10.4"/>
      <path class="cls-1" d="M2.14,812.9c9.09,7.29,19.82,12.66,27.45,21.66"/>
      <path class="cls-1" d="M120.42,551.5c-10.71-2.74-19.93.21-28.14,7.05-5.77,4.8-13.43,5.81-19.69,9.62"/>
      <path class="cls-1" d="M598.93,466.59c-5.74-5.81-13.29-9.17-19.61-13.86-10.18-7.56-23.65-9.28-32.11-19.4-1.53-1.83-4.23-3.3-6.6-3.72-14.43-2.53-29.85-1.87-42.5,2.89-11.3,4.25-23.14,14.65-21.32,30.68.96,8.45-6.34,13.51-7.02,21.36-.33,3.88-8.85,3.62-13.74-.3-2.8-2.24-4.21-6.86-9.21-5.14"/>
      <path class="cls-1" d="M430.23,465.14c8.65-.69,31.63-13.31,38.36-17.51,4.03-2.52,6.81-2.98,10.47-.48"/>
      <path class="cls-1" d="M476.36,454.34c-6.5,14.67-18.76,17.78-33.27,16.01-1.7-.21-1.13,1-1.78,1.3"/>
      <path class="cls-1" d="M57.48,522.68c2.79,4.81,9.05,3.46,12.53,7.04"/>
    </g>
    <path class="cls-1" d="M1168.6,73.38c-5.86,2.67-8.07,7.53-8.99,13.65-3.84,25.58-5.22,51.22-3.8,77.02,1.76,31.95-.76,63.82-6.91,95.13-8.35,42.48-34.18,71.93-73.25,89.85-16.51,7.58-33.46,13.86-51.12,18.39-13.44,3.45-23.41,14.18-35.99,19.72"/>
    <path class="cls-1" d="M1132.91,123.26c-2.29-3.27-4.62-1.34-5.2.86-3.78,14.54-14.89,24.9-21.45,37.89-4.57,9.04-3.92,18.83-7.06,27.99-1.85,5.38-3.2,10.75-5.96,15.92-6.58,12.31-12.35,25.05-18.55,37.56-5.79,11.68-13.8,21.05-27.18,23.92-5.52,1.18-9.63,4.11-13.96,7.57-19.83,15.88-40.75,28.99-67.85,25.03-11.71-1.71-22.2-8.28-34.48-7.75-13.09.57-24.56-4.77-35.56-10.92-4.07-2.28-6.94-6.71-11.01-8.99-26.76-15.01-53.11-30.65-84.12-36.49-15.88-2.99-31.52-4.21-47.48-2.54-16.29,1.7-29.95,10.71-44.48,17.2-2.99,1.33-5.55,3.66-8.99,4.01"/>
    <path class="cls-1" d="M1172.81,78.87c-4.63,2.37-6.91,6.94-7.03,11.35-.9,33.07-1.55,66.15,4.56,98.87,6.73,36.06-1.86,68.93-21.59,99.59-9.02,14.03-16.12,29.43-26.14,42.64-16.58,21.86-33.22,44.32-60.76,53.97-7.58,2.66-15.5,3.23-23.41,2.92-20.5-.81-39.76,3.9-58.03,13.19-1.4.71-2.43,2.14-3.64,3.24"/>
    <path class="cls-1" d="M981.98,346.53c-13.44,7.54-31.15,15.26-44.26,23.34-18.15,11.19-35.41,23.97-54.54,33.4-20.95,10.33-51.24,22.17-64.83,3.36-9.02-12.49-12.44-19.4-42.05-19.5"/>
    <path class="cls-1" d="M1203.14,1.5c-5.46,5.01-18.64,28.92-22.88,37.52-5.67,11.49-10.55,24.31-6.93,37.7,2.03,7.52,3.78,14.89,3.15,22.73-.55,6.89.88,13.42,4.92,18.94,1.38,1.88,2.73,4.06,2.56,5.78-1.41,14.47,6.82,25.52,13.21,36.8,14.83,26.17,16.8,53.22,5.79,80.91-5.08,12.78-13.03,24.44-19.63,36.63-.92,1.71-2.92,2.65-2.74,5.18.93,13.03-8.52,20.4-16.32,28.38-13.98,14.31-25.03,30.06-31.94,49.21-6.23,17.28-15.06,33.44-29.78,45.83-22.25,18.72-47.31,25.4-75.45,20.38-18.28-3.26-36.43-7.2-54.72-10.41-2.8-.49-5.48-.58-7.78-2.37"/>
    <path class="cls-1" d="M939.12,342.25c-2.23-1.14-29.78-4.99-47.23,2.77-21.57,9.58-67.49-32.41-79.14-33.16-38.48-2.45-70.92,4.82-73.37,8.36"/>
    <path class="cls-1" d="M1117.72,145.39c-.53,29.94-6.36,58.39-24.01,83.55-5.01,7.14-7.22,16.07-7.64,23.79-1.5,27.99-18.74,43.03-41.02,54.56-6.71,3.47-13.98,6.19-21.29,8.03-9.43,2.37-17.67,6.9-25.39,12.39-10.45,7.42-22.71,12.33-34.41,10.74-15.5-2.1-24.72,5.73-34.96,14.18-13.35,11.02-13.15,14.67-23.16,21.08-6.77,4.34-10.88,12.11-41,1.16-22.06-8.02-47.45-25.1-65.65-26.88-5.72-.56-16.58,3.14-20.01,20.72,0,0,17.35-4.51,49.13,11.95,31.78,16.46,53.51,18.74,61.27,16.83"/>
    <path class="cls-1" d="M1336.07,10.83c5.7,6.39,3.85,14.95,5.55,22.37,3.19,13.86,3.29,28.51,1.43,42.62-1.17,8.86-7.18,16.79-14.86,22.1-17.14,11.86-35.19,13.27-54.45,5.26-16.61-6.91-31.73-31.72-28.08-49.63,2.65-13-1.19-30.67-4.28-43.21"/>
    <path class="cls-1" d="M1129.46,113.56c-20.96,14.25-29.41,35.56-34.47,59.19-5.09,23.75-16.74,43.42-35.99,59.29-8.19,6.75-16.82,13.92-22.91,23.43-6.57,10.24-17.34,15.9-28.46,19.19-8.06,2.38-15.17,5.86-22.45,9.78-7.4,3.98-15.48,6.74-24.07,7.41-2.7.21-6.01-.87-7.81,2.5"/>
    <path class="cls-1" d="M1148.75,326.84c-.71-12.25,5.35-22.39,11.11-32.32,7.6-13.1,16.94-25.28,21.98-39.7,8.04-22.97,11.9-46.41,6.21-70.51-4.56-19.31-9.05-38.64-13.92-57.87-1.39-5.5-.19-9.32,4.46-12.3"/>
    <path class="cls-1" d="M1332.91,139.58c-14.21,20.09-46.17,20.94-65.45,10.39-21.29-11.66-37.01-27.94-47.05-49.63-9.76-21.08-5.67-41.64,6.24-60.8,2.7-4.35,4.55-8.88,5.81-13.45,1.72-6.26,4.93-11.34,8.77-16.27"/>
    <path class="cls-1" d="M1109.65,296.74c-11.46,9.3-22.17,19.71-35.76,25.97-20.61,9.48-41.23,18.96-62.04,27.99-18.96,8.23-35.96,19.51-49.08,35.29-6.9,8.31-12.99,17.33-20.32,25.49-19.32,21.53-40.8,39.85-67.63,51.29-20.86,8.89-41.89,9.61-63,2.11-5.68-2.02-10.95-5.3-16.21-8.35-3.61-2.1-6.57-5.39-11.09-5.73"/>
    <path class="cls-1" d="M1365.15,75.23c-5.33,5.17-4.7,12.64-6.45,18.89-5.91,21.15-20.67,32.81-39.3,41.45-40.83,18.92-84.88-21.29-87.84-53.28-1.36-14.69,2.97-28.66,7.2-43.34,1.35-4.7,3.73-7.91,5.75-11.21"/>
    <path class="cls-1" d="M1356.7,40.39c-4.81,4.24-3.53,9.51-2.64,14.74,7.84,45.92-29.1,81.05-74.49,68.82-18.65-5.03-29.02-19.23-37.77-35.06-2.88-5.21-5.62-10.5-8.42-15.75"/>
    <path class="cls-1" d="M1124.34,214.64c-4.51,18.13-8.17,36.42-15.92,53.73-10.57,23.56-26.91,40.97-50.77,50.58-10.48,4.22-21.25,7.86-32.65,9.49-14.17,2.02-26.07,10.08-38.47,16.68-1.38.73-3.03.96-4.55,1.43"/>
    <path class="cls-1" d="M958.27,389.77c-10.97,1.92-16.28,11.91-24.64,17.59-23.37,15.86-45.51,33.96-72.96,42.42-20.01,6.17-39.05-.66-58.06-5.87-8.33-2.28-15.09-8.96-24.39-8.51"/>
    <path class="cls-1" d="M1136.83,84.44c-6.08-2.12-7.53,4.05-10.5,6.61-18.97,16.33-32.35,36.79-41.08,60.1-11.21,29.95-26.38,57.54-46.81,82.2-1.04,1.26-2.86,1.86-4.32,2.77"/>
    <path class="cls-1" d="M1117.36,340.57c-6.83,44.25-29.22,72.3-78.88,71.82-12.22-.12-23.58-3.64-35.41-5.09-7.32-.9-14.91-2.95-21.78-.26-4.53,1.77-4.34-5.27-7.85-1.57-.44-4.63,1.16-7.51,3.28-10.39,12.81-17.43,29.71-30.18,49.04-38.58,19.29-8.38,37.61-18.57,56.53-27.59,13.64-6.5,23.64-16.61,28.9-31.04"/>
    <path class="cls-1" d="M714.18,228.37c.7.12,1.58.58,2.07.31,46.4-25.26,89.98-16.04,132.18,9.63,2.72,1.65,5.01,4.3,8.63,1.21-7.08-10.81-18.39-16.71-28.34-24.02-15.55-11.43-33.67-17.7-52.56-19.6-23.56-2.37-42.45,9.77-59.71,24.62-3.46,13.26-17.75,19.66-20.78,33.75-1.27,5.88-8.4,57.01-10.27,64.15"/>
    <path class="cls-1" d="M1010.92,318.41c-8.28-5.1-59.39-4.67-68.35-7.77-8.42-2.92-17.36-5.14-24.27-10.42-8.34-6.37-19-7.13-27.14-12.78-15.85-10.99-32.71-19.09-51.78-22.54-11.59-2.09-23.56-2.89-34.44-7.7-7.73-3.42-14.82-8.24-23.3-9.95-15.78-3.19-30.79-2.23-44.64,7.46-2.35,1.64-41.33,24.15-43.24,25.88"/>
    <path class="cls-1" d="M1327.95,41.77c2.79,2.13,4.9,3.84,5.28,8.41,1.18,14.15-2.15,27.03-12.28,36.38-12.1,11.17-29.18,13.51-44.09-.42-15.93-14.89-16.86-34.65-16.09-54.76.03-.79,1.07-1.54,1.64-2.31"/>
    <path class="cls-1" d="M1131.76,120.02c4.45-20.05,6.45-40.05,18.45-58.05,10-16,20-31,29.78-46.52"/>
    <path class="cls-1" d="M972.01,404.7c-16.41,15.28-32.14,31.39-49.46,45.54-11.77,9.62-17.61,24.11-29.82,32.87-19.42,13.95-39.51,20.59-64.33,14.19-13.31-3.43-28.24,20.2-36.79,11.79-1.38-1.35-35.04-46.93-57.32-24.87"/>
    <path class="cls-1" d="M902.45,470.06c-10.31-.36-17.89,7.17-27.21,9.68-22.75,6.14-44.49,6.89-66.88-3.54-18.7-8.71-25.9-23.6-31.03-41.32s-2.37-45.52-1.02-47.75"/>
    <path class="cls-1" d="M1185.48,128.76c1.27.94,3.28,1.62,3.7,2.86,4.25,12.62,14.22,21.38,21.19,32.14,1.19,1.84,2.9,3.52,4.75,4.7,15.76,10.07,20.67,25.82,20.99,43.16.28,15.29-2.83,30.03-14.12,41.85-2.21,2.32-3.81,5.15-7.48,5.18"/>
    <path class="cls-1" d="M1273.01,6.62c13.19,11.34,30.19,13.34,46.19,6.34,1,0,1,1,2.4,1.47"/>
    <path class="cls-1" d="M1327.01,47.03c-1.11,9.81-4.97,19.53-11.89,26.7-6.62,6.87-16.97,12.36-26.55,8.73-10.4-3.94-15.08-15.27-15.27-25.67-.11-6.2.76-12.55-.77-18.64-1.33-5.32-6.27-5.65-9.45-9.37-6.83-8-9.92-19.1-21.97-20.73"/>
    <path class="cls-1" d="M1168.6,13.43c-3.22,2.97-17.6,32.88-44.26,59.95-38.75,39.35-63.49,84.28-85.42,138.85-2.45,7.8-7.37,14.92-6.87,23.54.13,2.17-1.71,2.69-2.71,3.98-7.5,9.63-15.32,19.03-24.3,27.24-2.7,2.47-2.99,5.06-4.16,7.72"/>
    <path class="cls-1" d="M1136.91,178.12c-2.77,13.55-3.75,66.07-7.65,79.45-3.98,13.66-8.65,26.9-17.71,38.19"/>
    <path class="cls-1" d="M1182.39,290.93c10.97-8.2,20.23-18.06,28.58-28.91,4.05-5.26,3.36-11.68,5.61-17.31,9.24-23.16,10.62-46.1-1.03-68.77-.78-1.51-.58-3.52-.84-5.3"/>
    <path class="cls-1" d="M1324.28,18.8c-1.67,7.71-6.07,14.23-6.89,22.74-.99,10.3-17.37,13.8-29.3,9.96-8.55-3.27-10.45-13.38-16.52-15.66"/>
    <path class="cls-1" d="M1124.34,214.64c2.7-12.76,18.43-45.81,17.14-58.61-1.13-11.11-1.36-22.17-.97-33.24.19-5.41-2.01-8.62-5.91-11.4"/>
    <path class="cls-1" d="M1314.99,34.57c-14.68,8.37-25.97,3.66-36.84-7.73-4.83-5.06-10.42-10.76-18.42-11.68"/>
    <path class="cls-1" d="M1283.05,13.93c2.76,9.27,14.1,13.45,25.67,10.13,6.02-1.72,10.97-4.83,14.89-9.36,3.02-3.49,6.73-5.56,10.64-7.7,2.47,3.66.58,7.08-1.53,9.67-2.4,2.95-3.28,6.81-2.98,9.47,1.66,14.73-10.39,25.25-16.73,33.82-7.87,10.64-27.14,11.45-35.22,5.46"/>
    <path class="cls-1" d="M1364.82,96.44c5.63-10.89,1.36-21.95.53-32.84-.7-9.26-2.49-17.89-8.57-26.22-6.88-9.42-7.87-21.99-8.13-33.95"/>
    <path class="cls-1" d="M877.45,264.48c-4.96-9.89-13.68-16.33-21.47-23.62"/>
    <path class="cls-1" d="M1134.94,183.84c-.86-10.55-4.32-48.17-2.41-58.48"/>
    <path class="cls-1" d="M633.38,424.05s9.74,10.03,27.67,0c17.93-10.03,33.58-32.14,36.98-75.69s-4.28-69.05-4.28-69.05c6.97,8.71,14.36,16.3,26.88,16.46,8.18.1,16.23.65,24.4-1.1,11.34-2.44,22.88-3.68,34.44-2,22.56,3.28,44.59,9.04,66.24,15.84,13.52,4.25,26.71,7.43,41.04,5.19,6.22-.97,14.66-7.64,20.91-8.47,8.45-1.12,8.58-2.86,10.63-5.01"/>
    <path class="cls-1" d="M715.79,295.29s2.66,20.73,2.32,32.3-15.36,72.48-24.35,79.28c-8.99,6.8-17.84,30.73-38.25,28.81-20.41-1.92-40.83-11.63-40.83-11.63"/>
    <path class="cls-1" d="M693.75,280.59s39.39-14.09,66.85-14.03c10.94.02,33.35,3.36,47.64,11.49,0,0,3.34-6.17,30.11-3.36,26.77,2.81,76.65,26.03,76.65,26.03,0,0-74.54,2.83-95.56-11.18-6.63-4.47-11.21-11.49-11.21-11.49,0,0-24.97,15.74-114.49,2.54h.01Z"/>
    <path class="cls-1" d="M745.7,336.94c27.87-16.43,62.88-1.96,76.39,18.18"/>
    <path class="cls-1" d="M741.67,328.9s25.39-13.18,55.64-8.68,67.21,39.8,69.41,45.32,16.62,14.42,16.62,14.42"/>
    <path class="cls-1" d="M866.72,365.54s36.66,6.17,54.28-23.07"/>
    <path class="cls-1" d="M775.84,406.67s11.9,19.53,48.66,25.66c36.76,6.13,73.14-19.93,73.14-19.93l84.34-46.31"/>
    <path class="cls-1" d="M611.58,476.56s57.01,22.69,117.74-1.98c36.27-14.73,46.52-46.08,46.52-46.08"/>
    <g>
      <path class="cls-1" d="M801.83,509.09c-1.05,19.29,5.46,42.93,14.34,60.2,8.14,15.16,20.02,24.75,27.04,40.77,3.82,9.56,5.65,18.87,10.45,28.56,5.06,7.71,9.26,14.29,14.32,22,5.54,11.8,10.1,23.47,6.46,36.11-9.59,11.88-10.5,26.88-12.28,40.77-.76,5.95-2.52,11.78-6.13,16.35-5.98,7.3-13.94,14.34-18.06,22.89-6.87,14.24-7.78,29.25-10.68,44-4.65,20.58-20.57,34.67-39.95,44.28-9.69,4.81-15.79,13.1-17.89,24.11"/>
      <path class="cls-1" d="M802.32,520.7c-.32,1.1-3,21.66-2.67,22.51,6.21,16.14,7.88,33.95,18.53,48.51,3.95,5.41,5.15,12.3,6.16,19.12,1.47,9.94,6.36,18.87,10.62,27.76,4.96,10.36,12.51,19.46,17.56,29.78,7.32,15,7.05,30.92.18,45.86-6.54,14.23-15.3,27.38-17.42,43.5-.75,5.68-4.6,9.24-9.9,12.39-14.76,8.78-25.25,20.57-25.92,39.62-.45,12.78-7.35,22.87-18.39,29.8-22.04,13.83-29.94,35.69-33.33,60.2-.32,2.31.82,3.86.92,5.79"/>
      <path class="cls-1" d="M791.61,509.09c-.2,20.78-1.95,46.73,3.44,67.58,2.82,9.44,9.87,17.4,12.69,26.83,2.7,10.43,5.52,19.86,6.1,31.03,1.22,6.21.59,11.17.94,16.25-1.04,16-2.08,31.99-2.14,48.12-.3,18.11-7.43,34.33-13.81,52.67-2.01,7.81-8.85,13.99-14.57,19.3-8.09,8.04-14.19,16.33-18.57,26.86-1.25,1.86-2.49,3.71-3.87,6.56s-2.62,4.71-4.86,6.43c-5.72,5.32-12.18,8.52-16.05,15.08-5.49,11.39-32.59,53.42-41.93,63.32-17.42,17.93-38.43,20.71-79.71,25.05"/>
      <path class="cls-1" d="M823.11,620.21c-2.92,12.11-1.35,23.4.23,34.69,1.96,8.32,5.9,16.89,8.85,25.33,4.78,17.75,2.49,35.61-6.61,51.58-12.84,21.54-26.55,41.96-39.39,63.51-6.59,4.2-9.46,10.89-12.21,16.58-10.22,16.84-16.15,34.14-25.38,51.1-1.37,2.85-8.01,14.84-12.79,18.61-22.36,9.23-40.17,25.09-62.4,33.33-3.1.61-41.23,6.04-54.81.89"/>
      <path class="cls-1" d="M862.72,772.43c3.51,3.8,4.01,7.67,3.35,13.15-1.58,13.38.03,27.01-1.77,40.5-2.76,20.7-8.67,39.97-22.6,56-4.08,4.69-9.41,8.39-14.78,10.13-10.6,3.44-20.13,9.34-31.02,12.11-8.11,2.07-15.59,2.69-23.17-1.17"/>
      <path class="cls-1" d="M802.32,520.7c39.71,17.89,41.36,47.45,55.6,78.24,28.47,61.53,72.1,99.34,6.86,164.63-11.44,20.06-9.11,42.2-11.03,63.72-2.56,28.72-18.82,45.97-43.8,57.89-12.41,5.93-26.8,7.47-37.57,16.99-1.08.96-3.14,1.68-4.46,1.34-15.68-4.02-25.7,5.13-31.13,17.03-5.76,12.64-14.92,17.34-26.75,21.03-11.47,3.56-22.12,9.35-34.21,11.52-7.07,1.26-24.81,2.52-31.45.68"/>
      <path class="cls-1" d="M770.2,690.5c-17.29-5.31-35.29,1.45-47.98,13.94-3.48,3.59-5.85,6.31-8.34,10.02-6.49,11.27-13.1,23.53-12.89,37.67,1.3,21.34,10.91,40.72,19.66,58.98,14.02,65.85-95.81,102.81-105.22,101.22"/>
      <path class="cls-1" d="M856.3,777.39c-3.14.54-3.99,2.71-5.46,5.48-7.64,14.29-7.73,30.23-10.7,45.55-5.19,26.73-19.26,44.62-46.96,50.83-9.42,2.11-17.88,8.46-26.82,12.81-4.03,1.96-4.6,5.7-5.01,9.56"/>
      <path class="cls-1" d="M810.28,698.28c-.9.28-2.32.28-2.64.87-7.85,14.66-20.95,26.29-23.49,44.1-1.33,9.34-5.8,17.81-13.22,24.2-15.88,13.65-24.55,32.54-35.39,49.86-3.08,4.91-6.33,10.08-13.64,7.21"/>
      <path class="cls-1" d="M759.5,548.48c1.43,4.34-.95,5.97-4.21,8.59-8.04,6.43-7.09,18.17,1.44,24.27,3.63,2.6,7.25,4.23,7.25,9.96,0,2.89,2.89,5.29,7.34,5.9,21.76,2.99,42.81,38.51,29.77,60.94-3.14,5.4-4.46,11.89-6.53,17.92-.6,1.75-1.79,3.98-1.21,5.35,6.26,14.61-4.02,24.31-10.85,34.05-6.47,9.23-12.34,18.39-15.6,29.18-4.28,14.17-12.78,25.97-21.5,37.38-4.45,5.81-9.29,11.32-12.02,18.07-2.36,5.86-6.35,8.57-12.08,9.59"/>
      <path class="cls-1" d="M776.15,706.72c-6.24-1.17-7.99,4.96-11.38,7.79-10.55,8.76-21.37,17.65-29.96,28.24-10.46,12.88-15.35,28.5-13.07,45.74.48,3.59.29,7.27.42,10.9"/>
      <path class="cls-1" d="M792.04,680.82c-8.92,1.44-16.71,5.29-21.78,12.79-5.52,8.14-14.27,11.46-21.84,16.54-14.87,9.96-28.89,20.62-34.76,38.75-3.05,9.42-1.03,26.48-3.05,36.03"/>
      <path class="cls-1" d="M777.43,494.39c5.14,16.1,4.58,50.35-.56,66.84-3.26,9.66,2.67,18.49,7.61,27.19.61,3.1,3.33,5.47,2.17,9.88"/>
      <path class="cls-1" d="M791.62,685.95c-15.88,21.94-28.09,46.08-41.42,69.58-7.99,14.08-18.78,26.55-23.51,42.48-.53,1.77-2.17,1.46-3.35,2.02"/>
      <path class="cls-1" d="M765.34,596.79c-14.89,5.77-27.12-1.03-38.45-9.39-10.3-7.61-15.8-19.2-21.3-30.47-2.91-5.95,1.18-15.61,7.25-18.24,6.69-2.9,14.79-.99,20.32,4.8"/>
      <path class="cls-1" d="M731.38,884.74c-5.71,20.77-31.27,23.55-47.67,33.54-8.95,6.92-44.26,6.49-68.28-5.95"/>
      <path class="cls-1" d="M728.78,934.64c2.47,13.94-10.83,23.32-20.9,31.1-5.47,3.33-11.93,6.54-18.01,6.77-14.01-.79-47.79,2.17-74.45-60.17"/>
      <path class="cls-1" d="M734.67,924.62c-2.51-1.02-6.22-1.81-11.28-1.25,0,0-31.84,3.97-48.52,9.1-20.53,8.25-27.2,15.14-30.48,21.32"/>
      <path class="cls-1" d="M780.28,532.1c-5.77,6.88-10.57,15.06-21.07,15.48-6.88.28-13.6-1.6-20.34-2.3-6.63-.7-12.57.02-16.69,3.94-4.94,4.7-2.19,10.75.72,16.51,3.47,6.86,7.42,13.27,12.07,19.31,1.69,2.2,2.52,4.58,2.22,7.34"/>
      <path class="cls-1" d="M762.47,590.65c-9.59-1.73-17.05-7.58-23.92-13.82-8.43-7.68-5.83-18.24,4.89-22.42,2.77-1.08,6.01-1.23,7.59-4.35"/>
      <path class="cls-1" d="M718.74,940.72c-9.42,14.09-23.88,20.05-39.36,23.72-2.94.7-4.68,2.17-6.9,3.45"/>
      <path class="cls-1" d="M769.75,546.34c2.02,4.16.29,7.76-1.42,11.48-3.97,8.65-2.82,16.49,3.22,24.1,3.39,4.27,6.45,9.15,5.78,15.21"/>
    </g>
    <path class="cls-1" d="M84.3,625.81s22.24-23.64,55.29-40.44c33.05-16.81,56.13-26.76,69.26-42.03,0,0,34.07,1.49,49.9-1.77s17.69-7.57,55.85-6.11,66.32-24.8,66.32-24.8"/>
  </g>
</svg>