<?xml version="1.0" encoding="UTF-8"?>
<svg id="Layer_2" data-name="Layer 2" xmlns="http://www.w3.org/2000/svg" viewBox="0 0 414.3 583.12">
  <defs>
    <style>
      .cls-1 {
        fill: none;
        stroke: #e57221;
        stroke-linecap: round;
        stroke-linejoin: round;
      }
    </style>
  </defs>
  <g id="home">
    <g>
      <g>
        <path class="cls-1" d="M413.8,438.65c-4.33.22-8.66.42-12.99.66-8.98.51-14.97,6.06-21.06,11.82-5.06,4.78-10.42,9.23-16.87,12.4-9.8,4.82-15.28,13.08-17.39,23.7-1.9,9.53-4.3,19-10.04,27.06-4.18,5.88-9.18,11.18-13.54,16.94-3.98,5.25-8.36,10.4-11.17,16.26-3.16,6.59-7,13.18-11.37,19.05-2.95,3.97-6.21,7.72-9.29,11.6-.65.81-1.12,1.75-1.68,2.64"/>
        <path class="cls-1" d="M413.47,445.59c-6.33-3.83-12.76-2.92-18.96.05-8.77,4.2-16.26,10.23-23.36,16.79-4.78,4.41-9.65,8.73-14.66,12.88-4.35,3.6-5.97,8.61-7.6,13.6-2.99,9.11-5.53,18.38-8.78,27.39-2.35,6.51-7.21,11.61-11.59,16.87-3.31,3.97-6.75,7.84-10.33,11.56-4.08,4.23-7.41,11.3-9.89,16.54-2.97,6.28-6.8,10.14-10.18,16.23-.55.99-.7,2.19-1.03,3.29"/>
        <path class="cls-1" d="M413.47,451.54c-4.18-2.2-8.65-1.59-12.98-.94-12.2,1.82-22,8.15-30.25,16.87-3.72,3.94-6.77,8.51-10.05,12.84-2.61,3.45-6.23,5.99-8.11,10.19-3.07,6.84-5.45,13.99-6.32,21.23-1.22,10.18-5.64,18.36-12.24,25.74-4.48,5.02-9.64,9.55-13.52,14.98-5.82,8.14-11.6,16.88-16.93,25.37-.56.88-1.11,1.76-1.66,2.65"/>
        <path class="cls-1" d="M413.8,460.13c-8.96-2.97-17.89-2.75-26.62.73-2.41.96-4.94,2.39-6.61,4.3-5.65,6.44-11.44,12.74-15.26,20.66-1.9,3.94-5.57,7.17-8.87,10.26-2.93,2.74-3.95,5.99-4.25,9.66-1.22,15.2-6.87,28.51-16.98,40.02-5.59,6.37-11.27,12.72-16.22,19.57-3.42,4.72-5.68,10.27-8.45,15.45"/>
        <path class="cls-1" d="M412.47,465.09c-13.46-1.38-24.04,3.03-31.75,14.48-3.83,5.69-8.78,10.65-13.22,15.94-10.47,5-13.35,14.52-15.41,24.78-1.29,6.45-1.79,13.27-5.94,18.84-2.53,3.4-4.92,7.05-8.05,9.84-6.02,5.38-10.88,11.58-15.25,18.27-2.96,4.54-5.99,9.04-8.99,13.56"/>
        <path class="cls-1" d="M413.8,475.01c-13.58-.46-24.86,4.03-32.96,15.22-2.43,3.35-4.73,6.79-6.99,10.25-1.79,2.73-4,5.02-7.03,6.23-5.42,2.17-8.13,6.57-9.93,11.62-1.58,4.43-2.7,9.03-4.05,13.53-2.44,8.1-6.76,15.11-12.29,21.52-6.15,7.14-12.08,14.48-17.99,21.82-1.35,1.68-2.26,3.72-3.37,5.59"/>
        <path class="cls-1" d="M413.8,482.94c-3.55.55-7.09,1.37-10.66,1.6-6.79.43-11.32,4.53-15.62,9.01-1.85,1.92-3.6,4.01-4.98,6.28-4.4,7.18-10,13.23-17.07,17.77-6.49,4.16-9.6,10.34-11.99,17.24-3.41,9.83-8.05,18.87-16.21,25.89-2.82,2.42-4.84,5.79-7.05,8.86-2.56,3.56-4.91,7.25-7.35,10.89"/>
        <path class="cls-1" d="M413.8,487.9c-7.25,1.9-13.15,6.12-18.63,10.93-9.18,8.07-18.04,16.51-27.41,24.35-5.12,4.28-9.83,8.77-12.86,14.66-2.93,5.7-5.26,11.72-8.09,17.47-3.31,6.74-7.48,12.93-12.94,18.22-2.25,2.18-4.24,4.61-6.35,6.92"/>
        <path class="cls-1" d="M413.8,499.47c-10.45,4.05-21.03,7.85-29.97,14.89-1.29,1.01-2.51,2.13-3.66,3.3-6.68,6.81-13.75,13.31-19.86,20.6-4.49,5.36-8.11,11.57-11.36,17.79-4.45,8.52-8.19,17.4-15.1,24.4-.16.17-.44.23-.66.34"/>
        <path class="cls-1" d="M339.81,483.62c-1.33,4.08-2.88,8.82-4.3,12.87-1.84,5.25-5.56,9.3-8.96,13.57-4.41,5.56-8.93,11.06-12.95,16.88-5.39,7.81-13.07,16.31-19.57,23.09-8.22,8.57-17.17,14.52-21.27,26.12-.55,1.55-1.11,3.09-1.66,4.63"/>
        <path class="cls-1" d="M339.85,483.6c2.02-.12,1.3,1.41,1.3,2.31.1,10.34-4.1,18.96-10.6,26.81-6.83,8.24-13.6,16.55-19.94,25.16-4.22,5.74-8.2,14.25-12.29,20.09-5.65,8.07-11.57,13.93-15.93,22.82"/>
        <path class="cls-1" d="M413.8,507.07c-8.15,2.48-15.94,5.68-23.01,10.54-4.74,3.26-7.74,7.98-11.35,12.23-3.23,3.81-7.01,7.17-10.24,10.98-4.07,4.81-8.59,9.47-11.53,14.93-4.85,9-10.31,17.45-17.16,25.03"/>
        <path class="cls-1" d="M413.8,517.65c-4.22,1.1-8.56,1.88-12.63,3.38-6.3,2.31-10.49,7.13-14.46,12.41-3.6,4.79-7.76,9.3-12.29,13.22-9.35,8.09-16.91,17.46-22.96,28.15-1.18,2.08-3.05,3.78-4.61,5.65"/>
        <path class="cls-1" d="M413.47,432.36c-9.85-6.31-16.45-3.84-24.6,2.7-6.11,4.9-11.91,10.21-17.66,15.52-3.14,2.9-6.87,4.56-10.68,6.28-6.2,2.81-11.06,7.34-15.36,12.51-.29.35-.87.46-1.31.68"/>
        <path class="cls-1" d="M413.8,539.14c-3.66.66-7.43.98-10.97,2.05-7.04,2.14-13.24,5.7-18.04,11.48-5.11,6.15-10.32,12.22-15.66,18.17-3.03,3.37-6.4,6.42-9.62,9.62"/>
        <path class="cls-1" d="M413.8,422.78c-6.55.88-13.15,1.53-19.63,2.77-2.26.43-4.44,2.05-6.32,3.56-7.3,5.84-14.36,12-21.75,17.73-2.37,1.84-5.37,3.14-8.29,3.97-7.65,2.16-11.98,7.13-13.62,14.63-1.3,5.94-2.46,11.9-3.68,17.85"/>
        <path class="cls-1" d="M413.8,547.07c-12.41-.41-23.4,2.37-31,13.21-4.86,6.92-9.97,13.68-14.96,20.51"/>
        <path class="cls-1" d="M406.51,384.33c-6.8,1.91-17.43,6.71-20.37,12.99-1.92,4.11-4.65,7.98-5.83,12.28-1.84,6.74-3.66,13.62-2.82,20.78"/>
        <path class="cls-1" d="M413.8,556.99c-5,.77-9.97,1.73-15,2.26-4.56.49-8.46,2.49-11.57,5.43-5.29,4.98-10.08,10.49-15.07,15.78"/>
        <path class="cls-1" d="M413.8,387.07c-8.56,3.85-15.36,9.77-21.02,17.17-4.9,6.41-6.4,14.01-8.3,21.51"/>
        <path class="cls-1" d="M401.64,386.04c-5.7,1.99-10.01,5.92-12.67,11.02-2.46,4.72-4.12,9.96-5.35,15.16-1.06,4.48-.85,10.33-1.29,14.95"/>
        <path class="cls-1" d="M413.8,532.53c-2.33.55-4.87.69-6.96,1.73-6.65,3.32-13.19,6.89-19.65,10.57-1.58.9-2.61,2.69-4.05,3.88-3.83,3.15-7.65,6.33-11.66,9.25-7.28,5.29-12.49,12.24-17,19.84-.62,1.04-1.74,1.78-2.63,2.67"/>
        <path class="cls-1" d="M387.16,429.06c-3.55,1.87-7.29,3.48-10.61,5.69-3.87,2.57-7.24,5.86-11.09,8.46-2.64,1.79-5.59,3.45-8.64,4.26-6.14,1.63-10.29,5.01-12.34,11-.38,1.09-.48,10.72-1.14,11.72"/>
        <path class="cls-1" d="M413.8,566.24c-5.77,1.21-11.54,2.44-17.32,3.63-7.3,1.5-13.42,5-18.32,10.59"/>
        <path class="cls-1" d="M413.8,390.38c-2.89,2.31-6.2,4.27-8.58,7.01-6.49,7.48-11.89,15.77-16.71,24.4-.19.34-.03.87-.03,1.31"/>
        <path class="cls-1" d="M412.8,524.26c-4.89.18-8.65,2.92-12.7,5.22-5.65,3.2-8.86,8.46-12.58,13.32-.27.35-.04,1.08-.04,1.63"/>
        <path class="cls-1" d="M413.8,572.2c-5.55,1.21-11.1,2.42-16.65,3.64-3.92.87-7.52,2.44-10.66,4.95"/>
        <path class="cls-1" d="M413.47,399.97c-5.51,3.16-10.43,6.87-13.75,12.51-1.22,2.08-3.57,3.49-5.19,5.38-.73.86-.94,2.16-1.38,3.26"/>
        <path class="cls-1" d="M413.8,574.84c-6.66,1.98-13.33,3.97-19.99,5.95"/>
        <path class="cls-1" d="M412.8,418.48c-6.74.76-13.05,2.71-18.65,6.61"/>
        <path class="cls-1" d="M413.8,405.59c-2.22,1.43-4.53,2.74-6.64,4.33-2.76,2.08-5.4,4.33-7.99,6.61-.75.66-1.14,1.73-1.7,2.61"/>
        <path class="cls-1" d="M413.8,414.51c-4.54.12-8.6,1.96-12.64,3.69-5.75,2.45-11.37,5.19-16.99,7.92-1.34.65-5.59,3.23-6.84,4.06"/>
        <path class="cls-1" d="M413.8,578.81c-3.33.66-6.66,1.32-9.99,1.98"/>
        <path class="cls-1" d="M413.13,381.78c-3.22,1.21-6.44,2.42-9.66,3.64"/>
        <path class="cls-1" d="M413.8,410.22c-1.78,1.54-3.55,3.09-5.33,4.63"/>
        <path class="cls-1" d="M403.26,385.54c-.59.18-1.19.36-1.78.55"/>
      </g>
      <g>
        <path class="cls-1" d="M134.78.88c.21.5,1.41,4.57,2,5.16,6.2,3.84,12.39,6.49,18.59,9.74l.89.89c.89.59,1.48.59,2.36,1.18,1.18.89,2.07,1.48,3.25,2.36,7.38,4.43,13.87,8.56,19.77,14.46,4.13,4.43,6.79,10.03,12.1,12.69.89.3,1.48.59,2.07.89,5.02,1.18,10.03,2.36,15.34,1.48,3.25-.59,6.49-1.48,9.44-2.66,10.62-4.43,20.65-8.85,30.98-13.28,4.13-2.95,9.15-4.43,13.87-5.9,10.92-3.25,21.54-4.72,32.75-5.9,5.02-.3,9.74-2.07,14.46-4.72l4.43-2.66c5.31-3.84,10.93-9.02,15.27-13.41"/>
        <path class="cls-1" d="M137.78.88c2.61,1.39,6.08,4.57,8.74,5.75,6.2,2.07,12.1,4.13,17.7,7.67,1.18.89,2.07,1.77,3.25,2.66,8.26,5.31,15.05,10.92,22.72,16.82,1.77,1.77,3.25,3.84,5.31,5.31,1.48.89,2.66,1.77,4.13,2.36.89.3,1.48.59,2.07.89,2.95,1.18,6.2,1.18,9.15.89,9.15-.89,17.7-2.95,26.26-5.9,12.1-4.13,22.42-10.03,33.63-16.52,5.31-2.66,10.62-4.13,16.23-5.31,13.28,0,28.27-5.44,38.37-14.29"/>
        <path class="cls-1" d="M185.51.54c4.38,4.9,9.4,9.62,15.89,11.39,11.21,3.54,23.01,8.26,34.52,4.13,7.08-2.66,13.87-6.2,20.65-10.03,1.77-.89,3.54-1.48,5.31-2.36,1.77-1.18,3.54-1.48,5.02-2.8"/>
        <path class="cls-1" d="M168.45,1.03c.79.58,1.68.87,2.56,1.46s1.48,1.18,2.07,1.77c1.77,1.18,3.25,1.77,4.72,2.95,7.38,5.61,13.87,10.33,21.24,15.93,1.18.89,2.36,1.48,3.54,2.07,7.38,2.36,15.05,2.66,22.72,2.07,18.29-1.18,34.52-10.03,50.83-17.65"/>
        <path class="cls-1" d="M196.08.5c7.97,4.65,16.82,8.48,26.26,7.89,7.67-.59,18.95-3.96,25.98-7.21"/>
        <path class="cls-1" d="M182.97,20.78c.46.63.89,1.28,1.37,1.9,1.18,1.55,2.88,2.56,4.44,3.69,1.8,1.3,3.62,2.57,5.47,3.8,3.4,2.25,6.89,3.76,10.91,4.53,8.49,1.63,16.96.14,25.25-1.89,6.97-1.71,13.89-3.7,20.47-6.58,7.62-3.33,14.47-7.85,20.91-13.08,6.45-5.24,13.53-9.51,21.24-12.6"/>
        <path class="cls-1" d="M150.06.97c.89.64,1.48,1.53,2.37,1.82,4.13.89,7.67,2.07,11.51,3.54,5.31,2.36,8.85,6.79,13.28,10.62,3.54,3.25,7.97,4.43,12.39,5.9,4.43,1.18,9.15,1.48,13.68,2.67"/>
        <path class="cls-1" d="M278.71,8.29c10.31-3.14,20.94-4.32,31.13-7.33"/>
        <path class="cls-1" d="M265.17,14.04c4.91-4.72,10.36-8.82,16.14-12.42"/>
      </g>
      <g>
        <path class="cls-1" d="M.5,437.81c4.41.22,8.82.43,13.23.68,9.15.51,15.25,6.18,21.45,12.04,5.16,4.87,10.62,9.41,17.18,12.63,9.99,4.91,15.57,13.33,17.72,24.15,1.93,9.71,4.38,19.35,10.23,27.57,4.26,5.99,9.35,11.39,13.8,17.26,4.05,5.35,8.51,10.6,11.38,16.57,3.22,6.72,7.14,13.43,11.59,19.41,3.01,4.05,6.32,7.87,9.46,11.82.66.83,1.14,1.79,1.71,2.68"/>
        <path class="cls-1" d="M.84,444.88c6.45-3.91,13-2.97,19.32.05,8.93,4.27,16.56,10.43,23.8,17.1,4.87,4.49,9.83,8.89,14.94,13.12,4.44,3.67,6.08,8.77,7.75,13.85,3.04,9.28,5.63,18.72,8.94,27.91,2.39,6.64,7.34,11.82,11.81,17.19,3.37,4.04,6.87,7.99,10.52,11.78,4.15,4.31,7.55,11.51,10.07,16.85,3.03,6.4,6.93,10.33,10.38,16.54.56,1,.71,2.23,1.05,3.35"/>
        <path class="cls-1" d="M.84,450.94c4.26-2.24,8.81-1.62,13.23-.96,12.42,1.85,22.41,8.3,30.82,17.19,3.79,4.01,6.89,8.67,10.24,13.08,2.66,3.52,6.35,6.1,8.26,10.38,3.12,6.97,5.56,14.25,6.44,21.63,1.24,10.37,5.75,18.71,12.47,26.23,4.57,5.11,9.82,9.72,13.77,15.26,5.93,8.29,11.82,17.2,17.25,25.84.57.9,1.13,1.79,1.7,2.7"/>
        <path class="cls-1" d="M.5,459.7c9.13-3.02,18.22-2.81,27.12.75,2.46.98,5.03,2.44,6.73,4.38,5.76,6.57,11.66,12.98,15.55,21.05,1.93,4.01,5.67,7.31,9.04,10.46,2.99,2.79,4.02,6.11,4.33,9.85,1.24,15.49,7,29.04,17.29,40.77,5.7,6.49,11.48,12.96,16.53,19.93,3.48,4.81,5.78,10.46,8.61,15.74"/>
        <path class="cls-1" d="M1.86,464.75c13.71-1.4,24.49,3.08,32.35,14.75,3.91,5.8,8.94,10.85,13.47,16.24,10.66,5.1,13.6,14.8,15.7,25.24,1.32,6.57,1.82,13.52,6.05,19.2,2.58,3.47,5.02,7.18,8.2,10.03,6.13,5.48,11.09,11.8,15.54,18.61,3.02,4.63,6.1,9.21,9.15,13.81"/>
        <path class="cls-1" d="M.5,474.85c13.84-.47,25.33,4.1,33.58,15.5,2.47,3.41,4.82,6.91,7.12,10.44,1.82,2.78,4.07,5.12,7.16,6.35,5.52,2.21,8.28,6.7,10.11,11.84,1.61,4.52,2.75,9.19,4.13,13.79,2.49,8.25,6.89,15.39,12.52,21.92,6.27,7.28,12.3,14.75,18.32,22.23,1.38,1.71,2.3,3.79,3.43,5.7"/>
        <path class="cls-1" d="M.5,482.94c3.62.56,7.22,1.39,10.86,1.63,6.92.44,11.53,4.62,15.91,9.18,1.88,1.96,3.66,4.09,5.08,6.4,4.48,7.31,10.18,13.48,17.39,18.1,6.61,4.24,9.78,10.54,12.21,17.56,3.47,10.01,8.21,19.22,16.52,26.37,2.87,2.47,4.93,5.9,7.18,9.02,2.6,3.62,5.01,7.39,7.49,11.09"/>
        <path class="cls-1" d="M.5,487.99c7.39,1.93,13.4,6.23,18.98,11.14,9.36,8.22,18.38,16.82,27.93,24.8,5.22,4.36,10.01,8.94,13.1,14.94,2.99,5.81,5.36,11.94,8.24,17.8,3.38,6.87,7.62,13.17,13.18,18.56,2.29,2.22,4.32,4.69,6.47,7.05"/>
        <path class="cls-1" d="M.5,499.77c10.65,4.12,21.43,8,30.53,15.17,1.31,1.03,2.56,2.17,3.73,3.37,6.81,6.94,14.01,13.56,20.23,20.99,4.57,5.47,8.26,11.79,11.57,18.12,4.54,8.68,8.35,17.73,15.38,24.86.17.17.45.23.67.35"/>
        <path class="cls-1" d="M75.88,483.63c1.36,4.15,2.94,8.99,4.38,13.11,1.88,5.35,5.67,9.48,9.13,13.83,4.49,5.66,9.1,11.27,13.19,17.2,5.49,7.96,13.31,16.61,19.94,23.52,8.38,8.73,17.49,14.79,21.67,26.61.56,1.57,1.13,3.14,1.7,4.72"/>
        <path class="cls-1" d="M75.84,483.61c-2.06-.13-1.32,1.44-1.33,2.36-.1,10.53,4.17,19.32,10.79,27.31,6.96,8.4,13.86,16.86,20.31,25.63,4.3,5.84,8.35,14.52,12.52,20.47,5.76,8.22,11.79,14.19,16.23,23.24"/>
        <path class="cls-1" d="M.5,507.52c8.3,2.52,16.24,5.79,23.44,10.74,4.83,3.32,7.89,8.13,11.56,12.46,3.29,3.88,7.14,7.3,10.43,11.19,4.14,4.9,8.75,9.65,11.74,15.21,4.94,9.17,10.5,17.78,17.49,25.5"/>
        <path class="cls-1" d="M.5,518.3c4.3,1.12,8.72,1.92,12.87,3.44,6.41,2.36,10.69,7.26,14.73,12.64,3.66,4.88,7.9,9.47,12.52,13.47,9.52,8.24,17.23,17.79,23.4,28.68,1.2,2.12,3.11,3.85,4.7,5.76"/>
        <path class="cls-1" d="M.84,431.41c10.03-6.43,16.76-3.91,25.07,2.75,6.23,4.99,12.13,10.4,18,15.81,3.2,2.95,7,4.64,10.88,6.4,6.31,2.87,11.27,7.48,15.65,12.74.29.35.88.47,1.34.69"/>
        <path class="cls-1" d="M.5,540.19c3.73.67,7.57,1,11.18,2.09,7.17,2.18,13.49,5.81,18.38,11.69,5.2,6.27,10.52,12.45,15.96,18.51,3.08,3.43,6.52,6.54,9.81,9.8"/>
        <path class="cls-1" d="M.5,421.64c6.68.9,13.4,1.56,20,2.82,2.3.44,4.53,2.09,6.44,3.62,7.44,5.95,14.63,12.22,22.16,18.06,2.42,1.87,5.47,3.2,8.44,4.04,7.79,2.2,12.2,7.27,13.87,14.9,1.32,6.05,2.5,12.12,3.75,18.18"/>
        <path class="cls-1" d="M.5,548.27c12.64-.42,23.84,2.42,31.59,13.45,4.95,7.05,10.15,13.94,15.25,20.9"/>
        <path class="cls-1" d="M7.93,382.47c6.93,1.95,17.76,6.83,20.75,13.23,1.96,4.19,4.74,8.13,5.94,12.51,1.88,6.86,3.73,13.88,2.87,21.17"/>
        <path class="cls-1" d="M.5,558.38c5.09.79,10.16,1.76,15.28,2.3,4.65.5,8.61,2.54,11.79,5.53,5.39,5.08,10.27,10.69,15.36,16.08"/>
        <path class="cls-1" d="M.5,385.27c8.72,3.92,15.65,9.95,21.41,17.49,4.99,6.53,6.52,14.28,8.45,21.92"/>
        <path class="cls-1" d="M12.89,384.22c5.81,2.02,10.2,6.04,12.91,11.23,2.5,4.81,4.2,10.15,5.45,15.45,1.08,4.57,1.03,9.4,1.49,14.12"/>
        <path class="cls-1" d="M.5,533.45c2.38.56,4.97.7,7.09,1.76,6.78,3.38,13.44,7.02,20.02,10.77,1.61.92,2.66,2.74,4.13,3.95,3.91,3.21,7.79,6.45,11.88,9.42,7.41,5.39,12.73,12.47,17.32,20.21.63,1.06,1.77,1.82,2.68,2.72"/>
        <path class="cls-1" d="M27.65,428.04c3.62,1.91,7.42,3.55,10.81,5.8,3.94,2.62,7.37,5.97,11.3,8.62,2.69,1.82,5.69,3.51,8.81,4.34,6.26,1.66,10.48,5.11,12.57,11.21.38,1.11-.48,4.17.2,5.18"/>
        <path class="cls-1" d="M.5,567.81c5.88,1.24,11.76,2.49,17.65,3.7,7.44,1.53,13.67,5.1,18.66,10.78"/>
        <path class="cls-1" d="M.5,388.64c2.94,2.36,6.32,4.35,8.74,7.14,6.61,7.62,12.11,16.07,17.03,24.86.19.34.03.89.03,1.34"/>
        <path class="cls-1" d="M38.51,402.78c4.3,8.92,6.91,18.39,9.08,27.97.41,1.8.91,2.45,2.78,2.74,9.45,1.45,14.06,8.27,17.62,16.12.19.43-.28,1.38-.4,1.94"/>
        <path class="cls-1" d="M1.52,525.03c4.98.18,8.81,2.98,12.94,5.31,5.75,3.26,9.02,8.62,12.82,13.57.27.36.04,1.1.04,1.66"/>
        <path class="cls-1" d="M36.11,401.8c4.37,8.37,6.27,17.75,7.8,26.92.14.86-.19,1.79-.31,2.69"/>
        <path class="cls-1" d="M.5,573.87c5.66,1.24,11.31,2.46,16.97,3.71,3.99.88,7.66,2.48,10.86,5.05"/>
        <path class="cls-1" d="M.84,398.41c5.61,3.22,10.63,7,14.01,12.74,1.25,2.12,3.64,3.55,5.29,5.48.75.88.96,2.2,1.41,3.32"/>
        <path class="cls-1" d="M.5,576.56c6.79,2.02,13.58,4.04,20.36,6.06"/>
        <path class="cls-1" d="M1.52,417.26c6.87.77,13.29,2.76,19,6.73"/>
        <path class="cls-1" d="M.5,404.13c2.26,1.46,4.62,2.8,6.76,4.41,2.81,2.12,5.5,4.41,8.14,6.74.77.68,1.16,1.76,1.73,2.66"/>
        <path class="cls-1" d="M.5,373.14c6.77,2.72,13.55,5.44,18.95,7.61,7.3,6.74,13.53,12.75,16.68,21.02"/>
        <path class="cls-1" d="M.5,413.22c4.62.13,8.76,2,12.87,3.76,5.86,2.5,11.58,5.29,17.31,8.07,1.36.66,2.48,1.8,3.76,2.65,4.01,2.68,8.29,4.62,13.23,4.72"/>
        <path class="cls-1" d="M.5,580.6c3.39.67,6.79,1.35,10.18,2.02"/>
        <path class="cls-1" d="M1.18,379.88c3.28,1.24,6.56,2.47,9.84,3.7"/>
        <path class="cls-1" d="M.5,408.84c1.81,1.57,3.62,3.14,5.43,4.72"/>
        <path class="cls-1" d="M34.04,396.86c.27.74,4.1,4.93,4.56,6.17"/>
        <path class="cls-1" d="M11.24,383.7c.6.18,1.21.37,1.81.56"/>
      </g>
    </g>
  </g>
</svg>