<?xml version="1.0" encoding="UTF-8"?>
<svg id="Calque_2" data-name="Calque 2" xmlns="http://www.w3.org/2000/svg" viewBox="0 0 1918.75 1610.07">
  <defs>
    <style>
      .cls-1 {
        fill: none;
        stroke: #e57221;
        stroke-linecap: round;
        stroke-linejoin: round;
        stroke-width: 3px;
      }
    </style>
  </defs>
  <g id="homepage">
    <g>
      <path class="cls-1" d="M1100.26,4.19c-.13,2.07-.15,4.32,0,6.72.64,10.17,4.05,18.02,6.71,22.84,2.94,7.9,6.18,18.82,7.83,32.25,1.22,9.98,4.64,52.25,8.85,64.22,9.33,26.52,27.32,42.87,49.22,52.79,11.9,5.39,24.86,7.61,36.46,13.69,19.27,10.1,33.59,27.93,45.9,48.11,5.16,8.46,10.3,16.94,15.57,25.3,16.88,26.75,40.81,39.07,66.82,47.39,23.81,7.62,48,9.44,72.33,6.35,14.74-1.87,29.27-6.15,43.99-8.46,11.82-1.85,23.89-4.07,35.68-3.11,27.23,2.21,54.32,8.44,81.52,8.88,22.55.37,45.12-5.83,67.77-7.91,5.96-.55,24.62,3.71,48.52-1.36,1.95-.41,6.61-2.43,7.64-2.68"/>
      <path class="cls-1" d="M1113.67,1.5c.26,17.75,2.92,56.9,24.36,95.83,6.09,11.06,21.32,41.96,51.29,57.16,29.6,15.01,59.53,29.19,86.9,49.71,7.74,5.8,15.14,12.51,21.95,19.8,16.14,17.25,31.38,35.73,47.84,52.51,12.88,13.13,29.25,17.95,45.65,18.6,28.35,1.12,56.77.6,85.15.24,32.05-.41,64.11-1.04,96.14-2.25,15.31-.58,42.16,12.3,65.93-4.37,2.05-1.44,3.67-2.78,4.74-3.72"/>
      <path class="cls-1" d="M1124.28,1.6c5.19,17.97,9.99,36.13,15.65,53.88,10.43,32.74,29.24,54.87,56.52,68.74,23.69,12.05,46.67,26.73,68.58,42.95,14.2,10.52,25.65,26.27,38.77,39.03,19.9,19.35,37.94,41.27,59.27,58.75,16.42,13.46,34.62,17.44,53.27,21.88,18.55,4.41,36.1-1.05,54.1-4.28,15.06-2.7,30.48-3.28,45.74-3.46,23.8-.28,47.62.4,71.42,1.01,9.17.23,18.32,1.35,27.47,2.13,12.52,1.06,25.02,2.38,37.55,3.16,3.01.19,6.1-1.33,9.15-2.06"/>
      <path class="cls-1" d="M1139.85,2.7c7.33,19.44,13.27,39.87,22.3,58.09,13.16,26.52,34.16,43.5,57.48,54.91,21.12,10.34,39.23,24.49,53.96,45.42,30.48,43.34,68.49,74.95,110.87,98.78,21.49,12.08,44.99,13.59,68.55,10.2,1.54-.22,3.05-1.01,4.58-1.04,39.07-.79,78.15-2.57,117.2-1.8,19.57.38,39.07,5.49,58.61,8.32,6.69.97,15.81.64,22.53,1.38"/>
      <path class="cls-1" d="M1523.51,1.6c.61,14.31,1.17,28.62,1.84,42.92,1.4,29.67,16.79,49.46,32.74,69.57,13.25,16.72,25.58,34.43,34.35,55.72,13.34,32.38,36.24,50.49,65.65,57.46,26.41,6.27,52.62,14.21,74.96,33.17,16.28,13.82,30.97,30.32,46.93,44.74,14.54,13.14,28.82,27.61,45.04,36.89,18.26,10.44,36.51,23.14,52.78,37.57,11,9.75,21.39,20.5,32.14,30.67,2.25,2.13,4.86,3.71,7.3,5.55"/>
      <path class="cls-1" d="M1542.74,2.7c-10.62,20.91-8.08,42.16.14,62.64,11.62,28.96,28.35,53.71,46.5,77.18,12.21,15.8,24.18,31.9,35.67,48.45,9.98,14.38,23.84,19.72,37.66,25.12,25.24,9.86,50.91,18.26,75.88,29.01,18.04,7.76,32.15,23.8,46.73,38.3,10.99,10.93,21.72,22.29,32.03,34.12,11.73,13.47,31.3,24.47,45.81,32.67,17.39,9.82,28.08,22.48,44.96,33.65,2.73,1.81,6.06,2.3,9.11,3.4"/>
      <path class="cls-1" d="M1559.22,2.7c-6.1,13.83-4.4,28.57-2.61,42.89,5.03,40.29,22.58,72.69,46.73,99.95,10.9,12.29,23.56,22.35,35.57,33.19,9.57,8.64,16.59,20.58,28.23,26.8,18.95,10.12,38.75,18.02,58.81,20.89,28.2,4.03,50.86,18.64,71.31,40.43,13.9,14.82,26.44,31.83,41.48,44.66,22.55,19.22,46.76,38.32,70.26,55.93,2.44,1.83,4.88,3.67,7.33,5.5"/>
      <path class="cls-1" d="M1583.03,1.6c-8.22,29.61-7.63,59.09,2.03,87.94,2.67,7.97,6.63,16.3,11.91,21.83,17.85,18.67,35.29,37.8,57.23,50.43,10.91,6.28,19.87,18.39,28.43,29.32,7.59,9.69,16.6,13.05,26.77,14.02,42.11,4.03,78.96,22.69,110.86,56.08,17.65,18.47,35.24,37.22,54.2,53.6,13.07,11.3,28.45,18.75,42.79,27.92"/>
      <path class="cls-1" d="M1596.76,6c-3.81,44.45,8.38,79.41,40.1,104.89,15.77,12.67,29.5,29,44.15,43.67,13.86,34.58,40.23,44.11,68.63,50.91,17.86,4.27,36.76,5.91,52.19,19.6,9.43,8.36,19.53,16.26,27.27,26.6,14.9,19.9,32.08,35.96,50.6,50.37,12.58,9.79,25.04,19.79,37.55,29.69"/>
      <path class="cls-1" d="M1624.23,1.6c-1.27,44.86,11.16,82.13,42.15,108.9,9.28,8.01,18.8,15.62,28.39,23.1,7.56,5.9,13.91,13.21,17.26,23.21,6.01,17.9,18.21,26.85,32.2,32.79,12.28,5.21,25,8.9,37.49,13.39,22.44,8.06,41.85,22.34,59.61,40.58,19.78,20.32,40.1,39.89,60.43,59.42,4.65,4.47,10.3,7.45,15.49,11.12"/>
      <path class="cls-1" d="M1219.51,1.6c27.47,34.85,54.74,69.92,82.48,104.46,19.18,23.89,38.78,47.3,58.61,70.42,13.92,16.23,31.69,22.86,50.26,27.76,29.35,7.74,58.36,18,88.84,16.24,14.68-.85,33.12-2.53,47.77-4"/>
      <path class="cls-1" d="M1646.21,1.6c1.53,11.74,3.79,23.42,4.42,35.23,1.19,22.45,12.56,37.38,24.96,51.61,5.32,6.1,11.12,11.88,17.39,16.46,19.88,14.53,36.66,33.02,49.22,56.39,11.52,21.45,28.65,31.71,47.74,39.61,27.22,11.26,52.27,26.61,71.7,53.56,6.71,9.3,16.04,15.99,24.53,23.28,9.85,8.45,20.09,16.23,30.16,24.3"/>
      <path class="cls-1" d="M1272.43,125.12c5.86,6.74,14.59,16.43,25.65,27.42,16.89,16.79,48.43,52.9,92.68,70.17,15.43,6.02,31.03,11.45,46.72,16.39,5.22,1.64,10.95,1.29,16.44,1.24,22.89-.22,45.78-.78,68.68-1,17.7-.17,35.42.44,53.1-.22,9.51-.36,18.63-.14,27.5,4.53,8.52,4.48,17.22,8.45,26.19,10.73,10.49,3.41,21.07,6.51,31.46,10.31,18.63,6.82,32.29,22.4,47.06,36.84,16.51,16.15,35.64,28.44,53.69,42.31,17.51,13.46,38.28,32.79,48.43,54.55,27.67,59.33,47.36,56.7,63.36,71.42,17.89,16.45,33.77,27.56,43.86,34.09"/>
      <path class="cls-1" d="M1659.94,1.6c5.25,23.96,16.95,43.45,30.28,61.55,22.34,30.34,45.74,59.58,67.44,90.56,11.86,16.93,24.3,32.46,40.62,42.47,15.8,9.69,32.45,17.36,48.4,26.72,18.68,10.95,35.82,24.71,50.47,42.73,6.03,7.41,12.76,14.01,19.17,20.98"/>
      <path class="cls-1" d="M1257.05,2.7c10.38,14.67,20.41,29.73,31.22,43.92,13.99,18.37,28.37,36.33,43.02,53.94,14.65,17.61,29.52,35,44.88,51.69,20.57,22.35,44.48,38.69,71.44,45.78,19.02,5.01,38.97,5,58.51,7.12,8.23.89,20.82,1.19,29.06,1.92"/>
      <path class="cls-1" d="M1691.99,1.6c11.21,34.53,21.74,69.48,41.24,99.01,2.81,4.26,5.91,8.31,9.15,12.1,18.87,22.08,36.86,45.44,57.06,65.6,14.86,14.82,32.05,26.79,49.27,37.54,23.59,14.72,48.21,27.06,67.59,49.88.46.54.63,1.44.94,2.18"/>
      <path class="cls-1" d="M1648.1,246.05c11.29,4.4,24.43,9.52,35.64,14.22,14.54,6.09,25.77,18.38,37.6,29.59,15.39,14.57,30.63,29.49,46.77,42.78,21.64,17.82,45.17,43.16,63.96,64.67,23.73,27.17,40.21,56.71,72.36,70.28,4.28,1.81,8.55,3.66,12.82,5.5"/>
      <path class="cls-1" d="M1648.04,245.9c-.34-6.68,3.91-4.28,6.41-4.31,28.64-.34,52.52,13.54,74.25,35,22.83,22.55,45.83,44.94,69.68,65.87,15.89,13.95,39.48,27.07,55.66,40.59,22.36,18.67,38.59,38.23,63.2,52.62"/>
      <path class="cls-1" d="M1713.05,1.6c6.86,26.93,15.74,52.66,29.2,76.01,9.04,15.67,22.1,25.58,33.88,37.48,10.56,10.68,19.85,23.16,30.42,33.82,13.32,13.43,26.24,28.37,41.36,38.08,24.94,16.02,48.34,34.05,69.33,56.7"/>
      <path class="cls-1" d="M1170.06,1.6c7.63,10.27,15.73,20.1,22.8,30.9,14.9,22.78,33.82,40.2,52.34,58.15,13.65,13.23,24.8,28.52,33.03,47.32,15.58,35.57,41.83,57.9,69.48,78.2,18.52,13.59,37.34,26.09,58.52,33.33,13.92,4.76,27.82,8.09,42.19,8.43,13.73.33,27.47.21,41.2-.03,3.37-.06,9.76-1.72,13.12-2.45"/>
      <path class="cls-1" d="M1742.35,1.6c3.05,13.94,5.22,28.27,9.36,41.73,6.41,20.8,19.75,34.67,34.37,47.77,13.26,11.88,25.75,25.63,36.62,40.6,22.41,30.88,48.37,55.86,77.98,75.87,5.77,3.9,10.46,10.09,15.65,15.23"/>
      <path class="cls-1" d="M1506.11,2.7c-17.48,32.53-10.64,54.35,7.48,81.29,13.57,20.19,28.27,39.33,42.99,58.35,8.03,10.38,12.62,22.71,17.4,35.27,7.79,20.47,20.33,36.54,34.64,50.75.96.96,1.27,2.87,1.88,4.34"/>
      <path class="cls-1" d="M1439.02,239.33c13.43,2.93,30.73,9.43,44.21,11.98,10.31,1.95,20.72,3.59,31.13,4.32,7.89.55,15.92.03,23.79-1.03,25.64-3.45,50.92-1.66,76.04,5.44,4.34,1.22,12.55.8,17.13.8"/>
      <path class="cls-1" d="M1801.87,1.6c1.83,12.1,2.72,24.56,5.69,36.24,5.92,23.24,15.79,43.74,31.79,59.58,17.04,16.87,33.85,34.1,50.33,51.75,9.33,9.99,17.79,21.16,26.64,31.8"/>
      <path class="cls-1" d="M1479.56,1.6c2.44,21.64,4.25,43.43,7.67,64.85,1.19,7.47,5.69,14.68,9.85,20.87,16.19,24.13,33.23,47.44,49.1,71.86,5.09,7.83,8.7,17.74,10.99,27.38,5.99,25.26,19.76,39.57,40.52,44.99,16.44,4.29,32.95,8.12,49.44,12.16"/>
      <path class="cls-1" d="M1823.85,1.6c-1.13,41.01,6.57,77.29,36.58,102.43,19.18,16.06,37.9,32.93,56.82,49.44"/>
      <path class="cls-1" d="M1373.06,25.69c5.3,22.46,18.58,57.58,35.98,67.3,11.39,6.36,22.11,15.37,34.01,19.25,18.66,6.1,37.74,12.11,57.57,9.31"/>
      <path class="cls-1" d="M1151.75,1.6c8.43,21.85,18.55,42.69,34.1,58,11.38,11.2,24.67,19.68,37.36,28.85,7.86,5.67,19.47,12.03,35.68,24.26,3.84,2.89,6.97,5.36,9.07,7.03"/>
      <path class="cls-1" d="M1851.32,1.6c2.14,16.51,4.78,32.95,6.26,49.54,1.35,15.08,6.91,27.93,15.04,38.23,13.8,17.48,29.07,33.28,43.72,49.79"/>
      <path class="cls-1" d="M1380.67,1.6c10.66,28.28,27.05,50.74,47.55,69.44,17.75,16.19,38.82,21.15,59.59,27.4"/>
      <path class="cls-1" d="M1288.18,2.7c13.43,20.91,26.73,41.94,40.36,62.66,5.08,7.73,10.84,14.82,16.43,22.06,13.08,16.93,26.17,33.84,39.45,50.54,1.48,1.86,6.63,3.53,8.77,4.63"/>
      <path class="cls-1" d="M1200.28,2.7c7.94,11.74,15.63,23.73,23.86,35.16,14.15,19.64,28.63,38.95,42.98,58.38,10.98,14.86,20.66,30.72,26.55,49.52"/>
      <path class="cls-1" d="M1377.81,41.78c5.5,18.84,16.41,33.09,30.53,41.87,13.07,8.13,27.6,13.61,42,17.67,12.42,3.5,25.56,3.36,38.38,4.82"/>
      <path class="cls-1" d="M1365.23,79.43c6.6,10.54,18.49,25.64,29.06,31.41,3.17,1.73,4.44,8.01,7.53,10.55,19.43,15.95,34.95,39.18,58.57,47.25,9.44,3.22,19.44,4.46,29.26,5.55,7.87.88,15.86.18,23.79.18"/>
      <path class="cls-1" d="M1306.5,2.7c13.73,22.74,27.26,45.67,41.27,68.17,11.59,18.62,23.37,37.12,35.8,54.93,6.91,9.91,10.67,23.31,21.79,28.88,5,2.51,9.54,6.31,14.38,9.58"/>
      <path class="cls-1" d="M1783.56,1.6c1.53,7.7,1.91,16.1,4.79,22.98,9.2,21.99,19.08,43.58,29.27,64.93,2.49,5.21,7.46,8.61,10.75,13.39,8.72,12.66,17.54,25.28,25.61,38.53,14.65,24.05,33.91,41.27,54.96,56.17,2.88,2.04,4.94,5.75,7.39,8.68"/>
      <path class="cls-1" d="M1496.96,89.64c5.19,11.74,9.64,24.07,15.76,35.06,7.11,12.77,16.22,23.92,23.43,36.62,4.95,8.73,9.55,18.46,11.79,28.55,4.51,20.29,13.88,33.97,30.48,40.76,3.02,1.23,7.68,6.5,10.43,8.7"/>
      <path class="cls-1" d="M1395.42,111.68c21.13,14.63,58.04,40.85,82.34,47.11,11.11,2.86,22.56,3.84,33.85,5.68"/>
      <path class="cls-1" d="M1876.96,1.6c3.36,19.07,6.77,38.13,10.06,57.23,4.15,24.13,13.86,44.33,29.32,60.52"/>
      <path class="cls-1" d="M1389.82,1.6c6.41,9.54,11.82,20.47,19.42,28.34,20.72,21.44,43.68,39.27,67.6,55.21.93.62,2.41.08,3.63.08"/>
      <path class="cls-1" d="M1420.02,164.09c16.77,4.22,33.21,14.05,48.55,18.03,6.15,1.6,12.14,4.59,18.34,5.25,1.43.15,2.97.37,8.26.65,11.34.61,23.76.88,23.77.66"/>
      <path class="cls-1" d="M1428.28,124.85c24.24,13.93,49.99,22.41,76.05,29.46,4.9,1.33,6.66,2.95,7.44,9.02,3.94,30.63,22.48,45.59,43.84,57.13,1.16.62,3.76-.92,5.28-1.29"/>
      <path class="cls-1" d="M1760.67,4.9c.5,16.16,8.09,28.57,14.45,41.96,8.85,18.65,23.43,29.26,36.9,41.56.97.88,2.98.12,4.51.12"/>
      <path class="cls-1" d="M1425.61,117.06c22.75,14.17,48.26,20.32,73.2,25.29,2.33.46,4.87-.62,7.31-.99"/>
      <path class="cls-1" d="M1893.44,1.6c3.36,18.34,6.69,36.69,10.08,55.02,2.4,12.95,6.75,24.83,13.72,35.22"/>
      <path class="cls-1" d="M1316.57,1.6c16.39,17.95,28.09,40.13,39.45,62.67,3.47,6.88,7.9,13.06,11.78,19.38"/>
      <path class="cls-1" d="M1416.38,2.7c8.76,18.2,19.04,34.45,34.65,45.41,5.77,4.05,9.66,11.8,14.91,17.15,2.38,2.42,5.99,3.1,9.04,4.56"/>
      <path class="cls-1" d="M1900.76,1.6c5.49,22.01,10.99,44.02,16.48,66.03"/>
      <path class="cls-1" d="M1327.56,1.6c10.07,17.24,19.99,34.61,30.34,51.62,2.23,3.66,8.76,8.5,11.81,11.44"/>
      <path class="cls-1" d="M1467.65,4.9c2.1,22.26,7.51,43.1,18.31,61.63"/>
      <path class="cls-1" d="M1431.94,1.6c3.97,7.34,7.6,14.98,11.99,21.93,5.76,9.12,11.98,17.84,18.32,26.39,1.84,2.48,4.79,3.77,7.23,5.6"/>
      <path class="cls-1" d="M1347.7,1.6c7.4,21.97,14.8,43.95,20.69,61.45,18.32,23.66,34.67,43.86,57.14,54.1"/>
      <path class="cls-1" d="M1632.68,261.55c11.72,7.48,24.05,13.42,33.21,26.16,4.72,6.57,11.97,10.52,18.07,15.66"/>
      <path class="cls-1" d="M1515.27,180.97c-10.07.73-25.92,3.88-36,4.61"/>
      <path class="cls-1" d="M1456.67,1.6c.34,14.99,5.44,28.42,10.21,41.75,6.79,18.98,14.38,37.56,21.94,56.14,1.79,4.41,4.89,8.04,7.21,12.18,7.28,12.99,12.57,26.87,12.84,42.9"/>
      <path class="cls-1" d="M1911.75,1.6c1.83,11,3.66,22.01,5.49,33.01"/>
      <path class="cls-1" d="M1368.59,63.31c4.58,5.87,18.71,31.24,22.96,37.44,1.84,2.69,2.65,7.64,3.87,10.94"/>
      <path class="cls-1" d="M1366.02,3.8c3.36,10.64,6.71,21.28,10.07,31.91"/>
      <path class="cls-1" d="M1444.76,1.6c4.27,5.87,8.55,11.74,12.82,17.61"/>
      <path class="cls-1" d="M1118.14,95.56c.21.88.58,2.31,1.12,4.03,2.81,8.97,6.92,14.87,8.96,17.76,25.72,36.33,46.53,50.15,46.53,50.15,21.52,14.3,27.21,9,52.89,26.96,10.35,7.24,17.59,13.81,22.86,18.62,27.88,25.47,29.33,37.43,48.78,55.79,23.46,22.14,47.82,29.72,60.28,33.44,18.28,5.46,32.23,5.76,54.99,6.26,25.28.55,38.7-1.55,59.52-3.07,58.72-4.3,53.81,4.97,107.13.71,27.43-2.19,54.95-2.42,82.42-4.07,5.72-.34,11.68-.72,19.58,1.12,18.18,4.22,23.15,14.67,49.99,34.02,16.7,12.04,18.66,10.79,33.06,22.5,12.24,9.95,20.7,18.89,27.5,31.18.32.59-.1-.16,6.49,13.85,9.7,20.64,13.17,27.71,19.05,36,2.68,3.77,4.85,6.38,6.32,8.14,15.44,18.49,33.37,29.46,39.43,33.27,12.53,7.87,29.95,20.04,52.23,39.29"/>
      <path class="cls-1" d="M1412.19,110.34c2,.87,13.41,13.31,16.77,14.78"/>
      <path class="cls-1" d="M1376.41,36.44c.5,1.96,1,3.92,1.51,5.88"/>
    </g>
    <g>
      <path class="cls-1" d="M1911.53,791.58c-1.81-.13-3.79-.15-5.89,0-8.92.64-15.81,4.05-20.03,6.71-6.93,2.94-16.51,6.18-28.28,7.83-8.75,1.22-45.82,4.64-56.31,8.85-23.26,9.33-37.59,27.32-46.29,49.22-4.73,11.9-6.67,24.86-12.01,36.46-8.86,19.27-24.49,33.59-42.19,45.9-7.42,5.16-14.86,10.3-22.19,15.57-23.46,16.88-34.26,40.81-41.56,66.82-6.68,23.81-8.28,48-5.57,72.33,1.64,14.74,5.4,29.27,7.42,43.99,1.62,11.82,3.57,23.89,2.73,35.68-1.94,27.23-7.4,54.32-7.79,81.52-.32,22.55,5.11,45.12,6.94,67.77.48,5.96-3.26,24.62,1.19,48.52.36,1.95,2.13,6.61,2.35,7.64"/>
      <path class="cls-1" d="M1913.89,805c-15.57.26-49.9,2.92-84.04,24.36-9.7,6.09-36.8,21.32-50.12,51.29-13.16,29.6-25.6,59.53-43.59,86.9-5.09,7.74-10.97,15.14-17.36,21.95-15.13,16.14-31.33,31.38-46.04,47.84-11.52,12.88-15.74,29.25-16.31,45.65-.98,28.35-.52,56.77-.21,85.15.36,32.05.91,64.11,1.97,96.14.51,15.31-10.79,42.16,3.83,65.93,1.26,2.05,2.44,3.67,3.26,4.74"/>
      <path class="cls-1" d="M1913.8,815.61c-15.76,5.19-31.68,9.99-47.25,15.65-28.71,10.43-48.11,29.24-60.28,56.52-10.56,23.69-23.44,46.67-37.67,68.58-9.22,14.2-23.04,25.65-34.22,38.77-16.97,19.9-36.19,37.94-51.52,59.27-11.8,16.42-15.29,34.62-19.19,53.27-3.87,18.55.92,36.1,3.75,54.1,2.37,15.06,2.87,30.48,3.03,45.74.25,23.8-.35,47.62-.89,71.42-.21,9.17-1.18,18.32-1.87,27.47-.93,12.52-2.09,25.02-2.77,37.55-.16,3.01,1.17,6.1,1.81,9.15"/>
      <path class="cls-1" d="M1912.83,831.17c-17.05,7.33-34.97,13.27-50.94,22.3-23.25,13.16-38.15,34.16-48.15,57.48-9.06,21.12-21.47,39.23-39.83,53.96-38,30.48-65.73,68.49-86.62,110.87-10.59,21.49-11.92,44.99-8.95,68.55.19,1.54.88,3.05.91,4.58.69,39.07,2.25,78.15,1.58,117.2-.34,19.57-4.82,39.07-7.3,58.61-.85,6.69-.56,15.81-1.21,22.53"/>
      <path class="cls-1" d="M1913.8,1214.84c-12.55.61-25.09,1.17-37.63,1.84-26.02,1.4-43.37,16.79-61.01,32.74-14.66,13.25-30.2,25.58-48.87,34.35-28.39,13.34-44.27,36.24-50.39,65.65-5.5,26.41-12.46,52.62-29.08,74.96-12.12,16.28-26.59,30.97-39.23,46.93-11.52,14.54-24.21,28.82-32.35,45.04-9.16,18.26-20.29,36.51-32.95,52.78-8.55,11-17.97,21.39-26.9,32.14-1.87,2.25-3.25,4.86-4.86,7.3"/>
      <path class="cls-1" d="M1912.83,1234.06c-18.34-10.62-36.97-8.08-54.93.14-25.4,11.62-47.1,28.35-67.68,46.5-13.85,12.21-27.97,24.18-42.49,35.67-12.61,9.98-17.29,23.84-22.03,37.66-8.65,25.24-16.01,50.91-25.44,75.88-6.81,18.04-20.87,32.15-33.59,46.73-9.58,10.99-19.54,21.72-29.92,32.03-11.81,11.73-21.46,31.3-28.65,45.81-8.62,17.39-19.71,28.08-29.51,44.96-1.58,2.73-2.02,6.06-2.98,9.11"/>
      <path class="cls-1" d="M1912.83,1250.55c-12.12-6.1-25.05-4.4-37.61-2.61-35.33,5.03-63.74,22.58-87.65,46.73-10.78,10.9-19.6,23.56-29.11,35.57-7.58,9.57-18.05,16.59-23.5,28.23-8.88,18.95-15.8,38.75-18.32,58.81-3.54,28.2-16.34,50.86-35.46,71.31-12.99,13.9-27.91,26.44-39.16,41.48-16.86,22.55-33.61,46.76-49.05,70.26-1.61,2.44-3.22,4.88-4.82,7.33"/>
      <path class="cls-1" d="M1913.8,1274.35c-25.97-8.22-51.82-7.63-77.12,2.03-6.99,2.67-14.29,6.63-19.14,11.91-16.37,17.85-33.14,35.29-44.22,57.23-5.51,10.91-16.13,19.87-25.71,28.43-8.5,7.59-11.44,16.6-12.3,26.77-3.53,42.11-19.89,78.96-49.18,110.86-16.2,17.65-32.64,35.24-47.01,54.2-9.91,13.07-16.44,28.45-24.48,42.79"/>
      <path class="cls-1" d="M1909.94,1288.09c-38.98-3.81-69.64,8.38-91.98,40.1-11.11,15.77-25.43,29.5-38.29,44.15-30.32,13.86-38.68,40.23-44.64,68.63-3.75,17.86-5.19,36.76-17.19,52.19-7.33,9.43-14.26,19.53-23.33,27.27-17.45,14.9-31.54,32.08-44.17,50.6-8.58,12.58-17.35,25.04-26.04,37.55"/>
      <path class="cls-1" d="M1913.8,1315.56c-39.34-1.27-72.02,11.16-95.49,42.15-7.03,9.28-13.7,18.8-20.26,28.39-5.18,7.56-11.58,13.91-20.36,17.26-15.7,6.01-23.55,18.21-28.76,32.2-4.57,12.28-7.81,25-11.74,37.49-7.07,22.44-19.59,41.85-35.59,59.61-17.82,19.78-34.98,40.1-52.11,60.43-3.92,4.65-6.54,10.3-9.75,15.49"/>
      <path class="cls-1" d="M1913.8,910.84c-30.56,27.47-61.32,54.74-91.61,82.48-20.95,19.18-41.48,38.78-61.75,58.61-14.23,13.92-20.05,31.69-24.34,50.26-6.79,29.35-15.79,58.36-14.25,88.84.74,14.68,2.22,33.12,3.5,47.77"/>
      <path class="cls-1" d="M1913.8,1337.53c-10.29,1.53-20.54,3.79-30.89,4.42-19.69,1.19-32.78,12.56-45.26,24.96-5.35,5.32-10.42,11.12-14.44,17.39-12.74,19.88-28.96,36.66-49.45,49.22-18.81,11.52-27.8,28.65-34.73,47.74-9.87,27.22-23.33,52.27-46.97,71.7-8.16,6.71-14.03,16.04-20.41,24.53-7.41,9.85-14.23,20.09-21.31,30.16"/>
      <path class="cls-1" d="M1805.48,963.76c-5.91,5.86-14.41,14.59-24.05,25.65-14.72,16.89-46.39,48.43-61.53,92.68-5.28,15.43-10.04,31.03-14.37,46.72-1.44,5.22-1.13,10.95-1.09,16.44.19,22.89.68,45.78.88,68.68.15,17.7-.38,35.42.2,53.1.31,9.51.12,18.63-3.97,27.5-3.93,8.52-7.41,17.22-9.41,26.19-2.99,10.49-5.71,21.07-9.04,31.46-5.98,18.63-19.64,32.29-32.3,47.06-14.16,16.51-24.94,35.64-37.1,53.69-11.8,17.51-28.75,38.28-47.84,48.43-52.02,27.67-49.73,47.36-62.63,63.36-14.43,17.89-24.17,33.77-29.9,43.86"/>
      <path class="cls-1" d="M1913.8,1351.27c-21.01,5.25-38.1,16.95-53.98,30.28-26.6,22.34-52.25,45.74-79.42,67.44-14.85,11.86-28.46,24.3-37.24,40.62-8.5,15.8-15.22,32.45-23.43,48.4-9.6,18.68-21.67,35.81-37.47,50.47-6.5,6.03-12.29,12.76-18.4,19.17"/>
      <path class="cls-1" d="M1912.83,948.38c-12.87,10.38-26.07,20.41-38.52,31.22-16.11,13.99-31.86,28.37-47.3,43.02-15.44,14.65-30.69,29.52-45.33,44.88-19.6,20.57-33.93,44.48-40.15,71.44-4.39,19.02-4.38,38.97-6.24,58.51-.78,8.23-1.04,20.82-1.69,29.06"/>
      <path class="cls-1" d="M1913.8,1383.32c-30.28,11.21-60.93,21.74-86.82,41.24-3.74,2.81-7.28,5.91-10.61,9.15-19.36,18.87-39.85,36.86-57.53,57.06-13,14.86-23.5,32.05-32.92,49.27-12.9,23.59-23.73,48.21-43.74,67.59-.48.46-1.27.63-1.91.94"/>
      <path class="cls-1" d="M1699.44,1339.42c-3.86,11.29-8.35,24.43-12.47,35.64-5.34,14.54-16.12,25.77-25.95,37.6-12.78,15.39-25.86,30.63-37.52,46.77-15.63,21.64-37.85,45.17-56.71,63.96-23.83,23.73-49.73,40.21-61.63,72.36-1.58,4.28-3.21,8.55-4.82,12.82"/>
      <path class="cls-1" d="M1699.57,1339.37c5.86-.34,3.75,3.91,3.78,6.41.3,28.64-11.87,52.52-30.69,74.25-19.77,22.83-39.4,45.83-57.76,69.68-12.23,15.89-23.74,39.48-35.59,55.66-16.37,22.36-33.53,38.59-46.14,63.2"/>
      <path class="cls-1" d="M1913.8,1404.38c-23.61,6.86-46.18,15.74-66.66,29.2-13.74,9.04-22.43,22.1-32.87,33.88-9.36,10.56-20.31,19.85-29.66,30.42-11.78,13.32-24.88,26.24-33.4,41.36-14.05,24.94-29.86,48.34-49.72,69.33"/>
      <path class="cls-1" d="M1913.8,861.39c-9.01,7.63-17.63,15.73-27.1,22.8-19.97,14.9-35.25,33.82-51,52.34-11.6,13.65-25.01,24.8-41.5,33.03-31.19,15.58-50.77,41.83-68.57,69.48-11.92,18.52-22.88,37.34-29.23,58.52-4.17,13.92-7.09,27.82-7.39,42.19-.29,13.73-.19,27.47.03,41.2.05,3.37,1.51,9.76,2.15,13.12"/>
      <path class="cls-1" d="M1913.8,1433.68c-12.22,3.05-24.79,5.22-36.59,9.36-18.24,6.41-30.4,19.75-41.89,34.37-10.42,13.26-22.47,25.75-35.61,36.62-27.08,22.41-48.99,48.37-66.53,77.98-3.42,5.77-8.85,10.46-13.35,15.65"/>
      <path class="cls-1" d="M1912.83,1197.44c-28.53-17.48-47.66-10.64-71.28,7.48-17.7,13.57-34.49,28.27-51.17,42.99-9.11,8.03-19.92,12.62-30.93,17.4-17.95,7.79-32.04,20.33-44.5,34.64-.84.96-2.51,1.27-3.8,1.88"/>
      <path class="cls-1" d="M1705.33,1130.35c-2.57,13.43-8.27,30.73-10.5,44.21-1.71,10.31-3.15,20.72-3.78,31.13-.48,7.89-.03,15.92.9,23.79,3.02,25.64,1.45,50.92-4.77,76.04-1.07,4.34-.7,12.55-.7,17.13"/>
      <path class="cls-1" d="M1913.8,1493.2c-10.62,1.83-21.53,2.72-31.78,5.69-20.38,5.92-38.35,15.79-52.25,31.79-14.8,17.04-29.9,33.85-45.38,50.33-8.76,9.33-18.56,17.79-27.88,26.64"/>
      <path class="cls-1" d="M1913.8,1170.88c-18.98,2.44-38.09,4.25-56.87,7.67-6.55,1.19-12.87,5.69-18.3,9.85-21.16,16.19-41.6,33.23-63.01,49.1-6.87,5.09-15.55,8.7-24.01,10.99-22.15,5.99-34.7,19.76-39.45,40.52-3.76,16.44-7.12,32.95-10.66,49.44"/>
      <path class="cls-1" d="M1913.8,1515.17c-35.96-1.13-67.78,6.57-89.82,36.58-14.09,19.18-28.88,37.9-43.35,56.82"/>
      <path class="cls-1" d="M1892.68,1064.38c-19.69,5.3-50.49,18.58-59.01,35.98-5.58,11.39-13.47,22.11-16.88,34.01-5.35,18.66-10.62,37.74-8.17,57.57"/>
      <path class="cls-1" d="M1913.8,843.08c-19.16,8.43-37.44,18.55-50.86,34.1-9.82,11.38-17.26,24.67-25.3,37.36-4.98,7.86-10.55,19.47-21.28,35.68-2.54,3.84-4.7,6.97-6.16,9.07"/>
      <path class="cls-1" d="M1913.8,1542.64c-14.48,2.14-28.89,4.78-43.44,6.26-13.22,1.35-24.49,6.91-33.52,15.04-15.33,13.8-29.19,29.07-43.66,43.72"/>
      <path class="cls-1" d="M1913.8,1071.99c-24.8,10.66-44.5,27.05-60.89,47.55-14.2,17.75-18.54,38.82-24.03,59.59"/>
      <path class="cls-1" d="M1912.83,979.51c-18.34,13.43-36.78,26.73-54.95,40.36-6.78,5.08-13,10.84-19.34,16.43-14.84,13.08-29.67,26.17-44.32,39.45-1.63,1.48-3.1,6.63-4.06,8.77"/>
      <path class="cls-1" d="M1912.83,891.61c-10.29,7.94-20.81,15.63-30.83,23.86-17.23,14.15-34.15,28.63-51.19,42.98-13.03,10.98-26.94,20.66-43.43,26.55"/>
      <path class="cls-1" d="M1878.56,1069.14c-16.52,5.5-29.02,16.41-36.71,30.53-7.13,13.07-11.93,27.6-15.49,42-3.07,12.42-2.94,25.56-4.23,38.38"/>
      <path class="cls-1" d="M1845.55,1056.56c-9.24,6.6-22.48,18.49-27.54,29.06-1.52,3.17-7.03,4.44-9.25,7.53-13.98,19.43-34.36,34.95-41.43,58.57-2.83,9.44-3.91,19.44-4.87,29.26-.77,7.87-.16,15.86-.16,23.79"/>
      <path class="cls-1" d="M1912.83,997.82c-19.94,13.73-40.05,27.26-59.78,41.27-16.33,11.59-32.55,23.37-48.17,35.8-8.69,6.91-20.44,10.67-25.33,21.79-2.2,5-5.54,9.54-8.4,14.38"/>
      <path class="cls-1" d="M1913.8,1474.88c-6.76,1.53-14.12,1.91-20.15,4.79-19.28,9.2-38.22,19.08-56.94,29.27-4.57,2.49-7.55,7.46-11.74,10.75-11.1,8.72-22.17,17.54-33.79,25.61-21.09,14.65-36.19,33.91-49.26,54.96-1.79,2.88-5.04,4.94-7.61,7.39"/>
      <path class="cls-1" d="M1836.6,1188.28c-10.29,5.19-21.11,9.64-30.74,15.76-11.2,7.11-20.97,16.22-32.12,23.43-7.66,4.95-16.19,9.55-25.04,11.79-17.79,4.51-29.79,13.88-35.74,30.48-1.08,3.02-5.7,7.68-7.63,10.43"/>
      <path class="cls-1" d="M1817.27,1086.74c-12.83,21.13-35.82,58.04-41.31,82.34-2.51,11.11-3.37,22.56-4.98,33.85"/>
      <path class="cls-1" d="M1913.8,1568.28c-16.73,3.36-33.44,6.77-50.18,10.06-21.16,4.15-38.87,13.86-53.07,29.32"/>
      <path class="cls-1" d="M1913.8,1081.15c-8.36,6.41-17.95,11.82-24.85,19.42-18.8,20.72-34.44,43.68-48.42,67.6-.55.93-.07,2.41-.07,3.63"/>
      <path class="cls-1" d="M1771.31,1111.34c-3.7,16.77-12.32,33.21-15.81,48.55-1.4,6.15-4.02,12.14-4.6,18.34-.13,1.43-.32,2.97-.57,8.26-.53,11.34-.78,23.76-.58,23.77"/>
      <path class="cls-1" d="M1805.72,1119.61c-12.21,24.24-19.65,49.99-25.84,76.05-1.16,4.9-2.58,6.66-7.91,7.44-26.86,3.94-39.98,22.48-50.09,43.84-.55,1.16.81,3.76,1.13,5.28"/>
      <path class="cls-1" d="M1910.9,1451.99c-14.17.5-25.06,8.09-36.79,14.45-16.35,8.85-25.66,23.43-36.45,36.9-.77.97-.1,2.98-.1,4.51"/>
      <path class="cls-1" d="M1812.55,1116.93c-12.43,22.75-17.82,48.26-22.18,73.2-.41,2.33.55,4.87.87,7.31"/>
      <path class="cls-1" d="M1913.8,1584.76c-16.08,3.36-32.17,6.69-48.25,10.08-11.36,2.4-21.77,6.75-30.88,13.72"/>
      <path class="cls-1" d="M1913.8,1007.9c-15.74,16.39-35.19,28.09-54.95,39.45-6.03,3.47-11.45,7.9-16.99,11.78"/>
      <path class="cls-1" d="M1912.83,1107.7c-15.96,8.76-30.21,19.04-39.82,34.65-3.55,5.77-10.35,9.66-15.04,14.91-2.12,2.38-2.72,5.99-4,9.04"/>
      <path class="cls-1" d="M1913.8,1592.09c-19.3,5.49-38.6,10.99-57.9,16.48"/>
      <path class="cls-1" d="M1913.8,1018.88c-15.12,10.07-30.35,19.99-45.26,30.34-3.21,2.23-7.46,8.76-10.03,11.81"/>
      <path class="cls-1" d="M1910.9,1158.98c-19.52,2.1-37.8,7.51-54.04,18.31"/>
      <path class="cls-1" d="M1913.8,1123.27c-6.43,3.97-13.14,7.6-19.23,11.99-7.99,5.76-15.65,11.98-23.14,18.32-2.17,1.84-3.3,4.79-4.91,7.23"/>
      <path class="cls-1" d="M1913.8,1039.03c-19.27,7.4-38.54,14.8-53.88,20.69-20.75,18.32-38.46,34.67-47.44,57.14"/>
      <path class="cls-1" d="M1685.84,1324c-6.56,11.72-11.77,24.05-22.94,33.21-5.76,4.72-9.23,11.97-13.73,18.07"/>
      <path class="cls-1" d="M1756.5,1206.59c-.64-10.07-3.4-25.92-4.04-36"/>
      <path class="cls-1" d="M1913.8,1147.99c-13.14.34-24.92,5.44-36.61,10.21-16.65,6.79-32.94,14.38-49.23,21.94-3.87,1.79-7.05,4.89-10.68,7.21-11.39,7.28-23.56,12.57-37.62,12.84"/>
      <path class="cls-1" d="M1913.8,1603.08c-9.65,1.83-19.3,3.66-28.95,5.49"/>
      <path class="cls-1" d="M1859.68,1059.91c-5.15,4.58-27.4,18.71-32.83,22.96-2.35,1.84-6.7,2.65-9.59,3.87"/>
      <path class="cls-1" d="M1911.87,1057.34c-9.33,3.36-18.66,6.71-27.99,10.07"/>
      <path class="cls-1" d="M1913.8,1136.09c-5.15,4.27-10.29,8.55-15.44,12.82"/>
      <path class="cls-1" d="M1831.41,809.47c-.77.21-2.03.58-3.53,1.12-7.87,2.81-13.04,6.92-15.57,8.96-31.86,25.72-43.98,46.53-43.98,46.53-12.54,21.52-7.89,27.21-23.64,52.89-6.35,10.35-12.11,17.59-16.33,22.86-22.34,27.88-32.83,29.33-48.93,48.78-19.42,23.46-26.06,47.82-29.32,60.28-4.78,18.28-5.05,32.23-5.49,54.99-.49,25.28,1.36,38.7,2.69,59.52,3.77,58.72-4.36,53.81-.63,107.13,1.92,27.43,2.12,54.95,3.57,82.42.3,5.72.63,11.68-.98,19.58-3.7,18.18-12.87,23.15-29.83,49.99-10.56,16.7-9.47,18.66-19.73,33.06-8.73,12.24-16.56,20.7-27.34,27.5-.51.32.14-.1-12.15,6.49-18.1,9.7-24.3,13.17-31.57,19.05-3.31,2.68-5.6,4.85-7.14,6.32-16.21,15.44-25.83,33.37-29.17,39.43-6.9,12.53-17.57,29.95-34.46,52.23"/>
      <path class="cls-1" d="M1818.44,1103.52c-.77,2-11.67,13.41-12.96,16.77"/>
      <path class="cls-1" d="M1883.25,1067.74c-1.72.5-3.44,1-5.16,1.51"/>
    </g>
    <g>
      <path class="cls-1" d="M4.99,996.48c11.74-19.86,27.31-35.72,42.26-51.27,14.2-14.77,28.52-29.46,42.1-45.22,15.95-18.52,29.42-42.41,35.89-69.17,3.25-13.44,4.65-27.71,3.54-41.76-.69-8.79-2.1-17.49-2.25-26.35-.14-8.15.87-16.24,2.52-24.08,7.58-36.1,26.29-66.76,41.85-97.47,13.75-27.12,23.25-56.08,22.28-89.13-.9-30.7-8.9-59.77-25.63-81.83-9.44-12.45-21.2-21.28-31.28-32.75-4.85-5.52-9.82-10.97-13.88-17.52-4.16-6.71-6.85-14.74-9.51-22.58-5.48-16.12-9.99-32.81-16.15-48.54-5.93-15.14-13.65-27.39-23.36-38.67-4.78-5.55-9.71-10.86-14.44-16.49-3.23-3.84-6.86-7.66-9.03-12.68-4.63-10.7-8.75-21.11-15.63-29.79-2.06-2.6-4.29-5.39-6.79-7.27-1.71-1.29-3.64-2.06-5.37-3.3"/>
      <path class="cls-1" d="M5.83,981.51c24.58-28.01,45.26-59.01,64.41-96.01,5.36-11,9.96-21,13.79-32,3.06-10,6.89-20,7.66-31,3.83-51,3.06-101,16.85-150,1.53-6,3.83-11,5.36-17,9.96-30,21.44-58,32.17-87,3.83-12,6.13-25,4.6-39-2.3-20-12.25-33-20.68-50-2.3-4-4.6-7-6.89-11-10.72-20-19.15-37-30.63-55-3.06-5-5.36-10-8.42-16-6.89-11-13.02-22-19.91-33-6.89-12-9.19-26-14.55-39-2.3-5-4.6-9-8.42-12-6.13-5-13.79-7-20.46-6.96"/>
      <path class="cls-1" d="M6.75,955.24c11.4-14.74,21.36-29.74,31.31-47.74l6.89-15c6.89-16,11.49-32,12.25-49,3.06-38,6.89-74,15.32-111,3.83-16,7.66-33,15.32-47,11.49-35,22.98-69,34.46-105,3.06-10,5.36-21,6.89-32,2.3-18-.77-35-3.83-52-.77-2-1.53-4-2.3-7-6.89-18-21.44-27-32.93-41-15.32-20-26.04-42-37.53-67-2.3-4-3.83-7-6.13-11-1.53-3-1.53-5-3.06-8l-2.3-3c-8.42-21-15.32-42-25.27-63-1.53-2-3.83-3-5.12-3.72"/>
      <path class="cls-1" d="M5.13,928.73c22.98-34.23,35.24-78.23,35.24-123.23,3.06-19,6.89-37,13.79-55,16.85-38,32.17-73,42.89-114,7.66-29,13.02-58,15.32-89,.77-10,.77-21-2.3-31-.77-2-1.53-4-2.3-7-1.53-5-3.83-9-6.13-14-3.83-7-9.19-12-13.79-18-15.32-26-29.87-49-43.65-77-2.3-4-4.6-7-6.89-11-9.19-19-14.55-39-19.91-60-3.06-9-6.89-17-10.5-25.86"/>
      <path class="cls-1" d="M3.23,57.53C6.35,40,9.51,21.2,15.62,4.98"/>
      <path class="cls-1" d="M2.45,737.5c3.45-5,4.21-11,7.28-17,2.3-6,3.83-12,6.13-18,9.96-23,19.15-46,26.04-70,10.72-39-1.53-79-10.72-117-4.6-22-16.85-39-29.57-53.86"/>
      <path class="cls-1" d="M3.36,253.68c4.07-14.18,9.43-27.18,12.49-42.18,9.19-43,13.79-85,31.4-124,11.49-25,25.27-44,37.53-68,1.53-4,3.06-8,4.6-11.97"/>
      <path class="cls-1" d="M25.18,768.77c19.78-55.27,42.75-110.27,45.82-172.27,1.53-26,.77-52-5.36-77-1.53-4-3.06-8-5.36-12-14.55-25-26.8-47-41.36-72-3.06-5-4.6-10-7.66-16-1.53-2-3.06-4-4.6-7s-2.3-6-3.8-8.69"/>
      <path class="cls-1" d="M4.37,661.33c8.42-23.83,16.08-48.83,17.61-74.83,1.53-32-8.42-62-20.48-89.02"/>
      <path class="cls-1" d="M3.27,193.27c6.95-24.86,12.93-50.15,20.54-74.7s16.15-48.63,25.18-72.34c5.11-13.41,10.41-26.69,15.85-39.86"/>
      <path class="cls-1" d="M3.32,146.63c3.34-11.13,6.41-21.13,8.7-32.13,6.89-38,11.49-74,22.27-109.17"/>
      <path class="cls-1" d="M1.64,826.06c8.02-26.13,19.1-50.14,32.69-71.99,13.58-21.83,25.29-45.03,33.94-70.86,7.48-22.31,12.65-45.76,17.08-69.38,5.26-28.1,9.15-56.79,4.91-85.58-2-13.61-5.91-25.46-11.76-36.97-3.19-6.27-6.49-12.44-9.86-18.54-2.92-5.3-5.57-11.05-9.58-15.06-1.61-1.61-3.3-3.08-4.94-4.63"/>
      <path class="cls-1" d="M66.45,521.88c-3.11-15.38-3.88-31.38-6.94-46.38-3.83-15-6.89-30-15.32-42-9.96-15-21.44-27-27.57-45-3.83-13-6.89-25-9.19-39-.77-3-3.06-5-4.73-8.02"/>
      <path class="cls-1" d="M2.69,883.05c7.8-34.55,10.87-70.55,19.02-105.51"/>
      <path class="cls-1" d="M4.41,786.36c9.33-19.59,19.98-38.07,32.23-54.72"/>
      <path class="cls-1" d="M1.89,336.05c1.3-9.85,2.19-19.8,4.35-29.42,2.57-11.48,7.99-21.06,10.86-32.28,1.59-6.22,2.52-12.69,4.08-18.93"/>
      <path class="cls-1" d="M64.69,926.61c8.6-12.11,16.26-25.11,22.39-40.11,1.53-3,3.06-5,4.6-8,6.89-17,12.25-33,17.61-50,3.06-11,3.83-23,4.6-34,0-14-1.53-28,0-42,5.36-33,13.79-63,26.8-92,16.08-35,29.1-71,28.34-111-.77-34-13.79-63-30.63-89-12.25-19-25.27-35-35.99-56-6.89-15-10.72-29-18.38-44-6.89-12-13.79-20-20.68-31-3.06-5-5.36-10-8.42-15-2.3-3-4.6-7-6.89-10-6.89-11-12.25-22-19.91-32-13.79-20-4.6-46,0-68,6.13-25,8.42-49,14.55-74,1.53-10,3.83-20,8.42-29,5.36-11,10.72-21,16.85-32,12.25-22,26.8-39,35.61-62.93"/>
    </g>
  </g>
</svg>