<?xml version="1.0" encoding="UTF-8"?>
<svg id="Layer_2" data-name="Layer 2" xmlns="http://www.w3.org/2000/svg" viewBox="0 0 1923.84 1087.5">
  <defs>
    <style>
      .cls-1 {
        fill: none;
        stroke: #e57221;
        stroke-linecap: round;
        stroke-linejoin: round;
        stroke-width: 2.12px;
      }
    </style>
  </defs>
  <g id="Layer_1-2" data-name="Layer 1">
    <g>
      <path class="cls-1" d="M1346.59,2.64c-.09,1.22-.11,2.55,0,3.97.45,6.02,2.86,10.66,4.73,13.51,2.07,4.67,4.36,11.13,5.52,19.07.86,5.9,3.27,30.9,6.24,37.97,6.58,15.68,19.27,25.35,34.71,31.21,8.39,3.19,17.53,4.5,25.71,8.1,13.59,5.97,23.69,16.51,32.37,28.45,3.64,5.01,7.26,10.02,10.98,14.97,11.9,15.82,28.78,23.1,47.12,28.03,16.79,4.51,33.85,5.58,51.01,3.75,10.4-1.11,20.64-3.64,31.02-5,8.34-1.09,16.85-2.4,25.16-1.84,19.2,1.31,38.31,4.99,57.49,5.25,15.9.22,31.82-3.45,47.79-4.68,4.2-.32,17.36,2.19,34.22-.8,1.38-.25,4.66-1.43,5.39-1.59"/>
      <path class="cls-1" d="M1356.05,1.06c.18,10.5,2.06,33.65,17.18,56.67,4.29,6.54,15.04,24.81,36.17,33.8,20.87,8.88,41.98,17.26,61.28,29.39,5.46,3.43,10.68,7.4,15.48,11.71,11.38,10.2,22.13,21.13,33.74,31.04,9.08,7.76,20.63,10.61,32.19,10.99,19.99.66,40.04.35,60.05.14,22.6-.24,45.21-.61,67.8-1.33,10.8-.34,29.73,7.28,46.5-2.58,1.45-.85,2.59-1.64,3.34-2.2"/>
      <path class="cls-1" d="M1363.53,1.11c3.66,10.63,7.05,21.36,11.04,31.86,7.36,19.36,20.62,32.44,39.86,40.64,16.71,7.12,32.91,15.8,48.36,25.4,10.01,6.22,18.09,15.54,27.34,23.08,14.03,11.44,26.76,24.4,41.8,34.74,11.58,7.96,24.42,10.31,37.57,12.93,13.08,2.61,25.46-.62,38.15-2.53,10.62-1.6,21.5-1.94,32.26-2.05,16.78-.17,33.58.24,50.37.6,6.47.14,12.92.8,19.37,1.26,8.83.63,17.64,1.41,26.48,1.87,2.12.11,4.3-.79,6.45-1.22"/>
      <path class="cls-1" d="M1374.51,1.77c5.17,11.5,9.36,23.58,15.73,34.35,9.28,15.68,24.09,25.72,40.54,32.47,14.89,6.11,27.67,14.48,38.05,26.86,21.5,25.62,48.3,44.32,78.19,58.41,15.16,7.14,31.73,8.04,48.34,6.03,1.09-.13,2.15-.6,3.23-.61,27.55-.47,55.11-1.52,82.65-1.06,13.8.23,27.55,3.25,41.33,4.92,4.72.57,11.15.38,15.89.81"/>
      <path class="cls-1" d="M1645.08,1.11c.43,8.46.83,16.92,1.3,25.37.99,17.54,11.84,29.25,23.09,41.14,9.34,9.89,18.04,20.36,24.22,32.95,9.41,19.15,25.56,29.85,46.3,33.98,18.63,3.71,37.11,8.4,52.86,19.61,11.48,8.17,21.84,17.93,33.1,26.45,10.25,7.77,20.32,16.33,31.76,21.81,12.88,6.18,25.75,13.68,37.22,22.21,7.76,5.77,15.08,12.12,22.67,18.14,1.59,1.26,3.43,2.19,5.15,3.28"/>
      <path class="cls-1" d="M1658.64,1.77c-7.49,12.36-5.7,24.93.1,37.04,8.19,17.13,19.99,31.76,32.79,45.64,8.61,9.34,17.05,18.86,25.16,28.65,7.04,8.51,16.81,11.66,26.56,14.85,17.8,5.83,35.9,10.8,53.51,17.15,12.72,4.59,22.67,14.08,32.96,22.65,7.75,6.46,15.32,13.18,22.59,20.18,8.27,7.96,22.07,14.47,32.31,19.32,12.26,5.81,19.8,13.29,31.71,19.89,1.93,1.06,4.27,1.36,6.42,2.01"/>
      <path class="cls-1" d="M1670.26,1.77c-4.3,8.17-3.1,16.89-1.84,25.36,3.55,23.82,15.92,42.98,32.96,59.1,7.69,7.27,16.62,13.22,25.09,19.63,6.75,5.11,11.7,12.17,19.91,15.85,13.36,5.99,27.33,10.66,41.47,12.35,19.89,2.38,35.87,11.02,50.29,23.91,9.8,8.76,18.65,18.82,29.25,26.4,15.9,11.37,32.98,22.66,49.55,33.08,1.72,1.09,3.44,2.17,5.17,3.25"/>
      <path class="cls-1" d="M1687.06,1.11c-5.8,17.51-5.38,34.94,1.43,52,1.88,4.71,4.68,9.64,8.4,12.91,12.59,11.04,24.89,22.35,40.36,29.82,7.69,3.71,14.01,10.87,20.05,17.33,5.35,5.73,11.71,7.72,18.88,8.29,29.7,2.38,55.69,13.41,78.18,33.16,12.45,10.92,24.85,22.01,38.22,31.69,9.22,6.68,20.06,11.09,30.18,16.51"/>
      <path class="cls-1" d="M1696.74,3.72c-2.69,26.28,5.91,46.95,28.28,62.03,11.12,7.49,20.8,17.14,31.14,25.82,9.77,20.44,28.37,26.08,48.4,30.1,12.6,2.52,25.92,3.5,36.81,11.59,6.65,4.94,13.77,9.62,19.23,15.73,10.51,11.76,22.62,21.26,35.68,29.79,8.87,5.79,17.66,11.7,26.48,17.55"/>
      <path class="cls-1" d="M1716.11,1.11c-.9,26.53,7.87,48.56,29.73,64.39,6.54,4.74,13.26,9.24,20.02,13.66,5.33,3.49,9.81,7.81,12.17,13.72,4.24,10.59,12.84,15.88,22.71,19.39,8.66,3.08,17.63,5.27,26.44,7.92,15.83,4.77,29.51,13.21,42.04,24,13.95,12.02,28.28,23.59,42.62,35.13,3.28,2.64,7.26,4.41,10.92,6.58"/>
      <path class="cls-1" d="M1430.69,1.11c19.37,20.61,38.6,41.35,58.17,61.77,13.53,14.13,27.35,27.97,41.33,41.64,9.82,9.59,22.35,13.52,35.45,16.41,20.7,4.58,41.16,10.65,62.65,9.61,10.35-.5,23.36-1.5,33.69-2.36"/>
      <path class="cls-1" d="M1731.61,1.11c1.08,6.94,2.67,13.85,3.12,20.83.84,13.27,8.86,22.11,17.6,30.52,3.75,3.61,7.84,7.02,12.26,9.73,14.02,8.59,25.85,19.53,34.71,33.34,8.12,12.68,20.2,18.75,33.67,23.42,19.2,6.66,36.86,15.73,50.57,31.67,4.73,5.5,11.31,9.46,17.3,13.77,6.95,4.99,14.17,9.6,21.27,14.37"/>
      <path class="cls-1" d="M1468.01,74.16c4.13,3.98,10.29,9.72,18.09,16.21,11.91,9.93,34.15,31.28,65.36,41.49,10.88,3.56,21.88,6.77,32.95,9.69,3.68.97,7.72.76,11.59.73,16.14-.13,32.29-.46,48.44-.59,12.48-.11,24.98.26,37.45-.13,6.71-.21,13.14-.08,19.39,2.68,6.01,2.65,12.14,5,18.47,6.34,7.4,2.02,14.86,3.85,22.19,6.1,13.14,4.03,22.77,13.24,33.19,21.78,11.64,9.55,25.13,16.82,37.86,25.01,12.35,7.96,27,19.39,34.15,32.26,19.51,35.08,33.4,33.53,44.68,42.23,12.62,9.73,23.82,16.3,30.93,20.16"/>
      <path class="cls-1" d="M1741.3,1.11c3.7,14.17,11.95,25.69,21.35,36.4,15.75,17.94,32.26,35.23,47.56,53.55,8.36,10.01,17.14,19.2,28.65,25.11,11.14,5.73,22.88,10.27,34.13,15.8,13.17,6.47,25.26,14.61,35.59,25.27,4.25,4.39,9,8.29,13.52,12.41"/>
      <path class="cls-1" d="M1457.16,1.77c7.32,8.67,14.39,17.58,22.02,25.97,9.87,10.86,20.01,21.48,30.34,31.89,10.33,10.41,20.82,20.69,31.65,30.56,14.51,13.22,31.37,22.88,50.38,27.07,13.41,2.96,27.48,2.95,41.26,4.21,5.8.53,14.68.71,20.49,1.14"/>
      <path class="cls-1" d="M1763.9,1.11c7.91,20.42,15.33,41.09,29.08,58.55,1.98,2.52,4.17,4.91,6.45,7.16,13.31,13.05,25.99,26.87,40.24,38.79,10.48,8.77,22.6,15.85,34.75,22.19,16.64,8.7,34,16,47.67,29.49.32.32.44.85.66,1.29"/>
      <path class="cls-1" d="M1732.95,145.66c7.96,2.6,17.23,5.63,25.13,8.41,10.25,3.6,18.17,10.87,26.52,17.5,10.85,8.62,21.6,17.44,32.98,25.3,15.26,10.54,31.86,25.52,45.11,38.24,16.74,16.07,28.36,33.53,51.03,41.56,3.02,1.07,6.03,2.17,9.04,3.25"/>
      <path class="cls-1" d="M1732.9,145.57c-.24-3.95,2.76-2.53,4.52-2.55,20.2-.2,37.04,8,52.36,20.7,16.1,13.34,32.32,26.57,49.14,38.95,11.21,8.24,27.84,16.01,39.25,24,15.77,11.04,27.21,22.61,44.57,31.11"/>
      <path class="cls-1" d="M1778.75,1.11c4.84,15.92,11.1,31.14,20.59,44.94,6.38,9.27,15.59,15.13,23.89,22.17,7.45,6.31,14,13.7,21.45,20,9.39,7.94,18.51,16.77,29.17,22.52,17.59,9.47,34.09,20.13,48.89,33.53"/>
      <path class="cls-1" d="M1395.82,1.11c5.38,6.07,11.09,11.88,16.08,18.27,10.51,13.47,23.85,23.77,36.91,34.39,9.63,7.82,17.49,16.87,23.29,27.98,10.99,21.03,29.5,34.24,49,46.24,13.06,8.04,26.33,15.43,41.27,19.71,9.82,2.81,19.62,4.78,29.75,4.99,9.68.19,19.37.13,29.06-.02,2.38-.04,6.88-1.02,9.25-1.45"/>
      <path class="cls-1" d="M1799.41,1.11c2.15,8.24,3.68,16.72,6.6,24.68,4.52,12.3,13.93,20.5,24.24,28.24,9.35,7.02,18.16,15.16,25.83,24.01,15.8,18.26,34.11,33.03,54.99,44.86,4.07,2.31,7.38,5.97,11.04,9.01"/>
      <path class="cls-1" d="M1632.81,1.77c-12.33,19.24-7.5,32.14,5.28,48.06,9.57,11.94,19.94,23.26,30.32,34.51,5.66,6.14,8.9,13.43,12.27,20.86,5.49,12.1,14.34,21.6,24.43,30.01.68.56.9,1.69,1.33,2.56"/>
      <path class="cls-1" d="M1585.5,141.69c9.47,1.73,21.67,5.58,31.18,7.08,7.27,1.15,14.61,2.12,21.95,2.55,5.56.32,11.23.02,16.78-.61,18.08-2.04,35.91-.98,53.63,3.22,3.06.73,8.85.47,12.08.47"/>
      <path class="cls-1" d="M1841.39,1.11c1.29,7.16,1.92,14.52,4.01,21.43,4.18,13.75,11.14,25.86,22.42,35.23,12.02,9.98,23.87,20.16,35.49,30.6,6.58,5.91,12.55,12.51,18.79,18.8"/>
      <path class="cls-1" d="M1614.09,1.11c1.72,12.8,3,25.68,5.41,38.34.84,4.41,4.01,8.68,6.95,12.34,11.42,14.27,23.43,28.05,34.63,42.49,3.59,4.63,6.14,10.49,7.75,16.19,4.22,14.94,13.94,23.4,28.58,26.6,11.59,2.54,23.24,4.8,34.87,7.19"/>
      <path class="cls-1" d="M1856.89,1.11c-.8,24.25,4.63,45.71,25.8,60.57,13.53,9.5,26.73,19.47,40.07,29.23"/>
      <path class="cls-1" d="M1538.98,15.36c3.74,13.28,13.1,34.05,25.37,39.8,8.03,3.76,15.59,9.08,23.99,11.38,13.16,3.6,26.62,7.16,40.6,5.51"/>
      <path class="cls-1" d="M1382.9,1.11c5.95,12.92,13.08,25.25,24.05,34.3,8.03,6.62,17.4,11.64,26.35,17.06,5.54,3.36,13.73,7.12,25.16,14.34,2.71,1.71,4.92,3.17,6.4,4.15"/>
      <path class="cls-1" d="M1876.26,1.11c1.51,9.76,3.37,19.49,4.41,29.3.95,8.91,4.87,16.52,10.61,22.6,9.73,10.34,20.5,19.68,30.83,29.44"/>
      <path class="cls-1" d="M1544.34,1.11c7.52,16.72,19.08,30,33.53,41.06,12.52,9.58,27.38,12.5,42.02,16.21"/>
      <path class="cls-1" d="M1479.12,1.77c9.47,12.36,18.85,24.8,28.46,37.05,3.58,4.57,7.64,8.77,11.59,13.04,9.22,10.01,18.46,20.01,27.82,29.88,1.04,1.1,4.68,2.09,6.18,2.74"/>
      <path class="cls-1" d="M1417.13,1.77c5.6,6.94,11.02,14.03,16.83,20.79,9.98,11.62,20.19,23.03,30.31,34.52,7.74,8.79,14.57,18.17,18.72,29.28"/>
      <path class="cls-1" d="M1542.33,24.88c3.88,11.14,11.57,19.56,21.53,24.75,9.22,4.8,19.46,8.05,29.62,10.44,8.76,2.07,18.03,1.98,27.07,2.85"/>
      <path class="cls-1" d="M1533.46,47.14c4.65,6.23,13.04,15.16,20.49,18.58,2.24,1.02,3.13,4.74,5.31,6.23,13.7,9.43,24.65,23.17,41.31,27.94,6.66,1.9,13.71,2.64,20.64,3.29,5.55.52,11.19.11,16.78.11"/>
      <path class="cls-1" d="M1492.04,1.77c9.68,13.45,19.22,27,29.11,40.31,8.17,11.01,16.48,21.95,25.25,32.48,4.87,5.86,7.52,13.78,15.37,17.08,3.53,1.48,6.73,3.73,10.14,5.66"/>
      <path class="cls-1" d="M1828.48,1.11c1.08,4.56,1.35,9.52,3.38,13.59,6.49,13,13.46,25.77,20.64,38.39,1.76,3.08,5.26,5.09,7.58,7.91,6.15,7.49,12.37,14.94,18.06,22.79,10.33,14.22,23.91,24.41,38.76,33.22,2.03,1.21,3.48,3.4,5.21,5.13"/>
      <path class="cls-1" d="M1626.36,53.17c3.66,6.94,6.8,14.23,11.11,20.73,5.01,7.55,11.44,14.14,16.52,21.66,3.49,5.16,6.74,10.92,8.31,16.88,3.18,12,9.79,20.09,21.5,24.1,2.13.73,5.42,3.84,7.36,5.14"/>
      <path class="cls-1" d="M1554.75,66.21c14.9,8.65,40.93,24.15,58.07,27.86,7.84,1.69,15.91,2.27,23.87,3.36"/>
      <path class="cls-1" d="M1894.35,1.11c2.37,11.28,4.77,22.55,7.09,33.84,2.93,14.27,9.77,26.21,20.68,35.78"/>
      <path class="cls-1" d="M1550.8,1.11c4.52,5.64,8.34,12.11,13.7,16.76,14.61,12.68,30.8,23.22,47.67,32.65.66.37,1.7.05,2.56.05"/>
      <path class="cls-1" d="M1572.1,97.2c11.83,2.5,23.42,8.31,34.24,10.66,4.34.95,8.56,2.72,12.93,3.1,1.01.09,2.09.22,5.83.38,8,.36,16.76.52,16.76.39"/>
      <path class="cls-1" d="M1577.92,73.99c17.09,8.24,35.25,13.25,53.63,17.42,3.46.78,4.7,1.74,5.25,5.34,2.78,18.11,15.85,26.96,30.92,33.78.82.37,2.65-.54,3.72-.76"/>
      <path class="cls-1" d="M1812.33,3.07c.35,9.56,5.71,16.9,10.19,24.81,6.24,11.03,16.52,17.3,26.02,24.58.68.52,2.1.07,3.18.07"/>
      <path class="cls-1" d="M1576.04,69.39c16.04,8.38,34.03,12.02,51.62,14.96,1.64.28,3.43-.37,5.16-.59"/>
      <path class="cls-1" d="M1905.97,1.11c2.37,10.85,4.72,21.69,7.11,32.53,1.69,7.66,4.76,14.68,9.68,20.83"/>
      <path class="cls-1" d="M1499.14,1.11c11.56,10.61,19.81,23.73,27.82,37.05,2.45,4.07,5.57,7.72,8.31,11.46"/>
      <path class="cls-1" d="M1569.53,1.77c6.18,10.76,13.43,20.37,24.44,26.86,4.07,2.39,6.81,6.98,10.52,10.14,1.68,1.43,4.22,1.83,6.38,2.7"/>
      <path class="cls-1" d="M1911.13,1.11c3.87,13.01,7.75,26.03,11.62,39.04"/>
      <path class="cls-1" d="M1506.89,1.11c7.1,10.2,14.1,20.47,21.4,30.52,1.57,2.17,6.18,5.03,8.33,6.76"/>
      <path class="cls-1" d="M1605.69,3.07c1.48,13.17,5.3,25.49,12.91,36.44"/>
      <path class="cls-1" d="M1580.5,1.11c2.8,4.34,5.36,8.86,8.46,12.97,4.06,5.39,8.45,10.55,12.92,15.61,1.3,1.47,3.38,2.23,5.1,3.31"/>
      <path class="cls-1" d="M1521.09,1.11c5.22,12.99,10.44,25.99,14.59,36.33,12.92,13.99,24.45,25.94,40.3,31.99"/>
      <path class="cls-1" d="M1722.07,154.83c8.27,4.42,16.96,7.93,23.42,15.47,3.33,3.89,8.44,6.22,12.74,9.26"/>
      <path class="cls-1" d="M1639.27,107.18c-7.1.44-18.28,2.29-25.39,2.72"/>
      <path class="cls-1" d="M1597.94,1.11c.24,8.86,3.84,16.81,7.2,24.68,4.79,11.23,10.14,22.21,15.47,33.2,1.26,2.61,3.45,4.75,5.08,7.2,5.13,7.68,8.86,15.89,9.06,25.37"/>
      <path class="cls-1" d="M1918.88,1.11c1.29,6.51,2.58,13.01,3.87,19.52"/>
      <path class="cls-1" d="M1535.83,37.6c3.23,3.47,13.19,18.47,16.19,22.14,1.3,1.59,1.87,4.51,2.73,6.47"/>
      <path class="cls-1" d="M1534.01,2.42c2.37,6.29,4.73,12.58,7.1,18.87"/>
      <path class="cls-1" d="M1589.54,1.11c3.01,3.47,6.03,6.94,9.04,10.41"/>
      <path class="cls-1" d="M1359.21,56.67c.15.52.41,1.37.79,2.38,1.98,5.3,4.88,8.79,6.32,10.5,18.14,21.48,32.81,29.66,32.81,29.66,15.18,8.46,19.19,5.32,37.3,15.94,7.3,4.28,12.41,8.17,16.12,11.01,19.66,15.06,20.68,22.14,34.4,32.99,16.54,13.09,33.72,17.57,42.51,19.77,12.89,3.22,22.73,3.41,38.78,3.7,17.83.33,27.29-.92,41.98-1.82,41.41-2.55,37.95,2.94,75.55.42,19.34-1.3,38.75-1.43,58.13-2.4,4.03-.2,8.24-.42,13.81.66,12.82,2.5,16.33,8.67,35.25,20.11,11.78,7.12,13.16,6.38,23.32,13.3,8.63,5.88,14.6,11.17,19.39,18.43.23.35-.07-.09,4.58,8.19,6.84,12.21,9.29,16.38,13.43,21.28,1.89,2.23,3.42,3.77,4.46,4.82,10.89,10.93,23.53,17.42,27.81,19.67,8.84,4.65,21.12,11.85,36.83,23.24"/>
      <path class="cls-1" d="M1566.57,65.42c1.41.51,9.46,7.87,11.83,8.74"/>
      <path class="cls-1" d="M1541.34,21.71c.35,1.16.71,2.32,1.06,3.48"/>
    </g>
    <g>
      <path class="cls-1" d="M1919.44,510.26c-1.22-.09-2.55-.11-3.97,0-6.02.45-10.66,2.86-13.51,4.73-4.67,2.07-11.13,4.36-19.07,5.52-5.9.86-30.9,3.27-37.97,6.24-15.68,6.58-25.35,19.27-31.21,34.71-3.19,8.39-4.5,17.53-8.1,25.71-5.97,13.59-16.51,23.69-28.45,32.37-5.01,3.64-10.02,7.26-14.97,10.98-15.82,11.9-23.1,28.78-28.03,47.12-4.51,16.79-5.58,33.85-3.75,51.01,1.11,10.4,3.64,20.64,5,31.02,1.09,8.34,2.4,16.85,1.84,25.16-1.31,19.2-4.99,38.31-5.25,57.49-.22,15.9,3.45,31.82,4.68,47.79.32,4.2-2.19,17.36.8,34.22.25,1.38,1.43,4.66,1.59,5.39"/>
      <path class="cls-1" d="M1921.03,519.71c-10.5.18-33.65,2.06-56.67,17.18-6.54,4.29-24.82,15.04-33.8,36.17-8.88,20.87-17.26,41.98-29.39,61.28-3.43,5.46-7.4,10.68-11.71,15.48-10.2,11.38-21.13,22.13-31.04,33.74-7.76,9.08-10.61,20.63-10.99,32.19-.66,19.99-.35,40.04-.14,60.05.24,22.6.61,45.21,1.33,67.8.34,10.8-7.28,29.73,2.58,46.5.85,1.45,1.64,2.59,2.2,3.34"/>
      <path class="cls-1" d="M1920.97,527.2c-10.63,3.66-21.36,7.05-31.86,11.04-19.36,7.36-32.44,20.62-40.64,39.86-7.12,16.71-15.8,32.91-25.4,48.36-6.22,10.01-15.54,18.09-23.08,27.34-11.44,14.03-24.4,26.76-34.74,41.8-7.96,11.58-10.31,24.42-12.93,37.57-2.61,13.08.62,25.46,2.53,38.15,1.6,10.62,1.94,21.5,2.05,32.26.17,16.78-.24,33.58-.6,50.37-.14,6.47-.8,12.92-1.26,19.37-.63,8.83-1.41,17.64-1.87,26.48-.11,2.12.79,4.3,1.22,6.45"/>
      <path class="cls-1" d="M1920.32,538.17c-11.5,5.17-23.58,9.36-34.35,15.73-15.68,9.28-25.72,24.09-32.47,40.54-6.11,14.89-14.48,27.67-26.86,38.05-25.62,21.5-44.32,48.3-58.41,78.19-7.14,15.16-8.04,31.73-6.03,48.34.13,1.09.6,2.15.61,3.23.47,27.55,1.52,55.11,1.06,82.65-.23,13.8-3.25,27.55-4.92,41.33-.57,4.72-.38,11.15-.81,15.89"/>
      <path class="cls-1" d="M1920.97,808.75c-8.46.43-16.92.83-25.37,1.3-17.54.99-29.25,11.84-41.14,23.09-9.89,9.34-20.36,18.04-32.95,24.22-19.15,9.41-29.85,25.56-33.98,46.3-3.71,18.63-8.4,37.11-19.61,52.86-8.17,11.48-17.93,21.84-26.45,33.1-7.77,10.25-16.33,20.32-21.81,31.76-6.18,12.88-13.68,25.75-22.21,37.22-5.77,7.76-12.12,15.08-18.14,22.67-1.26,1.59-2.19,3.43-3.28,5.15"/>
      <path class="cls-1" d="M1920.32,822.31c-12.36-7.49-24.93-5.7-37.04.1-17.13,8.19-31.76,19.99-45.64,32.79-9.34,8.61-18.86,17.05-28.65,25.16-8.51,7.04-11.66,16.81-14.85,26.56-5.83,17.8-10.8,35.9-17.15,53.51-4.59,12.72-14.08,22.67-22.65,32.96-6.46,7.75-13.18,15.32-20.18,22.59-7.96,8.27-14.47,22.07-19.32,32.31-5.81,12.26-13.29,19.8-19.89,31.71-1.06,1.93-1.36,4.27-2.01,6.42"/>
      <path class="cls-1" d="M1920.32,833.93c-8.17-4.3-16.89-3.1-25.36-1.84-23.82,3.55-42.98,15.92-59.1,32.96-7.27,7.69-13.22,16.62-19.63,25.09-5.11,6.75-12.17,11.7-15.85,19.91-5.99,13.36-10.66,27.33-12.35,41.47-2.38,19.89-11.02,35.87-23.91,50.29-8.76,9.8-18.82,18.65-26.4,29.25-11.37,15.9-22.66,32.98-33.08,49.55-1.09,1.72-2.17,3.44-3.25,5.17"/>
      <path class="cls-1" d="M1920.97,850.72c-17.51-5.8-34.94-5.38-52,1.43-4.71,1.88-9.64,4.68-12.91,8.4-11.04,12.59-22.35,24.89-29.82,40.36-3.71,7.69-10.87,14.01-17.33,20.05-5.73,5.35-7.72,11.71-8.29,18.88-2.38,29.7-13.41,55.69-33.16,78.18-10.92,12.45-22.01,24.85-31.69,38.22-6.68,9.22-11.09,20.06-16.51,30.18"/>
      <path class="cls-1" d="M1918.37,860.41c-26.28-2.69-46.95,5.91-62.03,28.28-7.49,11.12-17.14,20.8-25.82,31.14-20.44,9.77-26.08,28.37-30.1,48.4-2.52,12.6-3.5,25.92-11.59,36.81-4.94,6.65-9.62,13.77-15.73,19.23-11.76,10.51-21.26,22.62-29.79,35.68-5.79,8.87-11.7,17.66-17.55,26.48"/>
      <path class="cls-1" d="M1920.97,879.78c-26.53-.9-48.56,7.87-64.39,29.73-4.74,6.54-9.24,13.26-13.66,20.02-3.49,5.33-7.81,9.81-13.72,12.17-10.59,4.24-15.88,12.84-19.39,22.71-3.08,8.66-5.27,17.63-7.92,26.44-4.77,15.83-13.21,29.51-24,42.04-12.02,13.95-23.59,28.28-35.13,42.62-2.64,3.28-4.41,7.26-6.58,10.92"/>
      <path class="cls-1" d="M1920.97,594.36c-20.61,19.37-41.35,38.6-61.77,58.17-14.13,13.53-27.97,27.35-41.64,41.33-9.59,9.82-13.52,22.35-16.41,35.45-4.58,20.7-10.65,41.16-9.61,62.65.5,10.35,1.5,23.36,2.36,33.69"/>
      <path class="cls-1" d="M1920.97,895.28c-6.94,1.08-13.85,2.67-20.83,3.12-13.27.84-22.11,8.86-30.52,17.6-3.61,3.75-7.02,7.84-9.73,12.26-8.59,14.02-19.53,25.85-33.34,34.71-12.68,8.12-18.75,20.2-23.42,33.67-6.66,19.2-15.73,36.86-31.67,50.57-5.5,4.73-9.46,11.31-13.77,17.3-4.99,6.95-9.6,14.17-14.37,21.27"/>
      <path class="cls-1" d="M1847.94,631.68c-3.98,4.13-9.72,10.29-16.21,18.09-9.93,11.91-31.28,34.15-41.49,65.36-3.56,10.88-6.77,21.88-9.69,32.95-.97,3.68-.76,7.72-.73,11.59.13,16.14.46,32.29.59,48.44.11,12.48-.26,24.98.13,37.45.21,6.71.08,13.14-2.68,19.39-2.65,6.01-5,12.14-6.34,18.47-2.02,7.4-3.85,14.86-6.1,22.19-4.03,13.14-13.24,22.77-21.78,33.19-9.55,11.64-16.82,25.13-25.01,37.86-7.96,12.35-19.39,27-32.26,34.15-35.08,19.51-33.53,33.4-42.23,44.68-9.73,12.62-16.3,23.82-20.16,30.93"/>
      <path class="cls-1" d="M1920.97,904.96c-14.17,3.7-25.69,11.95-36.4,21.35-17.94,15.75-35.23,32.26-53.55,47.56-10.01,8.36-19.2,17.14-25.11,28.65-5.73,11.14-10.27,22.88-15.8,34.13-6.47,13.17-14.61,25.25-25.27,35.59-4.39,4.25-8.29,9-12.41,13.52"/>
      <path class="cls-1" d="M1920.32,620.83c-8.67,7.32-17.58,14.39-25.97,22.02-10.86,9.87-21.48,20.01-31.89,30.34-10.41,10.33-20.69,20.82-30.56,31.65-13.22,14.51-22.88,31.37-27.07,50.38-2.96,13.41-2.95,27.48-4.21,41.26-.53,5.8-.71,14.68-1.14,20.49"/>
      <path class="cls-1" d="M1920.97,927.56c-20.42,7.91-41.09,15.33-58.55,29.08-2.52,1.98-4.91,4.17-7.16,6.45-13.05,13.31-26.87,25.99-38.79,40.24-8.77,10.48-15.85,22.6-22.19,34.75-8.7,16.64-16,34-29.49,47.67-.32.32-.85.44-1.29.66"/>
      <path class="cls-1" d="M1776.43,896.61c-2.6,7.96-5.63,17.23-8.41,25.13-3.6,10.25-10.87,18.17-17.5,26.52-8.62,10.85-17.44,21.6-25.3,32.98-10.54,15.26-25.52,31.86-38.24,45.11-16.07,16.74-33.53,28.36-41.56,51.03-1.07,3.02-2.17,6.03-3.25,9.04"/>
      <path class="cls-1" d="M1776.51,896.57c3.95-.24,2.53,2.76,2.55,4.52.2,20.2-8,37.04-20.7,52.36-13.34,16.1-26.57,32.32-38.95,49.14-8.24,11.21-16.01,27.84-24,39.25-11.04,15.77-22.61,27.21-31.11,44.57"/>
      <path class="cls-1" d="M1920.97,942.42c-15.92,4.84-31.14,11.1-44.94,20.59-9.27,6.38-15.13,15.59-22.17,23.89-6.31,7.45-13.7,14-20,21.45-7.94,9.39-16.77,18.51-22.52,29.17-9.47,17.59-20.13,34.09-33.53,48.89"/>
      <path class="cls-1" d="M1920.97,559.48c-6.07,5.38-11.88,11.09-18.27,16.08-13.47,10.51-23.77,23.85-34.39,36.91-7.82,9.63-16.87,17.49-27.98,23.29-21.03,10.99-34.24,29.5-46.24,49-8.04,13.06-15.43,26.33-19.71,41.27-2.81,9.82-4.78,19.62-4.99,29.75-.19,9.68-.13,19.37.02,29.06.04,2.38,1.02,6.88,1.45,9.25"/>
      <path class="cls-1" d="M1920.97,963.08c-8.24,2.15-16.72,3.68-24.68,6.6-12.3,4.52-20.5,13.93-28.24,24.24-7.02,9.35-15.16,18.16-24.01,25.83-18.26,15.8-33.03,34.11-44.86,54.99-2.31,4.07-5.97,7.38-9.01,11.04"/>
      <path class="cls-1" d="M1920.32,796.48c-19.24-12.33-32.14-7.5-48.06,5.28-11.94,9.57-23.26,19.94-34.51,30.32-6.14,5.66-13.43,8.9-20.86,12.27-12.1,5.49-21.6,14.34-30.01,24.43-.56.68-1.69.9-2.56,1.33"/>
      <path class="cls-1" d="M1780.4,749.16c-1.73,9.47-5.58,21.67-7.08,31.18-1.15,7.27-2.12,14.61-2.55,21.95-.32,5.56-.02,11.23.61,16.78,2.04,18.08.98,35.91-3.22,53.63-.73,3.06-.47,8.85-.47,12.08"/>
      <path class="cls-1" d="M1920.97,1005.06c-7.16,1.29-14.52,1.92-21.43,4.01-13.75,4.18-25.86,11.14-35.23,22.42-9.98,12.02-20.16,23.87-30.6,35.49-5.91,6.58-12.51,12.55-18.8,18.79"/>
      <path class="cls-1" d="M1920.97,777.75c-12.8,1.72-25.68,3-38.34,5.41-4.41.84-8.68,4.01-12.34,6.95-14.27,11.42-28.05,23.43-42.49,34.63-4.63,3.59-10.49,6.14-16.19,7.75-14.94,4.22-23.4,13.94-26.6,28.58-2.54,11.59-4.8,23.24-7.19,34.87"/>
      <path class="cls-1" d="M1920.97,1020.56c-24.25-.8-45.71,4.63-60.57,25.8-9.5,13.53-19.47,26.73-29.23,40.07"/>
      <path class="cls-1" d="M1906.73,702.64c-13.28,3.74-34.05,13.1-39.8,25.37-3.76,8.03-9.08,15.59-11.38,23.99-3.6,13.16-7.16,26.62-5.51,40.6"/>
      <path class="cls-1" d="M1920.97,546.57c-12.92,5.95-25.25,13.08-34.3,24.05-6.62,8.03-11.64,17.4-17.06,26.35-3.36,5.54-7.12,13.73-14.34,25.16-1.71,2.71-3.17,4.92-4.15,6.4"/>
      <path class="cls-1" d="M1920.97,1039.93c-9.76,1.51-19.49,3.37-29.3,4.41-8.91.95-16.52,4.87-22.6,10.61-10.34,9.73-19.68,20.5-29.44,30.83"/>
      <path class="cls-1" d="M1920.97,708c-16.72,7.52-30,19.08-41.06,33.53-9.58,12.52-12.5,27.38-16.21,42.02"/>
      <path class="cls-1" d="M1920.32,642.78c-12.36,9.47-24.8,18.85-37.05,28.46-4.57,3.58-8.77,7.64-13.04,11.59-10.01,9.22-20.01,18.46-29.88,27.82-1.1,1.04-2.09,4.68-2.74,6.18"/>
      <path class="cls-1" d="M1920.32,580.79c-6.94,5.6-14.03,11.02-20.79,16.83-11.62,9.98-23.03,20.19-34.52,30.31-8.79,7.74-18.17,14.57-29.28,18.72"/>
      <path class="cls-1" d="M1897.21,705.99c-11.14,3.88-19.56,11.57-24.75,21.53-4.8,9.22-8.05,19.46-10.44,29.62-2.07,8.76-1.98,18.03-2.85,27.07"/>
      <path class="cls-1" d="M1874.95,697.12c-6.23,4.65-15.16,13.04-18.58,20.49-1.02,2.24-4.74,3.13-6.23,5.31-9.43,13.7-23.17,24.65-27.94,41.31-1.9,6.66-2.64,13.71-3.29,20.64-.52,5.55-.11,11.19-.11,16.78"/>
      <path class="cls-1" d="M1920.32,655.7c-13.45,9.68-27,19.22-40.31,29.1-11.01,8.17-21.95,16.48-32.48,25.25-5.86,4.87-13.78,7.52-17.08,15.37-1.48,3.53-3.73,6.73-5.66,10.14"/>
      <path class="cls-1" d="M1920.97,992.14c-4.56,1.08-9.52,1.35-13.59,3.38-13,6.49-25.77,13.46-38.39,20.64-3.08,1.76-5.09,5.26-7.91,7.58-7.49,6.15-14.94,12.37-22.79,18.06-14.22,10.33-24.41,23.91-33.22,38.76-1.21,2.03-3.4,3.48-5.13,5.21"/>
      <path class="cls-1" d="M1868.92,790.02c-6.94,3.66-14.23,6.8-20.73,11.11-7.55,5.01-14.14,11.44-21.66,16.52-5.16,3.49-10.92,6.74-16.88,8.31-12,3.18-20.09,9.79-24.1,21.5-.73,2.13-3.84,5.42-5.14,7.36"/>
      <path class="cls-1" d="M1855.88,718.41c-8.65,14.9-24.15,40.93-27.86,58.07-1.69,7.84-2.27,15.91-3.36,23.87"/>
      <path class="cls-1" d="M1920.97,1058.01c-11.28,2.37-22.55,4.77-33.84,7.09-14.27,2.93-26.21,9.77-35.78,20.68"/>
      <path class="cls-1" d="M1920.97,714.46c-5.64,4.52-12.11,8.34-16.76,13.7-12.68,14.61-23.22,30.8-32.65,47.67-.37.66-.05,1.7-.05,2.56"/>
      <path class="cls-1" d="M1824.89,735.76c-2.5,11.83-8.31,23.42-10.66,34.24-.94,4.34-2.72,8.56-3.1,12.93-.09,1.01-.22,2.09-.38,5.83-.36,8-.52,16.76-.39,16.76"/>
      <path class="cls-1" d="M1848.09,741.59c-8.24,17.09-13.25,35.25-17.42,53.63-.78,3.46-1.74,4.7-5.34,5.25-18.11,2.78-26.96,15.85-33.78,30.92-.37.82.54,2.65.76,3.72"/>
      <path class="cls-1" d="M1919.02,976c-9.56.35-16.9,5.71-24.81,10.19-11.03,6.24-17.3,16.52-24.58,26.02-.52.68-.07,2.1-.07,3.18"/>
      <path class="cls-1" d="M1852.71,739.7c-8.38,16.04-12.02,34.03-14.96,51.62-.28,1.64.37,3.43.59,5.16"/>
      <path class="cls-1" d="M1920.97,1069.63c-10.85,2.37-21.69,4.72-32.53,7.11-7.66,1.69-14.68,4.76-20.83,9.68"/>
      <path class="cls-1" d="M1920.97,662.81c-10.61,11.56-23.73,19.81-37.05,27.82-4.07,2.45-7.72,5.57-11.46,8.31"/>
      <path class="cls-1" d="M1920.32,733.2c-10.76,6.18-20.37,13.43-26.86,24.44-2.39,4.07-6.98,6.81-10.14,10.52-1.43,1.68-1.83,4.22-2.7,6.38"/>
      <path class="cls-1" d="M1920.97,1074.8c-13.01,3.87-26.03,7.75-39.04,11.62"/>
      <path class="cls-1" d="M1920.97,670.56c-10.2,7.1-20.47,14.1-30.52,21.4-2.17,1.57-5.03,6.18-6.76,8.33"/>
      <path class="cls-1" d="M1919.02,769.35c-13.17,1.48-25.49,5.3-36.44,12.91"/>
      <path class="cls-1" d="M1920.97,744.17c-4.34,2.8-8.86,5.36-12.97,8.46-5.39,4.06-10.55,8.45-15.61,12.92-1.47,1.3-2.23,3.38-3.31,5.1"/>
      <path class="cls-1" d="M1920.97,684.76c-12.99,5.22-25.99,10.44-36.33,14.59-13.99,12.92-25.94,24.45-31.99,40.3"/>
      <path class="cls-1" d="M1767.26,885.73c-4.42,8.27-7.93,16.96-15.47,23.42-3.89,3.33-6.22,8.44-9.26,12.74"/>
      <path class="cls-1" d="M1814.91,802.94c-.44-7.1-2.29-18.28-2.72-25.39"/>
      <path class="cls-1" d="M1920.97,761.6c-8.86.24-16.81,3.84-24.68,7.2-11.23,4.79-22.21,10.14-33.2,15.47-2.61,1.26-4.75,3.45-7.2,5.08-7.68,5.13-15.89,8.86-25.37,9.06"/>
      <path class="cls-1" d="M1920.97,1082.55c-6.51,1.29-13.01,2.58-19.52,3.87"/>
      <path class="cls-1" d="M1884.48,699.49c-3.47,3.23-18.47,13.19-22.14,16.19-1.59,1.3-4.51,1.87-6.47,2.73"/>
      <path class="cls-1" d="M1919.67,697.67c-6.29,2.37-12.58,4.73-18.87,7.1"/>
      <path class="cls-1" d="M1920.97,753.21c-3.47,3.01-6.94,6.03-10.41,9.04"/>
      <path class="cls-1" d="M1865.41,522.87c-.52.15-1.37.41-2.38.79-5.3,1.98-8.79,4.88-10.5,6.32-21.48,18.14-29.66,32.81-29.66,32.81-8.46,15.18-5.32,19.19-15.94,37.3-4.28,7.3-8.17,12.41-11.01,16.12-15.06,19.66-22.14,20.68-32.99,34.4-13.09,16.54-17.57,33.72-19.77,42.51-3.22,12.89-3.41,22.73-3.7,38.78-.33,17.83.92,27.29,1.82,41.98,2.55,41.41-2.94,37.95-.42,75.55,1.3,19.34,1.43,38.75,2.4,58.13.2,4.03.42,8.24-.66,13.81-2.5,12.82-8.67,16.33-20.11,35.25-7.12,11.78-6.38,13.16-13.3,23.32-5.88,8.63-11.17,14.6-18.43,19.39-.35.23.09-.07-8.19,4.58-12.21,6.84-16.38,9.29-21.28,13.43-2.23,1.89-3.77,3.42-4.82,4.46-10.93,10.89-17.42,23.53-19.67,27.81-4.65,8.84-11.85,21.12-23.24,36.83"/>
      <path class="cls-1" d="M1856.68,730.24c-.51,1.41-7.87,9.46-8.74,11.83"/>
      <path class="cls-1" d="M1900.37,705.01c-1.16.35-2.32.71-3.48,1.06"/>
    </g>
    <g>
      <path class="cls-1" d="M20.06,919.41c1.59-.87,3.36-1.42,4.94-2.33,2.29-1.33,4.35-3.29,6.25-5.13,6.33-6.12,10.13-13.46,14.39-21.01,2-3.54,5.35-6.23,8.31-8.94,4.35-3.97,8.89-7.72,13.29-11.63,8.94-7.96,16.04-16.59,21.51-27.27,5.67-11.09,9.83-22.86,14.87-34.23,2.45-5.53,5.02-11.3,8.76-15.92s8.31-8.46,12.78-12.36c9.29-8.09,20.12-14.32,28.81-23.1,15.41-15.56,22.78-36.06,23.6-57.71.9-23.31-7.86-43.73-20.52-62.86-14.34-21.66-31.57-43.28-38.54-68.74-1.52-5.53-2.45-11.23-2.32-16.98.14-6.25,1.43-12.38,2.07-18.58,1.02-9.91-.26-19.97-3.26-29.45-5.97-18.87-18.37-35.72-33.05-48.78-12.5-11.11-25.69-21.47-38.77-31.89-13.77-10.97-28.1-22.15-38.91-36.16"/>
      <path class="cls-1" d="M18.72,872.92c6.15.03,13.2-1.38,18.84-4.91,3.53-2.12,5.64-4.94,7.76-8.46,4.94-9.17,7.05-19.04,13.4-27.5,6.35-7.76,11.99-15.52,18.34-23.27,2.82-4.23,4.94-7.76,7.76-11.28,10.58-12.69,18.34-24.68,28.21-38.79,2.12-2.82,4.23-4.94,6.35-7.76,7.76-11.99,16.93-21.16,19.04-35.26,1.41-9.87-.71-19.04-4.23-27.5-9.87-20.45-20.45-40.2-29.62-61.36-1.41-4.23-3.53-7.76-4.94-11.99-12.69-34.56-11.99-69.82-15.52-105.79-.71-7.76-4.23-14.81-7.05-21.86-3.53-7.76-7.76-14.81-12.69-22.57-17.63-26.09-36.67-47.96-59.31-67.71"/>
      <path class="cls-1" d="M9.58,882.62c1.18-.51,3.3-1.21,4.71-2.62,9.17-14.81,15.52-29.62,23.27-44.43l2.12-2.12c1.41-2.12,1.41-3.53,2.82-5.64,2.12-2.82,3.53-4.94,5.64-7.76,10.58-17.63,20.45-33.15,34.56-47.25,10.58-9.87,23.98-16.22,30.33-28.91.71-2.12,1.41-3.53,2.12-4.94,2.82-11.99,5.64-23.98,3.53-36.67-1.41-7.76-3.53-15.52-6.35-22.57-10.58-25.39-21.16-49.37-31.74-74.05-7.05-9.87-10.58-21.86-14.1-33.15-7.76-26.09-11.28-51.48-14.1-78.28-.71-11.99-4.94-23.27-11.28-34.56l-6.35-10.58c-9.17-12.69-18.34-23.27-28.84-33.67"/>
      <path class="cls-1" d="M6.03,874.96c3.32-6.25,6.85-11.89,9.67-18.24,4.94-14.81,9.87-28.91,18.34-42.31,2.12-2.82,4.23-4.94,6.35-7.76,12.69-19.75,26.09-35.97,40.2-54.3,4.23-4.23,9.17-7.76,12.69-12.69,2.12-3.53,4.23-6.35,5.64-9.87.71-2.12,1.41-3.53,2.12-4.94,2.82-7.05,2.82-14.81,2.12-21.86-2.12-21.86-7.05-42.31-14.1-62.77-9.87-28.91-23.98-53.6-39.49-80.4-6.35-12.69-9.87-25.39-12.69-38.79,0-31.74-11.28-62.77-32.45-86.91"/>
      <path class="cls-1" d="M14.07,1085.59c-5.63-11.44-8.54-24.7-11.41-37.06"/>
      <path class="cls-1" d="M1.16,763.53c11.71-10.48,23-22.47,27.23-37.98,8.46-26.8,19.75-55.01,9.87-82.51-6.35-16.93-14.81-33.15-23.98-49.37-2.12-4.23-3.53-8.46-5.64-12.69-2.82-4.23-3.53-8.46-6.7-11.99"/>
      <path class="cls-1" d="M81.98,1083.79c-1.41-2.8-2.82-5.62-4.23-8.44-11.28-16.93-23.98-30.33-34.56-47.96-16.22-27.5-20.45-57.12-28.91-87.45-2.82-10.58-7.76-19.75-11.5-29.75"/>
      <path class="cls-1" d="M2.33,804.32c1.38-1.9,2.09-4.01,3.5-6.13s2.82-3.53,4.23-4.94c2.82-4.23,4.23-7.76,7.05-11.28,13.4-17.63,24.68-33.15,38.08-50.78,2.12-2.82,3.53-5.64,4.94-8.46,5.64-17.63,6.35-35.97,4.94-54.3-2.82-43.72-23.98-82.51-42.19-121.49"/>
      <path class="cls-1" d="M1.06,738.26c11.11-19.06,20.28-40.21,18.87-62.78-1.41-18.34-8.46-35.97-16.22-52.77"/>
      <path class="cls-1" d="M59.41,1084.61c-5.01-9.29-9.89-18.65-14.6-28.11-8.31-16.72-16.17-33.7-23.19-51.02-7.02-17.31-12.52-35.15-18.92-52.68"/>
      <path class="cls-1" d="M31.26,1085.34c-9.92-24.8-14.15-50.19-20.5-76.99-2.12-7.76-4.94-14.81-8.02-22.66"/>
      <path class="cls-1" d="M49.52,769.59c1.52-1.09,3.07-2.13,4.55-3.27,3.7-2.83,6.13-6.88,8.82-10.62,3.1-4.3,6.14-8.65,9.08-13.08,5.39-8.12,8.98-16.47,10.83-26.07,3.9-20.3.32-40.54-4.52-60.35-4.08-16.66-8.84-33.2-15.73-48.93-7.97-18.22-18.75-34.58-31.26-49.97-12.52-15.41-22.72-32.34-30.11-50.77"/>
      <path class="cls-1" d="M2.17,848.28c1.54-2.13,3.65-3.54,4.36-5.66,2.12-9.87,4.94-18.34,8.46-27.5,5.64-12.69,16.22-21.16,25.39-31.74,7.76-8.46,10.58-19.04,14.1-29.62,2.82-10.58,3.53-21.86,6.39-32.71"/>
      <path class="cls-1" d="M19.68,540.75c-7.51-24.66-10.33-50.04-17.52-74.41"/>
      <path class="cls-1" d="M33.43,573.12c-11.28-11.74-21.09-24.77-29.68-38.59"/>
      <path class="cls-1" d="M19.19,908.97c-1.44-4.4-2.29-8.96-3.76-13.35-2.64-7.91-7.63-14.67-10-22.76-1.99-6.78-2.81-13.8-4.01-20.75"/>
      <path class="cls-1" d="M95.03,1084.47c-8.11-16.88-21.51-28.87-32.79-44.38-5.64-7.76-10.58-14.81-15.52-22.57-4.23-6.35-6.35-13.4-7.76-20.45-5.64-17.63-7.76-34.56-13.4-52.19-4.23-15.52-12.69-33.85,0-47.96,7.05-7.05,11.99-14.81,18.34-22.57,2.12-2.12,4.23-4.94,6.35-7.05,2.82-3.53,4.94-7.05,7.76-10.58,6.35-7.76,12.69-13.4,19.04-21.86,7.05-10.58,10.58-20.45,16.93-31.03,9.87-14.81,21.86-26.09,33.15-39.49,15.52-18.34,27.5-38.79,28.21-62.77.71-28.21-11.28-53.6-26.09-78.28-11.99-20.45-19.75-41.61-24.68-64.88-1.41-9.87,0-19.75,0-29.62-.71-7.76-1.41-16.22-4.23-23.98-4.94-11.99-9.87-23.27-16.22-35.26-1.41-2.12-2.82-3.53-4.23-5.64-5.64-10.58-12.69-19.75-20.61-28.29"/>
    </g>
  </g>
</svg>